<svg width="402" height="99" viewBox="0 0 402 99" fill="none" xmlns="http://www.w3.org/2000/svg">
<rect y="0.219727" width="98.7803" height="98.7803" rx="15.5772" fill="white"/>
<path d="M155.207 89.0071C149.633 89.0071 144.775 87.7267 140.632 85.1658C136.565 82.6049 133.402 78.9894 131.142 74.3195C128.882 69.5743 127.752 64.0382 127.752 57.7112C127.752 51.3843 128.882 45.8858 131.142 41.2159C133.402 36.546 136.565 32.9306 140.632 30.3697C144.775 27.7335 149.633 26.4153 155.207 26.4153C159.802 26.4153 163.869 27.2439 167.409 28.9009C171.024 30.4827 173.962 32.8176 176.222 35.9058C178.481 38.994 179.95 42.76 180.628 47.204L170.685 47.8818C170.008 43.8898 168.275 40.8393 165.488 38.7303C162.701 36.546 159.274 35.4539 155.207 35.4539C149.709 35.4539 145.415 37.4499 142.327 41.4419C139.239 45.3586 137.695 50.7817 137.695 57.7112C137.695 64.6408 139.239 70.1016 142.327 74.0936C145.415 78.0103 149.709 79.9686 155.207 79.9686C159.274 79.9686 162.701 78.8388 165.488 76.5792C168.275 74.3195 170.008 70.9301 170.685 66.4108L180.628 67.0887C179.95 71.5327 178.481 75.4117 176.222 78.7258C173.962 81.9646 171.024 84.4879 167.409 86.2956C163.869 88.1033 159.802 89.0071 155.207 89.0071ZM212.052 89.0071C206.101 89.0071 201.318 87.0111 197.703 83.0191C194.163 78.9518 192.393 73.378 192.393 66.2978V27.7711H201.883V63.6993C201.883 69.499 202.9 73.7923 204.934 76.5792C207.043 79.2907 210.244 80.6465 214.537 80.6465C219.283 80.6465 223.011 79.1401 225.722 76.1272C228.434 73.0391 229.79 68.8211 229.79 63.4733V27.7711H239.28V87.6514H230.242V72.8508L231.711 73.6416C230.505 78.5375 228.208 82.3412 224.819 85.0528C221.429 87.689 217.174 89.0071 212.052 89.0071ZM283.179 89.0071C279.036 89.0071 275.346 88.1033 272.107 86.2956C268.868 84.4126 266.382 81.8516 264.65 78.6128L264.311 87.6514H255.724V7.43443H265.215V36.1318C266.721 33.6462 269.056 31.4242 272.22 29.4658C275.383 27.4322 279.036 26.4153 283.179 26.4153C288.451 26.4153 293.008 27.6958 296.85 30.2567C300.691 32.8176 303.666 36.433 305.775 41.1029C307.884 45.7729 308.939 51.309 308.939 57.7112C308.939 64.1135 307.884 69.6496 305.775 74.3195C303.666 78.9894 300.691 82.6049 296.85 85.1658C293.008 87.7267 288.451 89.0071 283.179 89.0071ZM282.614 79.9686C287.661 79.9686 291.653 77.9726 294.59 73.9806C297.528 69.9886 298.996 64.5655 298.996 57.7112C298.996 50.7817 297.528 45.3586 294.59 41.4419C291.653 37.4499 287.736 35.4539 282.84 35.4539C279.149 35.4539 275.986 36.3577 273.35 38.1654C270.713 39.8978 268.68 42.4211 267.249 45.7352C265.893 49.0493 265.215 53.0413 265.215 57.7112C265.215 62.2305 265.893 66.1849 267.249 69.5743C268.68 72.8884 270.676 75.4494 273.237 77.2571C275.873 79.0648 278.999 79.9686 282.614 79.9686ZM321.814 87.6514V27.7711H331.305V87.6514H321.814ZM321.588 18.3936V7.32145H331.531V18.3936H321.588ZM371.681 89.0071C366.108 89.0071 361.25 87.7267 357.107 85.1658C353.04 82.6049 349.876 78.9894 347.616 74.3195C345.357 69.5743 344.227 64.0382 344.227 57.7112C344.227 51.3843 345.357 45.8858 347.616 41.2159C349.876 36.546 353.04 32.9306 357.107 30.3697C361.25 27.7335 366.108 26.4153 371.681 26.4153C376.276 26.4153 380.343 27.2439 383.883 28.9009C387.499 30.4827 390.436 32.8176 392.696 35.9058C394.956 38.994 396.424 42.76 397.102 47.204L387.16 47.8818C386.482 43.8898 384.75 40.8393 381.963 38.7303C379.176 36.546 375.749 35.4539 371.681 35.4539C366.183 35.4539 361.89 37.4499 358.802 41.4419C355.713 45.3586 354.169 50.7817 354.169 57.7112C354.169 64.6408 355.713 70.1016 358.802 74.0936C361.89 78.0103 366.183 79.9686 371.681 79.9686C375.749 79.9686 379.176 78.8388 381.963 76.5792C384.75 74.3195 386.482 70.9301 387.16 66.4108L397.102 67.0887C396.424 71.5327 394.956 75.4117 392.696 78.7258C390.436 81.9646 387.499 84.4879 383.883 86.2956C380.343 88.1033 376.276 89.0071 371.681 89.0071Z" fill="white"/>
</svg>
