<svg width="782" height="448" viewBox="0 0 782 448" fill="none" xmlns="http://www.w3.org/2000/svg">
<path d="M301.484 114.516L372.096 43.9044C376.782 39.2181 384.38 39.2181 389.066 43.9044L560.678 215.516C565.364 220.202 565.364 227.8 560.678 232.487L389.067 404.097C384.381 408.783 376.783 408.783 372.097 404.097L200.485 232.485C195.799 227.799 195.799 220.201 200.485 215.515L246.742 169.258L274.113 141.887" stroke="#BEBEBE" stroke-dasharray="4 4"/>
<path d="M206.955 82.9912C206.955 81.0582 208.522 79.4912 210.455 79.4912H293.091C295.024 79.4912 296.591 81.0582 296.591 82.9912V165.865C296.591 167.798 295.024 169.365 293.091 169.365H210.455C208.522 169.365 206.955 167.798 206.955 165.865V82.9912Z" fill="black"/>
<path d="M206.955 82.9912C206.955 81.0582 208.522 79.4912 210.455 79.4912H293.091C295.024 79.4912 296.591 81.0582 296.591 82.9912V165.865C296.591 167.798 295.024 169.365 293.091 169.365H210.455C208.522 169.365 206.955 167.798 206.955 165.865V82.9912Z" fill="url(#paint0_linear_401_6512)"/>
<path d="M206.955 82.9912C206.955 81.0582 208.522 79.4912 210.455 79.4912H293.091C295.024 79.4912 296.591 81.0582 296.591 82.9912V165.865C296.591 167.798 295.024 169.365 293.091 169.365H210.455C208.522 169.365 206.955 167.798 206.955 165.865V82.9912Z" stroke="#898989"/>
<path d="M237.115 125.37V124.038C238.159 124.002 239.041 123.462 239.041 122.184V119.484C239.041 117.36 240.067 116.352 242.047 116.352H242.245V117.522H242.047C240.733 117.522 240.301 118.116 240.301 119.412V122.49C240.301 123.678 239.581 124.488 238.429 124.704C239.581 124.92 240.301 125.73 240.301 126.918V129.996C240.301 131.292 240.733 131.886 242.047 131.886H242.245V133.056H242.047C240.067 133.056 239.041 132.048 239.041 129.924V127.224C239.041 125.946 238.159 125.406 237.115 125.37ZM243.812 129.402C243.812 128.772 244.316 128.286 244.928 128.286C245.54 128.286 246.044 128.772 246.044 129.402C246.044 130.032 245.54 130.518 244.928 130.518C244.316 130.518 243.812 130.032 243.812 129.402ZM248.171 129.402C248.171 128.772 248.675 128.286 249.287 128.286C249.899 128.286 250.403 128.772 250.403 129.402C250.403 130.032 249.899 130.518 249.287 130.518C248.675 130.518 248.171 130.032 248.171 129.402ZM252.531 129.402C252.531 128.772 253.035 128.286 253.647 128.286C254.259 128.286 254.763 128.772 254.763 129.402C254.763 130.032 254.259 130.518 253.647 130.518C253.035 130.518 252.531 130.032 252.531 129.402ZM256.89 129.402C256.89 128.772 257.394 128.286 258.006 128.286C258.618 128.286 259.122 128.772 259.122 129.402C259.122 130.032 258.618 130.518 258.006 130.518C257.394 130.518 256.89 130.032 256.89 129.402ZM265.822 124.038V125.37C264.778 125.406 263.896 125.946 263.896 127.224V129.924C263.896 132.048 262.87 133.056 260.89 133.056H260.692V131.886H260.89C262.204 131.886 262.636 131.292 262.636 129.996V126.918C262.636 125.73 263.356 124.92 264.508 124.704C263.356 124.488 262.636 123.678 262.636 122.49V119.412C262.636 118.116 262.204 117.522 260.89 117.522H260.692V116.352H260.89C262.87 116.352 263.896 117.36 263.896 119.484V122.184C263.896 123.462 264.778 124.002 265.822 124.038Z" fill="#8B74F9"/>
<path d="M202.144 77.7559C202.144 75.8229 203.711 74.2559 205.644 74.2559H297.905C299.838 74.2559 301.405 75.8229 301.405 77.7559V160.629C301.405 162.562 299.838 164.129 297.905 164.129H205.644C203.711 164.129 202.144 162.562 202.144 160.629V77.7559Z" fill="black"/>
<path d="M202.144 77.7559C202.144 75.8229 203.711 74.2559 205.644 74.2559H297.905C299.838 74.2559 301.405 75.8229 301.405 77.7559V160.629C301.405 162.562 299.838 164.129 297.905 164.129H205.644C203.711 164.129 202.144 162.562 202.144 160.629V77.7559Z" fill="url(#paint1_linear_401_6512)"/>
<path d="M202.144 77.7559C202.144 75.8229 203.711 74.2559 205.644 74.2559H297.905C299.838 74.2559 301.405 75.8229 301.405 77.7559V160.629C301.405 162.562 299.838 164.129 297.905 164.129H205.644C203.711 164.129 202.144 162.562 202.144 160.629V77.7559Z" stroke="#898989"/>
<path d="M237.116 120.134V118.802C238.16 118.766 239.042 118.226 239.042 116.948V114.248C239.042 112.124 240.068 111.116 242.048 111.116H242.246V112.286H242.048C240.734 112.286 240.302 112.88 240.302 114.176V117.254C240.302 118.442 239.582 119.252 238.43 119.468C239.582 119.684 240.302 120.494 240.302 121.682V124.76C240.302 126.056 240.734 126.65 242.048 126.65H242.246V127.82H242.048C240.068 127.82 239.042 126.812 239.042 124.688V121.988C239.042 120.71 238.16 120.17 237.116 120.134ZM243.813 124.166C243.813 123.536 244.317 123.05 244.929 123.05C245.541 123.05 246.045 123.536 246.045 124.166C246.045 124.796 245.541 125.282 244.929 125.282C244.317 125.282 243.813 124.796 243.813 124.166ZM248.172 124.166C248.172 123.536 248.676 123.05 249.288 123.05C249.9 123.05 250.404 123.536 250.404 124.166C250.404 124.796 249.9 125.282 249.288 125.282C248.676 125.282 248.172 124.796 248.172 124.166ZM252.532 124.166C252.532 123.536 253.036 123.05 253.648 123.05C254.26 123.05 254.764 123.536 254.764 124.166C254.764 124.796 254.26 125.282 253.648 125.282C253.036 125.282 252.532 124.796 252.532 124.166ZM256.891 124.166C256.891 123.536 257.395 123.05 258.007 123.05C258.619 123.05 259.123 123.536 259.123 124.166C259.123 124.796 258.619 125.282 258.007 125.282C257.395 125.282 256.891 124.796 256.891 124.166ZM265.822 118.802V120.134C264.778 120.17 263.896 120.71 263.896 121.988V124.688C263.896 126.812 262.87 127.82 260.89 127.82H260.692V126.65H260.89C262.204 126.65 262.636 126.056 262.636 124.76V121.682C262.636 120.494 263.356 119.684 264.508 119.468C263.356 119.252 262.636 118.442 262.636 117.254V114.176C262.636 112.88 262.204 112.286 260.89 112.286H260.692V111.116H260.89C262.87 111.116 263.896 112.124 263.896 114.248V116.948C263.896 118.226 264.778 118.766 265.822 118.802Z" fill="#8B74F9"/>
<g filter="url(#filter0_d_401_6512)">
<path d="M198.435 72.5205C198.435 70.3114 200.225 68.5205 202.435 68.5205H301.113C303.322 68.5205 305.113 70.3114 305.113 72.5205V155.394C305.113 157.603 303.322 159.394 301.113 159.394H202.435C200.225 159.394 198.435 157.603 198.435 155.394V72.5205Z" fill="#121212"/>
<path d="M198.935 72.5205C198.935 70.5875 200.502 69.0205 202.435 69.0205H301.113C303.046 69.0205 304.613 70.5875 304.613 72.5205V155.394C304.613 157.327 303.046 158.894 301.113 158.894H202.435C200.502 158.894 198.935 157.327 198.935 155.394V72.5205Z" stroke="#BFBFBF"/>
<path d="M230.137 100.957H224.103V91.031H230.137V92.305H225.475V95.357H229.703V96.645H225.475V99.683H230.137V100.957ZM236.481 99.193L239.505 91.031H240.947L237.125 100.957H235.767L232.029 91.031H233.485L236.481 99.193ZM249.399 100.957H243.365V91.031H249.399V92.305H244.737V95.357H248.965V96.645H244.737V99.683H249.399V100.957ZM260.489 100.957H259.061L253.699 92.865V100.957H252.327V91.031H254.161L259.117 98.647V91.031H260.489V100.957ZM270.925 92.305H267.607V100.957H266.235V92.305H262.917V91.031H270.925V92.305ZM279.582 93.285L278.35 93.719C278.238 93.005 277.636 92.025 276.25 92.025C275.13 92.025 274.332 92.753 274.332 93.677C274.332 94.391 274.766 94.937 275.606 95.119L277.09 95.441C278.742 95.805 279.666 96.841 279.666 98.227C279.666 99.767 278.35 101.167 276.236 101.167C273.842 101.167 272.708 99.627 272.526 98.213L273.842 97.793C273.94 98.899 274.724 99.921 276.222 99.921C277.594 99.921 278.266 99.207 278.266 98.339C278.266 97.625 277.776 97.009 276.782 96.799L275.368 96.491C273.954 96.183 272.946 95.259 272.946 93.775C272.946 92.221 274.388 90.821 276.222 90.821C278.462 90.821 279.358 92.207 279.582 93.285Z" fill="#E4E4E4"/>
<path d="M231.609 129.357V127.293C233.001 127.293 234.249 126.645 234.249 124.869V121.581C234.249 118.605 235.761 117.117 238.569 117.117H238.881V118.917H238.569C236.793 118.917 236.217 119.685 236.217 121.437V125.373C236.217 126.981 235.257 128.037 233.721 128.325C235.257 128.613 236.217 129.669 236.217 131.277V135.189C236.217 136.941 236.793 137.709 238.569 137.709H238.881V139.509H238.569C235.761 139.509 234.249 138.021 234.249 135.045V131.781C234.249 130.005 233.001 129.357 231.609 129.357ZM240.914 134.421C240.914 133.485 241.634 132.741 242.57 132.741C243.506 132.741 244.25 133.485 244.25 134.421C244.25 135.357 243.506 136.077 242.57 136.077C241.634 136.077 240.914 135.357 240.914 134.421ZM246.938 134.421C246.938 133.485 247.658 132.741 248.594 132.741C249.53 132.741 250.274 133.485 250.274 134.421C250.274 135.357 249.53 136.077 248.594 136.077C247.658 136.077 246.938 135.357 246.938 134.421ZM252.961 134.421C252.961 133.485 253.681 132.741 254.617 132.741C255.553 132.741 256.297 133.485 256.297 134.421C256.297 135.357 255.553 136.077 254.617 136.077C253.681 136.077 252.961 135.357 252.961 134.421ZM258.985 134.421C258.985 133.485 259.705 132.741 260.641 132.741C261.577 132.741 262.321 133.485 262.321 134.421C262.321 135.357 261.577 136.077 260.641 136.077C259.705 136.077 258.985 135.357 258.985 134.421ZM271.632 127.293V129.357C270.24 129.357 268.992 130.005 268.992 131.781V135.045C268.992 138.021 267.48 139.509 264.672 139.509H264.36V137.709H264.672C266.448 137.709 267.024 136.941 267.024 135.189V131.277C267.024 129.669 267.984 128.613 269.52 128.325C267.984 128.037 267.024 126.981 267.024 125.373V121.437C267.024 119.685 266.448 118.917 264.672 118.917H264.36V117.117H264.672C267.48 117.117 268.992 118.605 268.992 121.581V124.869C268.992 126.645 270.24 127.293 271.632 127.293Z" fill="url(#paint2_linear_401_6512)"/>
</g>
<path d="M459.232 299.004C459.232 297.071 460.799 295.504 462.732 295.504H545.369C547.302 295.504 548.869 297.071 548.869 299.004V381.879C548.869 383.812 547.302 385.379 545.369 385.379H462.732C460.799 385.379 459.232 383.812 459.232 381.879V299.004Z" fill="black"/>
<path d="M459.232 299.004C459.232 297.071 460.799 295.504 462.732 295.504H545.369C547.302 295.504 548.869 297.071 548.869 299.004V381.879C548.869 383.812 547.302 385.379 545.369 385.379H462.732C460.799 385.379 459.232 383.812 459.232 381.879V299.004Z" fill="url(#paint3_linear_401_6512)"/>
<path d="M459.232 299.004C459.232 297.071 460.799 295.504 462.732 295.504H545.369C547.302 295.504 548.869 297.071 548.869 299.004V381.879C548.869 383.812 547.302 385.379 545.369 385.379H462.732C460.799 385.379 459.232 383.812 459.232 381.879V299.004Z" stroke="#898989"/>
<path d="M489.393 341.383V340.051C490.437 340.015 491.319 339.475 491.319 338.197V335.497C491.319 333.373 492.345 332.365 494.325 332.365H494.523V333.535H494.325C493.011 333.535 492.579 334.129 492.579 335.425V338.503C492.579 339.691 491.859 340.501 490.707 340.717C491.859 340.933 492.579 341.743 492.579 342.931V346.009C492.579 347.305 493.011 347.899 494.325 347.899H494.523V349.069H494.325C492.345 349.069 491.319 348.061 491.319 345.937V343.237C491.319 341.959 490.437 341.419 489.393 341.383ZM496.089 345.415C496.089 344.785 496.593 344.299 497.205 344.299C497.817 344.299 498.321 344.785 498.321 345.415C498.321 346.045 497.817 346.531 497.205 346.531C496.593 346.531 496.089 346.045 496.089 345.415ZM500.449 345.415C500.449 344.785 500.953 344.299 501.565 344.299C502.177 344.299 502.681 344.785 502.681 345.415C502.681 346.045 502.177 346.531 501.565 346.531C500.953 346.531 500.449 346.045 500.449 345.415ZM504.808 345.415C504.808 344.785 505.312 344.299 505.924 344.299C506.536 344.299 507.04 344.785 507.04 345.415C507.04 346.045 506.536 346.531 505.924 346.531C505.312 346.531 504.808 346.045 504.808 345.415ZM509.167 345.415C509.167 344.785 509.671 344.299 510.283 344.299C510.895 344.299 511.399 344.785 511.399 345.415C511.399 346.045 510.895 346.531 510.283 346.531C509.671 346.531 509.167 346.045 509.167 345.415ZM518.099 340.051V341.383C517.055 341.419 516.173 341.959 516.173 343.237V345.937C516.173 348.061 515.147 349.069 513.167 349.069H512.969V347.899H513.167C514.481 347.899 514.913 347.305 514.913 346.009V342.931C514.913 341.743 515.633 340.933 516.785 340.717C515.633 340.501 514.913 339.691 514.913 338.503V335.425C514.913 334.129 514.481 333.535 513.167 333.535H512.969V332.365H513.167C515.147 332.365 516.173 333.373 516.173 335.497V338.197C516.173 339.475 517.055 340.015 518.099 340.051Z" fill="#8B74F9"/>
<path d="M454.418 293.771C454.418 291.838 455.985 290.271 457.918 290.271H550.179C552.112 290.271 553.679 291.838 553.679 293.771V376.646C553.679 378.579 552.112 380.146 550.179 380.146H457.918C455.985 380.146 454.418 378.579 454.418 376.646V293.771Z" fill="black"/>
<path d="M454.418 293.771C454.418 291.838 455.985 290.271 457.918 290.271H550.179C552.112 290.271 553.679 291.838 553.679 293.771V376.646C553.679 378.579 552.112 380.146 550.179 380.146H457.918C455.985 380.146 454.418 378.579 454.418 376.646V293.771Z" fill="url(#paint4_linear_401_6512)"/>
<path d="M454.418 293.771C454.418 291.838 455.985 290.271 457.918 290.271H550.179C552.112 290.271 553.679 291.838 553.679 293.771V376.646C553.679 378.579 552.112 380.146 550.179 380.146H457.918C455.985 380.146 454.418 378.579 454.418 376.646V293.771Z" stroke="#898989"/>
<path d="M489.391 336.151V334.819C490.435 334.783 491.317 334.243 491.317 332.965V330.265C491.317 328.141 492.343 327.133 494.323 327.133H494.521V328.303H494.323C493.009 328.303 492.577 328.897 492.577 330.193V333.271C492.577 334.459 491.857 335.269 490.705 335.485C491.857 335.701 492.577 336.511 492.577 337.699V340.777C492.577 342.073 493.009 342.667 494.323 342.667H494.521V343.837H494.323C492.343 343.837 491.317 342.829 491.317 340.705V338.005C491.317 336.727 490.435 336.187 489.391 336.151ZM496.087 340.183C496.087 339.553 496.591 339.067 497.203 339.067C497.815 339.067 498.319 339.553 498.319 340.183C498.319 340.813 497.815 341.299 497.203 341.299C496.591 341.299 496.087 340.813 496.087 340.183ZM500.447 340.183C500.447 339.553 500.951 339.067 501.563 339.067C502.175 339.067 502.679 339.553 502.679 340.183C502.679 340.813 502.175 341.299 501.563 341.299C500.951 341.299 500.447 340.813 500.447 340.183ZM504.806 340.183C504.806 339.553 505.31 339.067 505.922 339.067C506.534 339.067 507.038 339.553 507.038 340.183C507.038 340.813 506.534 341.299 505.922 341.299C505.31 341.299 504.806 340.813 504.806 340.183ZM509.166 340.183C509.166 339.553 509.67 339.067 510.282 339.067C510.894 339.067 511.398 339.553 511.398 340.183C511.398 340.813 510.894 341.299 510.282 341.299C509.67 341.299 509.166 340.813 509.166 340.183ZM518.097 334.819V336.151C517.053 336.187 516.171 336.727 516.171 338.005V340.705C516.171 342.829 515.145 343.837 513.165 343.837H512.967V342.667H513.165C514.479 342.667 514.911 342.073 514.911 340.777V337.699C514.911 336.511 515.631 335.701 516.783 335.485C515.631 335.269 514.911 334.459 514.911 333.271V330.193C514.911 328.897 514.479 328.303 513.165 328.303H512.967V327.133H513.165C515.145 327.133 516.171 328.141 516.171 330.265V332.965C516.171 334.243 517.053 334.783 518.097 334.819Z" fill="#8B74F9"/>
<g filter="url(#filter1_d_401_6512)">
<path d="M450.71 288.535C450.71 286.326 452.501 284.535 454.71 284.535H553.388C555.597 284.535 557.388 286.326 557.388 288.535V371.41C557.388 373.619 555.597 375.41 553.388 375.41H454.71C452.501 375.41 450.71 373.619 450.71 371.41V288.535Z" fill="#0E0E0E"/>
<path d="M451.21 288.535C451.21 286.602 452.777 285.035 454.71 285.035H553.388C555.321 285.035 556.888 286.602 556.888 288.535V371.41C556.888 373.343 555.321 374.91 553.388 374.91H454.71C452.777 374.91 451.21 373.343 451.21 371.41V288.535Z" stroke="#BFBFBF"/>
<path d="M470.857 306.904L467.357 301.22H469.009L471.585 305.644L474.161 301.22H475.729L472.229 306.904V311.146H470.857V306.904ZM478.246 306.176C478.246 308.766 479.982 310.096 481.83 310.096C483.678 310.096 485.414 308.766 485.414 306.176C485.414 303.586 483.678 302.27 481.83 302.27C479.982 302.27 478.246 303.586 478.246 306.176ZM476.846 306.176C476.846 302.858 479.338 301.01 481.83 301.01C484.322 301.01 486.814 302.858 486.814 306.176C486.814 309.494 484.322 311.356 481.83 311.356C479.338 311.356 476.846 309.494 476.846 306.176ZM493.123 311.356C491.107 311.356 489.553 310.096 489.553 307.758V301.22H490.911V307.716C490.911 309.228 491.737 310.082 493.123 310.082C494.523 310.082 495.321 309.228 495.321 307.716V301.22H496.693V307.758C496.693 310.096 495.139 311.356 493.123 311.356ZM505.226 311.146L502.958 307.086H501.474V311.146H500.088V301.22H503.826C505.702 301.22 506.864 302.536 506.864 304.174C506.864 305.602 505.954 306.708 504.456 306.988L506.822 311.146H505.226ZM501.474 305.854H503.574C504.694 305.854 505.45 305.196 505.45 304.174C505.45 303.124 504.694 302.452 503.574 302.452H501.474V305.854ZM520.592 311.146L519.514 308.374H515.118L514.068 311.146H512.598L516.546 301.22H518.128L522.076 311.146H520.592ZM517.302 302.648L515.608 307.1H519.024L517.302 302.648ZM525.855 305.854H527.843C529.033 305.854 529.761 305.196 529.761 304.174C529.761 303.124 529.033 302.452 527.843 302.452H525.855V305.854ZM528.095 307.086H525.855V311.146H524.483V301.22H528.095C529.929 301.22 531.161 302.494 531.161 304.16C531.161 305.84 529.929 307.086 528.095 307.086ZM535.117 305.854H537.105C538.295 305.854 539.023 305.196 539.023 304.174C539.023 303.124 538.295 302.452 537.105 302.452H535.117V305.854ZM537.357 307.086H535.117V311.146H533.745V301.22H537.357C539.191 301.22 540.423 302.494 540.423 304.16C540.423 305.84 539.191 307.086 537.357 307.086Z" fill="#E4E4E4"/>
<rect width="19.8271" height="19.8271" transform="matrix(0.866025 0.5 -0.866025 0.5 504.049 321.146)" fill="#FDEBA1" fill-opacity="0.9" stroke="black"/>
<rect width="19.8271" height="19.8271" transform="matrix(0.866025 0.5 0 1 486.878 331.059)" fill="#B0F1C7" fill-opacity="0.8" stroke="black"/>
<rect width="19.8271" height="19.8271" transform="matrix(0.866025 -0.5 0 1 504.049 340.973)" fill="#6AEBD3" fill-opacity="0.8" stroke="black"/>
</g>
<g clip-path="url(#clip0_401_6512)">
<path fill-rule="evenodd" clip-rule="evenodd" d="M324.651 205.221C323.87 205.834 323.479 206.692 323.479 207.796C323.479 208.888 323.87 209.74 324.651 210.354C325.433 210.967 326.353 211.273 327.411 211.273C328.457 211.273 329.367 210.964 330.142 210.344C330.917 209.725 331.305 208.876 331.305 207.796C331.305 206.692 330.917 205.834 330.142 205.221C329.367 204.607 328.457 204.301 327.411 204.301C326.353 204.301 325.433 204.607 324.651 205.221ZM330.881 212.892H323.904V231.198H330.881V212.892ZM332.458 231.198V212.58H338.604L338.918 214.622C339.668 213.751 340.573 213.113 341.631 212.708C342.627 212.328 343.624 212.138 344.621 212.138H344.805C345.63 212.15 346.39 212.245 347.085 212.423C347.78 212.601 348.441 212.902 349.069 213.325C349.696 213.748 350.232 214.288 350.674 214.944C351.117 215.6 351.468 216.431 351.726 217.437C351.985 218.442 352.114 219.589 352.114 220.877V231.198H345.156V220.914C345.156 219.847 344.904 219.065 344.399 218.568C343.895 218.071 343.273 217.823 342.535 217.823C341.637 217.823 340.877 218.133 340.256 218.752C339.634 219.371 339.324 220.258 339.324 221.411V231.198H332.458ZM353.433 212.58V231.198H360.299V221.411C360.299 220.258 360.609 219.371 361.231 218.752C361.852 218.133 362.612 217.823 363.51 217.823C364.248 217.823 364.87 218.071 365.374 218.568C365.879 219.065 366.131 219.847 366.131 220.914V231.198H373.089V220.877C373.089 219.589 372.96 218.442 372.702 217.437C372.443 216.431 372.093 215.6 371.65 214.944C371.207 214.288 370.671 213.748 370.044 213.325C369.416 212.902 368.755 212.601 368.06 212.423C367.365 212.245 366.605 212.15 365.78 212.138H365.596C364.599 212.138 363.603 212.328 362.606 212.708C361.548 213.113 360.643 213.751 359.893 214.622L359.579 212.58H353.433ZM374.32 221.549C374.32 219.648 374.784 217.968 375.713 216.508C376.642 215.049 377.891 213.936 379.46 213.169C381.028 212.402 382.779 212.019 384.711 212.019C386.015 212.019 387.301 212.252 388.568 212.718L390.086 210.8C390.291 210.54 390.455 210.327 390.58 210.161L393.795 210.946L395.6 213.749L393.182 216.6C394.376 217.925 394.972 219.476 394.972 221.255V221.623C394.948 222.8 394.64 223.935 394.05 225.026C393.459 226.118 392.628 227.044 391.558 227.804C392.358 228.258 393.025 228.767 393.56 229.331C394.096 229.895 394.474 230.45 394.695 230.996C394.917 231.542 395.062 231.993 395.129 232.348C395.197 232.704 395.231 233.06 395.231 233.416C395.231 234.581 395.034 235.635 394.64 236.58C394.246 237.524 393.714 238.309 393.044 238.935C392.373 239.56 391.579 240.085 390.663 240.508C389.746 240.931 388.789 241.234 387.793 241.418C386.796 241.602 385.744 241.694 384.637 241.694C381.302 241.694 378.749 240.879 376.977 239.248C375.378 237.776 374.578 235.807 374.578 233.342C374.578 233.084 374.584 232.821 374.596 232.551H381.13V232.68C381.13 233.283 381.204 233.797 381.353 234.221L381.388 234.317C381.561 234.808 381.822 235.176 382.173 235.421C382.524 235.666 382.896 235.838 383.289 235.936C383.683 236.034 384.132 236.083 384.637 236.083C385.609 236.083 386.427 235.853 387.091 235.393C387.756 234.933 388.088 234.274 388.088 233.416C388.088 232.667 387.82 232.066 387.285 231.613C386.771 231.176 385.957 230.95 384.845 230.933L384.711 230.932C381.561 230.932 379.041 230.086 377.153 228.393C375.264 226.7 374.32 224.419 374.32 221.549ZM382.117 224.161C381.435 223.492 381.093 222.612 381.093 221.521C381.093 220.319 381.431 219.378 382.108 218.697C382.785 218.016 383.652 217.676 384.711 217.676C385.72 217.676 386.559 218.05 387.23 218.798C387.9 219.546 388.236 220.454 388.236 221.521C388.236 222.698 387.897 223.6 387.221 224.225C386.544 224.851 385.707 225.164 384.711 225.164C383.665 225.164 382.8 224.829 382.117 224.161ZM395.981 221.926C395.981 220.613 396.181 219.408 396.581 218.311C396.981 217.213 397.516 216.29 398.187 215.542C398.857 214.794 399.639 214.159 400.531 213.638C401.423 213.116 402.361 212.736 403.345 212.497C404.33 212.258 405.339 212.138 406.372 212.138C408.033 212.138 409.544 212.405 410.903 212.938C412.263 213.472 413.392 214.242 414.29 215.247C415.188 216.253 415.81 217.48 416.154 218.927C416.3 219.54 416.374 220.184 416.377 220.858L416.376 221.061C416.376 221.932 416.271 222.864 416.062 223.857H403.013C403.247 224.618 403.782 225.204 404.619 225.614C405.456 226.025 406.311 226.231 407.184 226.231C409.03 226.231 410.629 225.728 411.983 224.722L415.379 228.53C414.284 229.548 413.001 230.318 411.531 230.839C410.06 231.36 408.507 231.621 406.871 231.621C405.357 231.621 403.958 231.431 402.672 231.051C401.386 230.671 400.239 230.097 399.23 229.331C398.221 228.564 397.427 227.549 396.849 226.286C396.27 225.023 395.981 223.569 395.981 221.926ZM409.824 219.405H403.05C403.136 218.829 403.422 218.344 403.908 217.952C404.394 217.559 404.957 217.32 405.597 217.234C405.892 217.198 406.182 217.179 406.464 217.179C406.809 217.179 407.147 217.204 407.48 217.253C408.107 217.351 408.645 217.593 409.095 217.979C409.544 218.366 409.787 218.841 409.824 219.405ZM416.406 229.248L418.676 224.189C419.55 224.753 420.442 225.197 421.353 225.522C422.263 225.847 422.974 226.044 423.484 226.111C423.995 226.179 424.595 226.231 425.284 226.267C426.551 226.267 427.185 225.967 427.185 225.366C427.185 224.79 426.527 224.446 425.21 224.336C424.435 224.311 423.687 224.231 422.968 224.097C422.248 223.962 421.531 223.741 420.817 223.434C420.104 223.128 419.485 222.751 418.963 222.303C418.44 221.855 418.015 221.282 417.689 220.583C417.363 219.884 417.2 219.099 417.2 218.228C417.2 217.148 417.44 216.204 417.92 215.395C418.4 214.585 419.052 213.95 419.876 213.49C420.701 213.03 421.611 212.69 422.608 212.469C423.604 212.249 424.675 212.138 425.819 212.138C427.308 212.138 428.723 212.341 430.064 212.745C431.405 213.15 432.537 213.702 433.46 214.401L430.507 218.541C430.032 218.24 429.367 217.984 428.511 217.77L428.348 217.731C427.462 217.51 426.656 217.4 425.93 217.4H425.819C424.712 217.4 424.158 217.706 424.158 218.32C424.158 218.541 424.266 218.743 424.481 218.927C424.682 219.099 425.009 219.195 425.462 219.218L425.561 219.221C426.422 219.246 427.222 219.313 427.96 219.424C428.698 219.534 429.458 219.73 430.239 220.012C431.021 220.294 431.688 220.656 432.242 221.098C432.796 221.539 433.248 222.125 433.599 222.855C433.949 223.584 434.125 224.422 434.125 225.366C434.125 226.261 433.968 227.068 433.654 227.785C433.34 228.503 432.913 229.101 432.371 229.579C431.83 230.057 431.184 230.459 430.433 230.784C429.683 231.109 428.892 231.342 428.062 231.483C427.231 231.624 426.354 231.695 425.432 231.695C423.77 231.695 422.109 231.477 420.448 231.042C418.787 230.606 417.44 230.008 416.406 229.248ZM434.452 212.69V218.007H437.442V224.428C437.429 225.433 437.534 226.335 437.756 227.132C438.002 228.015 438.334 228.736 438.752 229.294C439.171 229.852 439.681 230.312 440.284 230.674C440.887 231.035 441.521 231.29 442.185 231.437C442.85 231.584 443.569 231.658 444.344 231.658C446.461 231.658 448.251 231.241 449.715 230.407L448.202 225.274C447.537 225.703 446.861 225.918 446.172 225.918C444.966 225.918 444.344 225.317 444.308 224.115V218.007H448.553V212.69H444.344V207.318L437.442 208.072V212.69H434.452Z" fill="#BEBEBE"/>
</g>
<defs>
<filter id="filter0_d_401_6512" x="191.731" y="61.8173" width="120.084" height="104.28" filterUnits="userSpaceOnUse" color-interpolation-filters="sRGB">
<feFlood flood-opacity="0" result="BackgroundImageFix"/>
<feColorMatrix in="SourceAlpha" type="matrix" values="0 0 0 0 0 0 0 0 0 0 0 0 0 0 0 0 0 0 127 0" result="hardAlpha"/>
<feOffset/>
<feGaussianBlur stdDeviation="3.3516"/>
<feColorMatrix type="matrix" values="0 0 0 0 0.388235 0 0 0 0 0.388235 0 0 0 0 0.388235 0 0 0 0.7 0"/>
<feBlend mode="normal" in2="BackgroundImageFix" result="effect1_dropShadow_401_6512"/>
<feBlend mode="normal" in="SourceGraphic" in2="effect1_dropShadow_401_6512" result="shape"/>
</filter>
<filter id="filter1_d_401_6512" x="444.007" y="277.832" width="120.084" height="104.281" filterUnits="userSpaceOnUse" color-interpolation-filters="sRGB">
<feFlood flood-opacity="0" result="BackgroundImageFix"/>
<feColorMatrix in="SourceAlpha" type="matrix" values="0 0 0 0 0 0 0 0 0 0 0 0 0 0 0 0 0 0 127 0" result="hardAlpha"/>
<feOffset/>
<feGaussianBlur stdDeviation="3.3516"/>
<feColorMatrix type="matrix" values="0 0 0 0 0.388235 0 0 0 0 0.388235 0 0 0 0 0.388235 0 0 0 0.7 0"/>
<feBlend mode="normal" in2="BackgroundImageFix" result="effect1_dropShadow_401_6512"/>
<feBlend mode="normal" in="SourceGraphic" in2="effect1_dropShadow_401_6512" result="shape"/>
</filter>
<linearGradient id="paint0_linear_401_6512" x1="271.777" y1="-11.1943" x2="220.043" y2="163.411" gradientUnits="userSpaceOnUse">
<stop stop-color="#B0B0B0" stop-opacity="0.5"/>
<stop offset="1" stop-opacity="0.2"/>
</linearGradient>
<linearGradient id="paint1_linear_401_6512" x1="273.903" y1="-16.4296" x2="226.435" y2="160.79" gradientUnits="userSpaceOnUse">
<stop stop-color="#B0B0B0" stop-opacity="0.5"/>
<stop offset="1" stop-opacity="0.2"/>
</linearGradient>
<linearGradient id="paint2_linear_401_6512" x1="272.273" y1="126.957" x2="231.273" y2="126.957" gradientUnits="userSpaceOnUse">
<stop stop-color="#FDE68A"/>
<stop offset="0.5" stop-color="#A7F3D0"/>
<stop offset="1" stop-color="#5EEAD4"/>
</linearGradient>
<linearGradient id="paint3_linear_401_6512" x1="524.055" y1="204.817" x2="472.319" y2="379.425" gradientUnits="userSpaceOnUse">
<stop stop-color="#B0B0B0" stop-opacity="0.5"/>
<stop offset="1" stop-opacity="0.2"/>
</linearGradient>
<linearGradient id="paint4_linear_401_6512" x1="526.177" y1="199.585" x2="478.708" y2="376.807" gradientUnits="userSpaceOnUse">
<stop stop-color="#B0B0B0" stop-opacity="0.5"/>
<stop offset="1" stop-opacity="0.2"/>
</linearGradient>
<clipPath id="clip0_401_6512">
<rect width="126.236" height="38.2263" fill="white" transform="translate(323.479 204.301)"/>
</clipPath>
</defs>
</svg>
