<svg width="296" height="120" viewBox="0 0 296 120" fill="none" xmlns="http://www.w3.org/2000/svg">
<mask id="mask0_752_2123" style="mask-type:alpha" maskUnits="userSpaceOnUse" x="0" y="0" width="296" height="120">
<rect width="296" height="120" fill="#D9D9D9"/>
</mask>
<g mask="url(#mask0_752_2123)">
<g clip-path="url(#clip0_752_2123)">
<path d="M66.1315 205.333C50.5125 190.329 39.3443 171.3 33.8603 150.348C28.3764 129.395 28.79 107.335 35.0556 86.6032C41.3213 65.8713 53.195 47.2745 69.3655 32.8668C85.536 18.459 105.374 8.80085 126.689 4.95906L135.026 51.2137C122.237 53.5188 110.334 59.3137 100.632 67.9583C90.9295 76.603 83.8052 87.7611 80.0459 100.2C76.2865 112.639 76.0383 125.876 79.3287 138.447C82.6191 151.018 89.32 162.435 98.6914 171.438L66.1315 205.333Z" fill="#3D3D3D" stroke="#161616" stroke-width="4"/>
<path d="M121.603 5.99224C145.871 0.501653 171.255 2.85656 194.099 12.7177C216.943 22.5788 236.067 39.4371 248.716 60.8636L208.242 84.7565C200.653 71.9005 189.178 61.7856 175.472 55.8689C161.766 49.9522 146.535 48.5393 131.974 51.8336L121.603 5.99224Z" fill="#CB2A1D" stroke="#161616" stroke-width="4"/>
<path d="M199.788 225.836C173.751 238.764 143.847 241.582 115.854 233.745C87.8609 225.908 63.7666 207.973 48.2276 183.405C32.6886 158.838 26.8081 129.382 31.7226 100.731C36.6371 72.0801 51.9977 46.268 74.8357 28.2832L103.914 65.2082C90.2111 75.999 80.9947 91.4863 78.046 108.677C75.0973 125.867 78.6256 143.541 87.9491 158.281C97.2725 173.022 111.729 183.783 128.525 188.485C145.321 193.188 163.263 191.497 178.885 183.74L199.788 225.836Z" fill="#8B74F9" stroke="#161616" stroke-width="4"/>
<path d="M147.531 3.0957C165.5 3.0957 183.23 7.21694 199.357 15.1425C215.483 23.068 229.577 34.5866 240.555 48.8125C251.533 63.0384 259.101 79.5925 262.679 97.2018C266.256 114.811 265.748 133.006 261.192 150.388C256.636 167.77 248.154 183.875 236.398 197.465C224.643 211.055 209.927 221.768 193.382 228.78C176.838 235.792 158.906 238.916 140.965 237.912C123.024 236.908 105.552 231.802 89.8938 222.988L112.949 182.031C122.344 187.32 132.827 190.383 143.591 190.986C154.356 191.588 165.115 189.714 175.042 185.506C184.969 181.299 193.798 174.872 200.851 166.717C207.905 158.563 212.994 148.9 215.727 138.471C218.461 128.042 218.766 117.125 216.62 106.559C214.473 95.9938 209.932 86.0613 203.346 77.5258C196.759 68.9902 188.302 62.0791 178.626 57.3237C168.95 52.5684 158.313 50.0957 147.531 50.0957L147.531 3.0957Z" fill="#2C9B63" stroke="#161616" stroke-width="4"/>
</g>
</g>
<defs>
<clipPath id="clip0_752_2123">
<rect width="240" height="240" fill="white" transform="translate(28 0.15332)"/>
</clipPath>
</defs>
</svg>
