<svg width="739" height="326" viewBox="0 0 739 326" fill="none" xmlns="http://www.w3.org/2000/svg">
<path d="M97.8574 255.364V259.864" stroke="#B0B0B0"/>
<path d="M87.5253 275.864H86.2273V270.98H84.5003V270.078C85.5233 270.056 86.2273 269.484 86.3813 268.736H87.5253V275.864ZM91.4216 271.706C92.1366 271.706 92.5986 271.255 92.5986 270.661C92.5986 270.122 92.1476 269.649 91.4216 269.649C90.6956 269.649 90.2556 270.122 90.2556 270.661C90.2556 271.255 90.7176 271.706 91.4216 271.706ZM91.4216 274.918C92.2906 274.918 92.7636 274.412 92.7636 273.829C92.7636 273.246 92.2906 272.729 91.4216 272.729C90.5636 272.729 90.0906 273.246 90.0906 273.829C90.0906 274.412 90.5636 274.918 91.4216 274.918ZM91.4216 276.029C89.7936 276.029 88.7816 275.149 88.7816 273.961C88.7816 273.147 89.3426 272.476 90.1016 272.212C89.4196 271.959 88.9466 271.288 88.9466 270.584C88.9466 269.396 89.9916 268.571 91.4216 268.571C92.8516 268.571 93.9076 269.396 93.9076 270.584C93.9076 271.277 93.4346 271.959 92.7526 272.212C93.5006 272.476 94.0726 273.147 94.0726 273.961C94.0726 275.149 93.0606 276.029 91.4216 276.029ZM95.2848 275.05C95.2848 274.555 95.6808 274.159 96.1758 274.159C96.6598 274.159 97.0668 274.555 97.0668 275.05C97.0668 275.534 96.6598 275.93 96.1758 275.93C95.6808 275.93 95.2848 275.534 95.2848 275.05ZM95.2738 271.332C95.2738 270.837 95.6698 270.441 96.1648 270.441C96.6488 270.441 97.0558 270.837 97.0558 271.332C97.0558 271.816 96.6488 272.212 96.1648 272.212C95.6698 272.212 95.2738 271.816 95.2738 271.332ZM99.5975 272.3C99.5975 273.851 100.07 274.863 101.203 274.863C102.336 274.863 102.798 273.851 102.798 272.3C102.798 270.749 102.336 269.737 101.203 269.737C100.059 269.737 99.5975 270.76 99.5975 272.3ZM98.2885 272.3C98.2885 270.463 99.0145 268.571 101.203 268.571C103.381 268.571 104.107 270.474 104.107 272.3C104.107 274.137 103.381 276.029 101.203 276.029C99.0145 276.029 98.2885 274.137 98.2885 272.3ZM106.451 272.3C106.451 273.851 106.924 274.863 108.057 274.863C109.19 274.863 109.652 273.851 109.652 272.3C109.652 270.749 109.19 269.737 108.057 269.737C106.913 269.737 106.451 270.76 106.451 272.3ZM105.142 272.3C105.142 270.463 105.868 268.571 108.057 268.571C110.235 268.571 110.961 270.474 110.961 272.3C110.961 274.137 110.235 276.029 108.057 276.029C105.868 276.029 105.142 274.137 105.142 272.3Z" fill="#7C7C7C"/>
<path d="M207.857 255.364V259.864" stroke="#B0B0B0"/>
<path d="M192.255 273.51V273.004L193.542 272.74V273.466C193.542 274.379 194.059 274.786 194.741 274.786C195.445 274.786 195.885 274.313 195.885 273.521V268.065H197.205V273.488C197.205 274.874 196.237 276.029 194.752 276.029C193.223 276.029 192.255 275.028 192.255 273.51ZM202.275 275.27C202.011 275.754 201.384 276.018 200.757 276.018C199.481 276.018 198.733 275.072 198.733 273.884V270.507H200.009V273.653C200.009 274.313 200.317 274.874 201.087 274.874C201.824 274.874 202.209 274.379 202.209 273.675V270.507H203.485V274.885C203.485 275.325 203.518 275.666 203.54 275.864H202.319C202.297 275.743 202.275 275.49 202.275 275.27ZM206.348 272.773V275.864H205.072V270.507H206.315V271.222C206.667 270.606 207.305 270.353 207.899 270.353C209.208 270.353 209.835 271.299 209.835 272.476V275.864H208.559V272.696C208.559 272.036 208.262 271.508 207.459 271.508C206.733 271.508 206.348 272.069 206.348 272.773ZM216.528 275.864H215.23V270.98H213.503V270.078C214.526 270.056 215.23 269.484 215.384 268.736H216.528V275.864ZM217.906 275.622L218.269 274.544C218.544 274.72 219.072 274.874 219.545 274.874C221.041 274.874 221.844 273.972 221.91 272.63C221.646 273.092 221.019 273.455 220.172 273.455C218.885 273.455 217.708 272.575 217.708 271.057C217.708 269.583 218.896 268.571 220.392 268.571C221.877 268.571 223.208 269.627 223.208 271.904C223.208 274.489 221.976 276.029 219.556 276.029C218.973 276.029 218.269 275.864 217.906 275.622ZM221.734 271.013C221.734 270.221 221.085 269.693 220.37 269.693C219.644 269.693 219.006 270.21 219.006 271.013C219.006 271.849 219.633 272.344 220.37 272.344C221.085 272.344 221.734 271.827 221.734 271.013Z" fill="#7C7C7C"/>
<path d="M319.357 255.364V259.864" stroke="#B0B0B0"/>
<path d="M306.069 272.3C306.069 273.851 306.542 274.863 307.675 274.863C308.808 274.863 309.27 273.851 309.27 272.3C309.27 270.749 308.808 269.737 307.675 269.737C306.531 269.737 306.069 270.76 306.069 272.3ZM304.76 272.3C304.76 270.463 305.486 268.571 307.675 268.571C309.853 268.571 310.579 270.474 310.579 272.3C310.579 274.137 309.853 276.029 307.675 276.029C305.486 276.029 304.76 274.137 304.76 272.3ZM316.938 268.923L316.564 270.001C316.3 269.858 315.926 269.715 315.343 269.715C314.001 269.715 313.033 270.606 312.912 271.992C313.286 271.42 313.968 271.145 314.727 271.145C316.146 271.145 317.147 272.091 317.147 273.554C317.147 275.039 315.937 276.029 314.441 276.029C312.626 276.029 311.592 274.544 311.592 272.718C311.592 270.133 313.209 268.571 315.42 268.571C316.08 268.571 316.63 268.725 316.938 268.923ZM313.055 273.576C313.055 274.39 313.715 274.907 314.441 274.907C315.189 274.907 315.827 274.401 315.827 273.576C315.827 272.74 315.189 272.245 314.441 272.245C313.693 272.245 313.055 272.74 313.055 273.576ZM318.278 275.05C318.278 274.555 318.674 274.159 319.169 274.159C319.653 274.159 320.06 274.555 320.06 275.05C320.06 275.534 319.653 275.93 319.169 275.93C318.674 275.93 318.278 275.534 318.278 275.05ZM318.267 271.332C318.267 270.837 318.663 270.441 319.158 270.441C319.642 270.441 320.049 270.837 320.049 271.332C320.049 271.816 319.642 272.212 319.158 272.212C318.663 272.212 318.267 271.816 318.267 271.332ZM322.591 272.3C322.591 273.851 323.064 274.863 324.197 274.863C325.33 274.863 325.792 273.851 325.792 272.3C325.792 270.749 325.33 269.737 324.197 269.737C323.053 269.737 322.591 270.76 322.591 272.3ZM321.282 272.3C321.282 270.463 322.008 268.571 324.197 268.571C326.375 268.571 327.101 270.474 327.101 272.3C327.101 274.137 326.375 276.029 324.197 276.029C322.008 276.029 321.282 274.137 321.282 272.3ZM329.444 272.3C329.444 273.851 329.917 274.863 331.05 274.863C332.183 274.863 332.645 273.851 332.645 272.3C332.645 270.749 332.183 269.737 331.05 269.737C329.906 269.737 329.444 270.76 329.444 272.3ZM328.135 272.3C328.135 270.463 328.861 268.571 331.05 268.571C333.228 268.571 333.954 270.474 333.954 272.3C333.954 274.137 333.228 276.029 331.05 276.029C328.861 276.029 328.135 274.137 328.135 272.3Z" fill="#7C7C7C"/>
<path d="M428.857 255.364V259.864" stroke="#B0B0B0"/>
<path d="M418.611 275.864H417.313V270.98H415.586V270.078C416.609 270.056 417.313 269.484 417.467 268.736H418.611V275.864ZM421.199 271.409L419.923 271.321C419.912 271.222 419.89 271.057 419.89 270.914C419.89 269.682 420.814 268.571 422.431 268.571C424.004 268.571 424.939 269.594 424.939 270.815C424.939 271.739 424.422 272.498 423.564 273.026L422.178 273.884C421.837 274.093 421.551 274.346 421.452 274.698H424.983V275.864H419.824C419.846 274.643 420.275 273.686 421.518 272.916L422.695 272.179C423.333 271.783 423.608 271.354 423.608 270.837C423.608 270.254 423.212 269.726 422.409 269.726C421.573 269.726 421.166 270.309 421.166 271.046C421.166 271.156 421.188 271.288 421.199 271.409ZM426.199 275.05C426.199 274.555 426.595 274.159 427.09 274.159C427.574 274.159 427.981 274.555 427.981 275.05C427.981 275.534 427.574 275.93 427.09 275.93C426.595 275.93 426.199 275.534 426.199 275.05ZM426.188 271.332C426.188 270.837 426.584 270.441 427.079 270.441C427.563 270.441 427.97 270.837 427.97 271.332C427.97 271.816 427.563 272.212 427.079 272.212C426.584 272.212 426.188 271.816 426.188 271.332ZM430.512 272.3C430.512 273.851 430.985 274.863 432.118 274.863C433.251 274.863 433.713 273.851 433.713 272.3C433.713 270.749 433.251 269.737 432.118 269.737C430.974 269.737 430.512 270.76 430.512 272.3ZM429.203 272.3C429.203 270.463 429.929 268.571 432.118 268.571C434.296 268.571 435.022 270.474 435.022 272.3C435.022 274.137 434.296 276.029 432.118 276.029C429.929 276.029 429.203 274.137 429.203 272.3ZM437.365 272.3C437.365 273.851 437.838 274.863 438.971 274.863C440.104 274.863 440.566 273.851 440.566 272.3C440.566 270.749 440.104 269.737 438.971 269.737C437.827 269.737 437.365 270.76 437.365 272.3ZM436.056 272.3C436.056 270.463 436.782 268.571 438.971 268.571C441.149 268.571 441.875 270.474 441.875 272.3C441.875 274.137 441.149 276.029 438.971 276.029C436.782 276.029 436.056 274.137 436.056 272.3Z" fill="#7C7C7C"/>
<path d="M536.857 255.364V259.864" stroke="#B0B0B0"/>
<path d="M526.525 275.864H525.227V270.98H523.5V270.078C524.523 270.056 525.227 269.484 525.381 268.736H526.525V275.864ZM530.422 271.706C531.137 271.706 531.599 271.255 531.599 270.661C531.599 270.122 531.148 269.649 530.422 269.649C529.696 269.649 529.256 270.122 529.256 270.661C529.256 271.255 529.718 271.706 530.422 271.706ZM530.422 274.918C531.291 274.918 531.764 274.412 531.764 273.829C531.764 273.246 531.291 272.729 530.422 272.729C529.564 272.729 529.091 273.246 529.091 273.829C529.091 274.412 529.564 274.918 530.422 274.918ZM530.422 276.029C528.794 276.029 527.782 275.149 527.782 273.961C527.782 273.147 528.343 272.476 529.102 272.212C528.42 271.959 527.947 271.288 527.947 270.584C527.947 269.396 528.992 268.571 530.422 268.571C531.852 268.571 532.908 269.396 532.908 270.584C532.908 271.277 532.435 271.959 531.753 272.212C532.501 272.476 533.073 273.147 533.073 273.961C533.073 275.149 532.061 276.029 530.422 276.029ZM534.285 275.05C534.285 274.555 534.681 274.159 535.176 274.159C535.66 274.159 536.067 274.555 536.067 275.05C536.067 275.534 535.66 275.93 535.176 275.93C534.681 275.93 534.285 275.534 534.285 275.05ZM534.274 271.332C534.274 270.837 534.67 270.441 535.165 270.441C535.649 270.441 536.056 270.837 536.056 271.332C536.056 271.816 535.649 272.212 535.165 272.212C534.67 272.212 534.274 271.816 534.274 271.332ZM538.597 272.3C538.597 273.851 539.07 274.863 540.203 274.863C541.336 274.863 541.798 273.851 541.798 272.3C541.798 270.749 541.336 269.737 540.203 269.737C539.059 269.737 538.597 270.76 538.597 272.3ZM537.288 272.3C537.288 270.463 538.014 268.571 540.203 268.571C542.381 268.571 543.107 270.474 543.107 272.3C543.107 274.137 542.381 276.029 540.203 276.029C538.014 276.029 537.288 274.137 537.288 272.3ZM545.451 272.3C545.451 273.851 545.924 274.863 547.057 274.863C548.19 274.863 548.652 273.851 548.652 272.3C548.652 270.749 548.19 269.737 547.057 269.737C545.913 269.737 545.451 270.76 545.451 272.3ZM544.142 272.3C544.142 270.463 544.868 268.571 547.057 268.571C549.235 268.571 549.961 270.474 549.961 272.3C549.961 274.137 549.235 276.029 547.057 276.029C544.868 276.029 544.142 274.137 544.142 272.3Z" fill="#7C7C7C"/>
<path d="M648.357 255.364V259.864" stroke="#B0B0B0"/>
<path d="M631.493 273.51V273.004L632.78 272.74V273.466C632.78 274.379 633.297 274.786 633.979 274.786C634.683 274.786 635.123 274.313 635.123 273.521V268.065H636.443V273.488C636.443 274.874 635.475 276.029 633.99 276.029C632.461 276.029 631.493 275.028 631.493 273.51ZM641.513 275.27C641.249 275.754 640.622 276.018 639.995 276.018C638.719 276.018 637.971 275.072 637.971 273.884V270.507H639.247V273.653C639.247 274.313 639.555 274.874 640.325 274.874C641.062 274.874 641.447 274.379 641.447 273.675V270.507H642.723V274.885C642.723 275.325 642.756 275.666 642.778 275.864H641.557C641.535 275.743 641.513 275.49 641.513 275.27ZM645.586 272.773V275.864H644.31V270.507H645.553V271.222C645.905 270.606 646.543 270.353 647.137 270.353C648.446 270.353 649.073 271.299 649.073 272.476V275.864H647.797V272.696C647.797 272.036 647.5 271.508 646.697 271.508C645.971 271.508 645.586 272.069 645.586 272.773ZM654.325 271.409L653.049 271.321C653.038 271.222 653.016 271.057 653.016 270.914C653.016 269.682 653.94 268.571 655.557 268.571C657.13 268.571 658.065 269.594 658.065 270.815C658.065 271.739 657.548 272.498 656.69 273.026L655.304 273.884C654.963 274.093 654.677 274.346 654.578 274.698H658.109V275.864H652.95C652.972 274.643 653.401 273.686 654.644 272.916L655.821 272.179C656.459 271.783 656.734 271.354 656.734 270.837C656.734 270.254 656.338 269.726 655.535 269.726C654.699 269.726 654.292 270.309 654.292 271.046C654.292 271.156 654.314 271.288 654.325 271.409ZM660.458 272.3C660.458 273.851 660.931 274.863 662.064 274.863C663.197 274.863 663.659 273.851 663.659 272.3C663.659 270.749 663.197 269.737 662.064 269.737C660.92 269.737 660.458 270.76 660.458 272.3ZM659.149 272.3C659.149 270.463 659.875 268.571 662.064 268.571C664.242 268.571 664.968 270.474 664.968 272.3C664.968 274.137 664.242 276.029 662.064 276.029C659.875 276.029 659.149 274.137 659.149 272.3Z" fill="#7C7C7C"/>
<path d="M23.2647 22.7273V30H22.3841V23.6506H22.3414L20.5659 24.8295V23.9347L22.3841 22.7273H23.2647ZM27.7285 30.0994C27.1935 30.0994 26.7377 29.9538 26.3613 29.6626C25.9849 29.3691 25.6973 28.9441 25.4984 28.3878C25.2995 27.8291 25.2001 27.1544 25.2001 26.3636C25.2001 25.5777 25.2995 24.9065 25.4984 24.3501C25.6996 23.7914 25.9885 23.3653 26.3649 23.0717C26.7437 22.7758 27.1982 22.6278 27.7285 22.6278C28.2588 22.6278 28.7122 22.7758 29.0886 23.0717C29.4674 23.3653 29.7562 23.7914 29.9551 24.3501C30.1563 24.9065 30.2569 25.5777 30.2569 26.3636C30.2569 27.1544 30.1575 27.8291 29.9586 28.3878C29.7598 28.9441 29.4721 29.3691 29.0957 29.6626C28.7193 29.9538 28.2636 30.0994 27.7285 30.0994ZM27.7285 29.3182C28.2588 29.3182 28.6708 29.0625 28.9643 28.5511C29.2579 28.0398 29.4047 27.3106 29.4047 26.3636C29.4047 25.7339 29.3372 25.1977 29.2022 24.755C29.0697 24.3123 28.8779 23.9749 28.627 23.7429C28.3784 23.5109 28.0789 23.3949 27.7285 23.3949C27.2029 23.3949 26.7922 23.6541 26.4963 24.1726C26.2003 24.6887 26.0524 25.419 26.0524 26.3636C26.0524 26.9934 26.1187 27.5284 26.2512 27.9688C26.3838 28.4091 26.5744 28.7441 26.823 28.9737C27.0739 29.2034 27.3758 29.3182 27.7285 29.3182ZM33.9785 30.0994C33.4435 30.0994 32.9877 29.9538 32.6113 29.6626C32.2349 29.3691 31.9473 28.9441 31.7484 28.3878C31.5495 27.8291 31.4501 27.1544 31.4501 26.3636C31.4501 25.5777 31.5495 24.9065 31.7484 24.3501C31.9496 23.7914 32.2385 23.3653 32.6149 23.0717C32.9937 22.7758 33.4482 22.6278 33.9785 22.6278C34.5088 22.6278 34.9622 22.7758 35.3386 23.0717C35.7174 23.3653 36.0062 23.7914 36.2051 24.3501C36.4063 24.9065 36.5069 25.5777 36.5069 26.3636C36.5069 27.1544 36.4075 27.8291 36.2086 28.3878C36.0098 28.9441 35.7221 29.3691 35.3457 29.6626C34.9693 29.9538 34.5136 30.0994 33.9785 30.0994ZM33.9785 29.3182C34.5088 29.3182 34.9208 29.0625 35.2143 28.5511C35.5079 28.0398 35.6547 27.3106 35.6547 26.3636C35.6547 25.7339 35.5872 25.1977 35.4522 24.755C35.3197 24.3123 35.1279 23.9749 34.877 23.7429C34.6284 23.5109 34.3289 23.3949 33.9785 23.3949C33.4529 23.3949 33.0422 23.6541 32.7463 24.1726C32.4503 24.6887 32.3024 25.419 32.3024 26.3636C32.3024 26.9934 32.3687 27.5284 32.5012 27.9688C32.6338 28.4091 32.8244 28.7441 33.073 28.9737C33.3239 29.2034 33.6258 29.3182 33.9785 29.3182ZM37.9842 22.7273H39.0353L41.5069 28.7642H41.5922L44.0637 22.7273H45.1149V30H44.291V24.4744H44.22L41.9473 30H41.1518L38.8791 24.4744H38.8081V30H37.9842V22.7273Z" fill="#7C7C7C"/>
<path d="M29.5152 54.7273V62H28.6345V55.6506H28.5919L26.8163 56.8295V55.9347L28.6345 54.7273H29.5152ZM33.979 62.0994C33.4439 62.0994 32.9882 61.9538 32.6118 61.6626C32.2353 61.3691 31.9477 60.9441 31.7488 60.3878C31.55 59.8291 31.4505 59.1544 31.4505 58.3636C31.4505 57.5777 31.55 56.9065 31.7488 56.3501C31.9501 55.7914 32.2389 55.3653 32.6153 55.0717C32.9941 54.7758 33.4486 54.6278 33.979 54.6278C34.5093 54.6278 34.9626 54.7758 35.339 55.0717C35.7178 55.3653 36.0067 55.7914 36.2055 56.3501C36.4067 56.9065 36.5074 57.5777 36.5074 58.3636C36.5074 59.1544 36.4079 59.8291 36.2091 60.3878C36.0102 60.9441 35.7226 61.3691 35.3461 61.6626C34.9697 61.9538 34.514 62.0994 33.979 62.0994ZM33.979 61.3182C34.5093 61.3182 34.9212 61.0625 35.2147 60.5511C35.5083 60.0398 35.6551 59.3106 35.6551 58.3636C35.6551 57.7339 35.5876 57.1977 35.4527 56.755C35.3201 56.3123 35.1283 55.9749 34.8774 55.7429C34.6288 55.5109 34.3293 55.3949 33.979 55.3949C33.4534 55.3949 33.0426 55.6541 32.7467 56.1726C32.4508 56.6887 32.3028 57.419 32.3028 58.3636C32.3028 58.9934 32.3691 59.5284 32.5017 59.9688C32.6343 60.4091 32.8248 60.7441 33.0734 60.9737C33.3244 61.2034 33.6262 61.3182 33.979 61.3182ZM37.9846 54.7273H39.0358L41.5074 60.7642H41.5926L44.0642 54.7273H45.1153V62H44.2915V56.4744H44.2204L41.9477 62H41.1522L38.8795 56.4744H38.8085V62H37.9846V54.7273Z" fill="#7C7C7C"/>
<path d="M35.7647 87.4431V94.7158H34.8841V88.3664H34.8414L33.0659 89.5454V88.6505L34.8841 87.4431H35.7647ZM37.9842 87.4431H39.0353L41.5069 93.48H41.5922L44.0637 87.4431H45.1149V94.7158H44.291V89.1903H44.22L41.9473 94.7158H41.1518L38.8791 89.1903H38.8081V94.7158H37.9842V87.4431Z" fill="#7C7C7C"/>
<path d="M25.6378 119.443V126.716H24.7571V120.366H24.7145L22.9389 121.545V120.65L24.7571 119.443H25.6378ZM30.1016 126.815C29.5665 126.815 29.1108 126.67 28.7344 126.378C28.358 126.085 28.0703 125.66 27.8714 125.104C27.6726 124.545 27.5732 123.87 27.5732 123.079C27.5732 122.293 27.6726 121.622 27.8714 121.066C28.0727 120.507 28.3615 120.081 28.7379 119.788C29.1167 119.492 29.5713 119.344 30.1016 119.344C30.6319 119.344 31.0852 119.492 31.4616 119.788C31.8404 120.081 32.1293 120.507 32.3281 121.066C32.5294 121.622 32.63 122.293 32.63 123.079C32.63 123.87 32.5305 124.545 32.3317 125.104C32.1328 125.66 31.8452 126.085 31.4688 126.378C31.0923 126.67 30.6366 126.815 30.1016 126.815ZM30.1016 126.034C30.6319 126.034 31.0438 125.778 31.3374 125.267C31.6309 124.756 31.7777 124.026 31.7777 123.079C31.7777 122.45 31.7102 121.914 31.5753 121.471C31.4427 121.028 31.2509 120.691 31 120.459C30.7514 120.227 30.4519 120.111 30.1016 120.111C29.576 120.111 29.1652 120.37 28.8693 120.888C28.5734 121.405 28.4254 122.135 28.4254 123.079C28.4254 123.709 28.4917 124.244 28.6243 124.685C28.7569 125.125 28.9474 125.46 29.196 125.69C29.447 125.919 29.7488 126.034 30.1016 126.034ZM36.3516 126.815C35.8165 126.815 35.3608 126.67 34.9844 126.378C34.608 126.085 34.3203 125.66 34.1214 125.104C33.9226 124.545 33.8232 123.87 33.8232 123.079C33.8232 122.293 33.9226 121.622 34.1214 121.066C34.3227 120.507 34.6115 120.081 34.9879 119.788C35.3667 119.492 35.8213 119.344 36.3516 119.344C36.8819 119.344 37.3352 119.492 37.7116 119.788C38.0904 120.081 38.3793 120.507 38.5781 121.066C38.7794 121.622 38.88 122.293 38.88 123.079C38.88 123.87 38.7805 124.545 38.5817 125.104C38.3828 125.66 38.0952 126.085 37.7188 126.378C37.3423 126.67 36.8866 126.815 36.3516 126.815ZM36.3516 126.034C36.8819 126.034 37.2938 125.778 37.5874 125.267C37.8809 124.756 38.0277 124.026 38.0277 123.079C38.0277 122.45 37.9602 121.914 37.8253 121.471C37.6927 121.028 37.5009 120.691 37.25 120.459C37.0014 120.227 36.7019 120.111 36.3516 120.111C35.826 120.111 35.4152 120.37 35.1193 120.888C34.8234 121.405 34.6754 122.135 34.6754 123.079C34.6754 123.709 34.7417 124.244 34.8743 124.685C35.0069 125.125 35.1974 125.46 35.446 125.69C35.697 125.919 35.9988 126.034 36.3516 126.034ZM40.3572 126.716V119.443H41.2379V123.051H41.3232L44.5902 119.443H45.7408L42.6868 122.724L45.7408 126.716H44.6754L42.147 123.335L41.2379 124.358V126.716H40.3572Z" fill="#7C7C7C"/>
<path d="M31.8879 151.443V158.716H31.0072V152.366H30.9646L29.189 153.545V152.65L31.0072 151.443H31.8879ZM36.3517 158.815C35.8166 158.815 35.3609 158.67 34.9845 158.378C34.608 158.085 34.3204 157.66 34.1215 157.104C33.9227 156.545 33.8232 155.87 33.8232 155.079C33.8232 154.293 33.9227 153.622 34.1215 153.066C34.3228 152.507 34.6116 152.081 34.988 151.788C35.3668 151.492 35.8214 151.344 36.3517 151.344C36.882 151.344 37.3353 151.492 37.7117 151.788C38.0905 152.081 38.3794 152.507 38.5782 153.066C38.7795 153.622 38.8801 154.293 38.8801 155.079C38.8801 155.87 38.7806 156.545 38.5818 157.104C38.3829 157.66 38.0953 158.085 37.7188 158.378C37.3424 158.67 36.8867 158.815 36.3517 158.815ZM36.3517 158.034C36.882 158.034 37.2939 157.778 37.5875 157.267C37.881 156.756 38.0278 156.026 38.0278 155.079C38.0278 154.45 37.9603 153.914 37.8254 153.471C37.6928 153.028 37.501 152.691 37.2501 152.459C37.0015 152.227 36.702 152.111 36.3517 152.111C35.8261 152.111 35.4153 152.37 35.1194 152.888C34.8235 153.405 34.6755 154.135 34.6755 155.079C34.6755 155.709 34.7418 156.244 34.8744 156.685C35.007 157.125 35.1975 157.46 35.4461 157.69C35.6971 157.919 35.9989 158.034 36.3517 158.034ZM40.3573 158.716V151.443H41.238V155.051H41.3232L44.5903 151.443H45.7409L42.6869 154.724L45.7409 158.716H44.6755L42.1471 155.335L41.238 156.358V158.716H40.3573Z" fill="#7C7C7C"/>
<path d="M32.1613 184.159V191.432H31.2806V185.082H31.238L29.4625 186.261V185.366L31.2806 184.159H32.1613ZM36.6251 191.531C36.0901 191.531 35.6343 191.385 35.2579 191.094C34.8815 190.801 34.5938 190.376 34.395 189.819C34.1961 189.261 34.0967 188.586 34.0967 187.795C34.0967 187.009 34.1961 186.338 34.395 185.782C34.5962 185.223 34.885 184.797 35.2615 184.503C35.6402 184.207 36.0948 184.059 36.6251 184.059C37.1554 184.059 37.6088 184.207 37.9852 184.503C38.364 184.797 38.6528 185.223 38.8517 185.782C39.0529 186.338 39.1535 187.009 39.1535 187.795C39.1535 188.586 39.0541 189.261 38.8552 189.819C38.6563 190.376 38.3687 190.801 37.9923 191.094C37.6159 191.385 37.1601 191.531 36.6251 191.531ZM36.6251 190.75C37.1554 190.75 37.5673 190.494 37.8609 189.983C38.1545 189.471 38.3012 188.742 38.3012 187.795C38.3012 187.166 38.2338 186.629 38.0988 186.187C37.9662 185.744 37.7745 185.407 37.5235 185.175C37.275 184.943 36.9755 184.827 36.6251 184.827C36.0995 184.827 35.6888 185.086 35.3929 185.604C35.0969 186.12 34.949 186.851 34.949 187.795C34.949 188.425 35.0152 188.96 35.1478 189.4C35.2804 189.841 35.471 190.176 35.7196 190.405C35.9705 190.635 36.2723 190.75 36.6251 190.75ZM42.8751 191.531C42.3401 191.531 41.8843 191.385 41.5079 191.094C41.1315 190.801 40.8438 190.376 40.645 189.819C40.4461 189.261 40.3467 188.586 40.3467 187.795C40.3467 187.009 40.4461 186.338 40.645 185.782C40.8462 185.223 41.135 184.797 41.5115 184.503C41.8902 184.207 42.3448 184.059 42.8751 184.059C43.4054 184.059 43.8588 184.207 44.2352 184.503C44.614 184.797 44.9028 185.223 45.1017 185.782C45.3029 186.338 45.4035 187.009 45.4035 187.795C45.4035 188.586 45.3041 189.261 45.1052 189.819C44.9063 190.376 44.6187 190.801 44.2423 191.094C43.8659 191.385 43.4101 191.531 42.8751 191.531ZM42.8751 190.75C43.4054 190.75 43.8173 190.494 44.1109 189.983C44.4045 189.471 44.5512 188.742 44.5512 187.795C44.5512 187.166 44.4838 186.629 44.3488 186.187C44.2162 185.744 44.0245 185.407 43.7735 185.175C43.525 184.943 43.2255 184.827 42.8751 184.827C42.3495 184.827 41.9388 185.086 41.6429 185.604C41.3469 186.12 41.199 186.851 41.199 187.795C41.199 188.425 41.2652 188.96 41.3978 189.4C41.5304 189.841 41.721 190.176 41.9696 190.405C42.2205 190.635 42.5223 190.75 42.8751 190.75Z" fill="#7C7C7C"/>
<path d="M38.4113 216.876V224.148H37.5306V217.799H37.488L35.7125 218.978V218.083L37.5306 216.876H38.4113ZM42.8751 224.248C42.3401 224.248 41.8843 224.102 41.5079 223.811C41.1315 223.518 40.8438 223.093 40.645 222.536C40.4461 221.978 40.3467 221.303 40.3467 220.512C40.3467 219.726 40.4461 219.055 40.645 218.499C40.8462 217.94 41.135 217.514 41.5115 217.22C41.8902 216.924 42.3448 216.776 42.8751 216.776C43.4054 216.776 43.8588 216.924 44.2352 217.22C44.614 217.514 44.9028 217.94 45.1017 218.499C45.3029 219.055 45.4035 219.726 45.4035 220.512C45.4035 221.303 45.3041 221.978 45.1052 222.536C44.9063 223.093 44.6187 223.518 44.2423 223.811C43.8659 224.102 43.4101 224.248 42.8751 224.248ZM42.8751 223.467C43.4054 223.467 43.8173 223.211 44.1109 222.7C44.4045 222.188 44.5512 221.459 44.5512 220.512C44.5512 219.882 44.4838 219.346 44.3488 218.903C44.2162 218.461 44.0245 218.123 43.7735 217.891C43.525 217.659 43.2255 217.543 42.8751 217.543C42.3495 217.543 41.9388 217.803 41.6429 218.321C41.3469 218.837 41.199 219.567 41.199 220.512C41.199 221.142 41.2652 221.677 41.3978 222.117C41.5304 222.558 41.721 222.893 41.9696 223.122C42.2205 223.352 42.5223 223.467 42.8751 223.467Z" fill="#7C7C7C"/>
<path d="M44.6613 249.592V256.864H43.7806V250.515H43.738L41.9625 251.694V250.799L43.7806 249.592H44.6613Z" fill="#7C7C7C"/>
<g clip-path="url(#clip0_401_7138)">
<path d="M50 24.29H711" stroke="#3D3D3D"/>
<path d="M50 57.29H711" stroke="#3D3D3D"/>
<path d="M50 90.29H711" stroke="#3D3D3D"/>
<path d="M50 123.29H711" stroke="#3D3D3D"/>
<path d="M50 156.29H711" stroke="#3D3D3D"/>
<path d="M50 189.29H711" stroke="#3D3D3D"/>
<path d="M50 222.29H711" stroke="#3D3D3D"/>
<path d="M50 255.29H711" stroke="#B0B0B0"/>
<path d="M632.823 207.067L672.497 202.357L725.879 219.357V258.357H40.0002C68.5724 155.857 80.0522 94.8566 80.0522 94.8566L112.247 207.067H160.275H215.175C215.175 207.067 222.314 205.314 286.944 207.067C353.693 208.877 358.179 207.067 358.179 207.067L418.763 61.0703L459.31 178.115L505.924 209.235L566.077 61.0703L632.823 207.067Z" stroke="#D56B13"/>
<path d="M689.513 169.22L635.762 224.234L567.211 158.926L505.43 233.323L457.555 217.696L415.912 158.926C415.912 158.926 381.881 232.234 353.688 232.234C325.495 232.234 349.081 233.143 280.527 232.234C214.147 231.354 206.816 232.234 206.816 232.234L151.324 158.926L101.103 232.234L68.0372 175.891C68.0372 175.891 71.1732 172.627 26.9017 257.988C-17.3697 343.348 726 257.988 726 257.988C726 240.912 726 202.206 726 202.206L689.513 169.22Z" stroke="#2C9B63"/>
<path d="M132.863 246.442L85.5113 252.358C85.5113 252.358 71.7533 246.946 41.9945 232.549C39.7857 231.48 40.0019 250.457 40.0019 258.358H745.978L704.555 220.373L671.258 246.442L620.686 212.523L564.807 246.442H490.581H416.908L354.25 212.523L312.316 239.716L264.106 246.946L201.893 212.523L132.863 246.442Z" stroke="#2389F1"/>
</g>
<circle cx="24" cy="304" r="5" fill="#D56B13"/>
<path d="M34.038 308.324L34.962 308.096C35.058 308.936 35.694 309.584 36.63 309.584C37.974 309.584 38.466 308.792 38.466 307.604V306.68C38.202 307.232 37.578 307.748 36.642 307.748C35.118 307.748 34.05 306.536 34.05 304.928C34.05 303.32 35.106 302.084 36.666 302.084C37.566 302.084 38.19 302.504 38.478 303.068V302.252H39.426V307.568C39.426 308.984 38.778 310.448 36.63 310.448C35.214 310.448 34.182 309.536 34.038 308.324ZM38.514 304.916C38.514 303.728 37.806 302.948 36.762 302.948C35.718 302.948 35.01 303.728 35.01 304.916C35.01 306.104 35.718 306.884 36.762 306.884C37.806 306.884 38.514 306.104 38.514 304.916ZM44.3852 302.216V303.236C44.2292 303.188 44.0492 303.176 43.8812 303.176C42.9212 303.176 42.2612 303.728 42.2612 305.024V308H41.3012V302.252H42.2372V303.284C42.6092 302.444 43.3412 302.168 43.9772 302.168C44.1332 302.168 44.3012 302.192 44.3852 302.216ZM47.8751 302.084C49.5311 302.084 50.7551 303.356 50.7551 305.12C50.7551 306.896 49.5311 308.168 47.8751 308.168C46.2191 308.168 44.9951 306.896 44.9951 305.12C44.9951 303.356 46.2191 302.084 47.8751 302.084ZM47.8751 302.948C46.8431 302.948 45.9551 303.728 45.9551 305.12C45.9551 306.524 46.8431 307.304 47.8751 307.304C48.9071 307.304 49.7951 306.524 49.7951 305.12C49.7951 303.728 48.9071 302.948 47.8751 302.948ZM55.5259 302.252H56.5219L58.1179 306.8L59.4859 302.252H60.5059L58.6339 308H57.6259L56.0179 303.416L54.4339 308H53.4139L51.5059 302.252H52.5379L53.9419 306.8L55.5259 302.252ZM63.1776 300.428V302.252H64.5336V303.116H63.1776V306.296C63.1776 306.896 63.4416 307.196 64.0536 307.196C64.2216 307.196 64.4376 307.16 64.5336 307.136V307.952C64.4256 307.988 64.1496 308.06 63.7776 308.06C62.8296 308.06 62.2176 307.472 62.2176 306.428V303.116H61.0656V302.252H61.4376C62.0256 302.252 62.2776 301.916 62.2776 301.376V300.428H63.1776ZM66.812 304.568V308H65.852V299.324H66.812V303.02C67.184 302.42 67.844 302.084 68.588 302.084C69.968 302.084 70.64 303.068 70.64 304.316V308H69.68V304.46C69.68 303.62 69.296 302.948 68.252 302.948C67.34 302.948 66.812 303.68 66.812 304.568Z" fill="#7C7C7C"/>
<circle cx="85" cy="304" r="5" fill="#2C9B63"/>
<path d="M96.0659 308H95.1059V302.252H96.0659V308ZM94.8659 299.984C94.8659 299.588 95.1899 299.264 95.5859 299.264C95.9819 299.264 96.3059 299.588 96.3059 299.984C96.3059 300.38 95.9819 300.704 95.5859 300.704C95.1899 300.704 94.8659 300.38 94.8659 299.984ZM98.9019 304.616V308H97.9419V302.252H98.8779V303.116C99.2499 302.444 99.9219 302.084 100.678 302.084C102.058 302.084 102.73 303.068 102.73 304.316V308H101.77V304.46C101.77 303.62 101.386 302.948 100.342 302.948C99.4179 302.948 98.9019 303.716 98.9019 304.616ZM105.488 304.616V308H104.528V302.252H105.464V303.116C105.836 302.444 106.508 302.084 107.264 302.084C108.644 302.084 109.316 303.068 109.316 304.316V308H108.356V304.46C108.356 303.62 107.972 302.948 106.928 302.948C106.004 302.948 105.488 303.716 105.488 304.616ZM110.718 308.324L111.642 308.096C111.738 308.936 112.374 309.584 113.31 309.584C114.654 309.584 115.146 308.792 115.146 307.604V306.68C114.882 307.232 114.258 307.748 113.322 307.748C111.798 307.748 110.73 306.536 110.73 304.928C110.73 303.32 111.786 302.084 113.346 302.084C114.246 302.084 114.87 302.504 115.158 303.068V302.252H116.106V307.568C116.106 308.984 115.458 310.448 113.31 310.448C111.894 310.448 110.862 309.536 110.718 308.324ZM115.194 304.916C115.194 303.728 114.486 302.948 113.442 302.948C112.398 302.948 111.69 303.728 111.69 304.916C111.69 306.104 112.398 306.884 113.442 306.884C114.486 306.884 115.194 306.104 115.194 304.916ZM118.593 304.568H122.025C122.001 303.656 121.413 302.936 120.321 302.936C119.325 302.936 118.653 303.716 118.593 304.568ZM122.157 306.068L122.985 306.368C122.661 307.364 121.761 308.168 120.429 308.168C118.893 308.168 117.585 307.04 117.585 305.108C117.585 303.296 118.857 302.084 120.309 302.084C122.049 302.084 123.021 303.296 123.021 305.048C123.021 305.168 123.009 305.3 122.997 305.384H118.569V305.432C118.569 306.524 119.397 307.304 120.429 307.304C121.401 307.304 121.929 306.752 122.157 306.068ZM124.005 306.488L124.869 306.188C124.953 306.848 125.445 307.352 126.309 307.352C126.993 307.352 127.425 306.968 127.425 306.476C127.425 306.044 127.077 305.756 126.549 305.636L125.613 305.42C124.737 305.216 124.185 304.652 124.185 303.824C124.185 302.864 125.097 302.084 126.189 302.084C127.677 302.084 128.193 303.032 128.325 303.62L127.473 303.932C127.401 303.536 127.101 302.9 126.189 302.9C125.589 302.9 125.121 303.284 125.121 303.764C125.121 304.172 125.373 304.424 125.877 304.544L126.813 304.76C127.821 304.988 128.373 305.576 128.373 306.428C128.373 307.256 127.665 308.168 126.297 308.168C124.785 308.168 124.101 307.208 124.005 306.488ZM131.244 300.428V302.252H132.6V303.116H131.244V306.296C131.244 306.896 131.508 307.196 132.12 307.196C132.288 307.196 132.504 307.16 132.6 307.136V307.952C132.492 307.988 132.216 308.06 131.844 308.06C130.896 308.06 130.284 307.472 130.284 306.428V303.116H129.132V302.252H129.504C130.092 302.252 130.344 301.916 130.344 301.376V300.428H131.244ZM134.854 308H133.918V299.324H134.878V303.188C135.142 302.648 135.814 302.084 136.846 302.084C138.55 302.084 139.462 303.44 139.462 305.12C139.462 306.836 138.49 308.168 136.822 308.168C135.862 308.168 135.19 307.676 134.854 307.052V308ZM136.678 307.304C137.782 307.304 138.502 306.392 138.502 305.12C138.502 303.848 137.794 302.948 136.678 302.948C135.562 302.948 134.854 303.848 134.854 305.12C134.854 306.392 135.574 307.304 136.678 307.304ZM143.434 302.084C145.09 302.084 146.314 303.356 146.314 305.12C146.314 306.896 145.09 308.168 143.434 308.168C141.778 308.168 140.554 306.896 140.554 305.12C140.554 303.356 141.778 302.084 143.434 302.084ZM143.434 302.948C142.402 302.948 141.514 303.728 141.514 305.12C141.514 306.524 142.402 307.304 143.434 307.304C144.466 307.304 145.354 306.524 145.354 305.12C145.354 303.728 144.466 302.948 143.434 302.948ZM149.092 300.428V302.252H150.448V303.116H149.092V306.296C149.092 306.896 149.356 307.196 149.968 307.196C150.136 307.196 150.352 307.16 150.448 307.136V307.952C150.34 307.988 150.064 308.06 149.692 308.06C148.744 308.06 148.132 307.472 148.132 306.428V303.116H146.98V302.252H147.352C147.94 302.252 148.192 301.916 148.192 301.376V300.428H149.092Z" fill="#7C7C7C"/>
<circle cx="164" cy="304" r="5" fill="#2389F1"/>
<path d="M173.87 308.324L174.794 308.096C174.89 308.936 175.526 309.584 176.462 309.584C177.806 309.584 178.298 308.792 178.298 307.604V306.68C178.034 307.232 177.41 307.748 176.474 307.748C174.95 307.748 173.882 306.536 173.882 304.928C173.882 303.32 174.938 302.084 176.498 302.084C177.398 302.084 178.022 302.504 178.31 303.068V302.252H179.258V307.568C179.258 308.984 178.61 310.448 176.462 310.448C175.046 310.448 174.014 309.536 173.87 308.324ZM178.346 304.916C178.346 303.728 177.638 302.948 176.594 302.948C175.55 302.948 174.842 303.728 174.842 304.916C174.842 306.104 175.55 306.884 176.594 306.884C177.638 306.884 178.346 306.104 178.346 304.916ZM182.093 308H181.133V302.252H182.093V308ZM180.893 299.984C180.893 299.588 181.217 299.264 181.613 299.264C182.009 299.264 182.333 299.588 182.333 299.984C182.333 300.38 182.009 300.704 181.613 300.704C181.217 300.704 180.893 300.38 180.893 299.984ZM185.361 300.428V302.252H186.717V303.116H185.361V306.296C185.361 306.896 185.625 307.196 186.237 307.196C186.405 307.196 186.621 307.16 186.717 307.136V307.952C186.609 307.988 186.333 308.06 185.961 308.06C185.013 308.06 184.401 307.472 184.401 306.428V303.116H183.249V302.252H183.621C184.209 302.252 184.461 301.916 184.461 301.376V300.428H185.361ZM188.996 304.568V308H188.036V299.324H188.996V303.02C189.368 302.42 190.028 302.084 190.772 302.084C192.152 302.084 192.824 303.068 192.824 304.316V308H191.864V304.46C191.864 303.62 191.48 302.948 190.436 302.948C189.524 302.948 188.996 303.68 188.996 304.568ZM198.438 307.22C198.162 307.808 197.466 308.168 196.71 308.168C195.318 308.168 194.55 307.136 194.55 305.864V302.252H195.51V305.708C195.51 306.548 195.906 307.304 196.926 307.304C197.874 307.304 198.39 306.632 198.39 305.72V302.252H199.35V306.92C199.35 307.364 199.386 307.772 199.422 308H198.498C198.462 307.868 198.438 307.556 198.438 307.268V307.22ZM202.155 308H201.219V299.324H202.179V303.188C202.443 302.648 203.115 302.084 204.147 302.084C205.851 302.084 206.763 303.44 206.763 305.12C206.763 306.836 205.791 308.168 204.123 308.168C203.163 308.168 202.491 307.676 202.155 307.052V308ZM203.979 307.304C205.083 307.304 205.803 306.392 205.803 305.12C205.803 303.848 205.095 302.948 203.979 302.948C202.863 302.948 202.155 303.848 202.155 305.12C202.155 306.392 202.875 307.304 203.979 307.304ZM211.334 304.976H208.13V304.136H211.334V304.976ZM214.05 310.28H213.09V302.252H214.026V303.212C214.326 302.624 214.998 302.084 216.018 302.084C217.71 302.084 218.634 303.404 218.634 305.12C218.634 306.836 217.65 308.168 215.994 308.168C215.01 308.168 214.35 307.652 214.05 307.112V310.28ZM215.85 307.304C216.954 307.304 217.674 306.392 217.674 305.12C217.674 303.848 216.966 302.948 215.85 302.948C214.734 302.948 214.026 303.848 214.026 305.12C214.026 306.392 214.746 307.304 215.85 307.304ZM223.206 302.216V303.236C223.05 303.188 222.87 303.176 222.702 303.176C221.742 303.176 221.082 303.728 221.082 305.024V308H220.122V302.252H221.058V303.284C221.43 302.444 222.162 302.168 222.798 302.168C222.954 302.168 223.122 302.192 223.206 302.216ZM227.002 304.976H223.798V304.136H227.002V304.976ZM229.694 308H228.758V299.324H229.718V303.188C229.982 302.648 230.654 302.084 231.686 302.084C233.39 302.084 234.302 303.44 234.302 305.12C234.302 306.836 233.33 308.168 231.662 308.168C230.702 308.168 230.03 307.676 229.694 307.052V308ZM231.518 307.304C232.622 307.304 233.342 306.392 233.342 305.12C233.342 303.848 232.634 302.948 231.518 302.948C230.402 302.948 229.694 303.848 229.694 305.12C229.694 306.392 230.414 307.304 231.518 307.304ZM238.274 302.084C239.93 302.084 241.154 303.356 241.154 305.12C241.154 306.896 239.93 308.168 238.274 308.168C236.618 308.168 235.394 306.896 235.394 305.12C235.394 303.356 236.618 302.084 238.274 302.084ZM238.274 302.948C237.242 302.948 236.354 303.728 236.354 305.12C236.354 306.524 237.242 307.304 238.274 307.304C239.306 307.304 240.194 306.524 240.194 305.12C240.194 303.728 239.306 302.948 238.274 302.948ZM243.932 300.428V302.252H245.288V303.116H243.932V306.296C243.932 306.896 244.196 307.196 244.808 307.196C244.976 307.196 245.192 307.16 245.288 307.136V307.952C245.18 307.988 244.904 308.06 244.532 308.06C243.584 308.06 242.972 307.472 242.972 306.428V303.116H241.82V302.252H242.192C242.78 302.252 243.032 301.916 243.032 301.376V300.428H243.932Z" fill="#7C7C7C"/>
<defs>
<clipPath id="clip0_401_7138">
<rect width="661" height="231" fill="white" transform="translate(50 24.29)"/>
</clipPath>
</defs>
</svg>
