<svg width="782" height="448" viewBox="0 0 782 448" fill="none" xmlns="http://www.w3.org/2000/svg">
  <g filter="url(#filter0_dd_658_3467)">
    <g clip-path="url(#clip0_658_3467)">
      <path
        d="M102 167C102 162.582 105.582 159 110 159H328C332.418 159 336 162.582 336 167V301C336 305.418 332.418 309 328 309H110C105.582 309 102 305.418 102 301V167Z"
        fill="#020202" />
      <path
        d="M122.912 189.096H125.312C126.768 189.096 127.664 188.248 127.664 187C127.664 185.704 126.768 184.856 125.312 184.856H122.912V189.096ZM125.52 190.296H122.912V195H121.568V183.656H125.52C127.616 183.656 129.008 185.096 129.008 186.984C129.008 188.888 127.616 190.296 125.52 190.296ZM133.529 187.112C135.737 187.112 137.369 188.808 137.369 191.16C137.369 193.528 135.737 195.224 133.529 195.224C131.321 195.224 129.689 193.528 129.689 191.16C129.689 188.808 131.321 187.112 133.529 187.112ZM133.529 188.264C132.153 188.264 130.969 189.304 130.969 191.16C130.969 193.032 132.153 194.072 133.529 194.072C134.905 194.072 136.089 193.032 136.089 191.16C136.089 189.304 134.905 188.264 133.529 188.264ZM138.718 192.984L139.87 192.584C139.982 193.464 140.638 194.136 141.79 194.136C142.702 194.136 143.278 193.624 143.278 192.968C143.278 192.392 142.814 192.008 142.11 191.848L140.862 191.56C139.694 191.288 138.958 190.536 138.958 189.432C138.958 188.152 140.174 187.112 141.63 187.112C143.614 187.112 144.302 188.376 144.478 189.16L143.342 189.576C143.246 189.048 142.846 188.2 141.63 188.2C140.83 188.2 140.206 188.712 140.206 189.352C140.206 189.896 140.542 190.232 141.214 190.392L142.462 190.68C143.806 190.984 144.542 191.768 144.542 192.904C144.542 194.008 143.598 195.224 141.774 195.224C139.758 195.224 138.846 193.944 138.718 192.984ZM148.37 184.904V187.336H150.178V188.488H148.37V192.728C148.37 193.528 148.722 193.928 149.538 193.928C149.762 193.928 150.05 193.88 150.178 193.848V194.936C150.034 194.984 149.666 195.08 149.17 195.08C147.906 195.08 147.09 194.296 147.09 192.904V188.488H145.554V187.336H146.05C146.834 187.336 147.17 186.888 147.17 186.168V184.904H148.37ZM151.408 195.432L152.64 195.128C152.768 196.248 153.616 197.112 154.864 197.112C156.656 197.112 157.312 196.056 157.312 194.472V193.24C156.96 193.976 156.128 194.664 154.88 194.664C152.848 194.664 151.424 193.048 151.424 190.904C151.424 188.76 152.832 187.112 154.911 187.112C156.112 187.112 156.944 187.672 157.328 188.424V187.336H158.592V194.424C158.592 196.312 157.728 198.264 154.864 198.264C152.976 198.264 151.6 197.048 151.408 195.432ZM157.376 190.888C157.376 189.304 156.432 188.264 155.04 188.264C153.648 188.264 152.704 189.304 152.704 190.888C152.704 192.472 153.648 193.512 155.04 193.512C156.432 193.512 157.376 192.472 157.376 190.888ZM165.204 187.288V188.648C164.996 188.584 164.756 188.568 164.532 188.568C163.252 188.568 162.372 189.304 162.372 191.032V195H161.092V187.336H162.34V188.712C162.836 187.592 163.812 187.224 164.66 187.224C164.868 187.224 165.092 187.256 165.204 187.288ZM167.361 190.424H171.937C171.905 189.208 171.121 188.248 169.665 188.248C168.337 188.248 167.441 189.288 167.361 190.424ZM172.113 192.424L173.217 192.824C172.785 194.152 171.585 195.224 169.809 195.224C167.761 195.224 166.017 193.72 166.017 191.144C166.017 188.728 167.713 187.112 169.649 187.112C171.969 187.112 173.265 188.728 173.265 191.064C173.265 191.224 173.249 191.4 173.233 191.512H167.329V191.576C167.329 193.032 168.433 194.072 169.809 194.072C171.105 194.072 171.809 193.336 172.113 192.424ZM174.577 192.984L175.729 192.584C175.841 193.464 176.497 194.136 177.649 194.136C178.561 194.136 179.137 193.624 179.137 192.968C179.137 192.392 178.673 192.008 177.969 191.848L176.721 191.56C175.553 191.288 174.817 190.536 174.817 189.432C174.817 188.152 176.033 187.112 177.489 187.112C179.473 187.112 180.161 188.376 180.337 189.16L179.201 189.576C179.105 189.048 178.705 188.2 177.489 188.2C176.689 188.2 176.065 188.712 176.065 189.352C176.065 189.896 176.401 190.232 177.073 190.392L178.321 190.68C179.665 190.984 180.401 191.768 180.401 192.904C180.401 194.008 179.457 195.224 177.633 195.224C175.617 195.224 174.705 193.944 174.577 192.984ZM187.731 195H186.451V187.336H187.731V195ZM186.131 184.312C186.131 183.784 186.563 183.352 187.091 183.352C187.619 183.352 188.051 183.784 188.051 184.312C188.051 184.84 187.619 185.272 187.091 185.272C186.563 185.272 186.131 184.84 186.131 184.312ZM191.512 190.488V195H190.232V187.336H191.48V188.488C191.976 187.592 192.872 187.112 193.88 187.112C195.72 187.112 196.616 188.424 196.616 190.088V195H195.336V190.28C195.336 189.16 194.824 188.264 193.432 188.264C192.2 188.264 191.512 189.288 191.512 190.488ZM200.792 184.904V187.336H202.6V188.488H200.792V192.728C200.792 193.528 201.144 193.928 201.96 193.928C202.184 193.928 202.472 193.88 202.6 193.848V194.936C202.456 194.984 202.088 195.08 201.592 195.08C200.328 195.08 199.512 194.296 199.512 192.904V188.488H197.976V187.336H198.472C199.256 187.336 199.592 186.888 199.592 186.168V184.904H200.792ZM205.173 190.424H209.749C209.717 189.208 208.933 188.248 207.477 188.248C206.149 188.248 205.253 189.288 205.173 190.424ZM209.925 192.424L211.029 192.824C210.597 194.152 209.397 195.224 207.621 195.224C205.573 195.224 203.829 193.72 203.829 191.144C203.829 188.728 205.525 187.112 207.461 187.112C209.781 187.112 211.077 188.728 211.077 191.064C211.077 191.224 211.061 191.4 211.045 191.512H205.141V191.576C205.141 193.032 206.245 194.072 207.621 194.072C208.917 194.072 209.621 193.336 209.925 192.424ZM212.486 195.432L213.718 195.128C213.846 196.248 214.694 197.112 215.942 197.112C217.734 197.112 218.39 196.056 218.39 194.472V193.24C218.038 193.976 217.206 194.664 215.958 194.664C213.926 194.664 212.502 193.048 212.502 190.904C212.502 188.76 213.91 187.112 215.99 187.112C217.19 187.112 218.022 187.672 218.406 188.424V187.336H219.67V194.424C219.67 196.312 218.806 198.264 215.942 198.264C214.054 198.264 212.678 197.048 212.486 195.432ZM218.454 190.888C218.454 189.304 217.51 188.264 216.118 188.264C214.726 188.264 213.782 189.304 213.782 190.888C213.782 192.472 214.726 193.512 216.118 193.512C217.51 193.512 218.454 192.472 218.454 190.888ZM226.282 187.288V188.648C226.074 188.584 225.834 188.568 225.61 188.568C224.33 188.568 223.45 189.304 223.45 191.032V195H222.17V187.336H223.418V188.712C223.914 187.592 224.89 187.224 225.738 187.224C225.946 187.224 226.17 187.256 226.282 187.288ZM227.251 192.968C227.251 191.624 228.195 190.872 229.539 190.68L231.603 190.376C232.163 190.296 232.291 190.056 232.291 189.72C232.291 188.856 231.715 188.2 230.515 188.2C229.395 188.2 228.723 188.872 228.611 189.848L227.395 189.56C227.555 188.104 228.835 187.112 230.483 187.112C232.659 187.112 233.571 188.36 233.571 189.848V193.72C233.571 194.36 233.619 194.76 233.667 195H232.419C232.387 194.824 232.323 194.44 232.323 193.848C231.987 194.472 231.155 195.224 229.779 195.224C228.195 195.224 227.251 194.136 227.251 192.968ZM229.939 194.136C231.267 194.136 232.291 193.4 232.291 191.768V191.256L229.795 191.624C229.059 191.736 228.531 192.152 228.531 192.904C228.531 193.528 229.059 194.136 229.939 194.136ZM237.776 184.904V187.336H239.584V188.488H237.776V192.728C237.776 193.528 238.128 193.928 238.944 193.928C239.168 193.928 239.456 193.88 239.584 193.848V194.936C239.44 194.984 239.072 195.08 238.576 195.08C237.312 195.08 236.496 194.296 236.496 192.904V188.488H234.96V187.336H235.456C236.24 187.336 236.576 186.888 236.576 186.168V184.904H237.776ZM242.622 195H241.342V187.336H242.622V195ZM241.022 184.312C241.022 183.784 241.454 183.352 241.982 183.352C242.51 183.352 242.942 183.784 242.942 184.312C242.942 184.84 242.51 185.272 241.982 185.272C241.454 185.272 241.022 184.84 241.022 184.312ZM248.435 187.112C250.643 187.112 252.275 188.808 252.275 191.16C252.275 193.528 250.643 195.224 248.435 195.224C246.227 195.224 244.595 193.528 244.595 191.16C244.595 188.808 246.227 187.112 248.435 187.112ZM248.435 188.264C247.059 188.264 245.875 189.304 245.875 191.16C245.875 193.032 247.059 194.072 248.435 194.072C249.811 194.072 250.995 193.032 250.995 191.16C250.995 189.304 249.811 188.264 248.435 188.264ZM255.528 190.488V195H254.248V187.336H255.496V188.488C255.992 187.592 256.888 187.112 257.896 187.112C259.736 187.112 260.632 188.424 260.632 190.088V195H259.352V190.28C259.352 189.16 258.84 188.264 257.448 188.264C256.216 188.264 255.528 189.288 255.528 190.488Z"
        fill="#F6F6F6" />
      <path
        d="M124.788 221.168C122.628 221.168 120.6 219.584 120.6 216.74C120.6 213.896 122.688 212.324 124.788 212.324C126.72 212.324 128.088 213.392 128.508 215.024L127.572 215.348C127.248 214.016 126.24 213.248 124.788 213.248C123.168 213.248 121.608 214.436 121.608 216.74C121.608 219.056 123.168 220.244 124.788 220.244C126.3 220.244 127.284 219.332 127.632 218.108L128.52 218.432C128.088 220.028 126.732 221.168 124.788 221.168ZM132.373 215.084C134.029 215.084 135.253 216.356 135.253 218.12C135.253 219.896 134.029 221.168 132.373 221.168C130.717 221.168 129.493 219.896 129.493 218.12C129.493 216.356 130.717 215.084 132.373 215.084ZM132.373 215.948C131.341 215.948 130.453 216.728 130.453 218.12C130.453 219.524 131.341 220.304 132.373 220.304C133.405 220.304 134.293 219.524 134.293 218.12C134.293 216.728 133.405 215.948 132.373 215.948ZM137.693 217.616V221H136.733V215.252H137.669V216.116C138.041 215.444 138.713 215.084 139.469 215.084C140.849 215.084 141.521 216.068 141.521 217.316V221H140.561V217.46C140.561 216.62 140.177 215.948 139.133 215.948C138.209 215.948 137.693 216.716 137.693 217.616ZM144.279 217.616V221H143.319V215.252H144.255V216.116C144.627 215.444 145.299 215.084 146.055 215.084C147.435 215.084 148.107 216.068 148.107 217.316V221H147.147V217.46C147.147 216.62 146.763 215.948 145.719 215.948C144.795 215.948 144.279 216.716 144.279 217.616ZM150.517 217.568H153.949C153.925 216.656 153.337 215.936 152.245 215.936C151.249 215.936 150.577 216.716 150.517 217.568ZM154.081 219.068L154.909 219.368C154.585 220.364 153.685 221.168 152.353 221.168C150.817 221.168 149.509 220.04 149.509 218.108C149.509 216.296 150.781 215.084 152.233 215.084C153.973 215.084 154.945 216.296 154.945 218.048C154.945 218.168 154.933 218.3 154.921 218.384H150.493V218.432C150.493 219.524 151.321 220.304 152.353 220.304C153.325 220.304 153.853 219.752 154.081 219.068ZM158.845 215.948C157.837 215.948 156.961 216.728 156.961 218.12C156.961 219.5 157.837 220.304 158.857 220.304C159.949 220.304 160.405 219.536 160.573 219.008L161.413 219.38C161.137 220.232 160.333 221.168 158.857 221.168C157.201 221.168 156.001 219.872 156.001 218.12C156.001 216.332 157.225 215.084 158.845 215.084C160.321 215.084 161.125 215.984 161.365 216.896L160.501 217.268C160.345 216.656 159.877 215.948 158.845 215.948ZM164.176 213.428V215.252H165.532V216.116H164.176V219.296C164.176 219.896 164.44 220.196 165.052 220.196C165.22 220.196 165.436 220.16 165.532 220.136V220.952C165.424 220.988 165.148 221.06 164.776 221.06C163.828 221.06 163.216 220.472 163.216 219.428V216.116H162.064V215.252H162.436C163.024 215.252 163.276 214.916 163.276 214.376V213.428H164.176ZM171.066 213.428V215.252H172.422V216.116H171.066V219.296C171.066 219.896 171.33 220.196 171.942 220.196C172.11 220.196 172.326 220.16 172.422 220.136V220.952C172.314 220.988 172.038 221.06 171.666 221.06C170.718 221.06 170.106 220.472 170.106 219.428V216.116H168.954V215.252H169.326C169.914 215.252 170.166 214.916 170.166 214.376V213.428H171.066ZM176.225 215.084C177.881 215.084 179.105 216.356 179.105 218.12C179.105 219.896 177.881 221.168 176.225 221.168C174.569 221.168 173.345 219.896 173.345 218.12C173.345 216.356 174.569 215.084 176.225 215.084ZM176.225 215.948C175.193 215.948 174.305 216.728 174.305 218.12C174.305 219.524 175.193 220.304 176.225 220.304C177.257 220.304 178.145 219.524 178.145 218.12C178.145 216.728 177.257 215.948 176.225 215.948ZM183.175 219.488L184.039 219.188C184.123 219.848 184.615 220.352 185.479 220.352C186.163 220.352 186.595 219.968 186.595 219.476C186.595 219.044 186.247 218.756 185.719 218.636L184.783 218.42C183.907 218.216 183.355 217.652 183.355 216.824C183.355 215.864 184.267 215.084 185.359 215.084C186.847 215.084 187.363 216.032 187.495 216.62L186.643 216.932C186.571 216.536 186.271 215.9 185.359 215.9C184.759 215.9 184.291 216.284 184.291 216.764C184.291 217.172 184.543 217.424 185.047 217.544L185.983 217.76C186.991 217.988 187.543 218.576 187.543 219.428C187.543 220.256 186.835 221.168 185.467 221.168C183.955 221.168 183.271 220.208 183.175 219.488ZM189.634 217.568H193.066C193.042 216.656 192.454 215.936 191.362 215.936C190.366 215.936 189.694 216.716 189.634 217.568ZM193.198 219.068L194.026 219.368C193.702 220.364 192.802 221.168 191.47 221.168C189.934 221.168 188.626 220.04 188.626 218.108C188.626 216.296 189.898 215.084 191.35 215.084C193.09 215.084 194.062 216.296 194.062 218.048C194.062 218.168 194.05 218.3 194.038 218.384H189.61V218.432C189.61 219.524 190.438 220.304 191.47 220.304C192.442 220.304 192.97 219.752 193.198 219.068ZM196.474 217.616V221H195.514V215.252H196.45V216.116C196.822 215.444 197.494 215.084 198.25 215.084C199.63 215.084 200.302 216.068 200.302 217.316V221H199.342V217.46C199.342 216.62 198.958 215.948 197.914 215.948C196.99 215.948 196.474 216.716 196.474 217.616ZM206.264 220.172V220.016C206 220.58 205.376 221.168 204.38 221.168C202.724 221.168 201.716 219.824 201.716 218.12C201.716 216.452 202.772 215.084 204.38 215.084C205.484 215.084 206.048 215.696 206.24 216.176V212.324H207.2V219.92C207.2 220.496 207.236 220.88 207.26 221H206.324C206.3 220.868 206.264 220.544 206.264 220.172ZM204.464 220.304C205.544 220.304 206.264 219.392 206.264 218.12C206.264 216.848 205.556 215.948 204.464 215.948C203.372 215.948 202.676 216.848 202.676 218.12C202.676 219.392 203.384 220.304 204.464 220.304ZM212.743 217.568H216.175C216.151 216.656 215.563 215.936 214.471 215.936C213.475 215.936 212.803 216.716 212.743 217.568ZM216.307 219.068L217.135 219.368C216.811 220.364 215.911 221.168 214.579 221.168C213.043 221.168 211.735 220.04 211.735 218.108C211.735 216.296 213.007 215.084 214.459 215.084C216.199 215.084 217.171 216.296 217.171 218.048C217.171 218.168 217.159 218.3 217.147 218.384H212.719V218.432C212.719 219.524 213.547 220.304 214.579 220.304C215.551 220.304 216.079 219.752 216.307 219.068ZM223.356 215.252L221.064 221H220.092L217.776 215.252H218.856L220.584 219.884L222.324 215.252H223.356ZM225.001 217.568H228.433C228.409 216.656 227.821 215.936 226.729 215.936C225.733 215.936 225.061 216.716 225.001 217.568ZM228.565 219.068L229.393 219.368C229.069 220.364 228.169 221.168 226.837 221.168C225.301 221.168 223.993 220.04 223.993 218.108C223.993 216.296 225.265 215.084 226.717 215.084C228.457 215.084 229.429 216.296 229.429 218.048C229.429 218.168 229.417 218.3 229.405 218.384H224.977V218.432C224.977 219.524 225.805 220.304 226.837 220.304C227.809 220.304 228.337 219.752 228.565 219.068ZM231.841 217.616V221H230.881V215.252H231.817V216.116C232.189 215.444 232.861 215.084 233.617 215.084C234.997 215.084 235.669 216.068 235.669 217.316V221H234.709V217.46C234.709 216.62 234.325 215.948 233.281 215.948C232.357 215.948 231.841 216.716 231.841 217.616ZM238.801 213.428V215.252H240.157V216.116H238.801V219.296C238.801 219.896 239.065 220.196 239.677 220.196C239.845 220.196 240.061 220.16 240.157 220.136V220.952C240.049 220.988 239.773 221.06 239.401 221.06C238.453 221.06 237.841 220.472 237.841 219.428V216.116H236.689V215.252H237.061C237.649 215.252 237.901 214.916 237.901 214.376V213.428H238.801ZM241.007 219.488L241.871 219.188C241.955 219.848 242.447 220.352 243.311 220.352C243.995 220.352 244.427 219.968 244.427 219.476C244.427 219.044 244.079 218.756 243.551 218.636L242.615 218.42C241.739 218.216 241.187 217.652 241.187 216.824C241.187 215.864 242.099 215.084 243.191 215.084C244.679 215.084 245.195 216.032 245.327 216.62L244.475 216.932C244.403 216.536 244.103 215.9 243.191 215.9C242.591 215.9 242.123 216.284 242.123 216.764C242.123 217.172 242.375 217.424 242.879 217.544L243.815 217.76C244.823 217.988 245.375 218.576 245.375 219.428C245.375 220.256 244.667 221.168 243.299 221.168C241.787 221.168 241.103 220.208 241.007 219.488ZM254.077 220.172V220.016C253.813 220.58 253.189 221.168 252.193 221.168C250.537 221.168 249.529 219.824 249.529 218.12C249.529 216.452 250.585 215.084 252.193 215.084C253.297 215.084 253.861 215.696 254.053 216.176V212.324H255.013V219.92C255.013 220.496 255.049 220.88 255.073 221H254.137C254.113 220.868 254.077 220.544 254.077 220.172ZM252.277 220.304C253.357 220.304 254.077 219.392 254.077 218.12C254.077 216.848 253.369 215.948 252.277 215.948C251.185 215.948 250.489 216.848 250.489 218.12C250.489 219.392 251.197 220.304 252.277 220.304ZM257.845 221H256.885V215.252H257.845V221ZM256.645 212.984C256.645 212.588 256.969 212.264 257.365 212.264C257.761 212.264 258.085 212.588 258.085 212.984C258.085 213.38 257.761 213.704 257.365 213.704C256.969 213.704 256.645 213.38 256.645 212.984ZM262.805 215.216V216.236C262.649 216.188 262.469 216.176 262.301 216.176C261.341 216.176 260.681 216.728 260.681 218.024V221H259.721V215.252H260.657V216.284C261.029 215.444 261.761 215.168 262.397 215.168C262.553 215.168 262.721 215.192 262.805 215.216ZM264.423 217.568H267.855C267.831 216.656 267.243 215.936 266.151 215.936C265.155 215.936 264.483 216.716 264.423 217.568ZM267.987 219.068L268.815 219.368C268.491 220.364 267.591 221.168 266.259 221.168C264.723 221.168 263.415 220.04 263.415 218.108C263.415 216.296 264.687 215.084 266.139 215.084C267.879 215.084 268.851 216.296 268.851 218.048C268.851 218.168 268.839 218.3 268.827 218.384H264.399V218.432C264.399 219.524 265.227 220.304 266.259 220.304C267.231 220.304 267.759 219.752 267.987 219.068ZM272.751 215.948C271.743 215.948 270.867 216.728 270.867 218.12C270.867 219.5 271.743 220.304 272.763 220.304C273.855 220.304 274.311 219.536 274.479 219.008L275.319 219.38C275.043 220.232 274.239 221.168 272.763 221.168C271.107 221.168 269.907 219.872 269.907 218.12C269.907 216.332 271.131 215.084 272.751 215.084C274.227 215.084 275.031 215.984 275.271 216.896L274.407 217.268C274.251 216.656 273.783 215.948 272.751 215.948ZM278.082 213.428V215.252H279.438V216.116H278.082V219.296C278.082 219.896 278.346 220.196 278.958 220.196C279.126 220.196 279.342 220.16 279.438 220.136V220.952C279.33 220.988 279.054 221.06 278.682 221.06C277.734 221.06 277.122 220.472 277.122 219.428V216.116H275.97V215.252H276.342C276.93 215.252 277.182 214.916 277.182 214.376V213.428H278.082ZM281.716 221H280.756V212.324H281.716V221ZM285.056 223.28H283.988L285.38 220.316L282.908 215.252H284.012L285.908 219.32L287.696 215.252H288.74L285.056 223.28ZM295.332 216.116H293.844V221H292.884V216.116H291.756V215.252H292.884V214.184C292.884 212.924 293.676 212.264 294.696 212.264C295.044 212.264 295.272 212.336 295.356 212.384V213.212C295.272 213.176 295.116 213.128 294.84 213.128C294.372 213.128 293.844 213.38 293.844 214.208V215.252H295.332V216.116ZM299.59 215.216V216.236C299.434 216.188 299.254 216.176 299.086 216.176C298.126 216.176 297.466 216.728 297.466 218.024V221H296.506V215.252H297.442V216.284C297.814 215.444 298.546 215.168 299.182 215.168C299.338 215.168 299.506 215.192 299.59 215.216ZM303.08 215.084C304.736 215.084 305.96 216.356 305.96 218.12C305.96 219.896 304.736 221.168 303.08 221.168C301.424 221.168 300.2 219.896 300.2 218.12C300.2 216.356 301.424 215.084 303.08 215.084ZM303.08 215.948C302.048 215.948 301.16 216.728 301.16 218.12C301.16 219.524 302.048 220.304 303.08 220.304C304.112 220.304 305 219.524 305 218.12C305 216.728 304.112 215.948 303.08 215.948ZM308.376 215.252V216.068C308.7 215.468 309.396 215.084 310.14 215.084C310.932 215.084 311.616 215.504 311.904 216.26C312.312 215.444 313.032 215.084 313.848 215.084C314.892 215.084 315.828 215.804 315.828 217.244V221H314.868V217.352C314.868 216.56 314.448 215.948 313.548 215.948C312.696 215.948 312.12 216.644 312.12 217.508V221H311.16V217.352C311.16 216.56 310.74 215.948 309.828 215.948C308.964 215.948 308.4 216.62 308.4 217.52V221H307.44V215.252H308.376ZM123.384 231.948C122.376 231.948 121.5 232.728 121.5 234.12C121.5 235.5 122.376 236.304 123.396 236.304C124.488 236.304 124.944 235.536 125.112 235.008L125.952 235.38C125.676 236.232 124.872 237.168 123.396 237.168C121.74 237.168 120.54 235.872 120.54 234.12C120.54 232.332 121.764 231.084 123.384 231.084C124.86 231.084 125.664 231.984 125.904 232.896L125.04 233.268C124.884 232.656 124.416 231.948 123.384 231.948ZM128.283 233.568V237H127.323V228.324H128.283V232.02C128.655 231.42 129.315 231.084 130.059 231.084C131.439 231.084 132.111 232.068 132.111 233.316V237H131.151V233.46C131.151 232.62 130.767 231.948 129.723 231.948C128.811 231.948 128.283 232.68 128.283 233.568ZM133.501 235.476C133.501 234.468 134.209 233.904 135.217 233.76L136.765 233.532C137.185 233.472 137.281 233.292 137.281 233.04C137.281 232.392 136.849 231.9 135.949 231.9C135.109 231.9 134.605 232.404 134.521 233.136L133.609 232.92C133.729 231.828 134.689 231.084 135.925 231.084C137.557 231.084 138.241 232.02 138.241 233.136V236.04C138.241 236.52 138.277 236.82 138.313 237H137.377C137.353 236.868 137.305 236.58 137.305 236.136C137.053 236.604 136.429 237.168 135.397 237.168C134.209 237.168 133.501 236.352 133.501 235.476ZM135.517 236.352C136.513 236.352 137.281 235.8 137.281 234.576V234.192L135.409 234.468C134.857 234.552 134.461 234.864 134.461 235.428C134.461 235.896 134.857 236.352 135.517 236.352ZM141.009 233.616V237H140.049V231.252H140.985V232.116C141.357 231.444 142.029 231.084 142.785 231.084C144.165 231.084 144.837 232.068 144.837 233.316V237H143.877V233.46C143.877 232.62 143.493 231.948 142.449 231.948C141.525 231.948 141.009 232.716 141.009 233.616ZM146.239 237.324L147.163 237.096C147.259 237.936 147.895 238.584 148.831 238.584C150.175 238.584 150.667 237.792 150.667 236.604V235.68C150.403 236.232 149.779 236.748 148.843 236.748C147.319 236.748 146.251 235.536 146.251 233.928C146.251 232.32 147.307 231.084 148.867 231.084C149.767 231.084 150.391 231.504 150.679 232.068V231.252H151.627V236.568C151.627 237.984 150.979 239.448 148.831 239.448C147.415 239.448 146.383 238.536 146.239 237.324ZM150.715 233.916C150.715 232.728 150.007 231.948 148.963 231.948C147.919 231.948 147.211 232.728 147.211 233.916C147.211 235.104 147.919 235.884 148.963 235.884C150.007 235.884 150.715 235.104 150.715 233.916ZM154.114 233.568H157.546C157.522 232.656 156.934 231.936 155.842 231.936C154.846 231.936 154.174 232.716 154.114 233.568ZM157.678 235.068L158.506 235.368C158.182 236.364 157.282 237.168 155.95 237.168C154.414 237.168 153.106 236.04 153.106 234.108C153.106 232.296 154.378 231.084 155.83 231.084C157.57 231.084 158.542 232.296 158.542 234.048C158.542 234.168 158.53 234.3 158.518 234.384H154.09V234.432C154.09 235.524 154.918 236.304 155.95 236.304C156.922 236.304 157.45 235.752 157.678 235.068ZM159.527 235.488L160.391 235.188C160.475 235.848 160.967 236.352 161.831 236.352C162.515 236.352 162.947 235.968 162.947 235.476C162.947 235.044 162.599 234.756 162.071 234.636L161.135 234.42C160.259 234.216 159.707 233.652 159.707 232.824C159.707 231.864 160.619 231.084 161.711 231.084C163.199 231.084 163.715 232.032 163.847 232.62L162.995 232.932C162.923 232.536 162.623 231.9 161.711 231.9C161.111 231.9 160.643 232.284 160.643 232.764C160.643 233.172 160.895 233.424 161.399 233.544L162.335 233.76C163.343 233.988 163.895 234.576 163.895 235.428C163.895 236.256 163.187 237.168 161.819 237.168C160.307 237.168 159.623 236.208 159.527 235.488ZM169.392 237H168.432V231.252H169.392V237ZM168.192 228.984C168.192 228.588 168.516 228.264 168.912 228.264C169.308 228.264 169.632 228.588 169.632 228.984C169.632 229.38 169.308 229.704 168.912 229.704C168.516 229.704 168.192 229.38 168.192 228.984ZM172.228 233.616V237H171.268V231.252H172.204V232.116C172.576 231.444 173.248 231.084 174.004 231.084C175.384 231.084 176.056 232.068 176.056 233.316V237H175.096V233.46C175.096 232.62 174.712 231.948 173.668 231.948C172.744 231.948 172.228 232.716 172.228 233.616ZM182.06 239.28H180.992L182.384 236.316L179.912 231.252H181.016L182.912 235.32L184.7 231.252H185.744L182.06 239.28ZM189.186 231.084C190.842 231.084 192.066 232.356 192.066 234.12C192.066 235.896 190.842 237.168 189.186 237.168C187.53 237.168 186.306 235.896 186.306 234.12C186.306 232.356 187.53 231.084 189.186 231.084ZM189.186 231.948C188.154 231.948 187.266 232.728 187.266 234.12C187.266 235.524 188.154 236.304 189.186 236.304C190.218 236.304 191.106 235.524 191.106 234.12C191.106 232.728 190.218 231.948 189.186 231.948ZM197.361 236.22C197.085 236.808 196.389 237.168 195.633 237.168C194.241 237.168 193.473 236.136 193.473 234.864V231.252H194.433V234.708C194.433 235.548 194.829 236.304 195.849 236.304C196.797 236.304 197.313 235.632 197.313 234.72V231.252H198.273V235.92C198.273 236.364 198.309 236.772 198.345 237H197.421C197.385 236.868 197.361 236.556 197.361 236.268V236.22ZM203.227 231.216V232.236C203.071 232.188 202.891 232.176 202.723 232.176C201.763 232.176 201.103 232.728 201.103 234.024V237H200.143V231.252H201.079V232.284C201.451 231.444 202.183 231.168 202.819 231.168C202.975 231.168 203.143 231.192 203.227 231.216ZM208.399 236.112H210.187C211.843 236.112 213.247 234.996 213.247 232.764C213.247 230.52 211.867 229.38 210.211 229.38H208.399V236.112ZM210.187 237H207.391V228.492H210.211C212.371 228.492 214.255 229.968 214.255 232.764C214.255 235.548 212.347 237 210.187 237ZM215.333 235.476C215.333 234.468 216.041 233.904 217.049 233.76L218.597 233.532C219.017 233.472 219.113 233.292 219.113 233.04C219.113 232.392 218.681 231.9 217.781 231.9C216.941 231.9 216.437 232.404 216.353 233.136L215.441 232.92C215.561 231.828 216.521 231.084 217.757 231.084C219.389 231.084 220.073 232.02 220.073 233.136V236.04C220.073 236.52 220.109 236.82 220.145 237H219.209C219.185 236.868 219.137 236.58 219.137 236.136C218.885 236.604 218.261 237.168 217.229 237.168C216.041 237.168 215.333 236.352 215.333 235.476ZM217.349 236.352C218.345 236.352 219.113 235.8 219.113 234.576V234.192L217.241 234.468C216.689 234.552 216.293 234.864 216.293 235.428C216.293 235.896 216.689 236.352 217.349 236.352ZM223.226 229.428V231.252H224.582V232.116H223.226V235.296C223.226 235.896 223.49 236.196 224.102 236.196C224.27 236.196 224.486 236.16 224.582 236.136V236.952C224.474 236.988 224.198 237.06 223.826 237.06C222.878 237.06 222.266 236.472 222.266 235.428V232.116H221.114V231.252H221.486C222.074 231.252 222.326 230.916 222.326 230.376V229.428H223.226ZM225.493 235.476C225.493 234.468 226.201 233.904 227.209 233.76L228.757 233.532C229.177 233.472 229.273 233.292 229.273 233.04C229.273 232.392 228.841 231.9 227.941 231.9C227.101 231.9 226.597 232.404 226.513 233.136L225.601 232.92C225.721 231.828 226.681 231.084 227.917 231.084C229.549 231.084 230.233 232.02 230.233 233.136V236.04C230.233 236.52 230.269 236.82 230.305 237H229.369C229.345 236.868 229.297 236.58 229.297 236.136C229.045 236.604 228.421 237.168 227.389 237.168C226.201 237.168 225.493 236.352 225.493 235.476ZM227.509 236.352C228.505 236.352 229.273 235.8 229.273 234.576V234.192L227.401 234.468C226.849 234.552 226.453 234.864 226.453 235.428C226.453 235.896 226.849 236.352 227.509 236.352ZM232.977 237H232.041V228.324H233.001V232.188C233.265 231.648 233.937 231.084 234.969 231.084C236.673 231.084 237.585 232.44 237.585 234.12C237.585 235.836 236.613 237.168 234.945 237.168C233.985 237.168 233.313 236.676 232.977 236.052V237ZM234.801 236.304C235.905 236.304 236.625 235.392 236.625 234.12C236.625 232.848 235.917 231.948 234.801 231.948C233.685 231.948 232.977 232.848 232.977 234.12C232.977 235.392 233.697 236.304 234.801 236.304ZM238.665 235.476C238.665 234.468 239.373 233.904 240.381 233.76L241.929 233.532C242.349 233.472 242.445 233.292 242.445 233.04C242.445 232.392 242.013 231.9 241.113 231.9C240.273 231.9 239.769 232.404 239.685 233.136L238.773 232.92C238.893 231.828 239.853 231.084 241.089 231.084C242.721 231.084 243.405 232.02 243.405 233.136V236.04C243.405 236.52 243.441 236.82 243.477 237H242.541C242.517 236.868 242.469 236.58 242.469 236.136C242.217 236.604 241.593 237.168 240.561 237.168C239.373 237.168 238.665 236.352 238.665 235.476ZM240.681 236.352C241.677 236.352 242.445 235.8 242.445 234.576V234.192L240.573 234.468C240.021 234.552 239.625 234.864 239.625 235.428C239.625 235.896 240.021 236.352 240.681 236.352ZM244.745 235.488L245.609 235.188C245.693 235.848 246.185 236.352 247.049 236.352C247.733 236.352 248.165 235.968 248.165 235.476C248.165 235.044 247.817 234.756 247.289 234.636L246.353 234.42C245.477 234.216 244.925 233.652 244.925 232.824C244.925 231.864 245.837 231.084 246.929 231.084C248.417 231.084 248.933 232.032 249.065 232.62L248.213 232.932C248.141 232.536 247.841 231.9 246.929 231.9C246.329 231.9 245.861 232.284 245.861 232.764C245.861 233.172 246.113 233.424 246.617 233.544L247.553 233.76C248.561 233.988 249.113 234.576 249.113 235.428C249.113 236.256 248.405 237.168 247.037 237.168C245.525 237.168 244.841 236.208 244.745 235.488ZM251.204 233.568H254.636C254.612 232.656 254.024 231.936 252.932 231.936C251.936 231.936 251.264 232.716 251.204 233.568ZM254.768 235.068L255.596 235.368C255.272 236.364 254.372 237.168 253.04 237.168C251.504 237.168 250.196 236.04 250.196 234.108C250.196 232.296 251.468 231.084 252.92 231.084C254.66 231.084 255.632 232.296 255.632 234.048C255.632 234.168 255.62 234.3 255.608 234.384H251.18V234.432C251.18 235.524 252.008 236.304 253.04 236.304C254.012 236.304 254.54 235.752 254.768 235.068ZM256.856 236.316C256.856 235.896 257.192 235.572 257.6 235.572C258.008 235.572 258.344 235.896 258.344 236.316C258.344 236.736 258.008 237.06 257.6 237.06C257.192 237.06 256.856 236.736 256.856 236.316Z"
        fill="#CCCCCC" />
      <rect x="120.5" y="259.5" width="78" height="31" rx="5.5" stroke="#4B4B4B" />
      <path
        d="M137.968 280.21C135.406 280.21 133.04 278.348 133.04 275.03C133.04 271.712 135.504 269.864 137.968 269.864C140.236 269.864 141.832 271.096 142.336 273.014L141.062 273.462C140.684 271.964 139.592 271.124 137.968 271.124C136.162 271.124 134.44 272.44 134.44 275.03C134.44 277.62 136.162 278.95 137.968 278.95C139.662 278.95 140.726 277.928 141.132 276.57L142.35 277.018C141.818 278.88 140.25 280.21 137.968 280.21ZM146.887 279.034C148.007 279.034 148.987 278.194 148.987 276.626C148.987 275.072 148.007 274.232 146.887 274.232C145.767 274.232 144.787 275.072 144.787 276.626C144.787 278.194 145.767 279.034 146.887 279.034ZM146.887 273.056C148.903 273.056 150.331 274.582 150.331 276.626C150.331 278.684 148.903 280.21 146.887 280.21C144.871 280.21 143.443 278.684 143.443 276.626C143.443 274.582 144.871 273.056 146.887 273.056ZM153.328 276.108V280H152.012V273.266H153.3V274.232C153.79 273.392 154.588 273.07 155.372 273.07C156.982 273.07 157.78 274.232 157.78 275.73V280H156.464V275.954C156.464 275.016 156.072 274.26 154.896 274.26C153.86 274.26 153.328 275.086 153.328 276.108ZM161.149 276.108V280H159.833V273.266H161.121V274.232C161.611 273.392 162.409 273.07 163.193 273.07C164.803 273.07 165.601 274.232 165.601 275.73V280H164.285V275.954C164.285 275.016 163.893 274.26 162.717 274.26C161.681 274.26 161.149 275.086 161.149 276.108ZM168.605 275.94H172.287C172.259 274.974 171.629 274.218 170.439 274.218C169.333 274.218 168.661 275.072 168.605 275.94ZM172.483 277.69L173.617 278.082C173.239 279.272 172.161 280.21 170.593 280.21C168.787 280.21 167.205 278.894 167.205 276.612C167.205 274.498 168.731 273.056 170.425 273.056C172.497 273.056 173.659 274.484 173.659 276.584C173.659 276.752 173.645 276.92 173.631 277.004H168.563C168.591 278.208 169.459 279.048 170.593 279.048C171.685 279.048 172.231 278.446 172.483 277.69ZM178.249 274.274C177.185 274.274 176.205 275.058 176.205 276.626C176.205 278.166 177.171 278.992 178.263 278.992C179.523 278.992 179.985 278.138 180.139 277.606L181.301 278.11C180.979 279.076 180.013 280.21 178.263 280.21C176.303 280.21 174.861 278.67 174.861 276.626C174.861 274.526 176.331 273.056 178.249 273.056C180.041 273.056 180.965 274.176 181.245 275.198L180.055 275.702C179.887 275.044 179.397 274.274 178.249 274.274ZM184.69 271.138V273.266H186.146V274.456H184.69V277.956C184.69 278.572 184.942 278.88 185.628 278.88C185.796 278.88 186.034 278.852 186.146 278.824V279.944C186.034 279.986 185.698 280.07 185.25 280.07C184.102 280.07 183.374 279.37 183.374 278.152V274.456H182.086V273.266H182.45C183.178 273.266 183.486 272.818 183.486 272.23V271.138H184.69Z"
        fill="#F6F6F6" />
    </g>
    <path
      d="M110 159.5H328C332.142 159.5 335.5 162.858 335.5 167V301C335.5 305.142 332.142 308.5 328 308.5H110C105.858 308.5 102.5 305.142 102.5 301V167C102.5 162.858 105.858 159.5 110 159.5Z"
      stroke="#B0B0B0" stroke-opacity="0.6" />
  </g>
  <path d="M334.807 231.062H468.611" stroke="url(#paint0_linear_658_3467)" stroke-width="1.5" />
  <path
    d="M334.807 243.492H381.709C392.754 243.492 401.709 252.446 401.709 263.492V291.381C401.709 302.426 410.663 311.381 421.709 311.381H469.364"
    stroke="url(#paint1_linear_658_3467)" stroke-width="1.5" />
  <path
    d="M334.807 218.631H381.709C392.754 218.631 401.709 209.677 401.709 198.631V177.293C401.709 166.248 410.663 157.293 421.709 157.293L469.43 157.293"
    stroke="url(#paint2_linear_658_3467)" stroke-width="1.5" />
  <path
    d="M457 135C457 132.791 458.791 131 461 131H702C704.209 131 706 132.791 706 135V177C706 179.209 704.209 181 702 181H461C458.791 181 457 179.209 457 177V135Z"
    fill="#020202" />
  <path
    d="M702 130.5H461C458.515 130.5 456.5 132.515 456.5 135V177C456.5 179.485 458.515 181.5 461 181.5H702C704.485 181.5 706.5 179.485 706.5 177V135C706.5 132.515 704.485 130.5 702 130.5Z"
    stroke="#B0B0B0" stroke-opacity="0.6" />
  <path
    d="M463 141C463 138.791 464.791 137 467 137H497C499.209 137 501 138.791 501 141V171C501 173.209 499.209 175 497 175H467C464.791 175 463 173.209 463 171V141Z"
    fill="url(#paint3_radial_658_3467)" />
  <path
    d="M482 162.75C478.272 162.75 475.25 159.728 475.25 156C475.25 152.272 478.272 149.25 482 149.25C485.728 149.25 488.75 152.272 488.75 156C488.75 159.728 485.728 162.75 482 162.75ZM481.327 158.7L486.099 153.927L485.145 152.973L481.327 156.791L479.417 154.882L478.463 155.836L481.327 158.7Z"
    fill="#FEFEFE" />
  <path
    d="M521.022 152L520.084 149.508H515.884L514.96 152H513.182L517.046 142.074H518.992L522.856 152H521.022ZM517.984 143.894L516.472 147.954H519.496L517.984 143.894ZM528.331 151.244C527.995 151.86 527.197 152.196 526.399 152.196C524.775 152.196 523.823 150.992 523.823 149.48V145.182H525.447V149.186C525.447 150.026 525.839 150.74 526.819 150.74C527.757 150.74 528.247 150.11 528.247 149.214V145.182H529.871V150.754C529.871 151.314 529.913 151.748 529.941 152H528.387C528.359 151.846 528.331 151.524 528.331 151.244ZM534.033 143.096V145.182H535.447V146.624H534.033V149.788C534.033 150.39 534.299 150.642 534.901 150.642C535.125 150.642 535.391 150.6 535.461 150.586V151.93C535.363 151.972 535.055 152.084 534.467 152.084C533.207 152.084 532.423 151.328 532.423 150.054V146.624H531.163V145.182H531.513C532.241 145.182 532.563 144.72 532.563 144.118V143.096H534.033ZM538.628 147.996V152H537.004V141.864H538.628V145.84C539.09 145.238 539.86 144.986 540.574 144.986C542.254 144.986 543.066 146.19 543.066 147.688V152H541.442V147.968C541.442 147.128 541.064 146.456 540.042 146.456C539.146 146.456 538.656 147.128 538.628 147.996ZM548.11 150.754C549.118 150.754 550.014 150.012 550.014 148.584C550.014 147.17 549.118 146.442 548.11 146.442C547.116 146.442 546.206 147.17 546.206 148.584C546.206 149.998 547.116 150.754 548.11 150.754ZM548.11 144.972C550.154 144.972 551.652 146.498 551.652 148.584C551.652 150.684 550.154 152.21 548.11 152.21C546.08 152.21 544.582 150.684 544.582 148.584C544.582 146.498 546.08 144.972 548.11 144.972ZM557.223 145.14V146.792C557.041 146.764 556.859 146.75 556.691 146.75C555.431 146.75 554.857 147.478 554.857 148.752V152H553.233V145.182H554.815V146.274C555.137 145.532 555.893 145.098 556.789 145.098C556.985 145.098 557.153 145.126 557.223 145.14ZM560.12 152H558.51V145.182H560.12V152ZM558.258 142.788C558.258 142.2 558.734 141.724 559.308 141.724C559.896 141.724 560.372 142.2 560.372 142.788C560.372 143.376 559.896 143.838 559.308 143.838C558.734 143.838 558.258 143.376 558.258 142.788ZM567.327 152H561.755V150.586L565.213 146.61H561.825V145.182H567.257V146.554L563.757 150.572H567.327V152ZM570.119 147.842H573.465C573.437 147.044 572.905 146.33 571.785 146.33C570.763 146.33 570.175 147.114 570.119 147.842ZM573.647 149.62L575.019 150.054C574.655 151.244 573.577 152.21 571.939 152.21C570.091 152.21 568.453 150.866 568.453 148.556C568.453 146.4 570.049 144.972 571.771 144.972C573.871 144.972 575.103 146.358 575.103 148.514C575.103 148.78 575.075 149.004 575.061 149.032H570.077C570.119 150.068 570.931 150.81 571.939 150.81C572.919 150.81 573.423 150.292 573.647 149.62Z"
    fill="#F6F6F6" />
  <path
    d="M520.152 171L519.18 168.516H515.28L514.332 171H513.24L516.648 162.492H517.824L521.244 171H520.152ZM517.224 163.524L515.64 167.592H518.82L517.224 163.524ZM526.432 170.172V170.016C526.168 170.58 525.544 171.168 524.548 171.168C522.892 171.168 521.884 169.824 521.884 168.12C521.884 166.452 522.94 165.084 524.548 165.084C525.652 165.084 526.216 165.696 526.408 166.176V162.324H527.368V169.92C527.368 170.496 527.404 170.88 527.428 171H526.492C526.468 170.868 526.432 170.544 526.432 170.172ZM524.632 170.304C525.712 170.304 526.432 169.392 526.432 168.12C526.432 166.848 525.724 165.948 524.632 165.948C523.54 165.948 522.844 166.848 522.844 168.12C522.844 169.392 523.552 170.304 524.632 170.304ZM533.405 170.172V170.016C533.141 170.58 532.517 171.168 531.521 171.168C529.865 171.168 528.857 169.824 528.857 168.12C528.857 166.452 529.913 165.084 531.521 165.084C532.625 165.084 533.189 165.696 533.381 166.176V162.324H534.341V169.92C534.341 170.496 534.377 170.88 534.401 171H533.465C533.441 170.868 533.405 170.544 533.405 170.172ZM531.605 170.304C532.685 170.304 533.405 169.392 533.405 168.12C533.405 166.848 532.697 165.948 531.605 165.948C530.513 165.948 529.817 166.848 529.817 168.12C529.817 169.392 530.525 170.304 531.605 170.304ZM538.864 169.476C538.864 168.468 539.572 167.904 540.58 167.76L542.128 167.532C542.548 167.472 542.644 167.292 542.644 167.04C542.644 166.392 542.212 165.9 541.312 165.9C540.472 165.9 539.968 166.404 539.884 167.136L538.972 166.92C539.092 165.828 540.052 165.084 541.288 165.084C542.92 165.084 543.604 166.02 543.604 167.136V170.04C543.604 170.52 543.64 170.82 543.676 171H542.74C542.716 170.868 542.668 170.58 542.668 170.136C542.416 170.604 541.792 171.168 540.76 171.168C539.572 171.168 538.864 170.352 538.864 169.476ZM540.88 170.352C541.876 170.352 542.644 169.8 542.644 168.576V168.192L540.772 168.468C540.22 168.552 539.824 168.864 539.824 169.428C539.824 169.896 540.22 170.352 540.88 170.352ZM549.229 170.22C548.953 170.808 548.257 171.168 547.501 171.168C546.109 171.168 545.341 170.136 545.341 168.864V165.252H546.301V168.708C546.301 169.548 546.697 170.304 547.717 170.304C548.665 170.304 549.181 169.632 549.181 168.72V165.252H550.141V169.92C550.141 170.364 550.177 170.772 550.213 171H549.289C549.253 170.868 549.229 170.556 549.229 170.268V170.22ZM553.402 163.428V165.252H554.758V166.116H553.402V169.296C553.402 169.896 553.666 170.196 554.278 170.196C554.446 170.196 554.662 170.16 554.758 170.136V170.952C554.65 170.988 554.374 171.06 554.002 171.06C553.054 171.06 552.442 170.472 552.442 169.428V166.116H551.29V165.252H551.662C552.25 165.252 552.502 164.916 552.502 164.376V163.428H553.402ZM557.037 167.568V171H556.077V162.324H557.037V166.02C557.409 165.42 558.069 165.084 558.813 165.084C560.193 165.084 560.865 166.068 560.865 167.316V171H559.905V167.46C559.905 166.62 559.521 165.948 558.477 165.948C557.565 165.948 557.037 166.68 557.037 167.568ZM568.169 165.948C567.161 165.948 566.285 166.728 566.285 168.12C566.285 169.5 567.161 170.304 568.181 170.304C569.273 170.304 569.729 169.536 569.897 169.008L570.737 169.38C570.461 170.232 569.657 171.168 568.181 171.168C566.525 171.168 565.325 169.872 565.325 168.12C565.325 166.332 566.549 165.084 568.169 165.084C569.645 165.084 570.449 165.984 570.689 166.896L569.825 167.268C569.669 166.656 569.201 165.948 568.169 165.948ZM575.192 165.216V166.236C575.036 166.188 574.856 166.176 574.688 166.176C573.728 166.176 573.068 166.728 573.068 168.024V171H572.108V165.252H573.044V166.284C573.416 165.444 574.148 165.168 574.784 165.168C574.94 165.168 575.108 165.192 575.192 165.216ZM576.81 167.568H580.242C580.218 166.656 579.63 165.936 578.538 165.936C577.542 165.936 576.87 166.716 576.81 167.568ZM580.374 169.068L581.202 169.368C580.878 170.364 579.978 171.168 578.646 171.168C577.11 171.168 575.802 170.04 575.802 168.108C575.802 166.296 577.074 165.084 578.526 165.084C580.266 165.084 581.238 166.296 581.238 168.048C581.238 168.168 581.226 168.3 581.214 168.384H576.786V168.432C576.786 169.524 577.614 170.304 578.646 170.304C579.618 170.304 580.146 169.752 580.374 169.068ZM586.854 170.172V170.016C586.59 170.58 585.966 171.168 584.97 171.168C583.314 171.168 582.306 169.824 582.306 168.12C582.306 166.452 583.362 165.084 584.97 165.084C586.074 165.084 586.638 165.696 586.83 166.176V162.324H587.79V169.92C587.79 170.496 587.826 170.88 587.85 171H586.914C586.89 170.868 586.854 170.544 586.854 170.172ZM585.054 170.304C586.134 170.304 586.854 169.392 586.854 168.12C586.854 166.848 586.146 165.948 585.054 165.948C583.962 165.948 583.266 166.848 583.266 168.12C583.266 169.392 583.974 170.304 585.054 170.304ZM590.275 167.568H593.707C593.683 166.656 593.095 165.936 592.003 165.936C591.007 165.936 590.335 166.716 590.275 167.568ZM593.839 169.068L594.667 169.368C594.343 170.364 593.443 171.168 592.111 171.168C590.575 171.168 589.267 170.04 589.267 168.108C589.267 166.296 590.539 165.084 591.991 165.084C593.731 165.084 594.703 166.296 594.703 168.048C594.703 168.168 594.691 168.3 594.679 168.384H590.251V168.432C590.251 169.524 591.079 170.304 592.111 170.304C593.083 170.304 593.611 169.752 593.839 169.068ZM597.115 167.616V171H596.155V165.252H597.091V166.116C597.463 165.444 598.135 165.084 598.891 165.084C600.271 165.084 600.943 166.068 600.943 167.316V171H599.983V167.46C599.983 166.62 599.599 165.948 598.555 165.948C597.631 165.948 597.115 166.716 597.115 167.616ZM604.074 163.428V165.252H605.43V166.116H604.074V169.296C604.074 169.896 604.338 170.196 604.95 170.196C605.118 170.196 605.334 170.16 605.43 170.136V170.952C605.322 170.988 605.046 171.06 604.674 171.06C603.726 171.06 603.114 170.472 603.114 169.428V166.116H601.962V165.252H602.334C602.922 165.252 603.174 164.916 603.174 164.376V163.428H604.074ZM607.709 171H606.749V165.252H607.709V171ZM606.509 162.984C606.509 162.588 606.833 162.264 607.229 162.264C607.625 162.264 607.949 162.588 607.949 162.984C607.949 163.38 607.625 163.704 607.229 163.704C606.833 163.704 606.509 163.38 606.509 162.984ZM609.176 169.476C609.176 168.468 609.884 167.904 610.892 167.76L612.44 167.532C612.86 167.472 612.956 167.292 612.956 167.04C612.956 166.392 612.524 165.9 611.624 165.9C610.784 165.9 610.28 166.404 610.196 167.136L609.284 166.92C609.404 165.828 610.364 165.084 611.6 165.084C613.232 165.084 613.916 166.02 613.916 167.136V170.04C613.916 170.52 613.952 170.82 613.988 171H613.052C613.028 170.868 612.98 170.58 612.98 170.136C612.728 170.604 612.104 171.168 611.072 171.168C609.884 171.168 609.176 170.352 609.176 169.476ZM611.192 170.352C612.188 170.352 612.956 169.8 612.956 168.576V168.192L611.084 168.468C610.532 168.552 610.136 168.864 610.136 169.428C610.136 169.896 610.532 170.352 611.192 170.352ZM616.685 171H615.725V162.324H616.685V171ZM618.093 169.488L618.957 169.188C619.041 169.848 619.533 170.352 620.397 170.352C621.081 170.352 621.513 169.968 621.513 169.476C621.513 169.044 621.165 168.756 620.637 168.636L619.701 168.42C618.825 168.216 618.273 167.652 618.273 166.824C618.273 165.864 619.185 165.084 620.277 165.084C621.765 165.084 622.281 166.032 622.413 166.62L621.561 166.932C621.489 166.536 621.189 165.9 620.277 165.9C619.677 165.9 619.209 166.284 619.209 166.764C619.209 167.172 619.461 167.424 619.965 167.544L620.901 167.76C621.909 167.988 622.461 168.576 622.461 169.428C622.461 170.256 621.753 171.168 620.385 171.168C618.873 171.168 618.189 170.208 618.093 169.488Z"
    fill="#CCCCCC" />
  <path
    d="M457 211C457 208.791 458.791 207 461 207H702C704.209 207 706 208.791 706 211V253C706 255.209 704.209 257 702 257H461C458.791 257 457 255.209 457 253V211Z"
    fill="#020202" />
  <path
    d="M702 206.5H461C458.515 206.5 456.5 208.515 456.5 211V253C456.5 255.485 458.515 257.5 461 257.5H702C704.485 257.5 706.5 255.485 706.5 253V211C706.5 208.515 704.485 206.5 702 206.5Z"
    stroke="#B0B0B0" stroke-opacity="0.6" />
  <path
    d="M463 217C463 214.791 464.791 213 467 213H497C499.209 213 501 214.791 501 217V247C501 249.209 499.209 251 497 251H467C464.791 251 463 249.209 463 247V217Z"
    fill="url(#paint4_radial_658_3467)" />
  <path
    d="M482 238.75C478.272 238.75 475.25 235.728 475.25 232C475.25 228.272 478.272 225.25 482 225.25C485.728 225.25 488.75 228.272 488.75 232C488.75 235.728 485.728 238.75 482 238.75ZM481.327 234.7L486.099 229.927L485.145 228.973L481.327 232.791L479.417 230.882L478.463 231.836L481.327 234.7Z"
    fill="#FEFEFE" />
  <path
    d="M520.378 228H514.246V218.074H520.378V219.642H515.926V222.274H519.958V223.8H515.926V226.432H520.378V228ZM523.671 224.066V228H522.047V221.182H523.629V222.092C524.077 221.308 524.889 220.986 525.645 220.986C527.311 220.986 528.109 222.19 528.109 223.688V228H526.485V223.968C526.485 223.128 526.107 222.456 525.085 222.456C524.161 222.456 523.671 223.17 523.671 224.066ZM529.639 226.152C529.639 224.934 530.535 224.262 531.697 224.094L533.447 223.828C533.839 223.772 533.951 223.576 533.951 223.338C533.951 222.764 533.559 222.302 532.663 222.302C531.809 222.302 531.333 222.848 531.263 223.534L529.779 223.198C529.905 222.022 530.969 220.972 532.649 220.972C534.749 220.972 535.547 222.162 535.547 223.52V226.908C535.547 227.524 535.617 227.93 535.631 228H534.119C534.105 227.958 534.049 227.678 534.049 227.132C533.727 227.65 533.055 228.21 531.949 228.21C530.521 228.21 529.639 227.23 529.639 226.152ZM532.257 226.936C533.167 226.936 533.951 226.502 533.951 225.172V224.864L532.173 225.13C531.669 225.214 531.263 225.494 531.263 226.054C531.263 226.516 531.613 226.936 532.257 226.936ZM539.092 228H537.51V217.864H539.106V222.022C539.414 221.49 540.198 221 541.248 221C543.292 221 544.398 222.554 544.398 224.556C544.398 226.614 543.18 228.168 541.192 228.168C540.226 228.168 539.484 227.748 539.092 227.09V228ZM542.76 224.57C542.76 223.212 542.004 222.442 540.926 222.442C539.89 222.442 539.092 223.212 539.092 224.57C539.092 225.914 539.89 226.726 540.926 226.726C541.99 226.726 542.76 225.914 542.76 224.57ZM547.624 228H546V217.864H547.624V228ZM550.869 223.842H554.215C554.187 223.044 553.655 222.33 552.535 222.33C551.513 222.33 550.925 223.114 550.869 223.842ZM554.397 225.62L555.769 226.054C555.405 227.244 554.327 228.21 552.689 228.21C550.841 228.21 549.203 226.866 549.203 224.556C549.203 222.4 550.799 220.972 552.521 220.972C554.621 220.972 555.853 222.358 555.853 224.514C555.853 224.78 555.825 225.004 555.811 225.032H550.827C550.869 226.068 551.681 226.81 552.689 226.81C553.669 226.81 554.173 226.292 554.397 225.62ZM562.445 228H560.821V217.864H562.445V228ZM567.551 226.754C568.559 226.754 569.455 226.012 569.455 224.584C569.455 223.17 568.559 222.442 567.551 222.442C566.557 222.442 565.647 223.17 565.647 224.584C565.647 225.998 566.557 226.754 567.551 226.754ZM567.551 220.972C569.595 220.972 571.093 222.498 571.093 224.584C571.093 226.684 569.595 228.21 567.551 228.21C565.521 228.21 564.023 226.684 564.023 224.584C564.023 222.498 565.521 220.972 567.551 220.972ZM572.24 228.378L573.738 227.986C573.85 228.826 574.508 229.456 575.446 229.456C576.734 229.456 577.378 228.798 577.378 227.412V226.698C577.084 227.23 576.398 227.692 575.404 227.692C573.584 227.692 572.254 226.292 572.254 224.374C572.254 222.554 573.528 221.056 575.404 221.056C576.468 221.056 577.126 221.49 577.42 222.05V221.182H578.988V227.356C578.988 229.176 578.05 230.87 575.488 230.87C573.682 230.87 572.422 229.75 572.24 228.378ZM575.67 226.306C576.706 226.306 577.42 225.55 577.42 224.374C577.42 223.212 576.678 222.456 575.67 222.456C574.634 222.456 573.892 223.212 573.892 224.374C573.892 225.564 574.606 226.306 575.67 226.306ZM582.61 228H581V221.182H582.61V228ZM580.748 218.788C580.748 218.2 581.224 217.724 581.798 217.724C582.386 217.724 582.862 218.2 582.862 218.788C582.862 219.376 582.386 219.838 581.798 219.838C581.224 219.838 580.748 219.376 580.748 218.788ZM587.689 222.47C586.695 222.47 585.813 223.212 585.813 224.584C585.813 225.956 586.695 226.726 587.717 226.726C588.781 226.726 589.271 225.984 589.425 225.466L590.853 225.984C590.531 227.048 589.509 228.21 587.717 228.21C585.715 228.21 584.189 226.656 584.189 224.584C584.189 222.484 585.715 220.972 587.675 220.972C589.509 220.972 590.517 222.12 590.797 223.212L589.341 223.744C589.187 223.142 588.725 222.47 587.689 222.47ZM591.887 226.152C591.887 224.934 592.783 224.262 593.945 224.094L595.695 223.828C596.087 223.772 596.199 223.576 596.199 223.338C596.199 222.764 595.807 222.302 594.911 222.302C594.057 222.302 593.581 222.848 593.511 223.534L592.027 223.198C592.153 222.022 593.217 220.972 594.897 220.972C596.997 220.972 597.795 222.162 597.795 223.52V226.908C597.795 227.524 597.865 227.93 597.879 228H596.367C596.353 227.958 596.297 227.678 596.297 227.132C595.975 227.65 595.303 228.21 594.197 228.21C592.769 228.21 591.887 227.23 591.887 226.152ZM594.505 226.936C595.415 226.936 596.199 226.502 596.199 225.172V224.864L594.421 225.13C593.917 225.214 593.511 225.494 593.511 226.054C593.511 226.516 593.861 226.936 594.505 226.936ZM601.382 228H599.758V217.864H601.382V228ZM610.775 221.14V222.792C610.593 222.764 610.411 222.75 610.243 222.75C608.983 222.75 608.409 223.478 608.409 224.752V228H606.785V221.182H608.367V222.274C608.689 221.532 609.445 221.098 610.341 221.098C610.537 221.098 610.705 221.126 610.775 221.14ZM613.199 223.842H616.545C616.517 223.044 615.985 222.33 614.865 222.33C613.843 222.33 613.255 223.114 613.199 223.842ZM616.727 225.62L618.099 226.054C617.735 227.244 616.657 228.21 615.019 228.21C613.171 228.21 611.533 226.866 611.533 224.556C611.533 222.4 613.129 220.972 614.851 220.972C616.951 220.972 618.183 222.358 618.183 224.514C618.183 224.78 618.155 225.004 618.141 225.032H613.157C613.199 226.068 614.011 226.81 615.019 226.81C615.999 226.81 616.503 226.292 616.727 225.62ZM621.37 230.66H619.76V221.182H621.328V222.106C621.664 221.518 622.448 221.028 623.498 221.028C625.514 221.028 626.648 222.568 626.648 224.584C626.648 226.628 625.402 228.168 623.442 228.168C622.462 228.168 621.72 227.748 621.37 227.23V230.66ZM625.024 224.584C625.024 223.31 624.282 222.47 623.19 222.47C622.126 222.47 621.356 223.31 621.356 224.584C621.356 225.886 622.126 226.726 623.19 226.726C624.268 226.726 625.024 225.886 625.024 224.584ZM629.874 228H628.25V217.864H629.874V228ZM633.497 228H631.887V221.182H633.497V228ZM631.635 218.788C631.635 218.2 632.111 217.724 632.685 217.724C633.273 217.724 633.749 218.2 633.749 218.788C633.749 219.376 633.273 219.838 632.685 219.838C632.111 219.838 631.635 219.376 631.635 218.788ZM638.576 222.47C637.582 222.47 636.7 223.212 636.7 224.584C636.7 225.956 637.582 226.726 638.604 226.726C639.668 226.726 640.158 225.984 640.312 225.466L641.74 225.984C641.418 227.048 640.396 228.21 638.604 228.21C636.602 228.21 635.076 226.656 635.076 224.584C635.076 222.484 636.602 220.972 638.562 220.972C640.396 220.972 641.404 222.12 641.684 223.212L640.228 223.744C640.074 223.142 639.612 222.47 638.576 222.47ZM642.774 226.152C642.774 224.934 643.67 224.262 644.832 224.094L646.582 223.828C646.974 223.772 647.086 223.576 647.086 223.338C647.086 222.764 646.694 222.302 645.798 222.302C644.944 222.302 644.468 222.848 644.398 223.534L642.914 223.198C643.04 222.022 644.104 220.972 645.784 220.972C647.884 220.972 648.682 222.162 648.682 223.52V226.908C648.682 227.524 648.752 227.93 648.766 228H647.254C647.24 227.958 647.184 227.678 647.184 227.132C646.862 227.65 646.19 228.21 645.084 228.21C643.656 228.21 642.774 227.23 642.774 226.152ZM645.392 226.936C646.302 226.936 647.086 226.502 647.086 225.172V224.864L645.308 225.13C644.804 225.214 644.398 225.494 644.398 226.054C644.398 226.516 644.748 226.936 645.392 226.936ZM652.732 219.096V221.182H654.146V222.624H652.732V225.788C652.732 226.39 652.998 226.642 653.6 226.642C653.824 226.642 654.09 226.6 654.16 226.586V227.93C654.062 227.972 653.754 228.084 653.166 228.084C651.906 228.084 651.122 227.328 651.122 226.054V222.624H649.862V221.182H650.212C650.94 221.182 651.262 220.72 651.262 220.118V219.096H652.732ZM657.313 228H655.703V221.182H657.313V228ZM655.451 218.788C655.451 218.2 655.927 217.724 656.501 217.724C657.089 217.724 657.565 218.2 657.565 218.788C657.565 219.376 657.089 219.838 656.501 219.838C655.927 219.838 655.451 219.376 655.451 218.788ZM662.42 226.754C663.428 226.754 664.324 226.012 664.324 224.584C664.324 223.17 663.428 222.442 662.42 222.442C661.426 222.442 660.516 223.17 660.516 224.584C660.516 225.998 661.426 226.754 662.42 226.754ZM662.42 220.972C664.464 220.972 665.962 222.498 665.962 224.584C665.962 226.684 664.464 228.21 662.42 228.21C660.39 228.21 658.892 226.684 658.892 224.584C658.892 222.498 660.39 220.972 662.42 220.972ZM669.167 224.066V228H667.543V221.182H669.125V222.092C669.573 221.308 670.385 220.986 671.141 220.986C672.807 220.986 673.605 222.19 673.605 223.688V228H671.981V223.968C671.981 223.128 671.603 222.456 670.581 222.456C669.657 222.456 669.167 223.17 669.167 224.066Z"
    fill="#F6F6F6" />
  <path
    d="M517.788 247.168C515.628 247.168 513.6 245.584 513.6 242.74C513.6 239.896 515.688 238.324 517.788 238.324C519.72 238.324 521.088 239.392 521.508 241.024L520.572 241.348C520.248 240.016 519.24 239.248 517.788 239.248C516.168 239.248 514.608 240.436 514.608 242.74C514.608 245.056 516.168 246.244 517.788 246.244C519.3 246.244 520.284 245.332 520.632 244.108L521.52 244.432C521.088 246.028 519.732 247.168 517.788 247.168ZM525.373 241.084C527.029 241.084 528.253 242.356 528.253 244.12C528.253 245.896 527.029 247.168 525.373 247.168C523.717 247.168 522.493 245.896 522.493 244.12C522.493 242.356 523.717 241.084 525.373 241.084ZM525.373 241.948C524.341 241.948 523.453 242.728 523.453 244.12C523.453 245.524 524.341 246.304 525.373 246.304C526.405 246.304 527.293 245.524 527.293 244.12C527.293 242.728 526.405 241.948 525.373 241.948ZM532.817 241.216V242.236C532.661 242.188 532.481 242.176 532.313 242.176C531.353 242.176 530.693 242.728 530.693 244.024V247H529.733V241.252H530.669V242.284C531.041 241.444 531.773 241.168 532.409 241.168C532.565 241.168 532.733 241.192 532.817 241.216ZM537.036 241.216V242.236C536.88 242.188 536.7 242.176 536.532 242.176C535.572 242.176 534.912 242.728 534.912 244.024V247H533.952V241.252H534.888V242.284C535.26 241.444 535.992 241.168 536.628 241.168C536.784 241.168 536.952 241.192 537.036 241.216ZM538.653 243.568H542.085C542.061 242.656 541.473 241.936 540.381 241.936C539.385 241.936 538.713 242.716 538.653 243.568ZM542.217 245.068L543.045 245.368C542.721 246.364 541.821 247.168 540.489 247.168C538.953 247.168 537.645 246.04 537.645 244.108C537.645 242.296 538.917 241.084 540.369 241.084C542.109 241.084 543.081 242.296 543.081 244.048C543.081 244.168 543.069 244.3 543.057 244.384H538.629V244.432C538.629 245.524 539.457 246.304 540.489 246.304C541.461 246.304 541.989 245.752 542.217 245.068ZM546.982 241.948C545.974 241.948 545.098 242.728 545.098 244.12C545.098 245.5 545.974 246.304 546.994 246.304C548.086 246.304 548.542 245.536 548.71 245.008L549.55 245.38C549.274 246.232 548.47 247.168 546.994 247.168C545.338 247.168 544.138 245.872 544.138 244.12C544.138 242.332 545.362 241.084 546.982 241.084C548.458 241.084 549.262 241.984 549.502 242.896L548.638 243.268C548.482 242.656 548.014 241.948 546.982 241.948ZM552.312 239.428V241.252H553.668V242.116H552.312V245.296C552.312 245.896 552.576 246.196 553.188 246.196C553.356 246.196 553.572 246.16 553.668 246.136V246.952C553.56 246.988 553.284 247.06 552.912 247.06C551.964 247.06 551.352 246.472 551.352 245.428V242.116H550.2V241.252H550.572C551.16 241.252 551.412 240.916 551.412 240.376V239.428H552.312ZM555.947 247H554.987V238.324H555.947V247ZM559.287 249.28H558.219L559.611 246.316L557.139 241.252H558.243L560.139 245.32L561.927 241.252H562.971L559.287 249.28ZM569.562 242.116H568.074V247H567.114V242.116H565.986V241.252H567.114V240.184C567.114 238.924 567.906 238.264 568.926 238.264C569.274 238.264 569.502 238.336 569.586 238.384V239.212C569.502 239.176 569.346 239.128 569.07 239.128C568.602 239.128 568.074 239.38 568.074 240.208V241.252H569.562V242.116ZM573.08 241.084C574.736 241.084 575.96 242.356 575.96 244.12C575.96 245.896 574.736 247.168 573.08 247.168C571.424 247.168 570.2 245.896 570.2 244.12C570.2 242.356 571.424 241.084 573.08 241.084ZM573.08 241.948C572.048 241.948 571.16 242.728 571.16 244.12C571.16 245.524 572.048 246.304 573.08 246.304C574.112 246.304 575 245.524 575 244.12C575 242.728 574.112 241.948 573.08 241.948ZM580.524 241.216V242.236C580.368 242.188 580.188 242.176 580.02 242.176C579.06 242.176 578.4 242.728 578.4 244.024V247H577.44V241.252H578.376V242.284C578.748 241.444 579.48 241.168 580.116 241.168C580.272 241.168 580.44 241.192 580.524 241.216ZM582.595 241.252V242.068C582.919 241.468 583.615 241.084 584.359 241.084C585.151 241.084 585.835 241.504 586.123 242.26C586.531 241.444 587.251 241.084 588.067 241.084C589.111 241.084 590.047 241.804 590.047 243.244V247H589.087V243.352C589.087 242.56 588.667 241.948 587.767 241.948C586.915 241.948 586.339 242.644 586.339 243.508V247H585.379V243.352C585.379 242.56 584.959 241.948 584.047 241.948C583.183 241.948 582.619 242.62 582.619 243.52V247H581.659V241.252H582.595ZM591.434 245.476C591.434 244.468 592.142 243.904 593.15 243.76L594.698 243.532C595.118 243.472 595.214 243.292 595.214 243.04C595.214 242.392 594.782 241.9 593.882 241.9C593.042 241.9 592.538 242.404 592.454 243.136L591.542 242.92C591.662 241.828 592.622 241.084 593.858 241.084C595.49 241.084 596.174 242.02 596.174 243.136V246.04C596.174 246.52 596.21 246.82 596.246 247H595.31C595.286 246.868 595.238 246.58 595.238 246.136C594.986 246.604 594.362 247.168 593.33 247.168C592.142 247.168 591.434 246.352 591.434 245.476ZM593.45 246.352C594.446 246.352 595.214 245.8 595.214 244.576V244.192L593.342 244.468C592.79 244.552 592.394 244.864 592.394 245.428C592.394 245.896 592.79 246.352 593.45 246.352ZM599.328 239.428V241.252H600.684V242.116H599.328V245.296C599.328 245.896 599.592 246.196 600.204 246.196C600.372 246.196 600.588 246.16 600.684 246.136V246.952C600.576 246.988 600.3 247.06 599.928 247.06C598.98 247.06 598.368 246.472 598.368 245.428V242.116H597.216V241.252H597.588C598.176 241.252 598.428 240.916 598.428 240.376V239.428H599.328ZM610.689 238.492L612.837 245.452L614.865 238.492H615.897L613.377 247H612.357L610.137 239.86L607.917 247H606.897L604.377 238.492H605.409L607.437 245.452L609.585 238.492H610.689ZM622.726 247L621.754 244.516H617.854L616.906 247H615.814L619.222 238.492H620.398L623.818 247H622.726ZM619.798 239.524L618.214 243.592H621.394L619.798 239.524ZM630.359 247H625.223V238.492H626.231V246.076H630.359V247Z"
    fill="#CCCCCC" />
  <path
    d="M457 287C457 284.791 458.791 283 461 283H702C704.209 283 706 284.791 706 287V329C706 331.209 704.209 333 702 333H461C458.791 333 457 331.209 457 329V287Z"
    fill="#020202" />
  <path
    d="M702 282.5H461C458.515 282.5 456.5 284.515 456.5 287V329C456.5 331.485 458.515 333.5 461 333.5H702C704.485 333.5 706.5 331.485 706.5 329V287C706.5 284.515 704.485 282.5 702 282.5Z"
    stroke="#B0B0B0" stroke-opacity="0.6" />
  <path
    d="M463 293C463 290.791 464.791 289 467 289H497C499.209 289 501 290.791 501 293V323C501 325.209 499.209 327 497 327H467C464.791 327 463 325.209 463 323V293Z"
    fill="url(#paint5_radial_658_3467)" />
  <path
    d="M482 314.75C478.272 314.75 475.25 311.728 475.25 308C475.25 304.272 478.272 301.25 482 301.25C485.728 301.25 488.75 304.272 488.75 308C488.75 311.728 485.728 314.75 482 314.75ZM481.327 310.7L486.099 305.927L485.145 304.973L481.327 308.791L479.417 306.882L478.463 307.836L481.327 310.7Z"
    fill="#FEFEFE" />
  <path
    d="M518.628 304.21C515.954 304.21 513.616 302.278 513.616 299.044C513.616 295.81 516.038 293.864 518.614 293.864C521.134 293.864 522.632 295.348 523.08 297.084L521.498 297.616C521.204 296.412 520.28 295.446 518.614 295.446C516.976 295.446 515.338 296.636 515.338 299.044C515.338 301.368 516.934 302.6 518.628 302.6C520.294 302.6 521.246 301.536 521.582 300.416L523.122 300.92C522.674 302.6 521.162 304.21 518.628 304.21ZM527.616 302.754C528.624 302.754 529.52 302.012 529.52 300.584C529.52 299.17 528.624 298.442 527.616 298.442C526.622 298.442 525.712 299.17 525.712 300.584C525.712 301.998 526.622 302.754 527.616 302.754ZM527.616 296.972C529.66 296.972 531.158 298.498 531.158 300.584C531.158 302.684 529.66 304.21 527.616 304.21C525.586 304.21 524.088 302.684 524.088 300.584C524.088 298.498 525.586 296.972 527.616 296.972ZM534.362 300.066V304H532.738V297.182H534.32V298.092C534.768 297.308 535.58 296.986 536.336 296.986C538.002 296.986 538.8 298.19 538.8 299.688V304H537.176V299.968C537.176 299.128 536.798 298.456 535.776 298.456C534.852 298.456 534.362 299.17 534.362 300.066ZM542.374 300.066V304H540.75V297.182H542.332V298.092C542.78 297.308 543.592 296.986 544.348 296.986C546.014 296.986 546.812 298.19 546.812 299.688V304H545.188V299.968C545.188 299.128 544.81 298.456 543.788 298.456C542.864 298.456 542.374 299.17 542.374 300.066ZM549.994 299.842H553.34C553.312 299.044 552.78 298.33 551.66 298.33C550.638 298.33 550.05 299.114 549.994 299.842ZM553.522 301.62L554.894 302.054C554.53 303.244 553.452 304.21 551.814 304.21C549.966 304.21 548.328 302.866 548.328 300.556C548.328 298.4 549.924 296.972 551.646 296.972C553.746 296.972 554.978 298.358 554.978 300.514C554.978 300.78 554.95 301.004 554.936 301.032H549.952C549.994 302.068 550.806 302.81 551.814 302.81C552.794 302.81 553.298 302.292 553.522 301.62ZM559.621 298.47C558.627 298.47 557.745 299.212 557.745 300.584C557.745 301.956 558.627 302.726 559.649 302.726C560.713 302.726 561.203 301.984 561.357 301.466L562.785 301.984C562.463 303.048 561.441 304.21 559.649 304.21C557.647 304.21 556.121 302.656 556.121 300.584C556.121 298.484 557.647 296.972 559.607 296.972C561.441 296.972 562.449 298.12 562.729 299.212L561.273 299.744C561.119 299.142 560.657 298.47 559.621 298.47ZM566.38 295.096V297.182H567.794V298.624H566.38V301.788C566.38 302.39 566.646 302.642 567.248 302.642C567.472 302.642 567.738 302.6 567.808 302.586V303.93C567.71 303.972 567.402 304.084 566.814 304.084C565.554 304.084 564.77 303.328 564.77 302.054V298.624H563.51V297.182H563.86C564.588 297.182 564.91 296.72 564.91 296.118V295.096H566.38Z"
    fill="#F6F6F6" />
  <path
    d="M517.788 323.168C515.628 323.168 513.6 321.584 513.6 318.74C513.6 315.896 515.688 314.324 517.788 314.324C519.72 314.324 521.088 315.392 521.508 317.024L520.572 317.348C520.248 316.016 519.24 315.248 517.788 315.248C516.168 315.248 514.608 316.436 514.608 318.74C514.608 321.056 516.168 322.244 517.788 322.244C519.3 322.244 520.284 321.332 520.632 320.108L521.52 320.432C521.088 322.028 519.732 323.168 517.788 323.168ZM525.373 317.084C527.029 317.084 528.253 318.356 528.253 320.12C528.253 321.896 527.029 323.168 525.373 323.168C523.717 323.168 522.493 321.896 522.493 320.12C522.493 318.356 523.717 317.084 525.373 317.084ZM525.373 317.948C524.341 317.948 523.453 318.728 523.453 320.12C523.453 321.524 524.341 322.304 525.373 322.304C526.405 322.304 527.293 321.524 527.293 320.12C527.293 318.728 526.405 317.948 525.373 317.948ZM530.693 319.616V323H529.733V317.252H530.669V318.116C531.041 317.444 531.713 317.084 532.469 317.084C533.849 317.084 534.521 318.068 534.521 319.316V323H533.561V319.46C533.561 318.62 533.177 317.948 532.133 317.948C531.209 317.948 530.693 318.716 530.693 319.616ZM537.279 319.616V323H536.319V317.252H537.255V318.116C537.627 317.444 538.299 317.084 539.055 317.084C540.435 317.084 541.107 318.068 541.107 319.316V323H540.147V319.46C540.147 318.62 539.763 317.948 538.719 317.948C537.795 317.948 537.279 318.716 537.279 319.616ZM543.517 319.568H546.949C546.925 318.656 546.337 317.936 545.245 317.936C544.249 317.936 543.577 318.716 543.517 319.568ZM547.081 321.068L547.909 321.368C547.585 322.364 546.685 323.168 545.353 323.168C543.817 323.168 542.509 322.04 542.509 320.108C542.509 318.296 543.781 317.084 545.233 317.084C546.973 317.084 547.945 318.296 547.945 320.048C547.945 320.168 547.933 320.3 547.921 320.384H543.493V320.432C543.493 321.524 544.321 322.304 545.353 322.304C546.325 322.304 546.853 321.752 547.081 321.068ZM551.845 317.948C550.837 317.948 549.961 318.728 549.961 320.12C549.961 321.5 550.837 322.304 551.857 322.304C552.949 322.304 553.405 321.536 553.573 321.008L554.413 321.38C554.137 322.232 553.333 323.168 551.857 323.168C550.201 323.168 549.001 321.872 549.001 320.12C549.001 318.332 550.225 317.084 551.845 317.084C553.321 317.084 554.125 317.984 554.365 318.896L553.501 319.268C553.345 318.656 552.877 317.948 551.845 317.948ZM557.176 315.428V317.252H558.532V318.116H557.176V321.296C557.176 321.896 557.44 322.196 558.052 322.196C558.22 322.196 558.436 322.16 558.532 322.136V322.952C558.424 322.988 558.148 323.06 557.776 323.06C556.828 323.06 556.216 322.472 556.216 321.428V318.116H555.064V317.252H555.436C556.024 317.252 556.276 316.916 556.276 316.376V315.428H557.176ZM564.056 325.28H562.988L564.38 322.316L561.908 317.252H563.012L564.908 321.32L566.696 317.252H567.74L564.056 325.28ZM571.182 317.084C572.838 317.084 574.062 318.356 574.062 320.12C574.062 321.896 572.838 323.168 571.182 323.168C569.526 323.168 568.302 321.896 568.302 320.12C568.302 318.356 569.526 317.084 571.182 317.084ZM571.182 317.948C570.15 317.948 569.262 318.728 569.262 320.12C569.262 321.524 570.15 322.304 571.182 322.304C572.214 322.304 573.102 321.524 573.102 320.12C573.102 318.728 572.214 317.948 571.182 317.948ZM579.357 322.22C579.081 322.808 578.385 323.168 577.629 323.168C576.237 323.168 575.469 322.136 575.469 320.864V317.252H576.429V320.708C576.429 321.548 576.825 322.304 577.845 322.304C578.793 322.304 579.309 321.632 579.309 320.72V317.252H580.269V321.92C580.269 322.364 580.305 322.772 580.341 323H579.417C579.381 322.868 579.357 322.556 579.357 322.268V322.22ZM585.223 317.216V318.236C585.067 318.188 584.887 318.176 584.719 318.176C583.759 318.176 583.099 318.728 583.099 320.024V323H582.139V317.252H583.075V318.284C583.447 317.444 584.179 317.168 584.815 317.168C584.971 317.168 585.139 317.192 585.223 317.216ZM590.395 322.112H592.183C593.839 322.112 595.243 320.996 595.243 318.764C595.243 316.52 593.863 315.38 592.207 315.38H590.395V322.112ZM592.183 323H589.387V314.492H592.207C594.367 314.492 596.251 315.968 596.251 318.764C596.251 321.548 594.343 323 592.183 323ZM598.035 314.492H600.687C602.307 314.492 603.255 315.44 603.255 316.784C603.255 317.696 602.727 318.368 601.971 318.632C602.931 318.872 603.519 319.736 603.519 320.696C603.519 322.04 602.463 323 600.903 323H598.035V314.492ZM599.043 318.272H600.687C601.623 318.272 602.247 317.672 602.247 316.832C602.247 315.944 601.623 315.38 600.555 315.38H599.043V318.272ZM599.043 322.112H600.783C601.815 322.112 602.511 321.536 602.511 320.636C602.511 319.748 601.899 319.136 600.867 319.136H599.043V322.112ZM609.371 315.428V317.252H610.727V318.116H609.371V321.296C609.371 321.896 609.635 322.196 610.247 322.196C610.415 322.196 610.631 322.16 610.727 322.136V322.952C610.619 322.988 610.343 323.06 609.971 323.06C609.023 323.06 608.411 322.472 608.411 321.428V318.116H607.259V317.252H607.631C608.219 317.252 608.471 316.916 608.471 316.376V315.428H609.371ZM614.529 317.084C616.185 317.084 617.409 318.356 617.409 320.12C617.409 321.896 616.185 323.168 614.529 323.168C612.873 323.168 611.649 321.896 611.649 320.12C611.649 318.356 612.873 317.084 614.529 317.084ZM614.529 317.948C613.497 317.948 612.609 318.728 612.609 320.12C612.609 321.524 613.497 322.304 614.529 322.304C615.561 322.304 616.449 321.524 616.449 320.12C616.449 318.728 615.561 317.948 614.529 317.948ZM623.196 323H622.188V314.492H623.196V323ZM626.271 319.616V323H625.311V317.252H626.247V318.116C626.619 317.444 627.291 317.084 628.047 317.084C629.427 317.084 630.099 318.068 630.099 319.316V323H629.139V319.46C629.139 318.62 628.755 317.948 627.711 317.948C626.787 317.948 626.271 318.716 626.271 319.616ZM632.857 319.616V323H631.897V317.252H632.833V318.116C633.205 317.444 633.877 317.084 634.633 317.084C636.013 317.084 636.685 318.068 636.685 319.316V323H635.725V319.46C635.725 318.62 635.341 317.948 634.297 317.948C633.373 317.948 632.857 318.716 632.857 319.616ZM638.087 323.324L639.011 323.096C639.107 323.936 639.743 324.584 640.679 324.584C642.023 324.584 642.515 323.792 642.515 322.604V321.68C642.251 322.232 641.627 322.748 640.691 322.748C639.167 322.748 638.099 321.536 638.099 319.928C638.099 318.32 639.155 317.084 640.715 317.084C641.615 317.084 642.239 317.504 642.527 318.068V317.252H643.475V322.568C643.475 323.984 642.827 325.448 640.679 325.448C639.263 325.448 638.231 324.536 638.087 323.324ZM642.563 319.916C642.563 318.728 641.855 317.948 640.811 317.948C639.767 317.948 639.059 318.728 639.059 319.916C639.059 321.104 639.767 321.884 640.811 321.884C641.855 321.884 642.563 321.104 642.563 319.916ZM645.962 319.568H649.394C649.37 318.656 648.782 317.936 647.69 317.936C646.694 317.936 646.022 318.716 645.962 319.568ZM649.526 321.068L650.354 321.368C650.03 322.364 649.13 323.168 647.798 323.168C646.262 323.168 644.954 322.04 644.954 320.108C644.954 318.296 646.226 317.084 647.678 317.084C649.418 317.084 650.39 318.296 650.39 320.048C650.39 320.168 650.378 320.3 650.366 320.384H645.938V320.432C645.938 321.524 646.766 322.304 647.798 322.304C648.77 322.304 649.298 321.752 649.526 321.068ZM651.374 321.488L652.238 321.188C652.322 321.848 652.814 322.352 653.678 322.352C654.362 322.352 654.794 321.968 654.794 321.476C654.794 321.044 654.446 320.756 653.918 320.636L652.982 320.42C652.106 320.216 651.554 319.652 651.554 318.824C651.554 317.864 652.466 317.084 653.558 317.084C655.046 317.084 655.562 318.032 655.694 318.62L654.842 318.932C654.77 318.536 654.47 317.9 653.558 317.9C652.958 317.9 652.49 318.284 652.49 318.764C652.49 319.172 652.742 319.424 653.246 319.544L654.182 319.76C655.19 319.988 655.742 320.576 655.742 321.428C655.742 322.256 655.034 323.168 653.666 323.168C652.154 323.168 651.47 322.208 651.374 321.488ZM658.613 315.428V317.252H659.969V318.116H658.613V321.296C658.613 321.896 658.877 322.196 659.489 322.196C659.657 322.196 659.873 322.16 659.969 322.136V322.952C659.861 322.988 659.585 323.06 659.213 323.06C658.265 323.06 657.653 322.472 657.653 321.428V318.116H656.501V317.252H656.873C657.461 317.252 657.713 316.916 657.713 316.376V315.428H658.613Z"
    fill="#CCCCCC" />
  <defs>
    <filter id="filter0_dd_658_3467" x="100" y="158" width="238" height="154"
      filterUnits="userSpaceOnUse" color-interpolation-filters="sRGB">
      <feFlood flood-opacity="0" result="BackgroundImageFix" />
      <feColorMatrix in="SourceAlpha" type="matrix"
        values="0 0 0 0 0 0 0 0 0 0 0 0 0 0 0 0 0 0 127 0" result="hardAlpha" />
      <feOffset dy="1" />
      <feGaussianBlur stdDeviation="1" />
      <feComposite in2="hardAlpha" operator="out" />
      <feColorMatrix type="matrix" values="0 0 0 0 0 0 0 0 0 0 0 0 0 0 0 0 0 0 0.1 0" />
      <feBlend mode="normal" in2="BackgroundImageFix" result="effect1_dropShadow_658_3467" />
      <feColorMatrix in="SourceAlpha" type="matrix"
        values="0 0 0 0 0 0 0 0 0 0 0 0 0 0 0 0 0 0 127 0" result="hardAlpha" />
      <feOffset dy="1" />
      <feGaussianBlur stdDeviation="0.5" />
      <feComposite in2="hardAlpha" operator="out" />
      <feColorMatrix type="matrix" values="0 0 0 0 0 0 0 0 0 0 0 0 0 0 0 0 0 0 0.06 0" />
      <feBlend mode="normal" in2="effect1_dropShadow_658_3467" result="effect2_dropShadow_658_3467" />
      <feBlend mode="normal" in="SourceGraphic" in2="effect2_dropShadow_658_3467" result="shape" />
    </filter>
    <linearGradient id="paint0_linear_658_3467" x1="468.611" y1="231.562" x2="334.807" y2="231.562"
      gradientUnits="userSpaceOnUse">
      <stop stop-color="#FDE68A" />
      <stop offset="0.5" stop-color="#A7F3D0" />
      <stop offset="1" stop-color="#5EEAD4" />
    </linearGradient>
    <linearGradient id="paint1_linear_658_3467" x1="469.364" y1="277.436" x2="334.807" y2="277.436"
      gradientUnits="userSpaceOnUse">
      <stop stop-color="#FDE68A" />
      <stop offset="0.5" stop-color="#A7F3D0" />
      <stop offset="1" stop-color="#5EEAD4" />
    </linearGradient>
    <linearGradient id="paint2_linear_658_3467" x1="469.43" y1="187.962" x2="334.807" y2="187.962"
      gradientUnits="userSpaceOnUse">
      <stop stop-color="#FDE68A" />
      <stop offset="0.5" stop-color="#A7F3D0" />
      <stop offset="1" stop-color="#5EEAD4" />
    </linearGradient>
    <radialGradient id="paint3_radial_658_3467" cx="0" cy="0" r="1" gradientUnits="userSpaceOnUse"
      gradientTransform="translate(482 156) rotate(180) scale(19 464.876)">
      <stop stop-color="#226945" />
      <stop offset="1" stop-color="#2A7148" />
    </radialGradient>
    <radialGradient id="paint4_radial_658_3467" cx="0" cy="0" r="1" gradientUnits="userSpaceOnUse"
      gradientTransform="translate(482 232) rotate(180) scale(19 464.876)">
      <stop stop-color="#226945" />
      <stop offset="1" stop-color="#2A7148" />
    </radialGradient>
    <radialGradient id="paint5_radial_658_3467" cx="0" cy="0" r="1" gradientUnits="userSpaceOnUse"
      gradientTransform="translate(482 308) rotate(180) scale(19 464.876)">
      <stop stop-color="#226945" />
      <stop offset="1" stop-color="#2A7148" />
    </radialGradient>
    <clipPath id="clip0_658_3467">
      <path
        d="M102 167C102 162.582 105.582 159 110 159H328C332.418 159 336 162.582 336 167V301C336 305.418 332.418 309 328 309H110C105.582 309 102 305.418 102 301V167Z"
        fill="white" />
    </clipPath>
  </defs>
</svg>