<svg width="692" height="394" viewBox="0 0 692 394" fill="none" xmlns="http://www.w3.org/2000/svg">
<path d="M80 246H321C322.933 246 324.5 247.567 324.5 249.5V313.5C324.5 315.433 322.933 317 321 317H80C78.067 317 76.5 315.433 76.5 313.5V249.5C76.5 247.567 78.067 246 80 246Z" fill="#020202"/>
<path d="M80 246H321C322.933 246 324.5 247.567 324.5 249.5V313.5C324.5 315.433 322.933 317 321 317H80C78.067 317 76.5 315.433 76.5 313.5V249.5C76.5 247.567 78.067 246 80 246Z" stroke="#B0B0B0"/>
<path d="M96.9055 268.25C96.7387 268.894 96.3628 269.464 95.8369 269.871C95.3111 270.278 94.6649 270.499 94 270.499C93.3351 270.499 92.6889 270.278 92.1631 269.871C91.6372 269.464 91.2613 268.894 91.0945 268.25H87.25V266.75H91.0945C91.2613 266.107 91.6372 265.537 92.1631 265.13C92.6889 264.723 93.3351 264.502 94 264.502C94.6649 264.502 95.3111 264.723 95.8369 265.13C96.3628 265.537 96.7387 266.107 96.9055 266.75H100.75V268.25H96.9055V268.25ZM94 269C94.3978 269 94.7794 268.842 95.0607 268.561C95.342 268.28 95.5 267.898 95.5 267.5C95.5 267.103 95.342 266.721 95.0607 266.44C94.7794 266.158 94.3978 266 94 266C93.6022 266 93.2206 266.158 92.9393 266.44C92.658 266.721 92.5 267.103 92.5 267.5C92.5 267.898 92.658 268.28 92.9393 268.561C93.2206 268.842 93.6022 269 94 269Z" fill="#9B9B9B"/>
<path d="M119.854 264.94L118.118 265.472C118.02 264.926 117.572 264.072 116.312 264.072C115.374 264.072 114.758 264.674 114.758 265.332C114.758 265.878 115.108 266.312 115.836 266.452L117.222 266.718C119.028 267.068 119.994 268.244 119.994 269.644C119.994 271.17 118.72 272.71 116.41 272.71C113.778 272.71 112.616 271.016 112.462 269.602L114.254 269.126C114.338 270.106 115.024 270.988 116.424 270.988C117.46 270.988 118.034 270.47 118.034 269.77C118.034 269.196 117.6 268.748 116.83 268.594L115.444 268.314C113.862 267.992 112.84 266.97 112.84 265.472C112.84 263.708 114.422 262.364 116.298 262.364C118.706 262.364 119.63 263.82 119.854 264.94ZM122.981 268.272H126.061C126.033 267.586 125.585 266.914 124.521 266.914C123.555 266.914 123.023 267.642 122.981 268.272ZM126.243 270.064L127.797 270.526C127.447 271.716 126.355 272.71 124.661 272.71C122.771 272.71 121.105 271.352 121.105 269.028C121.105 266.83 122.729 265.402 124.493 265.402C126.621 265.402 127.895 266.76 127.895 268.972C127.895 269.238 127.867 269.518 127.867 269.546H122.939C122.981 270.456 123.751 271.114 124.675 271.114C125.543 271.114 126.019 270.68 126.243 270.064ZM131.261 268.538V272.5H129.399V265.612H131.205V266.466C131.625 265.752 132.451 265.43 133.193 265.43C134.901 265.43 135.685 266.648 135.685 268.16V272.5H133.823V268.482C133.823 267.712 133.445 267.11 132.549 267.11C131.737 267.11 131.261 267.74 131.261 268.538ZM144.184 262.364V271.254C144.184 271.716 144.212 272.22 144.24 272.5H142.462C142.434 272.36 142.392 272.024 142.392 271.702C142.084 272.248 141.384 272.668 140.46 272.668C138.5 272.668 137.1 271.128 137.1 269.042C137.1 267.026 138.458 265.444 140.404 265.444C141.594 265.444 142.154 265.934 142.35 266.298V262.364H144.184ZM138.976 269.042C138.976 270.274 139.704 271.002 140.684 271.002C141.636 271.002 142.378 270.274 142.378 269.028C142.378 267.796 141.636 267.11 140.684 267.11C139.732 267.11 138.976 267.81 138.976 269.042ZM150.885 268.272H153.965C153.937 267.586 153.489 266.914 152.425 266.914C151.459 266.914 150.927 267.642 150.885 268.272ZM154.147 270.064L155.701 270.526C155.351 271.716 154.259 272.71 152.565 272.71C150.675 272.71 149.009 271.352 149.009 269.028C149.009 266.83 150.633 265.402 152.397 265.402C154.525 265.402 155.799 266.76 155.799 268.972C155.799 269.238 155.771 269.518 155.771 269.546H150.843C150.885 270.456 151.655 271.114 152.579 271.114C153.447 271.114 153.923 270.68 154.147 270.064ZM159.166 272.5H157.304V265.612H159.082V266.452C159.46 265.78 160.342 265.416 161.098 265.416C162.036 265.416 162.792 265.822 163.142 266.564C163.688 265.724 164.416 265.416 165.326 265.416C166.6 265.416 167.818 266.186 167.818 268.034V272.5H166.012V268.412C166.012 267.67 165.648 267.11 164.794 267.11C163.996 267.11 163.52 267.726 163.52 268.468V272.5H161.672V268.412C161.672 267.67 161.294 267.11 160.454 267.11C159.642 267.11 159.166 267.712 159.166 268.468V272.5ZM169.243 270.624C169.243 269.392 170.153 268.706 171.301 268.538L172.995 268.286C173.387 268.23 173.513 268.034 173.513 267.796C173.513 267.306 173.135 266.9 172.351 266.9C171.539 266.9 171.091 267.418 171.035 268.02L169.383 267.67C169.495 266.592 170.489 265.402 172.337 265.402C174.521 265.402 175.333 266.634 175.333 268.02V271.408C175.333 271.772 175.375 272.262 175.417 272.5H173.709C173.667 272.318 173.639 271.94 173.639 271.674C173.289 272.22 172.631 272.696 171.609 272.696C170.139 272.696 169.243 271.702 169.243 270.624ZM172.001 271.31C172.785 271.31 173.513 270.932 173.513 269.714V269.406L171.959 269.644C171.483 269.714 171.105 269.98 171.105 270.512C171.105 270.918 171.399 271.31 172.001 271.31ZM179.044 272.5H177.182V265.612H179.044V272.5ZM176.958 263.358C176.958 262.714 177.476 262.196 178.106 262.196C178.75 262.196 179.254 262.714 179.254 263.358C179.254 263.974 178.75 264.492 178.106 264.492C177.476 264.492 176.958 263.974 176.958 263.358ZM182.804 272.5H180.942V262.364H182.804V272.5Z" fill="#E2E2E2"/>
<path d="M260.152 270.636H262.36V266.616H260.404V265.752H263.32V270.636H265.528V271.5H260.152V270.636ZM261.892 263.736C261.892 263.232 262.288 262.836 262.804 262.836C263.296 262.836 263.692 263.232 263.692 263.736C263.692 264.24 263.296 264.648 262.804 264.648C262.288 264.648 261.892 264.24 261.892 263.736ZM271.439 270.552C271.163 271.152 270.527 271.668 269.471 271.668C267.839 271.668 266.795 270.324 266.795 268.62C266.795 266.952 267.899 265.584 269.519 265.584C270.611 265.584 271.199 266.1 271.415 266.616V262.824H272.375V270.42C272.375 270.996 272.411 271.38 272.435 271.5H271.499C271.475 271.368 271.439 271.044 271.439 270.672V270.552ZM269.615 270.792C270.743 270.792 271.439 269.88 271.439 268.62C271.439 267.36 270.755 266.46 269.615 266.46C268.511 266.46 267.767 267.36 267.767 268.62C267.767 269.88 268.523 270.792 269.615 270.792ZM275.911 270.588C275.911 270.024 276.355 269.592 276.895 269.592C277.447 269.592 277.891 270.024 277.891 270.588C277.891 271.152 277.447 271.572 276.895 271.572C276.355 271.572 275.911 271.152 275.911 270.588ZM275.911 266.556C275.911 265.992 276.355 265.56 276.895 265.56C277.447 265.56 277.891 265.992 277.891 266.556C277.891 267.12 277.447 267.54 276.895 267.54C276.355 267.54 275.911 267.12 275.911 266.556ZM291.105 270.6V265.944H288.897V265.284C290.253 265.284 291.153 264.66 291.201 263.724H292.089V270.6H294.081V271.5H289.053V270.6H291.105ZM296.033 266.388C296.009 266.28 295.997 266.148 295.997 266.04C295.997 264.708 297.029 263.556 298.697 263.556C300.305 263.556 301.265 264.624 301.265 265.908C301.265 266.928 300.629 267.732 299.741 268.296L298.145 269.316C297.677 269.616 297.245 270.024 297.149 270.588H301.337V271.5H295.925C295.949 270.3 296.429 269.34 297.677 268.536L299.069 267.636C299.825 267.144 300.257 266.604 300.257 265.92C300.257 265.152 299.705 264.444 298.673 264.444C297.617 264.444 296.981 265.176 296.981 266.136C296.981 266.268 296.993 266.412 297.017 266.508L296.033 266.388ZM305.988 266.808C307.308 266.808 308.472 267.66 308.472 269.196C308.472 270.516 307.452 271.668 305.7 271.668C304.008 271.668 302.94 270.54 302.832 269.244L303.816 269.052C303.9 270.12 304.728 270.768 305.688 270.768C306.768 270.768 307.476 270.108 307.476 269.22C307.476 268.188 306.768 267.672 305.772 267.672C305.52 267.672 305.28 267.696 305.064 267.756L304.596 266.916L307.008 264.636H303.072V263.724H308.304V264.624L305.988 266.808ZM310.423 266.388C310.399 266.28 310.387 266.148 310.387 266.04C310.387 264.708 311.419 263.556 313.087 263.556C314.695 263.556 315.655 264.624 315.655 265.908C315.655 266.928 315.019 267.732 314.131 268.296L312.535 269.316C312.067 269.616 311.635 270.024 311.539 270.588H315.727V271.5H310.315C310.339 270.3 310.819 269.34 312.067 268.536L313.459 267.636C314.215 267.144 314.647 266.604 314.647 265.92C314.647 265.152 314.095 264.444 313.063 264.444C312.007 264.444 311.371 265.176 311.371 266.136C311.371 266.268 311.383 266.412 311.407 266.508L310.423 266.388Z" fill="#7C7C7C"/>
<path d="M91.462 292.828L90.412 293.206C90.258 292.366 89.6 291.442 88.172 291.428C87.024 291.428 86.114 292.184 86.114 293.192C86.114 293.99 86.632 294.564 87.542 294.76L88.998 295.082C90.594 295.432 91.546 296.426 91.546 297.826C91.546 299.352 90.244 300.696 88.172 300.696C85.876 300.696 84.714 299.198 84.532 297.742L85.638 297.392C85.75 298.568 86.604 299.632 88.172 299.632C89.6 299.632 90.37 298.876 90.37 297.924C90.37 297.112 89.81 296.482 88.76 296.244L87.304 295.922C85.932 295.614 84.938 294.718 84.938 293.262C84.938 291.708 86.366 290.378 88.158 290.378C90.3 290.378 91.21 291.68 91.462 292.828ZM94.0501 296.496H98.0541C98.0261 295.432 97.3401 294.592 96.0661 294.592C94.9041 294.592 94.1201 295.502 94.0501 296.496ZM98.2081 298.246L99.1741 298.596C98.7961 299.758 97.7461 300.696 96.1921 300.696C94.4001 300.696 92.8741 299.38 92.8741 297.126C92.8741 295.012 94.3581 293.598 96.0521 293.598C98.0821 293.598 99.2161 295.012 99.2161 297.056C99.2161 297.196 99.2021 297.35 99.1881 297.448H94.0221V297.504C94.0221 298.778 94.9881 299.688 96.1921 299.688C97.3261 299.688 97.9421 299.044 98.2081 298.246ZM102.03 296.552V300.5H100.91V293.794H102.002V294.802C102.436 294.018 103.22 293.598 104.102 293.598C105.712 293.598 106.496 294.746 106.496 296.202V300.5H105.376V296.37C105.376 295.39 104.928 294.606 103.71 294.606C102.632 294.606 102.03 295.502 102.03 296.552ZM113.452 299.534V299.352C113.144 300.01 112.416 300.696 111.254 300.696C109.322 300.696 108.146 299.128 108.146 297.14C108.146 295.194 109.378 293.598 111.254 293.598C112.542 293.598 113.2 294.312 113.424 294.872V290.378H114.544V299.24C114.544 299.912 114.586 300.36 114.614 300.5H113.522C113.494 300.346 113.452 299.968 113.452 299.534ZM111.352 299.688C112.612 299.688 113.452 298.624 113.452 297.14C113.452 295.656 112.626 294.606 111.352 294.606C110.078 294.606 109.266 295.656 109.266 297.14C109.266 298.624 110.092 299.688 111.352 299.688ZM121.648 291.666V293.794H123.23V294.802H121.648V298.512C121.648 299.212 121.956 299.562 122.67 299.562C122.866 299.562 123.118 299.52 123.23 299.492V300.444C123.104 300.486 122.782 300.57 122.348 300.57C121.242 300.57 120.528 299.884 120.528 298.666V294.802H119.184V293.794H119.618C120.304 293.794 120.598 293.402 120.598 292.772V291.666H121.648ZM127.666 293.598C129.598 293.598 131.026 295.082 131.026 297.14C131.026 299.212 129.598 300.696 127.666 300.696C125.734 300.696 124.306 299.212 124.306 297.14C124.306 295.082 125.734 293.598 127.666 293.598ZM127.666 294.606C126.462 294.606 125.426 295.516 125.426 297.14C125.426 298.778 126.462 299.688 127.666 299.688C128.87 299.688 129.906 298.778 129.906 297.14C129.906 295.516 128.87 294.606 127.666 294.606ZM139.219 293.598C141.151 293.598 142.579 295.082 142.579 297.14C142.579 299.212 141.151 300.696 139.219 300.696C137.287 300.696 135.859 299.212 135.859 297.14C135.859 295.082 137.287 293.598 139.219 293.598ZM139.219 294.606C138.015 294.606 136.979 295.516 136.979 297.14C136.979 298.778 138.015 299.688 139.219 299.688C140.423 299.688 141.459 298.778 141.459 297.14C141.459 295.516 140.423 294.606 139.219 294.606ZM148.757 299.59C148.435 300.276 147.623 300.696 146.741 300.696C145.117 300.696 144.221 299.492 144.221 298.008V293.794H145.341V297.826C145.341 298.806 145.803 299.688 146.993 299.688C148.099 299.688 148.701 298.904 148.701 297.84V293.794H149.821V299.24C149.821 299.758 149.863 300.234 149.905 300.5H148.827C148.785 300.346 148.757 299.982 148.757 299.646V299.59ZM155.6 293.752V294.942C155.418 294.886 155.208 294.872 155.012 294.872C153.892 294.872 153.122 295.516 153.122 297.028V300.5H152.002V293.794H153.094V294.998C153.528 294.018 154.382 293.696 155.124 293.696C155.306 293.696 155.502 293.724 155.6 293.752ZM159.702 298.722C159.702 297.546 160.528 296.888 161.704 296.72L163.51 296.454C164 296.384 164.112 296.174 164.112 295.88C164.112 295.124 163.608 294.55 162.558 294.55C161.578 294.55 160.99 295.138 160.892 295.992L159.828 295.74C159.968 294.466 161.088 293.598 162.53 293.598C164.434 293.598 165.232 294.69 165.232 295.992V299.38C165.232 299.94 165.274 300.29 165.316 300.5H164.224C164.196 300.346 164.14 300.01 164.14 299.492C163.846 300.038 163.118 300.696 161.914 300.696C160.528 300.696 159.702 299.744 159.702 298.722ZM162.054 299.744C163.216 299.744 164.112 299.1 164.112 297.672V297.224L161.928 297.546C161.284 297.644 160.822 298.008 160.822 298.666C160.822 299.212 161.284 299.744 162.054 299.744ZM171.794 299.59C171.472 300.276 170.66 300.696 169.778 300.696C168.154 300.696 167.258 299.492 167.258 298.008V293.794H168.378V297.826C168.378 298.806 168.84 299.688 170.03 299.688C171.136 299.688 171.738 298.904 171.738 297.84V293.794H172.858V299.24C172.858 299.758 172.9 300.234 172.942 300.5H171.864C171.822 300.346 171.794 299.982 171.794 299.646V299.59ZM179.897 299.534V299.352C179.589 300.01 178.861 300.696 177.699 300.696C175.767 300.696 174.591 299.128 174.591 297.14C174.591 295.194 175.823 293.598 177.699 293.598C178.987 293.598 179.645 294.312 179.869 294.872V290.378H180.989V299.24C180.989 299.912 181.031 300.36 181.059 300.5H179.967C179.939 300.346 179.897 299.968 179.897 299.534ZM177.797 299.688C179.057 299.688 179.897 298.624 179.897 297.14C179.897 295.656 179.071 294.606 177.797 294.606C176.523 294.606 175.711 295.656 175.711 297.14C175.711 298.624 176.537 299.688 177.797 299.688ZM184.294 300.5H183.174V293.794H184.294V300.5ZM182.894 291.148C182.894 290.686 183.272 290.308 183.734 290.308C184.196 290.308 184.574 290.686 184.574 291.148C184.574 291.61 184.196 291.988 183.734 291.988C183.272 291.988 182.894 291.61 182.894 291.148ZM187.197 296.496H191.201C191.173 295.432 190.487 294.592 189.213 294.592C188.051 294.592 187.267 295.502 187.197 296.496ZM191.355 298.246L192.321 298.596C191.943 299.758 190.893 300.696 189.339 300.696C187.547 300.696 186.021 299.38 186.021 297.126C186.021 295.012 187.505 293.598 189.199 293.598C191.229 293.598 192.363 295.012 192.363 297.056C192.363 297.196 192.349 297.35 192.335 297.448H187.169V297.504C187.169 298.778 188.135 299.688 189.339 299.688C190.473 299.688 191.089 299.044 191.355 298.246ZM195.177 296.552V300.5H194.057V293.794H195.149V294.802C195.583 294.018 196.367 293.598 197.249 293.598C198.859 293.598 199.643 294.746 199.643 296.202V300.5H198.523V296.37C198.523 295.39 198.075 294.606 196.857 294.606C195.779 294.606 195.177 295.502 195.177 296.552ZM204.596 294.606C203.42 294.606 202.398 295.516 202.398 297.14C202.398 298.75 203.42 299.688 204.61 299.688C205.884 299.688 206.416 298.792 206.612 298.176L207.592 298.61C207.27 299.604 206.332 300.696 204.61 300.696C202.678 300.696 201.278 299.184 201.278 297.14C201.278 295.054 202.706 293.598 204.596 293.598C206.318 293.598 207.256 294.648 207.536 295.712L206.528 296.146C206.346 295.432 205.8 294.606 204.596 294.606ZM209.906 296.496H213.91C213.882 295.432 213.196 294.592 211.922 294.592C210.76 294.592 209.976 295.502 209.906 296.496ZM214.064 298.246L215.03 298.596C214.652 299.758 213.602 300.696 212.048 300.696C210.256 300.696 208.73 299.38 208.73 297.126C208.73 295.012 210.214 293.598 211.908 293.598C213.938 293.598 215.072 295.012 215.072 297.056C215.072 297.196 215.058 297.35 215.044 297.448H209.878V297.504C209.878 298.778 210.844 299.688 212.048 299.688C213.182 299.688 213.798 299.044 214.064 298.246Z" fill="#E2E2E2"/>
<path d="M371 246H612C613.933 246 615.5 247.567 615.5 249.5V313.5C615.5 315.433 613.933 317 612 317H371C369.067 317 367.5 315.433 367.5 313.5V249.5C367.5 247.567 369.067 246 371 246Z" fill="#020202"/>
<path d="M371 246H612C613.933 246 615.5 247.567 615.5 249.5V313.5C615.5 315.433 613.933 317 612 317H371C369.067 317 367.5 315.433 367.5 313.5V249.5C367.5 247.567 369.067 246 371 246Z" stroke="#B0B0B0"/>
<path d="M387.905 268.25C387.739 268.894 387.363 269.464 386.837 269.871C386.311 270.278 385.665 270.499 385 270.499C384.335 270.499 383.689 270.278 383.163 269.871C382.637 269.464 382.261 268.894 382.095 268.25H378.25V266.75H382.095C382.261 266.107 382.637 265.537 383.163 265.13C383.689 264.723 384.335 264.502 385 264.502C385.665 264.502 386.311 264.723 386.837 265.13C387.363 265.537 387.739 266.107 387.905 266.75H391.75V268.25H387.905V268.25ZM385 269C385.398 269 385.779 268.842 386.061 268.561C386.342 268.28 386.5 267.898 386.5 267.5C386.5 267.103 386.342 266.721 386.061 266.44C385.779 266.158 385.398 266 385 266C384.602 266 384.221 266.158 383.939 266.44C383.658 266.721 383.5 267.103 383.5 267.5C383.5 267.898 383.658 268.28 383.939 268.561C384.221 268.842 384.602 269 385 269Z" fill="#9B9B9B"/>
<path d="M413.15 272.5H411.582L411.456 271.366C411.008 272.038 410.028 272.71 408.53 272.71C405.856 272.71 403.574 270.75 403.574 267.544C403.574 264.338 405.968 262.364 408.656 262.364C411.26 262.364 412.702 263.89 413.192 265.416L411.344 266.074C411.092 265.192 410.266 264.17 408.656 264.17C407.158 264.17 405.534 265.192 405.534 267.544C405.534 269.784 407.004 270.946 408.67 270.946C410.504 270.946 411.218 269.714 411.33 269.014H408.194V267.334H413.15V272.5ZM416.36 268.272H419.44C419.412 267.586 418.964 266.914 417.9 266.914C416.934 266.914 416.402 267.642 416.36 268.272ZM419.622 270.064L421.176 270.526C420.826 271.716 419.734 272.71 418.04 272.71C416.15 272.71 414.484 271.352 414.484 269.028C414.484 266.83 416.108 265.402 417.872 265.402C420 265.402 421.274 266.76 421.274 268.972C421.274 269.238 421.246 269.518 421.246 269.546H416.318C416.36 270.456 417.13 271.114 418.053 271.114C418.922 271.114 419.398 270.68 419.622 270.064ZM424.64 268.538V272.5H422.778V265.612H424.584V266.466C425.004 265.752 425.83 265.43 426.572 265.43C428.28 265.43 429.064 266.648 429.064 268.16V272.5H427.202V268.482C427.202 267.712 426.824 267.11 425.928 267.11C425.116 267.11 424.64 267.74 424.64 268.538ZM432.369 268.272H435.449C435.421 267.586 434.973 266.914 433.909 266.914C432.943 266.914 432.411 267.642 432.369 268.272ZM435.631 270.064L437.185 270.526C436.835 271.716 435.743 272.71 434.049 272.71C432.159 272.71 430.493 271.352 430.493 269.028C430.493 266.83 432.117 265.402 433.881 265.402C436.009 265.402 437.283 266.76 437.283 268.972C437.283 269.238 437.255 269.518 437.255 269.546H432.327C432.369 270.456 433.139 271.114 434.063 271.114C434.931 271.114 435.407 270.68 435.631 270.064ZM442.988 265.584V267.46C442.778 267.418 442.596 267.404 442.428 267.404C441.476 267.404 440.65 267.866 440.65 269.35V272.5H438.788V265.612H440.594V266.634C441.014 265.724 441.966 265.556 442.554 265.556C442.708 265.556 442.848 265.57 442.988 265.584ZM443.81 270.624C443.81 269.392 444.72 268.706 445.868 268.538L447.562 268.286C447.954 268.23 448.08 268.034 448.08 267.796C448.08 267.306 447.702 266.9 446.918 266.9C446.106 266.9 445.658 267.418 445.602 268.02L443.95 267.67C444.062 266.592 445.056 265.402 446.904 265.402C449.088 265.402 449.9 266.634 449.9 268.02V271.408C449.9 271.772 449.942 272.262 449.984 272.5H448.276C448.234 272.318 448.206 271.94 448.206 271.674C447.856 272.22 447.198 272.696 446.176 272.696C444.706 272.696 443.81 271.702 443.81 270.624ZM446.568 271.31C447.352 271.31 448.08 270.932 448.08 269.714V269.406L446.526 269.644C446.05 269.714 445.672 269.98 445.672 270.512C445.672 270.918 445.966 271.31 446.568 271.31ZM454.116 263.554V265.612H455.502V267.264H454.116V270.148C454.116 270.75 454.396 270.946 454.928 270.946C455.152 270.946 455.404 270.918 455.502 270.89V272.43C455.334 272.5 454.998 272.598 454.452 272.598C453.108 272.598 452.268 271.8 452.268 270.47V267.264H451.022V265.612H451.372C452.1 265.612 452.436 265.136 452.436 264.52V263.554H454.116ZM458.401 268.272H461.481C461.453 267.586 461.005 266.914 459.941 266.914C458.975 266.914 458.443 267.642 458.401 268.272ZM461.663 270.064L463.217 270.526C462.867 271.716 461.775 272.71 460.081 272.71C458.191 272.71 456.525 271.352 456.525 269.028C456.525 266.83 458.149 265.402 459.913 265.402C462.041 265.402 463.315 266.76 463.315 268.972C463.315 269.238 463.287 269.518 463.287 269.546H458.359C458.401 270.456 459.171 271.114 460.095 271.114C460.963 271.114 461.439 270.68 461.663 270.064ZM467.679 270.582L469.275 270.232C469.317 270.778 469.723 271.282 470.535 271.282C471.151 271.282 471.445 270.96 471.445 270.596C471.445 270.288 471.235 270.036 470.703 269.924L469.793 269.714C468.463 269.42 467.861 268.622 467.861 267.656C467.861 266.424 468.953 265.402 470.437 265.402C472.397 265.402 473.055 266.648 473.139 267.39L471.585 267.74C471.529 267.334 471.235 266.816 470.451 266.816C469.961 266.816 469.569 267.11 469.569 267.502C469.569 267.838 469.821 268.048 470.199 268.118L471.179 268.328C472.537 268.608 473.223 269.434 473.223 270.442C473.223 271.562 472.355 272.71 470.549 272.71C468.477 272.71 467.763 271.366 467.679 270.582ZM479.239 272.5C479.211 272.36 479.183 272.038 479.183 271.758C478.805 272.402 478.007 272.682 477.279 272.682C475.613 272.682 474.661 271.464 474.661 269.966V265.612H476.523V269.588C476.523 270.358 476.915 270.974 477.783 270.974C478.609 270.974 479.085 270.414 479.085 269.616V265.612H480.947V271.254C480.947 271.786 480.989 272.262 481.017 272.5H479.239ZM484.714 272.5H482.852V265.612H484.63V266.452C485.008 265.78 485.89 265.416 486.646 265.416C487.584 265.416 488.34 265.822 488.69 266.564C489.236 265.724 489.964 265.416 490.874 265.416C492.148 265.416 493.366 266.186 493.366 268.034V272.5H491.56V268.412C491.56 267.67 491.196 267.11 490.342 267.11C489.544 267.11 489.068 267.726 489.068 268.468V272.5H487.22V268.412C487.22 267.67 486.842 267.11 486.002 267.11C485.19 267.11 484.714 267.712 484.714 268.468V272.5ZM497.06 272.5H495.198V265.612H496.976V266.452C497.354 265.78 498.236 265.416 498.992 265.416C499.93 265.416 500.686 265.822 501.036 266.564C501.582 265.724 502.31 265.416 503.22 265.416C504.494 265.416 505.712 266.186 505.712 268.034V272.5H503.906V268.412C503.906 267.67 503.542 267.11 502.688 267.11C501.89 267.11 501.414 267.726 501.414 268.468V272.5H499.566V268.412C499.566 267.67 499.188 267.11 498.348 267.11C497.536 267.11 497.06 267.712 497.06 268.468V272.5ZM507.138 270.624C507.138 269.392 508.048 268.706 509.196 268.538L510.89 268.286C511.282 268.23 511.408 268.034 511.408 267.796C511.408 267.306 511.03 266.9 510.246 266.9C509.434 266.9 508.986 267.418 508.93 268.02L507.278 267.67C507.39 266.592 508.384 265.402 510.232 265.402C512.416 265.402 513.228 266.634 513.228 268.02V271.408C513.228 271.772 513.27 272.262 513.312 272.5H511.604C511.562 272.318 511.534 271.94 511.534 271.674C511.184 272.22 510.526 272.696 509.504 272.696C508.034 272.696 507.138 271.702 507.138 270.624ZM509.896 271.31C510.68 271.31 511.408 270.932 511.408 269.714V269.406L509.854 269.644C509.378 269.714 509 269.98 509 270.512C509 270.918 509.294 271.31 509.896 271.31ZM519.277 265.584V267.46C519.067 267.418 518.885 267.404 518.717 267.404C517.765 267.404 516.939 267.866 516.939 269.35V272.5H515.077V265.612H516.883V266.634C517.303 265.724 518.255 265.556 518.843 265.556C518.997 265.556 519.137 265.57 519.277 265.584ZM522.997 275.216H521.023L522.647 271.632L519.721 265.612H521.807L523.641 269.644L525.335 265.612H527.323L522.997 275.216Z" fill="#E2E2E2"/>
<path d="M551.152 270.636H553.36V266.616H551.404V265.752H554.32V270.636H556.528V271.5H551.152V270.636ZM552.892 263.736C552.892 263.232 553.288 262.836 553.804 262.836C554.296 262.836 554.692 263.232 554.692 263.736C554.692 264.24 554.296 264.648 553.804 264.648C553.288 264.648 552.892 264.24 552.892 263.736ZM562.439 270.552C562.163 271.152 561.527 271.668 560.471 271.668C558.839 271.668 557.795 270.324 557.795 268.62C557.795 266.952 558.899 265.584 560.519 265.584C561.611 265.584 562.199 266.1 562.415 266.616V262.824H563.375V270.42C563.375 270.996 563.411 271.38 563.435 271.5H562.499C562.475 271.368 562.439 271.044 562.439 270.672V270.552ZM560.615 270.792C561.743 270.792 562.439 269.88 562.439 268.62C562.439 267.36 561.755 266.46 560.615 266.46C559.511 266.46 558.767 267.36 558.767 268.62C558.767 269.88 559.523 270.792 560.615 270.792ZM566.911 270.588C566.911 270.024 567.355 269.592 567.895 269.592C568.447 269.592 568.891 270.024 568.891 270.588C568.891 271.152 568.447 271.572 567.895 271.572C567.355 271.572 566.911 271.152 566.911 270.588ZM566.911 266.556C566.911 265.992 567.355 265.56 567.895 265.56C568.447 265.56 568.891 265.992 568.891 266.556C568.891 267.12 568.447 267.54 567.895 267.54C567.355 267.54 566.911 267.12 566.911 266.556ZM582.105 270.6V265.944H579.897V265.284C581.253 265.284 582.153 264.66 582.201 263.724H583.089V270.6H585.081V271.5H580.053V270.6H582.105ZM587.033 266.388C587.009 266.28 586.997 266.148 586.997 266.04C586.997 264.708 588.029 263.556 589.697 263.556C591.305 263.556 592.265 264.624 592.265 265.908C592.265 266.928 591.629 267.732 590.741 268.296L589.145 269.316C588.677 269.616 588.245 270.024 588.149 270.588H592.337V271.5H586.925C586.949 270.3 587.429 269.34 588.677 268.536L590.069 267.636C590.825 267.144 591.257 266.604 591.257 265.92C591.257 265.152 590.705 264.444 589.673 264.444C588.617 264.444 587.981 265.176 587.981 266.136C587.981 266.268 587.993 266.412 588.017 266.508L587.033 266.388ZM596.988 266.808C598.308 266.808 599.472 267.66 599.472 269.196C599.472 270.516 598.452 271.668 596.7 271.668C595.008 271.668 593.94 270.54 593.832 269.244L594.816 269.052C594.9 270.12 595.728 270.768 596.688 270.768C597.768 270.768 598.476 270.108 598.476 269.22C598.476 268.188 597.768 267.672 596.772 267.672C596.52 267.672 596.28 267.696 596.064 267.756L595.596 266.916L598.008 264.636H594.072V263.724H599.304V264.624L596.988 266.808ZM601.423 266.388C601.399 266.28 601.387 266.148 601.387 266.04C601.387 264.708 602.419 263.556 604.087 263.556C605.695 263.556 606.655 264.624 606.655 265.908C606.655 266.928 606.019 267.732 605.131 268.296L603.535 269.316C603.067 269.616 602.635 270.024 602.539 270.588H606.727V271.5H601.315C601.339 270.3 601.819 269.34 603.067 268.536L604.459 267.636C605.215 267.144 605.647 266.604 605.647 265.92C605.647 265.152 605.095 264.444 604.063 264.444C603.007 264.444 602.371 265.176 602.371 266.136C602.371 266.268 602.383 266.412 602.407 266.508L601.423 266.388Z" fill="#7C7C7C"/>
<path d="M382.462 292.828L381.412 293.206C381.258 292.366 380.6 291.442 379.172 291.428C378.024 291.428 377.114 292.184 377.114 293.192C377.114 293.99 377.632 294.564 378.542 294.76L379.998 295.082C381.594 295.432 382.546 296.426 382.546 297.826C382.546 299.352 381.244 300.696 379.172 300.696C376.876 300.696 375.714 299.198 375.532 297.742L376.638 297.392C376.75 298.568 377.604 299.632 379.172 299.632C380.6 299.632 381.37 298.876 381.37 297.924C381.37 297.112 380.81 296.482 379.76 296.244L378.304 295.922C376.932 295.614 375.938 294.718 375.938 293.262C375.938 291.708 377.366 290.378 379.158 290.378C381.3 290.378 382.21 291.68 382.462 292.828ZM388.679 299.59C388.357 300.276 387.545 300.696 386.663 300.696C385.039 300.696 384.143 299.492 384.143 298.008V293.794H385.263V297.826C385.263 298.806 385.725 299.688 386.915 299.688C388.021 299.688 388.623 298.904 388.623 297.84V293.794H389.743V299.24C389.743 299.758 389.785 300.234 389.827 300.5H388.749C388.707 300.346 388.679 299.982 388.679 299.646V299.59ZM393.016 293.794V294.746C393.394 294.046 394.206 293.598 395.074 293.598C395.998 293.598 396.796 294.088 397.132 294.97C397.608 294.018 398.448 293.598 399.4 293.598C400.618 293.598 401.71 294.438 401.71 296.118V300.5H400.59V296.244C400.59 295.32 400.1 294.606 399.05 294.606C398.056 294.606 397.384 295.418 397.384 296.426V300.5H396.264V296.244C396.264 295.32 395.774 294.606 394.71 294.606C393.702 294.606 393.044 295.39 393.044 296.44V300.5H391.924V293.794H393.016ZM404.897 293.794V294.746C405.275 294.046 406.087 293.598 406.955 293.598C407.879 293.598 408.677 294.088 409.013 294.97C409.489 294.018 410.329 293.598 411.281 293.598C412.499 293.598 413.591 294.438 413.591 296.118V300.5H412.471V296.244C412.471 295.32 411.981 294.606 410.931 294.606C409.937 294.606 409.265 295.418 409.265 296.426V300.5H408.145V296.244C408.145 295.32 407.655 294.606 406.591 294.606C405.583 294.606 404.925 295.39 404.925 296.44V300.5H403.805V293.794H404.897ZM415.21 298.722C415.21 297.546 416.036 296.888 417.212 296.72L419.018 296.454C419.508 296.384 419.62 296.174 419.62 295.88C419.62 295.124 419.116 294.55 418.066 294.55C417.086 294.55 416.498 295.138 416.4 295.992L415.336 295.74C415.476 294.466 416.596 293.598 418.038 293.598C419.942 293.598 420.74 294.69 420.74 295.992V299.38C420.74 299.94 420.782 300.29 420.824 300.5H419.732C419.704 300.346 419.648 300.01 419.648 299.492C419.354 300.038 418.626 300.696 417.422 300.696C416.036 300.696 415.21 299.744 415.21 298.722ZM417.562 299.744C418.724 299.744 419.62 299.1 419.62 297.672V297.224L417.436 297.546C416.792 297.644 416.33 298.008 416.33 298.666C416.33 299.212 416.792 299.744 417.562 299.744ZM426.448 293.752V294.942C426.266 294.886 426.056 294.872 425.86 294.872C424.74 294.872 423.97 295.516 423.97 297.028V300.5H422.85V293.794H423.942V294.998C424.376 294.018 425.23 293.696 425.972 293.696C426.154 293.696 426.35 293.724 426.448 293.752ZM428.892 300.5H427.772V293.794H428.892V300.5ZM427.492 291.148C427.492 290.686 427.87 290.308 428.332 290.308C428.794 290.308 429.172 290.686 429.172 291.148C429.172 291.61 428.794 291.988 428.332 291.988C427.87 291.988 427.492 291.61 427.492 291.148ZM435.98 300.5H430.618V299.52L434.524 294.802H430.66V293.794H435.91V294.774L432.004 299.492H435.98V300.5ZM438.302 296.496H442.306C442.278 295.432 441.592 294.592 440.318 294.592C439.156 294.592 438.372 295.502 438.302 296.496ZM442.46 298.246L443.426 298.596C443.048 299.758 441.998 300.696 440.444 300.696C438.652 300.696 437.126 299.38 437.126 297.126C437.126 295.012 438.61 293.598 440.304 293.598C442.334 293.598 443.468 295.012 443.468 297.056C443.468 297.196 443.454 297.35 443.44 297.448H438.274V297.504C438.274 298.778 439.24 299.688 440.444 299.688C441.578 299.688 442.194 299.044 442.46 298.246ZM449.851 300.5H448.731V293.794H449.851V300.5ZM448.451 291.148C448.451 290.686 448.829 290.308 449.291 290.308C449.753 290.308 450.131 290.686 450.131 291.148C450.131 291.61 449.753 291.988 449.291 291.988C448.829 291.988 448.451 291.61 448.451 291.148ZM453.159 296.552V300.5H452.039V293.794H453.131V294.802C453.565 294.018 454.349 293.598 455.231 293.598C456.841 293.598 457.625 294.746 457.625 296.202V300.5H456.505V296.37C456.505 295.39 456.057 294.606 454.839 294.606C453.761 294.606 453.159 295.502 453.159 296.552ZM464.642 291.666V293.794H466.224V294.802H464.642V298.512C464.642 299.212 464.95 299.562 465.664 299.562C465.86 299.562 466.112 299.52 466.224 299.492V300.444C466.098 300.486 465.776 300.57 465.342 300.57C464.236 300.57 463.522 299.884 463.522 298.666V294.802H462.178V293.794H462.612C463.298 293.794 463.592 293.402 463.592 292.772V291.666H464.642ZM471.752 293.794H472.914L474.776 299.1L476.372 293.794H477.562L475.378 300.5H474.202L472.326 295.152L470.478 300.5H469.288L467.062 293.794H468.266L469.904 299.1L471.752 293.794ZM481.803 293.598C483.735 293.598 485.163 295.082 485.163 297.14C485.163 299.212 483.735 300.696 481.803 300.696C479.87 300.696 478.443 299.212 478.443 297.14C478.443 295.082 479.87 293.598 481.803 293.598ZM481.803 294.606C480.599 294.606 479.562 295.516 479.562 297.14C479.562 298.778 480.599 299.688 481.803 299.688C483.007 299.688 484.043 298.778 484.043 297.14C484.043 295.516 483.007 294.606 481.803 294.606ZM489.911 298.736L490.919 298.386C491.017 299.156 491.591 299.744 492.599 299.744C493.397 299.744 493.901 299.296 493.901 298.722C493.901 298.218 493.495 297.882 492.879 297.742L491.787 297.49C490.765 297.252 490.121 296.594 490.121 295.628C490.121 294.508 491.185 293.598 492.459 293.598C494.195 293.598 494.797 294.704 494.951 295.39L493.957 295.754C493.873 295.292 493.523 294.55 492.459 294.55C491.759 294.55 491.213 294.998 491.213 295.558C491.213 296.034 491.507 296.328 492.095 296.468L493.187 296.72C494.363 296.986 495.007 297.672 495.007 298.666C495.007 299.632 494.181 300.696 492.585 300.696C490.821 300.696 490.023 299.576 489.911 298.736ZM497.447 296.496H501.451C501.423 295.432 500.737 294.592 499.463 294.592C498.301 294.592 497.517 295.502 497.447 296.496ZM501.605 298.246L502.571 298.596C502.193 299.758 501.143 300.696 499.589 300.696C497.797 300.696 496.271 299.38 496.271 297.126C496.271 295.012 497.755 293.598 499.449 293.598C501.479 293.598 502.613 295.012 502.613 297.056C502.613 297.196 502.599 297.35 502.585 297.448H497.419V297.504C497.419 298.778 498.385 299.688 499.589 299.688C500.723 299.688 501.339 299.044 501.605 298.246ZM505.427 296.552V300.5H504.307V293.794H505.399V294.802C505.833 294.018 506.617 293.598 507.499 293.598C509.109 293.598 509.893 294.746 509.893 296.202V300.5H508.773V296.37C508.773 295.39 508.325 294.606 507.107 294.606C506.029 294.606 505.427 295.502 505.427 296.552ZM513.546 291.666V293.794H515.128V294.802H513.546V298.512C513.546 299.212 513.854 299.562 514.568 299.562C514.764 299.562 515.016 299.52 515.128 299.492V300.444C515.002 300.486 514.68 300.57 514.246 300.57C513.14 300.57 512.426 299.884 512.426 298.666V294.802H511.082V293.794H511.516C512.202 293.794 512.496 293.402 512.496 292.772V291.666H513.546ZM517.38 296.496H521.384C521.356 295.432 520.67 294.592 519.396 294.592C518.234 294.592 517.45 295.502 517.38 296.496ZM521.538 298.246L522.504 298.596C522.126 299.758 521.076 300.696 519.522 300.696C517.73 300.696 516.204 299.38 516.204 297.126C516.204 295.012 517.688 293.598 519.382 293.598C521.412 293.598 522.546 295.012 522.546 297.056C522.546 297.196 522.532 297.35 522.518 297.448H517.352V297.504C517.352 298.778 518.318 299.688 519.522 299.688C520.656 299.688 521.272 299.044 521.538 298.246ZM525.36 296.552V300.5H524.24V293.794H525.332V294.802C525.766 294.018 526.55 293.598 527.432 293.598C529.042 293.598 529.826 294.746 529.826 296.202V300.5H528.706V296.37C528.706 295.39 528.258 294.606 527.04 294.606C525.962 294.606 525.36 295.502 525.36 296.552ZM534.78 294.606C533.604 294.606 532.582 295.516 532.582 297.14C532.582 298.75 533.604 299.688 534.794 299.688C536.068 299.688 536.6 298.792 536.796 298.176L537.776 298.61C537.454 299.604 536.516 300.696 534.794 300.696C532.862 300.696 531.462 299.184 531.462 297.14C531.462 295.054 532.89 293.598 534.78 293.598C536.502 293.598 537.44 294.648 537.72 295.712L536.712 296.146C536.53 295.432 535.984 294.606 534.78 294.606ZM540.089 296.496H544.093C544.065 295.432 543.379 294.592 542.105 294.592C540.943 294.592 540.159 295.502 540.089 296.496ZM544.247 298.246L545.213 298.596C544.835 299.758 543.785 300.696 542.231 300.696C540.439 300.696 538.913 299.38 538.913 297.126C538.913 295.012 540.397 293.598 542.091 293.598C544.121 293.598 545.255 295.012 545.255 297.056C545.255 297.196 545.241 297.35 545.227 297.448H540.061V297.504C540.061 298.778 541.027 299.688 542.231 299.688C543.365 299.688 543.981 299.044 544.247 298.246ZM546.403 298.736L547.411 298.386C547.509 299.156 548.083 299.744 549.091 299.744C549.889 299.744 550.393 299.296 550.393 298.722C550.393 298.218 549.987 297.882 549.371 297.742L548.279 297.49C547.257 297.252 546.613 296.594 546.613 295.628C546.613 294.508 547.677 293.598 548.951 293.598C550.687 293.598 551.289 294.704 551.443 295.39L550.449 295.754C550.365 295.292 550.015 294.55 548.951 294.55C548.251 294.55 547.705 294.998 547.705 295.558C547.705 296.034 547.999 296.328 548.587 296.468L549.679 296.72C550.855 296.986 551.499 297.672 551.499 298.666C551.499 299.632 550.673 300.696 549.077 300.696C547.313 300.696 546.515 299.576 546.403 298.736Z" fill="#E2E2E2"/>
<path d="M226 77H467C468.933 77 470.5 78.567 470.5 80.5V144.5C470.5 146.433 468.933 148 467 148H226C224.067 148 222.5 146.433 222.5 144.5V80.5C222.5 78.567 224.067 77 226 77Z" fill="#020202"/>
<path d="M226 77H467C468.933 77 470.5 78.567 470.5 80.5V144.5C470.5 146.433 468.933 148 467 148H226C224.067 148 222.5 146.433 222.5 144.5V80.5C222.5 78.567 224.067 77 226 77Z" stroke="#B0B0B0"/>
<path d="M242.905 99.2504C242.739 99.8941 242.363 100.464 241.837 100.871C241.311 101.278 240.665 101.499 240 101.499C239.335 101.499 238.689 101.278 238.163 100.871C237.637 100.464 237.261 99.8941 237.095 99.2504H233.25V97.7504H237.095C237.261 97.1067 237.637 96.5367 238.163 96.1297C238.689 95.7228 239.335 95.502 240 95.502C240.665 95.502 241.311 95.7228 241.837 96.1297C242.363 96.5367 242.739 97.1067 242.905 97.7504H246.75V99.2504H242.905V99.2504ZM240 100C240.398 100 240.779 99.8424 241.061 99.5611C241.342 99.2798 241.5 98.8982 241.5 98.5004C241.5 98.1026 241.342 97.7211 241.061 97.4398C240.779 97.1584 240.398 97.0004 240 97.0004C239.602 97.0004 239.221 97.1584 238.939 97.4398C238.658 97.7211 238.5 98.1026 238.5 98.5004C238.5 98.8982 238.658 99.2798 238.939 99.5611C239.221 99.8424 239.602 100 240 100Z" fill="#9B9B9B"/>
<path d="M264.062 103.5L262.116 99.678H261.108V103.5H259.162V93.574H263.04C264.972 93.574 266.204 94.904 266.204 96.626C266.204 98.012 265.392 99.062 264.09 99.44L266.218 103.5H264.062ZM261.108 98.012H262.676C263.656 98.012 264.23 97.452 264.23 96.64C264.23 95.8 263.656 95.254 262.676 95.254H261.108V98.012ZM268.912 99.272H271.992C271.964 98.586 271.516 97.914 270.452 97.914C269.486 97.914 268.954 98.642 268.912 99.272ZM272.174 101.064L273.728 101.526C273.378 102.716 272.286 103.71 270.592 103.71C268.702 103.71 267.036 102.352 267.036 100.028C267.036 97.83 268.66 96.402 270.424 96.402C272.552 96.402 273.826 97.76 273.826 99.972C273.826 100.238 273.798 100.518 273.798 100.546H268.87C268.912 101.456 269.682 102.114 270.606 102.114C271.474 102.114 271.95 101.68 272.174 101.064ZM282.009 106.16H280.189V102.814C279.867 103.332 279.181 103.668 278.271 103.668C276.311 103.668 274.911 102.114 274.911 100.042C274.911 98.026 276.213 96.444 278.215 96.444C279.419 96.444 280.035 97.018 280.231 97.41V96.612H282.009V106.16ZM276.787 100.042C276.787 101.274 277.543 102.002 278.495 102.002C279.447 102.002 280.203 101.274 280.203 100.042C280.203 98.81 279.447 98.11 278.495 98.11C277.543 98.11 276.787 98.81 276.787 100.042ZM288.425 103.5C288.397 103.36 288.369 103.038 288.369 102.758C287.991 103.402 287.193 103.682 286.465 103.682C284.799 103.682 283.847 102.464 283.847 100.966V96.612H285.709V100.588C285.709 101.358 286.101 101.974 286.969 101.974C287.795 101.974 288.271 101.414 288.271 100.616V96.612H290.133V102.254C290.133 102.786 290.175 103.262 290.203 103.5H288.425ZM293.508 99.272H296.588C296.56 98.586 296.112 97.914 295.048 97.914C294.082 97.914 293.55 98.642 293.508 99.272ZM296.77 101.064L298.324 101.526C297.974 102.716 296.882 103.71 295.188 103.71C293.298 103.71 291.632 102.352 291.632 100.028C291.632 97.83 293.256 96.402 295.02 96.402C297.148 96.402 298.422 97.76 298.422 99.972C298.422 100.238 298.394 100.518 298.394 100.546H293.466C293.508 101.456 294.278 102.114 295.202 102.114C296.07 102.114 296.546 101.68 296.77 101.064ZM299.465 101.582L301.061 101.232C301.103 101.778 301.509 102.282 302.321 102.282C302.937 102.282 303.231 101.96 303.231 101.596C303.231 101.288 303.021 101.036 302.489 100.924L301.579 100.714C300.249 100.42 299.647 99.622 299.647 98.656C299.647 97.424 300.739 96.402 302.223 96.402C304.183 96.402 304.841 97.648 304.925 98.39L303.371 98.74C303.315 98.334 303.021 97.816 302.237 97.816C301.747 97.816 301.355 98.11 301.355 98.502C301.355 98.838 301.607 99.048 301.985 99.118L302.965 99.328C304.323 99.608 305.009 100.434 305.009 101.442C305.009 102.562 304.141 103.71 302.335 103.71C300.263 103.71 299.549 102.366 299.465 101.582ZM308.938 94.554V96.612H310.324V98.264H308.938V101.148C308.938 101.75 309.218 101.946 309.75 101.946C309.974 101.946 310.226 101.918 310.324 101.89V103.43C310.156 103.5 309.82 103.598 309.274 103.598C307.93 103.598 307.09 102.8 307.09 101.47V98.264H305.844V96.612H306.194C306.922 96.612 307.258 96.136 307.258 95.52V94.554H308.938ZM314.737 101.624C314.737 100.392 315.647 99.706 316.795 99.538L318.489 99.286C318.881 99.23 319.007 99.034 319.007 98.796C319.007 98.306 318.629 97.9 317.845 97.9C317.033 97.9 316.585 98.418 316.529 99.02L314.877 98.67C314.989 97.592 315.983 96.402 317.831 96.402C320.015 96.402 320.827 97.634 320.827 99.02V102.408C320.827 102.772 320.869 103.262 320.911 103.5H319.203C319.161 103.318 319.133 102.94 319.133 102.674C318.783 103.22 318.125 103.696 317.103 103.696C315.633 103.696 314.737 102.702 314.737 101.624ZM317.495 102.31C318.279 102.31 319.007 101.932 319.007 100.714V100.406L317.453 100.644C316.977 100.714 316.599 100.98 316.599 101.512C316.599 101.918 316.893 102.31 317.495 102.31ZM324.539 106.16H322.677V96.612H324.483V97.452C324.791 96.92 325.561 96.458 326.597 96.458C328.613 96.458 329.775 97.998 329.775 100.042C329.775 102.128 328.473 103.668 326.527 103.668C325.575 103.668 324.875 103.29 324.539 102.828V106.16ZM327.941 100.056C327.941 98.838 327.185 98.124 326.233 98.124C325.281 98.124 324.511 98.838 324.511 100.056C324.511 101.274 325.281 102.002 326.233 102.002C327.185 102.002 327.941 101.288 327.941 100.056ZM333.138 106.16H331.276V96.612H333.082V97.452C333.39 96.92 334.16 96.458 335.196 96.458C337.212 96.458 338.374 97.998 338.374 100.042C338.374 102.128 337.072 103.668 335.126 103.668C334.174 103.668 333.474 103.29 333.138 102.828V106.16ZM336.54 100.056C336.54 98.838 335.784 98.124 334.832 98.124C333.88 98.124 333.11 98.838 333.11 100.056C333.11 101.274 333.88 102.002 334.832 102.002C335.784 102.002 336.54 101.288 336.54 100.056ZM344.076 96.584V98.46C343.866 98.418 343.684 98.404 343.516 98.404C342.564 98.404 341.738 98.866 341.738 100.35V103.5H339.876V96.612H341.682V97.634C342.102 96.724 343.054 96.556 343.642 96.556C343.796 96.556 343.936 96.57 344.076 96.584ZM348.414 102.016C349.324 102.016 350.164 101.358 350.164 100.056C350.164 98.754 349.324 98.096 348.414 98.096C347.504 98.096 346.664 98.754 346.664 100.056C346.664 101.344 347.504 102.016 348.414 102.016ZM348.414 96.402C350.472 96.402 352.026 97.928 352.026 100.056C352.026 102.17 350.472 103.71 348.414 103.71C346.356 103.71 344.802 102.17 344.802 100.056C344.802 97.928 346.356 96.402 348.414 96.402ZM359.827 96.612L357.153 103.5H355.291L352.477 96.612H354.521L356.229 101.232L357.867 96.612H359.827ZM360.388 101.624C360.388 100.392 361.298 99.706 362.446 99.538L364.14 99.286C364.532 99.23 364.658 99.034 364.658 98.796C364.658 98.306 364.28 97.9 363.496 97.9C362.684 97.9 362.236 98.418 362.18 99.02L360.528 98.67C360.64 97.592 361.634 96.402 363.482 96.402C365.666 96.402 366.478 97.634 366.478 99.02V102.408C366.478 102.772 366.52 103.262 366.562 103.5H364.854C364.812 103.318 364.784 102.94 364.784 102.674C364.434 103.22 363.776 103.696 362.754 103.696C361.284 103.696 360.388 102.702 360.388 101.624ZM363.146 102.31C363.93 102.31 364.658 101.932 364.658 100.714V100.406L363.104 100.644C362.628 100.714 362.25 100.98 362.25 101.512C362.25 101.918 362.544 102.31 363.146 102.31ZM370.189 103.5H368.327V93.364H370.189V103.5Z" fill="#E2E2E2"/>
<path d="M406.152 101.636H408.36V97.616H406.404V96.752H409.32V101.636H411.528V102.5H406.152V101.636ZM407.892 94.736C407.892 94.232 408.288 93.836 408.804 93.836C409.296 93.836 409.692 94.232 409.692 94.736C409.692 95.24 409.296 95.648 408.804 95.648C408.288 95.648 407.892 95.24 407.892 94.736ZM417.439 101.552C417.163 102.152 416.527 102.668 415.471 102.668C413.839 102.668 412.795 101.324 412.795 99.62C412.795 97.952 413.899 96.584 415.519 96.584C416.611 96.584 417.199 97.1 417.415 97.616V93.824H418.375V101.42C418.375 101.996 418.411 102.38 418.435 102.5H417.499C417.475 102.368 417.439 102.044 417.439 101.672V101.552ZM415.615 101.792C416.743 101.792 417.439 100.88 417.439 99.62C417.439 98.36 416.755 97.46 415.615 97.46C414.511 97.46 413.767 98.36 413.767 99.62C413.767 100.88 414.523 101.792 415.615 101.792ZM421.911 101.588C421.911 101.024 422.355 100.592 422.895 100.592C423.447 100.592 423.891 101.024 423.891 101.588C423.891 102.152 423.447 102.572 422.895 102.572C422.355 102.572 421.911 102.152 421.911 101.588ZM421.911 97.556C421.911 96.992 422.355 96.56 422.895 96.56C423.447 96.56 423.891 96.992 423.891 97.556C423.891 98.12 423.447 98.54 422.895 98.54C422.355 98.54 421.911 98.12 421.911 97.556ZM437.105 101.6V96.944H434.897V96.284C436.253 96.284 437.153 95.66 437.201 94.724H438.089V101.6H440.081V102.5H435.053V101.6H437.105ZM442.033 97.388C442.009 97.28 441.997 97.148 441.997 97.04C441.997 95.708 443.029 94.556 444.697 94.556C446.305 94.556 447.265 95.624 447.265 96.908C447.265 97.928 446.629 98.732 445.741 99.296L444.145 100.316C443.677 100.616 443.245 101.024 443.149 101.588H447.337V102.5H441.925C441.949 101.3 442.429 100.34 443.677 99.536L445.069 98.636C445.825 98.144 446.257 97.604 446.257 96.92C446.257 96.152 445.705 95.444 444.673 95.444C443.617 95.444 442.981 96.176 442.981 97.136C442.981 97.268 442.993 97.412 443.017 97.508L442.033 97.388ZM451.988 97.808C453.308 97.808 454.472 98.66 454.472 100.196C454.472 101.516 453.452 102.668 451.7 102.668C450.008 102.668 448.94 101.54 448.832 100.244L449.816 100.052C449.9 101.12 450.728 101.768 451.688 101.768C452.768 101.768 453.476 101.108 453.476 100.22C453.476 99.188 452.768 98.672 451.772 98.672C451.52 98.672 451.28 98.696 451.064 98.756L450.596 97.916L453.008 95.636H449.072V94.724H454.304V95.624L451.988 97.808ZM456.423 97.388C456.399 97.28 456.387 97.148 456.387 97.04C456.387 95.708 457.419 94.556 459.087 94.556C460.695 94.556 461.655 95.624 461.655 96.908C461.655 97.928 461.019 98.732 460.131 99.296L458.535 100.316C458.067 100.616 457.635 101.024 457.539 101.588H461.727V102.5H456.315C456.339 101.3 456.819 100.34 458.067 99.536L459.459 98.636C460.215 98.144 460.647 97.604 460.647 96.92C460.647 96.152 460.095 95.444 459.063 95.444C458.007 95.444 457.371 96.176 457.371 97.136C457.371 97.268 457.383 97.412 457.407 97.508L456.423 97.388Z" fill="#7C7C7C"/>
<path d="M232.548 126.334H234.648C235.922 126.334 236.706 125.592 236.706 124.5C236.706 123.366 235.922 122.624 234.648 122.624H232.548V126.334ZM234.83 127.384H232.548V131.5H231.372V121.574H234.83C236.664 121.574 237.882 122.834 237.882 124.486C237.882 126.152 236.664 127.384 234.83 127.384ZM243.761 130.59C243.439 131.276 242.627 131.696 241.745 131.696C240.121 131.696 239.225 130.492 239.225 129.008V124.794H240.345V128.826C240.345 129.806 240.807 130.688 241.997 130.688C243.103 130.688 243.705 129.904 243.705 128.84V124.794H244.825V130.24C244.825 130.758 244.867 131.234 244.909 131.5H243.831C243.789 131.346 243.761 130.982 243.761 130.646V130.59ZM248.098 131.5H247.006V121.378H248.126V125.886C248.434 125.256 249.218 124.598 250.422 124.598C252.41 124.598 253.474 126.18 253.474 128.14C253.474 130.142 252.34 131.696 250.394 131.696C249.274 131.696 248.49 131.122 248.098 130.394V131.5ZM250.226 130.688C251.514 130.688 252.354 129.624 252.354 128.14C252.354 126.656 251.528 125.606 250.226 125.606C248.924 125.606 248.098 126.656 248.098 128.14C248.098 129.624 248.938 130.688 250.226 130.688ZM256.329 131.5H255.209V121.378H256.329V131.5ZM259.638 131.5H258.518V124.794H259.638V131.5ZM258.238 122.148C258.238 121.686 258.616 121.308 259.078 121.308C259.54 121.308 259.918 121.686 259.918 122.148C259.918 122.61 259.54 122.988 259.078 122.988C258.616 122.988 258.238 122.61 258.238 122.148ZM261.28 129.736L262.288 129.386C262.386 130.156 262.96 130.744 263.968 130.744C264.766 130.744 265.27 130.296 265.27 129.722C265.27 129.218 264.864 128.882 264.248 128.742L263.156 128.49C262.134 128.252 261.49 127.594 261.49 126.628C261.49 125.508 262.554 124.598 263.828 124.598C265.564 124.598 266.166 125.704 266.32 126.39L265.326 126.754C265.242 126.292 264.892 125.55 263.828 125.55C263.128 125.55 262.582 125.998 262.582 126.558C262.582 127.034 262.876 127.328 263.464 127.468L264.556 127.72C265.732 127.986 266.376 128.672 266.376 129.666C266.376 130.632 265.55 131.696 263.954 131.696C262.19 131.696 261.392 130.576 261.28 129.736ZM269.222 127.496V131.5H268.102V121.378H269.222V125.69C269.656 124.99 270.426 124.598 271.294 124.598C272.904 124.598 273.688 125.746 273.688 127.202V131.5H272.568V127.37C272.568 126.39 272.12 125.606 270.902 125.606C269.838 125.606 269.222 126.46 269.222 127.496ZM278.878 129.722C278.878 128.546 279.704 127.888 280.88 127.72L282.686 127.454C283.176 127.384 283.288 127.174 283.288 126.88C283.288 126.124 282.784 125.55 281.734 125.55C280.754 125.55 280.166 126.138 280.068 126.992L279.004 126.74C279.144 125.466 280.264 124.598 281.706 124.598C283.61 124.598 284.408 125.69 284.408 126.992V130.38C284.408 130.94 284.45 131.29 284.492 131.5H283.4C283.372 131.346 283.316 131.01 283.316 130.492C283.022 131.038 282.294 131.696 281.09 131.696C279.704 131.696 278.878 130.744 278.878 129.722ZM281.23 130.744C282.392 130.744 283.288 130.1 283.288 128.672V128.224L281.104 128.546C280.46 128.644 279.998 129.008 279.998 129.666C279.998 130.212 280.46 130.744 281.23 130.744ZM290.116 124.752V125.942C289.934 125.886 289.724 125.872 289.528 125.872C288.408 125.872 287.638 126.516 287.638 128.028V131.5H286.518V124.794H287.61V125.998C288.044 125.018 288.898 124.696 289.64 124.696C289.822 124.696 290.018 124.724 290.116 124.752ZM293.064 122.666V124.794H294.646V125.802H293.064V129.512C293.064 130.212 293.372 130.562 294.086 130.562C294.282 130.562 294.534 130.52 294.646 130.492V131.444C294.52 131.486 294.198 131.57 293.764 131.57C292.658 131.57 291.944 130.884 291.944 129.666V125.802H290.6V124.794H291.034C291.72 124.794 292.014 124.402 292.014 123.772V122.666H293.064ZM297.304 131.5H296.184V124.794H297.304V131.5ZM295.904 122.148C295.904 121.686 296.282 121.308 296.744 121.308C297.206 121.308 297.584 121.686 297.584 122.148C297.584 122.61 297.206 122.988 296.744 122.988C296.282 122.988 295.904 122.61 295.904 122.148ZM302.348 125.606C301.172 125.606 300.15 126.516 300.15 128.14C300.15 129.75 301.172 130.688 302.362 130.688C303.636 130.688 304.168 129.792 304.364 129.176L305.344 129.61C305.022 130.604 304.084 131.696 302.362 131.696C300.43 131.696 299.03 130.184 299.03 128.14C299.03 126.054 300.458 124.598 302.348 124.598C304.07 124.598 305.008 125.648 305.288 126.712L304.28 127.146C304.098 126.432 303.552 125.606 302.348 125.606ZM308.064 131.5H306.944V121.378H308.064V131.5ZM310.966 127.496H314.97C314.942 126.432 314.256 125.592 312.982 125.592C311.82 125.592 311.036 126.502 310.966 127.496ZM315.124 129.246L316.09 129.596C315.712 130.758 314.662 131.696 313.108 131.696C311.316 131.696 309.79 130.38 309.79 128.126C309.79 126.012 311.274 124.598 312.968 124.598C314.998 124.598 316.132 126.012 316.132 128.056C316.132 128.196 316.118 128.35 316.104 128.448H310.938V128.504C310.938 129.778 311.904 130.688 313.108 130.688C314.242 130.688 314.858 130.044 315.124 129.246ZM324.293 124.598C326.225 124.598 327.653 126.082 327.653 128.14C327.653 130.212 326.225 131.696 324.293 131.696C322.361 131.696 320.933 130.212 320.933 128.14C320.933 126.082 322.361 124.598 324.293 124.598ZM324.293 125.606C323.089 125.606 322.053 126.516 322.053 128.14C322.053 129.778 323.089 130.688 324.293 130.688C325.497 130.688 326.533 129.778 326.533 128.14C326.533 126.516 325.497 125.606 324.293 125.606ZM330.499 127.552V131.5H329.379V124.794H330.471V125.802C330.905 125.018 331.689 124.598 332.571 124.598C334.181 124.598 334.965 125.746 334.965 127.202V131.5H333.845V127.37C333.845 126.39 333.397 125.606 332.179 125.606C331.101 125.606 330.499 126.502 330.499 127.552ZM340.085 129.736L341.093 129.386C341.191 130.156 341.765 130.744 342.773 130.744C343.571 130.744 344.075 130.296 344.075 129.722C344.075 129.218 343.669 128.882 343.053 128.742L341.961 128.49C340.939 128.252 340.295 127.594 340.295 126.628C340.295 125.508 341.359 124.598 342.633 124.598C344.369 124.598 344.971 125.704 345.125 126.39L344.131 126.754C344.047 126.292 343.697 125.55 342.633 125.55C341.933 125.55 341.387 125.998 341.387 126.558C341.387 127.034 341.681 127.328 342.269 127.468L343.361 127.72C344.537 127.986 345.181 128.672 345.181 129.666C345.181 130.632 344.355 131.696 342.759 131.696C340.995 131.696 340.197 130.576 340.085 129.736ZM349.804 124.598C351.736 124.598 353.164 126.082 353.164 128.14C353.164 130.212 351.736 131.696 349.804 131.696C347.872 131.696 346.444 130.212 346.444 128.14C346.444 126.082 347.872 124.598 349.804 124.598ZM349.804 125.606C348.6 125.606 347.564 126.516 347.564 128.14C347.564 129.778 348.6 130.688 349.804 130.688C351.008 130.688 352.044 129.778 352.044 128.14C352.044 126.516 351.008 125.606 349.804 125.606ZM357.747 125.606C356.571 125.606 355.549 126.516 355.549 128.14C355.549 129.75 356.571 130.688 357.761 130.688C359.035 130.688 359.567 129.792 359.763 129.176L360.743 129.61C360.421 130.604 359.483 131.696 357.761 131.696C355.829 131.696 354.429 130.184 354.429 128.14C354.429 126.054 355.857 124.598 357.747 124.598C359.469 124.598 360.407 125.648 360.687 126.712L359.679 127.146C359.497 126.432 358.951 125.606 357.747 125.606ZM363.462 131.5H362.342V124.794H363.462V131.5ZM362.062 122.148C362.062 121.686 362.44 121.308 362.902 121.308C363.364 121.308 363.742 121.686 363.742 122.148C363.742 122.61 363.364 122.988 362.902 122.988C362.44 122.988 362.062 122.61 362.062 122.148ZM365.175 129.722C365.175 128.546 366.001 127.888 367.177 127.72L368.983 127.454C369.473 127.384 369.585 127.174 369.585 126.88C369.585 126.124 369.081 125.55 368.031 125.55C367.051 125.55 366.463 126.138 366.365 126.992L365.301 126.74C365.441 125.466 366.561 124.598 368.003 124.598C369.907 124.598 370.705 125.69 370.705 126.992V130.38C370.705 130.94 370.747 131.29 370.789 131.5H369.697C369.669 131.346 369.613 131.01 369.613 130.492C369.319 131.038 368.591 131.696 367.387 131.696C366.001 131.696 365.175 130.744 365.175 129.722ZM367.527 130.744C368.689 130.744 369.585 130.1 369.585 128.672V128.224L367.401 128.546C366.757 128.644 366.295 129.008 366.295 129.666C366.295 130.212 366.757 130.744 367.527 130.744ZM373.935 131.5H372.815V121.378H373.935V131.5ZM375.577 129.736L376.585 129.386C376.683 130.156 377.257 130.744 378.265 130.744C379.063 130.744 379.567 130.296 379.567 129.722C379.567 129.218 379.161 128.882 378.545 128.742L377.453 128.49C376.431 128.252 375.787 127.594 375.787 126.628C375.787 125.508 376.851 124.598 378.125 124.598C379.861 124.598 380.463 125.704 380.617 126.39L379.623 126.754C379.539 126.292 379.189 125.55 378.125 125.55C377.425 125.55 376.879 125.998 376.879 126.558C376.879 127.034 377.173 127.328 377.761 127.468L378.853 127.72C380.029 127.986 380.673 128.672 380.673 129.666C380.673 130.632 379.847 131.696 378.251 131.696C376.487 131.696 375.689 130.576 375.577 129.736Z" fill="#E2E2E2"/>
<path d="M347 148.5C347 148.224 346.776 148 346.5 148C346.224 148 346 148.224 346 148.5H347ZM200.146 237.854C200.342 238.049 200.658 238.049 200.854 237.854L204.036 234.672C204.231 234.476 204.231 234.16 204.036 233.964C203.84 233.769 203.524 233.769 203.328 233.964L200.5 236.793L197.672 233.964C197.476 233.769 197.16 233.769 196.964 233.964C196.769 234.16 196.769 234.476 196.964 234.672L200.146 237.854ZM346 148.5V173H347V148.5H346ZM326.5 192.5H220.5V193.5H326.5V192.5ZM200 213V237.5H201V213H200ZM220.5 192.5C209.178 192.5 200 201.678 200 213H201C201 202.23 209.73 193.5 220.5 193.5V192.5ZM346 173C346 183.77 337.27 192.5 326.5 192.5V193.5C337.822 193.5 347 184.322 347 173H346Z" fill="#B0B0B0"/>
<path d="M347 148.5C347 148.224 346.776 148 346.5 148C346.224 148 346 148.224 346 148.5H347ZM491.146 237.854C491.342 238.049 491.658 238.049 491.854 237.854L495.036 234.672C495.231 234.476 495.231 234.16 495.036 233.964C494.84 233.769 494.524 233.769 494.328 233.964L491.5 236.793L488.672 233.964C488.476 233.769 488.16 233.769 487.964 233.964C487.769 234.16 487.769 234.476 487.964 234.672L491.146 237.854ZM346 148.5V173H347V148.5H346ZM366.5 193.5H471.5V192.5H366.5V193.5ZM491 213V237.5H492V213H491ZM471.5 193.5C482.27 193.5 491 202.23 491 213H492C492 201.678 482.822 192.5 471.5 192.5V193.5ZM346 173C346 184.322 355.178 193.5 366.5 193.5V192.5C355.73 192.5 347 183.77 347 173H346Z" fill="#B0B0B0"/>
</svg>
