<svg width="215" height="50" viewBox="0 0 215 50" fill="none" xmlns="http://www.w3.org/2000/svg">
  <path fill="#ffffff" fill-rule="evenodd" clip-rule="evenodd"
    d="M55.2083 1.5944L59.2884 0.378418V26.3815H55.2083V24.9544C53.2613 26.3701 50.8596 27.0162 48.4651 26.7684C46.2394 26.5322 44.16 25.5468 42.5678 23.9737C40.9756 22.4007 39.9651 20.3334 39.7019 18.1107C39.6621 17.747 39.642 17.3813 39.6416 17.0153V16.95C39.6424 16.6243 39.6608 16.2989 39.6969 15.9752C39.7013 15.9247 39.7114 15.8752 39.7215 15.8262C39.7344 15.7631 39.7472 15.7008 39.7472 15.6386C39.7773 15.4124 39.8075 15.1914 39.8577 14.9703C39.8753 14.8789 39.8904 14.822 39.9151 14.729L39.9151 14.7288C39.9257 14.6888 39.9381 14.6422 39.9532 14.5834C40.0034 14.3874 40.0687 14.1362 40.114 14.0005C40.145 13.9074 40.1713 13.8379 40.2059 13.7467L40.2061 13.7462C40.2218 13.7046 40.2393 13.6585 40.2597 13.6035C40.3119 13.463 40.3801 13.2969 40.4336 13.1665L40.4337 13.1663L40.4707 13.0759C40.4996 13.005 40.5272 12.9505 40.5584 12.8888C40.5868 12.8325 40.6183 12.7703 40.6566 12.684C40.7277 12.5241 40.8184 12.3564 40.8871 12.2294L40.8872 12.2291L40.8872 12.229L40.9129 12.1815C40.9832 12.0509 41.0435 11.9554 41.139 11.8047C41.2345 11.6539 41.3501 11.473 41.4355 11.3524C41.5209 11.2319 41.5862 11.1414 41.6968 11.0007C41.8073 10.86 41.943 10.6942 42.0384 10.5837C42.1339 10.4731 42.2344 10.3626 42.3349 10.2571C42.4555 10.1264 42.5811 10.0008 42.7118 9.8802L43.0384 9.58374L43.4554 9.24206L43.8072 8.98077C43.9212 8.89817 44.0569 8.81248 44.1707 8.74059C44.2022 8.72065 44.2321 8.70177 44.2594 8.68431L44.3128 8.64995L44.3129 8.64992C44.4109 8.5867 44.4908 8.5352 44.6362 8.4582C44.807 8.36778 45.008 8.26731 45.1386 8.20199L45.1387 8.20194L45.1389 8.20186C45.2694 8.13658 45.3599 8.09136 45.5306 8.01602C45.6445 7.96578 45.7629 7.92 45.8812 7.87422L45.8816 7.87409C45.9406 7.85124 45.9997 7.82839 46.0582 7.80498L46.4552 7.65927C46.5882 7.61728 46.7552 7.57529 46.8885 7.54178C46.9467 7.52718 46.9984 7.51418 47.0381 7.5035C47.0802 7.49216 47.1217 7.4777 47.1631 7.46329C47.2502 7.43301 47.3364 7.40301 47.425 7.40301C47.6461 7.35778 47.8722 7.32261 48.0933 7.29246C48.1366 7.28681 48.1792 7.27833 48.2214 7.26994C48.2917 7.25596 48.3608 7.24221 48.4299 7.24221C48.7754 7.206 49.1226 7.18755 49.47 7.18694C51.532 7.18482 53.5413 7.83759 55.2083 9.05112V1.5944ZM53.7189 20.8601C54.6672 19.8148 55.1974 18.4568 55.2083 17.0455L55.1982 16.9601C55.1876 15.4447 54.5786 13.9949 53.5037 12.9267C52.4289 11.8584 50.9754 11.2583 49.46 11.257C49.25 11.2577 49.0403 11.2711 48.8319 11.2972L48.6359 11.3273C48.4952 11.3474 48.3596 11.3675 48.2239 11.3977L47.9978 11.4529C47.961 11.4637 47.9243 11.4739 47.8877 11.4841L47.8876 11.4842C47.8041 11.5074 47.7213 11.5305 47.641 11.5585L47.4099 11.6439C47.2993 11.6841 47.1888 11.7293 47.0833 11.7796L46.8572 11.8851L46.5456 12.0609L46.3396 12.1815L46.0432 12.3926L45.8623 12.5282C45.7837 12.5918 45.708 12.661 45.6329 12.7295L45.593 12.7659L45.5558 12.7996L45.4201 12.9202C45.2844 13.0558 45.1488 13.2016 45.0231 13.3523L44.9829 13.4126C44.8736 13.5462 44.7712 13.6854 44.6764 13.8296C44.6554 13.8585 44.6468 13.8737 44.6333 13.8973C44.6209 13.919 44.6045 13.9477 44.5709 14.0005C44.5006 14.111 44.4101 14.2769 44.3749 14.3422C44.3562 14.377 44.3446 14.4018 44.3295 14.4341L44.3294 14.4342C44.3162 14.4625 44.3003 14.4966 44.2745 14.5482C44.2192 14.6587 44.1539 14.8095 44.1237 14.8848C44.1026 14.9375 44.0914 14.9705 44.0728 15.025L44.0727 15.0255C44.0647 15.0489 44.0554 15.0763 44.0433 15.111C44.0031 15.2265 43.9529 15.3773 43.9328 15.4577L43.8725 15.6989C43.8601 15.7484 43.8528 15.8048 43.8457 15.8596C43.8355 15.9381 43.8258 16.0133 43.8021 16.0606C43.7802 16.1045 43.7792 16.135 43.7779 16.1748C43.7769 16.2079 43.7756 16.2476 43.7619 16.3068C43.7318 16.4375 43.7318 16.6184 43.7318 16.6988V16.9349C43.7244 17.3738 43.7666 17.812 43.8574 18.2414C44.1622 19.6195 44.9637 20.8371 46.109 21.6618C47.2544 22.4866 48.6633 22.8607 50.0669 22.7129C51.4706 22.565 52.7706 21.9054 53.7189 20.8601ZM194.263 43.345V34.4411H198.881V30.5871H194.278V25.3765L190.258 26.5674V30.5871H186.846V34.4411H190.258V43.345C190.258 48.1687 192.705 49.8721 198.866 49.1335V45.5357C195.821 45.6815 194.263 45.7166 194.263 43.345ZM215 45.4001H205.82L214.97 34.3758H214.98V30.6474H200.855V34.3758H209.98L200.86 45.4001H200.855V49.1284H215V45.4001ZM15.558 7.77986V9.05112C14.018 7.93686 12.1875 7.29407 10.289 7.20091C8.39045 7.10776 6.50577 7.56827 4.86414 8.52642C3.2225 9.48458 1.89464 10.8991 1.04204 12.598C0.189445 14.2968 -0.151147 16.2068 0.0616845 18.0957C0.250503 19.8004 0.883284 21.4258 1.89683 22.8095C2.91038 24.1932 4.26922 25.2867 5.83764 25.9809C7.40606 26.6751 9.12917 26.9456 10.8349 26.7655C12.5406 26.5854 14.1692 25.9609 15.558 24.9544V26.3815H19.6381V7.78991L15.558 7.77986ZM15.558 17.0455C15.5467 18.5663 14.9332 20.0206 13.8518 21.09C12.7704 22.1594 11.3093 22.7567 9.78849 22.751C8.26765 22.7454 6.81103 22.1373 5.73763 21.0599C4.66423 19.9825 4.06154 18.5236 4.06154 17.0028C4.06154 15.4819 4.66423 14.0231 5.73763 12.9457C6.81103 11.8683 8.26765 11.2602 9.78849 11.2545C11.3093 11.2489 12.7704 11.8461 13.8518 12.9155C14.9332 13.9849 15.5467 15.4393 15.558 16.9601V17.0455ZM104.876 34.4083C103.805 36.0249 103.237 37.9232 103.245 39.8629C103.235 41.1503 103.483 42.4268 103.972 43.6175C104.462 44.8083 105.184 45.8896 106.096 46.7981C107.008 47.7067 108.093 48.4242 109.285 48.9089C110.478 49.3936 111.756 49.6356 113.043 49.6209C114.983 49.6209 116.879 49.0452 118.491 47.9668C120.103 46.8883 121.359 45.3557 122.099 43.5629C122.84 41.7702 123.031 39.798 122.65 37.8963C122.269 35.9945 121.331 34.2487 119.957 32.88C118.583 31.5113 116.833 30.5813 114.93 30.2078C113.026 29.8343 111.055 30.0341 109.265 30.7818C107.476 31.5296 105.948 32.7917 104.876 34.4083ZM117.809 36.6677C118.454 37.6097 118.807 38.7213 118.821 39.8629H118.831C118.855 40.6337 118.721 41.4012 118.439 42.1189C118.157 42.8365 117.731 43.4893 117.189 44.0377C116.647 44.586 115.999 45.0185 115.284 45.3089C114.57 45.5992 113.804 45.7414 113.033 45.7267C111.891 45.7266 110.775 45.389 109.825 44.7562C108.875 44.1234 108.133 43.2238 107.693 42.1704C107.252 41.1171 107.133 39.9571 107.351 38.8364C107.568 37.7156 108.112 36.6841 108.914 35.8717C109.716 35.0592 110.74 34.5021 111.858 34.2703C112.976 34.0385 114.137 34.1424 115.196 34.569C116.255 34.9956 117.164 35.7258 117.809 36.6677ZM134.117 30.2354V34.5768C131.479 34.3909 128.399 35.6169 128.399 39.7724V49.1184H124.379V30.5871H128.399V33.7075C129.499 31.1851 131.775 30.2354 134.117 30.2354ZM135.653 34.4083C134.581 36.0249 134.013 37.9232 134.021 39.8629C134.012 41.1503 134.259 42.4268 134.749 43.6175C135.238 44.8083 135.96 45.8896 136.873 46.7981C137.785 47.7067 138.869 48.4242 140.062 48.9089C141.255 49.3936 142.532 49.6356 143.82 49.6209C145.759 49.6209 147.655 49.0452 149.267 47.9668C150.88 46.8883 152.135 45.3557 152.876 43.5629C153.616 41.7702 153.808 39.798 153.426 37.8963C153.045 35.9945 152.108 34.2487 150.734 32.88C149.359 31.5113 147.61 30.5813 145.706 30.2078C143.803 29.8343 141.832 30.0341 140.042 30.7818C138.252 31.5296 136.725 32.7917 135.653 34.4083ZM148.586 36.6677C149.231 37.6097 149.583 38.7213 149.598 39.8629C149.621 40.6326 149.487 41.399 149.205 42.1157C148.923 42.8323 148.499 43.4843 147.958 44.0324C147.416 44.5805 146.77 45.0132 146.057 45.3044C145.344 45.5956 144.58 45.7393 143.81 45.7267C142.668 45.7266 141.552 45.389 140.602 44.7562C139.651 44.1234 138.909 43.2238 138.469 42.1704C138.029 41.1171 137.91 39.9571 138.127 38.8364C138.345 37.7156 138.889 36.6841 139.691 35.8717C140.493 35.0592 141.517 34.5021 142.635 34.2703C143.753 34.0385 144.914 34.1424 145.973 34.569C147.032 34.9956 147.941 35.7258 148.586 36.6677ZM179.957 30.5872L174.134 49.1385H170.199L166.34 36.637L162.446 49.1385H158.517L152.693 30.5872H156.919L160.517 43.3902L164.411 30.5872H168.235L172.094 43.3902L175.727 30.5872H179.957ZM185.314 30.5872H181.294V49.1385H185.314V30.5872ZM70.599 7.48843V11.8248C67.961 11.6439 64.8808 12.8649 64.8808 17.0204V26.3714H60.861V7.82006H64.8808V10.9354C65.9963 8.41298 68.2574 7.48843 70.599 7.48843ZM94.6776 30.1048C92.1653 30.1048 90.1554 31.0294 88.9293 32.9589V22.7988L85.6432 20.8794C85.4356 21.1773 85.1945 21.4504 84.9246 21.6934C83.8085 22.691 82.3563 23.2295 80.8596 23.2008C77.89 23.2008 75.5535 21.6934 74.9254 18.8192H89.6881C89.7775 18.2674 89.8278 17.7099 89.8388 17.151C89.8388 11.8097 86.0552 7.3578 80.5229 7.3578C74.6993 7.3578 70.7297 11.6238 70.7297 17.1158C70.7297 22.6079 74.6993 26.8739 80.8244 26.8739C82.2294 26.8843 83.6226 26.6179 84.9246 26.09V49.1536H88.9444V39.1895C88.9444 35.4059 91.0196 33.8482 93.6576 33.8482C96.17 33.8482 97.8081 35.3557 97.8081 38.1544V49.1335H101.828V37.7424C101.803 32.9237 98.8482 30.1048 94.6776 30.1048ZM80.4878 10.9756C82.8997 10.9756 85.2362 12.3474 85.7939 15.5381H74.8852C75.4429 12.7544 77.483 10.9756 80.4878 10.9756ZM103.498 22.6447C102.663 23.0459 101.743 23.2368 100.818 23.2008C97.8431 23.2008 95.5117 21.6934 94.8836 18.774H109.636C109.726 18.2221 109.776 17.6647 109.787 17.1058C109.787 11.7645 106.003 7.31255 100.476 7.31255C94.6524 7.31255 90.6779 11.5082 90.6779 17.0706C90.6779 22.633 94.6524 26.8286 100.773 26.8286C104.405 26.8286 107.189 25.3212 108.898 22.8089L105.606 20.8995C105.056 21.6445 104.332 22.2436 103.498 22.6447ZM100.446 10.9957C102.858 10.9957 105.194 12.3674 105.752 15.5582H94.8434C95.4212 12.7744 97.4311 10.9957 100.446 10.9957ZM151.457 23.2008C152.383 23.2376 153.303 23.0471 154.138 22.646C154.973 22.2448 155.696 21.6451 156.246 20.8995L159.547 22.829C157.839 25.3413 155.06 26.8488 151.422 26.8488C145.302 26.8488 141.332 22.6531 141.332 17.0907C141.332 11.5283 145.302 7.33266 151.126 7.33266C156.653 7.33266 160.436 11.7846 160.436 17.1259C160.427 17.6847 160.378 18.2421 160.291 18.7941H145.523C146.156 21.6934 148.493 23.2008 151.457 23.2008ZM156.391 15.5582C155.839 12.3675 153.502 10.9957 151.09 10.9957C148.076 10.9957 146.04 12.7745 145.488 15.5582H156.391ZM181.294 22.7737H185.304V26.3915H181.294V22.7737ZM31.0141 7.33266C28.5017 7.33266 26.4918 8.25721 25.2658 10.1867V8.06125V7.75977H21.246V9.29734V26.3815H25.2658V16.4174C25.2658 12.6338 27.341 11.0761 29.974 11.0761C32.4863 11.0761 34.1294 12.5835 34.1294 15.3823V26.3614H38.1492V14.9703C38.1492 10.1365 35.1846 7.33266 31.0141 7.33266ZM166.471 26.3614H162.451L162.466 7.78992H166.486V10.1867C167.717 8.25721 169.727 7.33266 172.239 7.33266C176.395 7.33266 179.36 10.1515 179.36 14.9703V26.3614H175.34V15.3823C175.34 12.5835 173.697 11.0761 171.184 11.0761C168.551 11.0761 166.471 12.6338 166.471 16.4174V26.3614ZM115.028 12.9403C115.028 11.6037 116.289 10.9756 117.736 10.9756C118.414 10.9409 119.088 11.0978 119.681 11.4284C120.273 11.759 120.761 12.2499 121.088 12.8448L124.56 11.1414C123.248 8.73457 120.751 7.34774 117.736 7.34774C113.952 7.34774 110.948 9.53853 110.948 13.0257C110.948 16.9182 114.38 17.8904 117.218 18.6946C119.22 19.2617 120.927 19.7452 120.927 21.1105C120.927 22.6179 119.555 23.1908 117.771 23.1908C115.987 23.1908 114.626 22.422 113.917 21.1105L110.37 22.8591C111.626 25.3313 114.224 26.8789 117.771 26.8789C121.791 26.8789 125.007 24.869 125.007 21.1658C125.007 17.1137 121.554 16.1509 118.711 15.3579C116.72 14.8027 115.028 14.3308 115.028 12.9403ZM133.212 10.9756C131.765 10.9756 130.504 11.6037 130.504 12.9403C130.504 14.3311 132.196 14.8029 134.188 15.3583C137.032 16.1512 140.486 17.1144 140.498 21.1658C140.498 24.869 137.282 26.8789 133.263 26.8789C129.71 26.8789 127.117 25.3313 125.861 22.8591L129.409 21.1105C130.117 22.422 131.479 23.1908 133.263 23.1908C135.046 23.1908 136.418 22.6179 136.418 21.1105C136.418 19.7452 134.71 19.2617 132.708 18.6946C129.868 17.8904 126.434 16.9182 126.434 13.0257C126.434 9.53853 129.439 7.34774 133.227 7.34774C136.242 7.34774 138.74 8.73457 140.051 11.1414L136.564 12.8448C136.236 12.2507 135.748 11.7605 135.156 11.43C134.563 11.0995 133.89 10.9421 133.212 10.9756Z"></path>
</svg>