<?xml version="1.0" encoding="UTF-8"?><svg id="Logos" xmlns="http://www.w3.org/2000/svg" viewBox="0 0 3121.1 1932.49"><defs><style>.cls-1{fill:none;}.cls-1,.cls-2{stroke-width:0px;}.cls-2{fill:#fff;}</style></defs><path class="cls-2" d="M1641.37,927.95c-.72,0-1.41.03-2.15.03-72.39,0-95.86-67.82-95.86-138.9,0-94.55,30-148.68,106.95-148.68.54,0,1.03.03,1.57.04-75.66.81-105.23,54.81-105.23,148.64,0,70.7,23.25,138.14,94.72,138.86ZM1651.87,640.44c45.17.42,65.6,18.22,65.6,18.22v236.07c-19.82,23.66-39.69,32.87-76.11,33.22.39,0,.75.03,1.14.03,37.82,0,58.04-9.13,78.25-33.25v-236.07s-20.87-18.26-67.17-18.26c-.58,0-1.14.03-1.72.04ZM721,485.5l6.14,11.59c14.32,27.27,17.04,30,17.04,228.39v110.87l58.69,113.23.62-217.28c0-204.52,3.41-210.66,16.36-235.2l6.14-11.59s-15.68,1.36-52.49,1.36-52.5-1.36-52.5-1.36ZM716.8,840.37l-183.95-354.87s-18.41,1.36-57.27,1.36c-46.36,0-63.4-1.36-63.4-1.36l6.14,11.59c14.32,27.27,17.04,30,17.04,228.39s-4.77,210.66-17.04,235.2l-6.14,11.59s15-1.36,51.13-1.36,53.17,1.36,53.17,1.36l-6.13-11.59c-14.32-27.27-16.36-30-16.36-228.39v-180.66c.68,4.77,8.18,30,18.41,49.77l192.93,371.55s36.21-2.04,68.93-2.04c3.64,0,7.03.04,10.26.1l-67.72-130.63h0ZM1213.47,773.2c0,81.81-35.45,207.25-185.43,207.25-118.62,0-177.94-82.49-177.94-197.02,0-81.81,35.45-206.57,185.43-206.57,118.62,0,177.94,81.81,177.94,196.34ZM1130.98,777.29c0-94.08-25.91-152.03-100.22-152.03-69.54,0-98.17,53.17-98.17,154.07,0,94.08,25.23,152.71,100.22,152.71,69.54,0,98.17-53.17,98.17-154.75ZM1392.78,932.73c-25.9,0-40.22-9.55-47.72-24.54-6.14-12.27-8.18-23.86-8.18-54.54v-221.57h43.63c56.59,0,66.81,6.82,66.81,6.82,0,0-.68-8.86-.68-29.31s.68-30,.68-30c0,0-10.91,7.5-66.81,7.5h-43.63v-85.22h-30.68s-13.64,32.04-39.54,70.9c-24.54,38.86-47.72,58.63-49.09,59.31h43.55c-.58,35.93-1.28,123.48-1.28,218.84,0,49.77,4.09,73.63,15.68,91.35,12.96,20.45,36.13,36.13,79.77,36.13,85.9,0,94.08-54.54,94.08-66.13,0,0-18.41,20.45-56.59,20.45ZM1805.51,950.15l5.87,11.08-91.3,16.3,2.61-75.64c-16.95,50.21-51.52,76.95-111.51,76.95-33.26,0-144.77-9.78-144.77-184.55,0-155.2,82.82-199.54,164.33-199.54,32.68,0,55.31,7.95,69.25,15.29l-4.69-8.86,95.86-16.3s-1.96,71.73-1.96,138.24l.13,104.27c.92,88.71,6.64,105.48,16.17,122.75ZM1720.76,658.66s-20.87-18.26-67.17-18.26c-.58,0-1.14.03-1.72.04-.53,0-1.03-.04-1.57-.04-76.95,0-106.95,54.13-106.95,148.68,0,71.08,23.48,138.9,95.86,138.9.74,0,1.42-.03,2.15-.03.39,0,.75.03,1.14.03,37.82,0,58.04-9.13,78.25-33.25v-236.07ZM2708.93,775.25v6.13h-250.88c0,71.58,25.23,145.21,117.26,145.21s118.62-47.04,118.62-47.04c0,49.77-38.86,99.53-139.76,99.53s-175.89-64.08-175.89-198.39c0-142.49,77.72-203.84,171.8-203.84,145.89,0,158.84,121.35,158.84,198.39ZM2629.16,732.3c0-33.79-3.6-86.48-45.54-105.05-1.21-.54-2.45-1.04-3.73-1.52-2.55-.96-5.23-1.79-8.05-2.5-7.04-1.77-14.95-2.73-23.82-2.73-5.75,0-11.63.34-17.48,1.22-1.95.29-3.9.65-5.84,1.07-33.64,7.3-65.01,34.96-66.67,122.47l171.12-12.95ZM2190.79,770.48c0,162.94-86.58,209.3-172.48,209.3-72.27,0-101.58-38.18-101.58-38.18l-70.22,38.86s6.14-41.59,6.14-188.16v-171.8c0-117.94-6.14-137.03-17.04-156.8l-6.13-11.59,100.22-17.04s-2.04,73.63-2.04,141.12v17.73c0,40.22-3.41,61.36-3.41,61.36,18.41-52.49,55.9-77.72,115.21-77.72,34.09,0,151.35,10.23,151.35,192.94ZM2109.66,776.61c0-2.25-.02-4.5-.07-6.75-.02-.74-.05-1.48-.06-2.22-.04-1.5-.08-3.01-.14-4.5-.04-.89-.09-1.77-.13-2.65-.07-1.34-.13-2.68-.21-4.02-.06-.96-.14-1.91-.2-2.86-.09-1.25-.18-2.51-.29-3.75-.09-.99-.18-1.97-.28-2.96-.12-1.2-.23-2.41-.36-3.6-.11-1-.23-2-.35-2.99-.14-1.16-.29-2.33-.44-3.48-.14-1.01-.28-2.01-.43-3.01-.17-1.13-.34-2.25-.52-3.37-.17-1.01-.34-2.02-.52-3.02-.19-1.09-.39-2.18-.6-3.26-.19-1.01-.39-2.01-.6-3.01-.22-1.06-.45-2.12-.69-3.17-.22-1-.45-2-.69-2.99-.25-1.03-.51-2.05-.77-3.06-.26-.99-.51-1.98-.78-2.96-.28-1-.57-1.98-.86-2.96-.29-.98-.58-1.96-.88-2.92-.3-.96-.62-1.9-.94-2.85-.32-.97-.64-1.93-.98-2.89-.33-.92-.68-1.82-1.02-2.72-.36-.95-.71-1.91-1.09-2.85-.35-.86-.72-1.71-1.09-2.56-.41-.95-.8-1.91-1.22-2.84-.36-.79-.74-1.55-1.11-2.32-1.75-3.66-3.66-7.18-5.72-10.55-.4-.65-.79-1.32-1.2-1.97-.57-.89-1.17-1.74-1.76-2.61-.45-.66-.9-1.34-1.36-1.98-.6-.83-1.23-1.64-1.86-2.45-.49-.64-.98-1.29-1.49-1.92-.64-.79-1.3-1.54-1.97-2.3-.53-.61-1.06-1.22-1.6-1.82-.68-.74-1.38-1.45-2.08-2.17-.57-.57-1.13-1.15-1.71-1.71-.72-.69-1.46-1.36-2.21-2.02-.6-.54-1.21-1.07-1.83-1.59-.76-.64-1.54-1.27-2.33-1.88-.64-.5-1.28-.98-1.93-1.46-.81-.59-1.63-1.17-2.47-1.74-.67-.45-1.35-.89-2.03-1.33-.86-.54-1.73-1.07-2.61-1.58-.7-.41-1.42-.8-2.14-1.18-.91-.49-1.82-.97-2.76-1.43-.73-.36-1.48-.69-2.23-1.03-.96-.44-1.93-.87-2.92-1.27-.76-.31-1.54-.59-2.32-.88-1.02-.38-2.04-.76-3.09-1.1-.78-.26-1.59-.48-2.39-.72-1.09-.32-2.17-.65-3.28-.93-.79-.2-1.61-.36-2.42-.55-1.17-.26-2.32-.54-3.52-.76-.74-.14-1.52-.23-2.27-.35-1.31-.21-2.6-.43-3.94-.6h0c-.21-.03-.43-.03-.65-.06-2.03-.23-4.1-.41-6.22-.54-2.14-.12-4.3-.19-6.53-.19s-4.24.04-6.29.1c-.57.02-1.13.04-1.7.06-1.69.06-3.34.15-4.96.25-.37.02-.75.04-1.11.07-1.87.14-3.69.31-5.48.5-.56.06-1.1.13-1.65.2-1.32.16-2.61.34-3.89.54-.55.08-1.1.16-1.64.25-1.61.27-3.19.57-4.73.9-.56.12-1.09.25-1.64.38-1.07.25-2.13.51-3.17.79-.62.17-1.25.33-1.86.51-1.28.37-2.54.76-3.78,1.18-.65.22-1.29.46-1.94.69-.91.33-1.81.67-2.7,1.04-.65.26-1.29.53-1.93.81-.83.36-1.65.75-2.46,1.13-.89.42-1.77.86-2.63,1.32-.83.44-1.66.88-2.47,1.34-.65.37-1.28.75-1.92,1.14-.67.41-1.32.83-1.98,1.25-.61.4-1.22.78-1.82,1.2,0,0,0,0,0,0-7.95,3.16-15.76,6.83-23.4,10.91l3.37,254.31s21.81,19.77,70.22,19.77c80.45,0,111.81-57.26,111.81-155.44ZM2321.27,786.84v-210.66c0-67.49,2.05-141.12,2.05-141.12l-100.22,17.72,6.14,11.59c12.95,25.23,17.04,45.68,17.04,169.76v152.71c0,136.35-4.09,149.98-17.04,173.85l-6.14,11.59s17.04-1.36,60.68-1.36,60.68,1.36,60.68,1.36l-6.14-11.59c-13.64-25.23-17.04-42.27-17.04-173.85ZM1327.74,1333l-.1-79.81c0-50.91,1.5-105.81,1.5-105.81l-73.37,12.48,3.59,6.78c-10.67-5.61-27.99-11.7-53-11.7-62.39,0-125.78,33.94-125.78,152.73,0,133.77,85.35,141.25,110.81,141.25,45.92,0,72.37-20.46,85.35-58.9l-2,57.9,69.88-12.48-4.49-8.48c-7.29-13.22-11.67-26.06-12.37-93.95ZM1212.84,1409.98c-55.4,0-73.37-51.91-73.37-106.31,0-72.37,22.96-113.8,81.86-113.8,35.44,0,51.41,13.98,51.41,13.98v180.68c-15.47,18.47-30.95,25.45-59.9,25.45ZM1279.44,1379.27c-.2.16-.42.33-.62.48.21-.16.41-.32.62-.48ZM1673.54,1072.99c0-23.48,15.65-33.4,38.61-33.4,21.39,0,37.57,9.91,37.57,31.83,0,24-15.13,33.92-38.09,33.92s-38.09-9.91-38.09-32.35ZM1057.89,1084.47s-1.04,12-1.04,35.48,1.04,38.61,1.04,38.61c-22.44-32.35-41.22-51.14-90.79-51.14-56.36,0-126.28,29.22-126.28,153.93,0,83.49,27.65,148.71,124.19,148.71,51.14,0,70.45-19.83,92.88-52.18,0,0-1.04,17.22-1.04,41.22,0,21.91,1.04,33.92,1.04,33.92,0,0-35.48,15.13-96.53,15.13-162.28,0-184.72-114.28-184.72-184.72,0-125.23,69.4-194.11,188.37-194.11,66.27,0,92.88,15.13,92.88,15.13ZM2199.97,1333l-.1-79.81c0-50.91,1.5-105.81,1.5-105.81l-73.37,12.48,3.59,6.78c-10.66-5.61-27.99-11.7-53-11.7-62.39,0-125.78,33.94-125.78,152.73,0,133.77,85.35,141.25,110.81,141.25,45.92,0,72.37-20.46,85.35-58.9l-2,57.9,69.88-12.48-4.49-8.48c-7.29-13.22-11.67-26.06-12.37-93.95ZM2144.97,1384.21v.32c-15.47,18.47-30.95,25.45-59.9,25.45-55.4,0-73.37-51.91-73.37-106.31,0-72.37,22.96-113.8,81.86-113.8,35.44,0,51.41,13.98,51.41,13.98v180.36ZM1522.02,1142.39c-48.53,0-75.66,21.39-89.23,61.57l2.09-60.01-73.57,13.05,4.7,8.87c7.3,13.24,11.81,26.08,12.83,89.48l.22,122.89c0,146.11-3.13,149.76-13.05,168.55l-4.7,8.87s13.57-1.04,46.96-1.04,46.44,1.04,46.44,1.04l-4.7-8.87c-9.92-17.74-13.04-23.48-13.04-118.45,0,0,21.39,21.39,69.4,21.39,65.23,0,131.49-35.48,131.49-159.67,0-139.84-89.23-147.67-115.84-147.67ZM1490.71,1413.21c-37.05,0-53.75-15.13-53.75-15.13l-4.09-190.16c5.19-3.46,10.03-6.38,14.44-8.83,13.25-11.42,28.26-16,51.74-16,58.44,0,77.23,54.27,77.23,111.15,0,75.66-24.52,118.97-85.58,118.97ZM2344.45,1445.04s-13.05-1.04-46.44-1.04-46.44,1.04-46.44,1.04l4.7-8.87c9.91-18.26,13.04-28.7,13.04-133.06v-116.88c0-94.97-3.13-110.62-13.04-129.93l-4.7-8.87,76.71-13.57s-1.57,56.35-1.57,108.01v161.24c0,100.71,2.61,113.75,13.05,133.06l4.7,8.87ZM1753.9,1436.17l4.69,8.87s-13.04-1.04-45.92-1.04-46.96,1.04-46.96,1.04l4.7-8.87c9.91-18.26,13.04-28.7,13.04-133.06v-16.7c0-90.27-4.69-104.88-13.04-120.02l-4.7-8.87,79.84-13.05s-4.7,29.22-4.7,141.41v17.22c0,96.53,2.09,112.19,13.05,133.06ZM1952.8,1399.12c0,8.87-6.26,50.62-72.01,50.62-33.4,0-51.14-12-61.05-27.66-8.87-13.57-12-31.83-12-69.92,0-72.99.54-140,.98-167.5h-33.33c1.04-.52,18.78-15.65,37.57-45.4,19.83-29.74,30.27-54.27,30.27-54.27h23.48v65.23h33.4c42.79,0,51.14-5.74,51.14-5.74,0,0-.52,7.31-.52,22.96s.52,22.44.52,22.44c0,0-7.83-5.22-51.14-5.22h-33.4v169.59c0,23.48,1.57,32.35,6.26,41.75,5.74,11.48,16.7,18.78,36.53,18.78,29.22,0,43.31-15.65,43.31-15.65Z"/><rect class="cls-1" x="0" width="3121.1" height="1932.49"/></svg>