<svg preserveAspectRatio="none" width="100%" height="100%" overflow="visible" style="display: block;" viewBox="0 0 297.835 164.276" fill="none" xmlns="http://www.w3.org/2000/svg">
<g id="Layer_1" clip-path="url(#clip0_340_39686)">
<path id="Vector" d="M148.826 34.7531L129.52 15.4474" stroke="var(--stroke-0, white)" stroke-width="1.0141" stroke-linejoin="round"/>
<path id="Vector_2" d="M160.696 59.3041L104.975 3.57599" stroke="var(--stroke-0, white)" stroke-width="1.29732" stroke-linejoin="round"/>
<path id="Vector_3" d="M163.612 74.8923L89.3795 0.659869" stroke="var(--stroke-0, white)" stroke-width="1.56226" stroke-linejoin="round"/>
<path id="Vector_4" d="M163.745 87.7L76.5731 0.527852" stroke="var(--stroke-0, white)" stroke-width="1.83634" stroke-linejoin="round"/>
<path id="Vector_5" d="M162.221 98.8415L65.433 2.05362" stroke="var(--stroke-0, white)" stroke-width="2.10129" stroke-linejoin="round"/>
<path id="Vector_6" d="M159.488 108.792L55.4814 4.78452" stroke="var(--stroke-0, white)" stroke-width="2.36624" stroke-linejoin="round"/>
<path id="Vector_7" d="M155.796 117.771L46.5062 8.48143" stroke="var(--stroke-0, white)" stroke-width="2.64032" stroke-linejoin="round"/>
<path id="Vector_8" d="M151.262 125.908L38.3659 13.0126" stroke="var(--stroke-0, white)" stroke-width="2.90526" stroke-linejoin="round"/>
<path id="Vector_9" d="M145.973 133.298L30.9777 18.3031" stroke="var(--stroke-0, white)" stroke-width="3.17021" stroke-linejoin="round"/>
<path id="Vector_10" d="M139.979 139.985L24.2864 24.2923" stroke="var(--stroke-0, white)" stroke-width="3.43515" stroke-linejoin="round"/>
<path id="Vector_11" d="M133.298 145.972L18.3023 30.9767" stroke="var(--stroke-0, white)" stroke-width="3.17021" stroke-linejoin="round"/>
<path id="Vector_12" d="M125.907 151.263L13.0117 38.367" stroke="var(--stroke-0, white)" stroke-width="2.90526" stroke-linejoin="round"/>
<path id="Vector_13" d="M117.772 155.796L8.48186 46.5059" stroke="var(--stroke-0, white)" stroke-width="2.64032" stroke-linejoin="round"/>
<path id="Vector_14" d="M108.79 159.49L4.78345 55.4826" stroke="var(--stroke-0, white)" stroke-width="2.36624" stroke-linejoin="round"/>
<path id="Vector_15" d="M98.8406 162.22L2.05276 65.4326" stroke="var(--stroke-0, white)" stroke-width="2.10129" stroke-linejoin="round"/>
<path id="Vector_16" d="M0.524402 76.5768L87.6965 163.749" stroke="var(--stroke-0, white)" stroke-width="1.83634" stroke-linejoin="round"/>
<path id="Vector_17" d="M74.8897 163.615L0.657228 89.3823" stroke="var(--stroke-0, white)" stroke-width="1.56226" stroke-linejoin="round"/>
<path id="Vector_18" d="M59.3006 160.7L3.57249 104.979" stroke="var(--stroke-0, white)" stroke-width="1.29732" stroke-linejoin="round"/>
<path id="Vector_19" d="M34.7496 148.83L15.444 129.524" stroke="var(--stroke-0, white)" stroke-width="1.0141" stroke-linejoin="round"/>
<path id="Vector_20" d="M282.39 34.7531L263.084 15.4474" stroke="var(--stroke-0, white)" stroke-width="1.0141" stroke-linejoin="round"/>
<path id="Vector_21" d="M294.257 59.3041L238.529 3.57599" stroke="var(--stroke-0, white)" stroke-width="1.29732" stroke-linejoin="round"/>
<path id="Vector_22" d="M297.172 74.8923L222.94 0.659869" stroke="var(--stroke-0, white)" stroke-width="1.56226" stroke-linejoin="round"/>
<path id="Vector_23" d="M297.306 87.7L210.134 0.527852" stroke="var(--stroke-0, white)" stroke-width="1.83634" stroke-linejoin="round"/>
<path id="Vector_24" d="M295.778 98.8415L198.99 2.05362" stroke="var(--stroke-0, white)" stroke-width="2.10129" stroke-linejoin="round"/>
<path id="Vector_25" d="M293.049 108.792L189.042 4.78452" stroke="var(--stroke-0, white)" stroke-width="2.36624" stroke-linejoin="round"/>
<path id="Vector_26" d="M289.351 117.771L180.061 8.48143" stroke="var(--stroke-0, white)" stroke-width="2.64032" stroke-linejoin="round"/>
<path id="Vector_27" d="M284.819 125.908L171.923 13.0126" stroke="var(--stroke-0, white)" stroke-width="2.90526" stroke-linejoin="round"/>
<path id="Vector_28" d="M279.528 133.298L164.533 18.3031" stroke="var(--stroke-0, white)" stroke-width="3.17021" stroke-linejoin="round"/>
<path id="Vector_29" d="M273.534 139.985L157.849 24.2923" stroke="var(--stroke-0, white)" stroke-width="3.43515" stroke-linejoin="round"/>
<path id="Vector_30" d="M266.858 145.972L151.863 30.9767" stroke="var(--stroke-0, white)" stroke-width="3.17021" stroke-linejoin="round"/>
<path id="Vector_31" d="M259.468 151.263L146.572 38.367" stroke="var(--stroke-0, white)" stroke-width="2.90526" stroke-linejoin="round"/>
<path id="Vector_32" d="M251.327 155.796L142.037 46.5059" stroke="var(--stroke-0, white)" stroke-width="2.64032" stroke-linejoin="round"/>
<path id="Vector_33" d="M242.351 159.49L138.344 55.4826" stroke="var(--stroke-0, white)" stroke-width="2.36624" stroke-linejoin="round"/>
<path id="Vector_34" d="M232.401 162.22L135.613 65.4326" stroke="var(--stroke-0, white)" stroke-width="2.10129" stroke-linejoin="round"/>
<path id="Vector_35" d="M134.083 76.5768L221.255 163.749" stroke="var(--stroke-0, white)" stroke-width="1.83634" stroke-linejoin="round"/>
<path id="Vector_36" d="M208.45 163.615L134.218 89.3823" stroke="var(--stroke-0, white)" stroke-width="1.56226" stroke-linejoin="round"/>
<path id="Vector_37" d="M192.855 160.7L137.135 104.979" stroke="var(--stroke-0, white)" stroke-width="1.29732" stroke-linejoin="round"/>
<path id="Vector_38" d="M168.31 148.83L149.004 129.524" stroke="var(--stroke-0, white)" stroke-width="1.0141" stroke-linejoin="round"/>
</g>
<defs>
<clipPath id="clip0_340_39686">
<rect width="297.835" height="164.276" fill="white"/>
</clipPath>
</defs>
</svg>
