<svg preserveAspectRatio="none" width="100%" height="100%" overflow="visible" style="display: block;" viewBox="0 0 164.142 164.276" fill="none" xmlns="http://www.w3.org/2000/svg">
<g id="Layer_1" clip-path="url(#clip0_340_39828)">
<path id="Vector" d="M0.269101 71.4686L65.0711 6.66662" stroke="var(--stroke-0, white)" stroke-width="0.911898" stroke-linecap="round" stroke-linejoin="round"/>
<path id="Vector_2" d="M8.62159 68.2494L73.4235 3.44743" stroke="var(--stroke-0, white)" stroke-width="1.03956" stroke-linejoin="round"/>
<path id="Vector_3" d="M16.9465 66.1513L81.7484 1.35467" stroke="var(--stroke-0, white)" stroke-width="1.17635" stroke-linejoin="round"/>
<path id="Vector_4" d="M25.1748 65.1175L89.9767 0.320959" stroke="var(--stroke-0, white)" stroke-width="1.30401" stroke-linejoin="round"/>
<path id="Vector_5" d="M33.2599 65.096L98.0565 0.299397" stroke="var(--stroke-0, white)" stroke-width="1.43168" stroke-linejoin="round"/>
<path id="Vector_6" d="M41.138 66.0265L105.935 1.22993" stroke="var(--stroke-0, white)" stroke-width="1.55935" stroke-linejoin="round"/>
<path id="Vector_7" d="M48.7435 67.85L113.545 3.04809" stroke="var(--stroke-0, white)" stroke-width="1.69613" stroke-linejoin="round"/>
<path id="Vector_8" d="M56.0351 70.5079L120.837 5.71128" stroke="var(--stroke-0, white)" stroke-width="1.8238" stroke-linejoin="round"/>
<path id="Vector_9" d="M62.949 73.9498L127.751 9.14782" stroke="var(--stroke-0, white)" stroke-width="1.95146" stroke-linejoin="round"/>
<path id="Vector_10" d="M69.4264 78.1119L134.228 13.3153" stroke="var(--stroke-0, white)" stroke-width="2.08825" stroke-linejoin="round"/>
<path id="Vector_11" d="M75.4122 82.9389L140.214 18.1423" stroke="var(--stroke-0, white)" stroke-width="2.21591" stroke-linejoin="round"/>
<path id="Vector_12" d="M80.8442 88.3775L145.646 23.5756" stroke="var(--stroke-0, white)" stroke-width="2.34358" stroke-linejoin="round"/>
<path id="Vector_13" d="M85.6708 94.3577L150.473 29.5611" stroke="var(--stroke-0, white)" stroke-width="2.47124" stroke-linejoin="round"/>
<path id="Vector_14" d="M89.8367 100.837L154.633 36.0352" stroke="var(--stroke-0, white)" stroke-width="2.60803" stroke-linejoin="round"/>
<path id="Vector_15" d="M93.2746 107.748L158.077 42.9513" stroke="var(--stroke-0, white)" stroke-width="2.73569" stroke-linejoin="round"/>
<path id="Vector_16" d="M95.9346 115.038L160.731 50.2418" stroke="var(--stroke-0, white)" stroke-width="2.86336" stroke-linejoin="round"/>
<path id="Vector_17" d="M97.7562 122.651L162.558 57.8495" stroke="var(--stroke-0, white)" stroke-width="3.00015" stroke-linejoin="round"/>
<path id="Vector_18" d="M98.686 130.527L163.488 65.7246" stroke="var(--stroke-0, white)" stroke-width="3.12781" stroke-linejoin="round"/>
<path id="Vector_19" d="M98.6653 138.607L163.467 73.8102" stroke="var(--stroke-0, white)" stroke-width="3.25548" stroke-linejoin="round"/>
<path id="Vector_20" d="M97.6337 146.838L162.436 82.0417" stroke="var(--stroke-0, white)" stroke-width="3.38314" stroke-linejoin="round"/>
<path id="Vector_21" d="M95.5378 155.159L160.334 90.3625" stroke="var(--stroke-0, white)" stroke-width="3.51993" stroke-linejoin="round"/>
<path id="Vector_22" d="M92.3155 163.517L157.112 98.7154" stroke="var(--stroke-0, white)" stroke-width="3.64759" stroke-linejoin="round"/>
</g>
<defs>
<clipPath id="clip0_340_39828">
<rect width="164.142" height="164.276" fill="white"/>
</clipPath>
</defs>
</svg>
