<svg preserveAspectRatio="none" width="100%" height="100%" overflow="visible" style="display: block;" viewBox="0 0 164.276 164.276" fill="none" xmlns="http://www.w3.org/2000/svg">
<g id="Layer_1" clip-path="url(#clip0_340_39782)">
<path id="Vector" d="M0.710703 99.9131L64.3645 163.562" stroke="var(--stroke-0, white)" stroke-width="0.912644" stroke-miterlimit="10"/>
<path id="Vector_2" d="M0.710703 90.4659L64.3645 154.115" stroke="var(--stroke-0, white)" stroke-width="1.04041" stroke-linejoin="round"/>
<path id="Vector_3" d="M0.710703 81.015L64.3645 144.669" stroke="var(--stroke-0, white)" stroke-width="1.17731" stroke-linejoin="round"/>
<path id="Vector_4" d="M0.710703 71.5678L64.3645 135.222" stroke="var(--stroke-0, white)" stroke-width="1.30508" stroke-linejoin="round"/>
<path id="Vector_5" d="M0.710703 62.1205L64.3645 125.769" stroke="var(--stroke-0, white)" stroke-width="1.43285" stroke-linejoin="round"/>
<path id="Vector_6" d="M0.710703 52.6768L64.3645 116.326" stroke="var(--stroke-0, white)" stroke-width="1.56062" stroke-linejoin="round"/>
<path id="Vector_7" d="M0.710703 43.2294L64.3645 106.878" stroke="var(--stroke-0, white)" stroke-width="1.69752" stroke-linejoin="round"/>
<path id="Vector_8" d="M0.710703 33.7785L64.3645 97.4322" stroke="var(--stroke-0, white)" stroke-width="1.82529" stroke-linejoin="round"/>
<path id="Vector_9" d="M0.710703 24.3312L64.3645 87.98" stroke="var(--stroke-0, white)" stroke-width="1.95306" stroke-linejoin="round"/>
<path id="Vector_10" d="M0.710703 14.8838L64.3645 78.5325" stroke="var(--stroke-0, white)" stroke-width="2.08995" stroke-linejoin="round"/>
<path id="Vector_11" d="M0.710703 5.44014L64.3645 69.0889" stroke="var(--stroke-0, white)" stroke-width="2.21773" stroke-linejoin="round"/>
<path id="Vector_12" d="M5.43895 0.709409L69.0877 64.3632" stroke="var(--stroke-0, white)" stroke-width="2.3455" stroke-linejoin="round"/>
<path id="Vector_13" d="M14.8851 0.709409L78.5338 64.3632" stroke="var(--stroke-0, white)" stroke-width="2.47327" stroke-linejoin="round"/>
<path id="Vector_14" d="M24.3312 0.709409L87.98 64.3632" stroke="var(--stroke-0, white)" stroke-width="2.61016" stroke-linejoin="round"/>
<path id="Vector_15" d="M33.7774 0.709409L97.4311 64.3632" stroke="var(--stroke-0, white)" stroke-width="2.73793" stroke-linejoin="round"/>
<path id="Vector_16" d="M43.2304 0.709409L106.879 64.3632" stroke="var(--stroke-0, white)" stroke-width="2.8657" stroke-linejoin="round"/>
<path id="Vector_17" d="M52.6748 0.709409L116.324 64.3632" stroke="var(--stroke-0, white)" stroke-width="3.0026" stroke-linejoin="round"/>
<path id="Vector_18" d="M62.1244 0.709409L125.773 64.3632" stroke="var(--stroke-0, white)" stroke-width="3.13037" stroke-linejoin="round"/>
<path id="Vector_19" d="M71.5688 0.709409L135.223 64.3632" stroke="var(--stroke-0, white)" stroke-width="3.25814" stroke-linejoin="round"/>
<path id="Vector_20" d="M81.0133 0.709409L144.667 64.3632" stroke="var(--stroke-0, white)" stroke-width="3.38591" stroke-linejoin="round"/>
<path id="Vector_21" d="M90.4663 0.709409L154.115 64.3632" stroke="var(--stroke-0, white)" stroke-width="3.52281" stroke-linejoin="round"/>
<path id="Vector_22" d="M99.9107 0.709409L163.559 64.3632" stroke="var(--stroke-0, white)" stroke-width="3.65058" stroke-linejoin="round"/>
<path id="Vector_23" d="M163.559 64.3632L99.9107 0.709409" stroke="var(--stroke-0, white)" stroke-width="0.912644" stroke-miterlimit="10"/>
<path id="Vector_24" d="M163.559 73.809L99.9107 10.1603" stroke="var(--stroke-0, white)" stroke-width="1.04041" stroke-linejoin="round"/>
<path id="Vector_25" d="M163.559 83.2565L99.9107 19.6077" stroke="var(--stroke-0, white)" stroke-width="1.17731" stroke-linejoin="round"/>
<path id="Vector_26" d="M163.559 92.7087L99.9107 29.055" stroke="var(--stroke-0, white)" stroke-width="1.30508" stroke-linejoin="round"/>
<path id="Vector_27" d="M163.559 102.156L99.9107 38.5022" stroke="var(--stroke-0, white)" stroke-width="1.43285" stroke-linejoin="round"/>
<path id="Vector_28" d="M163.559 111.602L99.9107 47.9531" stroke="var(--stroke-0, white)" stroke-width="1.56062" stroke-linejoin="round"/>
<path id="Vector_29" d="M163.559 121.046L99.9107 57.3968" stroke="var(--stroke-0, white)" stroke-width="1.69752" stroke-linejoin="round"/>
<path id="Vector_30" d="M163.559 130.493L99.9107 66.844" stroke="var(--stroke-0, white)" stroke-width="1.82529" stroke-linejoin="round"/>
<path id="Vector_31" d="M163.559 139.945L99.9107 76.2913" stroke="var(--stroke-0, white)" stroke-width="1.95306" stroke-linejoin="round"/>
<path id="Vector_32" d="M163.559 149.391L99.9107 85.7424" stroke="var(--stroke-0, white)" stroke-width="2.08995" stroke-linejoin="round"/>
<path id="Vector_33" d="M163.559 158.838L99.9107 95.1896" stroke="var(--stroke-0, white)" stroke-width="2.21773" stroke-linejoin="round"/>
<path id="Vector_34" d="M158.836 163.562L95.1876 99.9131" stroke="var(--stroke-0, white)" stroke-width="2.3455" stroke-linejoin="round"/>
<path id="Vector_35" d="M149.39 163.562L85.7415 99.9131" stroke="var(--stroke-0, white)" stroke-width="2.47327" stroke-linejoin="round"/>
<path id="Vector_36" d="M139.944 163.562L76.2902 99.9131" stroke="var(--stroke-0, white)" stroke-width="2.61016" stroke-linejoin="round"/>
<path id="Vector_37" d="M130.493 163.562L66.844 99.9131" stroke="var(--stroke-0, white)" stroke-width="2.73793" stroke-linejoin="round"/>
<path id="Vector_38" d="M121.048 163.562L57.3996 99.9131" stroke="var(--stroke-0, white)" stroke-width="2.8657" stroke-linejoin="round"/>
<path id="Vector_39" d="M111.601 163.562L47.9518 99.9131" stroke="var(--stroke-0, white)" stroke-width="3.0026" stroke-linejoin="round"/>
<path id="Vector_40" d="M102.154 163.562L38.5004 99.9131" stroke="var(--stroke-0, white)" stroke-width="3.13037" stroke-linejoin="round"/>
<path id="Vector_41" d="M92.7098 163.562L29.056 99.9131" stroke="var(--stroke-0, white)" stroke-width="3.25814" stroke-linejoin="round"/>
<path id="Vector_42" d="M83.2586 163.562L19.6099 99.9131" stroke="var(--stroke-0, white)" stroke-width="3.38591" stroke-linejoin="round"/>
<path id="Vector_43" d="M73.8142 163.562L10.1655 99.9131" stroke="var(--stroke-0, white)" stroke-width="3.52281" stroke-linejoin="round"/>
<path id="Vector_44" d="M64.3645 163.562L0.710703 99.9131" stroke="var(--stroke-0, white)" stroke-width="3.65058" stroke-linejoin="round"/>
</g>
<defs>
<clipPath id="clip0_340_39782">
<rect width="164.276" height="164.276" fill="white"/>
</clipPath>
</defs>
</svg>
