<svg width="88" height="63" viewBox="0 0 88 63" fill="none" xmlns="http://www.w3.org/2000/svg">
<path d="M36.629 7.49137C38.0659 5.97967 39.7963 4.77714 41.7141 3.9574C43.632 3.13766 45.6969 2.71797 47.7826 2.72401C53.6018 2.72401 58.6457 5.94509 61.3597 10.7446C63.7753 9.6839 66.3846 9.13551 69.0227 9.13404C79.4975 9.13404 88 17.67 88 28.2035C88 38.737 79.4975 47.2744 69.0227 47.2744C67.7293 47.2744 66.5015 47.1445 65.2723 46.8874C64.067 49.0354 62.312 50.8239 60.1871 52.0695C58.0623 53.315 55.6443 53.9727 53.1813 53.9749C51.0163 53.9749 48.9462 53.4581 47.1037 52.5893C44.6789 58.2269 39.086 62.1883 32.5558 62.1883C29.3249 62.1936 26.1701 61.2083 23.5166 59.365C20.8631 57.5217 18.8386 54.9092 17.7159 51.8797C16.7465 52.0739 15.7436 52.2024 14.71 52.2024C6.56229 52.1381 0 45.5339 0 37.3527C0 31.8772 2.94171 27.1084 7.33892 24.5312C6.41129 22.3972 5.93797 20.0934 5.94908 17.7664C5.94908 8.39372 13.5771 0.790802 23.0183 0.790802C28.579 0.790802 33.4931 3.40007 36.629 7.49137Z" fill="white"/>
<path d="M12.739 32.6175C12.6733 32.746 12.7711 32.7781 12.7711 32.8103C12.9317 32.9388 13.0938 33.0044 13.2879 33.1008C14.1931 33.5841 15.034 33.7126 15.907 33.7126C17.7173 33.7126 18.8487 32.746 18.8487 31.2318V31.1997C18.8487 29.7819 17.5874 29.2665 16.3903 28.881L16.2297 28.8167C15.3245 28.5262 14.5479 28.2692 14.5479 27.6881V27.656C14.5479 27.1405 15.0018 26.7871 15.7128 26.7871C16.4881 26.7871 17.4253 27.0442 18.0078 27.3668C18.0078 27.3668 18.1698 27.4632 18.2341 27.3026C18.2662 27.2048 18.5582 26.4002 18.5903 26.3038C18.6224 26.2061 18.5582 26.1418 18.4925 26.1097C17.8137 25.6906 16.8764 25.4336 15.907 25.4336H15.7114C14.0632 25.4336 12.8996 26.4324 12.8996 27.8501V27.8823C12.8996 29.3964 14.161 29.8797 15.358 30.201L15.5508 30.2652C16.4238 30.5237 17.1669 30.7485 17.1669 31.3604V31.3925C17.1669 31.94 16.6822 32.3591 15.907 32.3591C15.615 32.3591 14.6457 32.3591 13.5785 31.683C13.45 31.6188 13.3843 31.5545 13.2879 31.4903C13.2237 31.4581 13.0938 31.3925 13.0617 31.5866L12.7376 32.6175H12.739ZM39.1823 32.6175C39.118 32.746 39.2144 32.7781 39.2144 32.8103C39.3764 32.9388 39.5385 33.0044 39.7312 33.1008C40.6378 33.5841 41.4773 33.7126 42.3503 33.7126C44.1606 33.7126 45.292 32.746 45.292 31.2318V31.1997C45.292 29.7819 44.0321 29.2665 42.835 28.881L42.6744 28.8167C41.7692 28.5262 40.9926 28.2692 40.9926 27.6881V27.656C40.9926 27.1405 41.4451 26.7871 42.1561 26.7871C42.9328 26.7871 43.87 27.0442 44.4525 27.3668C44.4525 27.3668 44.6131 27.4632 44.6788 27.3026C44.7109 27.2048 45.0015 26.4002 45.0336 26.3038C45.0657 26.2061 45.0015 26.1418 44.9358 26.1097C44.2583 25.6906 43.3211 25.4336 42.3517 25.4336H42.1561C40.5079 25.4336 39.3443 26.4324 39.3443 27.8501V27.8823C39.3443 29.3964 40.6043 29.8797 41.8013 30.201L41.9955 30.2652C42.8685 30.5237 43.6116 30.7485 43.6116 31.3604V31.3925C43.6116 31.94 43.1269 32.3591 42.3503 32.3591C42.0597 32.3591 41.0904 32.3591 40.0232 31.683C39.8933 31.6188 39.829 31.5545 39.7326 31.4903C39.6991 31.4581 39.5371 31.4246 39.505 31.5866L39.1837 32.6175H39.1823ZM58.7099 27.9786C58.5627 27.5121 58.3327 27.0759 58.0311 26.6908C57.707 26.336 57.3187 26.0133 56.8675 25.8205C56.4149 25.5957 55.8646 25.4993 55.25 25.4993C54.6354 25.4993 54.0864 25.5957 53.6338 25.8205C53.1952 26.0357 52.8006 26.3309 52.4703 26.6908C52.1567 27.068 51.9255 27.5067 51.7914 27.9786C51.6305 28.5 51.5541 29.0437 51.5651 29.5892C51.5651 30.1689 51.6294 30.7164 51.7914 31.1997C51.9535 31.683 52.1797 32.1356 52.4703 32.489C52.793 32.8424 53.1827 33.1651 53.6338 33.3578C54.0864 33.552 54.6368 33.6805 55.25 33.6805C55.8646 33.6805 56.4149 33.5827 56.8675 33.3592C57.3201 33.1651 57.707 32.8424 58.0311 32.489C58.3448 32.1113 58.576 31.6721 58.7099 31.1997C58.8719 30.7164 58.9362 30.1689 58.9362 29.5892C58.9362 29.0095 58.8719 28.4941 58.7099 27.9786ZM57.1902 29.5892C57.1902 30.4594 57.0295 31.1355 56.7055 31.6188C56.3828 32.1021 55.8967 32.3284 55.2514 32.3284C54.5725 32.3284 54.1199 32.1021 53.7959 31.6188C53.4732 31.1355 53.3112 30.4594 53.3112 29.5892C53.3112 28.7204 53.4732 28.0429 53.7959 27.5596C54.1185 27.0763 54.5725 26.8514 55.25 26.8514C55.9302 26.8514 56.4149 27.0777 56.7055 27.5596C57.0295 28.0429 57.1902 28.719 57.1902 29.5892Z" fill="#00A1E1"/>
<path fill-rule="evenodd" clip-rule="evenodd" d="M71.093 32.1356C71.0287 31.9735 70.8988 32.0378 70.8988 32.0378C70.6725 32.1356 70.4462 32.1984 70.1864 32.2305C69.9294 32.2627 69.6696 32.2962 69.3483 32.2962C68.6038 32.2962 68.0535 32.0699 67.633 31.6509C67.214 31.2318 66.9877 30.5236 66.9877 29.5891C66.9877 28.751 67.1805 28.1085 67.5688 27.6238C67.925 27.1419 68.506 26.8835 69.2505 26.8835C69.8651 26.8835 70.3498 26.9477 70.8345 27.1098C70.8345 27.1098 70.9631 27.174 70.9966 27.012C71.1251 26.6586 71.2229 26.4002 71.3514 25.9811C71.3835 25.8526 71.2871 25.8205 71.2536 25.8205C70.9251 25.7152 70.5907 25.6294 70.2521 25.5635C69.9294 25.4992 69.5411 25.4992 69.1206 25.4992C68.4739 25.4992 67.925 25.5956 67.4403 25.8205C66.977 26.0265 66.5593 26.3223 66.2111 26.6907C65.8775 27.0644 65.6245 27.5028 65.4679 27.9786C65.2959 28.4981 65.2086 29.0419 65.2095 29.5891C65.2095 30.8463 65.5322 31.845 66.2111 32.5853C66.8899 33.3256 67.8928 33.7126 69.1863 33.7126C69.9615 33.7126 70.7368 33.5519 71.3192 33.3256C71.3192 33.3256 71.417 33.2614 71.3835 33.1329L71.093 32.1342V32.1356ZM78.7881 27.6881C78.6546 27.2516 78.4346 26.8464 78.1413 26.4966C77.8187 26.1418 77.4946 25.8848 77.1719 25.7562C76.7136 25.5549 76.217 25.4557 75.7165 25.4657C75.0697 25.4657 74.4872 25.5635 74.0361 25.787C73.5783 25.9855 73.1778 26.2958 72.8711 26.6893C72.5454 27.071 72.3134 27.5235 72.1937 28.0107C72.035 28.5326 71.9586 29.0759 71.9674 29.6213C71.9674 30.2009 72.0316 30.7485 72.1937 31.2318C72.3543 31.7151 72.5806 32.1663 72.9368 32.5197C73.2594 32.8745 73.712 33.165 74.2302 33.3578C74.7471 33.5505 75.3617 33.6483 76.0726 33.6483C77.5603 33.6483 78.3355 33.3256 78.626 33.1315C78.6917 33.1008 78.7238 33.0351 78.6582 32.8745L78.3355 31.94C78.2712 31.8115 78.1413 31.8436 78.1413 31.8436C77.7851 31.9721 77.2683 32.2305 76.0405 32.2305C75.2639 32.2305 74.6507 32.0042 74.2945 31.6187C73.9062 31.2318 73.7441 30.6843 73.712 29.9425H78.8202C78.8202 29.9425 78.9501 29.9425 78.9822 29.814C78.9501 29.8462 79.1121 28.8488 78.7881 27.6881ZM73.712 28.751C73.7777 28.2677 73.9076 27.8822 74.1324 27.5596C74.4565 27.0762 74.9091 26.8192 75.5879 26.8192C76.2668 26.8192 76.6872 27.0762 77.0099 27.5596C77.2041 27.8808 77.3004 28.2999 77.334 28.751H73.7106H73.712ZM37.9561 27.6881C37.8226 27.2516 37.6026 26.8464 37.3093 26.4966C36.9853 26.1418 36.6626 25.8848 36.3385 25.7562C35.8807 25.5551 35.3845 25.4559 34.8844 25.4657C34.2377 25.4657 33.6552 25.5635 33.2027 25.787C32.7454 25.9857 32.3454 26.2959 32.0391 26.6893C31.7129 27.0709 31.4804 27.5234 31.3603 28.0107C31.2016 28.5326 31.1253 29.0759 31.134 29.6213C31.134 30.2009 31.1982 30.7485 31.3603 31.2318C31.5223 31.7151 31.7486 32.1663 32.1034 32.5197C32.4274 32.8745 32.88 33.165 33.3968 33.3578C33.9137 33.5505 34.5283 33.6483 35.2406 33.6483C36.7269 33.6483 37.5035 33.3256 37.794 33.1315C37.8583 33.1008 37.8918 33.0351 37.8262 32.8745L37.5035 31.94C37.4378 31.8115 37.3079 31.8436 37.3079 31.8436C36.9531 31.9721 36.4363 32.2305 35.2071 32.2305C34.4319 32.2305 33.8173 32.0042 33.4611 31.6187C33.0742 31.2318 32.9121 30.6843 32.88 29.9425H37.9882C37.9882 29.9425 38.1167 29.9425 38.1488 29.814C38.1167 29.8462 38.2787 28.8488 37.9561 27.6881ZM32.88 28.751C32.9443 28.2677 33.0742 27.8822 33.2991 27.5596C33.6231 27.0762 34.0757 26.8192 34.7545 26.8192C35.4334 26.8192 35.8538 27.0762 36.1779 27.5596C36.3721 27.8808 36.4684 28.2999 36.5006 28.751H32.8814H32.88Z" fill="#00A1E1"/>
<path d="M23.8928 28.5262C23.6986 28.5262 23.4081 28.4941 23.084 28.4941C22.6328 28.4941 22.2124 28.5583 21.8241 28.6547C21.4416 28.7487 21.0798 28.9126 20.7569 29.138C20.4518 29.3607 20.1984 29.6466 20.0138 29.9761C19.8182 30.2974 19.7554 30.7164 19.7554 31.1355C19.7554 31.5866 19.8196 31.9736 19.9817 32.2948C20.1423 32.6161 20.3686 32.8745 20.6605 33.1008C20.9771 33.3085 21.3266 33.461 21.6942 33.552C22.0825 33.6484 22.5351 33.6805 23.0519 33.6805C23.5687 33.6805 24.0869 33.6484 24.6038 33.552C25.0898 33.4542 25.7031 33.3578 25.8972 33.2936C26.0592 33.2614 26.2534 33.1958 26.2534 33.1958C26.3819 33.1651 26.3819 33.0365 26.3819 33.0365V28.3977C26.3819 27.3668 26.1235 26.6251 25.5745 26.1418C25.0242 25.692 24.2476 25.4336 23.246 25.4336C22.8591 25.4336 22.2445 25.4979 21.8883 25.5621C21.8883 25.5621 20.789 25.7884 20.3043 26.1418C20.3043 26.1418 20.2065 26.2075 20.2722 26.336L20.6284 27.3026C20.6605 27.4311 20.789 27.399 20.789 27.399C20.789 27.399 20.8211 27.399 20.8868 27.3668C21.8562 26.85 23.1175 26.85 23.1175 26.85C23.6665 26.85 24.0869 26.9478 24.3775 27.1727C24.6694 27.399 24.7979 27.7202 24.7979 28.3977V28.6226C24.2811 28.5583 23.8928 28.5262 23.8928 28.5262ZM21.8562 32.1021C21.662 31.94 21.6299 31.9079 21.5657 31.8115C21.4516 31.605 21.3956 31.3713 21.4036 31.1355C21.4036 30.6843 21.5657 30.363 21.8562 30.1367C21.8562 30.1367 22.3088 29.7498 23.3438 29.7819C24.0869 29.7819 24.7337 29.9118 24.7337 29.9118V32.2306C24.7337 32.2306 24.0869 32.3591 23.3438 32.4233C22.3088 32.4555 21.8562 32.1021 21.8562 32.1021Z" fill="#00A1E1"/>
<path fill-rule="evenodd" clip-rule="evenodd" d="M65.0152 25.9169C65.0473 25.7884 64.9831 25.7562 64.951 25.7241C64.677 25.647 64.3946 25.6033 64.1101 25.5942C63.4633 25.5621 63.1086 25.6585 62.7845 25.8205C62.4444 25.9591 62.1443 26.1804 61.9115 26.4644V25.8526C61.9115 25.7548 61.8472 25.6906 61.7508 25.6906H60.4574C60.3596 25.6906 60.2953 25.7562 60.2953 25.8526V33.4234C60.2953 33.5198 60.3596 33.584 60.4574 33.584H61.783C61.8807 33.584 61.9436 33.5184 61.9436 33.422V29.5891C61.9436 29.0737 62.0093 28.5583 62.1056 28.2691C62.2034 27.9465 62.364 27.688 62.5582 27.5274C62.7524 27.3346 62.9465 27.2061 63.1728 27.1405C63.394 27.0791 63.6222 27.0467 63.8517 27.0441C64.1101 27.0441 64.4006 27.1084 64.4006 27.1084C64.4984 27.1084 64.5626 27.0441 64.5962 26.9799C64.7247 26.7228 64.9831 26.0454 65.0152 25.9169ZM52.4368 22.3731C52.2698 22.3115 52.0964 22.2684 51.92 22.2446C51.6959 22.2041 51.4688 22.1826 51.2411 22.1804C50.3039 22.1804 49.5929 22.4374 49.076 22.9528C48.5592 23.4696 48.2352 24.2421 48.041 25.2715L47.9753 25.6277H46.8118C46.8118 25.6277 46.6833 25.6277 46.6512 25.7884L46.4556 26.8499C46.4556 26.9477 46.4891 27.012 46.6176 27.012H47.7491L46.6176 33.3578C46.5212 33.8746 46.4249 34.2936 46.3271 34.6149C46.2293 34.9362 46.1008 35.1625 45.9709 35.3231C45.8424 35.4837 45.7125 35.6136 45.5183 35.6779C45.3577 35.7421 45.1314 35.7743 44.9037 35.7743C44.7752 35.7743 44.6146 35.7421 44.4847 35.7421C44.3548 35.71 44.2905 35.6779 44.1941 35.6444C44.1941 35.6444 44.0642 35.5815 43.9986 35.7421C43.9679 35.8385 43.6438 36.6766 43.6117 36.773C43.5795 36.8694 43.6117 36.9658 43.6759 36.9658C43.8379 37.03 43.9343 37.0635 44.1285 37.0943C44.4204 37.1599 44.6453 37.1599 44.873 37.1599C45.3577 37.1599 45.7781 37.0943 46.1329 36.9658C46.4942 36.8319 46.8167 36.6107 47.0716 36.3218C47.3609 35.9937 47.5805 35.6102 47.7169 35.1946C47.9109 34.6379 48.0622 34.0673 48.1695 33.4877L49.3345 27.012H51.0148C51.0148 27.012 51.1447 27.012 51.1769 26.8513L51.371 25.7884C51.371 25.6906 51.3389 25.6277 51.209 25.6277H49.5929C49.5929 25.5956 49.6906 25.0145 49.8513 24.4684C49.9231 24.2589 50.0454 24.0703 50.2075 23.9194C50.3182 23.7936 50.4642 23.7041 50.6265 23.6624C50.7886 23.5981 50.9827 23.5981 51.1769 23.5981C51.3389 23.5981 51.4674 23.6303 51.5959 23.6303C51.7579 23.6624 51.8236 23.6945 51.8557 23.6945C52.0178 23.7588 52.0499 23.6945 52.082 23.6303L52.4703 22.5673C52.5681 22.4388 52.4703 22.4052 52.4382 22.3731H52.4368ZM29.6476 33.3899C29.6476 33.4877 29.5833 33.5505 29.4856 33.5505H28.1279C28.0301 33.5505 27.9658 33.4863 27.9658 33.3899V22.5338C27.9658 22.4374 28.0315 22.3731 28.1279 22.3731H29.4856C29.5833 22.3731 29.6476 22.4374 29.6476 22.5338V33.3899Z" fill="#00A1E1"/>
</svg>
