<svg width="80" height="33" viewBox="0 0 80 33" fill="none" xmlns="http://www.w3.org/2000/svg">
<path fill-rule="evenodd" clip-rule="evenodd" d="M79.9196 19.0323H69.1189C69.3735 21.6046 71.263 22.4309 73.407 22.4309C75.6047 22.4309 77.3735 21.9378 78.8342 21.1648V25.5897C76.9806 26.6504 74.8596 27.1593 72.7236 27.0557C67.3501 27.0557 63.5712 23.7237 63.5712 17.0864C63.5712 11.502 66.7739 7.06381 72.0134 7.06381C77.2663 7.06381 80 11.4354 80 17.0598C80 17.5929 79.9464 18.7391 79.9196 19.0323ZM71.9866 11.542C70.6064 11.542 69.0787 12.5149 69.0787 14.9806H74.7739C74.7739 12.5149 73.34 11.542 71.9866 11.542ZM54.8744 27.0557C52.9447 27.0557 51.7655 26.2561 50.9883 25.6696L50.9615 31.8405L45.4405 33V7.42367H50.4791L50.5863 8.78312C51.7549 7.68061 53.3038 7.06534 54.9146 7.06381C58.8007 7.06381 62.4456 10.5291 62.4456 16.9265C62.4456 23.897 58.8275 27.0557 54.8744 27.0557ZM53.6013 11.9285C52.3283 11.9285 51.5377 12.3817 50.9615 13.0081L50.9883 21.1648C51.5243 21.7512 52.3015 22.2044 53.6013 22.2044C55.6382 22.2044 57.005 20.0052 57.005 17.0464C57.005 14.1809 55.6114 11.9285 53.6013 11.9285ZM37.8425 7.42367H43.3769V26.6692H37.8425V7.42367ZM37.8425 1.15953L43.3769 0V4.47819L37.8425 5.65105V1.17286V1.15953ZM32.0536 13.6212V26.6692H26.5327V7.42367H31.4908L31.6516 9.04968C32.9916 6.69063 35.7655 7.17044 36.5025 7.42367V12.475C35.8057 12.2484 33.4338 11.9019 32.0536 13.6212ZM20.5963 19.912C20.5963 23.1506 24.0804 22.151 24.7772 21.8578V26.336C24.0402 26.7359 22.7136 27.0557 20.9045 27.0557C20.1505 27.0776 19.4 26.9467 18.6985 26.671C17.997 26.3952 17.3592 25.9804 16.8239 25.4518C16.2887 24.9232 15.8671 24.2918 15.585 23.5961C15.3028 22.9003 15.1659 22.1547 15.1826 21.4047L15.196 3.85178L20.5829 2.70557V7.42367H24.7906V12.1284H20.5963V19.9253V19.912ZM14.0168 20.8449C14.0168 24.8033 10.9213 27.0557 6.33836 27.0557C4.28183 27.0542 2.24757 26.6323 0.361809 25.8162V20.5784C2.21106 21.5779 4.51591 22.3243 6.33836 22.3243C7.57119 22.3243 8.38861 22.0044 8.38861 20.9915C8.38861 18.3526 0 19.3389 0 13.2613C0 9.38287 3.05528 7.06381 7.53099 7.06381C9.35343 7.06381 11.1759 7.33037 13.0117 8.06341V13.2347C11.3152 12.3466 9.4343 11.8629 7.51759 11.8219C6.36516 11.8219 5.58794 12.1551 5.58794 13.0214C5.58794 15.4871 14.0168 14.3142 14.0168 20.8582V20.8449Z" fill="white"/>
</svg>
