<svg width="64" height="68" viewBox="0 0 64 68" fill="none" xmlns="http://www.w3.org/2000/svg">
<path fill-rule="evenodd" clip-rule="evenodd" d="M48.142 32.0969C48.6379 32.038 49.1126 32.035 49.5496 32.0969C49.8024 31.5173 49.8454 30.5188 49.6183 29.4312C49.2809 27.8146 48.8235 26.8365 47.8786 26.989C46.9337 27.1414 46.899 28.3127 47.2371 29.9286C47.4273 30.838 47.7654 31.6154 48.142 32.0969Z" fill="black"/>
<path fill-rule="evenodd" clip-rule="evenodd" d="M40.0323 33.3762C40.7078 33.6728 41.1236 33.8698 41.2859 33.6977C41.3908 33.5905 41.3591 33.386 41.1976 33.1226C40.864 32.5784 40.178 32.026 39.4497 31.7158C37.9614 31.075 36.1855 31.2879 34.8157 32.272C34.3636 32.6033 33.9349 33.0622 33.9961 33.3407C34.0157 33.4305 34.0836 33.4984 34.2421 33.5211C34.6149 33.5633 35.9176 32.9052 37.4187 32.8132C38.4776 32.7483 39.3553 33.0796 40.0315 33.3762" fill="black"/>
<path fill-rule="evenodd" clip-rule="evenodd" d="M38.6733 34.152C37.7926 34.2908 37.3073 34.5814 36.9956 34.8508C36.7299 35.0833 36.5654 35.3407 36.5669 35.521C36.5677 35.6071 36.6046 35.6569 36.6341 35.6818C36.6741 35.7173 36.7216 35.7369 36.779 35.7369C36.9775 35.7369 37.4235 35.558 37.4235 35.558C38.6484 35.1195 39.4567 35.1731 40.2575 35.2637C40.6997 35.3135 40.9096 35.3407 41.0062 35.189C41.0348 35.1452 41.0696 35.0508 40.9813 34.9075C40.7752 34.5731 39.8862 34.0078 38.6741 34.152" fill="black"/>
<path fill-rule="evenodd" clip-rule="evenodd" d="M45.4037 36.9996C46.0015 37.2931 46.6596 37.1777 46.8739 36.7422C47.0883 36.3067 46.7773 35.715 46.1796 35.4214C45.5818 35.1279 44.9237 35.2433 44.7094 35.6788C44.495 36.115 44.806 36.706 45.4037 36.9996Z" fill="black"/>
<path fill-rule="evenodd" clip-rule="evenodd" d="M49.2461 33.6417C48.7608 33.6334 48.3578 34.1662 48.3464 34.8326C48.3351 35.4991 48.72 36.0447 49.2053 36.053C49.6906 36.0613 50.0936 35.5285 50.1049 34.8621C50.1162 34.1964 49.7313 33.65 49.2461 33.6417Z" fill="black"/>
<path fill-rule="evenodd" clip-rule="evenodd" d="M16.6325 45.6485C16.5118 45.4968 16.3133 45.5428 16.1208 45.5881C15.9865 45.6198 15.8348 45.6545 15.668 45.6523C15.311 45.6455 15.0084 45.493 14.8386 45.2319C14.6174 44.8922 14.6303 44.3858 14.874 43.8062L14.988 43.5466C15.3774 42.6726 16.0288 41.2107 15.2974 39.8175C14.7465 38.7685 13.8484 38.1156 12.7684 37.9783C11.7314 37.847 10.6642 38.2311 9.98348 38.9821C8.90952 40.167 8.74121 41.7798 8.94876 42.3496C9.02499 42.5579 9.14423 42.616 9.23027 42.6281C9.41291 42.6522 9.6831 42.5194 9.85216 42.0643L9.90046 41.9164C9.97593 41.6756 10.1163 41.2273 10.3465 40.8681C10.6242 40.4349 11.0559 40.1368 11.5631 40.0273C12.0793 39.9164 12.6076 40.0153 13.0499 40.3051C13.8024 40.7972 14.0922 41.7194 13.7707 42.5987C13.6046 43.0538 13.3344 43.9239 13.394 44.6387C13.5148 46.0855 14.4046 46.6666 15.2039 46.7285C15.9812 46.7579 16.5246 46.3209 16.662 46.0024C16.7427 45.8138 16.6748 45.699 16.6303 45.65" fill="black"/>
<path fill-rule="evenodd" clip-rule="evenodd" d="M24.0226 19.075C26.5585 16.1452 29.6792 13.598 32.4755 12.1678C32.5721 12.118 32.6747 12.2229 32.6226 12.318C32.4007 12.7203 31.9728 13.5814 31.8377 14.2342C31.8166 14.3361 31.9275 14.4123 32.0136 14.3542C33.7532 13.1686 36.7789 11.8976 39.4332 11.7346C39.5472 11.7278 39.6022 11.8735 39.5117 11.9437C39.1079 12.2531 38.6664 12.6818 38.3441 13.115C38.289 13.1889 38.3411 13.2946 38.4332 13.2954C40.2966 13.3089 42.9238 13.961 44.6362 14.9218C44.7517 14.9867 44.6694 15.2108 44.5396 15.1814C41.9487 14.5874 37.7079 14.1369 33.3019 15.2116C29.369 16.1708 26.3668 17.6523 24.1773 19.2448C24.0664 19.3255 23.9336 19.1791 24.0234 19.0757L24.0226 19.075ZM36.6506 47.4614L36.6513 47.4629L36.6528 47.4659L36.6506 47.4614ZM47.1064 48.6954C47.1819 48.6637 47.2332 48.5784 47.2249 48.4931C47.2143 48.3882 47.1207 48.312 47.0158 48.3225C47.0158 48.3225 41.6053 49.1233 36.4936 47.2523C37.0505 45.4425 38.5305 46.0961 40.7683 46.2765C44.8015 46.5173 48.4166 45.9278 51.0883 45.161C53.403 44.4969 56.4438 43.1867 58.8053 41.3225C59.6015 43.072 59.883 44.998 59.883 44.998C59.883 44.998 60.4996 44.8878 61.0151 45.2048C61.5019 45.5044 61.8589 46.1271 61.6151 47.7376C61.1185 50.7459 59.84 53.1882 57.6906 55.435C56.3819 56.8433 54.794 58.0674 52.9766 58.958C52.0113 59.4652 50.9841 59.9037 49.8981 60.2576C41.7955 62.9044 33.5011 59.995 30.8279 53.7474C30.6143 53.278 30.4339 52.7859 30.2921 52.272C29.1532 48.155 30.12 43.2154 33.1434 40.1059V40.1044C33.3298 39.9067 33.52 39.6735 33.52 39.3799C33.52 39.1346 33.3638 38.8757 33.2287 38.6916C32.1706 37.1572 28.5064 34.5429 29.2422 29.4833C29.7706 25.8486 32.9494 23.2886 35.9132 23.4403L36.6641 23.4833C37.9487 23.5595 39.0687 23.724 40.126 23.7686C41.8958 23.8455 43.4868 23.5882 45.3721 22.0176C46.0075 21.4878 46.5177 21.0282 47.3804 20.8825C47.4709 20.8667 47.6966 20.7859 48.1472 20.8071C48.6075 20.832 49.0453 20.958 49.4385 21.2199C50.9494 22.2252 51.1638 24.6606 51.2423 26.4418C51.2868 27.4584 51.4098 29.9187 51.4521 30.6252C51.5479 32.2403 51.9728 32.4674 52.8317 32.7505C53.3147 32.9097 53.763 33.0282 54.4241 33.2139C56.4241 33.7754 57.6098 34.3452 58.3577 35.0772C58.8038 35.5346 59.0113 36.0206 59.0755 36.484C59.3109 38.2048 57.7396 40.3301 53.5789 42.2614C49.0309 44.3723 43.5132 44.9067 39.7011 44.4818L38.3653 44.3308C35.3162 43.9203 33.5766 47.8606 35.4068 50.561C36.5864 52.3014 39.7992 53.4335 43.0136 53.4342C50.3834 53.435 56.0483 50.2878 58.1555 47.5701L58.3238 47.3301C58.4279 47.1739 58.3419 47.0878 58.2128 47.1761C56.4913 48.3542 48.8445 53.0312 40.6649 51.6237C40.6649 51.6237 39.6709 51.4599 38.7638 51.1074C38.043 50.8267 36.5336 50.1323 36.3502 48.5844C42.9509 50.6259 47.1072 48.6961 47.1072 48.6961L47.1064 48.6954ZM10.8505 33.0086C8.55469 33.4546 6.53129 34.7557 5.29431 36.5535C4.55469 35.9369 3.17733 34.7429 2.93355 34.2772C0.958457 30.5263 5.08902 23.2342 7.97506 19.1157C15.1071 8.93836 26.277 1.23497 31.4475 2.6327C32.2883 2.87044 35.0724 6.09836 35.0724 6.09836C35.0724 6.09836 29.9034 8.96629 25.1102 12.964C18.6513 17.9369 13.7728 25.1648 10.8498 33.0086H10.8505ZM14.7079 50.2199C14.3607 50.2795 14.006 50.3029 13.6483 50.2939C10.1939 50.201 6.46337 47.0916 6.0928 43.404C5.68299 39.3278 7.76601 36.1912 11.4536 35.4471C11.8943 35.358 12.4271 35.3067 13.0015 35.3369C15.0679 35.4501 18.1124 37.0365 18.8075 41.5376C19.4234 45.524 18.4453 49.5822 14.7079 50.2191V50.2199ZM61.4973 43.0018C61.4679 42.8969 61.2747 42.1927 61.0098 41.3437C60.7449 40.4939 60.4709 39.8969 60.4709 39.8969C61.5336 38.3067 61.5525 36.884 61.4106 36.0788C61.2596 35.0803 60.8438 34.2297 60.006 33.3497C59.1683 32.4704 57.4543 31.5693 55.046 30.8931L53.7826 30.5421C53.7766 30.4901 53.7162 27.5633 53.6619 26.3067C53.6219 25.398 53.5441 23.9799 53.1041 22.5837C52.5796 20.6931 51.6664 19.0387 50.526 17.9806C53.6732 14.7187 55.6377 11.1248 55.6324 8.04252C55.6234 2.11421 48.3426 0.320255 39.3698 4.03573L37.4687 4.84252C37.4604 4.83422 34.0317 1.47044 33.9804 1.42516C23.7502 -7.49786 -8.23475 28.0546 1.99091 36.6893L4.22563 38.5829C3.64601 40.0848 3.41808 41.8055 3.6045 43.6554C3.84299 46.032 5.06865 48.3097 7.05582 50.0697C8.94186 51.7407 11.4219 52.7988 13.8279 52.7965C17.8075 61.9671 26.9004 67.5927 37.5615 67.9097C48.9977 68.2493 58.5977 62.8833 62.6204 53.244C62.8838 52.5678 64 49.5195 64 46.8282C64 44.124 62.4709 43.0033 61.4973 43.0033" fill="black"/>
</svg>
