<svg width="26" height="19" viewBox="0 0 26 19" fill="none" xmlns="http://www.w3.org/2000/svg">
<path d="M5.32617 0.963867L5.74805 2.16797C5.14453 2.37305 4.72852 2.73633 4.5 3.25781C4.27734 3.7793 4.16602 4.37695 4.16602 5.05078V6.86133C4.16602 7.44727 4.04004 7.98047 3.78809 8.46094C3.54199 8.94141 3.14941 9.32227 2.61035 9.60352C2.07129 9.88477 1.36523 10.0254 0.492188 10.0254V8.8125C1.0957 8.8125 1.5293 8.63672 1.79297 8.28516C2.05664 7.93359 2.18848 7.45898 2.18848 6.86133V5.05078C2.18848 4.43555 2.28223 3.86133 2.46973 3.32812C2.66309 2.78906 2.98828 2.31738 3.44531 1.91309C3.90234 1.50293 4.5293 1.18652 5.32617 0.963867ZM5.74805 16.9863L5.32617 18.1992C4.5293 17.9707 3.90234 17.6514 3.44531 17.2412C2.98828 16.8369 2.66309 16.3652 2.46973 15.8262C2.28223 15.293 2.18848 14.7188 2.18848 14.1035V12.3105C2.18848 11.9062 2.12988 11.5605 2.0127 11.2734C1.89551 10.9805 1.71094 10.7549 1.45898 10.5967C1.21289 10.4326 0.890625 10.3506 0.492188 10.3506V9.12891C1.36523 9.12891 2.07129 9.27246 2.61035 9.55957C3.14941 9.84082 3.54199 10.2217 3.78809 10.7021C4.04004 11.1768 4.16602 11.7129 4.16602 12.3105V14.1035C4.16602 14.5547 4.21289 14.9707 4.30664 15.3516C4.40625 15.7383 4.57031 16.0723 4.79883 16.3535C5.0332 16.6348 5.34961 16.8457 5.74805 16.9863ZM16.265 2.20312L11.2816 16.0986H9.62051L14.6127 2.20312H16.265ZM20.4891 2.16797L20.9109 0.963867C21.7137 1.18652 22.3436 1.50293 22.8006 1.91309C23.2576 2.31738 23.5799 2.78906 23.7674 3.32812C23.9549 3.86133 24.0486 4.43555 24.0486 5.05078V6.86133C24.0486 7.25391 24.1072 7.59668 24.2244 7.88965C24.3416 8.18262 24.5262 8.41113 24.7781 8.5752C25.0301 8.7334 25.3553 8.8125 25.7537 8.8125V9.97266C24.8865 9.97266 24.1805 9.83789 23.6355 9.56836C23.0906 9.29297 22.6922 8.9209 22.4402 8.45215C22.1941 7.97754 22.0711 7.44727 22.0711 6.86133V5.05078C22.0711 4.59961 22.0242 4.18066 21.9305 3.79395C21.8367 3.40723 21.6727 3.07324 21.4383 2.79199C21.2098 2.51074 20.8934 2.30273 20.4891 2.16797ZM20.9109 18.1992L20.4891 16.9863C20.8934 16.8457 21.2098 16.6348 21.4383 16.3535C21.6668 16.0723 21.8279 15.7383 21.9217 15.3516C22.0213 14.9707 22.0711 14.5547 22.0711 14.1035V12.3105C22.0711 11.7129 22.1941 11.1797 22.4402 10.7109C22.6922 10.2422 23.0906 9.87305 23.6355 9.60352C24.1805 9.32812 24.8865 9.19043 25.7537 9.19043V10.3506C25.1561 10.3506 24.7225 10.5293 24.4529 10.8867C24.1834 11.2383 24.0486 11.7129 24.0486 12.3105V14.1035C24.0486 14.7188 23.9549 15.293 23.7674 15.8262C23.5799 16.3652 23.2576 16.8369 22.8006 17.2412C22.3436 17.6514 21.7137 17.9707 20.9109 18.1992Z" fill="white"/>
</svg>
