<svg width="64" height="64" viewBox="0 0 64 64" fill="none" xmlns="http://www.w3.org/2000/svg">
<path d="M32.0001 0C49.7067 0 64 14.2933 64 32C64 49.7066 49.7067 64 32.0001 64C14.2933 64 0 49.7066 0 32C0 14.2933 14.2933 0 32.0001 0ZM32.0001 8.53334C18.9867 8.53334 8.53334 18.9867 8.53334 32C8.53334 45.0134 18.9867 55.4666 32.0001 55.4666C45.0134 55.4666 55.4666 45.0134 55.4666 32C55.4666 18.9867 45.0134 8.53334 32.0001 8.53334ZM24.1066 33.28C27.7334 33.28 30.72 36.2666 30.72 39.8934C30.72 43.52 27.7334 46.5066 24.1066 46.5066C20.4799 46.5066 17.4933 43.52 17.4933 39.8934C17.4933 36.2666 20.4799 33.28 24.1066 33.28ZM39.8934 33.28C43.5201 33.28 46.5066 36.2666 46.5066 39.8934C46.5066 43.52 43.5201 46.5066 39.8934 46.5066C36.2666 46.5066 33.28 43.52 33.28 39.8934C33.28 36.2666 36.2666 33.28 39.8934 33.28ZM39.8934 17.4933C43.5201 17.4933 46.5066 20.48 46.5066 24.1066C46.5066 27.7334 43.5201 30.72 39.8934 30.72C36.2666 30.72 33.28 27.7334 33.28 24.1066C33.28 20.48 36.2666 17.4933 39.8934 17.4933ZM24.1066 17.4933C27.7334 17.4933 30.72 20.48 30.72 24.1066C30.72 27.7334 27.7334 30.72 24.1066 30.72C20.4799 30.72 17.4933 27.7334 17.4933 24.1066C17.4933 20.48 20.4799 17.4933 24.1066 17.4933Z" fill="white"/>
</svg>
