<svg width="331" height="150" viewBox="0 0 331 150" fill="none" xmlns="http://www.w3.org/2000/svg">
  <rect x="17.3335" y="73" width="294" height="4" fill="#353535" />
  <circle cx="270.333" cy="75" r="12" fill="#FFEEC4" />
  <circle cx="270.333" cy="75" r="8" fill="#FCC43F" />
  <circle cx="282.333" cy="75" r="12" fill="#F0EDFF" />
  <circle cx="282.333" cy="75" r="8" fill="#6222DF" />
  <circle cx="294.333" cy="75" r="12" fill="#DFF5E6" />
  <circle cx="294.333" cy="75" r="8" fill="#027A48" />
  <circle cx="306.333" cy="75" r="12" fill="#E0F2FF" />
  <circle cx="306.333" cy="75" r="8" fill="#52B2FD" />
  <rect x="252.833" y="53.5" width="71" height="41" rx="7.5" stroke="#7C7C7C" />
  <circle cx="152.333" cy="75" r="12" fill="#FFEEC4" />
  <circle cx="152.333" cy="75" r="8" fill="#FCC43F" />
  <circle cx="164.333" cy="75" r="12" fill="#F0EDFF" />
  <circle cx="164.333" cy="75" r="8" fill="#6222DF" />
  <circle cx="176.333" cy="75" r="12" fill="#DFF5E6" />
  <circle cx="176.333" cy="75" r="8" fill="#027A48" />
  <circle cx="188.333" cy="75" r="12" fill="#E0F2FF" />
  <circle cx="188.333" cy="75" r="8" fill="#52B2FD" />
  <rect x="134.833" y="53.5" width="71" height="41" rx="7.5" stroke="#7C7C7C" />
  <circle cx="25.3335" cy="75" r="12" fill="#FFEEC4" />
  <circle cx="25.3335" cy="75" r="8" fill="#FCC43F" />
  <circle cx="37.3335" cy="75" r="12" fill="#F0EDFF" />
  <circle cx="37.3335" cy="75" r="8" fill="#6222DF" />
  <circle cx="49.3335" cy="75" r="12" fill="#DFF5E6" />
  <circle cx="49.3335" cy="75" r="8" fill="#027A48" />
  <circle cx="61.3335" cy="75" r="12" fill="#E0F2FF" />
  <circle cx="61.3335" cy="75" r="8" fill="#52B2FD" />
  <rect x="7.8335" y="53.5" width="71" height="41" rx="7.5" stroke="#7C7C7C" />
</svg>