<svg width="331" height="150" viewBox="0 0 331 150" fill="none" xmlns="http://www.w3.org/2000/svg">
  <g clip-path="url(#clip0_3476_1924)">
    <path d="M1.6665 30H330.667" stroke="#353535" />
    <path d="M1.6665 60H330.667" stroke="#353535" />
    <path d="M1.6665 90H330.667" stroke="#353535" />
    <path d="M1.6665 120H330.667" stroke="#353535" />
    <circle cx="158.667" cy="45" r="12" fill="#E0F2FF" />
    <circle cx="158.667" cy="45" r="8" fill="#52B2FD" />
    <circle cx="46.6665" cy="75" r="12" fill="#E0F2FF" />
    <circle cx="46.6665" cy="75" r="8" fill="#52B2FD" />
    <circle cx="106.667" cy="105" r="12" fill="#E0F2FF" />
    <circle cx="106.667" cy="105" r="8" fill="#52B2FD" />
    <circle cx="221.667" cy="134" r="12" fill="#E0F2FF" />
    <circle cx="221.667" cy="134" r="8" fill="#52B2FD" />
    <g opacity="0.25">
      <path
        d="M276.202 4.99999C277.742 2.33333 281.591 2.33333 283.131 5L291.791 20C293.33 22.6667 291.406 26 288.327 26H271.006C267.927 26 266.003 22.6667 267.542 20L276.202 4.99999Z"
        fill="#FFBAC7" />
      <path
        d="M277.934 8C278.704 6.66667 280.629 6.66667 281.399 8L288.327 20C289.097 21.3333 288.134 23 286.595 23H272.738C271.199 23 270.236 21.3333 271.006 20L277.934 8Z"
        fill="#831038" />
      <path
        d="M283.167 14.205L282.462 13.5L279.667 16.295L276.872 13.5L276.167 14.205L278.962 17L276.167 19.795L276.872 20.5L279.667 17.705L282.462 20.5L283.167 19.795L280.372 17L283.167 14.205Z"
        fill="white" />
    </g>
    <circle cx="200.667" cy="14" r="12" fill="#FFEAED" />
    <circle cx="200.667" cy="14" r="8" fill="#F93E6A" />
  </g>
  <defs>
    <clipPath id="clip0_3476_1924">
      <rect width="330" height="150" fill="white" transform="translate(0.666504)" />
    </clipPath>
  </defs>
</svg>