<svg width="331" height="284" viewBox="0 0 331 284" fill="none" xmlns="http://www.w3.org/2000/svg">
  <g clip-path="url(#clip0_3476_1949)">
    <path d="M39.667 33H330.667" stroke="#353535" />
    <path d="M113.667 85L329.667 85" stroke="#353535" />
    <path d="M1.66699 137H149.667" stroke="#353535" />
    <path d="M1.66699 85H49.667" stroke="#353535" />
    <path d="M218.667 137H330.667" stroke="#353535" />
    <circle cx="17.667" cy="27" r="12" fill="#DFF5E6" />
    <circle cx="17.667" cy="27" r="8" fill="#027A48" />
    <path d="M246.667 189L329.667 189" stroke="#353535" />
    <path d="M1.66699 242H214.667" stroke="#353535" />
    <path d="M1.66699 189H191.667" stroke="#353535" />
    <path d="M285.667 241L330.667 241" stroke="#353535" />
    <circle cx="179.667" cy="162" r="12" fill="#DFF5E6" />
    <circle cx="179.667" cy="162" r="8" fill="#027A48" />
    <circle cx="225.667" cy="209" r="12" fill="#DFF5E6" />
    <circle cx="225.667" cy="209" r="8" fill="#027A48" />
    <circle cx="294.667" cy="272" r="12" fill="#DFF5E6" />
    <circle cx="294.667" cy="272" r="8" fill="#027A48" />
    <g opacity="0.8">
      <path
        d="M78.2029 73C79.7425 70.3333 83.5915 70.3333 85.1311 73L93.7913 88C95.3309 90.6667 93.4064 94 90.3272 94H73.0067C69.9275 94 68.003 90.6667 69.5426 88L78.2029 73Z"
        fill="#F0EDFF" />
      <path
        d="M79.9349 76C80.7047 74.6667 82.6292 74.6667 83.399 76L90.3272 88C91.097 89.3333 90.1348 91 88.5952 91H74.7388C73.1992 91 72.2369 89.3333 73.0067 88L79.9349 76Z"
        fill="#6222DF" />
      <path
        d="M79.0956 81C78.8589 81 78.667 81.1919 78.667 81.4286V88.5714C78.667 88.8081 78.8589 89 79.0956 89H79.9527C80.1894 89 80.3813 88.8081 80.3813 88.5714V81.4286C80.3813 81.1919 80.1894 81 79.9527 81H79.0956Z"
        fill="white" />
      <path
        d="M83.0956 81C82.8589 81 82.667 81.1919 82.667 81.4286V88.5714C82.667 88.8081 82.8589 89 83.0956 89H83.9527C84.1894 89 84.3813 88.8081 84.3813 88.5714V81.4286C84.3813 81.1919 84.1894 81 83.9527 81H83.0956Z"
        fill="white" />
    </g>
    <g opacity="0.8">
      <path
        d="M247.203 232C248.742 229.333 252.591 229.333 254.131 232L262.791 247C264.331 249.667 262.406 253 259.327 253H242.007C238.928 253 237.003 249.667 238.543 247L247.203 232Z"
        fill="#F0EDFF" />
      <path
        d="M248.935 235C249.705 233.667 251.629 233.667 252.399 235L259.327 247C260.097 248.333 259.135 250 257.595 250H243.739C242.199 250 241.237 248.333 242.007 247L248.935 235Z"
        fill="#6222DF" />
      <path
        d="M248.096 240C247.859 240 247.667 240.192 247.667 240.429V247.571C247.667 247.808 247.859 248 248.096 248H248.953C249.189 248 249.381 247.808 249.381 247.571V240.429C249.381 240.192 249.189 240 248.953 240H248.096Z"
        fill="white" />
      <path
        d="M252.096 240C251.859 240 251.667 240.192 251.667 240.429V247.571C251.667 247.808 251.859 248 252.096 248H252.953C253.189 248 253.381 247.808 253.381 247.571V240.429C253.381 240.192 253.189 240 252.953 240H252.096Z"
        fill="white" />
    </g>
  </g>
  <defs>
    <clipPath id="clip0_3476_1949">
      <rect width="330" height="284" fill="white" transform="translate(0.333496)" />
    </clipPath>
  </defs>
</svg>