<svg width="301" height="150" viewBox="0 0 301 150" fill="none" xmlns="http://www.w3.org/2000/svg">
  <g clip-path="url(#clip0_3430_2431)">
    <rect x="0.666504" y="73" width="307" height="4" fill="#353535" />
    <circle cx="207.667" cy="75" r="12" fill="#DFF5E6" />
    <circle cx="207.667" cy="75" r="8" fill="#027A48" />
    <circle cx="237.667" cy="75" r="12" fill="#E0F2FF" />
    <circle cx="237.667" cy="75" r="8" fill="#52B2FD" />
    <circle cx="143.667" cy="75" r="12" fill="#F0EDFF" />
    <circle cx="143.667" cy="75" r="8" fill="#6222DF" />
    <circle cx="175.667" cy="75" r="12" fill="#DFF5E6" />
    <circle cx="175.667" cy="75" r="8" fill="#027A48" />
    <circle cx="15.6665" cy="75" r="12" fill="#F0EDFF" />
    <circle cx="15.6665" cy="75" r="8" fill="#6222DF" />
    <circle cx="47.6665" cy="75" r="12" fill="#DFF5E6" />
    <circle cx="47.6665" cy="75" r="8" fill="#027A48" />
    <circle cx="79.6665" cy="75" r="12" fill="#E0F2FF" />
    <circle cx="79.6665" cy="75" r="8" fill="#52B2FD" />
    <path
      d="M110.667 58.5C110.667 59.0523 111.114 59.5 111.667 59.5C112.219 59.5 112.667 59.0523 112.667 58.5H110.667ZM271.459 59.2071C271.85 59.5976 272.483 59.5976 272.874 59.2071L279.238 52.8431C279.628 52.4526 279.628 51.8195 279.238 51.4289C278.847 51.0384 278.214 51.0384 277.823 51.4289L272.167 57.0858L266.51 51.4289C266.119 51.0384 265.486 51.0384 265.095 51.4289C264.705 51.8195 264.705 52.4526 265.095 52.8431L271.459 59.2071ZM112.667 58.5V32.5H110.667V58.5H112.667ZM113.667 31.5H270.167V29.5H113.667V31.5ZM271.167 32.5V58.5H273.167V32.5H271.167ZM270.167 31.5C270.719 31.5 271.167 31.9477 271.167 32.5H273.167C273.167 30.8431 271.823 29.5 270.167 29.5V31.5ZM112.667 32.5C112.667 31.9477 113.114 31.5 113.667 31.5V29.5C112.01 29.5 110.667 30.8431 110.667 32.5H112.667Z"
      fill="#353535" />
    <circle cx="112.667" cy="31" r="12" fill="#FFEEC4" />
    <circle cx="112.667" cy="31" r="8" fill="#FCC43F" />
  </g>
  <defs>
    <clipPath id="clip0_3430_2431">
      <rect width="300" height="150" fill="white" transform="translate(0.666504)" />
    </clipPath>
  </defs>
</svg>