<svg width="330" height="150" viewBox="0 0 330 150" fill="none" xmlns="http://www.w3.org/2000/svg">
  <circle cx="289" cy="28" r="12" fill="#E0F2FF" />
  <circle cx="289" cy="28" r="8" fill="#52B2FD" />
  <circle cx="289" cy="77" r="12" fill="#E0F2FF" />
  <circle cx="289" cy="77" r="8" fill="#52B2FD" />
  <circle cx="289" cy="126" r="12" fill="#E0F2FF" />
  <circle cx="289" cy="126" r="8" fill="#52B2FD" />
  <circle cx="243" cy="28" r="12" fill="#E0F2FF" />
  <circle cx="243" cy="28" r="8" fill="#52B2FD" />
  <circle cx="197" cy="28" r="12" fill="#E0F2FF" />
  <circle cx="197" cy="28" r="8" fill="#52B2FD" />
  <circle cx="151" cy="28" r="12" fill="#E0F2FF" />
  <circle cx="151" cy="28" r="8" fill="#52B2FD" />
  <circle cx="105" cy="28" r="12" fill="#E0F2FF" />
  <circle cx="105" cy="28" r="8" fill="#52B2FD" />
  <circle cx="243" cy="77" r="12" fill="#E0F2FF" />
  <circle cx="243" cy="77" r="8" fill="#52B2FD" />
  <circle cx="197" cy="77" r="12" fill="#E0F2FF" />
  <circle cx="197" cy="77" r="8" fill="#52B2FD" />
  <circle cx="151" cy="77" r="12" fill="#E0F2FF" />
  <circle cx="151" cy="77" r="8" fill="#52B2FD" />
  <circle cx="105" cy="77" r="12" fill="#E0F2FF" />
  <circle cx="105" cy="77" r="8" fill="#52B2FD" />
  <circle cx="243" cy="126" r="12" fill="#E0F2FF" />
  <circle cx="243" cy="126" r="8" fill="#52B2FD" />
  <circle cx="197" cy="126" r="12" fill="#E0F2FF" />
  <circle cx="197" cy="126" r="8" fill="#52B2FD" />
  <circle cx="151" cy="126" r="12" fill="#E0F2FF" />
  <circle cx="151" cy="126" r="8" fill="#52B2FD" />
  <circle cx="105" cy="126" r="12" fill="#E0F2FF" />
  <circle cx="105" cy="126" r="8" fill="#52B2FD" />
  <path d="M68.9995 9V142" stroke="#353535" stroke-width="2" stroke-linecap="round" />
  <g opacity="0.8">
    <path
      d="M37.5354 18C39.075 15.3333 42.924 15.3333 44.4636 18L53.1239 33C54.6635 35.6667 52.739 39 49.6598 39H32.3393C29.26 39 27.3356 35.6667 28.8752 33L37.5354 18Z"
      fill="#F0EDFF" />
    <path
      d="M39.2675 21C40.0373 19.6667 41.9618 19.6667 42.7316 21L49.6598 33C50.4296 34.3333 49.4673 36 47.9277 36H34.0713C32.5317 36 31.5695 34.3333 32.3393 33L39.2675 21Z"
      fill="#6222DF" />
    <path
      d="M39.2495 26V26.75M42.7495 26V26.75M37.9995 31.25V27.5C37.9995 27.0858 38.3353 26.75 38.7495 26.75H43.2495C43.6637 26.75 43.9995 27.0858 43.9995 27.5V31.25M37.9995 31.25C37.9995 31.6642 38.3353 32 38.7495 32H43.2495C43.6637 32 43.9995 31.6642 43.9995 31.25M37.9995 31.25V28.75C37.9995 28.3358 38.3353 28 38.7495 28H43.2495C43.6637 28 43.9995 28.3358 43.9995 28.75V31.25"
      stroke="white" stroke-width="0.5" stroke-linecap="round" stroke-linejoin="round" />
  </g>
  <g opacity="0.8">
    <path
      d="M37.5354 65C39.075 62.3333 42.924 62.3333 44.4636 65L53.1239 80C54.6635 82.6667 52.739 86 49.6598 86H32.3393C29.26 86 27.3356 82.6667 28.8752 80L37.5354 65Z"
      fill="#F0EDFF" />
    <path
      d="M39.2675 68C40.0373 66.6667 41.9618 66.6667 42.7316 68L49.6598 80C50.4296 81.3333 49.4673 83 47.9277 83H34.0713C32.5317 83 31.5695 81.3333 32.3393 80L39.2675 68Z"
      fill="#6222DF" />
    <path
      d="M40.9995 74V76H42.4995M43.9995 76C43.9995 77.6569 42.6564 79 40.9995 79C39.3427 79 37.9995 77.6569 37.9995 76C37.9995 74.3431 39.3427 73 40.9995 73C42.6564 73 43.9995 74.3431 43.9995 76Z"
      stroke="white" stroke-width="0.5" stroke-linecap="round" stroke-linejoin="round" />
  </g>
  <g opacity="0.8">
    <path
      d="M37.5354 116C39.075 113.333 42.924 113.333 44.4636 116L53.1239 131C54.6635 133.667 52.739 137 49.6598 137H32.3393C29.26 137 27.3356 133.667 28.8752 131L37.5354 116Z"
      fill="#F0EDFF" />
    <path
      d="M39.2675 119C40.0373 117.667 41.9618 117.667 42.7316 119L49.6598 131C50.4296 132.333 49.4673 134 47.9277 134H34.0713C32.5317 134 31.5695 132.333 32.3393 131L39.2675 119Z"
      fill="#6222DF" />
    <path
      d="M40.6662 127.667V128.333L38.8904 130.333H40.6662V131H37.9995V130.333L39.7747 128.333H37.9995V127.667H40.6662ZM43.9995 125V125.667L42.2237 127.667H43.9995V128.333H41.3328V127.667L43.108 125.667H41.3328V125H43.9995Z"
      fill="white" />
  </g>
</svg>