<svg width="330" height="300" viewBox="0 0 330 300" fill="none" xmlns="http://www.w3.org/2000/svg">
  <rect x="-0.000488281" y="58" width="238" height="4" rx="2" fill="#353535" />
  <rect x="-0.000488281" y="114" width="238" height="4" rx="2" fill="#353535" />
  <rect x="-0.000488281" y="172" width="238" height="4" rx="2" fill="#353535" />
  <rect x="-0.000488281" y="226" width="238" height="4" rx="2" fill="#353535" />
  <circle cx="16.9995" cy="60" r="12" fill="#DFF5E6" />
  <circle cx="16.9995" cy="60" r="8" fill="#027A48" />
  <circle cx="24.9995" cy="60" r="12" fill="#DFF5E6" />
  <circle cx="24.9995" cy="60" r="8" fill="#027A48" />
  <circle cx="32.9995" cy="60" r="12" fill="#DFF5E6" />
  <circle cx="32.9995" cy="60" r="8" fill="#027A48" />
  <circle cx="41.9995" cy="60" r="12" fill="#DFF5E6" />
  <circle cx="41.9995" cy="60" r="8" fill="#027A48" />
  <circle cx="49.9995" cy="60" r="12" fill="#DFF5E6" />
  <circle cx="49.9995" cy="60" r="8" fill="#027A48" />
  <circle cx="57.9995" cy="60" r="12" fill="#DFF5E6" />
  <circle cx="57.9995" cy="60" r="8" fill="#027A48" />
  <circle cx="65.9995" cy="60" r="12" fill="#DFF5E6" />
  <circle cx="65.9995" cy="60" r="8" fill="#027A48" />
  <circle cx="73.9995" cy="60" r="12" fill="#DFF5E6" />
  <circle cx="73.9995" cy="60" r="8" fill="#027A48" />
  <circle cx="81.9995" cy="60" r="12" fill="#DFF5E6" />
  <circle cx="81.9995" cy="60" r="8" fill="#027A48" />
  <circle cx="89.9995" cy="60" r="12" fill="#DFF5E6" />
  <circle cx="89.9995" cy="60" r="8" fill="#027A48" />
  <circle cx="97.9995" cy="60" r="12" fill="#DFF5E6" />
  <circle cx="97.9995" cy="60" r="8" fill="#027A48" />
  <circle cx="17.9995" cy="116" r="12" fill="#F0EDFF" />
  <circle cx="17.9995" cy="116" r="8" fill="#6222DF" />
  <circle cx="97.9995" cy="116" r="12" fill="#F0EDFF" />
  <circle cx="97.9995" cy="116" r="8" fill="#6222DF" />
  <circle cx="235" cy="116" r="12" fill="#F0EDFF" />
  <circle cx="235" cy="116" r="8" fill="#6222DF" />
  <circle cx="300" cy="136" r="12" fill="#F0EDFF" />
  <circle cx="300" cy="136" r="8" fill="#6222DF" />
  <circle cx="20.9995" cy="228" r="12" fill="#E0F2FF" />
  <circle cx="20.9995" cy="228" r="8" fill="#52B2FD" />
  <circle cx="97.9995" cy="228" r="12" fill="#E0F2FF" />
  <circle cx="97.9995" cy="228" r="8" fill="#52B2FD" />
  <circle cx="17.9995" cy="172" r="12" fill="#FFEEC4" />
  <circle cx="17.9995" cy="172" r="8" fill="#FCC43F" />
  <circle cx="235" cy="172" r="12" fill="#FFEEC4" />
  <circle cx="235" cy="172" r="8" fill="#FCC43F" />
</svg>