<svg width="58" height="34" viewBox="0 0 58 34" fill="none" xmlns="http://www.w3.org/2000/svg">
<mask id="path-1-inside-1_271_5844" fill="white">
<path d="M16.7701 12.4243C16.7701 13.1125 16.8446 13.6705 16.9751 14.0798C17.1243 14.489 17.3107 14.9354 17.5716 15.419C17.6648 15.5678 17.7021 15.7166 17.7021 15.8468C17.7021 16.0328 17.5903 16.2188 17.3479 16.4048L16.1736 17.1861C16.0058 17.2977 15.8381 17.3535 15.6889 17.3535C15.5025 17.3535 15.3161 17.2605 15.1297 17.0931C14.8688 16.8141 14.6451 16.5164 14.4587 16.2188C14.2723 15.9026 14.0858 15.5492 13.8808 15.1214C12.4268 16.8327 10.6001 17.6883 8.40048 17.6883C6.83467 17.6883 5.58576 17.2419 4.67237 16.349C3.75898 15.4562 3.29297 14.2658 3.29297 12.7777C3.29297 11.1967 3.85219 9.91321 4.98926 8.94598C6.12633 7.97874 7.63622 7.49513 9.55619 7.49513C10.19 7.49513 10.8424 7.55093 11.5321 7.64393C12.2218 7.73694 12.9301 7.88574 13.6758 8.05315V6.6953C13.6758 5.28165 13.3775 4.29582 12.7997 3.7192C12.2032 3.14258 11.1966 2.86357 9.76124 2.86357C9.10882 2.86357 8.43776 2.93797 7.74806 3.10537C7.05836 3.27278 6.3873 3.47739 5.73488 3.7378C5.43663 3.868 5.21295 3.9424 5.08246 3.97961C4.95198 4.01681 4.85878 4.03541 4.78421 4.03541C4.52325 4.03541 4.39276 3.8494 4.39276 3.45879V2.54736C4.39276 2.24974 4.43004 2.02654 4.52325 1.89633C4.61645 1.76613 4.78421 1.63592 5.04518 1.50572C5.6976 1.17091 6.4805 0.891898 7.39389 0.66869C8.30728 0.426881 9.27659 0.315277 10.3018 0.315277C12.52 0.315277 14.1418 0.817495 15.1856 1.82193C16.2109 2.82636 16.7328 4.35162 16.7328 6.39769V12.4243H16.7701ZM9.20202 15.2516C9.81716 15.2516 10.4509 15.14 11.122 14.9168C11.7931 14.6936 12.3896 14.2844 12.8929 13.7263C13.1911 13.3729 13.4148 12.9823 13.5266 12.5359C13.6385 12.0895 13.713 11.5501 13.713 10.9176V10.1364C13.1725 10.0062 12.5946 9.89461 11.9981 9.82021C11.4016 9.74581 10.8238 9.7086 10.2459 9.7086C8.99698 9.7086 8.08359 9.95041 7.46845 10.4526C6.85331 10.9548 6.55507 11.6617 6.55507 12.5917C6.55507 13.4659 6.77875 14.117 7.24477 14.5634C7.69214 15.0284 8.34456 15.2516 9.20202 15.2516ZM24.1704 17.2605C23.8349 17.2605 23.6112 17.2047 23.462 17.0745C23.3129 16.9629 23.1824 16.7024 23.0706 16.349L18.6901 1.97074C18.5782 1.59872 18.5223 1.35691 18.5223 1.22671C18.5223 0.929099 18.6714 0.761693 18.9697 0.761693H20.7964C21.1506 0.761693 21.3929 0.817495 21.5234 0.947699C21.6726 1.0593 21.7844 1.31971 21.8962 1.67312L25.0279 13.9868L27.9358 1.67312C28.029 1.30111 28.1408 1.0593 28.2899 0.947699C28.4391 0.836096 28.7 0.761693 29.0356 0.761693H30.5268C30.881 0.761693 31.1233 0.817495 31.2724 0.947699C31.4216 1.0593 31.552 1.31971 31.6266 1.67312L34.5718 14.1356L37.7966 1.67312C37.9085 1.30111 38.039 1.0593 38.1694 0.947699C38.3186 0.836096 38.5609 0.761693 38.8964 0.761693H40.63C40.9282 0.761693 41.096 0.910498 41.096 1.22671C41.096 1.31971 41.0774 1.41272 41.0587 1.52432C41.0401 1.63592 41.0028 1.78473 40.9282 1.98934L36.4359 16.3676C36.324 16.7397 36.1935 16.9815 36.0444 17.0931C35.8953 17.2047 35.653 17.2791 35.3361 17.2791H33.733C33.3788 17.2791 33.1365 17.2233 32.9874 17.0931C32.8382 16.9629 32.7078 16.7211 32.6332 16.349L29.7439 4.35162L26.8733 16.3304C26.7801 16.7024 26.6682 16.9443 26.5191 17.0745C26.37 17.2047 26.109 17.2605 25.7735 17.2605H24.1704ZM48.1235 17.7627C47.1542 17.7627 46.1849 17.6511 45.2528 17.4279C44.3208 17.2047 43.5938 16.9629 43.1092 16.6838C42.8109 16.5164 42.6059 16.3304 42.5313 16.163C42.4568 15.9956 42.4195 15.8096 42.4195 15.6422V14.6936C42.4195 14.303 42.5686 14.117 42.8482 14.117C42.9601 14.117 43.0719 14.1356 43.1837 14.1728C43.2956 14.21 43.4634 14.2844 43.6498 14.3588C44.2835 14.6378 44.9732 14.861 45.7002 15.0098C46.4458 15.1586 47.1728 15.233 47.9184 15.233C49.0928 15.233 50.0062 15.0284 50.64 14.6192C51.2737 14.21 51.6093 13.6147 51.6093 12.8521C51.6093 12.3313 51.4415 11.9035 51.106 11.5501C50.7705 11.1967 50.1367 10.8804 49.2233 10.5828L46.5204 9.74581C45.1596 9.31799 44.1531 8.68557 43.5379 7.84854C42.9228 7.03011 42.6059 6.11868 42.6059 5.15145C42.6059 4.37022 42.7737 3.68199 43.1092 3.08677C43.4447 2.49155 43.8921 1.97074 44.4513 1.56152C45.0105 1.13371 45.6443 0.817495 46.3899 0.594287C47.1355 0.371079 47.9184 0.278076 48.7386 0.278076C49.1487 0.278076 49.5775 0.296677 49.9875 0.352479C50.4163 0.408281 50.8077 0.482683 51.1992 0.557086C51.572 0.650089 51.9262 0.743092 52.2617 0.854696C52.5972 0.9663 52.8582 1.0779 53.0446 1.18951C53.3056 1.33831 53.492 1.48712 53.6038 1.65452C53.7157 1.80333 53.7716 2.00794 53.7716 2.26835V3.14258C53.7716 3.53319 53.6225 3.7378 53.3428 3.7378C53.1937 3.7378 52.9514 3.66339 52.6345 3.51459C51.572 3.03097 50.379 2.78916 49.0555 2.78916C47.993 2.78916 47.1542 2.95657 46.5763 3.30998C45.9985 3.66339 45.7002 4.20281 45.7002 4.96544C45.7002 5.48626 45.8866 5.93267 46.2594 6.28609C46.6322 6.6395 47.3219 6.99291 48.3099 7.30912L50.9569 8.14615C52.299 8.57397 53.2683 9.16919 53.8461 9.93181C54.424 10.6944 54.7036 11.5687 54.7036 12.5359C54.7036 13.3357 54.5358 14.0612 54.219 14.6936C53.8834 15.326 53.4361 15.884 52.8582 16.3304C52.2803 16.7955 51.5906 17.1303 50.7891 17.3721C49.9503 17.6325 49.0742 17.7627 48.1235 17.7627Z"/>
</mask>
<path d="M16.7701 12.4243C16.7701 13.1125 16.8446 13.6705 16.9751 14.0798C17.1243 14.489 17.3107 14.9354 17.5716 15.419C17.6648 15.5678 17.7021 15.7166 17.7021 15.8468C17.7021 16.0328 17.5903 16.2188 17.3479 16.4048L16.1736 17.1861C16.0058 17.2977 15.8381 17.3535 15.6889 17.3535C15.5025 17.3535 15.3161 17.2605 15.1297 17.0931C14.8688 16.8141 14.6451 16.5164 14.4587 16.2188C14.2723 15.9026 14.0858 15.5492 13.8808 15.1214C12.4268 16.8327 10.6001 17.6883 8.40048 17.6883C6.83467 17.6883 5.58576 17.2419 4.67237 16.349C3.75898 15.4562 3.29297 14.2658 3.29297 12.7777C3.29297 11.1967 3.85219 9.91321 4.98926 8.94598C6.12633 7.97874 7.63622 7.49513 9.55619 7.49513C10.19 7.49513 10.8424 7.55093 11.5321 7.64393C12.2218 7.73694 12.9301 7.88574 13.6758 8.05315V6.6953C13.6758 5.28165 13.3775 4.29582 12.7997 3.7192C12.2032 3.14258 11.1966 2.86357 9.76124 2.86357C9.10882 2.86357 8.43776 2.93797 7.74806 3.10537C7.05836 3.27278 6.3873 3.47739 5.73488 3.7378C5.43663 3.868 5.21295 3.9424 5.08246 3.97961C4.95198 4.01681 4.85878 4.03541 4.78421 4.03541C4.52325 4.03541 4.39276 3.8494 4.39276 3.45879V2.54736C4.39276 2.24974 4.43004 2.02654 4.52325 1.89633C4.61645 1.76613 4.78421 1.63592 5.04518 1.50572C5.6976 1.17091 6.4805 0.891898 7.39389 0.66869C8.30728 0.426881 9.27659 0.315277 10.3018 0.315277C12.52 0.315277 14.1418 0.817495 15.1856 1.82193C16.2109 2.82636 16.7328 4.35162 16.7328 6.39769V12.4243H16.7701ZM9.20202 15.2516C9.81716 15.2516 10.4509 15.14 11.122 14.9168C11.7931 14.6936 12.3896 14.2844 12.8929 13.7263C13.1911 13.3729 13.4148 12.9823 13.5266 12.5359C13.6385 12.0895 13.713 11.5501 13.713 10.9176V10.1364C13.1725 10.0062 12.5946 9.89461 11.9981 9.82021C11.4016 9.74581 10.8238 9.7086 10.2459 9.7086C8.99698 9.7086 8.08359 9.95041 7.46845 10.4526C6.85331 10.9548 6.55507 11.6617 6.55507 12.5917C6.55507 13.4659 6.77875 14.117 7.24477 14.5634C7.69214 15.0284 8.34456 15.2516 9.20202 15.2516ZM24.1704 17.2605C23.8349 17.2605 23.6112 17.2047 23.462 17.0745C23.3129 16.9629 23.1824 16.7024 23.0706 16.349L18.6901 1.97074C18.5782 1.59872 18.5223 1.35691 18.5223 1.22671C18.5223 0.929099 18.6714 0.761693 18.9697 0.761693H20.7964C21.1506 0.761693 21.3929 0.817495 21.5234 0.947699C21.6726 1.0593 21.7844 1.31971 21.8962 1.67312L25.0279 13.9868L27.9358 1.67312C28.029 1.30111 28.1408 1.0593 28.2899 0.947699C28.4391 0.836096 28.7 0.761693 29.0356 0.761693H30.5268C30.881 0.761693 31.1233 0.817495 31.2724 0.947699C31.4216 1.0593 31.552 1.31971 31.6266 1.67312L34.5718 14.1356L37.7966 1.67312C37.9085 1.30111 38.039 1.0593 38.1694 0.947699C38.3186 0.836096 38.5609 0.761693 38.8964 0.761693H40.63C40.9282 0.761693 41.096 0.910498 41.096 1.22671C41.096 1.31971 41.0774 1.41272 41.0587 1.52432C41.0401 1.63592 41.0028 1.78473 40.9282 1.98934L36.4359 16.3676C36.324 16.7397 36.1935 16.9815 36.0444 17.0931C35.8953 17.2047 35.653 17.2791 35.3361 17.2791H33.733C33.3788 17.2791 33.1365 17.2233 32.9874 17.0931C32.8382 16.9629 32.7078 16.7211 32.6332 16.349L29.7439 4.35162L26.8733 16.3304C26.7801 16.7024 26.6682 16.9443 26.5191 17.0745C26.37 17.2047 26.109 17.2605 25.7735 17.2605H24.1704ZM48.1235 17.7627C47.1542 17.7627 46.1849 17.6511 45.2528 17.4279C44.3208 17.2047 43.5938 16.9629 43.1092 16.6838C42.8109 16.5164 42.6059 16.3304 42.5313 16.163C42.4568 15.9956 42.4195 15.8096 42.4195 15.6422V14.6936C42.4195 14.303 42.5686 14.117 42.8482 14.117C42.9601 14.117 43.0719 14.1356 43.1837 14.1728C43.2956 14.21 43.4634 14.2844 43.6498 14.3588C44.2835 14.6378 44.9732 14.861 45.7002 15.0098C46.4458 15.1586 47.1728 15.233 47.9184 15.233C49.0928 15.233 50.0062 15.0284 50.64 14.6192C51.2737 14.21 51.6093 13.6147 51.6093 12.8521C51.6093 12.3313 51.4415 11.9035 51.106 11.5501C50.7705 11.1967 50.1367 10.8804 49.2233 10.5828L46.5204 9.74581C45.1596 9.31799 44.1531 8.68557 43.5379 7.84854C42.9228 7.03011 42.6059 6.11868 42.6059 5.15145C42.6059 4.37022 42.7737 3.68199 43.1092 3.08677C43.4447 2.49155 43.8921 1.97074 44.4513 1.56152C45.0105 1.13371 45.6443 0.817495 46.3899 0.594287C47.1355 0.371079 47.9184 0.278076 48.7386 0.278076C49.1487 0.278076 49.5775 0.296677 49.9875 0.352479C50.4163 0.408281 50.8077 0.482683 51.1992 0.557086C51.572 0.650089 51.9262 0.743092 52.2617 0.854696C52.5972 0.9663 52.8582 1.0779 53.0446 1.18951C53.3056 1.33831 53.492 1.48712 53.6038 1.65452C53.7157 1.80333 53.7716 2.00794 53.7716 2.26835V3.14258C53.7716 3.53319 53.6225 3.7378 53.3428 3.7378C53.1937 3.7378 52.9514 3.66339 52.6345 3.51459C51.572 3.03097 50.379 2.78916 49.0555 2.78916C47.993 2.78916 47.1542 2.95657 46.5763 3.30998C45.9985 3.66339 45.7002 4.20281 45.7002 4.96544C45.7002 5.48626 45.8866 5.93267 46.2594 6.28609C46.6322 6.6395 47.3219 6.99291 48.3099 7.30912L50.9569 8.14615C52.299 8.57397 53.2683 9.16919 53.8461 9.93181C54.424 10.6944 54.7036 11.5687 54.7036 12.5359C54.7036 13.3357 54.5358 14.0612 54.219 14.6936C53.8834 15.326 53.4361 15.884 52.8582 16.3304C52.2803 16.7955 51.5906 17.1303 50.7891 17.3721C49.9503 17.6325 49.0742 17.7627 48.1235 17.7627Z" stroke="#CCCCCC" stroke-width="2" mask="url(#path-1-inside-1_271_5844)"/>
<path d="M1.55961 22.8039C1.5331 22.78 1.51498 22.7589 1.50272 22.7418C1.52784 22.7487 1.56145 22.7619 1.6035 22.7868L1.60349 22.7869L1.60812 22.7895C9.5871 27.409 19.4224 30.2041 29.5958 30.2041C36.4649 30.2041 44.006 28.7776 50.9472 25.8494L50.9472 25.8496L50.9593 25.8441C51.2714 25.7025 51.4796 25.824 51.5515 25.9275C51.5883 25.9804 51.6004 26.0376 51.5875 26.0981C51.5745 26.1591 51.5248 26.2713 51.3503 26.4003C45.3202 30.8444 36.5204 33.2218 28.9434 33.2218C18.3324 33.2218 8.77667 29.3074 1.55961 22.8039ZM1.55961 22.8039L1.22486 23.1753L1.55961 22.8039Z" stroke="#CCCCCC"/>
<path d="M47.0159 23.3884C47.0159 23.3884 47.0161 23.3879 47.0164 23.3869L47.0159 23.3884ZM47.3292 23.1189C48.9479 22.0558 51.0674 21.6556 52.9135 21.6293C53.8628 21.6158 54.7184 21.7017 55.3673 21.8363C55.6925 21.9038 55.9553 21.9814 56.1476 22.0595C56.2435 22.0985 56.3148 22.1347 56.3645 22.1656C56.3986 22.1867 56.416 22.2013 56.4226 22.2072C56.43 22.2217 56.4677 22.2992 56.4948 22.4907C56.5232 22.6916 56.5326 22.9613 56.515 23.2904C56.48 23.9469 56.3408 24.7923 56.0793 25.7045C55.5726 27.4721 54.6301 29.4109 53.1897 30.702C53.5617 29.7758 54.0769 28.4533 54.4438 27.2091C54.6523 26.5023 54.8194 25.7999 54.8811 25.1987C54.9119 24.8981 54.9183 24.6059 54.8832 24.3422C54.8489 24.0836 54.7694 23.8123 54.5949 23.5917C54.4233 23.3724 54.1819 23.2284 53.9398 23.1294C53.6931 23.0285 53.4088 22.9595 53.1098 22.9116C52.5121 22.8159 51.7916 22.795 51.0559 22.8128C49.7497 22.8443 48.3282 22.9999 47.3292 23.1189ZM52.8372 30.9534C52.8372 30.9534 52.8376 30.9533 52.8386 30.9533L52.8372 30.9534Z" stroke="#CCCCCC"/>
</svg>
