<svg width="38" height="36" viewBox="0 0 38 36" fill="none" xmlns="http://www.w3.org/2000/svg">
<mask id="path-1-inside-1_271_5858" fill="white">
<path fill-rule="evenodd" clip-rule="evenodd" d="M26.0891 1.11728C26.3815 1.32725 26.6008 1.62368 26.7159 1.96483L37.1681 32.9346C37.2554 33.1934 37.2799 33.4693 37.2395 33.7395C37.1991 34.0096 37.095 34.2663 36.9357 34.4882C36.7764 34.7101 36.5666 34.891 36.3236 35.0157C36.0806 35.1405 35.8114 35.2056 35.5382 35.2057H23.494C23.5044 35.2057 23.5148 35.2056 23.5252 35.2054H23.1267L23.1191 35.2053C22.685 35.2024 22.2676 35.0364 21.95 34.7401L16.2311 29.4023L14.587 27.8689L13.6221 30.7126L12.5014 34.0333C12.3861 34.3748 12.1665 34.6716 11.8737 34.8819C11.732 34.9836 11.5765 35.0627 11.4129 35.1171C11.3088 35.1561 11.201 35.1857 11.0908 35.2054H2.46348C2.35008 35.2057 2.23733 35.1948 2.12684 35.173C1.96963 35.1421 1.81696 35.0893 1.67343 35.0157C1.43041 34.891 1.22056 34.7103 1.06124 34.4884C0.901929 34.2666 0.79773 34.01 0.757266 33.7399C0.716801 33.4698 0.741234 33.1939 0.828544 32.9351L11.2803 1.96654C11.3611 1.7272 11.4929 1.50983 11.6654 1.32879C11.7364 1.25374 11.8145 1.18491 11.8988 1.12334C12.187 0.91288 12.5338 0.798048 12.8903 0.794634L12.9131 0.794482H13.0546C13.0503 0.79445 13.046 0.794434 13.0417 0.794434H25.0856C25.4456 0.794392 25.7966 0.907309 26.0891 1.11728ZM21.8013 23.0889L19.0055 14.805L16.2229 23.0069L16.1952 23.0889H21.8013Z"/>
</mask>
<path d="M26.7159 1.96483L25.7683 2.28449L25.7684 2.2846L26.7159 1.96483ZM26.0891 1.11728L26.6723 0.304945L26.6723 0.304943L26.0891 1.11728ZM37.1681 32.9346L36.2206 33.2544L36.2206 33.2544L37.1681 32.9346ZM36.9357 34.4882L37.7481 35.0713L37.7481 35.0713L36.9357 34.4882ZM35.5382 35.2057V36.2057H35.5385L35.5382 35.2057ZM23.5252 35.2054L23.5435 36.2052L23.5252 34.2054V35.2054ZM23.1267 35.2054L23.1158 36.2054H23.1267V35.2054ZM23.1191 35.2053L23.13 34.2054L23.1258 34.2053L23.1191 35.2053ZM21.95 34.7401L21.2676 35.4711L21.2678 35.4713L21.95 34.7401ZM16.2311 29.4023L16.9135 28.6713L16.9132 28.6711L16.2311 29.4023ZM14.587 27.8689L15.2691 27.1376L14.1373 26.082L13.64 27.5475L14.587 27.8689ZM13.6221 30.7126L12.6751 30.3913L12.6746 30.3928L13.6221 30.7126ZM12.5014 34.0333L13.4488 34.3531L13.4488 34.353L12.5014 34.0333ZM11.8737 34.8819L11.2905 34.0696L11.2905 34.0696L11.8737 34.8819ZM11.4129 35.1171L11.0971 34.1683L11.0796 34.1741L11.0623 34.1806L11.4129 35.1171ZM11.0908 35.2054V36.2054H11.1794L11.2667 36.1898L11.0908 35.2054ZM2.46348 35.2054V34.2054L2.46076 34.2054L2.46348 35.2054ZM2.12684 35.173L2.32006 34.1919L2.31969 34.1918L2.12684 35.173ZM1.67343 35.0157L1.21702 35.9055L1.21703 35.9055L1.67343 35.0157ZM0.757266 33.7399L-0.231699 33.888H-0.231699L0.757266 33.7399ZM0.828544 32.9351L-0.118949 32.6153L-0.118988 32.6154L0.828544 32.9351ZM11.2803 1.96654L12.2278 2.28631L12.2279 2.28614L11.2803 1.96654ZM11.6654 1.32879L12.3895 2.01848L12.3916 2.0162L11.6654 1.32879ZM11.8988 1.12334L12.4885 1.93097L12.4885 1.93097L11.8988 1.12334ZM12.8903 0.794634L12.8836 -0.205348L12.8807 -0.20532L12.8903 0.794634ZM12.9131 0.794482V-0.20554L12.9064 -0.205495L12.9131 0.794482ZM13.0546 0.794482V1.79448L13.0621 -0.205489L13.0546 0.794482ZM13.0417 0.794434V-0.205566L13.0417 1.79443L13.0417 0.794434ZM25.0856 0.794434V1.79443H25.0857L25.0856 0.794434ZM19.0055 14.805L19.953 14.4852L19.008 11.6852L18.0585 14.4837L19.0055 14.805ZM21.8013 23.0889V24.0889H23.1942L22.7488 22.7691L21.8013 23.0889ZM16.2229 23.0069L15.2759 22.6856L15.2754 22.6871L16.2229 23.0069ZM16.1952 23.0889L15.2477 22.7691L14.8022 24.0889H16.1952V23.0889ZM27.6634 1.64517C27.4814 1.10572 27.1347 0.636966 26.6723 0.304945L25.5059 1.92961C25.6283 2.01753 25.7201 2.14165 25.7683 2.28449L27.6634 1.64517ZM38.1156 32.6148L27.6633 1.64505L25.7684 2.2846L36.2206 33.2544L38.1156 32.6148ZM38.2285 33.8874C38.2924 33.4603 38.2537 33.024 38.1155 32.6148L36.2206 33.2544C36.2572 33.3629 36.2674 33.4784 36.2505 33.5916L38.2285 33.8874ZM37.7481 35.0713C38 34.7204 38.1646 34.3146 38.2285 33.8874L36.2505 33.5916C36.2336 33.7047 36.19 33.8122 36.1233 33.9052L37.7481 35.0713ZM36.7803 35.9053C37.1646 35.7081 37.4963 35.4222 37.7481 35.0713L36.1233 33.9052C36.0565 33.9981 35.9687 34.0739 35.8669 34.1261L36.7803 35.9053ZM35.5385 36.2057C35.9704 36.2056 36.3961 36.1026 36.7803 35.9053L35.8669 34.1261C35.7651 34.1784 35.6523 34.2057 35.5379 34.2057L35.5385 36.2057ZM23.494 36.2057H35.5382V34.2057H23.494V36.2057ZM23.5069 34.2056C23.5026 34.2056 23.4983 34.2057 23.494 34.2057V36.2057C23.5105 36.2057 23.527 36.2055 23.5435 36.2052L23.5069 34.2056ZM23.5252 34.2054H23.1267V36.2054H23.5252V34.2054ZM23.1377 34.2055L23.13 34.2054L23.1081 36.2053L23.1158 36.2053L23.1377 34.2055ZM23.1258 34.2053C22.9425 34.2041 22.7662 34.134 22.6321 34.0089L21.2678 35.4713C21.769 35.9388 22.4274 36.2007 23.1123 36.2053L23.1258 34.2053ZM22.6323 34.0091L16.9135 28.6713L15.5488 30.1334L21.2676 35.4711L22.6323 34.0091ZM16.9132 28.6711L15.2691 27.1376L13.9049 28.6001L15.549 30.1336L16.9132 28.6711ZM13.64 27.5475L12.6751 30.3913L14.5691 31.0339L15.534 28.1902L13.64 27.5475ZM12.6746 30.3928L11.5539 33.7135L13.4488 34.353L14.5696 31.0324L12.6746 30.3928ZM11.5539 33.7134C11.5055 33.8568 11.4134 33.9813 11.2905 34.0696L12.457 35.6942C12.9197 35.3619 13.2666 34.8929 13.4488 34.3531L11.5539 33.7134ZM11.2905 34.0696C11.231 34.1123 11.1658 34.1454 11.0971 34.1683L11.7287 36.0659C11.9872 35.9799 12.233 35.855 12.457 35.6941L11.2905 34.0696ZM11.0623 34.1806C11.0147 34.1984 10.9654 34.212 10.9149 34.221L11.2667 36.1898C11.4367 36.1594 11.603 36.1137 11.7635 36.0536L11.0623 34.1806ZM11.0908 34.2054H2.46348V36.2054H11.0908V34.2054ZM2.46076 34.2054C2.41338 34.2055 2.36626 34.201 2.32006 34.1919L1.93363 36.1542C2.10841 36.1886 2.28678 36.2059 2.46621 36.2054L2.46076 34.2054ZM2.31969 34.1918C2.25385 34.1789 2.18993 34.1567 2.12983 34.1259L1.21703 35.9055C1.44399 36.0219 1.6854 36.1054 1.93399 36.1543L2.31969 34.1918ZM2.12984 34.1259C2.02809 34.0737 1.94022 33.9981 1.87351 33.9052L0.248976 35.0717C0.500893 35.4225 0.832722 35.7083 1.21702 35.9055L2.12984 34.1259ZM1.87351 33.9052C1.8068 33.8123 1.76317 33.7048 1.74623 33.5917L-0.231699 33.888C-0.167712 34.3152 -0.00294125 34.7209 0.248976 35.0717L1.87351 33.9052ZM1.74623 33.5917C1.72929 33.4786 1.73952 33.3631 1.77608 33.2547L-0.118988 32.6154C-0.257049 33.0247 -0.295685 33.4609 -0.231699 33.888L1.74623 33.5917ZM1.77604 33.2549L12.2278 2.28631L10.3328 1.64676L-0.118949 32.6153L1.77604 33.2549ZM12.2279 2.28614C12.2618 2.18571 12.3171 2.09448 12.3895 2.01848L10.9413 0.639101C10.6688 0.92518 10.4604 1.2687 10.3328 1.64693L12.2279 2.28614ZM12.3916 2.0162C12.4211 1.98505 12.4535 1.9565 12.4885 1.93097L11.3091 0.315712C11.1754 0.41332 11.0517 0.522438 10.9391 0.641376L12.3916 2.0162ZM12.4885 1.93097C12.6081 1.84365 12.7519 1.796 12.8998 1.79459L12.8807 -0.20532C12.3156 -0.199909 11.766 -0.0178893 11.3091 0.315713L12.4885 1.93097ZM12.8969 1.79461L12.9197 1.79446L12.9064 -0.205495L12.8836 -0.205344L12.8969 1.79461ZM12.9131 1.79448H13.0546V-0.205518H12.9131V1.79448ZM13.0417 1.79443C13.0435 1.79443 13.0453 1.79444 13.0471 1.79445L13.0621 -0.205489C13.0554 -0.20554 13.0486 -0.205566 13.0418 -0.205566L13.0417 1.79443ZM25.0856 -0.205566H13.0417V1.79443H25.0856V-0.205566ZM26.6723 0.304943C26.2098 -0.0270768 25.6548 -0.205632 25.0855 -0.205566L25.0857 1.79443C25.2365 1.79442 25.3834 1.8417 25.5059 1.92961L26.6723 0.304943ZM18.058 15.1248L20.8538 23.4086L22.7488 22.7691L19.953 14.4852L18.058 15.1248ZM18.0585 14.4837L15.2759 22.6856L17.1698 23.3281L19.9525 15.1263L18.0585 14.4837ZM15.2754 22.6871L15.2477 22.7691L17.1427 23.4087L17.1703 23.3267L15.2754 22.6871ZM16.1952 24.0889H21.8013V22.0889H16.1952V24.0889Z" fill="#CCCCCC" mask="url(#path-1-inside-1_271_5858)"/>
</svg>
