<svg width="48" height="38" viewBox="0 0 48 38" fill="none" xmlns="http://www.w3.org/2000/svg">
<path d="M7.35552 12.8065C8.10856 10.6598 9.27787 8.61892 10.7672 6.93174L10.7672 6.93172C17.0456 -0.181515 28.0264 -1.0097 35.1269 5.05457L30.1968 9.98484C25.9601 6.85021 19.9944 7.43976 16.3429 11.2496C16.2816 11.2402 16.211 11.2298 16.1319 11.2189C15.8305 11.1772 15.4046 11.1274 14.9027 11.094C13.9049 11.0276 12.5801 11.0243 11.3299 11.2941C9.88721 11.6055 8.60793 12.1575 7.6934 12.6279C7.5747 12.6889 7.46193 12.7487 7.35552 12.8065Z" stroke="#CCCCCC"/>
<path d="M40.8252 13.9094L40.8738 14.0885L41.0276 14.1925C44.4951 16.5379 46.5591 20.4624 46.5265 24.6486C46.4728 31.5521 40.8333 37.0538 33.9241 37L33.9241 37H33.9202H24.4062V29.9946H33.9202C36.9502 29.9946 39.4202 27.5956 39.4202 24.5506C39.4202 21.6817 37.2233 19.3258 34.4202 19.0732V18.5582C34.4761 15.5282 33.2185 12.6316 30.9886 10.6052L35.8884 5.70547C38.2611 7.92695 39.9718 10.7667 40.8252 13.9094Z" stroke="#CCCCCC"/>
<path d="M13.9058 37.0001L13.9036 37.0001C11.3773 37.011 8.90776 36.2159 6.82375 34.7837L11.9717 29.6359C12.5886 29.8722 13.2382 29.9943 13.9056 29.9945H13.9058H23.4057V37.0001L13.9058 37.0001Z" stroke="#CCCCCC"/>
<path d="M1.47679 24.6112C1.43563 17.705 7.00052 12.0728 13.9067 12.0313C17.6664 12.018 21.2236 13.6982 23.601 16.5911L18.5924 21.5995C18.0196 20.6716 17.1804 19.9298 16.1768 19.4765C13.4089 18.226 10.1509 19.4561 8.90034 22.2242C7.74818 24.7743 8.70136 27.7399 11.0229 29.1691L6.01559 34.1763C3.16691 31.8225 1.49892 28.3215 1.47679 24.6112Z" stroke="#CCCCCC"/>
</svg>
