<svg width="60" height="30" viewBox="0 0 60 30" fill="none" xmlns="http://www.w3.org/2000/svg">
<path d="M5.39479 10.0679H14.9766L14.9297 10.1382L5.29245 10.2141L5.39479 10.0679ZM0.926069 12.8539L1.03265 12.7016H13.7793L13.7336 12.8539H0.926069ZM12.5428 15.5L7.8401 15.5611L7.87403 15.5H12.5428ZM33.9703 5.95771C35.3832 6.85006 36.3743 8.10451 37.079 9.67987L32.3156 10.8909C32.2738 10.8994 32.235 10.9079 32.2024 10.9149C32.1948 10.9166 32.1876 10.9182 32.1807 10.9197C32.1623 10.9237 32.1468 10.927 32.1334 10.9297C32.107 10.8975 32.0702 10.8479 32.0196 10.772L32.0048 10.7498L31.9877 10.7293C31.5565 10.2118 31.164 9.81072 30.4048 9.52063C28.4204 8.53835 26.431 8.82487 24.6682 9.96927C22.5389 11.3017 21.474 13.3601 21.474 15.9053C21.474 18.4609 23.3053 20.563 25.8539 20.9271L25.8539 20.9271L25.8626 20.9282C28.0085 21.1965 29.8152 20.4702 31.2366 18.8713L31.2504 18.8557L31.2629 18.8391C31.5097 18.51 31.7525 18.1863 32.0763 17.7815L32.7262 16.9691H31.6859H26.0892C26.0102 16.9691 25.9709 16.9561 25.9572 16.9501C25.9553 16.9427 25.9528 16.9291 25.9526 16.9076C25.9521 16.8698 25.9588 16.8149 25.9803 16.7441C26.0335 16.6271 26.0901 16.5019 26.1494 16.371C26.557 15.4704 27.0868 14.2997 27.4316 13.679L27.4369 13.6695L27.4418 13.6598C27.458 13.6272 27.5005 13.5626 27.5616 13.5117C27.6172 13.4653 27.6723 13.4424 27.7353 13.4424H37.7272C37.7119 13.6682 37.7003 13.8884 37.6889 14.1046L37.6887 14.1095C37.6683 14.4971 37.6484 14.8721 37.6096 15.2647C37.2896 17.2523 36.5765 19.1358 35.3284 20.6959L35.3283 20.6958L35.3203 20.7063C33.3357 23.326 30.7336 24.9778 27.4177 25.4515C24.6556 25.8461 22.1592 25.2948 19.972 23.6554C17.9373 22.0894 16.7741 20.0695 16.4619 17.5717L16.4615 17.5685C16.0703 14.5955 17.0039 11.8447 18.8317 9.46058L18.8334 9.45829C20.8187 6.83768 23.425 5.1822 26.6672 4.62865L26.6672 4.62868L26.6725 4.62772C29.2907 4.15168 31.784 4.47447 33.9566 5.9487L33.9634 5.95332L33.9703 5.95771Z" stroke="#CCCCCC"/>
<path d="M37.1194 17.9719L37.1192 17.971C36.6479 14.8288 37.5054 12.0831 39.407 9.62697L39.407 9.62697L39.4088 9.6246C41.4627 6.93867 43.8972 5.59633 47.2476 4.95716C50.131 4.47752 52.7796 4.72928 55.1035 6.35601L55.1034 6.35605L55.1095 6.36013C57.3012 7.84741 58.6187 9.86423 59.01 12.5159C59.4825 16.3073 58.3857 19.2841 55.8543 21.8946L55.8523 21.8967C54.0437 23.7839 51.7561 24.8958 49.2016 25.456C48.7775 25.5327 48.3685 25.5719 47.966 25.6021C47.855 25.6104 47.7427 25.6182 47.6301 25.6259C47.3537 25.6449 47.0757 25.6641 46.8114 25.6924C44.2825 25.6076 42.0226 24.8951 40.0759 23.2607C38.4367 21.8549 37.4302 20.0698 37.1194 17.9719ZM54.243 14.5393L54.2441 14.5227V14.5061V14.4822C54.2442 14.094 54.2442 13.796 54.1515 13.4158C53.5992 10.2521 50.6858 8.44529 47.6268 9.16212C46.1905 9.46768 44.9911 10.0837 44.0614 11.0022C43.1312 11.9213 42.4945 13.1198 42.1471 14.5529L42.147 14.5529L42.1449 14.5622C41.6025 17.003 42.7756 19.544 45.0504 20.6358L45.0614 20.6411L45.0727 20.6459C46.7742 21.3623 48.5715 21.2717 50.1785 20.4693C52.7241 19.2392 54.0664 17.1884 54.243 14.5393Z" stroke="#CCCCCC"/>
</svg>
