<svg width="40" height="36" viewBox="0 0 40 36" fill="none" xmlns="http://www.w3.org/2000/svg">
<path d="M13.3481 26.4791L10.8542 28.9731L9.35505 27.4739L11.849 24.98H13.3481V26.4791Z" stroke="#CCCCCC"/>
<path d="M11.849 11.0171L9.35503 8.52312L10.8542 7.02398L13.3481 9.51794V11.0171H11.849Z" stroke="#CCCCCC"/>
<path d="M17.9896 14.6149L17.7907 14.6228L17.6515 14.7652L17.5248 14.895L17.3825 15.0407V15.2444V23.0683H15.2617V12.9285H21.0032C23.0661 12.9285 24.7376 14.6 24.7376 16.6629V23.0713H22.6169V17.0884C22.6169 16.4787 22.4992 15.856 22.1258 15.3728C21.7358 14.8682 21.1331 14.5994 20.3484 14.5815C19.6409 14.563 18.8376 14.5817 17.9896 14.6149Z" stroke="#CCCCCC"/>
<path d="M11.1429 16.9365V19.0633H1V16.9365H11.1429Z" stroke="#CCCCCC"/>
<path d="M38.9984 16.9365V19.0633H28.8555V16.9365H38.9984Z" stroke="#CCCCCC"/>
<path d="M21.0838 8.81084H18.957V1.34204H21.0838V8.81084Z" stroke="#CCCCCC"/>
<path d="M21.0838 34.6582H18.957V27.1892H21.0838V34.6582Z" stroke="#CCCCCC"/>
</svg>
