<svg width="36" height="36" viewBox="0 0 36 36" fill="none" xmlns="http://www.w3.org/2000/svg">
<g clip-path="url(#clip0_271_5816)">
<path d="M13.7226 0.844344L13.7228 0.844321C14.9399 0.63056 16.3292 0.507017 17.788 0.50029C19.2466 0.493563 20.7661 0.603655 22.2279 0.845154C24.4239 1.20843 26.1511 2.81468 26.1511 4.83177V13.0382C26.1511 15.1748 24.4414 16.9177 22.3095 16.9177H13.6363C10.4179 16.9177 7.71172 19.6483 7.71172 22.7715V26.209H5.2262C4.09802 26.209 3.22711 25.808 2.56023 25.1304C1.88227 24.4415 1.39232 23.4417 1.09727 22.222L1.09716 22.2216C0.686688 20.5318 0.495823 19.205 0.500069 17.9074C0.504316 16.6096 0.703771 15.3184 1.09716 13.6987L1.09733 13.698C1.73213 11.0676 3.73369 9.71123 6.03583 9.71123H9.29461H17.9779H18.4779V9.21123V8.11637V7.61637H17.9779H9.79461V4.83177C9.79461 3.61536 9.96284 2.813 10.4667 2.22668C10.9774 1.63246 11.9188 1.16063 13.7226 0.844344ZM15.2192 4.28936C15.2192 3.10959 14.2677 2.14204 13.0898 2.14204C11.908 2.14204 10.9604 3.11023 10.9604 4.28936C10.9604 5.46862 11.9114 6.42663 13.0898 6.42663C14.2643 6.42663 15.2192 5.46926 15.2192 4.28936Z" stroke="#CCCCCC"/>
<path d="M26.1495 28.3038V31.0884C26.1495 32.1651 25.6912 32.9717 24.9706 33.5977C24.2355 34.2362 23.2278 34.6833 22.1697 34.9873L22.1695 34.9874C18.9789 35.9063 16.44 35.7657 13.7747 34.9879C11.5182 34.3292 9.79297 33.0619 9.79297 31.0884V22.8819C9.79297 20.79 11.5417 19.0025 13.6346 19.0025H22.3078C25.4742 19.0025 28.2324 16.2812 28.2324 13.0382V9.71118H30.9912C32.1111 9.71118 32.9045 10.1186 33.5014 10.7924C34.1161 11.4862 34.5444 12.489 34.8478 13.7019L34.8478 13.7022C35.7003 17.1034 35.7262 19.5973 34.8588 22.1804L34.8587 22.1808C34.4206 23.4897 33.991 24.4974 33.4008 25.1808C32.8392 25.8311 32.1134 26.2089 30.9912 26.2089H26.6495H17.9763H17.4763V26.7089V27.8038V28.3038H17.9763H26.1495ZM24.9837 31.6308C24.9837 30.4516 24.0327 29.4935 22.8543 29.4935C21.6798 29.4935 20.7249 30.4509 20.7249 31.6308C20.7249 32.8106 21.6764 33.7781 22.8543 33.7781C24.0361 33.7781 24.9837 32.8099 24.9837 31.6308Z" stroke="#CCCCCC"/>
</g>
<defs>
<clipPath id="clip0_271_5816">
<rect width="36" height="36" fill="white"/>
</clipPath>
</defs>
</svg>
