<svg width="36" height="36" viewBox="0 0 36 36" fill="none" xmlns="http://www.w3.org/2000/svg">
<g clip-path="url(#clip0_271_5810)">
<path d="M2.8125 0.5H33.1875C34.4647 0.5 35.5 1.53534 35.5 2.8125V33.1875C35.5 34.4647 34.4647 35.5 33.1875 35.5H2.8125C1.53534 35.5 0.5 34.4647 0.5 33.1875V2.8125C0.5 1.53534 1.53534 0.5 2.8125 0.5Z" stroke="#CCCCCC"/>
<path fill-rule="evenodd" clip-rule="evenodd" d="M21.1666 28.1918V32.0759C21.7983 32.3996 22.5454 32.6423 23.4079 32.8042C24.2703 32.966 25.1793 33.0469 26.135 33.0469C27.0662 33.0469 27.951 32.9579 28.7892 32.7798C29.6273 32.6018 30.3623 32.3085 30.9939 31.8999C31.6256 31.4913 32.1256 30.9572 32.4942 30.2977C32.8627 29.6383 33.0469 28.8231 33.0469 27.852C33.0469 27.1481 32.9415 26.531 32.731 26.001C32.5205 25.471 32.2168 24.9996 31.8199 24.587C31.4232 24.1743 30.9473 23.8042 30.3927 23.4764C29.838 23.1487 29.2123 22.8392 28.5158 22.548C28.0056 22.3374 27.5482 22.1332 27.1432 21.935C26.7383 21.7367 26.394 21.5345 26.1107 21.328C25.8272 21.1217 25.6085 20.9032 25.4547 20.6726C25.3008 20.442 25.2239 20.1811 25.2239 19.8897C25.2239 19.6227 25.2927 19.3821 25.4303 19.1676C25.568 18.9532 25.7625 18.7691 26.0135 18.6154C26.2645 18.4615 26.5722 18.3423 26.9367 18.2572C27.3011 18.1723 27.7061 18.1298 28.1514 18.1298C28.4754 18.1298 28.8176 18.1541 29.1779 18.2026C29.5383 18.2512 29.9007 18.326 30.2652 18.4272C30.6295 18.5283 30.9838 18.6557 31.328 18.8096C31.6721 18.9633 31.9901 19.1413 32.2816 19.3435V15.7144C31.6904 15.4879 31.0445 15.32 30.3441 15.2107C29.6436 15.1014 28.8398 15.0469 27.9328 15.0469C27.0096 15.0469 26.135 15.146 25.309 15.3443C24.483 15.5424 23.7561 15.852 23.1285 16.2727C22.5008 16.6936 22.0049 17.2297 21.6404 17.881C21.276 18.5324 21.0938 19.3112 21.0938 20.2175C21.0938 21.3746 21.4277 22.3618 22.096 23.1791C22.7641 23.9962 23.7783 24.6881 25.1388 25.2546C25.6733 25.4731 26.1714 25.6874 26.633 25.8979C27.0946 26.1083 27.4935 26.3267 27.8295 26.5532C28.1656 26.7798 28.4309 27.0266 28.6252 27.2936C28.8195 27.5607 28.9167 27.8641 28.9167 28.204C28.9167 28.4548 28.856 28.6875 28.7345 28.902C28.6131 29.1163 28.4288 29.3025 28.1818 29.4602C27.9349 29.618 27.627 29.7413 27.2586 29.8304C26.8902 29.9194 26.4589 29.964 25.9649 29.964C25.1227 29.964 24.2886 29.8163 23.4626 29.5208C22.6364 29.2255 21.8711 28.7826 21.1666 28.1918ZM14.6928 18.5262H19.6875V15.3281H5.76562V18.5262H10.736V32.7656H14.6928V18.5262Z" fill="#CCCCCC"/>
</g>
<defs>
<clipPath id="clip0_271_5810">
<rect width="36" height="36" fill="white"/>
</clipPath>
</defs>
</svg>
