<svg preserveAspectRatio="none" width="100%" height="100%" overflow="visible" style="display: block;" viewBox="0 0 30.021 25.7135" fill="none" xmlns="http://www.w3.org/2000/svg">
<g id="Icon">
<path id="Vector" d="M0.242188 11.0325V14.6871C0.242188 15.2563 0.545937 15.7849 1.04103 16.0695L4.20528 17.8968C4.70037 18.1814 5.30787 18.1814 5.80296 17.8968L8.96722 16.0695C9.4623 15.7849 9.76605 15.2563 9.76605 14.6871V11.0325C9.76605 10.4633 9.4623 9.93473 8.96722 9.65012L5.80296 7.82284C5.30787 7.53822 4.70037 7.53822 4.20528 7.82284L1.04103 9.65012C0.545937 9.93473 0.242188 10.4633 0.242188 11.0325Z" stroke="var(--stroke-0, white)" stroke-width="0.303242" stroke-linecap="round" stroke-linejoin="round"/>
<path id="Vector_2" d="M7.25699 19.6595C7.92428 20.0445 8.74704 20.0445 9.41433 19.6595L13.6883 17.1912C14.3556 16.8061 14.767 16.0934 14.767 15.3233V10.3867C14.767 9.61659 14.3556 8.90385 13.6883 8.51879L9.41433 6.05052C8.74704 5.66545 7.92428 5.66545 7.25699 6.05052L2.98297 8.51879C2.31567 8.90385 1.9043 9.61659 1.9043 10.3867V15.3233C1.9043 16.0934 2.31567 16.8061 2.98297 17.1912L7.25699 19.6595Z" stroke="var(--stroke-0, white)" stroke-width="0.303242" stroke-linecap="round" stroke-linejoin="round"/>
<path id="Vector_3" d="M10.3126 21.4295C11.1521 21.915 12.1877 21.915 13.0296 21.4295L18.4134 18.3202C19.2529 17.8347 19.7719 16.9378 19.7719 15.9668V9.75068C19.7719 8.77964 19.2529 7.88274 18.4134 7.39722L13.0296 4.28797C12.1901 3.80245 11.1545 3.80245 10.3126 4.28797L4.92882 7.39722C4.08932 7.88274 3.57031 8.77964 3.57031 9.75068V15.9668C3.57031 16.9378 4.08932 17.8347 4.92882 18.3202L10.3126 21.4295Z" stroke="var(--stroke-0, white)" stroke-width="0.303242" stroke-linecap="round" stroke-linejoin="round"/>
<path id="Vector_4" d="M13.3682 23.1961C14.3823 23.782 15.6308 23.782 16.6449 23.1961L23.1384 19.4458C24.1525 18.8599 24.7768 17.7788 24.7768 16.6068V9.10877C24.7768 7.93922 24.1525 6.85576 23.1384 6.26979L16.6449 2.51956C15.6308 1.93358 14.3823 1.93358 13.3682 2.51956L6.87466 6.26979C5.86057 6.85576 5.23633 7.93683 5.23633 9.10877V16.6068C5.23633 17.7764 5.86057 18.8599 6.87466 19.4458L13.3682 23.1961Z" stroke="var(--stroke-0, white)" stroke-width="0.303242" stroke-linecap="round" stroke-linejoin="round"/>
<path id="Vector_5" d="M6.90039 8.46838V17.2484C6.90039 18.6189 7.63226 19.8865 8.81856 20.5705L16.4219 24.9617C17.6082 25.6482 19.0719 25.6482 20.2582 24.9617L27.8615 20.5705C29.0478 19.8841 29.7797 18.6189 29.7797 17.2484V8.46838C29.7797 7.09792 29.0478 5.8303 27.8615 5.14627L20.2606 0.755054C19.0743 0.0686278 17.6106 0.0686278 16.4243 0.755054L8.82095 5.14627C7.63465 5.8327 6.90278 7.09792 6.90278 8.46838H6.90039Z" stroke="var(--stroke-0, white)" stroke-width="0.303242" stroke-linecap="round" stroke-linejoin="round"/>
</g>
</svg>
