<svg preserveAspectRatio="none" width="100%" height="100%" overflow="visible" style="display: block;" viewBox="0 0 21.6471 32.2066" fill="none" xmlns="http://www.w3.org/2000/svg">
<g id="layer_1">
<path id="Vector" d="M10.8232 10.8213C16.6551 10.8213 21.3828 8.45743 21.3828 5.54149C21.3828 2.62555 16.6551 0.261719 10.8232 0.261719C4.99134 0.261719 0.263672 2.62555 0.263672 5.54149C0.263672 8.45743 4.99134 10.8213 10.8232 10.8213Z" stroke="var(--stroke-0, white)" stroke-width="0.376471" stroke-miterlimit="10"/>
<path id="Vector_2" d="M0.263672 5.54102V10.8208C0.263672 13.7379 4.99171 16.1006 10.8232 16.1006C16.6547 16.1006 21.3828 13.7379 21.3828 10.8208V5.54102" stroke="var(--stroke-0, white)" stroke-width="0.376471" stroke-miterlimit="10"/>
<path id="Vector_3" d="M2.9043 14.3149V9.03516" stroke="var(--stroke-0, white)" stroke-width="0.376471" stroke-miterlimit="10"/>
<path id="Vector_4" d="M5.54492 15.3911V10.1113" stroke="var(--stroke-0, white)" stroke-width="0.376471" stroke-miterlimit="10"/>
<path id="Vector_5" d="M8.18555 15.936V10.6562" stroke="var(--stroke-0, white)" stroke-width="0.376471" stroke-miterlimit="10"/>
<path id="Vector_6" d="M10.8242 16.102V10.8223" stroke="var(--stroke-0, white)" stroke-width="0.376471" stroke-miterlimit="10"/>
<path id="Vector_7" d="M13.4629 15.936V10.6562" stroke="var(--stroke-0, white)" stroke-width="0.376471" stroke-miterlimit="10"/>
<path id="Vector_8" d="M16.1035 15.3911V10.1113" stroke="var(--stroke-0, white)" stroke-width="0.376471" stroke-miterlimit="10"/>
<path id="Vector_9" d="M18.7441 14.3149V9.03516" stroke="var(--stroke-0, white)" stroke-width="0.376471" stroke-miterlimit="10"/>
<path id="Vector_10" d="M0.263672 10.8223V16.102C0.263672 19.0191 4.99171 21.3818 10.8232 21.3818C16.6547 21.3818 21.3828 19.0191 21.3828 16.102V10.8223" stroke="var(--stroke-0, white)" stroke-width="0.376471" stroke-miterlimit="10"/>
<path id="Vector_11" d="M2.9043 19.5942V14.3145" stroke="var(--stroke-0, white)" stroke-width="0.376471" stroke-miterlimit="10"/>
<path id="Vector_12" d="M5.54492 20.6704V15.3906" stroke="var(--stroke-0, white)" stroke-width="0.376471" stroke-miterlimit="10"/>
<path id="Vector_13" d="M8.18555 21.2153V15.9355" stroke="var(--stroke-0, white)" stroke-width="0.376471" stroke-miterlimit="10"/>
<path id="Vector_14" d="M10.8242 21.3813V16.1016" stroke="var(--stroke-0, white)" stroke-width="0.376471" stroke-miterlimit="10"/>
<path id="Vector_15" d="M13.4629 21.2153V15.9355" stroke="var(--stroke-0, white)" stroke-width="0.376471" stroke-miterlimit="10"/>
<path id="Vector_16" d="M16.1035 20.6704V15.3906" stroke="var(--stroke-0, white)" stroke-width="0.376471" stroke-miterlimit="10"/>
<path id="Vector_17" d="M18.7441 19.5942V14.3145" stroke="var(--stroke-0, white)" stroke-width="0.376471" stroke-miterlimit="10"/>
<path id="Vector_18" d="M0.263672 16.1016V21.3813C0.263672 24.2984 4.99171 26.6611 10.8232 26.6611C16.6547 26.6611 21.3828 24.2984 21.3828 21.3813V16.1016" stroke="var(--stroke-0, white)" stroke-width="0.376471" stroke-miterlimit="10"/>
<path id="Vector_19" d="M2.9043 24.8735V19.5938" stroke="var(--stroke-0, white)" stroke-width="0.376471" stroke-miterlimit="10"/>
<path id="Vector_20" d="M5.54492 25.9516V20.6719" stroke="var(--stroke-0, white)" stroke-width="0.376471" stroke-miterlimit="10"/>
<path id="Vector_21" d="M8.18555 26.4946V21.2148" stroke="var(--stroke-0, white)" stroke-width="0.376471" stroke-miterlimit="10"/>
<path id="Vector_22" d="M10.8242 26.6606V21.3809" stroke="var(--stroke-0, white)" stroke-width="0.376471" stroke-miterlimit="10"/>
<path id="Vector_23" d="M13.4629 26.4946V21.2148" stroke="var(--stroke-0, white)" stroke-width="0.376471" stroke-miterlimit="10"/>
<path id="Vector_24" d="M16.1035 25.9516V20.6719" stroke="var(--stroke-0, white)" stroke-width="0.376471" stroke-miterlimit="10"/>
<path id="Vector_25" d="M18.7441 24.8735V19.5938" stroke="var(--stroke-0, white)" stroke-width="0.376471" stroke-miterlimit="10"/>
<path id="Vector_26" d="M0.263672 21.3809V26.6606C0.263672 29.5777 4.99171 31.9404 10.8232 31.9404C16.6547 31.9404 21.3828 29.5777 21.3828 26.6606V21.3809" stroke="var(--stroke-0, white)" stroke-width="0.376471" stroke-miterlimit="10"/>
<path id="Vector_27" d="M2.9043 30.1548V24.875" stroke="var(--stroke-0, white)" stroke-width="0.376471" stroke-miterlimit="10"/>
<path id="Vector_28" d="M5.54492 31.2309V25.9512" stroke="var(--stroke-0, white)" stroke-width="0.376471" stroke-miterlimit="10"/>
<path id="Vector_29" d="M8.18555 31.7739V26.4941" stroke="var(--stroke-0, white)" stroke-width="0.376471" stroke-miterlimit="10"/>
<path id="Vector_30" d="M10.8242 31.9419V26.6621" stroke="var(--stroke-0, white)" stroke-width="0.376471" stroke-miterlimit="10"/>
<path id="Vector_31" d="M13.4629 31.7739V26.4941" stroke="var(--stroke-0, white)" stroke-width="0.376471" stroke-miterlimit="10"/>
<path id="Vector_32" d="M16.1035 31.2309V25.9512" stroke="var(--stroke-0, white)" stroke-width="0.376471" stroke-miterlimit="10"/>
<path id="Vector_33" d="M18.7441 30.1548V24.875" stroke="var(--stroke-0, white)" stroke-width="0.376471" stroke-miterlimit="10"/>
<path id="Vector_34" d="M10.8247 8.18016C13.7406 8.18016 16.1045 6.99824 16.1045 5.54028C16.1045 4.08231 13.7406 2.90039 10.8247 2.90039C7.90876 2.90039 5.54492 4.08231 5.54492 5.54028C5.54492 6.99824 7.90876 8.18016 10.8247 8.18016Z" stroke="var(--stroke-0, white)" stroke-width="0.376471" stroke-miterlimit="10"/>
<path id="Vector_35" d="M13.4629 7.82814V3.25586" stroke="var(--stroke-0, white)" stroke-width="0.376471" stroke-miterlimit="10"/>
<path id="Vector_36" d="M10.8242 8.18016V2.90039" stroke="var(--stroke-0, white)" stroke-width="0.376471" stroke-miterlimit="10"/>
<path id="Vector_37" d="M8.18555 7.82814V3.25586" stroke="var(--stroke-0, white)" stroke-width="0.376471" stroke-miterlimit="10"/>
</g>
</svg>
