<svg preserveAspectRatio="none" width="100%" height="100%" overflow="visible" style="display: block;" viewBox="0 0 32 12.8528" fill="none" xmlns="http://www.w3.org/2000/svg">
<g id="Icon">
<path id="Vector" d="M29.2465 12.6238C30.6393 12.6238 31.7684 11.4948 31.7684 10.102C31.7684 8.70916 30.6393 7.58007 29.2465 7.58007C27.8537 7.58007 26.7246 8.70916 26.7246 10.102C26.7246 11.4948 27.8537 12.6238 29.2465 12.6238Z" stroke="var(--stroke-0, black)" stroke-width="0.0963855" stroke-miterlimit="10"/>
<path id="Vector_2" d="M18.7426 12.6238C20.1354 12.6238 21.2645 11.4948 21.2645 10.102C21.2645 8.70916 20.1354 7.58008 18.7426 7.58008C17.3498 7.58008 16.2207 8.70916 16.2207 10.102C16.2207 11.4948 17.3498 12.6238 18.7426 12.6238Z" stroke="var(--stroke-0, black)" stroke-width="0.0963855" stroke-miterlimit="10"/>
<path id="Vector_3" d="M8.23869 12.6239C9.63149 12.6239 10.7606 11.4948 10.7606 10.102C10.7606 8.70916 9.63149 7.58008 8.23869 7.58008C6.84589 7.58008 5.7168 8.70916 5.7168 10.102C5.7168 11.4948 6.84589 12.6239 8.23869 12.6239Z" stroke="var(--stroke-0, black)" stroke-width="0.0963855" stroke-miterlimit="10"/>
<path id="Vector_4" d="M23.9516 5.26838C25.3444 5.26838 26.4735 4.13929 26.4735 2.74649C26.4735 1.35369 25.3444 0.224606 23.9516 0.224606C22.5588 0.224606 21.4297 1.35369 21.4297 2.74649C21.4297 4.13929 22.5588 5.26838 23.9516 5.26838Z" stroke="var(--stroke-0, black)" stroke-width="0.0963855" stroke-miterlimit="10"/>
<path id="Vector_5" d="M13.352 5.26838C14.7448 5.26838 15.8739 4.13929 15.8739 2.74649C15.8739 1.35369 14.7448 0.224607 13.352 0.224607C11.9592 0.224607 10.8301 1.35369 10.8301 2.74649C10.8301 4.13929 11.9592 5.26838 13.352 5.26838Z" stroke="var(--stroke-0, black)" stroke-width="0.0963855" stroke-miterlimit="10"/>
<path id="Vector_6" d="M2.74845 5.26838C4.14125 5.26838 5.27034 4.1393 5.27034 2.7465C5.27034 1.3537 4.14125 0.224609 2.74845 0.224609C1.35565 0.224609 0.226564 1.3537 0.226564 2.7465C0.226564 4.1393 1.35565 5.26838 2.74845 5.26838Z" stroke="var(--stroke-0, black)" stroke-width="0.0963855" stroke-miterlimit="10"/>
<path id="Vector_7" d="M2.75 2.74805C5.39923 2.74805 5.39924 10.1 8.05074 10.1C10.7 10.1 10.7 2.74805 13.3515 2.74805C16.0007 2.74805 16.0007 10.1 18.6522 10.1C21.3014 10.1 21.3015 2.74805 23.953 2.74805C26.6045 2.74805 26.6022 10.1 29.2537 10.1" stroke="var(--stroke-0, black)" stroke-width="0.0963855" stroke-miterlimit="10"/>
<path id="Vector_8" d="M29.2465 12.6238C30.6393 12.6238 31.7684 11.4948 31.7684 10.102C31.7684 8.70916 30.6393 7.58007 29.2465 7.58007C27.8537 7.58007 26.7246 8.70916 26.7246 10.102C26.7246 11.4948 27.8537 12.6238 29.2465 12.6238Z" stroke="var(--stroke-0, white)" stroke-width="0.257028" stroke-linecap="round" stroke-linejoin="round"/>
<path id="Vector_9" d="M18.7426 12.6238C20.1354 12.6238 21.2645 11.4948 21.2645 10.102C21.2645 8.70916 20.1354 7.58008 18.7426 7.58008C17.3498 7.58008 16.2207 8.70916 16.2207 10.102C16.2207 11.4948 17.3498 12.6238 18.7426 12.6238Z" stroke="var(--stroke-0, white)" stroke-width="0.257028" stroke-linecap="round" stroke-linejoin="round"/>
<path id="Vector_10" d="M8.23869 12.6239C9.63149 12.6239 10.7606 11.4948 10.7606 10.102C10.7606 8.70916 9.63149 7.58008 8.23869 7.58008C6.84589 7.58008 5.7168 8.70916 5.7168 10.102C5.7168 11.4948 6.84589 12.6239 8.23869 12.6239Z" stroke="var(--stroke-0, white)" stroke-width="0.257028" stroke-linecap="round" stroke-linejoin="round"/>
<path id="Vector_11" d="M23.9516 5.26838C25.3444 5.26838 26.4735 4.13929 26.4735 2.74649C26.4735 1.35369 25.3444 0.224606 23.9516 0.224606C22.5588 0.224606 21.4297 1.35369 21.4297 2.74649C21.4297 4.13929 22.5588 5.26838 23.9516 5.26838Z" stroke="var(--stroke-0, white)" stroke-width="0.257028" stroke-linecap="round" stroke-linejoin="round"/>
<path id="Vector_12" d="M13.352 5.26838C14.7448 5.26838 15.8739 4.13929 15.8739 2.74649C15.8739 1.35369 14.7448 0.224607 13.352 0.224607C11.9592 0.224607 10.8301 1.35369 10.8301 2.74649C10.8301 4.13929 11.9592 5.26838 13.352 5.26838Z" stroke="var(--stroke-0, white)" stroke-width="0.257028" stroke-linecap="round" stroke-linejoin="round"/>
<path id="Vector_13" d="M2.74845 5.26838C4.14125 5.26838 5.27034 4.1393 5.27034 2.7465C5.27034 1.3537 4.14125 0.224609 2.74845 0.224609C1.35565 0.224609 0.226564 1.3537 0.226564 2.7465C0.226564 4.1393 1.35565 5.26838 2.74845 5.26838Z" stroke="var(--stroke-0, white)" stroke-width="0.257028" stroke-linecap="round" stroke-linejoin="round"/>
<path id="Vector_14" d="M2.75 2.74805C5.39923 2.74805 5.39924 10.1 8.05074 10.1C10.7 10.1 10.7 2.74805 13.3515 2.74805C16.0007 2.74805 16.0007 10.1 18.6522 10.1C21.3014 10.1 21.3015 2.74805 23.953 2.74805C26.6045 2.74805 26.6022 10.1 29.2537 10.1" stroke="var(--stroke-0, white)" stroke-width="0.257028" stroke-linecap="round" stroke-linejoin="round"/>
</g>
</svg>
