<svg preserveAspectRatio="none" width="100%" height="100%" overflow="visible" style="display: block;" viewBox="0 0 32 20.523" fill="none" xmlns="http://www.w3.org/2000/svg">
<g id="layer_1">
<path id="Vector" d="M21.4863 20.2668C27.1503 20.2668 31.7401 15.7875 31.7401 10.2623C31.7401 4.73709 27.1503 0.257812 21.4863 0.257812" stroke="var(--stroke-0, white)" stroke-width="0.293578" stroke-linecap="round" stroke-linejoin="round"/>
<path id="Vector_2" d="M20.5508 20.2668C25.2819 20.2668 29.1187 15.7875 29.1187 10.2623C29.1187 4.73709 25.2819 0.257812 20.5508 0.257812" stroke="var(--stroke-0, white)" stroke-width="0.293578" stroke-linecap="round" stroke-linejoin="round"/>
<path id="Vector_3" d="M19.6172 20.2668C23.4155 20.2668 26.4967 15.7875 26.4967 10.2623C26.4967 4.73709 23.4155 0.257812 19.6172 0.257812" stroke="var(--stroke-0, white)" stroke-width="0.293578" stroke-linecap="round" stroke-linejoin="round"/>
<path id="Vector_4" d="M18.6797 20.2668C21.5451 20.2668 23.8708 15.7875 23.8708 10.2623C23.8708 4.73709 21.5451 0.257812 18.6797 0.257812" stroke="var(--stroke-0, white)" stroke-width="0.293578" stroke-linecap="round" stroke-linejoin="round"/>
<path id="Vector_5" d="M17.7441 20.2668C19.6793 20.2668 21.2469 15.7875 21.2469 10.2623C21.2469 4.73709 19.6793 0.257812 17.7441 0.257812" stroke="var(--stroke-0, white)" stroke-width="0.293578" stroke-linecap="round" stroke-linejoin="round"/>
<path id="Vector_6" d="M16.8105 20.2668C17.8128 20.2668 18.6249 15.7875 18.6249 10.2623C18.6249 4.73709 17.8128 0.257812 16.8105 0.257812" stroke="var(--stroke-0, white)" stroke-width="0.293578" stroke-linecap="round" stroke-linejoin="round"/>
<path id="Vector_7" d="M15.875 20.2668C15.9444 20.2668 16.0009 15.7875 16.0009 10.2623C16.0009 4.73709 15.9444 0.257812 15.875 0.257812" stroke="var(--stroke-0, white)" stroke-width="0.293578" stroke-linecap="round" stroke-linejoin="round"/>
<path id="Vector_8" d="M14.9375 20.2668C14.074 20.2668 13.375 15.7875 13.375 10.2623C13.375 4.73709 14.074 0.257812 14.9375 0.257812" stroke="var(--stroke-0, white)" stroke-width="0.293578" stroke-linecap="round" stroke-linejoin="round"/>
<path id="Vector_9" d="M14.0028 20.2668C12.2065 20.2668 10.752 15.7875 10.752 10.2623C10.752 4.73709 12.2065 0.257812 14.0028 0.257812" stroke="var(--stroke-0, white)" stroke-width="0.293578" stroke-linecap="round" stroke-linejoin="round"/>
<path id="Vector_10" d="M13.0662 20.2668C10.337 20.2668 8.12695 15.7875 8.12695 10.2623C8.12695 4.73709 10.3396 0.257812 13.0662 0.257812" stroke="var(--stroke-0, white)" stroke-width="0.293578" stroke-linecap="round" stroke-linejoin="round"/>
<path id="Vector_11" d="M12.1296 20.2668C8.47015 20.2668 5.50195 15.7875 5.50195 10.2623C5.50195 4.73709 8.47015 0.257812 12.1296 0.257812" stroke="var(--stroke-0, white)" stroke-width="0.293578" stroke-linecap="round" stroke-linejoin="round"/>
<path id="Vector_12" d="M11.197 20.2668C6.6046 20.2668 2.88086 15.7875 2.88086 10.2623C2.88086 4.73709 6.6046 0.257812 11.197 0.257812" stroke="var(--stroke-0, white)" stroke-width="0.293578" stroke-linecap="round" stroke-linejoin="round"/>
<path id="Vector_13" d="M10.2604 20.2668C4.73514 20.2668 0.255859 15.7875 0.255859 10.2623C0.255859 4.73709 4.73514 0.257812 10.2604 0.257812" stroke="var(--stroke-0, white)" stroke-width="0.293578" stroke-linecap="round" stroke-linejoin="round"/>
</g>
</svg>
