<svg width="299" height="175" viewBox="0 0 299 175" fill="none" xmlns="http://www.w3.org/2000/svg">
<path d="M134.422 75.1976L148.515 99.2493C149.101 100.249 148.38 101.508 147.221 101.508H119.034C117.875 101.508 117.154 100.249 117.74 99.2493L131.834 75.1976C132.413 74.2088 133.842 74.2088 134.422 75.1976Z" stroke="#782619"/>
<path d="M136.704 87.9612L135.972 87.1086L133.071 90.4885L130.169 87.1086L129.438 87.9612L132.339 91.3411L129.438 94.721L130.169 95.5735L133.071 92.1936L135.972 95.5735L136.704 94.721L133.802 91.3411L136.704 87.9612Z" fill="#A52015"/>
<path fill-rule="evenodd" clip-rule="evenodd" d="M182.527 79.7034C178.834 79.7035 176.093 82.2814 175.467 85.003C175.306 85.7061 174.605 86.1451 173.902 85.9834C173.198 85.8219 172.76 85.121 172.921 84.4179C173.814 80.5304 177.596 77.0912 182.527 77.0911C188.773 77.091 192.759 82.1151 192.759 87.3228C192.759 88.5104 192.532 89.6764 192.119 90.7701L197.287 89.7991C197.996 89.6658 198.679 90.1326 198.812 90.8414C198.945 91.5504 198.478 92.2332 197.769 92.3664L189.914 93.8424C189.45 93.9297 188.976 93.7598 188.672 93.3984L183.355 87.0613C182.891 86.5087 182.963 85.6848 183.516 85.2211C184.068 84.7574 184.892 84.8295 185.356 85.3821L189.486 90.3039C189.914 89.3569 190.146 88.3399 190.146 87.3228C190.146 83.3881 187.166 79.7033 182.527 79.7034ZM181.874 96.4662C182.595 96.4662 183.18 95.8814 183.18 95.1601C183.18 94.4387 182.595 93.8538 181.874 93.8538C181.152 93.8538 180.568 94.4387 180.568 95.1601C180.568 95.8814 181.152 96.4662 181.874 96.4662ZM178.391 93.6359C178.391 94.3573 177.806 94.9421 177.084 94.9421C176.363 94.9421 175.778 94.3573 175.778 93.6359C175.778 92.9146 176.363 92.3297 177.084 92.3297C177.806 92.3297 178.391 92.9146 178.391 93.6359ZM174.037 91.4591C174.758 91.4591 175.343 90.8743 175.343 90.1529C175.343 89.4316 174.758 88.8467 174.037 88.8467C173.315 88.8467 172.73 89.4316 172.73 90.1529C172.73 90.8743 173.315 91.4591 174.037 91.4591Z" fill="#2C9B63"/>
<circle opacity="0.4" cx="52.1367" cy="89.2842" r="8" transform="rotate(-90 52.1367 89.2842)" fill="#4B4B4B"/>
<path fill-rule="evenodd" clip-rule="evenodd" d="M90.5859 89.3448L90.8706 89.0601L90.5859 88.7754V88.015H89.8256L85.2112 83.3999L83.7969 84.814L86.9974 88.015H60.1367V90.015H87.0873L83.7969 93.3054L85.2111 94.7196L89.9158 90.015H90.5859V89.3448Z" fill="#353535"/>
<circle opacity="0.6" cx="98.5859" cy="88.7388" r="8" transform="rotate(-90 98.5859 88.7388)" fill="#8B1E16"/>
<mask id="mask0_866_2353" style="mask-type:alpha" maskUnits="userSpaceOnUse" x="13" y="83" width="32" height="12">
<path fill-rule="evenodd" clip-rule="evenodd" d="M43.8516 89.3448L44.1362 89.0601L43.8516 88.7754V88.015H43.0912L38.4768 83.3999L37.0625 84.814L40.263 88.015H13.4023V90.015H40.353L37.0626 93.3054L38.4768 94.7196L43.1814 90.015H43.8516V89.3448Z" fill="url(#paint0_linear_866_2353)"/>
</mask>
<g mask="url(#mask0_866_2353)">
<rect x="9.71875" y="79.5681" width="34.418" height="19.4324" fill="url(#paint1_linear_866_2353)"/>
</g>
<defs>
<linearGradient id="paint0_linear_866_2353" x1="13.4023" y1="89.6257" x2="44.1362" y2="89.6257" gradientUnits="userSpaceOnUse">
<stop stop-color="#353535" stop-opacity="0"/>
<stop offset="1" stop-color="#353535" stop-opacity="0.8"/>
</linearGradient>
<linearGradient id="paint1_linear_866_2353" x1="9.71875" y1="90.2558" x2="44.1367" y2="90.2558" gradientUnits="userSpaceOnUse">
<stop stop-color="#353535" stop-opacity="0"/>
<stop offset="1" stop-color="#353535" stop-opacity="0.8"/>
</linearGradient>
</defs>
</svg>
