<svg width="347" height="209" viewBox="0 0 347 209" fill="none" xmlns="http://www.w3.org/2000/svg">
<rect opacity="0.5" x="7" y="64.5" width="87.9648" height="2" fill="#E2E2E2"/>
<rect opacity="0.5" x="137.492" y="64.5" width="202.508" height="2" fill="#E2E2E2"/>
<circle cx="29" cy="65.5" r="12" fill="#0F0F0F"/>
<circle opacity="0.6" cx="29" cy="65.5" r="8" fill="#636363"/>
<circle cx="199" cy="65.5" r="12" fill="#0F0F0F"/>
<circle opacity="0.6" cx="199" cy="65.5" r="8" fill="#636363"/>
<circle cx="309" cy="65.5" r="12" fill="#0F0F0F"/>
<circle opacity="0.6" cx="309" cy="65.5" r="8" fill="#636363"/>
<circle cx="117" cy="130" r="12" fill="#0F0F0F"/>
<circle cx="117" cy="130" r="8" fill="#FEEBE9"/>
<circle opacity="0.6" cx="117" cy="130" r="8" fill="#2C9B63"/>
<rect opacity="0.5" x="118" y="146.609" width="37.5981" height="2" transform="rotate(90 118 146.609)" fill="#E2E2E2"/>
<g opacity="0.8">
<path d="M113.536 55C115.076 52.3333 118.925 52.3333 120.464 55L129.124 70C130.664 72.6667 128.739 76 125.66 76H108.34C105.261 76 103.336 72.6667 104.876 70L113.536 55Z" fill="#0F0F0F"/>
<path d="M115.268 49.5078C116.038 48.1745 117.962 48.1745 118.732 49.5078L133.015 74.2461C133.785 75.5794 132.822 77.2461 131.283 77.2461H102.717C101.178 77.2461 100.215 75.5794 100.985 74.2461L115.268 49.5078Z" fill="#B0B0B0"/>
<path d="M114.16 62.5547C113.897 62.5547 113.684 62.7679 113.684 63.031V70.9693C113.684 71.2323 113.897 71.4456 114.16 71.4456H115.112C115.376 71.4456 115.589 71.2323 115.589 70.9693V63.031C115.589 62.7679 115.376 62.5547 115.112 62.5547H114.16Z" fill="#242424"/>
<path d="M118.605 62.5547C118.342 62.5547 118.129 62.7679 118.129 63.031V70.9693C118.129 71.2323 118.342 71.4456 118.605 71.4456H119.558C119.821 71.4456 120.034 71.2323 120.034 70.9693V63.031C120.034 62.7679 119.821 62.5547 119.558 62.5547H118.605Z" fill="#242424"/>
</g>
<path opacity="0.5" fill-rule="evenodd" clip-rule="evenodd" d="M111.199 86.4446L116.152 81.4922L116.859 80.7852L117.567 81.4922L122.519 86.4446L121.105 87.8588L117.859 84.6135L117.859 112.896H115.859L115.859 84.6133L112.613 87.8589L111.199 86.4446Z" fill="#E2E2E2"/>
</svg>
