<svg width="800" height="400" viewBox="0 0 800 400" fill="none" xmlns="http://www.w3.org/2000/svg">
<g clip-path="url(#clip0_1415_131)">
<rect width="800" height="400" fill="black"/>
<g opacity="0.4">
<rect width="800" height="400" fill="url(#paint0_linear_1415_131)" fill-opacity="0.25"/>
<rect width="800" height="400" fill="url(#paint1_linear_1415_131)" fill-opacity="0.3"/>
</g>
<mask id="mask0_1415_131" style="mask-type:alpha" maskUnits="userSpaceOnUse" x="0" y="0" width="800" height="400">
<rect width="800" height="400" fill="url(#paint2_radial_1415_131)" fill-opacity="0.2"/>
</mask>
<g mask="url(#mask0_1415_131)">
<g opacity="0.1">
<line x1="21.5" y1="-16" x2="21.5" y2="704" stroke="#D5DAE1"/>
<line x1="1485" y1="8.5" x2="-3" y2="8.5" stroke="#D5DAE1"/>
<line x1="1485" y1="32.5" x2="-3" y2="32.5" stroke="#D5DAE1"/>
<line x1="1485" y1="56.5" x2="-3" y2="56.5" stroke="#D5DAE1"/>
<line x1="1485" y1="80.5" x2="-3" y2="80.5" stroke="#D5DAE1"/>
<line x1="1485" y1="104.5" x2="-3" y2="104.5" stroke="#D5DAE1"/>
<line x1="1485" y1="128.5" x2="-3" y2="128.5" stroke="#D5DAE1"/>
<line x1="1485" y1="152.5" x2="-3" y2="152.5" stroke="#D5DAE1"/>
<line x1="1485" y1="176.5" x2="-3" y2="176.5" stroke="#D5DAE1"/>
<line x1="1485" y1="200.5" x2="-3" y2="200.5" stroke="#D5DAE1"/>
<line x1="1485" y1="224.5" x2="-3" y2="224.5" stroke="#D5DAE1"/>
<line x1="1485" y1="248.5" x2="-3" y2="248.5" stroke="#D5DAE1"/>
<line x1="1485" y1="272.5" x2="-3" y2="272.5" stroke="#D5DAE1"/>
<line x1="1485" y1="296.5" x2="-3" y2="296.5" stroke="#D5DAE1"/>
<line x1="1485" y1="320.5" x2="-3" y2="320.5" stroke="#D5DAE1"/>
<line x1="1485" y1="344.5" x2="-3" y2="344.5" stroke="#D5DAE1"/>
<line x1="1485" y1="368.5" x2="-3" y2="368.5" stroke="#D5DAE1"/>
<line x1="1485" y1="392.5" x2="-3" y2="392.5" stroke="#D5DAE1"/>
<line x1="45.5" y1="-16" x2="45.5" y2="704" stroke="#D5DAE1"/>
<line x1="45.5" y1="-16" x2="45.5" y2="704" stroke="#D5DAE1"/>
<line x1="69.5" y1="-16" x2="69.5" y2="704" stroke="#D5DAE1"/>
<line x1="93.5" y1="-16" x2="93.5" y2="704" stroke="#D5DAE1"/>
<line x1="117.5" y1="-16" x2="117.5" y2="704" stroke="#D5DAE1"/>
<line x1="141.5" y1="-16" x2="141.5" y2="704" stroke="#D5DAE1"/>
<line x1="165.5" y1="-16" x2="165.5" y2="704" stroke="#D5DAE1"/>
<line x1="189.5" y1="-16" x2="189.5" y2="704" stroke="#D5DAE1"/>
<line x1="213.5" y1="-16" x2="213.5" y2="704" stroke="#D5DAE1"/>
<line x1="237.5" y1="-16" x2="237.5" y2="704" stroke="#D5DAE1"/>
<line x1="261.5" y1="-16" x2="261.5" y2="704" stroke="#D5DAE1"/>
<line x1="285.5" y1="-16" x2="285.5" y2="704" stroke="#D5DAE1"/>
<line x1="309.5" y1="-16" x2="309.5" y2="704" stroke="#D5DAE1"/>
<line x1="333.5" y1="-16" x2="333.5" y2="704" stroke="#D5DAE1"/>
<line x1="357.5" y1="-16" x2="357.5" y2="704" stroke="#D5DAE1"/>
<line x1="381.5" y1="-16" x2="381.5" y2="704" stroke="#D5DAE1"/>
<line x1="405.5" y1="-16" x2="405.5" y2="704" stroke="#D5DAE1"/>
<line x1="429.5" y1="-16" x2="429.5" y2="704" stroke="#D5DAE1"/>
<line x1="453.5" y1="-16" x2="453.5" y2="704" stroke="#D5DAE1"/>
<line x1="477.5" y1="-16" x2="477.5" y2="704" stroke="#D5DAE1"/>
<line x1="501.5" y1="-16" x2="501.5" y2="704" stroke="#D5DAE1"/>
<line x1="525.5" y1="-16" x2="525.5" y2="704" stroke="#D5DAE1"/>
<line x1="549.5" y1="-16" x2="549.5" y2="704" stroke="#D5DAE1"/>
<line x1="573.5" y1="-16" x2="573.5" y2="704" stroke="#D5DAE1"/>
<line x1="597.5" y1="-16" x2="597.5" y2="704" stroke="#D5DAE1"/>
<line x1="621.5" y1="-16" x2="621.5" y2="704" stroke="#D5DAE1"/>
<line x1="645.5" y1="-16" x2="645.5" y2="704" stroke="#D5DAE1"/>
<line x1="669.5" y1="-16" x2="669.5" y2="704" stroke="#D5DAE1"/>
<line x1="693.5" y1="-16" x2="693.5" y2="704" stroke="#D5DAE1"/>
<line x1="717.5" y1="-16" x2="717.5" y2="704" stroke="#D5DAE1"/>
<line x1="741.5" y1="-16" x2="741.5" y2="704" stroke="#D5DAE1"/>
<line x1="765.5" y1="-16" x2="765.5" y2="704" stroke="#D5DAE1"/>
<line x1="789.5" y1="-16" x2="789.5" y2="704" stroke="#D5DAE1"/>
</g>
</g>
<path opacity="0.7" d="M400 147.222V161.111M400 175C386.193 175 375 163.807 375 150C375 136.193 386.193 125 400 125C413.807 125 425 136.193 425 150C425 163.807 413.807 175 400 175ZM400.138 138.889V139.167L399.862 139.167V138.889H400.138Z" stroke="white" stroke-width="5" stroke-linecap="round" stroke-linejoin="round"/>
<path opacity="0.7" d="M332.881 225.871V229H331.234V220.469H334.152C334.617 220.469 335.037 220.537 335.412 220.674C335.787 220.807 336.107 220.992 336.373 221.23C336.635 221.473 336.836 221.762 336.977 222.098C337.121 222.434 337.193 222.807 337.193 223.217C337.193 223.6 337.121 223.953 336.977 224.277C336.836 224.602 336.635 224.881 336.373 225.115C336.107 225.354 335.787 225.539 335.412 225.672C335.037 225.805 334.617 225.871 334.152 225.871H332.881ZM332.881 224.535H334.152C334.387 224.535 334.59 224.5 334.762 224.43C334.934 224.359 335.078 224.264 335.195 224.143C335.309 224.021 335.393 223.883 335.447 223.727C335.506 223.566 335.535 223.4 335.535 223.229C335.535 223.029 335.506 222.844 335.447 222.672C335.393 222.5 335.309 222.35 335.195 222.221C335.078 222.092 334.934 221.99 334.762 221.916C334.59 221.842 334.387 221.805 334.152 221.805H332.881V224.535ZM350.289 225.361C350.289 225.729 350.256 226.078 350.189 226.41C350.123 226.738 350.027 227.043 349.902 227.324C349.77 227.605 349.605 227.863 349.41 228.098C349.215 228.332 348.992 228.527 348.742 228.684C348.516 228.82 348.266 228.926 347.992 229C347.723 229.078 347.432 229.117 347.119 229.117C346.787 229.117 346.48 229.074 346.199 228.988C345.918 228.902 345.662 228.781 345.432 228.625C345.205 228.461 345.002 228.264 344.822 228.033C344.643 227.799 344.492 227.535 344.371 227.242C344.262 226.973 344.178 226.68 344.119 226.363C344.064 226.047 344.037 225.713 344.037 225.361V224.119C344.037 223.744 344.068 223.389 344.131 223.053C344.197 222.717 344.293 222.406 344.418 222.121C344.539 221.852 344.686 221.607 344.857 221.389C345.033 221.17 345.234 220.982 345.461 220.826C345.684 220.674 345.934 220.557 346.211 220.475C346.488 220.393 346.789 220.352 347.113 220.352C347.441 220.352 347.748 220.395 348.033 220.48C348.322 220.562 348.582 220.682 348.812 220.838C349.043 220.986 349.244 221.166 349.416 221.377C349.592 221.588 349.742 221.82 349.867 222.074C350.004 222.363 350.107 222.68 350.178 223.023C350.252 223.367 350.289 223.732 350.289 224.119V225.361ZM348.619 224.107C348.619 223.889 348.607 223.682 348.584 223.486C348.564 223.287 348.531 223.104 348.484 222.936C348.426 222.725 348.348 222.537 348.25 222.373C348.152 222.205 348.037 222.068 347.904 221.963C347.799 221.885 347.68 221.824 347.547 221.781C347.418 221.738 347.273 221.717 347.113 221.717C346.961 221.717 346.822 221.736 346.697 221.775C346.576 221.814 346.467 221.871 346.369 221.945C346.236 222.055 346.123 222.191 346.029 222.355C345.939 222.52 345.869 222.711 345.818 222.93C345.779 223.098 345.75 223.281 345.73 223.48C345.715 223.68 345.707 223.889 345.707 224.107V225.361C345.707 225.568 345.715 225.768 345.73 225.959C345.746 226.15 345.773 226.328 345.812 226.492C345.855 226.699 345.918 226.889 346 227.061C346.086 227.229 346.186 227.365 346.299 227.471C346.404 227.564 346.523 227.637 346.656 227.688C346.793 227.738 346.947 227.764 347.119 227.764C347.283 227.764 347.434 227.74 347.57 227.693C347.707 227.646 347.828 227.578 347.934 227.488C348.066 227.379 348.178 227.242 348.268 227.078C348.361 226.91 348.436 226.721 348.49 226.51C348.533 226.346 348.564 226.166 348.584 225.971C348.607 225.775 348.619 225.572 348.619 225.361V224.107ZM361.973 226.773C361.973 226.621 361.945 226.479 361.891 226.346C361.84 226.213 361.752 226.088 361.627 225.971C361.498 225.857 361.33 225.754 361.123 225.66C360.92 225.562 360.666 225.473 360.361 225.391C359.889 225.262 359.473 225.105 359.113 224.922C358.758 224.738 358.467 224.537 358.24 224.318C358.014 224.1 357.842 223.857 357.725 223.592C357.611 223.326 357.555 223.037 357.555 222.725C357.555 222.365 357.631 222.039 357.783 221.746C357.936 221.453 358.146 221.203 358.416 220.996C358.686 220.789 359.004 220.631 359.371 220.521C359.738 220.408 360.137 220.352 360.566 220.352C361.012 220.352 361.418 220.416 361.785 220.545C362.156 220.674 362.475 220.854 362.74 221.084C363.006 221.318 363.213 221.596 363.361 221.916C363.51 222.236 363.584 222.588 363.584 222.971H361.979C361.971 222.779 361.936 222.604 361.873 222.443C361.814 222.283 361.727 222.145 361.609 222.027C361.488 221.914 361.338 221.826 361.158 221.764C360.982 221.697 360.775 221.664 360.537 221.664C360.318 221.664 360.123 221.691 359.951 221.746C359.783 221.797 359.641 221.869 359.523 221.963C359.406 222.061 359.316 222.176 359.254 222.309C359.195 222.438 359.166 222.578 359.166 222.73C359.166 222.891 359.205 223.035 359.283 223.164C359.365 223.293 359.482 223.408 359.635 223.51C359.787 223.615 359.971 223.711 360.186 223.797C360.404 223.883 360.65 223.963 360.924 224.037C361.217 224.119 361.496 224.219 361.762 224.336C362.027 224.453 362.271 224.588 362.494 224.74C362.83 224.99 363.098 225.281 363.297 225.613C363.496 225.945 363.596 226.328 363.596 226.762C363.596 227.137 363.52 227.471 363.367 227.764C363.219 228.053 363.012 228.297 362.746 228.496C362.48 228.699 362.164 228.854 361.797 228.959C361.43 229.061 361.029 229.111 360.596 229.111C360.17 229.111 359.748 229.049 359.33 228.924C358.916 228.795 358.555 228.607 358.246 228.361C357.953 228.119 357.721 227.834 357.549 227.506C357.381 227.178 357.297 226.793 357.297 226.352H358.914C358.922 226.609 358.967 226.83 359.049 227.014C359.131 227.197 359.246 227.348 359.395 227.465C359.539 227.582 359.713 227.668 359.916 227.723C360.123 227.777 360.35 227.805 360.596 227.805C360.814 227.805 361.008 227.779 361.176 227.729C361.348 227.678 361.492 227.607 361.609 227.518C361.727 227.428 361.816 227.32 361.879 227.195C361.941 227.066 361.973 226.926 361.973 226.773ZM377.02 221.811H374.389V229H372.736V221.811H370.141V220.469H377.02V221.811ZM399.186 220.469L399.994 223.674L400.914 220.469H402.959V229H401.447V226.475L401.518 222.484L400.398 226.188H399.584L398.582 222.643L398.652 226.475V229H397.141V220.469H399.186ZM416.324 225.361C416.324 225.729 416.291 226.078 416.225 226.41C416.158 226.738 416.062 227.043 415.938 227.324C415.805 227.605 415.641 227.863 415.445 228.098C415.25 228.332 415.027 228.527 414.777 228.684C414.551 228.82 414.301 228.926 414.027 229C413.758 229.078 413.467 229.117 413.154 229.117C412.822 229.117 412.516 229.074 412.234 228.988C411.953 228.902 411.697 228.781 411.467 228.625C411.24 228.461 411.037 228.264 410.857 228.033C410.678 227.799 410.527 227.535 410.406 227.242C410.297 226.973 410.213 226.68 410.154 226.363C410.1 226.047 410.072 225.713 410.072 225.361V224.119C410.072 223.744 410.104 223.389 410.166 223.053C410.232 222.717 410.328 222.406 410.453 222.121C410.574 221.852 410.721 221.607 410.893 221.389C411.068 221.17 411.27 220.982 411.496 220.826C411.719 220.674 411.969 220.557 412.246 220.475C412.523 220.393 412.824 220.352 413.148 220.352C413.477 220.352 413.783 220.395 414.068 220.48C414.357 220.562 414.617 220.682 414.848 220.838C415.078 220.986 415.279 221.166 415.451 221.377C415.627 221.588 415.777 221.82 415.902 222.074C416.039 222.363 416.143 222.68 416.213 223.023C416.287 223.367 416.324 223.732 416.324 224.119V225.361ZM414.654 224.107C414.654 223.889 414.643 223.682 414.619 223.486C414.6 223.287 414.566 223.104 414.52 222.936C414.461 222.725 414.383 222.537 414.285 222.373C414.188 222.205 414.072 222.068 413.939 221.963C413.834 221.885 413.715 221.824 413.582 221.781C413.453 221.738 413.309 221.717 413.148 221.717C412.996 221.717 412.857 221.736 412.732 221.775C412.611 221.814 412.502 221.871 412.404 221.945C412.271 222.055 412.158 222.191 412.064 222.355C411.975 222.52 411.904 222.711 411.854 222.93C411.814 223.098 411.785 223.281 411.766 223.48C411.75 223.68 411.742 223.889 411.742 224.107V225.361C411.742 225.568 411.75 225.768 411.766 225.959C411.781 226.15 411.809 226.328 411.848 226.492C411.891 226.699 411.953 226.889 412.035 227.061C412.121 227.229 412.221 227.365 412.334 227.471C412.439 227.564 412.559 227.637 412.691 227.688C412.828 227.738 412.982 227.764 413.154 227.764C413.318 227.764 413.469 227.74 413.605 227.693C413.742 227.646 413.863 227.578 413.969 227.488C414.102 227.379 414.213 227.242 414.303 227.078C414.396 226.91 414.471 226.721 414.525 226.51C414.568 226.346 414.6 226.166 414.619 225.971C414.643 225.775 414.654 225.572 414.654 225.361V224.107ZM426.473 225.812H425.225V229H423.578V220.469H426.438C426.91 220.469 427.338 220.525 427.721 220.639C428.104 220.748 428.432 220.91 428.705 221.125C428.975 221.34 429.182 221.607 429.326 221.928C429.475 222.248 429.549 222.619 429.549 223.041C429.549 223.346 429.512 223.621 429.438 223.867C429.367 224.109 429.266 224.326 429.133 224.518C428.996 224.713 428.832 224.883 428.641 225.027C428.453 225.172 428.242 225.297 428.008 225.402L429.842 228.924V229H428.078L426.473 225.812ZM425.225 224.477H426.443C426.697 224.477 426.92 224.441 427.111 224.371C427.307 224.297 427.465 224.191 427.586 224.055C427.688 223.945 427.764 223.814 427.814 223.662C427.869 223.51 427.896 223.34 427.896 223.152C427.896 222.926 427.861 222.727 427.791 222.555C427.725 222.379 427.623 222.234 427.486 222.121C427.365 222.02 427.217 221.941 427.041 221.887C426.865 221.832 426.664 221.805 426.438 221.805H425.225V224.477ZM443.055 221.811H440.424V229H438.771V221.811H436.176V220.469H443.055V221.811ZM455.242 225.262H451.738V227.67H455.834V229H450.086V220.469H455.816V221.811H451.738V223.961H455.242V225.262ZM465.221 220.469L466.029 223.674L466.949 220.469H468.994V229H467.482V226.475L467.553 222.484L466.434 226.188H465.619L464.617 222.643L464.688 226.475V229H463.176V220.469H465.221Z" fill="white"/>
<path opacity="0.7" d="M177.617 261V293H170.852V261H177.617ZM189.715 279.125V293H183.059V269H189.402V273.234H189.684C190.215 271.839 191.105 270.734 192.355 269.922C193.605 269.099 195.121 268.688 196.902 268.688C198.569 268.688 200.022 269.052 201.262 269.781C202.501 270.51 203.465 271.552 204.152 272.906C204.84 274.25 205.184 275.854 205.184 277.719V293H198.527V278.906C198.538 277.437 198.163 276.292 197.402 275.469C196.642 274.635 195.595 274.219 194.262 274.219C193.366 274.219 192.574 274.411 191.887 274.797C191.21 275.182 190.678 275.745 190.293 276.484C189.918 277.214 189.725 278.094 189.715 279.125ZM221.273 293.469C218.815 293.469 216.701 292.948 214.93 291.906C213.169 290.854 211.815 289.396 210.867 287.531C209.93 285.667 209.461 283.521 209.461 281.094C209.461 278.635 209.935 276.479 210.883 274.625C211.841 272.76 213.201 271.307 214.961 270.266C216.721 269.214 218.815 268.688 221.242 268.688C223.336 268.688 225.169 269.068 226.742 269.828C228.315 270.589 229.56 271.656 230.477 273.031C231.393 274.406 231.898 276.021 231.992 277.875H225.711C225.534 276.677 225.065 275.714 224.305 274.984C223.555 274.245 222.57 273.875 221.352 273.875C220.32 273.875 219.419 274.156 218.648 274.719C217.888 275.271 217.294 276.078 216.867 277.141C216.44 278.203 216.227 279.49 216.227 281C216.227 282.531 216.435 283.833 216.852 284.906C217.279 285.979 217.878 286.797 218.648 287.359C219.419 287.922 220.32 288.203 221.352 288.203C222.112 288.203 222.794 288.047 223.398 287.734C224.013 287.422 224.518 286.969 224.914 286.375C225.32 285.771 225.586 285.047 225.711 284.203H231.992C231.888 286.036 231.388 287.651 230.492 289.047C229.607 290.432 228.383 291.516 226.82 292.297C225.258 293.078 223.409 293.469 221.273 293.469ZM236.254 293V269H242.91V293H236.254ZM239.598 265.906C238.608 265.906 237.759 265.578 237.051 264.922C236.353 264.255 236.004 263.458 236.004 262.531C236.004 261.615 236.353 260.828 237.051 260.172C237.759 259.505 238.608 259.172 239.598 259.172C240.587 259.172 241.431 259.505 242.129 260.172C242.837 260.828 243.191 261.615 243.191 262.531C243.191 263.458 242.837 264.255 242.129 264.922C241.431 265.578 240.587 265.906 239.598 265.906ZM257.086 293.391C255.263 293.391 253.612 292.922 252.133 291.984C250.664 291.036 249.497 289.646 248.633 287.812C247.779 285.969 247.352 283.708 247.352 281.031C247.352 278.281 247.794 275.995 248.68 274.172C249.565 272.339 250.742 270.969 252.211 270.063C253.69 269.146 255.31 268.688 257.07 268.688C258.414 268.688 259.534 268.917 260.43 269.375C261.336 269.823 262.065 270.385 262.617 271.062C263.18 271.729 263.607 272.385 263.898 273.031H264.102V261H270.742V293H264.18V289.156H263.898C263.586 289.823 263.143 290.484 262.57 291.141C262.008 291.786 261.273 292.323 260.367 292.75C259.471 293.177 258.378 293.391 257.086 293.391ZM259.195 288.094C260.268 288.094 261.174 287.802 261.914 287.219C262.664 286.625 263.237 285.797 263.633 284.734C264.039 283.672 264.242 282.427 264.242 281C264.242 279.573 264.044 278.333 263.648 277.281C263.253 276.229 262.68 275.417 261.93 274.844C261.18 274.271 260.268 273.984 259.195 273.984C258.102 273.984 257.18 274.281 256.43 274.875C255.68 275.469 255.112 276.292 254.727 277.344C254.341 278.396 254.148 279.615 254.148 281C254.148 282.396 254.341 283.63 254.727 284.703C255.122 285.766 255.69 286.599 256.43 287.203C257.18 287.797 258.102 288.094 259.195 288.094ZM287.152 293.469C284.684 293.469 282.559 292.969 280.777 291.969C279.007 290.958 277.642 289.531 276.684 287.687C275.725 285.833 275.246 283.641 275.246 281.109C275.246 278.641 275.725 276.474 276.684 274.609C277.642 272.745 278.991 271.292 280.73 270.25C282.48 269.208 284.533 268.688 286.887 268.688C288.47 268.688 289.944 268.943 291.309 269.453C292.684 269.953 293.882 270.708 294.902 271.719C295.934 272.729 296.736 274 297.309 275.531C297.882 277.052 298.168 278.833 298.168 280.875V282.703H277.902V278.578H291.902C291.902 277.62 291.694 276.771 291.277 276.031C290.861 275.292 290.283 274.714 289.543 274.297C288.814 273.87 287.965 273.656 286.996 273.656C285.986 273.656 285.09 273.891 284.309 274.359C283.538 274.818 282.934 275.437 282.496 276.219C282.059 276.99 281.835 277.849 281.824 278.797V282.719C281.824 283.906 282.043 284.932 282.48 285.797C282.928 286.661 283.559 287.328 284.371 287.797C285.184 288.266 286.147 288.5 287.262 288.5C288.001 288.5 288.678 288.396 289.293 288.188C289.908 287.979 290.434 287.667 290.871 287.25C291.309 286.833 291.642 286.323 291.871 285.719L298.027 286.125C297.715 287.604 297.074 288.896 296.105 290C295.147 291.094 293.908 291.948 292.387 292.563C290.876 293.167 289.132 293.469 287.152 293.469ZM309.168 279.125V293H302.512V269H308.855V273.234H309.137C309.668 271.839 310.559 270.734 311.809 269.922C313.059 269.099 314.574 268.688 316.355 268.688C318.022 268.688 319.475 269.052 320.715 269.781C321.954 270.51 322.918 271.552 323.605 272.906C324.293 274.25 324.637 275.854 324.637 277.719V293H317.98V278.906C317.991 277.437 317.616 276.292 316.855 275.469C316.095 274.635 315.048 274.219 313.715 274.219C312.819 274.219 312.027 274.411 311.34 274.797C310.663 275.182 310.132 275.745 309.746 276.484C309.371 277.214 309.178 278.094 309.168 279.125ZM342.648 269V274H328.195V269H342.648ZM331.477 263.25H338.133V285.625C338.133 286.24 338.227 286.719 338.414 287.062C338.602 287.396 338.862 287.63 339.195 287.766C339.539 287.901 339.935 287.969 340.383 287.969C340.695 287.969 341.008 287.943 341.32 287.891C341.633 287.828 341.872 287.781 342.039 287.75L343.086 292.703C342.753 292.807 342.284 292.927 341.68 293.063C341.076 293.208 340.341 293.297 339.477 293.328C337.872 293.391 336.466 293.177 335.258 292.687C334.06 292.198 333.128 291.437 332.461 290.406C331.794 289.375 331.466 288.073 331.477 286.5V263.25ZM357.168 302V269H363.73V273.031H364.027C364.319 272.385 364.741 271.729 365.293 271.062C365.855 270.385 366.585 269.823 367.48 269.375C368.387 268.917 369.512 268.688 370.855 268.688C372.605 268.688 374.22 269.146 375.699 270.063C377.178 270.969 378.361 272.339 379.246 274.172C380.132 275.995 380.574 278.281 380.574 281.031C380.574 283.708 380.142 285.969 379.277 287.812C378.423 289.646 377.257 291.036 375.777 291.984C374.309 292.922 372.663 293.391 370.84 293.391C369.548 293.391 368.449 293.177 367.543 292.75C366.647 292.323 365.913 291.786 365.34 291.141C364.767 290.484 364.329 289.823 364.027 289.156H363.824V302H357.168ZM363.684 281C363.684 282.427 363.882 283.672 364.277 284.734C364.673 285.797 365.246 286.625 365.996 287.219C366.746 287.802 367.658 288.094 368.73 288.094C369.814 288.094 370.73 287.797 371.48 287.203C372.23 286.599 372.798 285.766 373.184 284.703C373.579 283.63 373.777 282.396 373.777 281C373.777 279.615 373.585 278.396 373.199 277.344C372.814 276.292 372.246 275.469 371.496 274.875C370.746 274.281 369.824 273.984 368.73 273.984C367.647 273.984 366.73 274.271 365.98 274.844C365.241 275.417 364.673 276.229 364.277 277.281C363.882 278.333 363.684 279.573 363.684 281ZM395.855 293.469C393.428 293.469 391.329 292.953 389.559 291.922C387.798 290.88 386.439 289.432 385.48 287.578C384.522 285.714 384.043 283.552 384.043 281.094C384.043 278.615 384.522 276.448 385.48 274.594C386.439 272.729 387.798 271.281 389.559 270.25C391.329 269.208 393.428 268.688 395.855 268.688C398.283 268.688 400.376 269.208 402.137 270.25C403.908 271.281 405.272 272.729 406.23 274.594C407.189 276.448 407.668 278.615 407.668 281.094C407.668 283.552 407.189 285.714 406.23 287.578C405.272 289.432 403.908 290.88 402.137 291.922C400.376 292.953 398.283 293.469 395.855 293.469ZM395.887 288.312C396.991 288.312 397.913 288 398.652 287.375C399.392 286.74 399.949 285.875 400.324 284.781C400.71 283.687 400.902 282.443 400.902 281.047C400.902 279.651 400.71 278.406 400.324 277.312C399.949 276.219 399.392 275.354 398.652 274.719C397.913 274.083 396.991 273.766 395.887 273.766C394.772 273.766 393.835 274.083 393.074 274.719C392.324 275.354 391.757 276.219 391.371 277.312C390.996 278.406 390.809 279.651 390.809 281.047C390.809 282.443 390.996 283.687 391.371 284.781C391.757 285.875 392.324 286.74 393.074 287.375C393.835 288 394.772 288.312 395.887 288.312ZM431.965 275.844L425.871 276.219C425.767 275.698 425.543 275.229 425.199 274.812C424.855 274.385 424.402 274.047 423.84 273.797C423.288 273.536 422.626 273.406 421.855 273.406C420.824 273.406 419.954 273.625 419.246 274.062C418.538 274.49 418.184 275.062 418.184 275.781C418.184 276.354 418.413 276.839 418.871 277.234C419.329 277.63 420.116 277.948 421.23 278.187L425.574 279.062C427.908 279.542 429.647 280.312 430.793 281.375C431.939 282.437 432.512 283.833 432.512 285.562C432.512 287.135 432.048 288.516 431.121 289.703C430.204 290.891 428.944 291.818 427.34 292.484C425.746 293.141 423.908 293.469 421.824 293.469C418.647 293.469 416.116 292.807 414.23 291.484C412.355 290.151 411.257 288.339 410.934 286.047L417.48 285.703C417.678 286.672 418.158 287.411 418.918 287.922C419.678 288.422 420.652 288.672 421.84 288.672C423.007 288.672 423.944 288.448 424.652 288C425.371 287.542 425.736 286.953 425.746 286.234C425.736 285.63 425.48 285.135 424.98 284.75C424.48 284.354 423.71 284.052 422.668 283.844L418.512 283.016C416.168 282.547 414.423 281.734 413.277 280.578C412.142 279.422 411.574 277.948 411.574 276.156C411.574 274.615 411.991 273.286 412.824 272.172C413.668 271.057 414.85 270.198 416.371 269.594C417.902 268.99 419.694 268.688 421.746 268.688C424.777 268.688 427.163 269.328 428.902 270.609C430.652 271.891 431.673 273.635 431.965 275.844ZM449.469 269V274H435.016V269H449.469ZM438.297 263.25H444.953V285.625C444.953 286.24 445.047 286.719 445.234 287.062C445.422 287.396 445.682 287.63 446.016 287.766C446.359 287.901 446.755 287.969 447.203 287.969C447.516 287.969 447.828 287.943 448.141 287.891C448.453 287.828 448.693 287.781 448.859 287.75L449.906 292.703C449.573 292.807 449.104 292.927 448.5 293.063C447.896 293.208 447.161 293.297 446.297 293.328C444.693 293.391 443.286 293.177 442.078 292.687C440.88 292.198 439.948 291.437 439.281 290.406C438.615 289.375 438.286 288.073 438.297 286.5V263.25ZM463.988 293V269H470.332V273.234H470.613C471.113 271.828 471.947 270.719 473.113 269.906C474.28 269.094 475.676 268.688 477.301 268.688C478.947 268.688 480.348 269.099 481.504 269.922C482.66 270.734 483.431 271.839 483.816 273.234H484.066C484.556 271.859 485.441 270.76 486.723 269.937C488.014 269.104 489.54 268.688 491.301 268.688C493.54 268.688 495.358 269.401 496.754 270.828C498.16 272.245 498.863 274.255 498.863 276.859V293H492.223V278.172C492.223 276.839 491.868 275.839 491.16 275.172C490.452 274.505 489.566 274.172 488.504 274.172C487.296 274.172 486.353 274.557 485.676 275.328C484.999 276.089 484.66 277.094 484.66 278.344V293H478.207V278.031C478.207 276.854 477.868 275.917 477.191 275.219C476.525 274.521 475.645 274.172 474.551 274.172C473.811 274.172 473.145 274.359 472.551 274.734C471.967 275.099 471.504 275.615 471.16 276.281C470.816 276.937 470.645 277.708 470.645 278.594V293H463.988ZM514.965 293.469C512.538 293.469 510.439 292.953 508.668 291.922C506.908 290.88 505.548 289.432 504.59 287.578C503.632 285.714 503.152 283.552 503.152 281.094C503.152 278.615 503.632 276.448 504.59 274.594C505.548 272.729 506.908 271.281 508.668 270.25C510.439 269.208 512.538 268.688 514.965 268.688C517.392 268.688 519.486 269.208 521.246 270.25C523.017 271.281 524.382 272.729 525.34 274.594C526.298 276.448 526.777 278.615 526.777 281.094C526.777 283.552 526.298 285.714 525.34 287.578C524.382 289.432 523.017 290.88 521.246 291.922C519.486 292.953 517.392 293.469 514.965 293.469ZM514.996 288.312C516.1 288.312 517.022 288 517.762 287.375C518.501 286.74 519.059 285.875 519.434 284.781C519.819 283.687 520.012 282.443 520.012 281.047C520.012 279.651 519.819 278.406 519.434 277.312C519.059 276.219 518.501 275.354 517.762 274.719C517.022 274.083 516.1 273.766 514.996 273.766C513.882 273.766 512.944 274.083 512.184 274.719C511.434 275.354 510.866 276.219 510.48 277.312C510.105 278.406 509.918 279.651 509.918 281.047C509.918 282.443 510.105 283.687 510.48 284.781C510.866 285.875 511.434 286.74 512.184 287.375C512.944 288 513.882 288.312 514.996 288.312ZM531.105 293V269H537.559V273.187H537.809C538.246 271.698 538.98 270.573 540.012 269.813C541.043 269.042 542.23 268.656 543.574 268.656C543.908 268.656 544.267 268.677 544.652 268.719C545.038 268.76 545.376 268.818 545.668 268.891V274.797C545.355 274.703 544.923 274.62 544.371 274.547C543.819 274.474 543.314 274.438 542.855 274.438C541.876 274.438 541.001 274.651 540.23 275.078C539.47 275.495 538.866 276.078 538.418 276.828C537.98 277.578 537.762 278.443 537.762 279.422V293H531.105ZM563.078 269V274H548.625V269H563.078ZM551.906 263.25H558.563V285.625C558.563 286.24 558.656 286.719 558.844 287.062C559.031 287.396 559.292 287.63 559.625 287.766C559.969 287.901 560.365 287.969 560.813 287.969C561.125 287.969 561.438 287.943 561.75 287.891C562.062 287.828 562.302 287.781 562.469 287.75L563.516 292.703C563.182 292.807 562.714 292.927 562.109 293.063C561.505 293.208 560.771 293.297 559.906 293.328C558.302 293.391 556.896 293.177 555.688 292.687C554.49 292.198 553.557 291.437 552.891 290.406C552.224 289.375 551.896 288.073 551.906 286.5V263.25ZM578.094 293.469C575.625 293.469 573.5 292.969 571.719 291.969C569.948 290.958 568.583 289.531 567.625 287.687C566.667 285.833 566.188 283.641 566.188 281.109C566.188 278.641 566.667 276.474 567.625 274.609C568.583 272.745 569.932 271.292 571.672 270.25C573.422 269.208 575.474 268.688 577.828 268.688C579.411 268.688 580.885 268.943 582.25 269.453C583.625 269.953 584.823 270.708 585.844 271.719C586.875 272.729 587.677 274 588.25 275.531C588.823 277.052 589.109 278.833 589.109 280.875V282.703H568.844V278.578H582.844C582.844 277.62 582.635 276.771 582.219 276.031C581.802 275.292 581.224 274.714 580.484 274.297C579.755 273.87 578.906 273.656 577.938 273.656C576.927 273.656 576.031 273.891 575.25 274.359C574.479 274.818 573.875 275.437 573.438 276.219C573 276.99 572.776 277.849 572.766 278.797V282.719C572.766 283.906 572.984 284.932 573.422 285.797C573.87 286.661 574.5 287.328 575.313 287.797C576.125 288.266 577.089 288.5 578.203 288.5C578.943 288.5 579.62 288.396 580.234 288.188C580.849 287.979 581.375 287.667 581.812 287.25C582.25 286.833 582.583 286.323 582.813 285.719L588.969 286.125C588.656 287.604 588.016 288.896 587.047 290C586.089 291.094 584.849 291.948 583.328 292.563C581.818 293.167 580.073 293.469 578.094 293.469ZM593.453 293V269H599.797V273.234H600.078C600.578 271.828 601.411 270.719 602.578 269.906C603.745 269.094 605.141 268.688 606.766 268.688C608.411 268.688 609.813 269.099 610.969 269.922C612.125 270.734 612.896 271.839 613.281 273.234H613.531C614.021 271.859 614.906 270.76 616.188 269.937C617.479 269.104 619.005 268.688 620.766 268.688C623.005 268.688 624.823 269.401 626.219 270.828C627.625 272.245 628.328 274.255 628.328 276.859V293H621.688V278.172C621.688 276.839 621.333 275.839 620.625 275.172C619.917 274.505 619.031 274.172 617.969 274.172C616.76 274.172 615.818 274.557 615.141 275.328C614.464 276.089 614.125 277.094 614.125 278.344V293H607.672V278.031C607.672 276.854 607.333 275.917 606.656 275.219C605.99 274.521 605.109 274.172 604.016 274.172C603.276 274.172 602.609 274.359 602.016 274.734C601.432 275.099 600.969 275.615 600.625 276.281C600.281 276.937 600.109 277.708 600.109 278.594V293H593.453Z" fill="white"/>
</g>
<defs>
<linearGradient id="paint0_linear_1415_131" x1="0" y1="0" x2="645.517" y2="573.793" gradientUnits="userSpaceOnUse">
<stop stop-color="#141579"/>
<stop offset="1" stop-color="#FB322F"/>
</linearGradient>
<linearGradient id="paint1_linear_1415_131" x1="800" y1="0" x2="154.483" y2="573.793" gradientUnits="userSpaceOnUse">
<stop stop-color="#DEE023"/>
<stop offset="0.5" stop-color="#9FCD53" stop-opacity="0"/>
<stop offset="1" stop-color="#69FF97"/>
</linearGradient>
<radialGradient id="paint2_radial_1415_131" cx="0" cy="0" r="1" gradientUnits="userSpaceOnUse" gradientTransform="translate(400 200) rotate(90) scale(200 400)">
<stop stop-color="#F7F8F9" stop-opacity="0.5"/>
<stop offset="1" stop-color="#F7F8F9"/>
</radialGradient>
<clipPath id="clip0_1415_131">
<rect width="800" height="400" fill="white"/>
</clipPath>
</defs>
</svg>
