<svg width="618" height="379" viewBox="0 0 618 379" fill="none" xmlns="http://www.w3.org/2000/svg">
<path d="M20.601 11.6046C23.1315 11.6046 23.8648 13.7182 23.9655 14.7534L22.7865 14.9691C22.5995 13.862 22.0532 12.7405 20.5579 12.7405C19.0482 12.7405 17.9698 14.0777 17.9698 16.8958C17.9698 19.7139 19.0482 21.0654 20.5291 21.0654C22.0675 21.0654 22.5852 19.8145 22.7289 18.7649L23.8792 18.9518C23.7929 19.9871 23.0309 22.2013 20.5435 22.2013C18.3436 22.2013 16.762 20.3897 16.762 16.8958C16.762 13.4163 18.4011 11.6046 20.601 11.6046ZM28.9347 22.2013C26.9505 22.2013 25.4839 20.6772 25.4839 18.5493C25.4839 16.4357 26.9505 14.9116 28.9347 14.9116C30.9188 14.9116 32.3854 16.4357 32.3854 18.5493C32.3854 20.6772 30.9188 22.2013 28.9347 22.2013ZM28.9347 21.1517C30.1712 21.1517 31.2208 20.2171 31.2208 18.5493C31.2208 16.8958 30.1712 15.9612 28.9347 15.9612C27.6981 15.9612 26.6485 16.8958 26.6485 18.5493C26.6485 20.2171 27.6981 21.1517 28.9347 21.1517ZM34.6228 15.1129H35.7442V16.1194C36.1756 15.2998 37.0383 14.9116 37.9872 14.9116C39.7845 14.9116 40.6472 16.1337 40.6472 17.6578V22H39.4969V17.8879C39.4969 16.8958 39.0512 15.99 37.714 15.99C36.6213 15.99 35.773 16.8095 35.773 18.1323V22H34.6228V15.1129ZM46.3928 22.2013C44.5093 22.2013 42.8989 20.7779 42.8989 18.5493C42.8989 16.2919 44.5668 14.9116 46.3784 14.9116C48.2476 14.9116 49.254 15.99 49.5416 17.0971L48.492 17.5284C48.3051 16.8095 47.6724 15.99 46.3784 15.99C45.2425 15.99 44.0635 16.8526 44.0635 18.5493C44.0635 20.2315 45.2425 21.1229 46.3928 21.1229C47.7731 21.1229 48.3338 20.1884 48.5351 19.5701L49.5416 20.0014C49.2109 21.0223 48.2044 22.2013 46.3928 22.2013ZM56.495 21.0654C56.1643 21.77 55.316 22.2013 54.367 22.2013C52.6129 22.2013 51.7214 21.0223 51.7214 19.4407V15.1129H52.8717V19.2538C52.8717 20.2459 53.3462 21.1517 54.6258 21.1517C55.7904 21.1517 56.4374 20.3034 56.4374 19.225V15.1129H57.5877V20.5622C57.5877 21.0942 57.6452 21.7268 57.6883 22H56.5812C56.5237 21.7987 56.495 21.4105 56.495 21.0654ZM66.669 16.3782C66.4821 16.3207 66.1945 16.2488 65.7057 16.2488C64.2823 16.2488 63.5202 17.0539 63.5202 18.6355V20.9792H65.6913V22H60.3283V20.9792H62.37V16.1337H60.544V15.1129H63.4915V16.4644C63.8941 15.4005 64.9005 15.0123 65.7201 15.0123C66.2233 15.0123 66.4965 15.0841 66.669 15.1417V16.3782ZM75.2902 16.3782C75.1033 16.3207 74.8158 16.2488 74.3269 16.2488C72.9035 16.2488 72.1414 17.0539 72.1414 18.6355V20.9792H74.3125V22H68.9495V20.9792H70.9912V16.1337H69.1652V15.1129H72.1127V16.4644C72.5153 15.4005 73.5217 15.0123 74.3413 15.0123C74.8445 15.0123 75.1177 15.0841 75.2902 15.1417V16.3782ZM80.7627 22.2013C78.9654 22.2013 77.3407 20.8929 77.3407 18.5349C77.3407 16.3207 78.951 14.9116 80.6477 14.9116C82.6893 14.9116 83.9259 16.3207 83.9259 18.3911C83.9259 18.5349 83.9115 18.693 83.8971 18.7937H78.5197V18.8943C78.5197 20.1884 79.5693 21.1373 80.7627 21.1373C81.9273 21.1373 82.5887 20.4903 82.8619 19.6851L83.854 20.0446C83.4658 21.238 82.3586 22.2013 80.7627 22.2013ZM82.7325 17.816C82.675 16.7951 81.9273 15.9325 80.662 15.9325C79.5118 15.9325 78.6203 16.8239 78.5485 17.816H82.7325ZM86.3501 15.1129H87.4716V16.1194C87.903 15.2998 88.7657 14.9116 89.7146 14.9116C91.5119 14.9116 92.3746 16.1337 92.3746 17.6578V22H91.2243V17.8879C91.2243 16.8958 90.7786 15.99 89.4414 15.99C88.3487 15.99 87.5004 16.8095 87.5004 18.1323V22H86.3501V15.1129ZM98.1202 22.2013C96.2366 22.2013 94.6263 20.7779 94.6263 18.5493C94.6263 16.2919 96.2942 14.9116 98.1058 14.9116C99.9749 14.9116 100.981 15.99 101.269 17.0971L100.219 17.5284C100.032 16.8095 99.3998 15.99 98.1058 15.99C96.9699 15.99 95.7909 16.8526 95.7909 18.5493C95.7909 20.2315 96.9699 21.1229 98.1202 21.1229C99.5005 21.1229 100.061 20.1884 100.263 19.5701L101.269 20.0014C100.938 21.0223 99.9318 22.2013 98.1202 22.2013ZM108.855 15.1129H110.12L105.419 24.7318H104.139L106.022 20.9504L102.931 15.1129H104.268L106.626 19.7139L108.855 15.1129ZM120.174 17.3703H127.363V18.3767H120.174V17.3703ZM141.241 22.2013C139.3 22.2013 138.322 20.9504 138.135 20.174L139.185 19.7426C139.386 20.4615 140.119 21.1661 141.269 21.1661C142.19 21.1661 142.722 20.7347 142.722 20.174C142.722 19.6708 142.391 19.3688 141.629 19.2107L140.292 18.9375C138.998 18.6787 138.423 17.931 138.423 17.0396C138.423 15.8749 139.501 14.9116 141.025 14.9116C142.563 14.9116 143.556 15.7024 143.872 16.7951L142.894 17.1833C142.664 16.522 142.075 15.9181 141.025 15.9181C140.148 15.9181 139.558 16.335 139.558 16.9533C139.558 17.399 139.832 17.7441 140.522 17.8735L141.83 18.1323C143.196 18.4055 143.872 19.0813 143.872 20.1165C143.872 21.0798 143.067 22.2013 141.241 22.2013ZM151.961 15.1129H153.226L148.525 24.7318H147.245L149.129 20.9504L146.037 15.1129H147.375L149.733 19.7139L151.961 15.1129ZM155.32 15.1129H156.441V16.1194C156.873 15.2998 157.735 14.9116 158.684 14.9116C160.482 14.9116 161.344 16.1337 161.344 17.6578V22H160.194V17.8879C160.194 16.8958 159.748 15.99 158.411 15.99C157.319 15.99 156.47 16.8095 156.47 18.1323V22H155.32V15.1129ZM167.09 22.2013C165.206 22.2013 163.596 20.7779 163.596 18.5493C163.596 16.2919 165.264 14.9116 167.076 14.9116C168.945 14.9116 169.951 15.99 170.239 17.0971L169.189 17.5284C169.002 16.8095 168.37 15.99 167.076 15.99C165.94 15.99 164.761 16.8526 164.761 18.5493C164.761 20.2315 165.94 21.1229 167.09 21.1229C168.47 21.1229 169.031 20.1884 169.232 19.5701L170.239 20.0014C169.908 21.0223 168.902 22.2013 167.09 22.2013ZM173.008 17.3703H177.983V18.3767H173.008V17.3703ZM181.069 20.1452C181.069 18.9375 181.974 18.3048 183.197 18.1323L185.181 17.8447C185.698 17.7728 185.799 17.5428 185.799 17.2265C185.799 16.4932 185.253 15.9468 184.146 15.9468C183.067 15.9468 182.377 16.5507 182.291 17.3415L181.198 17.1115C181.342 15.8318 182.564 14.9116 184.117 14.9116C186.101 14.9116 186.935 16.0043 186.935 17.3415V20.706C186.935 21.2811 187.021 21.7843 187.079 22H185.957C185.914 21.8706 185.828 21.4105 185.828 20.9648C185.612 21.5255 184.793 22.2013 183.499 22.2013C181.917 22.2013 181.069 21.1804 181.069 20.1452ZM183.671 21.1517C184.793 21.1517 185.799 20.5047 185.799 19.1244V18.6355L183.427 18.9806C182.737 19.0813 182.219 19.4407 182.219 20.059C182.219 20.6485 182.65 21.1517 183.671 21.1517ZM192.954 22.2013C191.07 22.2013 189.46 20.7779 189.46 18.5493C189.46 16.2919 191.128 14.9116 192.939 14.9116C194.808 14.9116 195.815 15.99 196.103 17.0971L195.053 17.5284C194.866 16.8095 194.233 15.99 192.939 15.99C191.803 15.99 190.624 16.8526 190.624 18.5493C190.624 20.2315 191.803 21.1229 192.954 21.1229C194.334 21.1229 194.895 20.1884 195.096 19.5701L196.103 20.0014C195.772 21.0223 194.765 22.2013 192.954 22.2013ZM201.575 22.2013C199.691 22.2013 198.081 20.7779 198.081 18.5493C198.081 16.2919 199.749 14.9116 201.561 14.9116C203.43 14.9116 204.436 15.99 204.724 17.0971L203.674 17.5284C203.487 16.8095 202.855 15.99 201.561 15.99C200.425 15.99 199.246 16.8526 199.246 18.5493C199.246 20.2315 200.425 21.1229 201.575 21.1229C202.955 21.1229 203.516 20.1884 203.717 19.5701L204.724 20.0014C204.393 21.0223 203.387 22.2013 201.575 22.2013ZM209.98 22.2013C207.996 22.2013 206.53 20.6772 206.53 18.5493C206.53 16.4357 207.996 14.9116 209.98 14.9116C211.965 14.9116 213.431 16.4357 213.431 18.5493C213.431 20.6772 211.965 22.2013 209.98 22.2013ZM209.98 21.1517C211.217 21.1517 212.267 20.2171 212.267 18.5493C212.267 16.8958 211.217 15.9612 209.98 15.9612C208.744 15.9612 207.694 16.8958 207.694 18.5493C207.694 20.2171 208.744 21.1517 209.98 21.1517ZM220.298 21.0654C219.968 21.77 219.119 22.2013 218.17 22.2013C216.416 22.2013 215.525 21.0223 215.525 19.4407V15.1129H216.675V19.2538C216.675 20.2459 217.15 21.1517 218.429 21.1517C219.594 21.1517 220.241 20.3034 220.241 19.225V15.1129H221.391V20.5622C221.391 21.0942 221.449 21.7268 221.492 22H220.385C220.327 21.7987 220.298 21.4105 220.298 21.0654ZM224.29 15.1129H225.411V16.1194C225.843 15.2998 226.705 14.9116 227.654 14.9116C229.452 14.9116 230.314 16.1337 230.314 17.6578V22H229.164V17.8879C229.164 16.8958 228.718 15.99 227.381 15.99C226.288 15.99 225.44 16.8095 225.44 18.1323V22H224.29V15.1129ZM238.634 15.1129V16.1625H236.002V19.8289C236.002 20.6341 236.506 21.0223 237.253 21.0223C237.728 21.0223 238.346 20.936 238.634 20.8354V21.885C238.317 22 237.828 22.115 237.124 22.115C235.7 22.115 234.852 21.4105 234.852 20.0446V16.1625H232.638V15.1129H233.774C234.608 15.1129 234.924 14.6816 234.924 13.9195V12.683H236.002V15.1129H238.634ZM241.978 17.3703H246.953V18.3767H241.978V17.3703ZM255.056 20.8641C254.726 21.583 253.964 22.2013 252.698 22.2013C250.743 22.2013 249.492 20.5909 249.492 18.5493C249.492 16.5507 250.815 14.9116 252.756 14.9116C254.064 14.9116 254.769 15.5299 255.028 16.1481V11.6046H256.178V20.706C256.178 21.3961 256.221 21.8562 256.25 22H255.128C255.1 21.8418 255.056 21.4536 255.056 21.0079V20.8641ZM252.871 21.1517C254.223 21.1517 255.056 20.059 255.056 18.5493C255.056 17.0396 254.237 15.9612 252.871 15.9612C251.548 15.9612 250.657 17.0396 250.657 18.5493C250.657 20.059 251.563 21.1517 252.871 21.1517ZM258.66 20.1452C258.66 18.9375 259.566 18.3048 260.788 18.1323L262.772 17.8447C263.289 17.7728 263.39 17.5428 263.39 17.2265C263.39 16.4932 262.844 15.9468 261.737 15.9468C260.658 15.9468 259.968 16.5507 259.882 17.3415L258.789 17.1115C258.933 15.8318 260.155 14.9116 261.708 14.9116C263.692 14.9116 264.526 16.0043 264.526 17.3415V20.706C264.526 21.2811 264.612 21.7843 264.67 22H263.548C263.505 21.8706 263.419 21.4105 263.419 20.9648C263.203 21.5255 262.384 22.2013 261.09 22.2013C259.508 22.2013 258.66 21.1804 258.66 20.1452ZM261.262 21.1517C262.384 21.1517 263.39 20.5047 263.39 19.1244V18.6355L261.018 18.9806C260.328 19.0813 259.81 19.4407 259.81 20.059C259.81 20.6485 260.241 21.1517 261.262 21.1517ZM273.118 15.1129V16.1625H270.487V19.8289C270.487 20.6341 270.99 21.0223 271.738 21.0223C272.213 21.0223 272.831 20.936 273.118 20.8354V21.885C272.802 22 272.313 22.115 271.609 22.115C270.185 22.115 269.337 21.4105 269.337 20.0446V16.1625H267.123V15.1129H268.259C269.093 15.1129 269.409 14.6816 269.409 13.9195V12.683H270.487V15.1129H273.118ZM275.902 20.1452C275.902 18.9375 276.808 18.3048 278.03 18.1323L280.014 17.8447C280.532 17.7728 280.633 17.5428 280.633 17.2265C280.633 16.4932 280.086 15.9468 278.979 15.9468C277.901 15.9468 277.211 16.5507 277.124 17.3415L276.032 17.1115C276.175 15.8318 277.397 14.9116 278.95 14.9116C280.935 14.9116 281.768 16.0043 281.768 17.3415V20.706C281.768 21.2811 281.855 21.7843 281.912 22H280.791C280.748 21.8706 280.661 21.4105 280.661 20.9648C280.446 21.5255 279.626 22.2013 278.332 22.2013C276.75 22.2013 275.902 21.1804 275.902 20.1452ZM278.505 21.1517C279.626 21.1517 280.633 20.5047 280.633 19.1244V18.6355L278.26 18.9806C277.57 19.0813 277.052 19.4407 277.052 20.059C277.052 20.6485 277.484 21.1517 278.505 21.1517Z" fill="#FEFEFE"/>
<rect x="16.5" y="66.5" width="585" height="101.317" stroke="white"/>
<path d="M47.2192 115.523C42.9292 115.523 40.7972 113.209 40.7972 110.297C40.7972 107.853 42.4352 106.189 44.3592 105.747C42.6172 105.149 41.2912 103.693 41.2912 101.483C41.2912 98.5967 43.6832 96.5947 47.2192 96.5947C50.7552 96.5947 53.1472 98.5967 53.1472 101.483C53.1472 103.693 51.8472 105.149 50.0792 105.747C52.1072 106.215 53.6152 107.905 53.6152 110.297C53.6152 113.209 51.4832 115.523 47.2192 115.523ZM47.2192 113.261C49.5072 113.261 50.9112 112.013 50.9112 110.037C50.9112 108.087 49.4812 106.761 47.2192 106.761C44.9572 106.761 43.5012 108.087 43.5012 110.037C43.5012 112.013 44.9572 113.261 47.2192 113.261ZM47.2192 104.733C49.0912 104.733 50.5472 103.615 50.5472 101.743C50.5472 100.027 49.1692 98.8307 47.2192 98.8307C45.2692 98.8307 43.8912 100.027 43.8912 101.743C43.8912 103.615 45.3472 104.733 47.2192 104.733Z" fill="#FEFEFE"/>
<path d="M59.6072 113.323L63.9112 98.7787H65.4152L61.1112 113.323H59.6072ZM73.3636 111.883C70.9956 111.883 69.6036 110.635 69.2836 109.051L70.8996 108.523C71.1716 109.787 72.0676 110.491 73.2996 110.491C74.7236 110.491 75.6036 109.595 75.6036 108.203C75.6036 106.827 74.7236 105.915 73.3156 105.915C72.3236 105.915 71.6196 106.443 71.2036 107.131L69.5076 106.859L70.4676 100.459H76.9316V101.931H71.6516L71.2996 104.267L71.0756 105.771C71.6516 105.083 72.4676 104.587 73.7156 104.587C75.8436 104.587 77.2516 105.947 77.2516 108.155C77.2516 110.363 75.7636 111.883 73.3636 111.883ZM83.2948 111.883C80.6228 111.883 78.7988 109.851 78.7988 106.027C78.7988 102.187 80.8308 100.235 83.2948 100.235C85.7428 100.235 87.7588 102.187 87.7588 106.027C87.7588 109.851 85.9508 111.883 83.2948 111.883ZM83.2948 110.459C85.0068 110.459 86.0788 108.923 86.0788 106.027C86.0788 103.339 84.9748 101.659 83.2948 101.659C81.5828 101.659 80.4788 103.339 80.4788 106.027C80.4788 108.907 81.5508 110.459 83.2948 110.459Z" fill="#7C7C7C"/>
<path d="M43.0212 132.385H46.8292V137.159H45.9192L45.8632 135.857C45.5272 136.641 44.8832 137.355 43.4692 137.355C41.3972 137.355 39.9412 135.745 39.9412 132.231C39.9412 128.703 41.5512 127.037 43.6372 127.037C46.1432 127.037 46.7592 129.011 46.8572 130.019L45.7792 130.285C45.5832 129.193 45.1492 128.115 43.6232 128.115C42.1112 128.115 41.1032 129.375 41.1032 132.231C41.1032 135.115 42.0832 136.305 43.5672 136.305C45.2332 136.305 45.7372 134.905 45.7372 133.463H43.0212V132.385ZM49.3857 127.233H50.5617V136.053H55.6577V137.159H49.3857V127.233ZM60.3563 137.355C58.2423 137.355 56.7303 135.647 56.7303 132.189C56.7303 128.731 58.2423 127.037 60.3563 127.037C62.4703 127.037 63.9823 128.731 63.9823 132.189C63.9823 135.647 62.4703 137.355 60.3563 137.355ZM60.3563 136.235C61.8403 136.235 62.8063 134.961 62.8063 132.189C62.8063 129.417 61.8403 128.157 60.3563 128.157C58.8723 128.157 57.9062 129.417 57.9062 132.189C57.9062 134.961 58.8723 136.235 60.3563 136.235ZM69.1568 127.233C70.9348 127.233 71.9428 128.311 71.9428 129.851C71.9428 130.943 71.3128 131.825 70.3888 132.091C71.5368 132.371 72.1668 133.351 72.1668 134.471C72.1668 136.039 70.9908 137.159 69.1848 137.159H65.8528V127.233H69.1568ZM69.0168 136.109C70.2488 136.109 70.9908 135.409 70.9908 134.345C70.9908 133.351 70.3188 132.665 69.1428 132.665H67.0148V136.109H69.0168ZM69.0168 131.629C70.0808 131.629 70.7668 130.929 70.7668 129.963C70.7668 128.927 70.1088 128.269 68.8628 128.269H67.0148V131.629H69.0168ZM79.8753 137.159L78.9793 134.289H75.2833L74.4013 137.159H73.1693L76.3053 127.233H77.9713L81.1213 137.159H79.8753ZM77.1313 128.269L75.6333 133.155H78.6293L77.1313 128.269ZM82.9638 127.233H84.1398V136.053H89.2358V137.159H82.9638V127.233ZM100.593 133.001V137.159H99.4309V127.233H103.043C104.835 127.233 105.955 128.521 105.955 130.131C105.955 131.573 105.017 132.665 103.617 132.903L105.913 137.159H104.583L102.357 133.001H100.593ZM102.861 131.937C104.023 131.937 104.779 131.223 104.779 130.131C104.779 129.025 104.023 128.297 102.861 128.297H100.593V131.937H102.861ZM110.723 137.355C108.791 137.355 107.447 136.333 107.447 134.303V127.233H108.609V134.191C108.609 135.507 109.435 136.249 110.723 136.249C112.011 136.249 112.837 135.507 112.837 134.191V127.233H113.999V134.303C113.999 136.333 112.655 137.355 110.723 137.355ZM117.004 128.983V137.159H115.856V127.233H117.368L121.232 135.045V127.233H122.38V137.159H121.036L117.004 128.983ZM125.399 128.983V137.159H124.251V127.233H125.763L129.627 135.045V127.233H130.775V137.159H129.431L125.399 128.983ZM136.495 136.151H138.763V137.159H133.051V136.151H135.333V128.241H133.051V127.233H138.763V128.241H136.495V136.151ZM142.188 128.983V137.159H141.04V127.233H142.552L146.416 135.045V127.233H147.564V137.159H146.22L142.188 128.983ZM152.15 132.385H155.958V137.159H155.048L154.992 135.857C154.656 136.641 154.012 137.355 152.598 137.355C150.526 137.355 149.07 135.745 149.07 132.231C149.07 128.703 150.68 127.037 152.766 127.037C155.272 127.037 155.888 129.011 155.986 130.019L154.908 130.285C154.712 129.193 154.278 128.115 152.752 128.115C151.24 128.115 150.232 129.375 150.232 132.231C150.232 135.115 151.212 136.305 152.696 136.305C154.362 136.305 154.866 134.905 154.866 133.463H152.15V132.385Z" fill="#FEFEFE"/>
<path d="M236.767 103.277V99.0127L230.787 108.035H234.297H236.767V103.277ZM228.213 110.219V107.801L235.415 96.9587H239.289V108.035H241.967V110.219H239.289V115.159H236.767V110.219H228.213ZM243.983 112.299C249.053 109.179 253.239 106.163 253.239 102.523C253.239 100.157 251.731 98.9347 249.937 98.9347C247.961 98.9347 246.453 100.365 246.453 102.939L243.827 102.575C243.853 99.1167 246.167 96.5947 249.963 96.5947C253.733 96.5947 255.969 98.9867 255.969 102.237C255.969 104.187 255.293 105.851 254.045 107.307C252.485 109.101 250.067 110.817 246.843 112.767H251.081H256.177V115.159H243.983V112.299Z" fill="#0BDD48"/>
<path d="M234.205 138.307L233.085 136.823C232.567 137.173 231.951 137.355 231.265 137.355C229.151 137.355 227.639 135.647 227.639 132.189C227.639 128.731 229.151 127.037 231.265 127.037C233.379 127.037 234.891 128.731 234.891 132.189C234.891 133.925 234.513 135.213 233.869 136.067L235.073 137.677L234.205 138.307ZM231.265 136.235C231.699 136.235 232.077 136.123 232.413 135.913L230.677 133.603L231.531 132.959L233.141 135.101C233.505 134.429 233.715 133.477 233.715 132.189C233.715 129.417 232.749 128.157 231.265 128.157C229.781 128.157 228.815 129.417 228.815 132.189C228.815 134.961 229.781 136.235 231.265 136.235ZM239.716 137.355C237.784 137.355 236.44 136.333 236.44 134.303V127.233H237.602V134.191C237.602 135.507 238.428 136.249 239.716 136.249C241.004 136.249 241.83 135.507 241.83 134.191V127.233H242.992V134.303C242.992 136.333 241.648 137.355 239.716 137.355ZM245.45 127.233H251.246V128.325H246.612V131.657H250.938V132.749H246.612V136.067H251.246V137.159H245.45V127.233ZM256.505 137.355C254.573 137.355 253.229 136.333 253.229 134.303V127.233H254.391V134.191C254.391 135.507 255.217 136.249 256.505 136.249C257.793 136.249 258.619 135.507 258.619 134.191V127.233H259.781V134.303C259.781 136.333 258.437 137.355 256.505 137.355ZM262.239 127.233H268.035V128.325H263.401V131.657H267.727V132.749H263.401V136.067H268.035V137.159H262.239V127.233ZM270.284 127.233H273.238C275.268 127.233 276.836 128.787 276.836 132.217C276.836 135.633 275.268 137.159 273.21 137.159H270.284V127.233ZM273.028 136.067C274.568 136.067 275.674 134.919 275.674 132.217C275.674 129.501 274.582 128.325 273.028 128.325H271.46V136.067H273.028Z" fill="#FEFEFE"/>
<path d="M422.727 115.523C418.879 115.523 416.617 113.495 416.097 110.921L418.723 110.063C419.165 112.117 420.621 113.261 422.623 113.261C424.937 113.261 426.367 111.805 426.367 109.543C426.367 107.307 424.937 105.825 422.649 105.825C421.037 105.825 419.893 106.683 419.217 107.801L416.461 107.359L418.021 96.9587H428.525V99.3507H419.945L419.373 103.147L419.009 105.591C419.945 104.473 421.271 103.667 423.299 103.667C426.757 103.667 429.045 105.877 429.045 109.465C429.045 113.053 426.627 115.523 422.727 115.523Z" fill="#FEFEFE"/>
<path d="M416.107 127.233H419.831C421.665 127.233 422.813 128.493 422.813 130.145C422.813 131.811 421.665 133.043 419.831 133.043H417.269V137.159H416.107V127.233ZM419.607 131.993C420.881 131.993 421.637 131.251 421.637 130.159C421.637 129.025 420.881 128.283 419.607 128.283H417.269V131.993H419.607ZM424.81 127.233H430.606V128.325H425.972V131.657H430.298V132.749H425.972V136.067H430.606V137.159H424.81V127.233ZM434.128 133.001V137.159H432.966V127.233H436.578C438.37 127.233 439.49 128.521 439.49 130.131C439.49 131.573 438.552 132.665 437.152 132.903L439.448 137.159H438.118L435.892 133.001H434.128ZM436.396 131.937C437.558 131.937 438.314 131.223 438.314 130.131C438.314 129.025 437.558 128.297 436.396 128.297H434.128V131.937H436.396ZM441.837 132.651H446.681V133.631H441.837V132.651ZM453.227 137.159H452.065V128.325H448.845V127.233H456.447V128.325H453.227V137.159ZM458.388 127.233H464.184V128.325H459.55V131.657H463.876V132.749H459.55V136.067H464.184V137.159H458.388V127.233ZM467.328 128.983V137.159H466.18V127.233H467.692L471.556 135.045V127.233H472.704V137.159H471.36L467.328 128.983ZM480.567 137.159L479.671 134.289H475.975L475.093 137.159H473.861L476.997 127.233H478.663L481.813 137.159H480.567ZM477.823 128.269L476.325 133.155H479.321L477.823 128.269ZM484.117 128.983V137.159H482.969V127.233H484.481L488.345 135.045V127.233H489.493V137.159H488.149L484.117 128.983ZM495.2 137.159H494.038V128.325H490.818V127.233H498.42V128.325H495.2V137.159ZM511.695 127.037C514.159 127.037 514.873 129.095 514.971 130.103L513.823 130.313C513.641 129.235 513.109 128.143 511.653 128.143C510.183 128.143 509.133 129.445 509.133 132.189C509.133 134.933 510.183 136.249 511.625 136.249C513.123 136.249 513.627 135.031 513.767 134.009L514.887 134.191C514.803 135.199 514.061 137.355 511.639 137.355C509.497 137.355 507.957 135.591 507.957 132.189C507.957 128.801 509.553 127.037 511.695 127.037ZM522.539 137.159L521.643 134.289H517.947L517.065 137.159H515.833L518.969 127.233H520.635L523.785 137.159H522.539ZM519.795 128.269L518.297 133.155H521.293L519.795 128.269ZM525.236 127.233H528.96C530.794 127.233 531.942 128.493 531.942 130.145C531.942 131.811 530.794 133.043 528.96 133.043H526.398V137.159H525.236V127.233ZM528.736 131.993C530.01 131.993 530.766 131.251 530.766 130.159C530.766 129.025 530.01 128.283 528.736 128.283H526.398V131.993H528.736Z" fill="#FEFEFE"/>
<path d="M20.601 199.922C23.1315 199.922 23.8648 202.035 23.9655 203.07L22.7865 203.286C22.5995 202.179 22.0532 201.057 20.5579 201.057C19.0482 201.057 17.9698 202.395 17.9698 205.213C17.9698 208.031 19.0482 209.382 20.5291 209.382C22.0675 209.382 22.5852 208.131 22.7289 207.082L23.8792 207.269C23.7929 208.304 23.0309 210.518 20.5435 210.518C18.3436 210.518 16.762 208.707 16.762 205.213C16.762 201.733 18.4011 199.922 20.601 199.922ZM31.7384 210.317L30.8182 207.369H27.0224L26.1166 210.317H24.8513L28.072 200.123H29.783L33.018 210.317H31.7384ZM28.9203 201.187L27.3818 206.205H30.4587L28.9203 201.187ZM34.5077 200.123H38.3323C40.2158 200.123 41.3948 201.417 41.3948 203.113C41.3948 204.824 40.2158 206.09 38.3323 206.09H35.7011V210.317H34.5077V200.123ZM38.1023 205.011C39.4107 205.011 40.1871 204.249 40.1871 203.128C40.1871 201.963 39.4107 201.201 38.1023 201.201H35.7011V205.011H38.1023ZM48.9808 210.317L48.0606 207.369H44.2648L43.359 210.317H42.0937L45.3144 200.123H47.0254L50.2605 210.317H48.9808ZM46.1627 201.187L44.6243 206.205H47.7012L46.1627 201.187ZM55.0859 199.922C57.6164 199.922 58.3497 202.035 58.4504 203.07L57.2714 203.286C57.0845 202.179 56.5381 201.057 55.0428 201.057C53.5331 201.057 52.4547 202.395 52.4547 205.213C52.4547 208.031 53.5331 209.382 55.014 209.382C56.5525 209.382 57.0701 208.131 57.2139 207.082L58.3641 207.269C58.2778 208.304 57.5158 210.518 55.0284 210.518C52.8285 210.518 51.247 208.707 51.247 205.213C51.247 201.733 52.8861 199.922 55.0859 199.922ZM64.0235 209.282H66.3527V210.317H60.4864V209.282H62.8301V201.158H60.4864V200.123H66.3527V201.158H64.0235V209.282ZM72.6303 210.317H71.4369V201.244H68.13V200.123H75.9373V201.244H72.6303V210.317ZM77.959 200.123L80.662 204.853L83.3795 200.123H84.7885L81.2659 206.003V210.317H80.0582V206.003L76.5499 200.123H77.959ZM98.3215 200.123C100.147 200.123 101.183 201.23 101.183 202.812C101.183 203.933 100.536 204.839 99.5867 205.112C100.766 205.4 101.413 206.406 101.413 207.556C101.413 209.167 100.205 210.317 98.3502 210.317H94.9282V200.123H98.3215ZM98.1777 209.239C99.4429 209.239 100.205 208.52 100.205 207.427C100.205 206.406 99.5148 205.702 98.3071 205.702H96.1216V209.239H98.1777ZM98.1777 204.638C99.2704 204.638 99.9749 203.919 99.9749 202.927C99.9749 201.863 99.2992 201.187 98.0195 201.187H96.1216V204.638H98.1777ZM103.823 200.123L106.526 204.853L109.243 200.123H110.652L107.13 206.003V210.317H105.922V206.003L102.414 200.123H103.823ZM124.358 210.317H123.164V201.244H119.857V200.123H127.665V201.244H124.358V210.317ZM129.658 200.123H135.61V201.244H130.851V204.666H135.294V205.788H130.851V209.195H135.61V210.317H129.658V200.123ZM138.84 201.92V210.317H137.661V200.123H139.213L143.182 208.146V200.123H144.361V210.317H142.98L138.84 201.92ZM152.436 210.317L151.515 207.369H147.72L146.814 210.317H145.549L148.769 200.123H150.48L153.715 210.317H152.436ZM149.617 201.187L148.079 206.205H151.156L149.617 201.187ZM156.082 201.92V210.317H154.903V200.123H156.456L160.424 208.146V200.123H161.603V210.317H160.223L156.082 201.92ZM167.464 210.317H166.27V201.244H162.963V200.123H170.771V201.244H167.464V210.317Z" fill="#FEFEFE"/>
<path d="M23.1171 244.317L22.197 241.369H18.4011L17.4953 244.317H16.23L19.4507 234.123H21.1617L24.3968 244.317H23.1171ZM20.299 235.187L18.7606 240.205H21.8375L20.299 235.187ZM29.1503 244.518C27.2668 244.518 25.6565 243.095 25.6565 240.866C25.6565 238.609 27.3243 237.229 29.1359 237.229C31.0051 237.229 32.0116 238.307 32.2991 239.414L31.2495 239.845C31.0626 239.126 30.43 238.307 29.1359 238.307C28.0001 238.307 26.8211 239.17 26.8211 240.866C26.8211 242.548 28.0001 243.44 29.1503 243.44C30.5306 243.44 31.0914 242.505 31.2927 241.887L32.2991 242.318C31.9684 243.339 30.962 244.518 29.1503 244.518ZM35.0685 238.264C35.3129 237.602 35.8449 237.3 36.4919 237.3C37.1389 237.3 37.6997 237.645 37.8434 238.408C38.1023 237.717 38.663 237.3 39.4825 237.3C40.3596 237.3 41.2079 237.717 41.2079 239.356V244.317H40.1296V239.529C40.1296 238.623 39.7701 238.336 39.195 238.336C38.6199 238.336 38.1454 238.738 38.1454 239.73V244.317H37.0814V239.572C37.0814 238.681 36.7363 238.336 36.1612 238.336C35.5717 238.336 35.0972 238.695 35.0972 239.745V244.317H34.0189V237.43H35.0685V238.264ZM46.2778 244.518C44.4805 244.518 42.8558 243.21 42.8558 240.852C42.8558 238.638 44.4661 237.229 46.1627 237.229C48.2044 237.229 49.4409 238.638 49.4409 240.708C49.4409 240.852 49.4266 241.01 49.4122 241.111H44.0348V241.211C44.0348 242.505 45.0844 243.454 46.2778 243.454C47.4424 243.454 48.1038 242.807 48.377 242.002L49.369 242.361C48.9808 243.555 47.8737 244.518 46.2778 244.518ZM48.2476 240.133C48.19 239.112 47.4424 238.249 46.1771 238.249C45.0269 238.249 44.1354 239.141 44.0635 240.133H48.2476ZM63.7071 233.922C66.2377 233.922 66.971 236.035 67.0716 237.07L65.8926 237.286C65.7057 236.179 65.1593 235.057 63.664 235.057C62.1543 235.057 61.0759 236.395 61.0759 239.213C61.0759 242.031 62.1543 243.382 63.6352 243.382C65.1737 243.382 65.6913 242.131 65.8351 241.082L66.9853 241.269C66.8991 242.304 66.137 244.518 63.6496 244.518C61.4498 244.518 59.8682 242.707 59.8682 239.213C59.8682 235.733 61.5073 233.922 63.7071 233.922ZM72.0408 244.518C70.0566 244.518 68.5901 242.994 68.5901 240.866C68.5901 238.753 70.0566 237.229 72.0408 237.229C74.025 237.229 75.4915 238.753 75.4915 240.866C75.4915 242.994 74.025 244.518 72.0408 244.518ZM72.0408 243.469C73.2773 243.469 74.3269 242.534 74.3269 240.866C74.3269 239.213 73.2773 238.278 72.0408 238.278C70.8043 238.278 69.7547 239.213 69.7547 240.866C69.7547 242.534 70.8043 243.469 72.0408 243.469ZM83.9115 238.695C83.7246 238.638 83.437 238.566 82.9481 238.566C81.5247 238.566 80.7627 239.371 80.7627 240.952V243.296H82.9338V244.317H77.5707V243.296H79.6124V238.451H77.7864V237.43H80.7339V238.781C81.1365 237.717 82.143 237.329 82.9625 237.329C83.4658 237.329 83.7389 237.401 83.9115 237.459V238.695ZM86.1776 237.43H87.2991V238.58C87.6154 237.876 88.3918 237.229 89.6859 237.229C91.7419 237.229 92.8778 238.839 92.8778 240.866C92.8778 242.922 91.6413 244.518 89.6283 244.518C88.4062 244.518 87.6442 243.972 87.3278 243.354V247.049H86.1776V237.43ZM89.4846 243.483C90.8217 243.483 91.7132 242.39 91.7132 240.866C91.7132 239.342 90.8217 238.264 89.4846 238.264C88.1618 238.264 87.2991 239.342 87.2991 240.866C87.2991 242.39 88.1762 243.483 89.4846 243.483Z" fill="#FEFEFE"/>
<rect x="137" y="236.672" width="398" height="5.28935" fill="#0BDD48"/>
<path d="M561.085 241.427C561.171 242.62 562.077 243.469 563.313 243.469C564.536 243.469 565.47 242.649 565.47 241.427C565.47 240.09 564.507 239.342 563.313 239.342C562.609 239.342 561.933 239.615 561.473 240.118L560.323 239.658L561.43 235H566.462V236.093H562.249L561.545 239.055C562.019 238.537 562.825 238.292 563.572 238.292C565.413 238.292 566.678 239.515 566.678 241.384C566.678 243.124 565.355 244.518 563.313 244.518C561.416 244.518 560.064 243.224 559.935 241.758L561.085 241.427ZM567.88 244.317L574.796 234.123H576.004L569.088 244.317H567.88ZM578.327 241.427C578.414 242.62 579.319 243.469 580.556 243.469C581.778 243.469 582.713 242.649 582.713 241.427C582.713 240.09 581.749 239.342 580.556 239.342C579.851 239.342 579.176 239.615 578.715 240.118L577.565 239.658L578.672 235H583.705V236.093H579.492L578.787 239.055C579.262 238.537 580.067 238.292 580.815 238.292C582.655 238.292 583.92 239.515 583.92 241.384C583.92 243.124 582.598 244.518 580.556 244.518C578.658 244.518 577.306 243.224 577.177 241.758L578.327 241.427Z" fill="#0BDD48"/>
<path d="M20.9173 281.282H23.2466V282.317H17.3803V281.282H19.7239V273.158H17.3803V272.123H23.2466V273.158H20.9173V281.282ZM26.0015 275.43H27.123V276.436C27.5544 275.617 28.417 275.229 29.366 275.229C31.1633 275.229 32.0259 276.451 32.0259 277.975V282.317H30.8757V278.205C30.8757 277.213 30.43 276.307 29.0928 276.307C28.0001 276.307 27.1518 277.126 27.1518 278.449V282.317H26.0015V275.43ZM34.6228 281.282H37.2683V276.465H34.9247V275.43H38.4186V281.282H41.0641V282.317H34.6228V281.282ZM36.7076 273.014C36.7076 272.41 37.1821 271.936 37.8003 271.936C38.3898 271.936 38.8643 272.41 38.8643 273.014C38.8643 273.618 38.3898 274.107 37.8003 274.107C37.1821 274.107 36.7076 273.618 36.7076 273.014ZM48.9665 275.43V276.479H46.3353V280.146C46.3353 280.951 46.8385 281.339 47.5862 281.339C48.0606 281.339 48.6789 281.253 48.9665 281.152V282.202C48.6501 282.317 48.1613 282.432 47.4568 282.432C46.0333 282.432 45.185 281.727 45.185 280.361V276.479H42.9708V275.43H44.1067C44.9406 275.43 45.2569 274.998 45.2569 274.236V273H46.3353V275.43H48.9665ZM54.899 282.518C53.1017 282.518 51.477 281.21 51.477 278.852C51.477 276.638 53.0874 275.229 54.784 275.229C56.8257 275.229 58.0622 276.638 58.0622 278.708C58.0622 278.852 58.0478 279.01 58.0334 279.111H52.656V279.211C52.656 280.505 53.7056 281.454 54.899 281.454C56.0636 281.454 56.725 280.807 56.9982 280.002L57.9903 280.361C57.6021 281.555 56.495 282.518 54.899 282.518ZM56.8688 278.133C56.8113 277.112 56.0636 276.249 54.7983 276.249C53.6481 276.249 52.7567 277.141 52.6848 278.133H56.8688ZM63.6352 282.518C61.7517 282.518 60.1414 281.095 60.1414 278.866C60.1414 276.609 61.8092 275.229 63.6209 275.229C65.49 275.229 66.4965 276.307 66.784 277.414L65.7344 277.845C65.5475 277.126 64.9149 276.307 63.6209 276.307C62.485 276.307 61.306 277.17 61.306 278.866C61.306 280.548 62.485 281.44 63.6352 281.44C65.0155 281.44 65.5763 280.505 65.7776 279.887L66.784 280.318C66.4533 281.339 65.4469 282.518 63.6352 282.518ZM69.1077 271.922H70.2579V276.393C70.7036 275.588 71.5663 275.229 72.5297 275.229C74.2838 275.229 75.1321 276.508 75.1321 278.047V282.317H73.9818V278.248C73.9818 277.227 73.5505 276.307 72.2133 276.307C71.1062 276.307 70.2579 277.126 70.2579 278.478V282.317H69.1077V271.922Z" fill="#FEFEFE"/>
<rect x="137" y="274.672" width="238.8" height="5.28935" fill="#0BDD48"/>
<rect x="375.914" y="274.672" width="159.086" height="5.28935" fill="#2C9B63"/>
<path d="M563.572 276.695C565.154 276.695 566.548 277.716 566.548 279.556C566.548 281.138 565.326 282.518 563.227 282.518C561.2 282.518 559.92 281.167 559.791 279.614L560.97 279.384C561.07 280.663 562.063 281.44 563.213 281.44C564.507 281.44 565.355 280.649 565.355 279.585C565.355 278.349 564.507 277.73 563.313 277.73C563.011 277.73 562.724 277.759 562.465 277.831L561.904 276.824L564.794 274.093H560.078V273H566.347V274.078L563.572 276.695ZM567.88 282.317L574.796 272.123H576.004L569.088 282.317H567.88ZM578.327 279.427C578.414 280.62 579.319 281.469 580.556 281.469C581.778 281.469 582.713 280.649 582.713 279.427C582.713 278.09 581.749 277.342 580.556 277.342C579.851 277.342 579.176 277.615 578.715 278.118L577.565 277.658L578.672 273H583.705V274.093H579.492L578.787 277.055C579.262 276.537 580.067 276.292 580.815 276.292C582.655 276.292 583.92 277.515 583.92 279.384C583.92 281.124 582.598 282.518 580.556 282.518C578.658 282.518 577.306 281.224 577.177 279.758L578.327 279.427Z" fill="#FEFEFE"/>
<path d="M19.7527 315.414H23.6635V320.317H22.7289L22.6714 318.98C22.3264 319.785 21.665 320.518 20.2128 320.518C18.0848 320.518 16.5895 318.865 16.5895 315.256C16.5895 311.633 18.243 309.922 20.3853 309.922C22.959 309.922 23.5916 311.949 23.6923 312.984L22.5852 313.257C22.3839 312.136 21.9381 311.029 20.3709 311.029C18.8181 311.029 17.7829 312.323 17.7829 315.256C17.7829 318.218 18.7893 319.44 20.3134 319.44C22.0244 319.44 22.542 318.002 22.542 316.521H19.7527V315.414ZM25.714 319.282H28.3595V310.957H26.0878V309.922H29.5098V319.282H32.1553V320.317H25.714V319.282ZM37.5559 320.518C35.5717 320.518 34.1051 318.994 34.1051 316.866C34.1051 314.753 35.5717 313.229 37.5559 313.229C39.5401 313.229 41.0066 314.753 41.0066 316.866C41.0066 318.994 39.5401 320.518 37.5559 320.518ZM37.5559 319.469C38.7924 319.469 39.842 318.534 39.842 316.866C39.842 315.213 38.7924 314.278 37.5559 314.278C36.3194 314.278 35.2698 315.213 35.2698 316.866C35.2698 318.534 36.3194 319.469 37.5559 319.469ZM46.666 320.518C45.4438 320.518 44.653 319.929 44.2792 319.21V320.317H43.1577V309.922H44.308V314.465C44.6674 313.847 45.4007 313.229 46.666 313.229C48.7364 313.229 49.8579 314.853 49.8579 316.866C49.8579 318.922 48.6933 320.518 46.666 320.518ZM46.4934 319.469C47.845 319.469 48.6933 318.39 48.6933 316.866C48.6933 315.342 47.8593 314.278 46.4934 314.278C45.1275 314.278 44.2792 315.342 44.2792 316.866C44.2792 318.39 45.1419 319.469 46.4934 319.469ZM54.899 320.518C53.1017 320.518 51.477 319.21 51.477 316.852C51.477 314.638 53.0874 313.229 54.784 313.229C56.8257 313.229 58.0622 314.638 58.0622 316.708C58.0622 316.852 58.0478 317.01 58.0334 317.111H52.656V317.211C52.656 318.505 53.7056 319.454 54.899 319.454C56.0636 319.454 56.725 318.807 56.9982 318.002L57.9903 318.361C57.6021 319.555 56.495 320.518 54.899 320.518ZM56.8688 316.133C56.8113 315.112 56.0636 314.249 54.7983 314.249C53.6481 314.249 52.7567 315.141 52.6848 316.133H56.8688ZM61.4066 320.317H59.9976L62.7294 316.823L60.0982 313.43H61.5217L63.434 315.946L65.3606 313.43H66.7409L64.1097 316.823L66.8416 320.317H65.4325L63.4196 317.729L61.4066 320.317Z" fill="#FEFEFE"/>
<rect x="137" y="312.672" width="1" height="5.28935" fill="#7C7C7C"/>
<path d="M566.031 312.222C566.678 313.157 566.865 314.393 566.865 315.658C566.865 316.924 566.678 318.16 566.031 319.095C565.441 319.957 564.536 320.518 563.313 320.518C562.091 320.518 561.185 319.957 560.596 319.095C559.949 318.16 559.762 316.924 559.762 315.658C559.762 314.393 559.949 313.157 560.596 312.222C561.185 311.359 562.091 310.799 563.313 310.799C564.536 310.799 565.441 311.359 566.031 312.222ZM561.789 312.524C561.185 313.185 560.941 314.249 560.941 315.658C560.941 316.507 561.027 317.24 561.229 317.829L564.967 312.668L564.837 312.524C564.464 312.121 563.96 311.891 563.313 311.891C562.638 311.891 562.163 312.121 561.789 312.524ZM564.837 318.793C565.441 318.131 565.686 317.067 565.686 315.658C565.686 314.853 565.6 314.149 565.427 313.588L561.717 318.721C562.12 319.167 562.595 319.425 563.313 319.425C563.96 319.425 564.464 319.195 564.837 318.793ZM567.88 320.317L574.796 310.123H576.004L569.088 320.317H567.88ZM578.327 317.427C578.414 318.62 579.319 319.469 580.556 319.469C581.778 319.469 582.713 318.649 582.713 317.427C582.713 316.09 581.749 315.342 580.556 315.342C579.851 315.342 579.176 315.615 578.715 316.118L577.565 315.658L578.672 311H583.705V312.093H579.492L578.787 315.055C579.262 314.537 580.067 314.292 580.815 314.292C582.655 314.292 583.92 315.515 583.92 317.384C583.92 319.124 582.598 320.518 580.556 320.518C578.658 320.518 577.306 319.224 577.177 317.758L578.327 317.427Z" fill="#FEFEFE"/>
<path d="M16.704 373.285C16.704 371.941 17.648 371.189 18.992 370.997L21.056 370.693C21.616 370.613 21.744 370.373 21.744 370.037C21.744 369.173 21.168 368.517 19.968 368.517C18.848 368.517 18.176 369.189 18.064 370.165L16.848 369.877C17.008 368.421 18.288 367.429 19.936 367.429C22.112 367.429 23.024 368.677 23.024 370.165V374.037C23.024 374.677 23.072 375.077 23.12 375.317H21.872C21.84 375.141 21.776 374.757 21.776 374.165C21.44 374.789 20.608 375.541 19.232 375.541C17.648 375.541 16.704 374.453 16.704 373.285ZM19.392 374.453C20.72 374.453 21.744 373.717 21.744 372.085V371.573L19.248 371.941C18.512 372.053 17.984 372.469 17.984 373.221C17.984 373.845 18.512 374.453 19.392 374.453ZM28.6995 368.581C27.3555 368.581 26.1875 369.621 26.1875 371.477C26.1875 373.317 27.3555 374.389 28.7155 374.389C30.1715 374.389 30.7795 373.365 31.0035 372.661L32.1235 373.157C31.7555 374.293 30.6835 375.541 28.7155 375.541C26.5075 375.541 24.9075 373.813 24.9075 371.477C24.9075 369.093 26.5395 367.429 28.6995 367.429C30.6675 367.429 31.7395 368.629 32.0595 369.845L30.9075 370.341C30.6995 369.525 30.0755 368.581 28.6995 368.581ZM35.1991 367.653V368.741C35.6311 367.941 36.5591 367.429 37.5511 367.429C38.6071 367.429 39.5191 367.989 39.9031 368.997C40.4471 367.909 41.4071 367.429 42.4951 367.429C43.8871 367.429 45.1351 368.389 45.1351 370.309V375.317H43.8551V370.453C43.8551 369.397 43.2951 368.581 42.0951 368.581C40.9591 368.581 40.1911 369.509 40.1911 370.661V375.317H38.9111V370.453C38.9111 369.397 38.3511 368.581 37.1351 368.581C35.9831 368.581 35.2311 369.477 35.2311 370.677V375.317H33.9511V367.653H35.1991ZM48.3453 370.741H52.9213C52.8893 369.525 52.1053 368.565 50.6493 368.565C49.3213 368.565 48.4253 369.605 48.3453 370.741ZM53.0973 372.741L54.2013 373.141C53.7693 374.469 52.5693 375.541 50.7933 375.541C48.7453 375.541 47.0013 374.037 47.0013 371.461C47.0013 369.045 48.6973 367.429 50.6333 367.429C52.9533 367.429 54.2493 369.045 54.2493 371.381C54.2493 371.541 54.2333 371.717 54.2173 371.829H48.3133V371.893C48.3133 373.349 49.4173 374.389 50.7933 374.389C52.0893 374.389 52.7933 373.653 53.0973 372.741ZM60.2975 371.285H56.0255V370.165H60.2975V371.285ZM65.9026 368.581C64.5586 368.581 63.3906 369.621 63.3906 371.477C63.3906 373.317 64.5586 374.389 65.9186 374.389C67.3746 374.389 67.9826 373.365 68.2066 372.661L69.3266 373.157C68.9586 374.293 67.8866 375.541 65.9186 375.541C63.7106 375.541 62.1106 373.813 62.1106 371.477C62.1106 369.093 63.7426 367.429 65.9026 367.429C67.8706 367.429 68.9426 368.629 69.2626 369.845L68.1106 370.341C67.9026 369.525 67.2786 368.581 65.9026 368.581ZM74.4663 367.429C76.6743 367.429 78.3063 369.125 78.3063 371.477C78.3063 373.845 76.6743 375.541 74.4663 375.541C72.2582 375.541 70.6263 373.845 70.6263 371.477C70.6263 369.125 72.2582 367.429 74.4663 367.429ZM74.4663 368.581C73.0903 368.581 71.9062 369.621 71.9062 371.477C71.9062 373.349 73.0903 374.389 74.4663 374.389C75.8423 374.389 77.0263 373.349 77.0263 371.477C77.0263 369.621 75.8423 368.581 74.4663 368.581ZM84.3913 367.605V368.965C84.1833 368.901 83.9433 368.885 83.7193 368.885C82.4393 368.885 81.5593 369.621 81.5593 371.349V375.317H80.2793V367.653H81.5273V369.029C82.0233 367.909 82.9993 367.541 83.8473 367.541C84.0553 367.541 84.2793 367.573 84.3913 367.605ZM87.1843 378.357H85.9043V367.653H87.1523V368.933C87.5523 368.149 88.4483 367.429 89.8083 367.429C92.0643 367.429 93.2963 369.189 93.2963 371.477C93.2963 373.765 91.9843 375.541 89.7763 375.541C88.4643 375.541 87.5843 374.853 87.1843 374.133V378.357ZM89.5843 374.389C91.0563 374.389 92.0163 373.173 92.0163 371.477C92.0163 369.781 91.0723 368.581 89.5843 368.581C88.0963 368.581 87.1523 369.781 87.1523 371.477C87.1523 373.173 88.1123 374.389 89.5843 374.389ZM98.8134 373.285C98.8134 371.941 99.7574 371.189 101.101 370.997L103.165 370.693C103.725 370.613 103.853 370.373 103.853 370.037C103.853 369.173 103.277 368.517 102.077 368.517C100.957 368.517 100.285 369.189 100.173 370.165L98.9574 369.877C99.1174 368.421 100.397 367.429 102.045 367.429C104.221 367.429 105.133 368.677 105.133 370.165V374.037C105.133 374.677 105.181 375.077 105.229 375.317H103.981C103.949 375.141 103.885 374.757 103.885 374.165C103.549 374.789 102.717 375.541 101.341 375.541C99.7574 375.541 98.8134 374.453 98.8134 373.285ZM101.501 374.453C102.829 374.453 103.853 373.717 103.853 372.085V371.573L101.357 371.941C100.621 372.053 100.093 372.469 100.093 373.221C100.093 373.845 100.621 374.453 101.501 374.453ZM109.338 365.221V367.653H111.146V368.805H109.338V373.045C109.338 373.845 109.69 374.245 110.506 374.245C110.73 374.245 111.018 374.197 111.146 374.165V375.253C111.002 375.301 110.634 375.397 110.138 375.397C108.874 375.397 108.058 374.613 108.058 373.221V368.805H106.522V367.653H107.018C107.802 367.653 108.138 367.205 108.138 366.485V365.221H109.338ZM120.246 368.581C118.902 368.581 117.734 369.621 117.734 371.477C117.734 373.317 118.902 374.389 120.262 374.389C121.718 374.389 122.326 373.365 122.55 372.661L123.67 373.157C123.302 374.293 122.23 375.541 120.262 375.541C118.054 375.541 116.454 373.813 116.454 371.477C116.454 369.093 118.086 367.429 120.246 367.429C122.214 367.429 123.286 368.629 123.606 369.845L122.454 370.341C122.246 369.525 121.622 368.581 120.246 368.581ZM124.954 373.285C124.954 371.941 125.898 371.189 127.242 370.997L129.306 370.693C129.866 370.613 129.994 370.373 129.994 370.037C129.994 369.173 129.418 368.517 128.218 368.517C127.098 368.517 126.426 369.189 126.314 370.165L125.098 369.877C125.258 368.421 126.538 367.429 128.186 367.429C130.362 367.429 131.274 368.677 131.274 370.165V374.037C131.274 374.677 131.322 375.077 131.37 375.317H130.122C130.09 375.141 130.026 374.757 130.026 374.165C129.69 374.789 128.858 375.541 127.482 375.541C125.898 375.541 124.954 374.453 124.954 373.285ZM127.642 374.453C128.97 374.453 129.994 373.717 129.994 372.085V371.573L127.498 371.941C126.762 372.053 126.234 372.469 126.234 373.221C126.234 373.845 126.762 374.453 127.642 374.453ZM134.966 378.357H133.686V367.653H134.934V368.933C135.334 368.149 136.23 367.429 137.59 367.429C139.846 367.429 141.078 369.189 141.078 371.477C141.078 373.765 139.766 375.541 137.558 375.541C136.246 375.541 135.366 374.853 134.966 374.133V378.357ZM137.366 374.389C138.838 374.389 139.798 373.173 139.798 371.477C139.798 369.781 138.854 368.581 137.366 368.581C135.878 368.581 134.934 369.781 134.934 371.477C134.934 373.173 135.894 374.389 137.366 374.389ZM142.517 373.285C142.517 371.941 143.461 371.189 144.805 370.997L146.869 370.693C147.429 370.613 147.557 370.373 147.557 370.037C147.557 369.173 146.981 368.517 145.781 368.517C144.661 368.517 143.989 369.189 143.877 370.165L142.661 369.877C142.821 368.421 144.101 367.429 145.749 367.429C147.925 367.429 148.837 368.677 148.837 370.165V374.037C148.837 374.677 148.885 375.077 148.933 375.317H147.685C147.653 375.141 147.589 374.757 147.589 374.165C147.253 374.789 146.421 375.541 145.045 375.541C143.461 375.541 142.517 374.453 142.517 373.285ZM145.205 374.453C146.533 374.453 147.557 373.717 147.557 372.085V371.573L145.061 371.941C144.325 372.053 143.797 372.469 143.797 373.221C143.797 373.845 144.325 374.453 145.205 374.453ZM154.512 368.581C153.168 368.581 152 369.621 152 371.477C152 373.317 153.168 374.389 154.528 374.389C155.984 374.389 156.592 373.365 156.816 372.661L157.936 373.157C157.568 374.293 156.496 375.541 154.528 375.541C152.32 375.541 150.72 373.813 150.72 371.477C150.72 369.093 152.352 367.429 154.512 367.429C156.48 367.429 157.552 368.629 157.872 369.845L156.72 370.341C156.512 369.525 155.888 368.581 154.512 368.581ZM161.044 375.317H159.764V367.653H161.044V375.317ZM159.444 364.629C159.444 364.101 159.876 363.669 160.404 363.669C160.932 363.669 161.364 364.101 161.364 364.629C161.364 365.157 160.932 365.589 160.404 365.589C159.876 365.589 159.444 365.157 159.444 364.629ZM165.401 365.221V367.653H167.209V368.805H165.401V373.045C165.401 373.845 165.753 374.245 166.569 374.245C166.793 374.245 167.081 374.197 167.209 374.165V375.253C167.065 375.301 166.697 375.397 166.201 375.397C164.937 375.397 164.121 374.613 164.121 373.221V368.805H162.585V367.653H163.081C163.865 367.653 164.201 367.205 164.201 366.485V365.221H165.401ZM170.919 378.357H169.495L171.351 374.405L168.055 367.653H169.527L172.055 373.077L174.439 367.653H175.831L170.919 378.357ZM185.126 371.285H180.854V370.165H185.126V371.285ZM194.569 375.317H193.257V367.749H190.713V366.981C192.153 366.917 193.129 366.069 193.385 364.949H194.569V375.317ZM198.006 368.661L196.694 368.501C196.662 368.357 196.646 368.181 196.646 368.037C196.646 366.261 197.942 364.725 200.166 364.725C202.31 364.725 203.59 366.149 203.59 367.861C203.59 369.221 202.822 370.293 201.638 371.045L199.51 372.405C198.886 372.805 198.31 373.349 198.182 374.101H203.686V375.317H196.55C196.582 373.717 197.222 372.437 198.886 371.365L200.742 370.165C201.75 369.525 202.246 368.789 202.246 367.877C202.246 366.853 201.51 365.909 200.134 365.909C198.726 365.909 197.958 366.885 197.958 368.165C197.958 368.341 197.974 368.533 198.006 368.661ZM213.969 367.605V368.965C213.761 368.901 213.521 368.885 213.297 368.885C212.017 368.885 211.137 369.621 211.137 371.349V375.317H209.857V367.653H211.105V369.029C211.601 367.909 212.577 367.541 213.425 367.541C213.633 367.541 213.857 367.573 213.969 367.605ZM220.57 374.277C220.202 375.061 219.274 375.541 218.266 375.541C216.41 375.541 215.386 374.165 215.386 372.469V367.653H216.666V372.261C216.666 373.381 217.194 374.389 218.554 374.389C219.818 374.389 220.506 373.493 220.506 372.277V367.653H221.786V373.877C221.786 374.469 221.834 375.013 221.882 375.317H220.65C220.602 375.141 220.57 374.725 220.57 374.341V374.277ZM225.559 370.805V375.317H224.279V367.653H225.527V368.805C226.023 367.909 226.919 367.429 227.927 367.429C229.767 367.429 230.663 368.741 230.663 370.405V375.317H229.383V370.597C229.383 369.477 228.871 368.581 227.479 368.581C226.247 368.581 225.559 369.605 225.559 370.805ZM232.437 373.301L233.589 372.901C233.701 373.781 234.357 374.453 235.509 374.453C236.421 374.453 236.997 373.941 236.997 373.285C236.997 372.709 236.533 372.325 235.829 372.165L234.581 371.877C233.413 371.605 232.677 370.853 232.677 369.749C232.677 368.469 233.893 367.429 235.349 367.429C237.333 367.429 238.021 368.693 238.197 369.477L237.061 369.893C236.965 369.365 236.565 368.517 235.349 368.517C234.549 368.517 233.924 369.029 233.924 369.669C233.924 370.213 234.261 370.549 234.933 370.709L236.181 370.997C237.525 371.301 238.261 372.085 238.261 373.221C238.261 374.325 237.317 375.541 235.493 375.541C233.477 375.541 232.565 374.261 232.437 373.301ZM251.159 378.357H249.879V374.117C249.479 374.885 248.615 375.541 247.367 375.541C245.191 375.541 243.799 373.717 243.799 371.477C243.799 369.253 245.127 367.429 247.335 367.429C248.759 367.429 249.591 368.245 249.911 368.933V367.653H251.159V378.357ZM247.479 374.389C248.935 374.389 249.895 373.173 249.895 371.477C249.895 369.781 248.951 368.581 247.479 368.581C246.007 368.581 245.079 369.781 245.079 371.477C245.079 373.173 246.023 374.389 247.479 374.389ZM258.742 374.277C258.374 375.061 257.446 375.541 256.438 375.541C254.582 375.541 253.558 374.165 253.558 372.469V367.653H254.838V372.261C254.838 373.381 255.366 374.389 256.726 374.389C257.99 374.389 258.678 373.493 258.678 372.277V367.653H259.958V373.877C259.958 374.469 260.006 375.013 260.054 375.317H258.822C258.774 375.141 258.742 374.725 258.742 374.341V374.277ZM263.267 370.741H267.843C267.811 369.525 267.027 368.565 265.571 368.565C264.243 368.565 263.347 369.605 263.267 370.741ZM268.019 372.741L269.123 373.141C268.691 374.469 267.491 375.541 265.715 375.541C263.667 375.541 261.923 374.037 261.923 371.461C261.923 369.045 263.619 367.429 265.555 367.429C267.875 367.429 269.171 369.045 269.171 371.381C269.171 371.541 269.155 371.717 269.139 371.829H263.235V371.893C263.235 373.349 264.339 374.389 265.715 374.389C267.011 374.389 267.715 373.653 268.019 372.741ZM276.195 374.277C275.827 375.061 274.899 375.541 273.891 375.541C272.035 375.541 271.011 374.165 271.011 372.469V367.653H272.291V372.261C272.291 373.381 272.819 374.389 274.179 374.389C275.443 374.389 276.131 373.493 276.131 372.277V367.653H277.411V373.877C277.411 374.469 277.459 375.013 277.507 375.317H276.275C276.227 375.141 276.195 374.725 276.195 374.341V374.277ZM280.72 370.741H285.296C285.264 369.525 284.48 368.565 283.024 368.565C281.696 368.565 280.8 369.605 280.72 370.741ZM285.472 372.741L286.576 373.141C286.144 374.469 284.944 375.541 283.168 375.541C281.12 375.541 279.376 374.037 279.376 371.461C279.376 369.045 281.072 367.429 283.008 367.429C285.328 367.429 286.624 369.045 286.624 371.381C286.624 371.541 286.608 371.717 286.592 371.829H280.688V371.893C280.688 373.349 281.792 374.389 283.168 374.389C284.464 374.389 285.168 373.653 285.472 372.741ZM294.113 374.213V374.005C293.761 374.757 292.929 375.541 291.601 375.541C289.393 375.541 288.049 373.749 288.049 371.477C288.049 369.253 289.457 367.429 291.601 367.429C293.073 367.429 293.825 368.245 294.081 368.885V363.749H295.361V373.877C295.361 374.645 295.409 375.157 295.441 375.317H294.193C294.161 375.141 294.113 374.709 294.113 374.213ZM291.713 374.389C293.153 374.389 294.113 373.173 294.113 371.477C294.113 369.781 293.169 368.581 291.713 368.581C290.257 368.581 289.329 369.781 289.329 371.477C289.329 373.173 290.273 374.389 291.713 374.389ZM303.184 375.317H301.936V363.749H303.216V368.901C303.568 368.181 304.464 367.429 305.84 367.429C308.112 367.429 309.328 369.237 309.328 371.477C309.328 373.765 308.032 375.541 305.808 375.541C304.528 375.541 303.632 374.885 303.184 374.053V375.317ZM305.616 374.389C307.088 374.389 308.048 373.173 308.048 371.477C308.048 369.781 307.104 368.581 305.616 368.581C304.128 368.581 303.184 369.781 303.184 371.477C303.184 373.173 304.144 374.389 305.616 374.389ZM312.127 370.741H316.703C316.671 369.525 315.887 368.565 314.431 368.565C313.103 368.565 312.207 369.605 312.127 370.741ZM316.879 372.741L317.983 373.141C317.551 374.469 316.351 375.541 314.575 375.541C312.527 375.541 310.783 374.037 310.783 371.461C310.783 369.045 312.479 367.429 314.415 367.429C316.735 367.429 318.031 369.045 318.031 371.381C318.031 371.541 318.015 371.717 317.999 371.829H312.095V371.893C312.095 373.349 313.199 374.389 314.575 374.389C315.871 374.389 316.575 373.653 316.879 372.741ZM321.247 370.741V375.317H319.967V363.749H321.247V368.677C321.743 367.877 322.623 367.429 323.615 367.429C325.455 367.429 326.351 368.741 326.351 370.405V375.317H325.071V370.597C325.071 369.477 324.559 368.581 323.167 368.581C321.951 368.581 321.247 369.557 321.247 370.741ZM330.028 375.317H328.748V367.653H330.028V375.317ZM328.428 364.629C328.428 364.101 328.86 363.669 329.388 363.669C329.916 363.669 330.348 364.101 330.348 364.629C330.348 365.157 329.916 365.589 329.388 365.589C328.86 365.589 328.428 365.157 328.428 364.629ZM333.809 370.805V375.317H332.529V367.653H333.777V368.805C334.273 367.909 335.169 367.429 336.177 367.429C338.017 367.429 338.913 368.741 338.913 370.405V375.317H337.633V370.597C337.633 369.477 337.121 368.581 335.729 368.581C334.497 368.581 333.809 369.605 333.809 370.805ZM346.863 374.213V374.005C346.511 374.757 345.679 375.541 344.351 375.541C342.143 375.541 340.799 373.749 340.799 371.477C340.799 369.253 342.207 367.429 344.351 367.429C345.823 367.429 346.575 368.245 346.831 368.885V363.749H348.111V373.877C348.111 374.645 348.159 375.157 348.191 375.317H346.943C346.911 375.141 346.863 374.709 346.863 374.213ZM344.463 374.389C345.903 374.389 346.863 373.173 346.863 371.477C346.863 369.781 345.919 368.581 344.463 368.581C343.007 368.581 342.079 369.781 342.079 371.477C342.079 373.173 343.023 374.389 344.463 374.389ZM355.966 375.317H354.686V363.749H355.966V375.317ZM359.747 375.317H358.467V367.653H359.747V375.317ZM358.147 364.629C358.147 364.101 358.579 363.669 359.107 363.669C359.635 363.669 360.067 364.101 360.067 364.629C360.067 365.157 359.635 365.589 359.107 365.589C358.579 365.589 358.147 365.157 358.147 364.629ZM363.496 367.653V368.741C363.928 367.941 364.856 367.429 365.848 367.429C366.904 367.429 367.816 367.989 368.2 368.997C368.744 367.909 369.704 367.429 370.792 367.429C372.184 367.429 373.432 368.389 373.432 370.309V375.317H372.152V370.453C372.152 369.397 371.592 368.581 370.392 368.581C369.256 368.581 368.488 369.509 368.488 370.661V375.317H367.208V370.453C367.208 369.397 366.648 368.581 365.432 368.581C364.28 368.581 363.528 369.477 363.528 370.677V375.317H362.248V367.653H363.496ZM377.106 375.317H375.826V367.653H377.106V375.317ZM375.506 364.629C375.506 364.101 375.938 363.669 376.466 363.669C376.994 363.669 377.426 364.101 377.426 364.629C377.426 365.157 376.994 365.589 376.466 365.589C375.938 365.589 375.506 365.157 375.506 364.629ZM381.463 365.221V367.653H383.271V368.805H381.463V373.045C381.463 373.845 381.815 374.245 382.631 374.245C382.855 374.245 383.143 374.197 383.271 374.165V375.253C383.127 375.301 382.759 375.397 382.263 375.397C380.999 375.397 380.183 374.613 380.183 373.221V368.805H378.647V367.653H379.143C379.927 367.653 380.263 367.205 380.263 366.485V365.221H381.463Z" fill="#FEFEFE"/>
</svg>
