<svg width="618" height="414" viewBox="0 0 618 414" fill="none" xmlns="http://www.w3.org/2000/svg">
<path d="M20.9029 22H19.7095V12.9274H16.4026V11.8059H24.2099V12.9274H20.9029V22ZM26.0015 11.6046H27.1518V16.0762C27.5975 15.2711 28.4602 14.9116 29.4235 14.9116C31.1776 14.9116 32.0259 16.1913 32.0259 17.7297V22H30.8757V17.931C30.8757 16.9102 30.4444 15.99 29.1072 15.99C28.0001 15.99 27.1518 16.8095 27.1518 18.1611V22H26.0015V11.6046ZM40.8053 16.3782C40.6184 16.3207 40.3309 16.2488 39.842 16.2488C38.4186 16.2488 37.6565 17.0539 37.6565 18.6355V20.9792H39.8276V22H34.4646V20.9792H36.5063V16.1337H34.6803V15.1129H37.6278V16.4644C38.0304 15.4005 39.0368 15.0123 39.8564 15.0123C40.3596 15.0123 40.6328 15.0841 40.8053 15.1417V16.3782ZM46.1771 22.2013C44.1929 22.2013 42.7264 20.6772 42.7264 18.5493C42.7264 16.4357 44.1929 14.9116 46.1771 14.9116C48.1613 14.9116 49.6279 16.4357 49.6279 18.5493C49.6279 20.6772 48.1613 22.2013 46.1771 22.2013ZM46.1771 21.1517C47.4136 21.1517 48.4632 20.2171 48.4632 18.5493C48.4632 16.8958 47.4136 15.9612 46.1771 15.9612C44.9406 15.9612 43.891 16.8958 43.891 18.5493C43.891 20.2171 44.9406 21.1517 46.1771 21.1517ZM57.5877 15.1129V16.1625H54.9565V19.8289C54.9565 20.6341 55.4597 21.0223 56.2074 21.0223C56.6819 21.0223 57.3001 20.936 57.5877 20.8354V21.885C57.2714 22 56.7825 22.115 56.078 22.115C54.6546 22.115 53.8063 21.4105 53.8063 20.0446V16.1625H51.592V15.1129H52.7279C53.5618 15.1129 53.8781 14.6816 53.8781 13.9195V12.683H54.9565V15.1129H57.5877ZM66.2089 15.1129V16.1625H63.5777V19.8289C63.5777 20.6341 64.081 21.0223 64.8286 21.0223C65.3031 21.0223 65.9214 20.936 66.2089 20.8354V21.885C65.8926 22 65.4037 22.115 64.6992 22.115C63.2758 22.115 62.4275 21.4105 62.4275 20.0446V16.1625H60.2133V15.1129H61.3491C62.1831 15.1129 62.4994 14.6816 62.4994 13.9195V12.683H63.5777V15.1129H66.2089ZM68.8201 20.9648H71.4657V12.6399H69.1939V11.6046H72.6159V20.9648H75.2615V22H68.8201V20.9648ZM80.7627 22.2013C78.9654 22.2013 77.3407 20.8929 77.3407 18.5349C77.3407 16.3207 78.951 14.9116 80.6477 14.9116C82.6893 14.9116 83.9259 16.3207 83.9259 18.3911C83.9259 18.5349 83.9115 18.693 83.8971 18.7937H78.5197V18.8943C78.5197 20.1884 79.5693 21.1373 80.7627 21.1373C81.9273 21.1373 82.5887 20.4903 82.8619 19.6851L83.854 20.0446C83.4658 21.238 82.3586 22.2013 80.7627 22.2013ZM82.7325 17.816C82.675 16.7951 81.9273 15.9325 80.662 15.9325C79.5118 15.9325 78.6203 16.8239 78.5485 17.816H82.7325ZM86.7959 17.3703H91.7707V18.3767H86.7959V17.3703ZM98.1345 22.2013C96.1935 22.2013 95.2158 20.9504 95.0289 20.174L96.0785 19.7426C96.2798 20.4615 97.0131 21.1661 98.1633 21.1661C99.0835 21.1661 99.6155 20.7347 99.6155 20.174C99.6155 19.6708 99.2848 19.3688 98.5228 19.2107L97.1856 18.9375C95.8916 18.6787 95.3164 17.931 95.3164 17.0396C95.3164 15.8749 96.3948 14.9116 97.9189 14.9116C99.4573 14.9116 100.449 15.7024 100.766 16.7951L99.788 17.1833C99.558 16.522 98.9685 15.9181 97.9189 15.9181C97.0418 15.9181 96.4523 16.335 96.4523 16.9533C96.4523 17.399 96.7255 17.7441 97.4156 17.8735L98.724 18.1323C100.09 18.4055 100.766 19.0813 100.766 20.1165C100.766 21.0798 99.9606 22.2013 98.1345 22.2013ZM106.626 22.2013C104.829 22.2013 103.204 20.8929 103.204 18.5349C103.204 16.3207 104.815 14.9116 106.511 14.9116C108.553 14.9116 109.79 16.3207 109.79 18.3911C109.79 18.5349 109.775 18.693 109.761 18.7937H104.383V18.8943C104.383 20.1884 105.433 21.1373 106.626 21.1373C107.791 21.1373 108.452 20.4903 108.726 19.6851L109.718 20.0446C109.329 21.238 108.222 22.2013 106.626 22.2013ZM108.596 17.816C108.539 16.7951 107.791 15.9325 106.526 15.9325C105.375 15.9325 104.484 16.8239 104.412 17.816H108.596ZM112.214 15.1129H113.335V16.1194C113.767 15.2998 114.629 14.9116 115.578 14.9116C117.376 14.9116 118.238 16.1337 118.238 17.6578V22H117.088V17.8879C117.088 16.8958 116.642 15.99 115.305 15.99C114.212 15.99 113.364 16.8095 113.364 18.1323V22H112.214V15.1129ZM125.738 20.8641C125.407 21.583 124.645 22.2013 123.38 22.2013C121.425 22.2013 120.174 20.5909 120.174 18.5493C120.174 16.5507 121.496 14.9116 123.437 14.9116C124.746 14.9116 125.45 15.5299 125.709 16.1481V11.6046H126.859V20.706C126.859 21.3961 126.903 21.8562 126.931 22H125.81C125.781 21.8418 125.738 21.4536 125.738 21.0079V20.8641ZM123.553 21.1517C124.904 21.1517 125.738 20.059 125.738 18.5493C125.738 17.0396 124.918 15.9612 123.553 15.9612C122.23 15.9612 121.338 17.0396 121.338 18.5493C121.338 20.059 122.244 21.1517 123.553 21.1517ZM141.111 22.2013C139.314 22.2013 137.689 20.8929 137.689 18.5349C137.689 16.3207 139.3 14.9116 140.996 14.9116C143.038 14.9116 144.274 16.3207 144.274 18.3911C144.274 18.5349 144.26 18.693 144.246 18.7937H138.868V18.8943C138.868 20.1884 139.918 21.1373 141.111 21.1373C142.276 21.1373 142.937 20.4903 143.21 19.6851L144.203 20.0446C143.814 21.238 142.707 22.2013 141.111 22.2013ZM143.081 17.816C143.024 16.7951 142.276 15.9325 141.011 15.9325C139.86 15.9325 138.969 16.8239 138.897 17.816H143.081ZM147.144 15.9468C147.389 15.2854 147.921 14.9835 148.568 14.9835C149.215 14.9835 149.776 15.3286 149.919 16.0906C150.178 15.4005 150.739 14.9835 151.559 14.9835C152.436 14.9835 153.284 15.4005 153.284 17.0396V22H152.206V17.2121C152.206 16.3063 151.846 16.0187 151.271 16.0187C150.696 16.0187 150.221 16.4213 150.221 17.4134V22H149.157V17.2552C149.157 16.3638 148.812 16.0187 148.237 16.0187C147.648 16.0187 147.173 16.3782 147.173 17.4278V22H146.095V15.1129H147.144V15.9468ZM155.205 20.1452C155.205 18.9375 156.111 18.3048 157.333 18.1323L159.317 17.8447C159.835 17.7728 159.935 17.5428 159.935 17.2265C159.935 16.4932 159.389 15.9468 158.282 15.9468C157.204 15.9468 156.513 16.5507 156.427 17.3415L155.334 17.1115C155.478 15.8318 156.7 14.9116 158.253 14.9116C160.237 14.9116 161.071 16.0043 161.071 17.3415V20.706C161.071 21.2811 161.157 21.7843 161.215 22H160.093C160.05 21.8706 159.964 21.4105 159.964 20.9648C159.748 21.5255 158.929 22.2013 157.635 22.2013C156.053 22.2013 155.205 21.1804 155.205 20.1452ZM157.807 21.1517C158.929 21.1517 159.935 20.5047 159.935 19.1244V18.6355L157.563 18.9806C156.873 19.0813 156.355 19.4407 156.355 20.059C156.355 20.6485 156.787 21.1517 157.807 21.1517ZM163.941 20.9648H166.587V16.1481H164.243V15.1129H167.737V20.9648H170.383V22H163.941V20.9648ZM166.026 12.6974C166.026 12.0935 166.501 11.619 167.119 11.619C167.708 11.619 168.183 12.0935 168.183 12.6974C168.183 13.3013 167.708 13.7901 167.119 13.7901C166.501 13.7901 166.026 13.3013 166.026 12.6974ZM172.275 20.9648H174.92V12.6399H172.649V11.6046H176.071V20.9648H178.716V22H172.275V20.9648Z" fill="#FEFEFE"/>
<rect x="16.5" y="66.5" width="585" height="101.317" stroke="white"/>
<path d="M45.0092 115.159V112.897V102.887V100.339C44.0212 102.003 42.1232 103.381 40.1212 103.667V100.963C42.2792 100.443 44.3072 99.1427 45.4772 96.9587H47.5832V112.897V115.159H45.0092ZM59.4934 103.277V99.0127L53.5134 108.035H57.0234H59.4934V103.277ZM50.9394 110.219V107.801L58.1414 96.9587H62.0154V108.035H64.6934V110.219H62.0154V115.159H59.4934V110.219H50.9394ZM68.4273 115.159C68.4273 108.347 71.3133 103.043 75.8633 99.3507H71.9113H65.7233V96.9587H78.0733V99.7927C72.5873 104.369 71.3133 109.153 71.3133 115.159H68.4273Z" fill="#FEFEFE"/>
<path d="M83.6072 113.323L87.9112 98.7787H89.4152L85.1112 113.323H83.6072ZM93.4276 109.899C96.5476 107.979 99.1236 106.123 99.1236 103.883C99.1236 102.427 98.1956 101.675 97.0916 101.675C95.8756 101.675 94.9476 102.555 94.9476 104.139L93.3316 103.915C93.3476 101.787 94.7716 100.235 97.1076 100.235C99.4276 100.235 100.804 101.707 100.804 103.707C100.804 104.907 100.388 105.931 99.6196 106.827C98.6596 107.931 97.1716 108.987 95.1876 110.187H97.7956H100.932V111.659H93.4276V109.899ZM107.029 111.883C104.357 111.883 102.533 109.851 102.533 106.027C102.533 102.187 104.565 100.235 107.029 100.235C109.477 100.235 111.493 102.187 111.493 106.027C111.493 109.851 109.685 111.883 107.029 111.883ZM107.029 110.459C108.741 110.459 109.813 108.923 109.813 106.027C109.813 103.339 108.709 101.659 107.029 101.659C105.317 101.659 104.213 103.339 104.213 106.027C104.213 108.907 105.285 110.459 107.029 110.459ZM117.619 111.883C114.947 111.883 113.123 109.851 113.123 106.027C113.123 102.187 115.155 100.235 117.619 100.235C120.067 100.235 122.083 102.187 122.083 106.027C122.083 109.851 120.275 111.883 117.619 111.883ZM117.619 110.459C119.331 110.459 120.403 108.923 120.403 106.027C120.403 103.339 119.299 101.659 117.619 101.659C115.907 101.659 114.803 103.339 114.803 106.027C114.803 108.907 115.875 110.459 117.619 110.459Z" fill="#7C7C7C"/>
<path d="M45.8212 129.865C45.6672 129.039 44.9952 128.115 43.5812 128.115C42.4332 128.115 41.5792 128.843 41.5792 129.823C41.5792 130.621 42.0692 131.223 43.1612 131.461L44.4352 131.741C46.0312 132.091 46.9552 133.085 46.9552 134.485C46.9552 135.997 45.7372 137.355 43.7072 137.355C41.5932 137.355 40.3332 135.941 40.1512 134.541L41.2572 134.191C41.3692 135.311 42.4192 136.263 43.7632 136.263C45.0792 136.263 45.7792 135.479 45.7792 134.555C45.7792 133.729 45.2332 133.127 44.1972 132.903L42.8952 132.623C41.3832 132.301 40.4032 131.349 40.4032 129.851C40.4032 128.297 41.8032 127.037 43.5952 127.037C45.7372 127.037 46.6472 128.339 46.8992 129.487L45.8212 129.865ZM49.3017 127.233H55.0977V128.325H50.4637V131.657H54.7897V132.749H50.4637V136.067H55.0977V137.159H49.3017V127.233ZM58.2423 128.983V137.159H57.0943V127.233H58.6063L62.4703 135.045V127.233H63.6183V137.159H62.2743L58.2423 128.983ZM69.3248 137.159H68.1628V128.325H64.9428V127.233H72.5448V128.325H69.3248V137.159ZM86.1138 137.159H84.9518V128.325H81.7318V127.233H89.3338V128.325H86.1138V137.159ZM96.0344 132.651H91.8344V137.159H90.6724V127.233H91.8344V131.559H96.0344V127.233H97.1964V137.159H96.0344V132.651ZM102.917 136.151H105.185V137.159H99.4729V136.151H101.755V128.241H99.4729V127.233H105.185V128.241H102.917V136.151ZM112.977 129.865C112.823 129.039 112.151 128.115 110.737 128.115C109.589 128.115 108.735 128.843 108.735 129.823C108.735 130.621 109.225 131.223 110.317 131.461L111.591 131.741C113.187 132.091 114.111 133.085 114.111 134.485C114.111 135.997 112.893 137.355 110.863 137.355C108.749 137.355 107.489 135.941 107.307 134.541L108.413 134.191C108.525 135.311 109.575 136.263 110.919 136.263C112.235 136.263 112.935 135.479 112.935 134.555C112.935 133.729 112.389 133.127 111.353 132.903L110.051 132.623C108.539 132.301 107.559 131.349 107.559 129.851C107.559 128.297 108.959 127.037 110.751 127.037C112.893 127.037 113.803 128.339 114.055 129.487L112.977 129.865ZM130.915 127.233V137.159H129.837V128.465L128.045 137.103H126.939L125.189 128.549V137.159H124.111V127.233H125.917L127.513 135.073L129.151 127.233H130.915ZM136.495 136.151H138.763V137.159H133.051V136.151H135.333V128.241H133.051V127.233H138.763V128.241H136.495V136.151ZM142.188 128.983V137.159H141.04V127.233H142.552L146.416 135.045V127.233H147.564V137.159H146.22L142.188 128.983ZM152.696 137.355C150.764 137.355 149.42 136.333 149.42 134.303V127.233H150.582V134.191C150.582 135.507 151.408 136.249 152.696 136.249C153.984 136.249 154.81 135.507 154.81 134.191V127.233H155.972V134.303C155.972 136.333 154.628 137.355 152.696 137.355ZM161.665 137.159H160.503V128.325H157.283V127.233H164.885V128.325H161.665V137.159ZM166.825 127.233H172.621V128.325H167.987V131.657H172.313V132.749H167.987V136.067H172.621V137.159H166.825V127.233Z" fill="#FEFEFE"/>
<path d="M328.85 115.523C325.002 115.523 322.74 113.495 322.22 110.921L324.846 110.063C325.288 112.117 326.744 113.261 328.746 113.261C331.06 113.261 332.49 111.805 332.49 109.543C332.49 107.307 331.06 105.825 328.772 105.825C327.16 105.825 326.016 106.683 325.34 107.801L322.584 107.359L324.144 96.9587H334.648V99.3507H326.068L325.496 103.147L325.132 105.591C326.068 104.473 327.394 103.667 329.422 103.667C332.88 103.667 335.168 105.877 335.168 109.465C335.168 113.053 332.75 115.523 328.85 115.523ZM343.844 115.523C340.048 115.523 337.604 113.339 337.344 109.959L340.074 109.387C340.178 111.753 341.634 113.261 343.844 113.261C345.794 113.261 347.302 112.091 347.302 110.167C347.302 108.191 345.82 107.021 343.792 107.021H342.492V104.811H343.792C345.56 104.811 347.016 103.693 347.016 101.821C347.016 100.001 345.586 98.8567 343.844 98.8567C341.868 98.8567 340.646 100.209 340.464 102.107L337.786 101.665C338.02 98.8567 340.204 96.5947 343.844 96.5947C347.51 96.5947 349.642 98.6747 349.642 101.405C349.642 103.641 348.238 105.175 346.314 105.799C348.472 106.293 349.98 108.035 349.98 110.505C349.98 113.261 347.692 115.523 343.844 115.523Z" fill="#0BDD48"/>
<path d="M323.462 133.001V137.159H322.3V127.233H325.912C327.704 127.233 328.824 128.521 328.824 130.131C328.824 131.573 327.886 132.665 326.486 132.903L328.782 137.159H327.452L325.226 133.001H323.462ZM325.73 131.937C326.892 131.937 327.648 131.223 327.648 130.131C327.648 129.025 326.892 128.297 325.73 128.297H323.462V131.937H325.73ZM330.933 127.233H336.729V128.325H332.095V131.657H336.421V132.749H332.095V136.067H336.729V137.159H330.933V127.233ZM345.389 127.233V137.159H344.311V128.465L342.519 137.103H341.413L339.663 128.549V137.159H338.585V127.233H340.391L341.987 135.073L343.625 127.233H345.389ZM353.112 137.159L352.216 134.289H348.52L347.638 137.159H346.406L349.542 127.233H351.208L354.358 137.159H353.112ZM350.368 128.269L348.87 133.155H351.866L350.368 128.269ZM359.364 136.151H361.632V137.159H355.92V136.151H358.202V128.241H355.92V127.233H361.632V128.241H359.364V136.151ZM365.057 128.983V137.159H363.909V127.233H365.421L369.285 135.045V127.233H370.433V137.159H369.089L365.057 128.983ZM376.153 136.151H378.421V137.159H372.709V136.151H374.991V128.241H372.709V127.233H378.421V128.241H376.153V136.151ZM381.846 128.983V137.159H380.698V127.233H382.21L386.074 135.045V127.233H387.222V137.159H385.878L381.846 128.983ZM391.808 132.385H395.616V137.159H394.706L394.65 135.857C394.314 136.641 393.67 137.355 392.256 137.355C390.184 137.355 388.728 135.745 388.728 132.231C388.728 128.703 390.338 127.037 392.424 127.037C394.93 127.037 395.546 129.011 395.644 130.019L394.566 130.285C394.37 129.193 393.936 128.115 392.41 128.115C390.898 128.115 389.89 129.375 389.89 132.231C389.89 135.115 390.87 136.305 392.354 136.305C394.02 136.305 394.524 134.905 394.524 133.463H391.808V132.385Z" fill="#FEFEFE"/>
<path d="M18.5305 206.047V210.317H17.3372V200.123H21.0467C22.8871 200.123 24.0373 201.446 24.0373 203.099C24.0373 204.58 23.074 205.702 21.6362 205.946L23.9942 210.317H22.6283L20.3422 206.047H18.5305ZM20.8598 204.954C22.0532 204.954 22.8296 204.221 22.8296 203.099C22.8296 201.963 22.0532 201.216 20.8598 201.216H18.5305V204.954H20.8598ZM31.7384 210.317L30.8182 207.369H27.0224L26.1166 210.317H24.8513L28.072 200.123H29.783L33.018 210.317H31.7384ZM28.9203 201.187L27.3818 206.205H30.4587L28.9203 201.187ZM38.1454 210.317H36.952V201.244H33.645V200.123H41.4523V201.244H38.1454V210.317ZM43.4453 200.123H49.3978V201.244H44.6387V204.666H49.0815V205.788H44.6387V209.195H49.3978V210.317H43.4453V200.123ZM59.365 200.123H60.5152L61.3635 208.261L62.715 200.209H64.0378L65.375 208.175L66.3527 200.123H67.4742L66.137 210.317H64.7999L63.3764 201.863L62.0105 210.317H60.5008L59.365 200.123ZM72.6447 209.282H74.9739V210.317H69.1077V209.282H71.4513V201.158H69.1077V200.123H74.9739V201.158H72.6447V209.282ZM78.4909 201.92V210.317H77.3119V200.123H78.8648L82.8331 208.146V200.123H84.0121V210.317H82.6318L78.4909 201.92ZM86.192 200.123H89.2258C91.3106 200.123 92.9209 201.719 92.9209 205.241C92.9209 208.75 91.3106 210.317 89.197 210.317H86.192V200.123ZM89.0101 209.195C90.5917 209.195 91.7275 208.016 91.7275 205.241C91.7275 202.452 90.606 201.244 89.0101 201.244H87.3997V209.195H89.0101ZM97.9045 210.518C95.7334 210.518 94.1806 208.764 94.1806 205.213C94.1806 201.661 95.7334 199.922 97.9045 199.922C100.076 199.922 101.628 201.661 101.628 205.213C101.628 208.764 100.076 210.518 97.9045 210.518ZM97.9045 209.368C99.4286 209.368 100.421 208.06 100.421 205.213C100.421 202.366 99.4286 201.072 97.9045 201.072C96.3804 201.072 95.3883 202.366 95.3883 205.213C95.3883 208.06 96.3804 209.368 97.9045 209.368ZM102.471 200.123H103.621L104.47 208.261L105.821 200.209H107.144L108.481 208.175L109.459 200.123H110.58L109.243 210.317H107.906L106.483 201.863L105.117 210.317H103.607L102.471 200.123Z" fill="#FEFEFE"/>
<rect x="16" y="224.672" width="398" height="5.28935" fill="#0BDD48"/>
<path d="M479.563 226.695C479.376 226.638 479.088 226.566 478.6 226.566C477.176 226.566 476.414 227.371 476.414 228.952V231.296H478.585V232.317H473.222V231.296H475.264V226.451H473.438V225.43H476.385V226.781C476.788 225.717 477.794 225.329 478.614 225.329C479.117 225.329 479.39 225.401 479.563 225.459V226.695ZM485.035 232.518C483.238 232.518 481.613 231.21 481.613 228.852C481.613 226.638 483.224 225.229 484.92 225.229C486.962 225.229 488.198 226.638 488.198 228.708C488.198 228.852 488.184 229.01 488.17 229.111H482.792V229.211C482.792 230.505 483.842 231.454 485.035 231.454C486.2 231.454 486.861 230.807 487.134 230.002L488.127 230.361C487.738 231.555 486.631 232.518 485.035 232.518ZM487.005 228.133C486.948 227.112 486.2 226.249 484.935 226.249C483.784 226.249 482.893 227.141 482.821 228.133H487.005ZM493.786 232.518C491.845 232.518 490.867 231.267 490.68 230.491L491.73 230.06C491.931 230.778 492.664 231.483 493.815 231.483C494.735 231.483 495.267 231.052 495.267 230.491C495.267 229.988 494.936 229.686 494.174 229.528L492.837 229.254C491.543 228.996 490.968 228.248 490.968 227.356C490.968 226.192 492.046 225.229 493.57 225.229C495.109 225.229 496.101 226.019 496.417 227.112L495.439 227.5C495.209 226.839 494.62 226.235 493.57 226.235C492.693 226.235 492.104 226.652 492.104 227.27C492.104 227.716 492.377 228.061 493.067 228.19L494.375 228.449C495.741 228.722 496.417 229.398 496.417 230.433C496.417 231.397 495.612 232.518 493.786 232.518ZM502.278 232.518C500.48 232.518 498.856 231.21 498.856 228.852C498.856 226.638 500.466 225.229 502.163 225.229C504.204 225.229 505.441 226.638 505.441 228.708C505.441 228.852 505.427 229.01 505.412 229.111H500.035V229.211C500.035 230.505 501.084 231.454 502.278 231.454C503.442 231.454 504.104 230.807 504.377 230.002L505.369 230.361C504.981 231.555 503.874 232.518 502.278 232.518ZM504.248 228.133C504.19 227.112 503.442 226.249 502.177 226.249C501.027 226.249 500.135 227.141 500.064 228.133H504.248ZM513.588 225.43V226.479H510.957V230.146C510.957 230.951 511.46 231.339 512.207 231.339C512.682 231.339 513.3 231.253 513.588 231.152V232.202C513.271 232.317 512.783 232.432 512.078 232.432C510.655 232.432 509.806 231.727 509.806 230.361V226.479H507.592V225.43H508.728C509.562 225.43 509.878 224.998 509.878 224.236V223H510.957V225.43H513.588ZM519.65 232.518C517.709 232.518 516.731 231.267 516.544 230.491L517.594 230.06C517.795 230.778 518.528 231.483 519.678 231.483C520.599 231.483 521.131 231.052 521.131 230.491C521.131 229.988 520.8 229.686 520.038 229.528L518.701 229.254C517.407 228.996 516.832 228.248 516.832 227.356C516.832 226.192 517.91 225.229 519.434 225.229C520.972 225.229 521.964 226.019 522.281 227.112L521.303 227.5C521.073 226.839 520.484 226.235 519.434 226.235C518.557 226.235 517.967 226.652 517.967 227.27C517.967 227.716 518.241 228.061 518.931 228.19L520.239 228.449C521.605 228.722 522.281 229.398 522.281 230.433C522.281 231.397 521.476 232.518 519.65 232.518ZM533.729 231.282H536.374V226.465H534.031V225.43H537.525V231.282H540.17V232.317H533.729V231.282ZM535.814 223.014C535.814 222.41 536.288 221.936 536.906 221.936C537.496 221.936 537.97 222.41 537.97 223.014C537.97 223.618 537.496 224.107 536.906 224.107C536.288 224.107 535.814 223.618 535.814 223.014ZM542.35 225.43H543.472V226.436C543.903 225.617 544.766 225.229 545.715 225.229C547.512 225.229 548.375 226.451 548.375 227.975V232.317H547.224V228.205C547.224 227.213 546.779 226.307 545.441 226.307C544.349 226.307 543.5 227.126 543.5 228.449V232.317H542.35V225.43ZM562.195 231.239V225.66H559.549V224.869C561.174 224.869 562.253 224.121 562.31 223H563.374V231.239H565.761V232.317H559.736V231.239H562.195ZM571.406 226.695C572.987 226.695 574.382 227.716 574.382 229.556C574.382 231.138 573.16 232.518 571.061 232.518C569.033 232.518 567.754 231.167 567.624 229.614L568.803 229.384C568.904 230.663 569.896 231.44 571.046 231.44C572.34 231.44 573.189 230.649 573.189 229.585C573.189 228.349 572.34 227.73 571.147 227.73C570.845 227.73 570.557 227.759 570.299 227.831L569.738 226.824L572.628 224.093H567.912V223H574.181V224.078L571.406 226.695ZM579.998 232.518C578.057 232.518 577.079 231.267 576.893 230.491L577.942 230.06C578.143 230.778 578.877 231.483 580.027 231.483C580.947 231.483 581.479 231.052 581.479 230.491C581.479 229.988 581.148 229.686 580.386 229.528L579.049 229.254C577.755 228.996 577.18 228.248 577.18 227.356C577.18 226.192 578.258 225.229 579.783 225.229C581.321 225.229 582.313 226.019 582.629 227.112L581.652 227.5C581.422 226.839 580.832 226.235 579.783 226.235C578.905 226.235 578.316 226.652 578.316 227.27C578.316 227.716 578.589 228.061 579.279 228.19L580.588 228.449C581.954 228.722 582.629 229.398 582.629 230.433C582.629 231.397 581.824 232.518 579.998 232.518Z" fill="#7C7C7C"/>
<path d="M18.5305 267.547V271.817H17.3372V261.623H21.0467C22.8871 261.623 24.0373 262.946 24.0373 264.599C24.0373 266.08 23.074 267.202 21.6362 267.446L23.9942 271.817H22.6283L20.3422 267.547H18.5305ZM20.8598 266.454C22.0532 266.454 22.8296 265.721 22.8296 264.599C22.8296 263.463 22.0532 262.716 20.8598 262.716H18.5305V266.454H20.8598ZM26.2028 261.623H32.1553V262.744H27.3962V266.166H31.839V267.288H27.3962V270.695H32.1553V271.817H26.2028V261.623ZM37.8434 261.422C40.374 261.422 41.1073 263.535 41.2079 264.57L40.0289 264.786C39.842 263.679 39.2956 262.557 37.8003 262.557C36.2906 262.557 35.2123 263.895 35.2123 266.713C35.2123 269.531 36.2906 270.882 37.7716 270.882C39.31 270.882 39.8276 269.631 39.9714 268.582L41.1216 268.769C41.0354 269.804 40.2733 272.018 37.7859 272.018C35.5861 272.018 34.0045 270.207 34.0045 266.713C34.0045 263.233 35.6436 261.422 37.8434 261.422ZM43.4453 261.623H49.3978V262.744H44.6387V266.166H49.0815V267.288H44.6387V270.695H49.3978V271.817H43.4453V261.623ZM52.6273 263.42V271.817H51.4483V261.623H53.0011L56.9694 269.646V261.623H58.1484V271.817H56.7681L52.6273 263.42ZM64.0091 271.817H62.8157V262.744H59.5087V261.623H67.316V262.744H64.0091V271.817ZM77.9302 261.623H83.8827V262.744H79.1236V266.166H83.5664V267.288H79.1236V270.695H83.8827V271.817H77.9302V261.623ZM93.4098 261.623L89.959 271.817H88.6075L85.1855 261.623H86.4652L89.2833 270.379L92.1589 261.623H93.4098ZM95.1727 261.623H101.125V262.744H96.366V266.166H100.809V267.288H96.366V270.695H101.125V271.817H95.1727V261.623ZM104.355 263.42V271.817H103.176V261.623H104.728L108.697 269.646V261.623H109.876V271.817H108.496L104.355 263.42ZM115.736 271.817H114.543V262.744H111.236V261.623H119.043V262.744H115.736V271.817ZM126.083 264.326C125.925 263.478 125.235 262.529 123.783 262.529C122.604 262.529 121.726 263.276 121.726 264.283C121.726 265.102 122.23 265.721 123.351 265.965L124.66 266.253C126.299 266.612 127.248 267.633 127.248 269.071C127.248 270.624 125.997 272.018 123.912 272.018C121.741 272.018 120.447 270.566 120.26 269.128L121.396 268.769C121.511 269.919 122.589 270.897 123.969 270.897C125.321 270.897 126.04 270.092 126.04 269.143C126.04 268.294 125.479 267.676 124.415 267.446L123.078 267.158C121.525 266.828 120.519 265.85 120.519 264.312C120.519 262.716 121.957 261.422 123.797 261.422C125.997 261.422 126.931 262.759 127.19 263.938L126.083 264.326Z" fill="#FEFEFE"/>
<rect x="16" y="296.317" width="8" height="8" fill="#0BDD48"/>
<path d="M38.4141 305.518C36.6168 305.518 34.9921 304.21 34.9921 301.852C34.9921 299.638 36.6024 298.229 38.299 298.229C40.3407 298.229 41.5772 299.638 41.5772 301.708C41.5772 301.852 41.5629 302.01 41.5485 302.111H36.1711V302.211C36.1711 303.505 37.2207 304.454 38.4141 304.454C39.5787 304.454 40.2401 303.807 40.5133 303.002L41.5054 303.361C41.1171 304.555 40.01 305.518 38.4141 305.518ZM40.3839 301.133C40.3264 300.112 39.5787 299.249 38.3134 299.249C37.1632 299.249 36.2717 300.141 36.1998 301.133H40.3839ZM44.4472 299.264C44.6917 298.602 45.2237 298.3 45.8707 298.3C46.5177 298.3 47.0784 298.645 47.2222 299.408C47.481 298.717 48.0418 298.3 48.8613 298.3C49.7384 298.3 50.5867 298.717 50.5867 300.356V305.317H49.5083V300.529C49.5083 299.623 49.1489 299.336 48.5738 299.336C47.9986 299.336 47.5242 299.738 47.5242 300.73V305.317H46.4602V300.572C46.4602 299.681 46.1151 299.336 45.54 299.336C44.9505 299.336 44.476 299.695 44.476 300.745V305.317H43.3976V298.43H44.4472V299.264ZM52.5077 303.462C52.5077 302.254 53.4136 301.622 54.6357 301.449L56.6199 301.162C57.1375 301.09 57.2381 300.86 57.2381 300.543C57.2381 299.81 56.6918 299.264 55.5846 299.264C54.5063 299.264 53.8161 299.868 53.7299 300.658L52.6371 300.428C52.7809 299.149 54.0031 298.229 55.5559 298.229C57.5401 298.229 58.374 299.321 58.374 300.658V304.023C58.374 304.598 58.4603 305.101 58.5178 305.317H57.3963C57.3531 305.187 57.2669 304.727 57.2669 304.282C57.0512 304.842 56.2317 305.518 54.9376 305.518C53.356 305.518 52.5077 304.497 52.5077 303.462ZM55.1102 304.469C56.2317 304.469 57.2381 303.822 57.2381 302.441V301.952L54.8657 302.297C54.1756 302.398 53.658 302.758 53.658 303.376C53.658 303.965 54.0893 304.469 55.1102 304.469ZM61.244 304.282H63.8896V299.465H61.5459V298.43H65.0398V304.282H67.6854V305.317H61.244V304.282ZM63.3288 296.014C63.3288 295.41 63.8033 294.936 64.4215 294.936C65.011 294.936 65.4855 295.41 65.4855 296.014C65.4855 296.618 65.011 297.107 64.4215 297.107C63.8033 297.107 63.3288 296.618 63.3288 296.014ZM69.5777 304.282H72.2232V295.957H69.9515V294.922H73.3735V304.282H76.019V305.317H69.5777V304.282ZM77.365 305.317L84.2808 295.123H85.4886L78.5727 305.317H77.365ZM90.2709 305.518C88.3298 305.518 87.3521 304.267 87.1652 303.491L88.2148 303.06C88.4161 303.778 89.1494 304.483 90.2996 304.483C91.2198 304.483 91.7518 304.052 91.7518 303.491C91.7518 302.988 91.4211 302.686 90.6591 302.528L89.3219 302.254C88.0279 301.996 87.4527 301.248 87.4527 300.356C87.4527 299.192 88.5311 298.229 90.0552 298.229C91.5936 298.229 92.5857 299.019 92.902 300.112L91.9243 300.5C91.6943 299.839 91.1048 299.235 90.0552 299.235C89.1781 299.235 88.5886 299.652 88.5886 300.27C88.5886 300.716 88.8618 301.061 89.5519 301.19L90.8604 301.449C92.2263 301.722 92.902 302.398 92.902 303.433C92.902 304.397 92.0969 305.518 90.2709 305.518ZM98.7627 305.518C96.9654 305.518 95.3407 304.21 95.3407 301.852C95.3407 299.638 96.951 298.229 98.6477 298.229C100.689 298.229 101.926 299.638 101.926 301.708C101.926 301.852 101.911 302.01 101.897 302.111H96.5197V302.211C96.5197 303.505 97.5693 304.454 98.7627 304.454C99.9273 304.454 100.589 303.807 100.862 303.002L101.854 303.361C101.466 304.555 100.359 305.518 98.7627 305.518ZM100.732 301.133C100.675 300.112 99.9273 299.249 98.662 299.249C97.5118 299.249 96.6203 300.141 96.5485 301.133H100.732ZM104.35 298.43H105.472V299.436C105.903 298.617 106.766 298.229 107.715 298.229C109.512 298.229 110.375 299.451 110.375 300.975V305.317H109.224V301.205C109.224 300.213 108.779 299.307 107.441 299.307C106.349 299.307 105.5 300.126 105.5 301.449V305.317H104.35V298.43ZM117.874 304.181C117.544 304.9 116.782 305.518 115.516 305.518C113.561 305.518 112.31 303.908 112.31 301.866C112.31 299.868 113.633 298.229 115.574 298.229C116.882 298.229 117.587 298.847 117.846 299.465V294.922H118.996V304.023C118.996 304.713 119.039 305.173 119.068 305.317H117.946C117.917 305.159 117.874 304.771 117.874 304.325V304.181ZM115.689 304.469C117.04 304.469 117.874 303.376 117.874 301.866C117.874 300.356 117.055 299.278 115.689 299.278C114.366 299.278 113.475 300.356 113.475 301.866C113.475 303.376 114.38 304.469 115.689 304.469ZM123.332 304.224C123.332 303.548 123.864 303.031 124.511 303.031C125.173 303.031 125.705 303.548 125.705 304.224C125.705 304.9 125.173 305.403 124.511 305.403C123.864 305.403 123.332 304.9 123.332 304.224ZM136.396 299.695C136.209 299.638 135.922 299.566 135.433 299.566C134.01 299.566 133.248 300.371 133.248 301.952V304.296H135.419V305.317H130.056V304.296H132.097V299.451H130.271V298.43H133.219V299.781C133.621 298.717 134.628 298.329 135.447 298.329C135.951 298.329 136.224 298.401 136.396 298.459V299.695ZM141.869 305.518C140.072 305.518 138.447 304.21 138.447 301.852C138.447 299.638 140.057 298.229 141.754 298.229C143.795 298.229 145.032 299.638 145.032 301.708C145.032 301.852 145.018 302.01 145.003 302.111H139.626V302.211C139.626 303.505 140.675 304.454 141.869 304.454C143.033 304.454 143.695 303.807 143.968 303.002L144.96 303.361C144.572 304.555 143.465 305.518 141.869 305.518ZM143.839 301.133C143.781 300.112 143.033 299.249 141.768 299.249C140.618 299.249 139.726 300.141 139.655 301.133H143.839ZM152.374 304.267C152.1 304.886 151.353 305.504 150.102 305.504C148.132 305.504 146.824 303.879 146.824 301.866C146.824 299.839 148.118 298.229 150.116 298.229C151.381 298.229 152.129 298.876 152.402 299.551V298.43H153.524V308.049H152.374V304.267ZM150.217 304.483C151.568 304.483 152.402 303.39 152.402 301.866C152.402 300.342 151.568 299.264 150.217 299.264C148.88 299.264 147.988 300.342 147.988 301.866C147.988 303.39 148.88 304.483 150.217 304.483ZM160.707 304.382C160.377 305.087 159.528 305.518 158.579 305.518C156.825 305.518 155.934 304.339 155.934 302.758V298.43H157.084V302.571C157.084 303.563 157.558 304.469 158.838 304.469C160.003 304.469 160.65 303.62 160.65 302.542V298.43H161.8V303.879C161.8 304.411 161.858 305.044 161.901 305.317H160.794C160.736 305.116 160.707 304.727 160.707 304.382ZM167.733 305.518C165.935 305.518 164.311 304.21 164.311 301.852C164.311 299.638 165.921 298.229 167.617 298.229C169.659 298.229 170.896 299.638 170.896 301.708C170.896 301.852 170.881 302.01 170.867 302.111H165.49V302.211C165.49 303.505 166.539 304.454 167.733 304.454C168.897 304.454 169.559 303.807 169.832 303.002L170.824 303.361C170.436 304.555 169.328 305.518 167.733 305.518ZM169.702 301.133C169.645 300.112 168.897 299.249 167.632 299.249C166.482 299.249 165.59 300.141 165.518 301.133H169.702ZM176.483 305.518C174.542 305.518 173.564 304.267 173.377 303.491L174.427 303.06C174.628 303.778 175.362 304.483 176.512 304.483C177.432 304.483 177.964 304.052 177.964 303.491C177.964 302.988 177.633 302.686 176.871 302.528L175.534 302.254C174.24 301.996 173.665 301.248 173.665 300.356C173.665 299.192 174.743 298.229 176.267 298.229C177.806 298.229 178.798 299.019 179.114 300.112L178.137 300.5C177.907 299.839 177.317 299.235 176.267 299.235C175.39 299.235 174.801 299.652 174.801 300.27C174.801 300.716 175.074 301.061 175.764 301.19L177.073 301.449C178.439 301.722 179.114 302.398 179.114 303.433C179.114 304.397 178.309 305.518 176.483 305.518ZM187.664 298.43V299.479H185.032V303.146C185.032 303.951 185.536 304.339 186.283 304.339C186.758 304.339 187.376 304.253 187.664 304.152V305.202C187.347 305.317 186.859 305.432 186.154 305.432C184.731 305.432 183.882 304.727 183.882 303.361V299.479H181.668V298.43H182.804C183.638 298.43 183.954 297.998 183.954 297.236V296H185.032V298.43H187.664ZM193.596 305.518C191.799 305.518 190.174 304.21 190.174 301.852C190.174 299.638 191.785 298.229 193.481 298.229C195.523 298.229 196.759 299.638 196.759 301.708C196.759 301.852 196.745 302.01 196.731 302.111H191.353V302.211C191.353 303.505 192.403 304.454 193.596 304.454C194.761 304.454 195.422 303.807 195.695 303.002L196.688 303.361C196.299 304.555 195.192 305.518 193.596 305.518ZM195.566 301.133C195.508 300.112 194.761 299.249 193.496 299.249C192.345 299.249 191.454 300.141 191.382 301.133H195.566ZM204.087 304.181C203.756 304.9 202.994 305.518 201.729 305.518C199.773 305.518 198.522 303.908 198.522 301.866C198.522 299.868 199.845 298.229 201.786 298.229C203.095 298.229 203.799 298.847 204.058 299.465V294.922H205.208V304.023C205.208 304.713 205.251 305.173 205.28 305.317H204.158C204.13 305.159 204.087 304.771 204.087 304.325V304.181ZM201.901 304.469C203.253 304.469 204.087 303.376 204.087 301.866C204.087 300.356 203.267 299.278 201.901 299.278C200.578 299.278 199.687 300.356 199.687 301.866C199.687 303.376 200.593 304.469 201.901 304.469Z" fill="#FEFEFE"/>
<rect x="469" y="291.317" width="43" height="18" rx="4" fill="#212121"/>
<path d="M479.628 297.826C479.47 296.978 478.78 296.029 477.328 296.029C476.149 296.029 475.272 296.776 475.272 297.783C475.272 298.602 475.775 299.221 476.896 299.465L478.205 299.753C479.844 300.112 480.793 301.133 480.793 302.571C480.793 304.124 479.542 305.518 477.457 305.518C475.286 305.518 473.992 304.066 473.805 302.628L474.941 302.269C475.056 303.419 476.134 304.397 477.515 304.397C478.866 304.397 479.585 303.592 479.585 302.643C479.585 301.794 479.024 301.176 477.96 300.946L476.623 300.658C475.07 300.328 474.064 299.35 474.064 297.812C474.064 296.216 475.502 294.922 477.342 294.922C479.542 294.922 480.477 296.259 480.735 297.438L479.628 297.826ZM483.203 295.123H489.155V296.244H484.396V299.666H488.839V300.788H484.396V304.195H489.155V305.317H483.203V295.123ZM492.385 296.92V305.317H491.206V295.123H492.759L496.727 303.146V295.123H497.906V305.317H496.526L492.385 296.92ZM503.767 305.317H502.573V296.244H499.266V295.123H507.074V296.244H503.767V305.317Z" fill="#0BDD48"/>
<path d="M517.884 299.465V298.43H521.737V305.921C521.737 307.287 520.817 308.178 519.12 308.178C518.674 308.178 518.07 308.049 517.898 307.977V306.927C518.085 306.985 518.617 307.071 518.948 307.071C519.896 307.071 520.587 306.798 520.587 305.705V299.465H517.884ZM520.026 296.014C520.026 295.41 520.5 294.936 521.119 294.936C521.708 294.936 522.183 295.41 522.183 296.014C522.183 296.618 521.708 297.107 521.119 297.107C520.5 297.107 520.026 296.618 520.026 296.014ZM530.631 304.382C530.301 305.087 529.452 305.518 528.503 305.518C526.749 305.518 525.858 304.339 525.858 302.758V298.43H527.008V302.571C527.008 303.563 527.482 304.469 528.762 304.469C529.927 304.469 530.574 303.62 530.574 302.542V298.43H531.724V303.879C531.724 304.411 531.782 305.044 531.825 305.317H530.718C530.66 305.116 530.631 304.727 530.631 304.382ZM537.786 305.518C535.845 305.518 534.867 304.267 534.68 303.491L535.73 303.06C535.931 303.778 536.664 304.483 537.815 304.483C538.735 304.483 539.267 304.052 539.267 303.491C539.267 302.988 538.936 302.686 538.174 302.528L536.837 302.254C535.543 301.996 534.968 301.248 534.968 300.356C534.968 299.192 536.046 298.229 537.57 298.229C539.109 298.229 540.101 299.019 540.417 300.112L539.439 300.5C539.209 299.839 538.62 299.235 537.57 299.235C536.693 299.235 536.104 299.652 536.104 300.27C536.104 300.716 536.377 301.061 537.067 301.19L538.375 301.449C539.741 301.722 540.417 302.398 540.417 303.433C540.417 304.397 539.612 305.518 537.786 305.518ZM548.966 298.43V299.479H546.335V303.146C546.335 303.951 546.839 304.339 547.586 304.339C548.061 304.339 548.679 304.253 548.966 304.152V305.202C548.65 305.317 548.161 305.432 547.457 305.432C546.033 305.432 545.185 304.727 545.185 303.361V299.479H542.971V298.43H544.107C544.941 298.43 545.257 297.998 545.257 297.236V296H546.335V298.43H548.966ZM560.486 298.43H561.608V299.436C562.039 298.617 562.902 298.229 563.851 298.229C565.648 298.229 566.511 299.451 566.511 300.975V305.317H565.361V301.205C565.361 300.213 564.915 299.307 563.578 299.307C562.485 299.307 561.637 300.126 561.637 301.449V305.317H560.486V298.43ZM572.041 305.518C570.057 305.518 568.59 303.994 568.59 301.866C568.59 299.753 570.057 298.229 572.041 298.229C574.025 298.229 575.492 299.753 575.492 301.866C575.492 303.994 574.025 305.518 572.041 305.518ZM572.041 304.469C573.277 304.469 574.327 303.534 574.327 301.866C574.327 300.213 573.277 299.278 572.041 299.278C570.804 299.278 569.755 300.213 569.755 301.866C569.755 303.534 570.804 304.469 572.041 304.469ZM580.044 298.502H581.338L582.661 303.951L583.595 298.43H584.688L583.423 305.317H582.042L580.662 299.724L579.339 305.317H577.973L576.636 298.43H577.758L578.735 303.951L580.044 298.502Z" fill="#7C7C7C"/>
<rect x="16" y="342.317" width="8" height="8" fill="#0BDD48"/>
<path d="M38.4141 351.518C36.6168 351.518 34.9921 350.21 34.9921 347.852C34.9921 345.638 36.6024 344.229 38.299 344.229C40.3407 344.229 41.5772 345.638 41.5772 347.708C41.5772 347.852 41.5629 348.01 41.5485 348.111H36.1711V348.211C36.1711 349.505 37.2207 350.454 38.4141 350.454C39.5787 350.454 40.2401 349.807 40.5133 349.002L41.5054 349.361C41.1171 350.555 40.01 351.518 38.4141 351.518ZM40.3839 347.133C40.3264 346.112 39.5787 345.249 38.3134 345.249C37.1632 345.249 36.2717 346.141 36.1998 347.133H40.3839ZM44.4472 345.264C44.6917 344.602 45.2237 344.3 45.8707 344.3C46.5177 344.3 47.0784 344.645 47.2222 345.408C47.481 344.717 48.0418 344.3 48.8613 344.3C49.7384 344.3 50.5867 344.717 50.5867 346.356V351.317H49.5083V346.529C49.5083 345.623 49.1489 345.336 48.5738 345.336C47.9986 345.336 47.5242 345.738 47.5242 346.73V351.317H46.4602V346.572C46.4602 345.681 46.1151 345.336 45.54 345.336C44.9505 345.336 44.476 345.695 44.476 346.745V351.317H43.3976V344.43H44.4472V345.264ZM52.5077 349.462C52.5077 348.254 53.4136 347.622 54.6357 347.449L56.6199 347.162C57.1375 347.09 57.2381 346.86 57.2381 346.543C57.2381 345.81 56.6918 345.264 55.5846 345.264C54.5063 345.264 53.8161 345.868 53.7299 346.658L52.6371 346.428C52.7809 345.149 54.0031 344.229 55.5559 344.229C57.5401 344.229 58.374 345.321 58.374 346.658V350.023C58.374 350.598 58.4603 351.101 58.5178 351.317H57.3963C57.3531 351.187 57.2669 350.727 57.2669 350.282C57.0512 350.842 56.2317 351.518 54.9376 351.518C53.356 351.518 52.5077 350.497 52.5077 349.462ZM55.1102 350.469C56.2317 350.469 57.2381 349.822 57.2381 348.441V347.952L54.8657 348.297C54.1756 348.398 53.658 348.758 53.658 349.376C53.658 349.965 54.0893 350.469 55.1102 350.469ZM61.244 350.282H63.8896V345.465H61.5459V344.43H65.0398V350.282H67.6854V351.317H61.244V350.282ZM63.3288 342.014C63.3288 341.41 63.8033 340.936 64.4215 340.936C65.011 340.936 65.4855 341.41 65.4855 342.014C65.4855 342.618 65.011 343.107 64.4215 343.107C63.8033 343.107 63.3288 342.618 63.3288 342.014ZM69.5777 350.282H72.2232V341.957H69.9515V340.922H73.3735V350.282H76.019V351.317H69.5777V350.282ZM77.365 351.317L84.2808 341.123H85.4886L78.5727 351.317H77.365ZM90.2709 351.518C88.3298 351.518 87.3521 350.267 87.1652 349.491L88.2148 349.06C88.4161 349.778 89.1494 350.483 90.2996 350.483C91.2198 350.483 91.7518 350.052 91.7518 349.491C91.7518 348.988 91.4211 348.686 90.6591 348.528L89.3219 348.254C88.0279 347.996 87.4527 347.248 87.4527 346.356C87.4527 345.192 88.5311 344.229 90.0552 344.229C91.5936 344.229 92.5857 345.019 92.902 346.112L91.9243 346.5C91.6943 345.839 91.1048 345.235 90.0552 345.235C89.1781 345.235 88.5886 345.652 88.5886 346.27C88.5886 346.716 88.8618 347.061 89.5519 347.19L90.8604 347.449C92.2263 347.722 92.902 348.398 92.902 349.433C92.902 350.397 92.0969 351.518 90.2709 351.518ZM98.7627 351.518C96.9654 351.518 95.3407 350.21 95.3407 347.852C95.3407 345.638 96.951 344.229 98.6477 344.229C100.689 344.229 101.926 345.638 101.926 347.708C101.926 347.852 101.911 348.01 101.897 348.111H96.5197V348.211C96.5197 349.505 97.5693 350.454 98.7627 350.454C99.9273 350.454 100.589 349.807 100.862 349.002L101.854 349.361C101.466 350.555 100.359 351.518 98.7627 351.518ZM100.732 347.133C100.675 346.112 99.9273 345.249 98.662 345.249C97.5118 345.249 96.6203 346.141 96.5485 347.133H100.732ZM104.35 344.43H105.472V345.436C105.903 344.617 106.766 344.229 107.715 344.229C109.512 344.229 110.375 345.451 110.375 346.975V351.317H109.224V347.205C109.224 346.213 108.779 345.307 107.441 345.307C106.349 345.307 105.5 346.126 105.5 347.449V351.317H104.35V344.43ZM117.874 350.181C117.544 350.9 116.782 351.518 115.516 351.518C113.561 351.518 112.31 349.908 112.31 347.866C112.31 345.868 113.633 344.229 115.574 344.229C116.882 344.229 117.587 344.847 117.846 345.465V340.922H118.996V350.023C118.996 350.713 119.039 351.173 119.068 351.317H117.946C117.917 351.159 117.874 350.771 117.874 350.325V350.181ZM115.689 350.469C117.04 350.469 117.874 349.376 117.874 347.866C117.874 346.356 117.055 345.278 115.689 345.278C114.366 345.278 113.475 346.356 113.475 347.866C113.475 349.376 114.38 350.469 115.689 350.469ZM123.332 350.224C123.332 349.548 123.864 349.031 124.511 349.031C125.173 349.031 125.705 349.548 125.705 350.224C125.705 350.9 125.173 351.403 124.511 351.403C123.864 351.403 123.332 350.9 123.332 350.224ZM136.396 345.695C136.209 345.638 135.922 345.566 135.433 345.566C134.01 345.566 133.248 346.371 133.248 347.952V350.296H135.419V351.317H130.056V350.296H132.097V345.451H130.271V344.43H133.219V345.781C133.621 344.717 134.628 344.329 135.447 344.329C135.951 344.329 136.224 344.401 136.396 344.459V345.695ZM141.869 351.518C140.072 351.518 138.447 350.21 138.447 347.852C138.447 345.638 140.057 344.229 141.754 344.229C143.795 344.229 145.032 345.638 145.032 347.708C145.032 347.852 145.018 348.01 145.003 348.111H139.626V348.211C139.626 349.505 140.675 350.454 141.869 350.454C143.033 350.454 143.695 349.807 143.968 349.002L144.96 349.361C144.572 350.555 143.465 351.518 141.869 351.518ZM143.839 347.133C143.781 346.112 143.033 345.249 141.768 345.249C140.618 345.249 139.726 346.141 139.655 347.133H143.839ZM152.374 350.267C152.1 350.886 151.353 351.504 150.102 351.504C148.132 351.504 146.824 349.879 146.824 347.866C146.824 345.839 148.118 344.229 150.116 344.229C151.381 344.229 152.129 344.876 152.402 345.551V344.43H153.524V354.049H152.374V350.267ZM150.217 350.483C151.568 350.483 152.402 349.39 152.402 347.866C152.402 346.342 151.568 345.264 150.217 345.264C148.88 345.264 147.988 346.342 147.988 347.866C147.988 349.39 148.88 350.483 150.217 350.483ZM160.707 350.382C160.377 351.087 159.528 351.518 158.579 351.518C156.825 351.518 155.934 350.339 155.934 348.758V344.43H157.084V348.571C157.084 349.563 157.558 350.469 158.838 350.469C160.003 350.469 160.65 349.62 160.65 348.542V344.43H161.8V349.879C161.8 350.411 161.858 351.044 161.901 351.317H160.794C160.736 351.116 160.707 350.727 160.707 350.382ZM167.733 351.518C165.935 351.518 164.311 350.21 164.311 347.852C164.311 345.638 165.921 344.229 167.617 344.229C169.659 344.229 170.896 345.638 170.896 347.708C170.896 347.852 170.881 348.01 170.867 348.111H165.49V348.211C165.49 349.505 166.539 350.454 167.733 350.454C168.897 350.454 169.559 349.807 169.832 349.002L170.824 349.361C170.436 350.555 169.328 351.518 167.733 351.518ZM169.702 347.133C169.645 346.112 168.897 345.249 167.632 345.249C166.482 345.249 165.59 346.141 165.518 347.133H169.702ZM176.483 351.518C174.542 351.518 173.564 350.267 173.377 349.491L174.427 349.06C174.628 349.778 175.362 350.483 176.512 350.483C177.432 350.483 177.964 350.052 177.964 349.491C177.964 348.988 177.633 348.686 176.871 348.528L175.534 348.254C174.24 347.996 173.665 347.248 173.665 346.356C173.665 345.192 174.743 344.229 176.267 344.229C177.806 344.229 178.798 345.019 179.114 346.112L178.137 346.5C177.907 345.839 177.317 345.235 176.267 345.235C175.39 345.235 174.801 345.652 174.801 346.27C174.801 346.716 175.074 347.061 175.764 347.19L177.073 347.449C178.439 347.722 179.114 348.398 179.114 349.433C179.114 350.397 178.309 351.518 176.483 351.518ZM187.664 344.43V345.479H185.032V349.146C185.032 349.951 185.536 350.339 186.283 350.339C186.758 350.339 187.376 350.253 187.664 350.152V351.202C187.347 351.317 186.859 351.432 186.154 351.432C184.731 351.432 183.882 350.727 183.882 349.361V345.479H181.668V344.43H182.804C183.638 344.43 183.954 343.998 183.954 343.236V342H185.032V344.43H187.664ZM193.596 351.518C191.799 351.518 190.174 350.21 190.174 347.852C190.174 345.638 191.785 344.229 193.481 344.229C195.523 344.229 196.759 345.638 196.759 347.708C196.759 347.852 196.745 348.01 196.731 348.111H191.353V348.211C191.353 349.505 192.403 350.454 193.596 350.454C194.761 350.454 195.422 349.807 195.695 349.002L196.688 349.361C196.299 350.555 195.192 351.518 193.596 351.518ZM195.566 347.133C195.508 346.112 194.761 345.249 193.496 345.249C192.345 345.249 191.454 346.141 191.382 347.133H195.566ZM204.087 350.181C203.756 350.9 202.994 351.518 201.729 351.518C199.773 351.518 198.522 349.908 198.522 347.866C198.522 345.868 199.845 344.229 201.786 344.229C203.095 344.229 203.799 344.847 204.058 345.465V340.922H205.208V350.023C205.208 350.713 205.251 351.173 205.28 351.317H204.158C204.13 351.159 204.087 350.771 204.087 350.325V350.181ZM201.901 350.469C203.253 350.469 204.087 349.376 204.087 347.866C204.087 346.356 203.267 345.278 201.901 345.278C200.578 345.278 199.687 346.356 199.687 347.866C199.687 349.376 200.593 350.469 201.901 350.469Z" fill="#FEFEFE"/>
<rect x="486" y="337.317" width="43" height="18" rx="4" fill="#212121"/>
<path d="M496.628 343.826C496.47 342.978 495.78 342.029 494.328 342.029C493.149 342.029 492.272 342.776 492.272 343.783C492.272 344.602 492.775 345.221 493.896 345.465L495.205 345.753C496.844 346.112 497.793 347.133 497.793 348.571C497.793 350.124 496.542 351.518 494.457 351.518C492.286 351.518 490.992 350.066 490.805 348.628L491.941 348.269C492.056 349.419 493.134 350.397 494.515 350.397C495.866 350.397 496.585 349.592 496.585 348.643C496.585 347.794 496.024 347.176 494.96 346.946L493.623 346.658C492.07 346.328 491.064 345.35 491.064 343.812C491.064 342.216 492.502 340.922 494.342 340.922C496.542 340.922 497.477 342.259 497.735 343.438L496.628 343.826ZM500.203 341.123H506.155V342.244H501.396V345.666H505.839V346.788H501.396V350.195H506.155V351.317H500.203V341.123ZM509.385 342.92V351.317H508.206V341.123H509.759L513.727 349.146V341.123H514.906V351.317H513.526L509.385 342.92ZM520.767 351.317H519.573V342.244H516.266V341.123H524.074V342.244H520.767V351.317Z" fill="#0BDD48"/>
<path d="M534.265 345.192C534.237 345.062 534.222 344.904 534.222 344.775C534.222 343.179 535.459 341.799 537.457 341.799C539.384 341.799 540.534 343.078 540.534 344.617C540.534 345.839 539.772 346.802 538.708 347.478L536.796 348.7C536.235 349.06 535.717 349.548 535.602 350.224H540.62V351.317H534.136C534.165 349.879 534.74 348.729 536.235 347.766L537.903 346.687C538.809 346.098 539.326 345.451 539.326 344.631C539.326 343.711 538.665 342.863 537.428 342.863C536.163 342.863 535.401 343.74 535.401 344.89C535.401 345.048 535.416 345.221 535.444 345.336L534.265 345.192ZM546.165 351.518C544.224 351.518 543.246 350.267 543.059 349.491L544.109 349.06C544.31 349.778 545.043 350.483 546.193 350.483C547.114 350.483 547.646 350.052 547.646 349.491C547.646 348.988 547.315 348.686 546.553 348.528L545.216 348.254C543.922 347.996 543.347 347.248 543.347 346.356C543.347 345.192 544.425 344.229 545.949 344.229C547.487 344.229 548.48 345.019 548.796 346.112L547.818 346.5C547.588 345.839 546.999 345.235 545.949 345.235C545.072 345.235 544.482 345.652 544.482 346.27C544.482 346.716 544.756 347.061 545.446 347.19L546.754 347.449C548.12 347.722 548.796 348.398 548.796 349.433C548.796 350.397 547.991 351.518 546.165 351.518ZM560.129 349.462C560.129 348.254 561.035 347.622 562.257 347.449L564.241 347.162C564.759 347.09 564.859 346.86 564.859 346.543C564.859 345.81 564.313 345.264 563.206 345.264C562.128 345.264 561.437 345.868 561.351 346.658L560.258 346.428C560.402 345.149 561.624 344.229 563.177 344.229C565.161 344.229 565.995 345.321 565.995 346.658V350.023C565.995 350.598 566.081 351.101 566.139 351.317H565.018C564.974 351.187 564.888 350.727 564.888 350.282C564.672 350.842 563.853 351.518 562.559 351.518C560.977 351.518 560.129 350.497 560.129 349.462ZM562.731 350.469C563.853 350.469 564.859 349.822 564.859 348.441V347.952L562.487 348.297C561.797 348.398 561.279 348.758 561.279 349.376C561.279 349.965 561.711 350.469 562.731 350.469ZM569.541 351.504C569.685 352.352 570.447 353.157 571.597 353.157C573.15 353.157 573.725 352.18 573.725 350.842V349.692C573.423 350.368 572.675 350.929 571.54 350.929C569.714 350.929 568.434 349.491 568.434 347.593C568.434 345.681 569.699 344.229 571.568 344.229C572.719 344.229 573.466 344.732 573.739 345.408V344.43H574.875V350.943C574.875 352.525 574.084 354.221 571.583 354.221C569.944 354.221 568.592 353.172 568.419 351.777L569.541 351.504ZM573.783 347.622C573.783 346.198 572.934 345.264 571.683 345.264C570.432 345.264 569.584 346.184 569.584 347.579C569.584 348.973 570.432 349.893 571.683 349.893C572.934 349.893 573.783 348.973 573.783 347.622ZM580.42 351.518C578.435 351.518 576.969 349.994 576.969 347.866C576.969 345.753 578.435 344.229 580.42 344.229C582.404 344.229 583.87 345.753 583.87 347.866C583.87 349.994 582.404 351.518 580.42 351.518ZM580.42 350.469C581.656 350.469 582.706 349.534 582.706 347.866C582.706 346.213 581.656 345.278 580.42 345.278C579.183 345.278 578.133 346.213 578.133 347.866C578.133 349.534 579.183 350.469 580.42 350.469Z" fill="#7C7C7C"/>
<path d="M16 388.317H24V396.317H16V388.317Z" fill="#FB5536"/>
<path d="M38.4141 397.518C36.6168 397.518 34.9921 396.21 34.9921 393.852C34.9921 391.638 36.6024 390.229 38.299 390.229C40.3407 390.229 41.5772 391.638 41.5772 393.708C41.5772 393.852 41.5629 394.01 41.5485 394.111H36.1711V394.211C36.1711 395.505 37.2207 396.454 38.4141 396.454C39.5787 396.454 40.2401 395.807 40.5133 395.002L41.5054 395.361C41.1171 396.555 40.01 397.518 38.4141 397.518ZM40.3839 393.133C40.3264 392.112 39.5787 391.249 38.3134 391.249C37.1632 391.249 36.2717 392.141 36.1998 393.133H40.3839ZM44.4472 391.264C44.6917 390.602 45.2237 390.3 45.8707 390.3C46.5177 390.3 47.0784 390.645 47.2222 391.408C47.481 390.717 48.0418 390.3 48.8613 390.3C49.7384 390.3 50.5867 390.717 50.5867 392.356V397.317H49.5083V392.529C49.5083 391.623 49.1489 391.336 48.5738 391.336C47.9986 391.336 47.5242 391.738 47.5242 392.73V397.317H46.4602V392.572C46.4602 391.681 46.1151 391.336 45.54 391.336C44.9505 391.336 44.476 391.695 44.476 392.745V397.317H43.3976V390.43H44.4472V391.264ZM52.5077 395.462C52.5077 394.254 53.4136 393.622 54.6357 393.449L56.6199 393.162C57.1375 393.09 57.2381 392.86 57.2381 392.543C57.2381 391.81 56.6918 391.264 55.5846 391.264C54.5063 391.264 53.8161 391.868 53.7299 392.658L52.6371 392.428C52.7809 391.149 54.0031 390.229 55.5559 390.229C57.5401 390.229 58.374 391.321 58.374 392.658V396.023C58.374 396.598 58.4603 397.101 58.5178 397.317H57.3963C57.3531 397.187 57.2669 396.727 57.2669 396.282C57.0512 396.842 56.2317 397.518 54.9376 397.518C53.356 397.518 52.5077 396.497 52.5077 395.462ZM55.1102 396.469C56.2317 396.469 57.2381 395.822 57.2381 394.441V393.952L54.8657 394.297C54.1756 394.398 53.658 394.758 53.658 395.376C53.658 395.965 54.0893 396.469 55.1102 396.469ZM61.244 396.282H63.8896V391.465H61.5459V390.43H65.0398V396.282H67.6854V397.317H61.244V396.282ZM63.3288 388.014C63.3288 387.41 63.8033 386.936 64.4215 386.936C65.011 386.936 65.4855 387.41 65.4855 388.014C65.4855 388.618 65.011 389.107 64.4215 389.107C63.8033 389.107 63.3288 388.618 63.3288 388.014ZM69.5777 396.282H72.2232V387.957H69.9515V386.922H73.3735V396.282H76.019V397.317H69.5777V396.282ZM77.365 397.317L84.2808 387.123H85.4886L78.5727 397.317H77.365ZM90.2709 397.518C88.3298 397.518 87.3521 396.267 87.1652 395.491L88.2148 395.06C88.4161 395.778 89.1494 396.483 90.2996 396.483C91.2198 396.483 91.7518 396.052 91.7518 395.491C91.7518 394.988 91.4211 394.686 90.6591 394.528L89.3219 394.254C88.0279 393.996 87.4527 393.248 87.4527 392.356C87.4527 391.192 88.5311 390.229 90.0552 390.229C91.5936 390.229 92.5857 391.019 92.902 392.112L91.9243 392.5C91.6943 391.839 91.1048 391.235 90.0552 391.235C89.1781 391.235 88.5886 391.652 88.5886 392.27C88.5886 392.716 88.8618 393.061 89.5519 393.19L90.8604 393.449C92.2263 393.722 92.902 394.398 92.902 395.433C92.902 396.397 92.0969 397.518 90.2709 397.518ZM98.7627 397.518C96.9654 397.518 95.3407 396.21 95.3407 393.852C95.3407 391.638 96.951 390.229 98.6477 390.229C100.689 390.229 101.926 391.638 101.926 393.708C101.926 393.852 101.911 394.01 101.897 394.111H96.5197V394.211C96.5197 395.505 97.5693 396.454 98.7627 396.454C99.9273 396.454 100.589 395.807 100.862 395.002L101.854 395.361C101.466 396.555 100.359 397.518 98.7627 397.518ZM100.732 393.133C100.675 392.112 99.9273 391.249 98.662 391.249C97.5118 391.249 96.6203 392.141 96.5485 393.133H100.732ZM104.35 390.43H105.472V391.436C105.903 390.617 106.766 390.229 107.715 390.229C109.512 390.229 110.375 391.451 110.375 392.975V397.317H109.224V393.205C109.224 392.213 108.779 391.307 107.441 391.307C106.349 391.307 105.5 392.126 105.5 393.449V397.317H104.35V390.43ZM117.874 396.181C117.544 396.9 116.782 397.518 115.516 397.518C113.561 397.518 112.31 395.908 112.31 393.866C112.31 391.868 113.633 390.229 115.574 390.229C116.882 390.229 117.587 390.847 117.846 391.465V386.922H118.996V396.023C118.996 396.713 119.039 397.173 119.068 397.317H117.946C117.917 397.159 117.874 396.771 117.874 396.325V396.181ZM115.689 396.469C117.04 396.469 117.874 395.376 117.874 393.866C117.874 392.356 117.055 391.278 115.689 391.278C114.366 391.278 113.475 392.356 113.475 393.866C113.475 395.376 114.38 396.469 115.689 396.469ZM123.332 396.224C123.332 395.548 123.864 395.031 124.511 395.031C125.173 395.031 125.705 395.548 125.705 396.224C125.705 396.9 125.173 397.403 124.511 397.403C123.864 397.403 123.332 396.9 123.332 396.224ZM136.396 391.695C136.209 391.638 135.922 391.566 135.433 391.566C134.01 391.566 133.248 392.371 133.248 393.952V396.296H135.419V397.317H130.056V396.296H132.097V391.451H130.271V390.43H133.219V391.781C133.621 390.717 134.628 390.329 135.447 390.329C135.951 390.329 136.224 390.401 136.396 390.459V391.695ZM141.869 397.518C140.072 397.518 138.447 396.21 138.447 393.852C138.447 391.638 140.057 390.229 141.754 390.229C143.795 390.229 145.032 391.638 145.032 393.708C145.032 393.852 145.018 394.01 145.003 394.111H139.626V394.211C139.626 395.505 140.675 396.454 141.869 396.454C143.033 396.454 143.695 395.807 143.968 395.002L144.96 395.361C144.572 396.555 143.465 397.518 141.869 397.518ZM143.839 393.133C143.781 392.112 143.033 391.249 141.768 391.249C140.618 391.249 139.726 392.141 139.655 393.133H143.839ZM152.374 396.267C152.1 396.886 151.353 397.504 150.102 397.504C148.132 397.504 146.824 395.879 146.824 393.866C146.824 391.839 148.118 390.229 150.116 390.229C151.381 390.229 152.129 390.876 152.402 391.551V390.43H153.524V400.049H152.374V396.267ZM150.217 396.483C151.568 396.483 152.402 395.39 152.402 393.866C152.402 392.342 151.568 391.264 150.217 391.264C148.88 391.264 147.988 392.342 147.988 393.866C147.988 395.39 148.88 396.483 150.217 396.483ZM160.707 396.382C160.377 397.087 159.528 397.518 158.579 397.518C156.825 397.518 155.934 396.339 155.934 394.758V390.43H157.084V394.571C157.084 395.563 157.558 396.469 158.838 396.469C160.003 396.469 160.65 395.62 160.65 394.542V390.43H161.8V395.879C161.8 396.411 161.858 397.044 161.901 397.317H160.794C160.736 397.116 160.707 396.727 160.707 396.382ZM167.733 397.518C165.935 397.518 164.311 396.21 164.311 393.852C164.311 391.638 165.921 390.229 167.617 390.229C169.659 390.229 170.896 391.638 170.896 393.708C170.896 393.852 170.881 394.01 170.867 394.111H165.49V394.211C165.49 395.505 166.539 396.454 167.733 396.454C168.897 396.454 169.559 395.807 169.832 395.002L170.824 395.361C170.436 396.555 169.328 397.518 167.733 397.518ZM169.702 393.133C169.645 392.112 168.897 391.249 167.632 391.249C166.482 391.249 165.59 392.141 165.518 393.133H169.702ZM176.483 397.518C174.542 397.518 173.564 396.267 173.377 395.491L174.427 395.06C174.628 395.778 175.362 396.483 176.512 396.483C177.432 396.483 177.964 396.052 177.964 395.491C177.964 394.988 177.633 394.686 176.871 394.528L175.534 394.254C174.24 393.996 173.665 393.248 173.665 392.356C173.665 391.192 174.743 390.229 176.267 390.229C177.806 390.229 178.798 391.019 179.114 392.112L178.137 392.5C177.907 391.839 177.317 391.235 176.267 391.235C175.39 391.235 174.801 391.652 174.801 392.27C174.801 392.716 175.074 393.061 175.764 393.19L177.073 393.449C178.439 393.722 179.114 394.398 179.114 395.433C179.114 396.397 178.309 397.518 176.483 397.518ZM187.664 390.43V391.479H185.032V395.146C185.032 395.951 185.536 396.339 186.283 396.339C186.758 396.339 187.376 396.253 187.664 396.152V397.202C187.347 397.317 186.859 397.432 186.154 397.432C184.731 397.432 183.882 396.727 183.882 395.361V391.479H181.668V390.43H182.804C183.638 390.43 183.954 389.998 183.954 389.236V388H185.032V390.43H187.664ZM193.596 397.518C191.799 397.518 190.174 396.21 190.174 393.852C190.174 391.638 191.785 390.229 193.481 390.229C195.523 390.229 196.759 391.638 196.759 393.708C196.759 393.852 196.745 394.01 196.731 394.111H191.353V394.211C191.353 395.505 192.403 396.454 193.596 396.454C194.761 396.454 195.422 395.807 195.695 395.002L196.688 395.361C196.299 396.555 195.192 397.518 193.596 397.518ZM195.566 393.133C195.508 392.112 194.761 391.249 193.496 391.249C192.345 391.249 191.454 392.141 191.382 393.133H195.566ZM204.087 396.181C203.756 396.9 202.994 397.518 201.729 397.518C199.773 397.518 198.522 395.908 198.522 393.866C198.522 391.868 199.845 390.229 201.786 390.229C203.095 390.229 203.799 390.847 204.058 391.465V386.922H205.208V396.023C205.208 396.713 205.251 397.173 205.28 397.317H204.158C204.13 397.159 204.087 396.771 204.087 396.325V396.181ZM201.901 396.469C203.253 396.469 204.087 395.376 204.087 393.866C204.087 392.356 203.267 391.278 201.901 391.278C200.578 391.278 199.687 392.356 199.687 393.866C199.687 395.376 200.593 396.469 201.901 396.469Z" fill="#FEFEFE"/>
<rect x="469" y="383.317" width="60" height="18" rx="4" fill="#212121"/>
<path d="M480.275 398.496L479.125 396.972C478.593 397.331 477.96 397.518 477.256 397.518C475.085 397.518 473.532 395.764 473.532 392.213C473.532 388.661 475.085 386.922 477.256 386.922C479.427 386.922 480.98 388.661 480.98 392.213C480.98 393.996 480.592 395.318 479.93 396.195L481.167 397.849L480.275 398.496ZM477.256 396.368C477.702 396.368 478.09 396.253 478.435 396.037L476.652 393.665L477.529 393.003L479.183 395.203C479.556 394.513 479.772 393.535 479.772 392.213C479.772 389.366 478.78 388.072 477.256 388.072C475.732 388.072 474.74 389.366 474.74 392.213C474.74 395.06 475.732 396.368 477.256 396.368ZM485.935 397.518C483.95 397.518 482.57 396.469 482.57 394.384V387.123H483.764V394.269C483.764 395.62 484.612 396.382 485.935 396.382C487.257 396.382 488.106 395.62 488.106 394.269V387.123H489.299V394.384C489.299 396.469 487.919 397.518 485.935 397.518ZM491.824 387.123H497.777V388.244H493.017V391.666H497.46V392.788H493.017V396.195H497.777V397.317H491.824V387.123ZM503.177 397.518C501.193 397.518 499.813 396.469 499.813 394.384V387.123H501.006V394.269C501.006 395.62 501.854 396.382 503.177 396.382C504.5 396.382 505.348 395.62 505.348 394.269V387.123H506.542V394.384C506.542 396.469 505.161 397.518 503.177 397.518ZM509.067 387.123H515.019V388.244H510.26V391.666H514.703V392.788H510.26V396.195H515.019V397.317H509.067V387.123ZM517.328 387.123H520.362C522.447 387.123 524.057 388.719 524.057 392.241C524.057 395.75 522.447 397.317 520.333 397.317H517.328V387.123ZM520.146 396.195C521.728 396.195 522.864 395.016 522.864 392.241C522.864 389.452 521.742 388.244 520.146 388.244H518.536V396.195H520.146Z" fill="#FB5536"/>
<path d="M534.265 391.192C534.237 391.062 534.222 390.904 534.222 390.775C534.222 389.179 535.459 387.799 537.457 387.799C539.384 387.799 540.534 389.078 540.534 390.617C540.534 391.839 539.772 392.802 538.708 393.478L536.796 394.7C536.235 395.06 535.717 395.548 535.602 396.224H540.62V397.317H534.136C534.165 395.879 534.74 394.729 536.235 393.766L537.903 392.687C538.809 392.098 539.326 391.451 539.326 390.631C539.326 389.711 538.665 388.863 537.428 388.863C536.163 388.863 535.401 389.74 535.401 390.89C535.401 391.048 535.416 391.221 535.444 391.336L534.265 391.192ZM546.165 397.518C544.224 397.518 543.246 396.267 543.059 395.491L544.109 395.06C544.31 395.778 545.043 396.483 546.193 396.483C547.114 396.483 547.646 396.052 547.646 395.491C547.646 394.988 547.315 394.686 546.553 394.528L545.216 394.254C543.922 393.996 543.347 393.248 543.347 392.356C543.347 391.192 544.425 390.229 545.949 390.229C547.487 390.229 548.48 391.019 548.796 392.112L547.818 392.5C547.588 391.839 546.999 391.235 545.949 391.235C545.072 391.235 544.482 391.652 544.482 392.27C544.482 392.716 544.756 393.061 545.446 393.19L546.754 393.449C548.12 393.722 548.796 394.398 548.796 395.433C548.796 396.397 547.991 397.518 546.165 397.518ZM560.129 395.462C560.129 394.254 561.035 393.622 562.257 393.449L564.241 393.162C564.759 393.09 564.859 392.86 564.859 392.543C564.859 391.81 564.313 391.264 563.206 391.264C562.128 391.264 561.437 391.868 561.351 392.658L560.258 392.428C560.402 391.149 561.624 390.229 563.177 390.229C565.161 390.229 565.995 391.321 565.995 392.658V396.023C565.995 396.598 566.081 397.101 566.139 397.317H565.018C564.974 397.187 564.888 396.727 564.888 396.282C564.672 396.842 563.853 397.518 562.559 397.518C560.977 397.518 560.129 396.497 560.129 395.462ZM562.731 396.469C563.853 396.469 564.859 395.822 564.859 394.441V393.952L562.487 394.297C561.797 394.398 561.279 394.758 561.279 395.376C561.279 395.965 561.711 396.469 562.731 396.469ZM569.541 397.504C569.685 398.352 570.447 399.157 571.597 399.157C573.15 399.157 573.725 398.18 573.725 396.842V395.692C573.423 396.368 572.675 396.929 571.54 396.929C569.714 396.929 568.434 395.491 568.434 393.593C568.434 391.681 569.699 390.229 571.568 390.229C572.719 390.229 573.466 390.732 573.739 391.408V390.43H574.875V396.943C574.875 398.525 574.084 400.221 571.583 400.221C569.944 400.221 568.592 399.172 568.419 397.777L569.541 397.504ZM573.783 393.622C573.783 392.198 572.934 391.264 571.683 391.264C570.432 391.264 569.584 392.184 569.584 393.579C569.584 394.973 570.432 395.893 571.683 395.893C572.934 395.893 573.783 394.973 573.783 393.622ZM580.42 397.518C578.435 397.518 576.969 395.994 576.969 393.866C576.969 391.753 578.435 390.229 580.42 390.229C582.404 390.229 583.87 391.753 583.87 393.866C583.87 395.994 582.404 397.518 580.42 397.518ZM580.42 396.469C581.656 396.469 582.706 395.534 582.706 393.866C582.706 392.213 581.656 391.278 580.42 391.278C579.183 391.278 578.133 392.213 578.133 393.866C578.133 395.534 579.183 396.469 580.42 396.469Z" fill="#7C7C7C"/>
</svg>
