<svg width="679" height="410" viewBox="0 0 679 410" fill="none" xmlns="http://www.w3.org/2000/svg">
<path d="M0 6C0 2.68629 2.68629 0 6 0H679V409.265H5.99999C2.68628 409.265 0 406.579 0 403.265V6Z" fill="url(#paint0_linear_2_47373)"/>
<path d="M71.444 59.1587V57.9107H74.66V52.4707H71.748V51.2227H76.148V57.9107H79.22V59.1587H71.444ZM74.612 49.7507V47.9587H76.212V49.7507H74.612ZM81.4378 59.1587V51.2227H82.8938V52.5987C83.2138 51.9747 84.0298 51.0147 85.5978 51.0147C87.6138 51.0147 88.4618 52.2947 88.4618 54.0547V59.1587H86.9578V54.4067C86.9578 52.9987 86.2538 52.3107 85.1018 52.3107C83.4058 52.3107 82.9418 53.7507 82.9418 55.3027V59.1587H81.4378ZM91.0315 59.1587V51.2227H92.4875V52.5987C92.8075 51.9747 93.6235 51.0147 95.1915 51.0147C97.2075 51.0147 98.0555 52.2947 98.0555 54.0547V59.1587H96.5515V54.4067C96.5515 52.9987 95.8475 52.3107 94.6955 52.3107C92.9995 52.3107 92.5355 53.7507 92.5355 55.3027V59.1587H91.0315ZM102.097 62.2787C100.545 62.2787 99.9853 61.6067 99.9853 60.6787C99.9853 59.8787 100.545 59.3027 101.009 59.0147C100.561 58.7427 100.305 58.3587 100.305 57.7187C100.305 56.9347 100.945 56.3907 101.489 56.0387C101.025 55.6227 100.609 54.9027 100.609 53.9587C100.609 52.2787 101.953 50.9987 103.809 50.9987C105.265 50.9987 106.145 51.7827 106.513 52.4067C106.657 51.7187 107.009 51.2227 107.825 51.2227H108.641V52.4707H107.985C107.313 52.4707 107.073 52.6307 106.993 53.5427L106.961 53.9267C106.817 55.7187 105.585 56.8707 103.825 56.8707C103.281 56.8707 102.769 56.8067 102.321 56.5667C101.889 56.7427 101.617 57.0307 101.617 57.3187C101.617 57.5747 101.777 57.8307 102.321 57.8307H105.761C107.313 57.8307 108.321 58.7267 108.321 60.0547C108.321 61.5427 107.169 62.2787 105.793 62.2787H102.097ZM105.601 60.9987C106.241 60.9987 106.801 60.8227 106.801 60.0707C106.801 59.3187 106.241 59.1587 105.601 59.1587H101.889C101.633 59.3187 101.313 59.6707 101.313 60.1667C101.313 60.8067 101.745 60.9987 102.513 60.9987H105.601ZM103.809 55.6867C104.849 55.6867 105.521 54.9987 105.521 53.9427C105.521 52.9027 104.849 52.1827 103.809 52.1827C102.769 52.1827 102.097 52.9027 102.097 53.9427C102.097 54.9987 102.769 55.6867 103.809 55.6867ZM113.787 59.3827C111.483 59.3827 109.947 57.8307 109.947 55.1747C109.947 52.6467 111.531 50.9987 113.723 50.9987C116.187 50.9987 117.643 52.9507 117.371 55.5747H111.467C111.515 57.3987 112.555 58.1187 113.803 58.1187C115.051 58.1187 115.723 57.3347 116.043 56.5987L117.403 57.1107C116.843 58.4707 115.611 59.3827 113.787 59.3827ZM115.867 54.3747C115.835 52.9827 114.923 52.1987 113.723 52.1987C112.555 52.1987 111.643 52.9987 111.499 54.3747H115.867ZM123.381 59.3827C121.605 59.3827 120.037 58.5827 119.685 57.0947L121.093 56.6467C121.381 57.5907 122.165 58.1507 123.397 58.1507C124.501 58.1507 125.253 57.7507 125.253 57.0307C125.253 56.4387 124.853 56.0547 123.749 55.8787L122.533 55.6867C121.029 55.4467 120.021 54.7747 120.021 53.3827C120.021 51.9267 121.445 50.9987 123.189 50.9987C124.997 50.9987 126.149 51.8627 126.549 52.9987L125.237 53.5267C124.997 52.8067 124.341 52.1987 123.157 52.1987C122.149 52.1987 121.477 52.6307 121.477 53.2387C121.477 53.7667 121.797 54.1027 122.853 54.2627L124.069 54.4547C125.429 54.6627 126.773 55.3507 126.773 56.9027C126.773 58.4387 125.413 59.3827 123.381 59.3827ZM133.679 59.1587C132.286 59.1587 131.567 58.4707 131.567 56.9507V52.4707H128.767V51.2227H131.567V48.7427H133.071V51.2227H136.367V52.4707H133.071V56.9667C133.071 57.5907 133.327 57.8627 133.983 57.8627H136.719V59.1587H133.679ZM141.336 59.1587V56.8707H143.576V59.1587H141.336ZM288.843 61.7187C285.355 61.1427 283.979 58.1027 283.979 54.3907C283.979 50.6147 285.355 47.4307 288.843 46.9187V48.2787C286.411 48.7907 285.387 51.2067 285.387 54.3907C285.387 57.5107 286.411 59.8307 288.843 60.3747V61.7187ZM95.8315 85.5587C94.2475 85.5587 93.6875 84.8067 93.6875 83.3187V80.9987C93.6875 79.5107 93.2715 78.9827 91.7675 78.9827V77.6707C93.2715 77.6707 93.6875 77.1907 93.6875 75.7347V73.3187C93.6875 71.8307 94.2475 71.0787 95.8315 71.0787H97.0955V72.2947H96.2635C95.4795 72.2947 95.0955 72.6147 95.0955 73.5587V75.7827C95.0955 77.3507 94.4395 78.1187 93.3995 78.3107C94.4395 78.5347 95.0955 79.2867 95.0955 80.8547V83.0787C95.0955 84.0227 95.4795 84.3427 96.2635 84.3427H97.0955V85.5587H95.8315ZM109.819 107.159V105.911H113.035V100.471H110.123V99.2227H114.523V105.911H117.595V107.159H109.819ZM112.987 97.7507V95.9587H114.587V97.7507H112.987ZM122.645 107.383C120.725 107.383 119.189 105.895 119.189 103.191C119.189 100.487 120.725 98.9987 122.645 98.9987C123.989 98.9987 124.933 99.7667 125.333 100.455V99.1267V95.9587H126.837V107.159H125.365V105.927C124.949 106.631 124.021 107.383 122.645 107.383ZM123.061 106.103C124.373 106.103 125.397 105.175 125.397 103.191C125.397 101.207 124.373 100.279 123.061 100.279C121.829 100.279 120.773 101.111 120.773 103.191C120.773 105.287 121.829 106.103 123.061 106.103ZM131.743 101.511V99.2227H133.983V101.511H131.743ZM131.743 107.159V104.871H133.983V107.159H131.743ZM361.801 109.623L363.193 107.159H361.993V104.871H364.233V107.159L362.857 109.623H361.801ZM113.051 155.383C111.131 155.383 109.595 153.895 109.595 151.191C109.595 148.487 111.131 146.999 113.051 146.999C114.395 146.999 115.339 147.767 115.739 148.455V147.127V143.959H117.243V155.159H115.771V153.927C115.355 154.631 114.427 155.383 113.051 155.383ZM113.467 154.103C114.779 154.103 115.803 153.175 115.803 151.191C115.803 149.207 114.779 148.279 113.467 148.279C112.235 148.279 111.179 149.111 111.179 151.191C111.179 153.287 112.235 154.103 113.467 154.103ZM123.381 155.383C121.077 155.383 119.541 153.831 119.541 151.175C119.541 148.647 121.125 146.999 123.317 146.999C125.781 146.999 127.237 148.951 126.965 151.575H121.061C121.109 153.399 122.149 154.119 123.397 154.119C124.645 154.119 125.317 153.335 125.637 152.599L126.997 153.111C126.437 154.471 125.205 155.383 123.381 155.383ZM125.461 150.375C125.429 148.983 124.517 148.199 123.317 148.199C122.149 148.199 121.237 148.999 121.093 150.375H125.461ZM133.487 155.383C132.111 155.383 131.183 154.631 130.767 153.927V155.159H129.295V143.959H130.799V146.391V148.455C131.199 147.767 132.143 146.999 133.487 146.999C135.407 146.999 136.943 148.487 136.943 151.191C136.943 153.895 135.407 155.383 133.487 155.383ZM133.071 154.103C134.303 154.103 135.359 153.287 135.359 151.191C135.359 149.111 134.303 148.279 133.071 148.279C131.759 148.279 130.735 149.207 130.735 151.191C130.735 153.175 131.759 154.103 133.071 154.103ZM142.472 155.383C140.312 155.383 138.568 153.703 138.568 151.207C138.568 148.647 140.296 146.999 142.472 146.999C144.648 146.999 146.36 148.647 146.36 151.207C146.36 153.767 144.616 155.383 142.472 155.383ZM142.472 154.087C143.768 154.087 144.792 153.159 144.792 151.223C144.792 149.271 143.768 148.295 142.472 148.295C141.16 148.295 140.136 149.271 140.136 151.223C140.136 153.159 141.16 154.087 142.472 154.087ZM151.346 155.367C149.346 155.367 148.514 154.087 148.514 152.327V147.223H150.018V151.975C150.018 153.383 150.706 154.071 151.842 154.071C153.506 154.071 153.97 152.631 153.97 151.079V147.223H155.474V155.159H154.018V153.783C153.698 154.407 152.898 155.367 151.346 155.367ZM158.188 155.159V147.223H159.644V148.599C159.964 147.975 160.78 147.015 162.348 147.015C164.364 147.015 165.212 148.295 165.212 150.055V155.159H163.708V150.407C163.708 148.999 163.004 148.311 161.852 148.311C160.156 148.311 159.692 149.751 159.692 151.303V155.159H158.188ZM171.478 155.383C169.126 155.383 167.493 153.735 167.493 151.191C167.493 148.679 169.174 146.999 171.478 146.999C173.302 146.999 174.534 147.991 174.982 149.303L173.558 149.799C173.254 148.919 172.55 148.295 171.462 148.295C170.118 148.295 169.062 149.303 169.062 151.191C169.062 153.079 170.118 154.087 171.462 154.087C172.678 154.087 173.398 153.367 173.702 152.375L175.126 152.871C174.614 154.359 173.318 155.383 171.478 155.383ZM180.943 155.383C178.639 155.383 177.103 153.831 177.103 151.175C177.103 148.647 178.687 146.999 180.879 146.999C183.343 146.999 184.799 148.951 184.527 151.575H178.623C178.671 153.399 179.711 154.119 180.959 154.119C182.207 154.119 182.879 153.335 183.199 152.599L184.559 153.111C183.999 154.471 182.767 155.383 180.943 155.383ZM183.023 150.375C182.991 148.983 182.079 148.199 180.879 148.199C179.711 148.199 178.799 148.999 178.655 150.375H183.023ZM189.305 149.511V147.223H191.545V149.511H189.305ZM189.305 155.159V152.871H191.545V155.159H189.305ZM210.957 157.559C209.373 157.559 208.812 156.807 208.812 155.319V152.999C208.812 151.511 208.397 150.983 206.893 150.983V149.671C208.397 149.671 208.812 149.191 208.812 147.735V145.319C208.812 143.831 209.373 143.079 210.957 143.079H212.221V144.295H211.389C210.605 144.295 210.221 144.615 210.221 145.559V147.783C210.221 149.351 209.565 150.119 208.525 150.311C209.565 150.535 210.221 151.287 210.221 152.855V155.079C210.221 156.023 210.605 156.343 211.389 156.343H212.221V157.559H210.957ZM225.232 158.279V147.223H226.704V148.455C227.12 147.751 228.048 146.999 229.424 146.999C231.344 146.999 232.88 148.487 232.88 151.191C232.88 153.895 231.344 155.383 229.424 155.383C228.08 155.383 227.136 154.615 226.736 153.927V155.255V158.279H225.232ZM229.008 154.103C230.24 154.103 231.296 153.271 231.296 151.191C231.296 149.095 230.24 148.279 229.008 148.279C227.696 148.279 226.672 149.207 226.672 151.191C226.672 153.175 227.696 154.103 229.008 154.103ZM238.506 155.383C236.202 155.383 234.666 153.831 234.666 151.175C234.666 148.647 236.25 146.999 238.442 146.999C240.906 146.999 242.362 148.951 242.09 151.575H236.186C236.234 153.399 237.274 154.119 238.522 154.119C239.77 154.119 240.442 153.335 240.762 152.599L242.122 153.111C241.562 154.471 240.33 155.383 238.506 155.383ZM240.586 150.375C240.554 148.983 239.642 148.199 238.442 148.199C237.274 148.199 236.362 148.999 236.218 150.375H240.586ZM245.012 155.159V147.223H246.516V149.175C246.932 148.039 247.956 147.127 249.844 147.127C250.58 147.127 251.188 147.239 251.588 147.367V148.823C251.06 148.663 250.452 148.567 249.844 148.567C247.588 148.567 246.516 149.623 246.516 151.863V155.159H245.012ZM253.725 155.159V153.911H256.941V148.471H254.029V147.223H258.429V153.911H261.501V155.159H253.725ZM256.893 145.751V143.959H258.493V145.751H256.893ZM267.191 155.383C265.031 155.383 263.287 153.703 263.287 151.207C263.287 148.647 265.015 146.999 267.191 146.999C269.367 146.999 271.079 148.647 271.079 151.207C271.079 153.767 269.335 155.383 267.191 155.383ZM267.191 154.087C268.487 154.087 269.511 153.159 269.511 151.223C269.511 149.271 268.487 148.295 267.191 148.295C265.879 148.295 264.855 149.271 264.855 151.223C264.855 153.159 265.879 154.087 267.191 154.087ZM276.145 155.383C274.225 155.383 272.689 153.895 272.689 151.191C272.689 148.487 274.225 146.999 276.145 146.999C277.489 146.999 278.433 147.767 278.833 148.455V147.127V143.959H280.337V155.159H278.865V153.927C278.449 154.631 277.521 155.383 276.145 155.383ZM276.561 154.103C277.873 154.103 278.897 153.175 278.897 151.191C278.897 149.207 277.873 148.279 276.561 148.279C275.329 148.279 274.273 149.111 274.273 151.191C274.273 153.287 275.329 154.103 276.561 154.103ZM285.243 149.511V147.223H287.483V149.511H285.243ZM285.243 155.159V152.871H287.483V155.159H285.243ZM342.613 157.623L344.005 155.159H342.805V152.871H345.045V155.159L343.669 157.623H342.613ZM359.785 155.159V143.959H361.289V148.743V151.175L365.401 147.223H367.385L363.817 150.519L367.673 155.159H365.737L362.761 151.511L361.289 152.855V155.159H359.785ZM372.818 155.383C370.514 155.383 368.978 153.831 368.978 151.175C368.978 148.647 370.562 146.999 372.754 146.999C375.218 146.999 376.674 148.951 376.402 151.575H370.498C370.546 153.399 371.586 154.119 372.834 154.119C374.082 154.119 374.754 153.335 375.074 152.599L376.434 153.111C375.874 154.471 374.642 155.383 372.818 155.383ZM374.898 150.375C374.866 148.983 373.954 148.199 372.754 148.199C371.586 148.199 370.674 148.999 370.53 150.375H374.898ZM378.524 158.279V156.951H380.204C380.972 156.951 381.324 156.679 381.676 155.799L381.948 155.143L378.076 147.223H379.756L381.612 151.159L382.636 153.335L383.452 151.127L384.94 147.223H386.54L382.908 156.455C382.38 157.783 381.708 158.279 380.364 158.279H378.524ZM390.774 149.511V147.223H393.014V149.511H390.774ZM390.774 155.159V152.871H393.014V155.159H390.774ZM592.019 143.079C593.603 143.079 594.163 143.831 594.163 145.319V147.639C594.163 149.127 594.579 149.655 596.083 149.655V150.967C594.579 150.967 594.163 151.447 594.163 152.903V155.319C594.163 156.807 593.603 157.559 592.019 157.559H590.755V156.343H591.587C592.371 156.343 592.755 156.023 592.755 155.079V152.855C592.755 151.287 593.411 150.519 594.451 150.327C593.411 150.103 592.755 149.351 592.755 147.783V145.559C592.755 144.615 592.371 144.295 591.587 144.295H590.755V143.079H592.019ZM601.644 157.623L603.036 155.159H601.836V152.871H604.076V155.159L602.7 157.623H601.644ZM93.1435 167.079C94.7275 167.079 95.2875 167.831 95.2875 169.319V171.639C95.2875 173.127 95.7035 173.655 97.2075 173.655V174.967C95.7035 174.967 95.2875 175.447 95.2875 176.903V179.319C95.2875 180.807 94.7275 181.559 93.1435 181.559H91.8795V180.343H92.7115C93.4955 180.343 93.8795 180.023 93.8795 179.079V176.855C93.8795 175.287 94.5355 174.519 95.5755 174.327C94.5355 174.103 93.8795 173.351 93.8795 171.783V169.559C93.8795 168.615 93.4955 168.295 92.7115 168.295H91.8795V167.079H93.1435ZM102.769 181.623L104.161 179.159H102.961V176.871H105.201V179.159L103.825 181.623H102.769ZM95.8315 205.559C94.2475 205.559 93.6875 204.807 93.6875 203.319V200.999C93.6875 199.511 93.2715 198.983 91.7675 198.983V197.671C93.2715 197.671 93.6875 197.191 93.6875 195.735V193.319C93.6875 191.831 94.2475 191.079 95.8315 191.079H97.0955V192.295H96.2635C95.4795 192.295 95.0955 192.615 95.0955 193.559V195.783C95.0955 197.351 94.4395 198.119 93.3995 198.311C94.4395 198.535 95.0955 199.287 95.0955 200.855V203.079C95.0955 204.023 95.4795 204.343 96.2635 204.343H97.0955V205.559H95.8315ZM113.787 203.383C111.483 203.383 109.947 201.831 109.947 199.175C109.947 196.647 111.531 194.999 113.723 194.999C116.187 194.999 117.643 196.951 117.371 199.575H111.467C111.515 201.399 112.555 202.119 113.803 202.119C115.051 202.119 115.723 201.335 116.043 200.599L117.403 201.111C116.843 202.471 115.611 203.383 113.787 203.383ZM115.867 198.375C115.835 196.983 114.923 196.199 113.723 196.199C112.555 196.199 111.643 196.999 111.499 198.375H115.867ZM122.421 203.159L119.077 195.223H120.709L122.389 199.415L123.349 201.815L124.277 199.415L125.877 195.223H127.461L124.277 203.159H122.421ZM132.975 203.383C130.671 203.383 129.135 201.831 129.135 199.175C129.135 196.647 130.719 194.999 132.911 194.999C135.375 194.999 136.831 196.951 136.559 199.575H130.655C130.703 201.399 131.743 202.119 132.991 202.119C134.239 202.119 134.911 201.335 135.231 200.599L136.591 201.111C136.031 202.471 134.799 203.383 132.975 203.383ZM135.055 198.375C135.023 196.983 134.111 196.199 132.911 196.199C131.743 196.199 130.831 196.999 130.687 198.375H135.055ZM139 203.159V195.223H140.456V196.599C140.776 195.975 141.592 195.015 143.16 195.015C145.176 195.015 146.024 196.295 146.024 198.055V203.159H144.52V198.407C144.52 196.999 143.816 196.311 142.664 196.311C140.968 196.311 140.504 197.751 140.504 199.303V203.159H139ZM152.866 203.159C151.474 203.159 150.754 202.471 150.754 200.951V196.471H147.954V195.223H150.754V192.743H152.258V195.223H155.554V196.471H152.258V200.967C152.258 201.591 152.514 201.863 153.17 201.863H155.906V203.159H152.866ZM160.524 197.511V195.223H162.764V197.511H160.524ZM160.524 203.159V200.871H162.764V203.159H160.524ZM352.175 191.079C353.759 191.079 354.319 191.831 354.319 193.319V195.639C354.319 197.127 354.735 197.655 356.239 197.655V198.967C354.735 198.967 354.319 199.447 354.319 200.903V203.319C354.319 204.807 353.759 205.559 352.175 205.559H350.911V204.343H351.743C352.527 204.343 352.911 204.023 352.911 203.079V200.855C352.911 199.287 353.567 198.519 354.607 198.327C353.567 198.103 352.911 197.351 352.911 195.783V193.559C352.911 192.615 352.527 192.295 351.743 192.295H350.911V191.079H352.175ZM361.801 205.623L363.193 203.159H361.993V200.871H364.233V203.159L362.857 205.623H361.801ZM154.53 229.719C151.042 229.143 149.666 226.103 149.666 222.391C149.666 218.615 151.042 215.431 154.53 214.919V216.279C152.098 216.791 151.074 219.207 151.074 222.391C151.074 225.511 152.098 227.831 154.53 228.375V229.719ZM162.988 229.559C161.404 229.559 160.844 228.807 160.844 227.319V224.999C160.844 223.511 160.428 222.983 158.924 222.983V221.671C160.428 221.671 160.844 221.191 160.844 219.735V217.319C160.844 215.831 161.404 215.079 162.988 215.079H164.252V216.295H163.42C162.636 216.295 162.252 216.615 162.252 217.559V219.783C162.252 221.351 161.596 222.119 160.556 222.311C161.596 222.535 162.252 223.287 162.252 224.855V227.079C162.252 228.023 162.636 228.343 163.42 228.343H164.252V229.559H162.988ZM227.488 229.623L228.88 227.159H227.68V224.871H229.92V227.159L228.544 229.623H227.488ZM294.612 215.079C296.196 215.079 296.756 215.831 296.756 217.319V219.639C296.756 221.127 297.172 221.655 298.676 221.655V222.967C297.172 222.967 296.756 223.447 296.756 224.903V227.319C296.756 228.807 296.196 229.559 294.612 229.559H293.348V228.343H294.18C294.964 228.343 295.348 228.023 295.348 227.079V224.855C295.348 223.287 296.004 222.519 297.044 222.327C296.004 222.103 295.348 221.351 295.348 219.783V217.559C295.348 216.615 294.964 216.295 294.18 216.295H293.348V215.079H294.612ZM303.07 214.919C306.558 215.495 307.934 218.535 307.934 222.247C307.934 226.023 306.558 229.207 303.07 229.719V228.359C305.502 227.847 306.526 225.431 306.526 222.247C306.526 219.127 305.502 216.807 303.07 216.263V214.919ZM354.863 229.559C353.279 229.559 352.719 228.807 352.719 227.319V224.999C352.719 223.511 352.303 222.983 350.799 222.983V221.671C352.303 221.671 352.719 221.191 352.719 219.735V217.319C352.719 215.831 353.279 215.079 354.863 215.079H356.127V216.295H355.295C354.511 216.295 354.127 216.615 354.127 217.559V219.783C354.127 221.351 353.471 222.119 352.431 222.311C353.471 222.535 354.127 223.287 354.127 224.855V227.079C354.127 228.023 354.511 228.343 355.295 228.343H356.127V229.559H354.863ZM93.1435 263.079C94.7275 263.079 95.2875 263.831 95.2875 265.319V267.639C95.2875 269.127 95.7035 269.655 97.2075 269.655V270.967C95.7035 270.967 95.2875 271.447 95.2875 272.903V275.319C95.2875 276.807 94.7275 277.559 93.1435 277.559H91.8795V276.343H92.7115C93.4955 276.343 93.8795 276.023 93.8795 275.079V272.855C93.8795 271.287 94.5355 270.519 95.5755 270.327C94.5355 270.103 93.8795 269.351 93.8795 267.783V265.559C93.8795 264.615 93.4955 264.295 92.7115 264.295H91.8795V263.079H93.1435ZM102.769 277.623L104.161 275.159H102.961V272.871H105.201V275.159L103.825 277.623H102.769ZM72.82 286.919C76.308 287.495 77.684 290.535 77.684 294.247C77.684 298.023 76.308 301.207 72.82 301.719V300.359C75.252 299.847 76.276 297.431 76.276 294.247C76.276 291.127 75.252 288.807 72.82 288.263V286.919ZM83.5818 301.623L84.9738 299.159H83.7738V296.871H86.0138V299.159L84.6378 301.623H83.5818ZM83.7738 293.511V291.223H86.0138V293.511H83.7738Z" fill="#E1E4E8"/>
<path d="M152.29 59.3827C149.938 59.3827 148.306 57.7347 148.306 55.1907C148.306 52.6787 149.986 50.9987 152.29 50.9987C154.114 50.9987 155.346 51.9907 155.794 53.3027L154.37 53.7987C154.066 52.9187 153.362 52.2947 152.274 52.2947C150.93 52.2947 149.874 53.3027 149.874 55.1907C149.874 57.0787 150.93 58.0867 152.274 58.0867C153.49 58.0867 154.21 57.3667 154.514 56.3747L155.938 56.8707C155.426 58.3587 154.13 59.3827 152.29 59.3827ZM158.668 59.1587V51.2227H160.172V53.1747C160.588 52.0387 161.612 51.1267 163.5 51.1267C164.236 51.1267 164.844 51.2387 165.244 51.3667V52.8227C164.716 52.6627 164.108 52.5667 163.5 52.5667C161.244 52.5667 160.172 53.6227 160.172 55.8627V59.1587H158.668ZM171.35 59.3827C169.046 59.3827 167.51 57.8307 167.51 55.1747C167.51 52.6467 169.094 50.9987 171.286 50.9987C173.75 50.9987 175.206 52.9507 174.934 55.5747H169.03C169.078 57.3987 170.118 58.1187 171.366 58.1187C172.614 58.1187 173.286 57.3347 173.606 56.5987L174.966 57.1107C174.406 58.4707 173.174 59.3827 171.35 59.3827ZM173.43 54.3747C173.398 52.9827 172.486 52.1987 171.286 52.1987C170.118 52.1987 169.206 52.9987 169.062 54.3747H173.43ZM182.303 53.7347C182.303 52.8227 181.807 52.2627 180.639 52.2627C179.247 52.2627 178.799 53.0787 178.591 53.6867L177.151 53.2227C177.407 52.1347 178.543 50.9987 180.639 50.9987C182.783 50.9987 183.807 52.0707 183.807 53.7827V57.4147C183.807 57.7827 183.903 57.8787 184.271 57.8787H185.087V59.1587H183.935C182.783 59.1587 182.559 58.6307 182.463 57.9587C181.903 58.8227 181.135 59.3827 179.871 59.3827C178.319 59.3827 177.311 58.5187 177.311 57.1107C177.311 54.9187 179.743 54.1827 182.303 53.9747V53.7347ZM178.863 56.9827C178.863 57.7027 179.327 58.1507 180.271 58.1507C181.279 58.1507 182.303 57.4627 182.303 55.8787V55.0627C180.447 55.2547 178.863 55.7187 178.863 56.9827ZM191.241 59.1587C189.849 59.1587 189.129 58.4707 189.129 56.9507V52.4707H186.329V51.2227H189.129V48.7427H190.633V51.2227H193.929V52.4707H190.633V56.9667C190.633 57.5907 190.889 57.8627 191.545 57.8627H194.281V59.1587H191.241ZM200.131 59.3827C197.827 59.3827 196.291 57.8307 196.291 55.1747C196.291 52.6467 197.875 50.9987 200.067 50.9987C202.531 50.9987 203.987 52.9507 203.715 55.5747H197.811C197.859 57.3987 198.899 58.1187 200.147 58.1187C201.395 58.1187 202.067 57.3347 202.387 56.5987L203.747 57.1107C203.187 58.4707 201.955 59.3827 200.131 59.3827ZM202.211 54.3747C202.179 52.9827 201.267 52.1987 200.067 52.1987C198.899 52.1987 197.987 52.9987 197.843 54.3747H202.211ZM206.157 59.1587V47.9587H213.725V49.3507H207.661V52.9987H212.317V54.3907H207.661V59.1587H206.157ZM218.502 59.3667C216.502 59.3667 215.67 58.0867 215.67 56.3267V51.2227H217.174V55.9747C217.174 57.3827 217.862 58.0707 218.998 58.0707C220.662 58.0707 221.126 56.6307 221.126 55.0787V51.2227H222.63V59.1587H221.174V57.7827C220.854 58.4067 220.054 59.3667 218.502 59.3667ZM225.344 59.1587V51.2227H226.8V52.5987C227.12 51.9747 227.936 51.0147 229.504 51.0147C231.52 51.0147 232.368 52.2947 232.368 54.0547V59.1587H230.864V54.4067C230.864 52.9987 230.16 52.3107 229.008 52.3107C227.312 52.3107 226.848 53.7507 226.848 55.3027V59.1587H225.344ZM238.634 59.3827C236.282 59.3827 234.65 57.7347 234.65 55.1907C234.65 52.6787 236.33 50.9987 238.634 50.9987C240.458 50.9987 241.69 51.9907 242.138 53.3027L240.714 53.7987C240.41 52.9187 239.706 52.2947 238.618 52.2947C237.274 52.2947 236.218 53.3027 236.218 55.1907C236.218 57.0787 237.274 58.0867 238.618 58.0867C239.834 58.0867 240.554 57.3667 240.858 56.3747L242.282 56.8707C241.77 58.3587 240.474 59.3827 238.634 59.3827ZM248.804 59.1587C247.411 59.1587 246.692 58.4707 246.692 56.9507V52.4707H243.892V51.2227H246.692V48.7427H248.196V51.2227H251.492V52.4707H248.196V56.9667C248.196 57.5907 248.452 57.8627 249.108 57.8627H251.844V59.1587H248.804ZM253.725 59.1587V57.9107H256.941V52.4707H254.029V51.2227H258.429V57.9107H261.501V59.1587H253.725ZM256.893 49.7507V47.9587H258.493V49.7507H256.893ZM267.191 59.3827C265.031 59.3827 263.287 57.7027 263.287 55.2067C263.287 52.6467 265.015 50.9987 267.191 50.9987C269.367 50.9987 271.079 52.6467 271.079 55.2067C271.079 57.7667 269.335 59.3827 267.191 59.3827ZM267.191 58.0867C268.487 58.0867 269.511 57.1587 269.511 55.2227C269.511 53.2707 268.487 52.2947 267.191 52.2947C265.879 52.2947 264.855 53.2707 264.855 55.2227C264.855 57.1587 265.879 58.0867 267.191 58.0867ZM273.313 59.1587V51.2227H274.769V52.5987C275.089 51.9747 275.905 51.0147 277.473 51.0147C279.489 51.0147 280.337 52.2947 280.337 54.0547V59.1587H278.833V54.4067C278.833 52.9987 278.129 52.3107 276.977 52.3107C275.281 52.3107 274.817 53.7507 274.817 55.3027V59.1587H273.313Z" fill="#FD8A72"/>
<path d="M151.65 100.711L151.25 97.4627V95.9587H152.85V97.4627L152.45 100.711H151.65ZM158.668 107.159V99.2227H160.172V101.175C160.588 100.039 161.612 99.1267 163.5 99.1267C164.236 99.1267 164.844 99.2387 165.244 99.3667V100.823C164.716 100.663 164.108 100.567 163.5 100.567C161.244 100.567 160.172 101.623 160.172 103.863V107.159H158.668ZM171.35 107.383C169.046 107.383 167.51 105.831 167.51 103.175C167.51 100.647 169.094 98.9987 171.286 98.9987C173.75 98.9987 175.206 100.951 174.934 103.575H169.03C169.078 105.399 170.118 106.119 171.366 106.119C172.614 106.119 173.286 105.335 173.606 104.599L174.966 105.111C174.406 106.471 173.174 107.383 171.35 107.383ZM173.43 102.375C173.398 100.983 172.486 100.199 171.286 100.199C170.118 100.199 169.206 100.999 169.062 102.375H173.43ZM181.455 107.383C180.079 107.383 179.151 106.631 178.735 105.927V107.159H177.263V95.9587H178.767V98.3907V100.455C179.167 99.7667 180.111 98.9987 181.455 98.9987C183.375 98.9987 184.911 100.487 184.911 103.191C184.911 105.895 183.375 107.383 181.455 107.383ZM181.039 106.103C182.271 106.103 183.327 105.287 183.327 103.191C183.327 101.111 182.271 100.279 181.039 100.279C179.727 100.279 178.703 101.207 178.703 103.191C178.703 105.175 179.727 106.103 181.039 106.103ZM189.721 107.367C187.721 107.367 186.889 106.087 186.889 104.327V99.2227H188.393V103.975C188.393 105.383 189.081 106.071 190.217 106.071C191.881 106.071 192.345 104.631 192.345 103.079V99.2227H193.849V107.159H192.393V105.783C192.073 106.407 191.273 107.367 189.721 107.367ZM196.163 107.159V105.911H199.379V100.471H196.467V99.2227H200.867V105.911H203.939V107.159H196.163ZM199.331 97.7507V95.9587H200.931V97.7507H199.331ZM205.757 107.159V105.911H208.893V97.2067H206.061V95.9587H210.381V105.911H213.533V107.159H205.757ZM218.582 107.383C216.662 107.383 215.126 105.895 215.126 103.191C215.126 100.487 216.662 98.9987 218.582 98.9987C219.926 98.9987 220.87 99.7667 221.27 100.455V99.1267V95.9587H222.774V107.159H221.302V105.927C220.886 106.631 219.958 107.383 218.582 107.383ZM218.998 106.103C220.31 106.103 221.334 105.175 221.334 103.191C221.334 101.207 220.31 100.279 218.998 100.279C217.766 100.279 216.71 101.111 216.71 103.191C216.71 105.287 217.766 106.103 218.998 106.103ZM226.336 102.967V101.415H231.264V102.967H226.336ZM238.506 107.383C236.73 107.383 235.162 106.583 234.81 105.095L236.218 104.647C236.506 105.591 237.29 106.151 238.522 106.151C239.626 106.151 240.378 105.751 240.378 105.031C240.378 104.439 239.978 104.055 238.874 103.879L237.658 103.687C236.154 103.447 235.146 102.775 235.146 101.383C235.146 99.9267 236.57 98.9987 238.314 98.9987C240.122 98.9987 241.274 99.8627 241.674 100.999L240.362 101.527C240.122 100.807 239.466 100.199 238.282 100.199C237.274 100.199 236.602 100.631 236.602 101.239C236.602 101.767 236.922 102.103 237.978 102.263L239.194 102.455C240.554 102.663 241.898 103.351 241.898 104.903C241.898 106.439 240.538 107.383 238.506 107.383ZM248.1 107.383C245.796 107.383 244.26 105.831 244.26 103.175C244.26 100.647 245.844 98.9987 248.036 98.9987C250.5 98.9987 251.956 100.951 251.684 103.575H245.78C245.828 105.399 246.868 106.119 248.116 106.119C249.364 106.119 250.036 105.335 250.356 104.599L251.716 105.111C251.156 106.471 249.924 107.383 248.1 107.383ZM250.18 102.375C250.148 100.983 249.236 100.199 248.036 100.199C246.868 100.199 245.956 100.999 245.812 102.375H250.18ZM259.053 101.735C259.053 100.823 258.557 100.263 257.389 100.263C255.997 100.263 255.549 101.079 255.341 101.687L253.901 101.223C254.157 100.135 255.293 98.9987 257.389 98.9987C259.533 98.9987 260.557 100.071 260.557 101.783V105.415C260.557 105.783 260.653 105.879 261.021 105.879H261.837V107.159H260.685C259.533 107.159 259.309 106.631 259.213 105.959C258.653 106.823 257.885 107.383 256.621 107.383C255.069 107.383 254.061 106.519 254.061 105.111C254.061 102.919 256.493 102.183 259.053 101.975V101.735ZM255.613 104.983C255.613 105.703 256.077 106.151 257.021 106.151C258.029 106.151 259.053 105.463 259.053 103.879V103.063C257.197 103.255 255.613 103.719 255.613 104.983ZM264.199 107.159V99.2227H265.703V101.175C266.119 100.039 267.143 99.1267 269.031 99.1267C269.767 99.1267 270.375 99.2387 270.775 99.3667V100.823C270.247 100.663 269.639 100.567 269.031 100.567C266.775 100.567 265.703 101.623 265.703 103.863V107.159H264.199ZM277.009 107.383C274.657 107.383 273.025 105.735 273.025 103.191C273.025 100.679 274.705 98.9987 277.009 98.9987C278.833 98.9987 280.065 99.9907 280.513 101.303L279.089 101.799C278.785 100.919 278.081 100.295 276.993 100.295C275.649 100.295 274.593 101.303 274.593 103.191C274.593 105.079 275.649 106.087 276.993 106.087C278.209 106.087 278.929 105.367 279.233 104.375L280.657 104.871C280.145 106.359 278.849 107.383 277.009 107.383ZM282.907 107.159V95.9587H284.395V98.3587V100.583C284.683 99.9587 285.499 99.0147 287.067 99.0147C289.083 99.0147 289.931 100.295 289.931 102.055V107.159H288.427V102.407C288.427 100.999 287.723 100.311 286.571 100.311C284.875 100.311 284.411 101.751 284.411 103.303V107.159H282.907ZM293.492 102.967V101.415H298.42V102.967H293.492ZM301.694 107.159V105.911H304.91V100.471H301.998V99.2227H306.398V105.911H309.47V107.159H301.694ZM304.862 97.7507V95.9587H306.462V97.7507H304.862ZM311.688 107.159V99.2227H313.144V100.599C313.464 99.9747 314.28 99.0147 315.848 99.0147C317.864 99.0147 318.712 100.295 318.712 102.055V107.159H317.208V102.407C317.208 100.999 316.504 100.311 315.352 100.311C313.656 100.311 313.192 101.751 313.192 103.303V107.159H311.688ZM324.114 107.383C322.194 107.383 320.658 105.895 320.658 103.191C320.658 100.487 322.194 98.9987 324.114 98.9987C325.458 98.9987 326.402 99.7667 326.802 100.455V99.1267V95.9587H328.306V107.159H326.834V105.927C326.418 106.631 325.49 107.383 324.114 107.383ZM324.53 106.103C325.842 106.103 326.866 105.175 326.866 103.191C326.866 101.207 325.842 100.279 324.53 100.279C323.298 100.279 322.242 101.111 322.242 103.191C322.242 105.287 323.298 106.103 324.53 106.103ZM334.443 107.383C332.139 107.383 330.603 105.831 330.603 103.175C330.603 100.647 332.187 98.9987 334.379 98.9987C336.843 98.9987 338.299 100.951 338.027 103.575H332.123C332.171 105.399 333.211 106.119 334.459 106.119C335.707 106.119 336.379 105.335 336.699 104.599L338.059 105.111C337.499 106.471 336.267 107.383 334.443 107.383ZM336.523 102.375C336.491 100.983 335.579 100.199 334.379 100.199C333.211 100.199 332.299 100.999 332.155 102.375H336.523ZM339.669 107.159L342.981 103.095L339.861 99.2227H341.685L342.789 100.599L343.925 102.023L345.061 100.599L346.165 99.2227H347.941L344.805 103.079L348.149 107.159H346.309L345.013 105.559L343.877 104.151L342.741 105.559L341.445 107.159H339.669ZM353.119 100.711L352.719 97.4627V95.9587H354.319V97.4627L353.919 100.711H353.119ZM305.15 148.711L304.75 145.463V143.959H306.35V145.463L305.95 148.711H305.15ZM311.352 153.511C315.224 151.159 317.336 149.367 317.336 147.239C317.336 145.767 316.296 145.079 315.112 145.079C313.64 145.079 312.728 146.135 312.728 147.671L311.272 147.431C311.304 145.351 312.648 143.735 315.112 143.735C317.352 143.735 318.856 145.095 318.856 147.175C318.856 148.135 318.568 149.063 317.928 149.943C316.904 151.335 315.112 152.615 313.016 153.767H315.768H319V155.159H311.352V153.511ZM320.706 155.159V147.223H322.098V148.199C322.306 147.623 322.85 147.031 323.746 147.031C324.546 147.031 325.09 147.479 325.298 148.215C325.554 147.559 326.146 147.031 327.074 147.031C328.21 147.031 328.834 147.863 328.834 149.159V155.159H327.41V149.463C327.41 148.695 327.106 148.247 326.53 148.247C325.842 148.247 325.49 148.919 325.49 149.959V155.159H324.066V149.463C324.066 148.647 323.73 148.247 323.17 148.247C322.354 148.247 322.13 149.127 322.13 149.975V155.159H320.706ZM333.931 148.711L333.531 145.463V143.959H335.131V145.463L334.731 148.711H333.931ZM410.681 148.711L410.281 145.463V143.959H411.881V145.463L411.481 148.711H410.681ZM420.787 155.383C418.483 155.383 416.947 153.831 416.947 151.175C416.947 148.647 418.531 146.999 420.723 146.999C423.187 146.999 424.643 148.951 424.371 151.575H418.467C418.515 153.399 419.555 154.119 420.803 154.119C422.051 154.119 422.723 153.335 423.043 152.599L424.403 153.111C423.843 154.471 422.611 155.383 420.787 155.383ZM422.867 150.375C422.835 148.983 421.923 148.199 420.723 148.199C419.555 148.199 418.643 148.999 418.499 150.375H422.867ZM429.421 155.159L426.077 147.223H427.709L429.389 151.415L430.349 153.815L431.277 151.415L432.877 147.223H434.461L431.277 155.159H429.421ZM439.975 155.383C437.671 155.383 436.135 153.831 436.135 151.175C436.135 148.647 437.719 146.999 439.911 146.999C442.375 146.999 443.831 148.951 443.559 151.575H437.655C437.703 153.399 438.743 154.119 439.991 154.119C441.239 154.119 441.911 153.335 442.231 152.599L443.591 153.111C443.031 154.471 441.799 155.383 439.975 155.383ZM442.055 150.375C442.023 148.983 441.111 148.199 439.911 148.199C438.743 148.199 437.831 148.999 437.687 150.375H442.055ZM446 155.159V147.223H447.456V148.599C447.776 147.975 448.592 147.015 450.16 147.015C452.176 147.015 453.024 148.295 453.024 150.055V155.159H451.52V150.407C451.52 148.999 450.816 148.311 449.664 148.311C447.968 148.311 447.504 149.751 447.504 151.303V155.159H446ZM459.866 155.159C458.474 155.159 457.754 154.471 457.754 152.951V148.471H454.954V147.223H457.754V144.743H459.258V147.223H462.554V148.471H459.258V152.967C459.258 153.591 459.514 153.863 460.17 153.863H462.906V155.159H459.866ZM467.524 155.159V152.871H469.764V155.159H467.524ZM477.614 155.383C475.694 155.383 474.158 153.895 474.158 151.191C474.158 148.487 475.694 146.999 477.614 146.999C478.958 146.999 479.902 147.767 480.302 148.455V147.127V143.959H481.806V155.159H480.334V153.927C479.918 154.631 478.99 155.383 477.614 155.383ZM478.03 154.103C479.342 154.103 480.366 153.175 480.366 151.191C480.366 149.207 479.342 148.279 478.03 148.279C476.798 148.279 475.742 149.111 475.742 151.191C475.742 153.287 476.798 154.103 478.03 154.103ZM489.303 149.735C489.303 148.823 488.807 148.263 487.639 148.263C486.247 148.263 485.799 149.079 485.591 149.687L484.151 149.223C484.407 148.135 485.543 146.999 487.639 146.999C489.783 146.999 490.807 148.071 490.807 149.783V153.415C490.807 153.783 490.903 153.879 491.271 153.879H492.087V155.159H490.935C489.783 155.159 489.559 154.631 489.463 153.959C488.903 154.823 488.135 155.383 486.871 155.383C485.319 155.383 484.311 154.519 484.311 153.111C484.311 150.919 486.743 150.183 489.303 149.975V149.735ZM485.863 152.983C485.863 153.703 486.327 154.151 487.271 154.151C488.279 154.151 489.303 153.463 489.303 151.879V151.063C487.447 151.255 485.863 151.719 485.863 152.983ZM498.241 155.159C496.849 155.159 496.129 154.471 496.129 152.951V148.471H493.329V147.223H496.129V144.743H497.633V147.223H500.929V148.471H497.633V152.967C497.633 153.591 497.889 153.863 498.545 153.863H501.281V155.159H498.241ZM508.491 149.735C508.491 148.823 507.995 148.263 506.827 148.263C505.435 148.263 504.987 149.079 504.779 149.687L503.339 149.223C503.595 148.135 504.731 146.999 506.827 146.999C508.971 146.999 509.995 148.071 509.995 149.783V153.415C509.995 153.783 510.091 153.879 510.459 153.879H511.275V155.159H510.123C508.971 155.159 508.747 154.631 508.651 153.959C508.091 154.823 507.323 155.383 506.059 155.383C504.507 155.383 503.499 154.519 503.499 153.111C503.499 150.919 505.931 150.183 508.491 149.975V149.735ZM505.051 152.983C505.051 153.703 505.515 154.151 506.459 154.151C507.467 154.151 508.491 153.463 508.491 151.879V151.063C506.635 151.255 505.051 151.719 505.051 152.983ZM515.493 155.159V152.871H517.733V155.159H515.493ZM526.222 155.383C524.062 155.383 522.318 153.703 522.318 151.207C522.318 148.647 524.046 146.999 526.222 146.999C528.398 146.999 530.11 148.647 530.11 151.207C530.11 153.767 528.366 155.383 526.222 155.383ZM526.222 154.087C527.518 154.087 528.542 153.159 528.542 151.223C528.542 149.271 527.518 148.295 526.222 148.295C524.91 148.295 523.886 149.271 523.886 151.223C523.886 153.159 524.91 154.087 526.222 154.087ZM532.824 155.159V147.223H534.328V149.175C534.744 148.039 535.768 147.127 537.656 147.127C538.392 147.127 539 147.239 539.4 147.367V148.823C538.872 148.663 538.264 148.567 537.656 148.567C535.4 148.567 534.328 149.623 534.328 151.863V155.159H532.824ZM543.41 158.279C541.858 158.279 541.298 157.607 541.298 156.679C541.298 155.879 541.858 155.303 542.322 155.015C541.874 154.743 541.618 154.359 541.618 153.719C541.618 152.935 542.258 152.391 542.802 152.039C542.338 151.623 541.922 150.903 541.922 149.959C541.922 148.279 543.266 146.999 545.122 146.999C546.578 146.999 547.458 147.783 547.826 148.407C547.97 147.719 548.322 147.223 549.138 147.223H549.954V148.471H549.298C548.626 148.471 548.386 148.631 548.306 149.543L548.274 149.927C548.13 151.719 546.898 152.871 545.138 152.871C544.594 152.871 544.082 152.807 543.634 152.567C543.202 152.743 542.93 153.031 542.93 153.319C542.93 153.575 543.09 153.831 543.634 153.831H547.074C548.626 153.831 549.634 154.727 549.634 156.055C549.634 157.543 548.482 158.279 547.106 158.279H543.41ZM546.914 156.999C547.554 156.999 548.114 156.823 548.114 156.071C548.114 155.319 547.554 155.159 546.914 155.159H543.202C542.946 155.319 542.626 155.671 542.626 156.167C542.626 156.807 543.058 156.999 543.826 156.999H546.914ZM545.122 151.687C546.162 151.687 546.834 150.999 546.834 149.943C546.834 148.903 546.162 148.183 545.122 148.183C544.082 148.183 543.41 148.903 543.41 149.943C543.41 150.999 544.082 151.687 545.122 151.687ZM551.276 155.159V153.767H554.188V145.351H551.276V143.959H558.716V145.351H555.692V153.767H558.716V155.159H551.276ZM563.957 155.383C562.037 155.383 560.501 153.895 560.501 151.191C560.501 148.487 562.037 146.999 563.957 146.999C565.301 146.999 566.245 147.767 566.645 148.455V147.127V143.959H568.149V155.159H566.677V153.927C566.261 154.631 565.333 155.383 563.957 155.383ZM564.373 154.103C565.685 154.103 566.709 153.175 566.709 151.191C566.709 149.207 565.685 148.279 564.373 148.279C563.141 148.279 562.085 149.111 562.085 151.191C562.085 153.287 563.141 154.103 564.373 154.103ZM573.775 148.711L573.375 145.463V143.959H574.975V145.463L574.575 148.711H573.775ZM180.431 196.711L180.031 193.463V191.959H181.631V193.463L181.231 196.711H180.431ZM190.665 203.383C188.313 203.383 186.681 201.735 186.681 199.191C186.681 196.679 188.361 194.999 190.665 194.999C192.489 194.999 193.721 195.991 194.169 197.303L192.745 197.799C192.441 196.919 191.737 196.295 190.649 196.295C189.305 196.295 188.249 197.303 188.249 199.191C188.249 201.079 189.305 202.087 190.649 202.087C191.865 202.087 192.585 201.367 192.889 200.375L194.313 200.871C193.801 202.359 192.505 203.383 190.665 203.383ZM200.035 203.383C197.875 203.383 196.131 201.703 196.131 199.207C196.131 196.647 197.859 194.999 200.035 194.999C202.211 194.999 203.923 196.647 203.923 199.207C203.923 201.767 202.179 203.383 200.035 203.383ZM200.035 202.087C201.331 202.087 202.355 201.159 202.355 199.223C202.355 197.271 201.331 196.295 200.035 196.295C198.723 196.295 197.699 197.271 197.699 199.223C197.699 201.159 198.723 202.087 200.035 202.087ZM206.157 203.159V195.223H207.613V196.599C207.933 195.975 208.749 195.015 210.317 195.015C212.333 195.015 213.181 196.295 213.181 198.055V203.159H211.677V198.407C211.677 196.999 210.973 196.311 209.821 196.311C208.125 196.311 207.661 197.751 207.661 199.303V203.159H206.157ZM220.022 203.159C218.63 203.159 217.91 202.471 217.91 200.951V196.471H215.11V195.223H217.91V192.743H219.414V195.223H222.71V196.471H219.414V200.967C219.414 201.591 219.67 201.863 220.326 201.863H223.062V203.159H220.022ZM228.912 203.383C226.608 203.383 225.072 201.831 225.072 199.175C225.072 196.647 226.656 194.999 228.848 194.999C231.312 194.999 232.768 196.951 232.496 199.575H226.592C226.64 201.399 227.68 202.119 228.928 202.119C230.176 202.119 230.848 201.335 231.168 200.599L232.528 201.111C231.968 202.471 230.736 203.383 228.912 203.383ZM230.992 198.375C230.96 196.983 230.048 196.199 228.848 196.199C227.68 196.199 226.768 196.999 226.624 198.375H230.992ZM234.938 203.159V195.223H236.394V196.599C236.714 195.975 237.53 195.015 239.098 195.015C241.114 195.015 241.962 196.295 241.962 198.055V203.159H240.458V198.407C240.458 196.999 239.754 196.311 238.602 196.311C236.906 196.311 236.442 197.751 236.442 199.303V203.159H234.938ZM248.804 203.159C247.411 203.159 246.692 202.471 246.692 200.951V196.471H243.892V195.223H246.692V192.743H248.196V195.223H251.492V196.471H248.196V200.967C248.196 201.591 248.452 201.863 249.108 201.863H251.844V203.159H248.804ZM253.341 204.823L260.221 190.279H261.821L254.941 204.823H253.341ZM266.471 203.367C264.471 203.367 263.639 202.087 263.639 200.327V195.223H265.143V199.975C265.143 201.383 265.831 202.071 266.967 202.071C268.631 202.071 269.095 200.631 269.095 199.079V195.223H270.599V203.159H269.143V201.783C268.823 202.407 268.023 203.367 266.471 203.367ZM273.201 206.279V195.223H274.673V196.455C275.089 195.751 276.017 194.999 277.393 194.999C279.313 194.999 280.849 196.487 280.849 199.191C280.849 201.895 279.313 203.383 277.393 203.383C276.049 203.383 275.105 202.615 274.705 201.927V203.255V206.279H273.201ZM276.977 202.103C278.209 202.103 279.265 201.271 279.265 199.191C279.265 197.095 278.209 196.279 276.977 196.279C275.665 196.279 274.641 197.207 274.641 199.191C274.641 201.175 275.665 202.103 276.977 202.103ZM285.739 203.383C283.819 203.383 282.283 201.895 282.283 199.191C282.283 196.487 283.819 194.999 285.739 194.999C287.083 194.999 288.027 195.767 288.427 196.455V195.127V191.959H289.931V203.159H288.459V201.927C288.043 202.631 287.115 203.383 285.739 203.383ZM286.155 202.103C287.467 202.103 288.491 201.175 288.491 199.191C288.491 197.207 287.467 196.279 286.155 196.279C284.923 196.279 283.867 197.111 283.867 199.191C283.867 201.287 284.923 202.103 286.155 202.103ZM297.428 197.735C297.428 196.823 296.932 196.263 295.764 196.263C294.372 196.263 293.924 197.079 293.716 197.687L292.276 197.223C292.532 196.135 293.668 194.999 295.764 194.999C297.908 194.999 298.932 196.071 298.932 197.783V201.415C298.932 201.783 299.028 201.879 299.396 201.879H300.212V203.159H299.06C297.908 203.159 297.684 202.631 297.588 201.959C297.028 202.823 296.26 203.383 294.996 203.383C293.444 203.383 292.436 202.519 292.436 201.111C292.436 198.919 294.868 198.183 297.428 197.975V197.735ZM293.988 200.983C293.988 201.703 294.452 202.151 295.396 202.151C296.404 202.151 297.428 201.463 297.428 199.879V199.063C295.572 199.255 293.988 199.719 293.988 200.983ZM306.366 203.159C304.974 203.159 304.254 202.471 304.254 200.951V196.471H301.454V195.223H304.254V192.743H305.758V195.223H309.054V196.471H305.758V200.967C305.758 201.591 306.014 201.863 306.67 201.863H309.406V203.159H306.366ZM315.256 203.383C312.952 203.383 311.416 201.831 311.416 199.175C311.416 196.647 313 194.999 315.192 194.999C317.656 194.999 319.112 196.951 318.84 199.575H312.936C312.984 201.399 314.024 202.119 315.272 202.119C316.52 202.119 317.192 201.335 317.512 200.599L318.872 201.111C318.312 202.471 317.08 203.383 315.256 203.383ZM317.336 198.375C317.304 196.983 316.392 196.199 315.192 196.199C314.024 196.199 313.112 196.999 312.968 198.375H317.336ZM324.114 203.383C322.194 203.383 320.658 201.895 320.658 199.191C320.658 196.487 322.194 194.999 324.114 194.999C325.458 194.999 326.402 195.767 326.802 196.455V195.127V191.959H328.306V203.159H326.834V201.927C326.418 202.631 325.49 203.383 324.114 203.383ZM324.53 202.103C325.842 202.103 326.866 201.175 326.866 199.191C326.866 197.207 325.842 196.279 324.53 196.279C323.298 196.279 322.242 197.111 322.242 199.191C322.242 201.287 323.298 202.103 324.53 202.103ZM333.931 196.711L333.531 193.463V191.959H335.131V193.463L334.731 196.711H333.931Z" fill="#9ECBFF"/>
<path d="M109.435 132.823L116.315 118.279H117.915L111.035 132.823H109.435ZM119.029 132.823L125.909 118.279H127.509L120.629 132.823H119.029ZM139.448 131.159L138.056 119.959H139.56L140.104 125.559L140.472 129.383L141.16 125.559L141.816 121.927H143.112L143.768 125.559L144.456 129.383L144.824 125.559L145.368 119.959H146.856L145.464 131.159H143.608L142.888 127.079C142.728 126.151 142.6 125.239 142.456 124.311C142.312 125.239 142.184 126.151 142.024 127.079L141.304 131.159H139.448ZM153.522 125.735C153.522 124.823 153.026 124.263 151.858 124.263C150.466 124.263 150.018 125.079 149.81 125.687L148.37 125.223C148.626 124.135 149.762 122.999 151.858 122.999C154.002 122.999 155.026 124.071 155.026 125.783V129.415C155.026 129.783 155.122 129.879 155.49 129.879H156.306V131.159H155.154C154.002 131.159 153.778 130.631 153.682 129.959C153.122 130.823 152.354 131.383 151.09 131.383C149.538 131.383 148.53 130.519 148.53 129.111C148.53 126.919 150.962 126.183 153.522 125.975V125.735ZM150.082 128.983C150.082 129.703 150.546 130.151 151.49 130.151C152.498 130.151 153.522 129.463 153.522 127.879V127.063C151.666 127.255 150.082 127.719 150.082 128.983ZM157.788 131.159V129.911H161.004V124.471H158.092V123.223H162.492V129.911H165.564V131.159H157.788ZM160.956 121.751V119.959H162.556V121.751H160.956ZM172.054 131.159C170.661 131.159 169.942 130.471 169.942 128.951V124.471H167.142V123.223H169.942V120.743H171.446V123.223H174.742V124.471H171.446V128.967C171.446 129.591 171.702 129.863 172.358 129.863H175.094V131.159H172.054ZM186.633 129.511C190.505 127.159 192.617 125.367 192.617 123.239C192.617 121.767 191.577 121.079 190.393 121.079C188.921 121.079 188.009 122.135 188.009 123.671L186.553 123.431C186.585 121.351 187.929 119.735 190.393 119.735C192.633 119.735 194.137 121.095 194.137 123.175C194.137 124.135 193.849 125.063 193.209 125.943C192.185 127.335 190.393 128.615 188.297 129.767H191.049H194.281V131.159H186.633V129.511ZM195.987 131.159V123.223H197.379V124.199C197.587 123.623 198.131 123.031 199.027 123.031C199.827 123.031 200.371 123.479 200.579 124.215C200.835 123.559 201.427 123.031 202.355 123.031C203.491 123.031 204.115 123.863 204.115 125.159V131.159H202.691V125.463C202.691 124.695 202.387 124.247 201.811 124.247C201.123 124.247 200.771 124.919 200.771 125.959V131.159H199.347V125.463C199.347 124.647 199.011 124.247 198.451 124.247C197.635 124.247 197.411 125.127 197.411 125.975V131.159H195.987ZM220.678 125.735C220.678 124.823 220.182 124.263 219.014 124.263C217.622 124.263 217.174 125.079 216.966 125.687L215.526 125.223C215.782 124.135 216.918 122.999 219.014 122.999C221.158 122.999 222.182 124.071 222.182 125.783V129.415C222.182 129.783 222.278 129.879 222.646 129.879H223.462V131.159H222.31C221.158 131.159 220.934 130.631 220.838 129.959C220.278 130.823 219.51 131.383 218.246 131.383C216.694 131.383 215.686 130.519 215.686 129.111C215.686 126.919 218.118 126.183 220.678 125.975V125.735ZM217.238 128.983C217.238 129.703 217.702 130.151 218.646 130.151C219.654 130.151 220.678 129.463 220.678 127.879V127.063C218.822 127.255 217.238 127.719 217.238 128.983ZM227.824 122.167C227.824 120.647 228.544 119.959 229.936 119.959H233.024V121.255H230.24C229.584 121.255 229.328 121.527 229.328 122.151V123.223H232.672V124.471H229.328V131.159H227.824V124.471H224.976V123.223H227.824V122.167ZM239.21 131.159C237.818 131.159 237.098 130.471 237.098 128.951V124.471H234.298V123.223H237.098V120.743H238.602V123.223H241.898V124.471H238.602V128.967C238.602 129.591 238.858 129.863 239.514 129.863H242.25V131.159H239.21ZM248.1 131.383C245.796 131.383 244.26 129.831 244.26 127.175C244.26 124.647 245.844 122.999 248.036 122.999C250.5 122.999 251.956 124.951 251.684 127.575H245.78C245.828 129.399 246.868 130.119 248.116 130.119C249.364 130.119 250.036 129.335 250.356 128.599L251.716 129.111C251.156 130.471 249.924 131.383 248.1 131.383ZM250.18 126.375C250.148 124.983 249.236 124.199 248.036 124.199C246.868 124.199 245.956 124.999 245.812 126.375H250.18ZM254.605 131.159V123.223H256.109V125.175C256.525 124.039 257.549 123.127 259.437 123.127C260.173 123.127 260.781 123.239 261.181 123.367V124.823C260.653 124.663 260.045 124.567 259.437 124.567C257.181 124.567 256.109 125.623 256.109 127.863V131.159H254.605ZM272.913 131.159V129.911H276.049V121.207H273.217V119.959H277.537V129.911H280.689V131.159H272.913ZM287.835 125.735C287.835 124.823 287.339 124.263 286.171 124.263C284.779 124.263 284.331 125.079 284.123 125.687L282.683 125.223C282.939 124.135 284.075 122.999 286.171 122.999C288.315 122.999 289.339 124.071 289.339 125.783V129.415C289.339 129.783 289.435 129.879 289.803 129.879H290.619V131.159H289.467C288.315 131.159 288.091 130.631 287.995 129.959C287.435 130.823 286.667 131.383 285.403 131.383C283.851 131.383 282.843 130.519 282.843 129.111C282.843 126.919 285.275 126.183 287.835 125.975V125.735ZM284.395 128.983C284.395 129.703 284.859 130.151 285.803 130.151C286.811 130.151 287.835 129.463 287.835 127.879V127.063C285.979 127.255 284.395 127.719 284.395 128.983ZM296.068 131.383C294.292 131.383 292.724 130.583 292.372 129.095L293.78 128.647C294.068 129.591 294.852 130.151 296.084 130.151C297.188 130.151 297.94 129.751 297.94 129.031C297.94 128.439 297.54 128.055 296.436 127.879L295.22 127.687C293.716 127.447 292.708 126.775 292.708 125.383C292.708 123.927 294.132 122.999 295.876 122.999C297.684 122.999 298.836 123.863 299.236 124.999L297.924 125.527C297.684 124.807 297.028 124.199 295.844 124.199C294.836 124.199 294.164 124.631 294.164 125.239C294.164 125.767 294.484 126.103 295.54 126.263L296.756 126.455C298.116 126.663 299.46 127.351 299.46 128.903C299.46 130.439 298.1 131.383 296.068 131.383ZM306.366 131.159C304.974 131.159 304.254 130.471 304.254 128.951V124.471H301.454V123.223H304.254V120.743H305.758V123.223H309.054V124.471H305.758V128.967C305.758 129.591 306.014 129.863 306.67 129.863H309.406V131.159H306.366ZM324.85 131.383C322.546 131.383 321.01 129.831 321.01 127.175C321.01 124.647 322.594 122.999 324.786 122.999C327.25 122.999 328.706 124.951 328.434 127.575H322.53C322.578 129.399 323.618 130.119 324.866 130.119C326.114 130.119 326.786 129.335 327.106 128.599L328.466 129.111C327.906 130.471 326.674 131.383 324.85 131.383ZM326.93 126.375C326.898 124.983 325.986 124.199 324.786 124.199C323.618 124.199 322.706 124.999 322.562 126.375H326.93ZM333.483 131.159L330.139 123.223H331.771L333.451 127.415L334.411 129.815L335.339 127.415L336.939 123.223H338.523L335.339 131.159H333.483ZM344.037 131.383C341.733 131.383 340.197 129.831 340.197 127.175C340.197 124.647 341.781 122.999 343.973 122.999C346.437 122.999 347.893 124.951 347.621 127.575H341.717C341.765 129.399 342.805 130.119 344.053 130.119C345.301 130.119 345.973 129.335 346.293 128.599L347.653 129.111C347.093 130.471 345.861 131.383 344.037 131.383ZM346.117 126.375C346.085 124.983 345.173 124.199 343.973 124.199C342.805 124.199 341.893 124.999 341.749 126.375H346.117ZM350.063 131.159V123.223H351.519V124.599C351.839 123.975 352.655 123.015 354.223 123.015C356.239 123.015 357.087 124.295 357.087 126.055V131.159H355.583V126.407C355.583 124.999 354.879 124.311 353.727 124.311C352.031 124.311 351.567 125.751 351.567 127.303V131.159H350.063ZM363.929 131.159C362.536 131.159 361.817 130.471 361.817 128.951V124.471H359.017V123.223H361.817V120.743H363.321V123.223H366.617V124.471H363.321V128.967C363.321 129.591 363.577 129.863 364.233 129.863H366.969V131.159H363.929ZM378.732 134.279V123.223H380.204V124.455C380.62 123.751 381.548 122.999 382.924 122.999C384.844 122.999 386.38 124.487 386.38 127.191C386.38 129.895 384.844 131.383 382.924 131.383C381.58 131.383 380.636 130.615 380.236 129.927V131.255V134.279H378.732ZM382.508 130.103C383.74 130.103 384.796 129.271 384.796 127.191C384.796 125.095 383.74 124.279 382.508 124.279C381.196 124.279 380.172 125.207 380.172 127.191C380.172 129.175 381.196 130.103 382.508 130.103ZM392.006 131.383C389.702 131.383 388.166 129.831 388.166 127.175C388.166 124.647 389.75 122.999 391.942 122.999C394.406 122.999 395.862 124.951 395.59 127.575H389.686C389.734 129.399 390.774 130.119 392.022 130.119C393.27 130.119 393.942 129.335 394.262 128.599L395.622 129.111C395.062 130.471 393.83 131.383 392.006 131.383ZM394.086 126.375C394.054 124.983 393.142 124.199 391.942 124.199C390.774 124.199 389.862 124.999 389.718 126.375H394.086ZM398.512 131.159V123.223H400.016V125.175C400.432 124.039 401.456 123.127 403.344 123.127C404.08 123.127 404.688 123.239 405.088 123.367V124.823C404.56 124.663 403.952 124.567 403.344 124.567C401.088 124.567 400.016 125.623 400.016 127.863V131.159H398.512ZM420.691 131.383C418.531 131.383 416.787 129.703 416.787 127.207C416.787 124.647 418.515 122.999 420.691 122.999C422.867 122.999 424.579 124.647 424.579 127.207C424.579 129.767 422.835 131.383 420.691 131.383ZM420.691 130.087C421.987 130.087 423.011 129.159 423.011 127.223C423.011 125.271 421.987 124.295 420.691 124.295C419.379 124.295 418.355 125.271 418.355 127.223C418.355 129.159 419.379 130.087 420.691 130.087ZM427.293 131.159V123.223H428.797V125.175C429.213 124.039 430.237 123.127 432.125 123.127C432.861 123.127 433.469 123.239 433.869 123.367V124.823C433.341 124.663 432.733 124.567 432.125 124.567C429.869 124.567 428.797 125.623 428.797 127.863V131.159H427.293ZM437.879 134.279C436.327 134.279 435.767 133.607 435.767 132.679C435.767 131.879 436.327 131.303 436.791 131.015C436.343 130.743 436.087 130.359 436.087 129.719C436.087 128.935 436.727 128.391 437.271 128.039C436.807 127.623 436.391 126.903 436.391 125.959C436.391 124.279 437.735 122.999 439.591 122.999C441.047 122.999 441.927 123.783 442.295 124.407C442.439 123.719 442.791 123.223 443.607 123.223H444.423V124.471H443.767C443.095 124.471 442.855 124.631 442.775 125.543L442.743 125.927C442.599 127.719 441.367 128.871 439.607 128.871C439.062 128.871 438.551 128.807 438.103 128.567C437.671 128.743 437.399 129.031 437.399 129.319C437.399 129.575 437.559 129.831 438.103 129.831H441.543C443.095 129.831 444.102 130.727 444.102 132.055C444.102 133.543 442.951 134.279 441.575 134.279H437.879ZM441.383 132.999C442.023 132.999 442.583 132.823 442.583 132.071C442.583 131.319 442.023 131.159 441.383 131.159H437.671C437.414 131.319 437.095 131.671 437.095 132.167C437.095 132.807 437.527 132.999 438.295 132.999H441.383ZM439.591 127.687C440.631 127.687 441.303 126.999 441.303 125.943C441.303 124.903 440.631 124.183 439.591 124.183C438.551 124.183 437.879 124.903 437.879 125.943C437.879 126.999 438.551 127.687 439.591 127.687ZM109.435 252.823L116.315 238.279H117.915L111.035 252.823H109.435ZM119.029 252.823L125.909 238.279H127.509L120.629 252.823H119.029ZM139.48 251.159V243.223H140.984V245.175C141.4 244.039 142.424 243.127 144.312 243.127C145.048 243.127 145.656 243.239 146.056 243.367V244.823C145.528 244.663 144.92 244.567 144.312 244.567C142.056 244.567 140.984 245.623 140.984 247.863V251.159H139.48ZM151.346 251.367C149.346 251.367 148.514 250.087 148.514 248.327V243.223H150.018V247.975C150.018 249.383 150.706 250.071 151.842 250.071C153.506 250.071 153.97 248.631 153.97 247.079V243.223H155.474V251.159H154.018V249.783C153.698 250.407 152.898 251.367 151.346 251.367ZM158.188 251.159V243.223H159.644V244.599C159.964 243.975 160.78 243.015 162.348 243.015C164.364 243.015 165.212 244.295 165.212 246.055V251.159H163.708V246.407C163.708 244.999 163.004 244.311 161.852 244.311C160.156 244.311 159.692 245.751 159.692 247.303V251.159H158.188ZM171.35 251.383C169.574 251.383 168.006 250.583 167.654 249.095L169.062 248.647C169.35 249.591 170.134 250.151 171.366 250.151C172.47 250.151 173.222 249.751 173.222 249.031C173.222 248.439 172.822 248.055 171.718 247.879L170.502 247.687C168.998 247.447 167.99 246.775 167.99 245.383C167.99 243.927 169.414 242.999 171.158 242.999C172.966 242.999 174.118 243.863 174.517 244.999L173.206 245.527C172.966 244.807 172.31 244.199 171.126 244.199C170.118 244.199 169.446 244.631 169.446 245.239C169.446 245.767 169.766 246.103 170.822 246.263L172.038 246.455C173.398 246.663 174.742 247.351 174.742 248.903C174.742 250.439 173.382 251.383 171.35 251.383ZM190.441 251.383C188.281 251.383 186.537 249.703 186.537 247.207C186.537 244.647 188.265 242.999 190.441 242.999C192.617 242.999 194.329 244.647 194.329 247.207C194.329 249.767 192.585 251.383 190.441 251.383ZM190.441 250.087C191.737 250.087 192.761 249.159 192.761 247.223C192.761 245.271 191.737 244.295 190.441 244.295C189.129 244.295 188.105 245.271 188.105 247.223C188.105 249.159 189.129 250.087 190.441 250.087ZM196.563 251.159V243.223H198.019V244.599C198.339 243.975 199.155 243.015 200.723 243.015C202.739 243.015 203.587 244.295 203.587 246.055V251.159H202.083V246.407C202.083 244.999 201.379 244.311 200.227 244.311C198.531 244.311 198.067 245.751 198.067 247.303V251.159H196.563ZM209.853 251.383C207.501 251.383 205.868 249.735 205.868 247.191C205.868 244.679 207.549 242.999 209.853 242.999C211.677 242.999 212.909 243.991 213.357 245.303L211.933 245.799C211.629 244.919 210.925 244.295 209.837 244.295C208.493 244.295 207.437 245.303 207.437 247.191C207.437 249.079 208.493 250.087 209.837 250.087C211.053 250.087 211.773 249.367 212.077 248.375L213.501 248.871C212.989 250.359 211.693 251.383 209.853 251.383ZM219.318 251.383C217.014 251.383 215.478 249.831 215.478 247.175C215.478 244.647 217.062 242.999 219.254 242.999C221.718 242.999 223.174 244.951 222.902 247.575H216.998C217.046 249.399 218.086 250.119 219.334 250.119C220.582 250.119 221.254 249.335 221.574 248.599L222.934 249.111C222.374 250.471 221.142 251.383 219.318 251.383ZM221.398 246.375C221.366 244.983 220.454 244.199 219.254 244.199C218.086 244.199 217.174 244.999 217.03 246.375H221.398ZM227.488 253.623L228.88 251.159H227.68V248.871H229.92V251.159L228.544 253.623H227.488ZM249.46 245.735C249.46 244.823 248.964 244.263 247.796 244.263C246.404 244.263 245.956 245.079 245.748 245.687L244.308 245.223C244.564 244.135 245.7 242.999 247.796 242.999C249.94 242.999 250.964 244.071 250.964 245.783V249.415C250.964 249.783 251.06 249.879 251.428 249.879H252.244V251.159H251.092C249.94 251.159 249.716 250.631 249.62 249.959C249.06 250.823 248.292 251.383 247.028 251.383C245.476 251.383 244.468 250.519 244.468 249.111C244.468 246.919 246.9 246.183 249.46 245.975V245.735ZM246.02 248.983C246.02 249.703 246.484 250.151 247.428 250.151C248.436 250.151 249.46 249.463 249.46 247.879V247.063C247.604 247.255 246.02 247.719 246.02 248.983ZM256.605 242.167C256.605 240.647 257.325 239.959 258.717 239.959H261.805V241.255H259.021C258.365 241.255 258.109 241.527 258.109 242.151V243.223H261.453V244.471H258.109V251.159H256.605V244.471H253.757V243.223H256.605V242.167ZM267.991 251.159C266.599 251.159 265.879 250.471 265.879 248.951V244.471H263.079V243.223H265.879V240.743H267.383V243.223H270.679V244.471H267.383V248.967C267.383 249.591 267.639 249.863 268.295 249.863H271.031V251.159H267.991ZM276.881 251.383C274.577 251.383 273.041 249.831 273.041 247.175C273.041 244.647 274.625 242.999 276.817 242.999C279.281 242.999 280.737 244.951 280.465 247.575H274.561C274.609 249.399 275.649 250.119 276.897 250.119C278.145 250.119 278.817 249.335 279.137 248.599L280.497 249.111C279.937 250.471 278.705 251.383 276.881 251.383ZM278.961 246.375C278.929 244.983 278.017 244.199 276.817 244.199C275.649 244.199 274.737 244.999 274.593 246.375H278.961ZM283.387 251.159V243.223H284.891V245.175C285.307 244.039 286.331 243.127 288.219 243.127C288.955 243.127 289.562 243.239 289.963 243.367V244.823C289.435 244.663 288.827 244.567 288.219 244.567C285.963 244.567 284.891 245.623 284.891 247.863V251.159H283.387ZM306.366 251.159C304.974 251.159 304.254 250.471 304.254 248.951V244.471H301.454V243.223H304.254V240.743H305.758V243.223H309.054V244.471H305.758V248.967C305.758 249.591 306.014 249.863 306.67 249.863H309.406V251.159H306.366ZM311.688 251.159V239.959H313.176V242.359V244.583C313.464 243.959 314.28 243.015 315.848 243.015C317.864 243.015 318.712 244.295 318.712 246.055V251.159H317.208V246.407C317.208 244.999 316.504 244.311 315.352 244.311C313.656 244.311 313.192 245.751 313.192 247.303V251.159H311.688ZM324.85 251.383C322.546 251.383 321.01 249.831 321.01 247.175C321.01 244.647 322.594 242.999 324.786 242.999C327.25 242.999 328.706 244.951 328.434 247.575H322.53C322.578 249.399 323.618 250.119 324.866 250.119C326.114 250.119 326.786 249.335 327.106 248.599L328.466 249.111C327.906 250.471 326.674 251.383 324.85 251.383ZM326.93 246.375C326.898 244.983 325.986 244.199 324.786 244.199C323.618 244.199 322.706 244.999 322.562 246.375H326.93ZM344.549 251.383C343.173 251.383 342.245 250.631 341.829 249.927V251.159H340.357V239.959H341.861V242.391V244.455C342.261 243.767 343.205 242.999 344.549 242.999C346.469 242.999 348.005 244.487 348.005 247.191C348.005 249.895 346.469 251.383 344.549 251.383ZM344.133 250.103C345.365 250.103 346.421 249.287 346.421 247.191C346.421 245.111 345.365 244.279 344.133 244.279C342.821 244.279 341.797 245.207 341.797 247.191C341.797 249.175 342.821 250.103 344.133 250.103ZM352.815 251.367C350.815 251.367 349.983 250.087 349.983 248.327V243.223H351.487V247.975C351.487 249.383 352.175 250.071 353.311 250.071C354.975 250.071 355.439 248.631 355.439 247.079V243.223H356.943V251.159H355.487V249.783C355.167 250.407 354.367 251.367 352.815 251.367ZM360.137 251.159V243.223H361.641V245.175C362.057 244.039 363.081 243.127 364.969 243.127C365.705 243.127 366.312 243.239 366.713 243.367V244.823C366.185 244.663 365.577 244.567 364.969 244.567C362.713 244.567 361.641 245.623 361.641 247.863V251.159H360.137ZM372.818 251.383C371.042 251.383 369.474 250.583 369.122 249.095L370.53 248.647C370.818 249.591 371.602 250.151 372.834 250.151C373.938 250.151 374.69 249.751 374.69 249.031C374.69 248.439 374.29 248.055 373.186 247.879L371.97 247.687C370.466 247.447 369.458 246.775 369.458 245.383C369.458 243.927 370.882 242.999 372.626 242.999C374.434 242.999 375.586 243.863 375.986 244.999L374.674 245.527C374.434 244.807 373.778 244.199 372.594 244.199C371.586 244.199 370.914 244.631 370.914 245.239C370.914 245.767 371.234 246.103 372.29 246.263L373.506 246.455C374.866 246.663 376.21 247.351 376.21 248.903C376.21 250.439 374.85 251.383 372.818 251.383ZM383.116 251.159C381.724 251.159 381.004 250.471 381.004 248.951V244.471H378.204V243.223H381.004V240.743H382.508V243.223H385.804V244.471H382.508V248.967C382.508 249.591 382.764 249.863 383.42 249.863H386.156V251.159H383.116ZM401.6 251.383C399.824 251.383 398.256 250.583 397.904 249.095L399.312 248.647C399.6 249.591 400.384 250.151 401.616 250.151C402.72 250.151 403.472 249.751 403.472 249.031C403.472 248.439 403.072 248.055 401.968 247.879L400.752 247.687C399.248 247.447 398.24 246.775 398.24 245.383C398.24 243.927 399.664 242.999 401.408 242.999C403.216 242.999 404.368 243.863 404.767 244.999L403.456 245.527C403.216 244.807 402.56 244.199 401.376 244.199C400.368 244.199 399.696 244.631 399.696 245.239C399.696 245.767 400.016 246.103 401.072 246.263L402.288 246.455C403.648 246.663 404.992 247.351 404.992 248.903C404.992 250.439 403.632 251.383 401.6 251.383ZM411.193 251.383C408.889 251.383 407.353 249.831 407.353 247.175C407.353 244.647 408.937 242.999 411.129 242.999C413.593 242.999 415.049 244.951 414.777 247.575H408.873C408.921 249.399 409.961 250.119 411.209 250.119C412.457 250.119 413.129 249.335 413.449 248.599L414.809 249.111C414.249 250.471 413.017 251.383 411.193 251.383ZM413.273 246.375C413.241 244.983 412.329 244.199 411.129 244.199C409.961 244.199 409.049 244.999 408.905 246.375H413.273ZM421.491 251.159C420.099 251.159 419.379 250.471 419.379 248.951V244.471H416.579V243.223H419.379V240.743H420.883V243.223H424.179V244.471H420.883V248.967C420.883 249.591 421.139 249.863 421.795 249.863H424.531V251.159H421.491ZM431.085 251.159C429.693 251.159 428.973 250.471 428.973 248.951V244.471H426.173V243.223H428.973V240.743H430.477V243.223H433.773V244.471H430.477V248.967C430.477 249.591 430.733 249.863 431.389 249.863H434.125V251.159H431.085ZM436.007 251.159V249.911H439.143V241.207H436.311V239.959H440.631V249.911H443.783V251.159H436.007ZM449.568 251.383C447.264 251.383 445.728 249.831 445.728 247.175C445.728 244.647 447.312 242.999 449.504 242.999C451.968 242.999 453.424 244.951 453.152 247.575H447.248C447.296 249.399 448.336 250.119 449.584 250.119C450.832 250.119 451.504 249.335 451.824 248.599L453.184 249.111C452.624 250.471 451.392 251.383 449.568 251.383ZM451.648 246.375C451.616 244.983 450.704 244.199 449.504 244.199C448.336 244.199 447.424 244.999 447.28 246.375H451.648ZM459.162 251.383C457.386 251.383 455.818 250.583 455.466 249.095L456.874 248.647C457.162 249.591 457.946 250.151 459.178 250.151C460.282 250.151 461.034 249.751 461.034 249.031C461.034 248.439 460.634 248.055 459.53 247.879L458.314 247.687C456.81 247.447 455.802 246.775 455.802 245.383C455.802 243.927 457.226 242.999 458.97 242.999C460.778 242.999 461.93 243.863 462.33 244.999L461.018 245.527C460.778 244.807 460.122 244.199 458.938 244.199C457.93 244.199 457.258 244.631 457.258 245.239C457.258 245.767 457.578 246.103 458.634 246.263L459.85 246.455C461.21 246.663 462.554 247.351 462.554 248.903C462.554 250.439 461.194 251.383 459.162 251.383Z" fill="white" fill-opacity="0.2"/>
<path d="M95.9595 221.735C95.9595 220.823 95.4635 220.263 94.2955 220.263C92.9035 220.263 92.4555 221.079 92.2475 221.687L90.8075 221.223C91.0635 220.135 92.1995 218.999 94.2955 218.999C96.4395 218.999 97.4635 220.071 97.4635 221.783V225.415C97.4635 225.783 97.5595 225.879 97.9275 225.879H98.7435V227.159H97.5915C96.4395 227.159 96.2155 226.631 96.1195 225.959C95.5595 226.823 94.7915 227.383 93.5275 227.383C91.9755 227.383 90.9675 226.519 90.9675 225.111C90.9675 222.919 93.3995 222.183 95.9595 221.975V221.735ZM92.5195 224.983C92.5195 225.703 92.9835 226.151 93.9275 226.151C94.9355 226.151 95.9595 225.463 95.9595 223.879V223.063C94.1035 223.255 92.5195 223.719 92.5195 224.983ZM104.193 227.383C102.417 227.383 100.849 226.583 100.497 225.095L101.905 224.647C102.193 225.591 102.977 226.151 104.209 226.151C105.313 226.151 106.065 225.751 106.065 225.031C106.065 224.439 105.665 224.055 104.561 223.879L103.345 223.687C101.841 223.447 100.833 222.775 100.833 221.383C100.833 219.927 102.257 218.999 104.001 218.999C105.809 218.999 106.961 219.863 107.361 220.999L106.049 221.527C105.809 220.807 105.153 220.199 103.969 220.199C102.961 220.199 102.289 220.631 102.289 221.239C102.289 221.767 102.609 222.103 103.665 222.263L104.881 222.455C106.241 222.663 107.585 223.351 107.585 224.903C107.585 226.439 106.225 227.383 104.193 227.383ZM109.899 230.279V228.951H111.579C112.347 228.951 112.699 228.679 113.051 227.799L113.323 227.143L109.451 219.223H111.131L112.987 223.159L114.011 225.335L114.827 223.127L116.315 219.223H117.915L114.283 228.455C113.755 229.783 113.083 230.279 111.739 230.279H109.899ZM119.813 227.159V219.223H121.269V220.599C121.589 219.975 122.405 219.015 123.973 219.015C125.989 219.015 126.837 220.295 126.837 222.055V227.159H125.333V222.407C125.333 220.999 124.629 220.311 123.477 220.311C121.781 220.311 121.317 221.751 121.317 223.303V227.159H119.813ZM133.103 227.383C130.751 227.383 129.118 225.735 129.118 223.191C129.118 220.679 130.799 218.999 133.103 218.999C134.927 218.999 136.159 219.991 136.607 221.303L135.183 221.799C134.879 220.919 134.175 220.295 133.087 220.295C131.743 220.295 130.687 221.303 130.687 223.191C130.687 225.079 131.743 226.087 133.087 226.087C134.303 226.087 135.023 225.367 135.327 224.375L136.751 224.871C136.239 226.359 134.943 227.383 133.103 227.383ZM320.578 220.535V219.079H328.898V220.535H320.578ZM320.578 224.039V222.583H328.898V224.039H320.578ZM330.171 225.911V224.327L334.171 222.775C335.403 222.295 336.347 221.927 337.355 221.559C336.475 221.239 335.371 220.855 334.155 220.375L330.171 218.823V217.191L338.491 220.407V222.711L330.171 225.911Z" fill="#52B2FD"/>
<path d="M180.943 227.383C178.639 227.383 177.103 225.831 177.103 223.175C177.103 220.647 178.687 218.999 180.879 218.999C183.343 218.999 184.799 220.951 184.527 223.575H178.623C178.671 225.399 179.711 226.119 180.959 226.119C182.207 226.119 182.879 225.335 183.199 224.599L184.559 225.111C183.999 226.471 182.767 227.383 180.943 227.383ZM183.023 222.375C182.991 220.983 182.079 220.199 180.879 220.199C179.711 220.199 178.799 220.999 178.655 222.375H183.023ZM189.577 227.159L186.233 219.223H187.865L189.545 223.415L190.505 225.815L191.433 223.415L193.033 219.223H194.617L191.433 227.159H189.577ZM200.131 227.383C197.827 227.383 196.291 225.831 196.291 223.175C196.291 220.647 197.875 218.999 200.067 218.999C202.531 218.999 203.987 220.951 203.715 223.575H197.811C197.859 225.399 198.899 226.119 200.147 226.119C201.395 226.119 202.067 225.335 202.387 224.599L203.747 225.111C203.187 226.471 201.955 227.383 200.131 227.383ZM202.211 222.375C202.179 220.983 201.267 220.199 200.067 220.199C198.899 220.199 197.987 220.999 197.843 222.375H202.211ZM206.157 227.159V219.223H207.613V220.599C207.933 219.975 208.749 219.015 210.317 219.015C212.333 219.015 213.181 220.295 213.181 222.055V227.159H211.677V222.407C211.677 220.999 210.973 220.311 209.821 220.311C208.125 220.311 207.661 221.751 207.661 223.303V227.159H206.157ZM220.022 227.159C218.63 227.159 217.91 226.471 217.91 224.951V220.471H215.11V219.223H217.91V216.743H219.414V219.223H222.71V220.471H219.414V224.967C219.414 225.591 219.67 225.863 220.326 225.863H223.062V227.159H220.022ZM248.1 227.383C246.324 227.383 244.756 226.583 244.404 225.095L245.812 224.647C246.1 225.591 246.884 226.151 248.116 226.151C249.22 226.151 249.972 225.751 249.972 225.031C249.972 224.439 249.572 224.055 248.468 223.879L247.252 223.687C245.748 223.447 244.74 222.775 244.74 221.383C244.74 219.927 246.164 218.999 247.908 218.999C249.716 218.999 250.868 219.863 251.267 220.999L249.956 221.527C249.716 220.807 249.06 220.199 247.876 220.199C246.868 220.199 246.196 220.631 246.196 221.239C246.196 221.767 246.516 222.103 247.572 222.263L248.788 222.455C250.148 222.663 251.492 223.351 251.492 224.903C251.492 226.439 250.132 227.383 248.1 227.383ZM258.397 227.159C257.005 227.159 256.285 226.471 256.285 224.951V220.471H253.485V219.223H256.285V216.743H257.789V219.223H261.085V220.471H257.789V224.967C257.789 225.591 258.045 225.863 258.701 225.863H261.437V227.159H258.397ZM267.287 227.383C264.983 227.383 263.447 225.831 263.447 223.175C263.447 220.647 265.031 218.999 267.223 218.999C269.687 218.999 271.143 220.951 270.871 223.575H264.967C265.015 225.399 266.055 226.119 267.303 226.119C268.551 226.119 269.223 225.335 269.543 224.599L270.903 225.111C270.343 226.471 269.111 227.383 267.287 227.383ZM269.367 222.375C269.335 220.983 268.423 220.199 267.223 220.199C266.055 220.199 265.143 220.999 264.999 222.375H269.367ZM273.201 230.279V219.223H274.673V220.455C275.089 219.751 276.017 218.999 277.393 218.999C279.313 218.999 280.849 220.487 280.849 223.191C280.849 225.895 279.313 227.383 277.393 227.383C276.049 227.383 275.105 226.615 274.705 225.927V227.255V230.279H273.201ZM276.977 226.103C278.209 226.103 279.265 225.271 279.265 223.191C279.265 221.095 278.209 220.279 276.977 220.279C275.665 220.279 274.641 221.207 274.641 223.191C274.641 225.175 275.665 226.103 276.977 226.103Z" fill="#DCDCAA"/>
<defs>
<linearGradient id="paint0_linear_2_47373" x1="679" y1="204.633" x2="0" y2="204.633" gradientUnits="userSpaceOnUse">
<stop stop-color="#020202" stop-opacity="0"/>
<stop offset="1" stop-color="#212121"/>
</linearGradient>
</defs>
</svg>
