<svg width="578" height="412" viewBox="0 0 578 412" fill="none" xmlns="http://www.w3.org/2000/svg">
<path d="M25.5775 78.8169H28.601V73.3121H25.9226V72.129H29.9156V78.8169H32.9391V80H25.5775V78.8169ZM27.9601 69.3684C27.9601 68.6783 28.5024 68.136 29.209 68.136C29.8827 68.136 30.4249 68.6783 30.4249 69.3684C30.4249 70.0586 29.8827 70.6173 29.209 70.6173C28.5024 70.6173 27.9601 70.0586 27.9601 69.3684ZM35.4303 72.129H36.712V73.2793C37.205 72.3426 38.1909 71.899 39.2754 71.899C41.3294 71.899 42.3154 73.2957 42.3154 75.0375V80H41.0008V75.3004C41.0008 74.1666 40.4914 73.1314 38.9632 73.1314C37.7144 73.1314 36.7449 74.068 36.7449 75.5798V80H35.4303V72.129ZM45.2831 72.129H46.5649V73.2793C47.0578 72.3426 48.0437 71.899 49.1283 71.899C51.1823 71.899 52.1682 73.2957 52.1682 75.0375V80H50.8536V75.3004C50.8536 74.1666 50.3442 73.1314 48.816 73.1314C47.5672 73.1314 46.5977 74.068 46.5977 75.5798V80H45.2831V72.129ZM55.9083 80.2136C56.0726 81.1831 56.9435 82.1033 58.2581 82.1033C60.0327 82.1033 60.69 80.9859 60.69 79.4577V78.1432C60.345 78.9155 59.4905 79.5563 58.1924 79.5563C56.1055 79.5563 54.643 77.9131 54.643 75.7441C54.643 73.5586 56.089 71.899 58.2252 71.899C59.5398 71.899 60.3943 72.4741 60.7065 73.2464V72.129H62.0046V79.5728C62.0046 81.3803 61.1008 83.3193 58.2416 83.3193C56.3684 83.3193 54.8238 82.1197 54.6266 80.5258L55.9083 80.2136ZM60.7558 75.777C60.7558 74.1502 59.7863 73.0821 58.3567 73.0821C56.9271 73.0821 55.9576 74.1337 55.9576 75.7277C55.9576 77.3216 56.9271 78.3732 58.3567 78.3732C59.7863 78.3732 60.7558 77.3216 60.7558 75.777ZM68.456 80.23C66.402 80.23 64.5452 78.7347 64.5452 76.0399C64.5452 73.5093 66.3855 71.899 68.3245 71.899C70.6579 71.899 72.071 73.5093 72.071 75.8755C72.071 76.0399 72.0546 76.2206 72.0382 76.3356H65.8926V76.4507C65.8926 77.9296 67.0921 79.0141 68.456 79.0141C69.787 79.0141 70.5429 78.2746 70.8551 77.3544L71.9889 77.7652C71.5452 79.1291 70.28 80.23 68.456 80.23ZM70.7072 75.2183C70.6415 74.0516 69.787 73.0657 68.341 73.0657C67.0264 73.0657 66.0076 74.0844 65.9254 75.2183H70.7072ZM78.4567 80.23C76.2384 80.23 75.121 78.8005 74.9074 77.9131L76.1069 77.4202C76.337 78.2418 77.175 79.0469 78.4896 79.0469C79.5412 79.0469 80.1492 78.554 80.1492 77.9131C80.1492 77.338 79.7713 76.9929 78.9004 76.8122L77.3722 76.5C75.8933 76.2042 75.236 75.3497 75.236 74.3309C75.236 72.9999 76.4684 71.899 78.2102 71.899C79.9685 71.899 81.1023 72.8027 81.4638 74.0516L80.3464 74.4953C80.0835 73.7394 79.4098 73.0492 78.2102 73.0492C77.2079 73.0492 76.5342 73.5258 76.5342 74.2323C76.5342 74.7417 76.8464 75.1361 77.6351 75.284L79.1304 75.5798C80.6915 75.892 81.4638 76.6643 81.4638 77.8474C81.4638 78.9483 80.5436 80.23 78.4567 80.23ZM91.2345 72.129V73.3286H88.2274V77.5188C88.2274 78.439 88.8025 78.8826 89.657 78.8826C90.1992 78.8826 90.9058 78.784 91.2345 78.669V79.8685C90.873 80 90.3143 80.1315 89.5091 80.1315C87.8823 80.1315 86.9128 79.3263 86.9128 77.7652V73.3286H84.3823V72.129H85.6804C86.6335 72.129 86.995 71.6361 86.995 70.7652V69.352H88.2274V72.129H91.2345ZM96.5356 78.7512C96.5356 77.9789 97.1436 77.3873 97.883 77.3873C98.6389 77.3873 99.2469 77.9789 99.2469 78.7512C99.2469 79.5235 98.6389 80.0986 97.883 80.0986C97.1436 80.0986 96.5356 79.5235 96.5356 78.7512Z" fill="#52B2FD"/>
<path d="M107.999 80.23C105.846 80.23 104.006 78.6033 104.006 76.0563C104.006 73.4765 105.912 71.899 107.982 71.899C110.119 71.899 111.269 73.1314 111.597 74.3967L110.398 74.8896C110.184 74.068 109.461 73.1314 107.982 73.1314C106.684 73.1314 105.337 74.1173 105.337 76.0563C105.337 77.9789 106.684 78.9976 107.999 78.9976C109.576 78.9976 110.217 77.9296 110.447 77.223L111.597 77.7159C111.219 78.8826 110.069 80.23 107.999 80.23ZM121.319 73.5751C121.105 73.5093 120.777 73.4272 120.218 73.4272C118.591 73.4272 117.72 74.3474 117.72 76.1549V78.8333H120.201V80H114.072V78.8333H116.406V73.2957H114.319V72.129H117.687V73.6736C118.147 72.4577 119.298 72.014 120.234 72.014C120.809 72.014 121.122 72.0962 121.319 72.1619V73.5751ZM127.573 80.23C125.519 80.23 123.662 78.7347 123.662 76.0399C123.662 73.5093 125.503 71.899 127.442 71.899C129.775 71.899 131.188 73.5093 131.188 75.8755C131.188 76.0399 131.172 76.2206 131.155 76.3356H125.01V76.4507C125.01 77.9296 126.209 79.0141 127.573 79.0141C128.904 79.0141 129.66 78.2746 129.972 77.3544L131.106 77.7652C130.662 79.1291 129.397 80.23 127.573 80.23ZM129.824 75.2183C129.758 74.0516 128.904 73.0657 127.458 73.0657C126.143 73.0657 125.125 74.0844 125.042 75.2183H129.824ZM133.827 77.8803C133.827 76.5 134.862 75.777 136.259 75.5798L138.527 75.2511C139.118 75.169 139.233 74.9061 139.233 74.5445C139.233 73.7065 138.609 73.0821 137.344 73.0821C136.111 73.0821 135.323 73.7722 135.224 74.676L133.975 74.4131C134.139 72.9506 135.536 71.899 137.311 71.899C139.578 71.899 140.531 73.1478 140.531 74.676V78.5211C140.531 79.1784 140.63 79.7535 140.696 80H139.414C139.365 79.8521 139.266 79.3263 139.266 78.8169C139.02 79.4577 138.083 80.23 136.604 80.23C134.797 80.23 133.827 79.0634 133.827 77.8803ZM136.801 79.0305C138.083 79.0305 139.233 78.2911 139.233 76.7136V76.1549L136.522 76.5493C135.733 76.6643 135.142 77.0751 135.142 77.7817C135.142 78.4554 135.635 79.0305 136.801 79.0305ZM150.351 72.129V73.3286H147.344V77.5188C147.344 78.439 147.92 78.8826 148.774 78.8826C149.316 78.8826 150.023 78.784 150.351 78.669V79.8685C149.99 80 149.431 80.1315 148.626 80.1315C146.999 80.1315 146.03 79.3263 146.03 77.7652V73.3286H143.499V72.129H144.797C145.75 72.129 146.112 71.6361 146.112 70.7652V69.352H147.344V72.129H150.351ZM157.132 80.23C155.077 80.23 153.221 78.7347 153.221 76.0399C153.221 73.5093 155.061 71.899 157 71.899C159.333 71.899 160.747 73.5093 160.747 75.8755C160.747 76.0399 160.73 76.2206 160.714 76.3356H154.568V76.4507C154.568 77.9296 155.768 79.0141 157.132 79.0141C158.463 79.0141 159.218 78.2746 159.531 77.3544L160.664 77.7652C160.221 79.1291 158.955 80.23 157.132 80.23ZM159.383 75.2183C159.317 74.0516 158.463 73.0657 157.016 73.0657C155.702 73.0657 154.683 74.0844 154.601 75.2183H159.383ZM163.566 68.3496H170.714V69.6314H164.93V73.6901H170.287V74.9718H164.93V80H163.566V68.3496ZM178.661 78.9319C178.283 79.7371 177.314 80.23 176.229 80.23C174.224 80.23 173.206 78.8826 173.206 77.0751V72.129H174.52V76.8615C174.52 77.9953 175.063 79.0305 176.525 79.0305C177.856 79.0305 178.595 78.061 178.595 76.8286V72.129H179.91V78.3568C179.91 78.9648 179.976 79.6878 180.025 80H178.76C178.694 79.77 178.661 79.3263 178.661 78.9319ZM183.223 72.129H184.505V73.2793C184.998 72.3426 185.983 71.899 187.068 71.899C189.122 71.899 190.108 73.2957 190.108 75.0375V80H188.793V75.3004C188.793 74.1666 188.284 73.1314 186.756 73.1314C185.507 73.1314 184.537 74.068 184.537 75.5798V80H183.223V72.129ZM196.674 80.23C194.522 80.23 192.681 78.6033 192.681 76.0563C192.681 73.4765 194.587 71.899 196.658 71.899C198.794 71.899 199.944 73.1314 200.273 74.3967L199.073 74.8896C198.86 74.068 198.137 73.1314 196.658 73.1314C195.36 73.1314 194.012 74.1173 194.012 76.0563C194.012 77.9789 195.36 78.9976 196.674 78.9976C198.252 78.9976 198.893 77.9296 199.123 77.223L200.273 77.7159C199.895 78.8826 198.745 80.23 196.674 80.23ZM209.468 72.129V73.3286H206.461V77.5188C206.461 78.439 207.037 78.8826 207.891 78.8826C208.433 78.8826 209.14 78.784 209.468 78.669V79.8685C209.107 80 208.548 80.1315 207.743 80.1315C206.116 80.1315 205.147 79.3263 205.147 77.7652V73.3286H202.616V72.129H203.914C204.867 72.129 205.229 71.6361 205.229 70.7652V69.352H206.461V72.129H209.468ZM212.781 78.8169H215.805V73.3121H213.126V72.129H217.119V78.8169H220.143V80H212.781V78.8169ZM215.164 69.3684C215.164 68.6783 215.706 68.136 216.413 68.136C217.087 68.136 217.629 68.6783 217.629 69.3684C217.629 70.0586 217.087 70.6173 216.413 70.6173C215.706 70.6173 215.164 70.0586 215.164 69.3684ZM225.986 80.23C223.719 80.23 222.043 78.4882 222.043 76.0563C222.043 73.6408 223.719 71.899 225.986 71.899C228.254 71.899 229.93 73.6408 229.93 76.0563C229.93 78.4882 228.254 80.23 225.986 80.23ZM225.986 79.0305C227.399 79.0305 228.599 77.9624 228.599 76.0563C228.599 74.1666 227.399 73.0985 225.986 73.0985C224.573 73.0985 223.374 74.1666 223.374 76.0563C223.374 77.9624 224.573 79.0305 225.986 79.0305ZM232.487 72.129H233.769V73.2793C234.262 72.3426 235.248 71.899 236.332 71.899C238.386 71.899 239.372 73.2957 239.372 75.0375V80H238.057V75.3004C238.057 74.1666 237.548 73.1314 236.02 73.1314C234.771 73.1314 233.802 74.068 233.802 75.5798V80H232.487V72.129Z" fill="#FD8A72"/>
<path d="M243.654 74.791C243.654 71.0774 245.38 68.629 247.335 67.0515L248.091 67.8403C246.119 69.5328 244.838 71.7018 244.838 74.791C244.838 77.8803 246.119 80.0493 248.091 81.7418L247.335 82.5305C245.38 80.9531 243.654 78.5047 243.654 74.791ZM40.9351 107.399C39.2426 107.399 38.3224 106.495 38.3224 104.704V102.617C38.3224 101.286 37.5665 100.645 36.3834 100.596V98.953C37.5665 98.9037 38.3224 98.2464 38.3224 96.9318V94.845C38.3224 93.0539 39.2426 92.1501 40.9351 92.1501H41.7402V93.2182H41.0994C39.9163 93.2182 39.4726 93.7605 39.4726 94.9436V97.2112C39.4726 98.5586 38.7167 99.6267 37.1885 99.7746C38.7167 99.9061 39.4726 100.991 39.4726 102.338V104.606C39.4726 105.789 39.9491 106.331 41.0994 106.331H41.7402V107.399H40.9351ZM283.624 128.8C283.624 128.061 284.183 127.486 285.005 127.486C285.81 127.486 286.516 128.094 286.516 129.293C286.516 131.808 284.725 132.958 283.181 133.171V132.235C284.512 131.988 285.366 131.002 285.366 129.967C285.301 130 285.103 130.082 284.873 130.082C284.167 130.082 283.624 129.573 283.624 128.8ZM159.169 157.399C157.477 157.399 156.556 156.495 156.556 154.704V152.617C156.556 151.286 155.801 150.645 154.617 150.596V148.953C155.801 148.904 156.556 148.246 156.556 146.932V144.845C156.556 143.054 157.477 142.15 159.169 142.15H159.974V143.218H159.333C158.15 143.218 157.707 143.76 157.707 144.944V147.211C157.707 148.559 156.951 149.627 155.423 149.775C156.951 149.906 157.707 150.991 157.707 152.338V154.606C157.707 155.789 158.183 156.331 159.333 156.331H159.974V157.399H159.169ZM56.3355 232.399H55.5304V231.331H56.1712C57.3215 231.331 57.798 230.789 57.798 229.606V227.338C57.798 225.991 58.5539 224.906 60.082 224.775C58.5539 224.627 57.798 223.559 57.798 222.211V219.944C57.798 218.76 57.3543 218.218 56.1712 218.218H55.5304V217.15H56.3355C58.028 217.15 58.9482 218.054 58.9482 219.845V221.932C58.9482 223.246 59.7041 223.904 60.8872 223.953V225.596C59.7041 225.645 58.9482 226.286 58.9482 227.617V229.704C58.9482 231.495 58.028 232.399 56.3355 232.399ZM46.4827 257.399H45.6775V256.331H46.3184C47.4686 256.331 47.9451 255.789 47.9451 254.606V252.338C47.9451 250.991 48.701 249.906 50.2292 249.775C48.701 249.627 47.9451 248.559 47.9451 247.211V244.944C47.9451 243.76 47.5015 243.218 46.3184 243.218H45.6775V242.15H46.4827C48.1752 242.15 49.0954 243.054 49.0954 244.845V246.932C49.0954 248.246 49.8513 248.904 51.0344 248.953V250.596C49.8513 250.645 49.0954 251.286 49.0954 252.617V254.704C49.0954 256.495 48.1752 257.399 46.4827 257.399ZM57.0092 253.8C57.0092 253.061 57.5679 252.486 58.3895 252.486C59.1947 252.486 59.9013 253.094 59.9013 254.293C59.9013 256.808 58.1102 257.958 56.5656 258.171V257.235C57.8966 256.988 58.751 256.002 58.751 254.967C58.6853 255 58.4881 255.082 58.2581 255.082C57.5515 255.082 57.0092 254.573 57.0092 253.8ZM50.7879 282.399C49.0954 282.399 48.1752 281.495 48.1752 279.704V277.617C48.1752 276.286 47.4193 275.645 46.2362 275.596V273.953C47.4193 273.904 48.1752 273.246 48.1752 271.932V269.845C48.1752 268.054 49.0954 267.15 50.7879 267.15H51.5931V268.218H50.9522C49.7691 268.218 49.3254 268.76 49.3254 269.944V272.211C49.3254 273.559 48.5696 274.627 47.0414 274.775C48.5696 274.906 49.3254 275.991 49.3254 277.338V279.606C49.3254 280.789 49.802 281.331 50.9522 281.331H51.5931V282.399H50.7879ZM78.3088 280.23C76.2548 280.23 74.398 278.735 74.398 276.04C74.398 273.509 76.2384 271.899 78.1774 271.899C80.5107 271.899 81.9239 273.509 81.9239 275.876C81.9239 276.04 81.9075 276.221 81.891 276.336H75.7454V276.451C75.7454 277.93 76.945 279.014 78.3088 279.014C79.6398 279.014 80.3957 278.275 80.7079 277.354L81.8417 277.765C81.3981 279.129 80.1328 280.23 78.3088 280.23ZM80.56 275.218C80.4943 274.052 79.6398 273.066 78.1938 273.066C76.8792 273.066 75.8604 274.084 75.7783 275.218H80.56ZM87.2908 280L83.9057 272.129H85.3846L88.0631 278.702L90.7579 272.129H92.1875L88.8189 280H87.2908ZM98.0145 280.23C95.9605 280.23 94.1037 278.735 94.1037 276.04C94.1037 273.509 95.944 271.899 97.883 271.899C100.216 271.899 101.63 273.509 101.63 275.876C101.63 276.04 101.613 276.221 101.597 276.336H95.4511V276.451C95.4511 277.93 96.6506 279.014 98.0145 279.014C99.3455 279.014 100.101 278.275 100.414 277.354L101.547 277.765C101.104 279.129 99.8385 280.23 98.0145 280.23ZM100.266 275.218C100.2 274.052 99.3455 273.066 97.8995 273.066C96.5849 273.066 95.5661 274.084 95.484 275.218H100.266ZM104.4 272.129H105.682V273.279C106.175 272.343 107.161 271.899 108.245 271.899C110.299 271.899 111.285 273.296 111.285 275.038V280H109.971V275.3C109.971 274.167 109.461 273.131 107.933 273.131C106.684 273.131 105.715 274.068 105.715 275.58V280H104.4V272.129ZM120.793 272.129V273.329H117.786V277.519C117.786 278.439 118.361 278.883 119.215 278.883C119.758 278.883 120.464 278.784 120.793 278.669V279.869C120.431 280 119.873 280.131 119.068 280.131C117.441 280.131 116.471 279.326 116.471 277.765V273.329H113.941V272.129H115.239C116.192 272.129 116.553 271.636 116.553 270.765V269.352H117.786V272.129H120.793ZM125.979 278.751C125.979 277.979 126.587 277.387 127.327 277.387C128.082 277.387 128.69 277.979 128.69 278.751C128.69 279.523 128.082 280.099 127.327 280.099C126.587 280.099 125.979 279.523 125.979 278.751ZM125.979 273.23C125.979 272.458 126.587 271.866 127.327 271.866C128.082 271.866 128.69 272.458 128.69 273.23C128.69 274.002 128.082 274.577 127.327 274.577C126.587 274.577 125.979 274.002 125.979 273.23ZM440.596 282.399H439.791V281.331H440.432C441.582 281.331 442.059 280.789 442.059 279.606V277.338C442.059 275.991 442.814 274.906 444.343 274.775C442.814 274.627 442.059 273.559 442.059 272.211V269.944C442.059 268.76 441.615 268.218 440.432 268.218H439.791V267.15H440.596C442.289 267.15 443.209 268.054 443.209 269.845V271.932C443.209 273.246 443.965 273.904 445.148 273.953V275.596C443.965 275.645 443.209 276.286 443.209 277.617V279.704C443.209 281.495 442.289 282.399 440.596 282.399ZM451.123 278.8C451.123 278.061 451.681 277.486 452.503 277.486C453.308 277.486 454.015 278.094 454.015 279.293C454.015 281.808 452.224 282.958 450.679 283.171V282.235C452.01 281.988 452.864 281.002 452.864 279.967C452.799 280 452.602 280.082 452.371 280.082C451.665 280.082 451.123 279.573 451.123 278.8ZM105.715 299.791C105.715 296.077 107.44 293.629 109.396 292.052L110.151 292.84C108.18 294.533 106.898 296.702 106.898 299.791C106.898 302.88 108.18 305.049 110.151 306.742L109.396 307.531C107.44 305.953 105.715 303.505 105.715 299.791ZM119.758 307.399C118.065 307.399 117.145 306.495 117.145 304.704V302.617C117.145 301.286 116.389 300.645 115.206 300.596V298.953C116.389 298.904 117.145 298.246 117.145 296.932V294.845C117.145 293.054 118.065 292.15 119.758 292.15H120.563V293.218H119.922C118.739 293.218 118.295 293.76 118.295 294.944V297.211C118.295 298.559 117.539 299.627 116.011 299.775C117.539 299.906 118.295 300.991 118.295 302.338V304.606C118.295 305.789 118.772 306.331 119.922 306.331H120.563V307.399H119.758ZM185.096 303.8C185.096 303.061 185.655 302.486 186.476 302.486C187.282 302.486 187.988 303.094 187.988 304.293C187.988 306.808 186.197 307.958 184.652 308.171V307.235C185.983 306.988 186.838 306.002 186.838 304.967C186.772 305 186.575 305.082 186.345 305.082C185.638 305.082 185.096 304.573 185.096 303.8ZM253.392 307.399H252.587V306.331H253.228C254.378 306.331 254.855 305.789 254.855 304.606V302.338C254.855 300.991 255.611 299.906 257.139 299.775C255.611 299.627 254.855 298.559 254.855 297.211V294.944C254.855 293.76 254.411 293.218 253.228 293.218H252.587V292.15H253.392C255.085 292.15 256.005 293.054 256.005 294.845V296.932C256.005 298.246 256.761 298.904 257.944 298.953V300.596C256.761 300.645 256.005 301.286 256.005 302.617V304.704C256.005 306.495 255.085 307.399 253.392 307.399ZM267.435 299.791C267.435 303.505 265.71 305.953 263.754 307.531L262.999 306.742C264.97 305.049 266.252 302.88 266.252 299.791C266.252 296.702 264.97 294.533 262.999 292.84L263.754 292.052C265.71 293.629 267.435 296.077 267.435 299.791ZM281.357 298.131H288.85V299.232H281.357V298.131ZM281.357 301.303H288.85V302.42H281.357V301.303ZM291.834 304.261V302.946L297.175 300.284L291.834 297.622V296.291L298.522 299.692V300.876L291.834 304.261ZM316.814 307.399C315.122 307.399 314.202 306.495 314.202 304.704V302.617C314.202 301.286 313.446 300.645 312.263 300.596V298.953C313.446 298.904 314.202 298.246 314.202 296.932V294.845C314.202 293.054 315.122 292.15 316.814 292.15H317.62V293.218H316.979C315.796 293.218 315.352 293.76 315.352 294.944V297.211C315.352 298.559 314.596 299.627 313.068 299.775C314.596 299.906 315.352 300.991 315.352 302.338V304.606C315.352 305.789 315.829 306.331 316.979 306.331H317.62V307.399H316.814ZM46.4827 357.399H45.6775V356.331H46.3184C47.4686 356.331 47.9451 355.789 47.9451 354.606V352.338C47.9451 350.991 48.701 349.906 50.2292 349.775C48.701 349.627 47.9451 348.559 47.9451 347.211V344.944C47.9451 343.76 47.5015 343.218 46.3184 343.218H45.6775V342.15H46.4827C48.1752 342.15 49.0954 343.054 49.0954 344.845V346.932C49.0954 348.246 49.8513 348.904 51.0344 348.953V350.596C49.8513 350.645 49.0954 351.286 49.0954 352.617V354.704C49.0954 356.495 48.1752 357.399 46.4827 357.399ZM30.9672 374.791C30.9672 378.505 29.2418 380.953 27.2864 382.531L26.5305 381.742C28.5024 380.049 29.7841 377.88 29.7841 374.791C29.7841 371.702 28.5024 369.533 26.5305 367.84L27.2864 367.052C29.2418 368.629 30.9672 371.077 30.9672 374.791Z" fill="white"/>
<path d="M55.136 128.817H58.1595V123.312H55.4811V122.129H59.4741V128.817H62.4976V130H55.136V128.817ZM57.5186 119.368C57.5186 118.678 58.0609 118.136 58.7675 118.136C59.4412 118.136 59.9835 118.678 59.9835 119.368C59.9835 120.059 59.4412 120.617 58.7675 120.617C58.0609 120.617 57.5186 120.059 57.5186 119.368ZM70.5922 128.702C70.2142 129.523 69.3433 130.23 67.8973 130.23C65.6625 130.23 64.2329 128.39 64.2329 126.056C64.2329 123.772 65.7447 121.899 67.963 121.899C69.4583 121.899 70.2635 122.606 70.5593 123.312V118.12H71.8739V128.521C71.8739 129.31 71.9232 129.836 71.956 130H70.6743C70.6415 129.819 70.5922 129.376 70.5922 128.866V128.702ZM68.0945 129.031C69.6391 129.031 70.5922 127.782 70.5922 126.056C70.5922 124.331 69.6555 123.099 68.0945 123.099C66.5827 123.099 65.5639 124.331 65.5639 126.056C65.5639 127.782 66.5992 129.031 68.0945 129.031ZM76.7149 128.751C76.7149 127.979 77.3229 127.387 78.0623 127.387C78.8182 127.387 79.4262 127.979 79.4262 128.751C79.4262 129.523 78.8182 130.099 78.0623 130.099C77.3229 130.099 76.7149 129.523 76.7149 128.751ZM76.7149 123.23C76.7149 122.458 77.3229 121.866 78.0623 121.866C78.8182 121.866 79.4262 122.458 79.4262 123.23C79.4262 124.002 78.8182 124.577 78.0623 124.577C77.3229 124.577 76.7149 124.002 76.7149 123.23ZM54.9388 147.129H56.2205V148.444C56.582 147.638 57.4693 146.899 58.9482 146.899C61.298 146.899 62.5962 148.739 62.5962 151.056C62.5962 153.406 61.183 155.23 58.8825 155.23C57.4858 155.23 56.6149 154.606 56.2534 153.899V158.122H54.9388V147.129ZM58.7182 154.047C60.2464 154.047 61.2652 152.798 61.2652 151.056C61.2652 149.314 60.2464 148.082 58.7182 148.082C57.2064 148.082 56.2205 149.314 56.2205 151.056C56.2205 152.798 57.2229 154.047 58.7182 154.047ZM72.0546 148.575C71.841 148.509 71.5124 148.427 70.9537 148.427C69.3269 148.427 68.456 149.347 68.456 151.155V153.833H70.9372V155H64.8081V153.833H67.1414V148.296H65.0545V147.129H68.4231V148.674C68.8832 147.458 70.0335 147.014 70.9701 147.014C71.5452 147.014 71.8574 147.096 72.0546 147.162V148.575ZM74.8417 153.817H77.8652V148.312H75.1867V147.129H79.1797V153.817H82.2032V155H74.8417V153.817ZM77.2243 144.368C77.2243 143.678 77.7666 143.136 78.4731 143.136C79.1469 143.136 79.6891 143.678 79.6891 144.368C79.6891 145.059 79.1469 145.617 78.4731 145.617C77.7666 145.617 77.2243 145.059 77.2243 144.368ZM88.0466 155.23C85.779 155.23 84.1029 153.488 84.1029 151.056C84.1029 148.641 85.779 146.899 88.0466 146.899C90.3143 146.899 91.9903 148.641 91.9903 151.056C91.9903 153.488 90.3143 155.23 88.0466 155.23ZM88.0466 154.031C89.4598 154.031 90.6593 152.962 90.6593 151.056C90.6593 149.167 89.4598 148.099 88.0466 148.099C86.6335 148.099 85.4339 149.167 85.4339 151.056C85.4339 152.962 86.6335 154.031 88.0466 154.031ZM101.613 148.575C101.4 148.509 101.071 148.427 100.512 148.427C98.8854 148.427 98.0145 149.347 98.0145 151.155V153.833H100.496V155H94.3666V153.833H96.6999V148.296H94.613V147.129H97.9816V148.674C98.4417 147.458 99.592 147.014 100.529 147.014C101.104 147.014 101.416 147.096 101.613 147.162V148.575ZM104.4 153.817H107.424V148.312H104.745V147.129H108.738V153.817H111.762V155H104.4V153.817ZM106.783 144.368C106.783 143.678 107.325 143.136 108.032 143.136C108.705 143.136 109.248 143.678 109.248 144.368C109.248 145.059 108.705 145.617 108.032 145.617C107.325 145.617 106.783 145.059 106.783 144.368ZM120.793 147.129V148.329H117.786V152.519C117.786 153.439 118.361 153.883 119.215 153.883C119.758 153.883 120.464 153.784 120.793 153.669V154.869C120.431 155 119.873 155.131 119.068 155.131C117.441 155.131 116.471 154.326 116.471 152.765V148.329H113.941V147.129H115.239C116.192 147.129 116.553 146.636 116.553 145.765V144.352H117.786V147.129H120.793ZM130.12 147.129H131.566L126.193 158.122H124.73L126.883 153.8L123.35 147.129H124.878L127.573 152.387L130.12 147.129ZM135.832 153.751C135.832 152.979 136.44 152.387 137.179 152.387C137.935 152.387 138.543 152.979 138.543 153.751C138.543 154.523 137.935 155.099 137.179 155.099C136.44 155.099 135.832 154.523 135.832 153.751ZM135.832 148.23C135.832 147.458 136.44 146.866 137.179 146.866C137.935 146.866 138.543 147.458 138.543 148.23C138.543 149.002 137.935 149.577 137.179 149.577C136.44 149.577 135.832 149.002 135.832 148.23ZM81.9075 198.575C81.6938 198.509 81.3652 198.427 80.8065 198.427C79.1797 198.427 78.3088 199.347 78.3088 201.155V203.833H80.7901V205H74.6609V203.833H76.9943V198.296H74.9074V197.129H78.276V198.674C78.7361 197.458 79.8863 197.014 80.8229 197.014C81.3981 197.014 81.7103 197.096 81.9075 197.162V198.575ZM89.9856 203.932C89.6077 204.737 88.6382 205.23 87.5537 205.23C85.549 205.23 84.5302 203.883 84.5302 202.075V197.129H85.8447V201.861C85.8447 202.995 86.387 204.031 87.8495 204.031C89.1804 204.031 89.9199 203.061 89.9199 201.829V197.129H91.2345V203.357C91.2345 203.965 91.3002 204.688 91.3495 205H90.0842C90.0185 204.77 89.9856 204.326 89.9856 203.932ZM94.5473 197.129H95.829V198.279C96.322 197.343 97.3079 196.899 98.3924 196.899C100.446 196.899 101.432 198.296 101.432 200.038V205H100.118V200.3C100.118 199.167 99.6084 198.131 98.0802 198.131C96.8314 198.131 95.8619 199.068 95.8619 200.58V205H94.5473V197.129ZM106.273 203.751C106.273 202.979 106.881 202.387 107.621 202.387C108.377 202.387 108.985 202.979 108.985 203.751C108.985 204.523 108.377 205.099 107.621 205.099C106.881 205.099 106.273 204.523 106.273 203.751ZM106.273 198.23C106.273 197.458 106.881 196.866 107.621 196.866C108.377 196.866 108.985 197.458 108.985 198.23C108.985 199.002 108.377 199.577 107.621 199.577C106.881 199.577 106.273 199.002 106.273 198.23Z" fill="#9CDCFE"/>
<path d="M98.606 118.958C97.6366 119.138 96.8971 119.96 96.8642 120.782C96.9135 120.749 97.0779 120.699 97.275 120.699C97.8502 120.699 98.3103 121.094 98.3103 121.768C98.3103 122.359 97.8337 122.852 97.16 122.852C96.4863 122.852 95.8948 122.326 95.8948 121.324C95.8948 119.336 97.5051 118.267 98.606 118.103V118.958ZM101.564 118.958C100.594 119.138 99.8549 119.96 99.822 120.782C99.8713 120.749 100.036 120.699 100.233 120.699C100.808 120.699 101.268 121.094 101.268 121.768C101.268 122.359 100.792 122.852 100.118 122.852C99.4441 122.852 98.8525 122.326 98.8525 121.324C98.8525 119.336 100.463 118.267 101.564 118.103V118.958ZM108.015 130.23C105.797 130.23 104.68 128.8 104.466 127.913L105.665 127.42C105.895 128.242 106.734 129.047 108.048 129.047C109.1 129.047 109.708 128.554 109.708 127.913C109.708 127.338 109.33 126.993 108.459 126.812L106.931 126.5C105.452 126.204 104.795 125.35 104.795 124.331C104.795 123 106.027 121.899 107.769 121.899C109.527 121.899 110.661 122.803 111.022 124.052L109.905 124.495C109.642 123.739 108.968 123.049 107.769 123.049C106.766 123.049 106.093 123.526 106.093 124.232C106.093 124.742 106.405 125.136 107.194 125.284L108.689 125.58C110.25 125.892 111.022 126.664 111.022 127.847C111.022 128.948 110.102 130.23 108.015 130.23ZM120.267 122.129H121.713L116.34 133.122H114.877L117.03 128.8L113.497 122.129H115.025L117.72 127.387L120.267 122.129ZM124.106 122.129H125.388V123.279C125.88 122.343 126.866 121.899 127.951 121.899C130.005 121.899 130.991 123.296 130.991 125.038V130H129.676V125.3C129.676 124.167 129.167 123.131 127.639 123.131C126.39 123.131 125.42 124.068 125.42 125.58V130H124.106V122.129ZM137.557 130.23C135.405 130.23 133.564 128.603 133.564 126.056C133.564 123.476 135.47 121.899 137.541 121.899C139.677 121.899 140.827 123.131 141.156 124.397L139.956 124.89C139.743 124.068 139.02 123.131 137.541 123.131C136.243 123.131 134.895 124.117 134.895 126.056C134.895 127.979 136.243 128.998 137.557 128.998C139.135 128.998 139.776 127.93 140.006 127.223L141.156 127.716C140.778 128.883 139.628 130.23 137.557 130.23ZM144.321 124.709H150.006V125.859H144.321V124.709ZM153.533 127.88C153.533 126.5 154.568 125.777 155.965 125.58L158.232 125.251C158.824 125.169 158.939 124.906 158.939 124.545C158.939 123.707 158.315 123.082 157.049 123.082C155.817 123.082 155.028 123.772 154.93 124.676L153.681 124.413C153.845 122.951 155.242 121.899 157.016 121.899C159.284 121.899 160.237 123.148 160.237 124.676V128.521C160.237 129.178 160.336 129.754 160.401 130H159.12C159.07 129.852 158.972 129.326 158.972 128.817C158.725 129.458 157.789 130.23 156.31 130.23C154.502 130.23 153.533 129.063 153.533 127.88ZM156.507 129.031C157.789 129.031 158.939 128.291 158.939 126.714V126.155L156.228 126.549C155.439 126.664 154.847 127.075 154.847 127.782C154.847 128.455 155.34 129.031 156.507 129.031ZM167.116 130.23C164.963 130.23 163.123 128.603 163.123 126.056C163.123 123.476 165.029 121.899 167.099 121.899C169.236 121.899 170.386 123.131 170.714 124.397L169.515 124.89C169.301 124.068 168.578 123.131 167.099 123.131C165.801 123.131 164.454 124.117 164.454 126.056C164.454 127.979 165.801 128.998 167.116 128.998C168.693 128.998 169.334 127.93 169.564 127.223L170.714 127.716C170.336 128.883 169.186 130.23 167.116 130.23ZM176.969 130.23C174.816 130.23 172.976 128.603 172.976 126.056C172.976 123.476 174.882 121.899 176.952 121.899C179.088 121.899 180.239 123.131 180.567 124.397L179.368 124.89C179.154 124.068 178.431 123.131 176.952 123.131C175.654 123.131 174.307 124.117 174.307 126.056C174.307 127.979 175.654 128.998 176.969 128.998C178.546 128.998 179.187 127.93 179.417 127.223L180.567 127.716C180.189 128.883 179.039 130.23 176.969 130.23ZM186.575 130.23C184.307 130.23 182.631 128.488 182.631 126.056C182.631 123.641 184.307 121.899 186.575 121.899C188.843 121.899 190.519 123.641 190.519 126.056C190.519 128.488 188.843 130.23 186.575 130.23ZM186.575 129.031C187.988 129.031 189.188 127.962 189.188 126.056C189.188 124.167 187.988 123.099 186.575 123.099C185.162 123.099 183.962 124.167 183.962 126.056C183.962 127.962 185.162 129.031 186.575 129.031ZM198.367 128.932C197.989 129.737 197.019 130.23 195.935 130.23C193.93 130.23 192.911 128.883 192.911 127.075V122.129H194.226V126.861C194.226 127.995 194.768 129.031 196.231 129.031C197.562 129.031 198.301 128.061 198.301 126.829V122.129H199.616V128.357C199.616 128.965 199.681 129.688 199.731 130H198.465C198.4 129.77 198.367 129.326 198.367 128.932ZM202.929 122.129H204.21V123.279C204.703 122.343 205.689 121.899 206.774 121.899C208.828 121.899 209.814 123.296 209.814 125.038V130H208.499V125.3C208.499 124.167 207.99 123.131 206.461 123.131C205.213 123.131 204.243 124.068 204.243 125.58V130H202.929V122.129ZM219.321 122.129V123.329H216.314V127.519C216.314 128.439 216.889 128.883 217.744 128.883C218.286 128.883 218.993 128.784 219.321 128.669V129.869C218.96 130 218.401 130.131 217.596 130.131C215.969 130.131 215 129.326 215 127.765V123.329H212.469V122.129H213.767C214.72 122.129 215.082 121.636 215.082 120.765V119.352H216.314V122.129H219.321ZM223.144 124.709H228.829V125.859H223.144V124.709ZM238.09 128.702C237.712 129.523 236.842 130.23 235.395 130.23C233.161 130.23 231.731 128.39 231.731 126.056C231.731 123.772 233.243 121.899 235.461 121.899C236.957 121.899 237.762 122.606 238.057 123.312V118.12H239.372V128.521C239.372 129.31 239.421 129.836 239.454 130H238.173C238.14 129.819 238.09 129.376 238.09 128.866V128.702ZM235.593 129.031C237.137 129.031 238.09 127.782 238.09 126.056C238.09 124.331 237.154 123.099 235.593 123.099C234.081 123.099 233.062 124.331 233.062 126.056C233.062 127.782 234.097 129.031 235.593 129.031ZM242.208 127.88C242.208 126.5 243.244 125.777 244.64 125.58L246.908 125.251C247.5 125.169 247.615 124.906 247.615 124.545C247.615 123.707 246.99 123.082 245.725 123.082C244.492 123.082 243.704 123.772 243.605 124.676L242.356 124.413C242.521 122.951 243.917 121.899 245.692 121.899C247.96 121.899 248.913 123.148 248.913 124.676V128.521C248.913 129.178 249.011 129.754 249.077 130H247.795C247.746 129.852 247.647 129.326 247.647 128.817C247.401 129.458 246.464 130.23 244.985 130.23C243.178 130.23 242.208 129.063 242.208 127.88ZM245.183 129.031C246.464 129.031 247.615 128.291 247.615 126.714V126.155L244.903 126.549C244.115 126.664 243.523 127.075 243.523 127.782C243.523 128.455 244.016 129.031 245.183 129.031ZM258.733 122.129V123.329H255.726V127.519C255.726 128.439 256.301 128.883 257.155 128.883C257.697 128.883 258.404 128.784 258.733 128.669V129.869C258.371 130 257.812 130.131 257.007 130.131C255.381 130.131 254.411 129.326 254.411 127.765V123.329H251.88V122.129H253.179C254.132 122.129 254.493 121.636 254.493 120.765V119.352H255.726V122.129H258.733ZM261.914 127.88C261.914 126.5 262.949 125.777 264.346 125.58L266.614 125.251C267.205 125.169 267.32 124.906 267.32 124.545C267.32 123.707 266.696 123.082 265.431 123.082C264.198 123.082 263.409 123.772 263.311 124.676L262.062 124.413C262.226 122.951 263.623 121.899 265.398 121.899C267.665 121.899 268.618 123.148 268.618 124.676V128.521C268.618 129.178 268.717 129.754 268.783 130H267.501C267.452 129.852 267.353 129.326 267.353 128.817C267.107 129.458 266.17 130.23 264.691 130.23C262.884 130.23 261.914 129.063 261.914 127.88ZM264.888 129.031C266.17 129.031 267.32 128.291 267.32 126.714V126.155L264.609 126.549C263.82 126.664 263.229 127.075 263.229 127.782C263.229 128.455 263.722 129.031 264.888 129.031ZM275.563 122.096C276.532 121.915 277.272 121.094 277.304 120.272C277.255 120.305 277.091 120.354 276.894 120.354C276.319 120.354 275.858 119.96 275.858 119.286C275.858 118.695 276.335 118.202 277.009 118.202C277.682 118.202 278.274 118.728 278.274 119.73C278.274 121.718 276.664 122.786 275.563 122.951V122.096ZM272.605 122.096C273.574 121.915 274.314 121.094 274.347 120.272C274.297 120.305 274.133 120.354 273.936 120.354C273.361 120.354 272.901 119.96 272.901 119.286C272.901 118.695 273.377 118.202 274.051 118.202C274.725 118.202 275.316 118.728 275.316 119.73C275.316 121.718 273.706 122.786 272.605 122.951V122.096ZM128.165 193.958C127.195 194.138 126.456 194.96 126.423 195.782C126.472 195.749 126.636 195.699 126.834 195.699C127.409 195.699 127.869 196.094 127.869 196.768C127.869 197.359 127.392 197.852 126.719 197.852C126.045 197.852 125.453 197.326 125.453 196.324C125.453 194.336 127.064 193.267 128.165 193.103V193.958ZM131.122 193.958C130.153 194.138 129.413 194.96 129.381 195.782C129.43 195.749 129.594 195.699 129.791 195.699C130.366 195.699 130.827 196.094 130.827 196.768C130.827 197.359 130.35 197.852 129.676 197.852C129.003 197.852 128.411 197.326 128.411 196.324C128.411 194.336 130.021 193.267 131.122 193.103V193.958ZM137.426 205.23C135.372 205.23 133.515 203.735 133.515 201.04C133.515 198.509 135.355 196.899 137.294 196.899C139.628 196.899 141.041 198.509 141.041 200.876C141.041 201.04 141.024 201.221 141.008 201.336H134.862V201.451C134.862 202.93 136.062 204.014 137.426 204.014C138.757 204.014 139.513 203.275 139.825 202.354L140.959 202.765C140.515 204.129 139.25 205.23 137.426 205.23ZM139.677 200.218C139.611 199.052 138.757 198.066 137.311 198.066C135.996 198.066 134.977 199.084 134.895 200.218H139.677ZM146.408 205L143.023 197.129H144.502L147.18 203.702L149.875 197.129H151.305L147.936 205H146.408ZM157.132 205.23C155.077 205.23 153.221 203.735 153.221 201.04C153.221 198.509 155.061 196.899 157 196.899C159.333 196.899 160.747 198.509 160.747 200.876C160.747 201.04 160.73 201.221 160.714 201.336H154.568V201.451C154.568 202.93 155.768 204.014 157.132 204.014C158.463 204.014 159.218 203.275 159.531 202.354L160.664 202.765C160.221 204.129 158.955 205.23 157.132 205.23ZM159.383 200.218C159.317 199.052 158.463 198.066 157.016 198.066C155.702 198.066 154.683 199.084 154.601 200.218H159.383ZM163.517 197.129H164.799V198.279C165.292 197.343 166.278 196.899 167.362 196.899C169.416 196.899 170.402 198.296 170.402 200.038V205H169.088V200.3C169.088 199.167 168.578 198.131 167.05 198.131C165.801 198.131 164.832 199.068 164.832 200.58V205H163.517V197.129ZM179.91 197.129V198.329H176.903V202.519C176.903 203.439 177.478 203.883 178.332 203.883C178.875 203.883 179.581 203.784 179.91 203.669V204.869C179.548 205 178.99 205.131 178.185 205.131C176.558 205.131 175.588 204.326 175.588 202.765V198.329H173.058V197.129H174.356C175.309 197.129 175.67 196.636 175.67 195.765V194.352H176.903V197.129H179.91ZM185.211 203.751C185.211 202.979 185.819 202.387 186.559 202.387C187.314 202.387 187.922 202.979 187.922 203.751C187.922 204.523 187.314 205.099 186.559 205.099C185.819 205.099 185.211 204.523 185.211 203.751ZM198.679 203.702C198.301 204.523 197.43 205.23 195.984 205.23C193.749 205.23 192.32 203.39 192.32 201.056C192.32 198.772 193.832 196.899 196.05 196.899C197.545 196.899 198.35 197.606 198.646 198.312V193.12H199.961V203.521C199.961 204.31 200.01 204.836 200.043 205H198.761C198.728 204.819 198.679 204.376 198.679 203.866V203.702ZM196.181 204.031C197.726 204.031 198.679 202.782 198.679 201.056C198.679 199.331 197.742 198.099 196.181 198.099C194.67 198.099 193.651 199.331 193.651 201.056C193.651 202.782 194.686 204.031 196.181 204.031ZM202.797 202.88C202.797 201.5 203.832 200.777 205.229 200.58L207.497 200.251C208.088 200.169 208.203 199.906 208.203 199.545C208.203 198.707 207.579 198.082 206.314 198.082C205.081 198.082 204.292 198.772 204.194 199.676L202.945 199.413C203.109 197.951 204.506 196.899 206.281 196.899C208.548 196.899 209.501 198.148 209.501 199.676V203.521C209.501 204.178 209.6 204.754 209.666 205H208.384C208.335 204.852 208.236 204.326 208.236 203.817C207.99 204.458 207.053 205.23 205.574 205.23C203.767 205.23 202.797 204.063 202.797 202.88ZM205.771 204.031C207.053 204.031 208.203 203.291 208.203 201.714V201.155L205.492 201.549C204.703 201.664 204.112 202.075 204.112 202.782C204.112 203.455 204.605 204.031 205.771 204.031ZM219.321 197.129V198.329H216.314V202.519C216.314 203.439 216.889 203.883 217.744 203.883C218.286 203.883 218.993 203.784 219.321 203.669V204.869C218.96 205 218.401 205.131 217.596 205.131C215.969 205.131 215 204.326 215 202.765V198.329H212.469V197.129H213.767C214.72 197.129 215.082 196.636 215.082 195.765V194.352H216.314V197.129H219.321ZM222.503 202.88C222.503 201.5 223.538 200.777 224.935 200.58L227.202 200.251C227.794 200.169 227.909 199.906 227.909 199.545C227.909 198.707 227.284 198.082 226.019 198.082C224.787 198.082 223.998 198.772 223.899 199.676L222.651 199.413C222.815 197.951 224.212 196.899 225.986 196.899C228.254 196.899 229.207 198.148 229.207 199.676V203.521C229.207 204.178 229.306 204.754 229.371 205H228.09C228.04 204.852 227.942 204.326 227.942 203.817C227.695 204.458 226.759 205.23 225.28 205.23C223.472 205.23 222.503 204.063 222.503 202.88ZM225.477 204.031C226.759 204.031 227.909 203.291 227.909 201.714V201.155L225.198 201.549C224.409 201.664 223.817 202.075 223.817 202.782C223.817 203.455 224.31 204.031 225.477 204.031ZM234.475 203.751C234.475 202.979 235.083 202.387 235.823 202.387C236.579 202.387 237.187 202.979 237.187 203.751C237.187 204.523 236.579 205.099 235.823 205.099C235.083 205.099 234.475 204.523 234.475 203.751ZM242.34 203.817H245.363V198.312H242.685V197.129H246.678V203.817H249.701V205H242.34V203.817ZM244.722 194.368C244.722 193.678 245.265 193.136 245.971 193.136C246.645 193.136 247.187 193.678 247.187 194.368C247.187 195.059 246.645 195.617 245.971 195.617C245.265 195.617 244.722 195.059 244.722 194.368ZM255.808 205.23C253.589 205.23 252.472 203.8 252.258 202.913L253.458 202.42C253.688 203.242 254.526 204.047 255.841 204.047C256.892 204.047 257.5 203.554 257.5 202.913C257.5 202.338 257.122 201.993 256.251 201.812L254.723 201.5C253.244 201.204 252.587 200.35 252.587 199.331C252.587 198 253.819 196.899 255.561 196.899C257.319 196.899 258.453 197.803 258.815 199.052L257.697 199.495C257.435 198.739 256.761 198.049 255.561 198.049C254.559 198.049 253.885 198.526 253.885 199.232C253.885 199.742 254.197 200.136 254.986 200.284L256.481 200.58C258.043 200.892 258.815 201.664 258.815 202.847C258.815 203.948 257.895 205.23 255.808 205.23ZM265.398 205.23C262.916 205.23 261.142 203.225 261.142 199.167C261.142 195.108 262.916 193.12 265.398 193.12C267.879 193.12 269.654 195.108 269.654 199.167C269.654 203.225 267.879 205.23 265.398 205.23ZM265.398 203.915C267.139 203.915 268.273 202.42 268.273 199.167C268.273 195.913 267.139 194.434 265.398 194.434C263.656 194.434 262.522 195.913 262.522 199.167C262.522 202.42 263.656 203.915 265.398 203.915ZM271.898 197.129H273.18V198.279C273.673 197.343 274.659 196.899 275.743 196.899C277.797 196.899 278.783 198.296 278.783 200.038V205H277.469V200.3C277.469 199.167 276.959 198.131 275.431 198.131C274.182 198.131 273.213 199.068 273.213 200.58V205H271.898V197.129ZM285.662 205.23C284.265 205.23 283.362 204.556 282.934 203.735V205H281.653V193.12H282.967V198.312C283.378 197.606 284.216 196.899 285.662 196.899C288.028 196.899 289.31 198.756 289.31 201.056C289.31 203.406 287.979 205.23 285.662 205.23ZM285.465 204.031C287.009 204.031 287.979 202.798 287.979 201.056C287.979 199.314 287.026 198.099 285.465 198.099C283.904 198.099 282.934 199.314 282.934 201.056C282.934 202.798 283.92 204.031 285.465 204.031ZM294.956 205.23C292.689 205.23 291.012 203.488 291.012 201.056C291.012 198.641 292.689 196.899 294.956 196.899C297.224 196.899 298.9 198.641 298.9 201.056C298.9 203.488 297.224 205.23 294.956 205.23ZM294.956 204.031C296.369 204.031 297.569 202.962 297.569 201.056C297.569 199.167 296.369 198.099 294.956 198.099C293.543 198.099 292.343 199.167 292.343 201.056C292.343 202.962 293.543 204.031 294.956 204.031ZM301.325 202.88C301.325 201.5 302.361 200.777 303.757 200.58L306.025 200.251C306.617 200.169 306.732 199.906 306.732 199.545C306.732 198.707 306.107 198.082 304.842 198.082C303.609 198.082 302.821 198.772 302.722 199.676L301.473 199.413C301.638 197.951 303.034 196.899 304.809 196.899C307.077 196.899 308.03 198.148 308.03 199.676V203.521C308.03 204.178 308.128 204.754 308.194 205H306.912C306.863 204.852 306.764 204.326 306.764 203.817C306.518 204.458 305.581 205.23 304.102 205.23C302.295 205.23 301.325 204.063 301.325 202.88ZM304.3 204.031C305.581 204.031 306.732 203.291 306.732 201.714V201.155L304.02 201.549C303.232 201.664 302.64 202.075 302.64 202.782C302.64 203.455 303.133 204.031 304.3 204.031ZM318.375 198.575C318.162 198.509 317.833 198.427 317.275 198.427C315.648 198.427 314.777 199.347 314.777 201.155V203.833H317.258V205H311.129V203.833H313.462V198.296H311.375V197.129H314.744V198.674C315.204 197.458 316.354 197.014 317.291 197.014C317.866 197.014 318.178 197.096 318.375 197.162V198.575ZM326.766 203.702C326.388 204.523 325.517 205.23 324.071 205.23C321.836 205.23 320.407 203.39 320.407 201.056C320.407 198.772 321.918 196.899 324.137 196.899C325.632 196.899 326.437 197.606 326.733 198.312V193.12H328.048V203.521C328.048 204.31 328.097 204.836 328.13 205H326.848C326.815 204.819 326.766 204.376 326.766 203.866V203.702ZM324.268 204.031C325.813 204.031 326.766 202.782 326.766 201.056C326.766 199.331 325.829 198.099 324.268 198.099C322.756 198.099 321.738 199.331 321.738 201.056C321.738 202.782 322.773 204.031 324.268 204.031ZM331.015 203.817H334.039V198.312H331.36V197.129H335.353V203.817H338.377V205H331.015V203.817ZM333.398 194.368C333.398 193.678 333.94 193.136 334.647 193.136C335.321 193.136 335.863 193.678 335.863 194.368C335.863 195.059 335.321 195.617 334.647 195.617C333.94 195.617 333.398 195.059 333.398 194.368ZM340.868 197.129H342.15V198.279C342.643 197.343 343.629 196.899 344.713 196.899C346.767 196.899 347.753 198.296 347.753 200.038V205H346.439V200.3C346.439 199.167 345.929 198.131 344.401 198.131C343.152 198.131 342.183 199.068 342.183 200.58V205H340.868V197.129ZM351.493 205.214C351.658 206.183 352.529 207.103 353.843 207.103C355.618 207.103 356.275 205.986 356.275 204.458V203.143C355.93 203.915 355.076 204.556 353.777 204.556C351.691 204.556 350.228 202.913 350.228 200.744C350.228 198.559 351.674 196.899 353.81 196.899C355.125 196.899 355.979 197.474 356.292 198.246V197.129H357.59V204.573C357.59 206.38 356.686 208.319 353.827 208.319C351.953 208.319 350.409 207.12 350.212 205.526L351.493 205.214ZM356.341 200.777C356.341 199.15 355.371 198.082 353.942 198.082C352.512 198.082 351.543 199.134 351.543 200.728C351.543 202.322 352.512 203.373 353.942 203.373C355.371 203.373 356.341 202.322 356.341 200.777ZM372.974 201.648C372.957 201.467 372.941 201.27 372.941 201.056C372.941 200.021 373.352 199.265 374.272 198.624L374.995 198.115C375.603 197.688 375.981 197.063 375.981 196.34C375.981 195.289 375.274 194.368 373.877 194.368C372.349 194.368 371.676 195.469 371.676 196.587C371.676 196.85 371.692 197.178 371.758 197.376L370.427 197.244C370.361 196.981 370.328 196.718 370.328 196.422C370.328 194.894 371.429 193.12 373.91 193.12C376.129 193.12 377.361 194.615 377.361 196.291C377.361 197.556 376.654 198.46 375.701 199.15L374.995 199.66C374.436 200.07 374.206 200.645 374.206 201.204C374.206 201.319 374.206 201.484 374.239 201.648H372.974ZM372.399 203.866C372.399 203.16 372.957 202.617 373.631 202.617C374.321 202.617 374.863 203.16 374.863 203.866C374.863 204.573 374.321 205.082 373.631 205.082C372.957 205.082 372.399 204.573 372.399 203.866ZM396.886 195.831C396.508 195.584 395.801 195.338 394.848 195.338C392.4 195.338 391.02 197.26 390.921 199.66C391.315 198.789 392.4 197.983 393.912 197.983C395.966 197.983 397.51 199.347 397.51 201.615C397.51 203.833 395.719 205.23 393.665 205.23C391.513 205.23 389.541 203.685 389.541 200.251C389.541 196.275 391.956 194.122 394.931 194.122C395.982 194.122 396.804 194.368 397.313 194.714L396.886 195.831ZM391.168 201.615C391.168 203.094 392.367 204.014 393.649 204.014C394.996 204.014 396.13 203.11 396.13 201.615C396.13 200.103 394.98 199.167 393.649 199.167C392.318 199.167 391.168 200.103 391.168 201.615ZM406.443 195.749C407.182 196.817 407.396 198.23 407.396 199.676C407.396 201.122 407.182 202.535 406.443 203.603C405.769 204.589 404.734 205.23 403.337 205.23C401.941 205.23 400.905 204.589 400.232 203.603C399.492 202.535 399.279 201.122 399.279 199.676C399.279 198.23 399.492 196.817 400.232 195.749C400.905 194.763 401.941 194.122 403.337 194.122C404.734 194.122 405.769 194.763 406.443 195.749ZM401.596 196.094C400.905 196.85 400.626 198.066 400.626 199.676C400.626 200.645 400.725 201.484 400.955 202.157L405.227 196.258L405.079 196.094C404.652 195.634 404.077 195.371 403.337 195.371C402.565 195.371 402.023 195.634 401.596 196.094ZM405.079 203.258C405.769 202.502 406.049 201.286 406.049 199.676C406.049 198.756 405.95 197.951 405.753 197.31L401.513 203.176C401.973 203.685 402.516 203.981 403.337 203.981C404.077 203.981 404.652 203.718 405.079 203.258ZM416.296 195.749C417.035 196.817 417.249 198.23 417.249 199.676C417.249 201.122 417.035 202.535 416.296 203.603C415.622 204.589 414.587 205.23 413.19 205.23C411.793 205.23 410.758 204.589 410.085 203.603C409.345 202.535 409.131 201.122 409.131 199.676C409.131 198.23 409.345 196.817 410.085 195.749C410.758 194.763 411.793 194.122 413.19 194.122C414.587 194.122 415.622 194.763 416.296 195.749ZM411.448 196.094C410.758 196.85 410.479 198.066 410.479 199.676C410.479 200.645 410.577 201.484 410.808 202.157L415.08 196.258L414.932 196.094C414.505 195.634 413.93 195.371 413.19 195.371C412.418 195.371 411.876 195.634 411.448 196.094ZM414.932 203.258C415.622 202.502 415.901 201.286 415.901 199.676C415.901 198.756 415.803 197.951 415.606 197.31L411.366 203.176C411.826 203.685 412.369 203.981 413.19 203.981C413.93 203.981 414.505 203.718 414.932 203.258ZM431.417 203.751C431.417 202.979 432.025 202.387 432.764 202.387C433.52 202.387 434.128 202.979 434.128 203.751C434.128 204.523 433.52 205.099 432.764 205.099C432.025 205.099 431.417 204.523 431.417 203.751ZM431.417 198.23C431.417 197.458 432.025 196.866 432.764 196.866C433.52 196.866 434.128 197.458 434.128 198.23C434.128 199.002 433.52 199.577 432.764 199.577C432.025 199.577 431.417 199.002 431.417 198.23ZM455.707 195.749C456.447 196.817 456.66 198.23 456.66 199.676C456.66 201.122 456.447 202.535 455.707 203.603C455.033 204.589 453.998 205.23 452.602 205.23C451.205 205.23 450.17 204.589 449.496 203.603C448.756 202.535 448.543 201.122 448.543 199.676C448.543 198.23 448.756 196.817 449.496 195.749C450.17 194.763 451.205 194.122 452.602 194.122C453.998 194.122 455.033 194.763 455.707 195.749ZM450.86 196.094C450.17 196.85 449.89 198.066 449.89 199.676C449.89 200.645 449.989 201.484 450.219 202.157L454.491 196.258L454.343 196.094C453.916 195.634 453.341 195.371 452.602 195.371C451.829 195.371 451.287 195.634 450.86 196.094ZM454.343 203.258C455.033 202.502 455.313 201.286 455.313 199.676C455.313 198.756 455.214 197.951 455.017 197.31L450.778 203.176C451.238 203.685 451.78 203.981 452.602 203.981C453.341 203.981 453.916 203.718 454.343 203.258ZM462.767 197.096C463.736 196.915 464.475 196.094 464.508 195.272C464.459 195.305 464.295 195.354 464.098 195.354C463.522 195.354 463.062 194.96 463.062 194.286C463.062 193.695 463.539 193.202 464.213 193.202C464.886 193.202 465.478 193.728 465.478 194.73C465.478 196.718 463.868 197.786 462.767 197.951V197.096ZM459.809 197.096C460.778 196.915 461.518 196.094 461.551 195.272C461.501 195.305 461.337 195.354 461.14 195.354C460.565 195.354 460.105 194.96 460.105 194.286C460.105 193.695 460.581 193.202 461.255 193.202C461.929 193.202 462.52 193.728 462.52 194.73C462.52 196.718 460.91 197.786 459.809 197.951V197.096ZM147.87 268.958C146.901 269.138 146.161 269.96 146.128 270.782C146.178 270.749 146.342 270.699 146.539 270.699C147.114 270.699 147.574 271.094 147.574 271.768C147.574 272.359 147.098 272.852 146.424 272.852C145.75 272.852 145.159 272.326 145.159 271.324C145.159 269.336 146.769 268.267 147.87 268.103V268.958ZM150.828 268.958C149.859 269.138 149.119 269.96 149.086 270.782C149.135 270.749 149.3 270.699 149.497 270.699C150.072 270.699 150.532 271.094 150.532 271.768C150.532 272.359 150.056 272.852 149.382 272.852C148.708 272.852 148.117 272.326 148.117 271.324C148.117 269.336 149.727 268.267 150.828 268.103V268.958ZM153.664 278.817H156.688V273.312H154.009V272.129H158.002V278.817H161.026V280H153.664V278.817ZM156.047 269.368C156.047 268.678 156.589 268.136 157.296 268.136C157.97 268.136 158.512 268.678 158.512 269.368C158.512 270.059 157.97 270.617 157.296 270.617C156.589 270.617 156.047 270.059 156.047 269.368ZM163.517 272.129H164.799V273.279C165.292 272.343 166.278 271.899 167.362 271.899C169.416 271.899 170.402 273.296 170.402 275.038V280H169.088V275.3C169.088 274.167 168.578 273.131 167.05 273.131C165.801 273.131 164.832 274.068 164.832 275.58V280H163.517V272.129ZM179.91 272.129V273.329H176.903V277.519C176.903 278.439 177.478 278.883 178.332 278.883C178.875 278.883 179.581 278.784 179.91 278.669V279.869C179.548 280 178.99 280.131 178.185 280.131C176.558 280.131 175.588 279.326 175.588 277.765V273.329H173.058V272.129H174.356C175.309 272.129 175.67 271.636 175.67 270.765V269.352H176.903V272.129H179.91ZM186.69 280.23C184.636 280.23 182.779 278.735 182.779 276.04C182.779 273.509 184.62 271.899 186.559 271.899C188.892 271.899 190.305 273.509 190.305 275.876C190.305 276.04 190.289 276.221 190.272 276.336H184.127V276.451C184.127 277.93 185.326 279.014 186.69 279.014C188.021 279.014 188.777 278.275 189.089 277.354L190.223 277.765C189.779 279.129 188.514 280.23 186.69 280.23ZM188.941 275.218C188.875 274.052 188.021 273.066 186.575 273.066C185.26 273.066 184.242 274.084 184.159 275.218H188.941ZM193.848 280.214C194.012 281.183 194.883 282.103 196.198 282.103C197.972 282.103 198.63 280.986 198.63 279.458V278.143C198.285 278.915 197.43 279.556 196.132 279.556C194.045 279.556 192.583 277.913 192.583 275.744C192.583 273.559 194.029 271.899 196.165 271.899C197.479 271.899 198.334 272.474 198.646 273.246V272.129H199.944V279.573C199.944 281.38 199.041 283.319 196.181 283.319C194.308 283.319 192.763 282.12 192.566 280.526L193.848 280.214ZM198.695 275.777C198.695 274.15 197.726 273.082 196.296 273.082C194.867 273.082 193.897 274.134 193.897 275.728C193.897 277.322 194.867 278.373 196.296 278.373C197.726 278.373 198.695 277.322 198.695 275.777ZM209.994 273.575C209.781 273.509 209.452 273.427 208.893 273.427C207.267 273.427 206.396 274.347 206.396 276.155V278.833H208.877V280H202.748V278.833H205.081V273.296H202.994V272.129H206.363V273.674C206.823 272.458 207.973 272.014 208.91 272.014C209.485 272.014 209.797 272.096 209.994 272.162V273.575ZM212.65 277.88C212.65 276.5 213.685 275.777 215.082 275.58L217.349 275.251C217.941 275.169 218.056 274.906 218.056 274.545C218.056 273.707 217.432 273.082 216.166 273.082C214.934 273.082 214.145 273.772 214.047 274.676L212.798 274.413C212.962 272.951 214.359 271.899 216.133 271.899C218.401 271.899 219.354 273.148 219.354 274.676V278.521C219.354 279.178 219.453 279.754 219.518 280H218.237C218.187 279.852 218.089 279.326 218.089 278.817C217.842 279.458 216.906 280.23 215.427 280.23C213.619 280.23 212.65 279.063 212.65 277.88ZM215.624 279.031C216.906 279.031 218.056 278.291 218.056 276.714V276.155L215.345 276.549C214.556 276.664 213.964 277.075 213.964 277.782C213.964 278.455 214.457 279.031 215.624 279.031ZM229.174 272.129V273.329H226.167V277.519C226.167 278.439 226.742 278.883 227.597 278.883C228.139 278.883 228.846 278.784 229.174 278.669V279.869C228.813 280 228.254 280.131 227.449 280.131C225.822 280.131 224.853 279.326 224.853 277.765V273.329H222.322V272.129H223.62C224.573 272.129 224.935 271.636 224.935 270.765V269.352H226.167V272.129H229.174ZM232.487 278.817H235.511V273.312H232.832V272.129H236.825V278.817H239.849V280H232.487V278.817ZM234.87 269.368C234.87 268.678 235.412 268.136 236.119 268.136C236.792 268.136 237.334 268.678 237.334 269.368C237.334 270.059 236.792 270.617 236.119 270.617C235.412 270.617 234.87 270.059 234.87 269.368ZM245.692 280.23C243.424 280.23 241.748 278.488 241.748 276.056C241.748 273.641 243.424 271.899 245.692 271.899C247.96 271.899 249.636 273.641 249.636 276.056C249.636 278.488 247.96 280.23 245.692 280.23ZM245.692 279.031C247.105 279.031 248.305 277.962 248.305 276.056C248.305 274.167 247.105 273.099 245.692 273.099C244.279 273.099 243.079 274.167 243.079 276.056C243.079 277.962 244.279 279.031 245.692 279.031ZM252.193 272.129H253.474V273.279C253.967 272.343 254.953 271.899 256.038 271.899C258.092 271.899 259.078 273.296 259.078 275.038V280H257.763V275.3C257.763 274.167 257.254 273.131 255.726 273.131C254.477 273.131 253.507 274.068 253.507 275.58V280H252.193V272.129ZM265.661 280.23C263.442 280.23 262.325 278.8 262.111 277.913L263.311 277.42C263.541 278.242 264.379 279.047 265.693 279.047C266.745 279.047 267.353 278.554 267.353 277.913C267.353 277.338 266.975 276.993 266.104 276.812L264.576 276.5C263.097 276.204 262.44 275.35 262.44 274.331C262.44 273 263.672 271.899 265.414 271.899C267.172 271.899 268.306 272.803 268.668 274.052L267.55 274.495C267.287 273.739 266.614 273.049 265.414 273.049C264.412 273.049 263.738 273.526 263.738 274.232C263.738 274.742 264.05 275.136 264.839 275.284L266.334 275.58C267.895 275.892 268.668 276.664 268.668 277.847C268.668 278.948 267.747 280.23 265.661 280.23ZM270.617 280L278.52 268.35H279.901L271.997 280H270.617ZM285.366 280.23C283.148 280.23 282.031 278.8 281.817 277.913L283.016 277.42C283.247 278.242 284.085 279.047 285.399 279.047C286.451 279.047 287.059 278.554 287.059 277.913C287.059 277.338 286.681 276.993 285.81 276.812L284.282 276.5C282.803 276.204 282.146 275.35 282.146 274.331C282.146 273 283.378 271.899 285.12 271.899C286.878 271.899 288.012 272.803 288.373 274.052L287.256 274.495C286.993 273.739 286.319 273.049 285.12 273.049C284.117 273.049 283.444 273.526 283.444 274.232C283.444 274.742 283.756 275.136 284.545 275.284L286.04 275.58C287.601 275.892 288.373 276.664 288.373 277.847C288.373 278.948 287.453 280.23 285.366 280.23ZM297.618 272.129H299.064L293.691 283.122H292.228L294.381 278.8L290.848 272.129H292.376L295.071 277.387L297.618 272.129ZM301.457 272.129H302.739V273.279C303.232 272.343 304.217 271.899 305.302 271.899C307.356 271.899 308.342 273.296 308.342 275.038V280H307.027V275.3C307.027 274.167 306.518 273.131 304.99 273.131C303.741 273.131 302.771 274.068 302.771 275.58V280H301.457V272.129ZM314.908 280.23C312.756 280.23 310.915 278.603 310.915 276.056C310.915 273.476 312.821 271.899 314.892 271.899C317.028 271.899 318.178 273.131 318.507 274.397L317.307 274.89C317.094 274.068 316.371 273.131 314.892 273.131C313.594 273.131 312.246 274.117 312.246 276.056C312.246 277.979 313.594 278.998 314.908 278.998C316.486 278.998 317.127 277.93 317.357 277.223L318.507 277.716C318.129 278.883 316.979 280.23 314.908 280.23ZM323.151 278.751C323.151 277.979 323.759 277.387 324.498 277.387C325.254 277.387 325.862 277.979 325.862 278.751C325.862 279.523 325.254 280.099 324.498 280.099C323.759 280.099 323.151 279.523 323.151 278.751ZM338.081 273.575C337.868 273.509 337.539 273.427 336.98 273.427C335.353 273.427 334.483 274.347 334.483 276.155V278.833H336.964V280H330.835V278.833H333.168V273.296H331.081V272.129H334.45V273.674C334.91 272.458 336.06 272.014 336.997 272.014C337.572 272.014 337.884 272.096 338.081 272.162V273.575ZM344.335 280.23C342.281 280.23 340.425 278.735 340.425 276.04C340.425 273.509 342.265 271.899 344.204 271.899C346.537 271.899 347.95 273.509 347.95 275.876C347.95 276.04 347.934 276.221 347.918 276.336H341.772V276.451C341.772 277.93 342.971 279.014 344.335 279.014C345.666 279.014 346.422 278.275 346.734 277.354L347.868 277.765C347.425 279.129 346.159 280.23 344.335 280.23ZM346.587 275.218C346.521 274.052 345.666 273.066 344.22 273.066C342.906 273.066 341.887 274.084 341.805 275.218H346.587ZM356.341 278.8C356.029 279.507 355.174 280.214 353.745 280.214C351.493 280.214 349.998 278.357 349.998 276.056C349.998 273.739 351.477 271.899 353.761 271.899C355.207 271.899 356.061 272.638 356.374 273.411V272.129H357.655V283.122H356.341V278.8ZM353.876 279.047C355.421 279.047 356.374 277.798 356.374 276.056C356.374 274.314 355.421 273.082 353.876 273.082C352.348 273.082 351.329 274.314 351.329 276.056C351.329 277.798 352.348 279.047 353.876 279.047ZM365.865 278.932C365.487 279.737 364.518 280.23 363.433 280.23C361.428 280.23 360.41 278.883 360.41 277.075V272.129H361.724V276.861C361.724 277.995 362.266 279.031 363.729 279.031C365.06 279.031 365.799 278.061 365.799 276.829V272.129H367.114V278.357C367.114 278.965 367.18 279.688 367.229 280H365.964C365.898 279.77 365.865 279.326 365.865 278.932ZM373.894 280.23C371.84 280.23 369.983 278.735 369.983 276.04C369.983 273.509 371.823 271.899 373.762 271.899C376.096 271.899 377.509 273.509 377.509 275.876C377.509 276.04 377.492 276.221 377.476 276.336H371.33V276.451C371.33 277.93 372.53 279.014 373.894 279.014C375.225 279.014 375.981 278.275 376.293 277.354L377.427 277.765C376.983 279.129 375.718 280.23 373.894 280.23ZM376.145 275.218C376.079 274.052 375.225 273.066 373.779 273.066C372.464 273.066 371.445 274.084 371.363 275.218H376.145ZM383.895 280.23C381.676 280.23 380.559 278.8 380.345 277.913L381.545 277.42C381.775 278.242 382.613 279.047 383.927 279.047C384.979 279.047 385.587 278.554 385.587 277.913C385.587 277.338 385.209 276.993 384.338 276.812L382.81 276.5C381.331 276.204 380.674 275.35 380.674 274.331C380.674 273 381.906 271.899 383.648 271.899C385.406 271.899 386.54 272.803 386.902 274.052L385.784 274.495C385.521 273.739 384.848 273.049 383.648 273.049C382.646 273.049 381.972 273.526 381.972 274.232C381.972 274.742 382.284 275.136 383.073 275.284L384.568 275.58C386.129 275.892 386.902 276.664 386.902 277.847C386.902 278.948 385.981 280.23 383.895 280.23ZM396.672 272.129V273.329H393.665V277.519C393.665 278.439 394.24 278.883 395.095 278.883C395.637 278.883 396.344 278.784 396.672 278.669V279.869C396.311 280 395.752 280.131 394.947 280.131C393.32 280.131 392.351 279.326 392.351 277.765V273.329H389.82V272.129H391.118C392.071 272.129 392.433 271.636 392.433 270.765V269.352H393.665V272.129H396.672ZM403.452 280.23C401.398 280.23 399.542 278.735 399.542 276.04C399.542 273.509 401.382 271.899 403.321 271.899C405.654 271.899 407.067 273.509 407.067 275.876C407.067 276.04 407.051 276.221 407.035 276.336H400.889V276.451C400.889 277.93 402.089 279.014 403.452 279.014C404.783 279.014 405.539 278.275 405.851 277.354L406.985 277.765C406.542 279.129 405.276 280.23 403.452 280.23ZM405.704 275.218C405.638 274.052 404.783 273.066 403.337 273.066C402.023 273.066 401.004 274.084 400.922 275.218H405.704ZM415.441 278.702C415.063 279.523 414.193 280.23 412.747 280.23C410.512 280.23 409.082 278.39 409.082 276.056C409.082 273.772 410.594 271.899 412.812 271.899C414.308 271.899 415.113 272.606 415.409 273.312V268.12H416.723V278.521C416.723 279.31 416.772 279.836 416.805 280H415.524C415.491 279.819 415.441 279.376 415.441 278.866V278.702ZM412.944 279.031C414.488 279.031 415.441 277.782 415.441 276.056C415.441 274.331 414.505 273.099 412.944 273.099C411.432 273.099 410.413 274.331 410.413 276.056C410.413 277.782 411.448 279.031 412.944 279.031ZM423.355 272.096C424.325 271.915 425.064 271.094 425.097 270.272C425.048 270.305 424.883 270.354 424.686 270.354C424.111 270.354 423.651 269.96 423.651 269.286C423.651 268.695 424.128 268.202 424.801 268.202C425.475 268.202 426.067 268.728 426.067 269.73C426.067 271.718 424.456 272.786 423.355 272.951V272.096ZM420.397 272.096C421.367 271.915 422.106 271.094 422.139 270.272C422.09 270.305 421.926 270.354 421.728 270.354C421.153 270.354 420.693 269.96 420.693 269.286C420.693 268.695 421.17 268.202 421.843 268.202C422.517 268.202 423.109 268.728 423.109 269.73C423.109 271.718 421.498 272.786 420.397 272.951V272.096Z" fill="#0BDD48"/>
<path d="M73.56 180L81.4638 168.35H82.8441L74.9402 180H73.56ZM83.4128 180L91.3166 168.35H92.6969L84.7931 180H83.4128ZM107.752 180.23C105.271 180.23 103.496 178.225 103.496 174.167C103.496 170.108 105.271 168.12 107.752 168.12C110.234 168.12 112.008 170.108 112.008 174.167C112.008 178.225 110.234 180.23 107.752 180.23ZM107.752 178.915C109.494 178.915 110.628 177.42 110.628 174.167C110.628 170.913 109.494 169.434 107.752 169.434C106.011 169.434 104.877 170.913 104.877 174.167C104.877 177.42 106.011 178.915 107.752 178.915ZM114.253 172.129H115.535V173.279C116.028 172.343 117.014 171.899 118.098 171.899C120.152 171.899 121.138 173.296 121.138 175.038V180H119.823V175.3C119.823 174.167 119.314 173.131 117.786 173.131C116.537 173.131 115.568 174.068 115.568 175.58V180H114.253V172.129ZM128.017 180.23C126.62 180.23 125.716 179.556 125.289 178.735V180H124.007V168.12H125.322V173.312C125.733 172.606 126.571 171.899 128.017 171.899C130.383 171.899 131.665 173.756 131.665 176.056C131.665 178.406 130.334 180.23 128.017 180.23ZM127.819 179.031C129.364 179.031 130.334 177.798 130.334 176.056C130.334 174.314 129.381 173.099 127.819 173.099C126.258 173.099 125.289 174.314 125.289 176.056C125.289 177.798 126.275 179.031 127.819 179.031ZM137.311 180.23C135.043 180.23 133.367 178.488 133.367 176.056C133.367 173.641 135.043 171.899 137.311 171.899C139.578 171.899 141.255 173.641 141.255 176.056C141.255 178.488 139.578 180.23 137.311 180.23ZM137.311 179.031C138.724 179.031 139.924 177.962 139.924 176.056C139.924 174.167 138.724 173.099 137.311 173.099C135.898 173.099 134.698 174.167 134.698 176.056C134.698 177.962 135.898 179.031 137.311 179.031ZM143.68 177.88C143.68 176.5 144.715 175.777 146.112 175.58L148.38 175.251C148.971 175.169 149.086 174.906 149.086 174.545C149.086 173.707 148.462 173.082 147.197 173.082C145.964 173.082 145.175 173.772 145.077 174.676L143.828 174.413C143.992 172.951 145.389 171.899 147.164 171.899C149.431 171.899 150.384 173.148 150.384 174.676V178.521C150.384 179.178 150.483 179.754 150.549 180H149.267C149.218 179.852 149.119 179.326 149.119 178.817C148.873 179.458 147.936 180.23 146.457 180.23C144.65 180.23 143.68 179.063 143.68 177.88ZM146.654 179.031C147.936 179.031 149.086 178.291 149.086 176.714V176.155L146.375 176.549C145.586 176.664 144.995 177.075 144.995 177.782C144.995 178.455 145.488 179.031 146.654 179.031ZM160.73 173.575C160.517 173.509 160.188 173.427 159.629 173.427C158.002 173.427 157.132 174.347 157.132 176.155V178.833H159.613V180H153.484V178.833H155.817V173.296H153.73V172.129H157.099V173.674C157.559 172.458 158.709 172.014 159.646 172.014C160.221 172.014 160.533 172.096 160.73 172.162V173.575ZM169.121 178.702C168.743 179.523 167.872 180.23 166.426 180.23C164.191 180.23 162.761 178.39 162.761 176.056C162.761 173.772 164.273 171.899 166.491 171.899C167.987 171.899 168.792 172.606 169.088 173.312V168.12H170.402V178.521C170.402 179.31 170.452 179.836 170.484 180H169.203C169.17 179.819 169.121 179.376 169.121 178.866V178.702ZM166.623 179.031C168.167 179.031 169.121 177.782 169.121 176.056C169.121 174.331 168.184 173.099 166.623 173.099C165.111 173.099 164.092 174.331 164.092 176.056C164.092 177.782 165.128 179.031 166.623 179.031ZM173.37 178.817H176.394V173.312H173.715V172.129H177.708V178.817H180.732V180H173.37V178.817ZM175.753 169.368C175.753 168.678 176.295 168.136 177.001 168.136C177.675 168.136 178.217 168.678 178.217 169.368C178.217 170.059 177.675 170.617 177.001 170.617C176.295 170.617 175.753 170.059 175.753 169.368ZM183.223 172.129H184.505V173.279C184.998 172.343 185.983 171.899 187.068 171.899C189.122 171.899 190.108 173.296 190.108 175.038V180H188.793V175.3C188.793 174.167 188.284 173.131 186.756 173.131C185.507 173.131 184.537 174.068 184.537 175.58V180H183.223V172.129ZM193.848 180.214C194.012 181.183 194.883 182.103 196.198 182.103C197.972 182.103 198.63 180.986 198.63 179.458V178.143C198.285 178.915 197.43 179.556 196.132 179.556C194.045 179.556 192.583 177.913 192.583 175.744C192.583 173.559 194.029 171.899 196.165 171.899C197.479 171.899 198.334 172.474 198.646 173.246V172.129H199.944V179.573C199.944 181.38 199.041 183.319 196.181 183.319C194.308 183.319 192.763 182.12 192.566 180.526L193.848 180.214ZM198.695 175.777C198.695 174.15 197.726 173.082 196.296 173.082C194.867 173.082 193.897 174.134 193.897 175.728C193.897 177.322 194.867 178.373 196.296 178.373C197.726 178.373 198.695 177.322 198.695 175.777ZM219.847 173.575C219.634 173.509 219.305 173.427 218.746 173.427C217.119 173.427 216.249 174.347 216.249 176.155V178.833H218.73V180H212.601V178.833H214.934V173.296H212.847V172.129H216.216V173.674C216.676 172.458 217.826 172.014 218.763 172.014C219.338 172.014 219.65 172.096 219.847 172.162V173.575ZM227.925 178.932C227.547 179.737 226.578 180.23 225.493 180.23C223.489 180.23 222.47 178.883 222.47 177.075V172.129H223.784V176.861C223.784 177.995 224.327 179.031 225.789 179.031C227.12 179.031 227.86 178.061 227.86 176.829V172.129H229.174V178.357C229.174 178.965 229.24 179.688 229.289 180H228.024C227.958 179.77 227.925 179.326 227.925 178.932ZM232.487 172.129H233.769V173.279C234.262 172.343 235.248 171.899 236.332 171.899C238.386 171.899 239.372 173.296 239.372 175.038V180H238.057V175.3C238.057 174.167 237.548 173.131 236.02 173.131C234.771 173.131 233.802 174.068 233.802 175.58V180H232.487V172.129ZM245.955 180.23C243.737 180.23 242.619 178.8 242.406 177.913L243.605 177.42C243.835 178.242 244.673 179.047 245.988 179.047C247.039 179.047 247.647 178.554 247.647 177.913C247.647 177.338 247.269 176.993 246.399 176.812L244.87 176.5C243.391 176.204 242.734 175.35 242.734 174.331C242.734 173 243.967 171.899 245.708 171.899C247.467 171.899 248.6 172.803 248.962 174.052L247.845 174.495C247.582 173.739 246.908 173.049 245.708 173.049C244.706 173.049 244.032 173.526 244.032 174.232C244.032 174.742 244.345 175.136 245.133 175.284L246.629 175.58C248.19 175.892 248.962 176.664 248.962 177.847C248.962 178.948 248.042 180.23 245.955 180.23ZM262.621 173.312V172.129H267.024V180.69C267.024 182.251 265.973 183.27 264.034 183.27C263.524 183.27 262.834 183.122 262.637 183.04V181.84C262.851 181.906 263.459 182.005 263.837 182.005C264.921 182.005 265.71 181.693 265.71 180.444V173.312H262.621ZM265.069 169.368C265.069 168.678 265.611 168.136 266.318 168.136C266.992 168.136 267.534 168.678 267.534 169.368C267.534 170.059 266.992 170.617 266.318 170.617C265.611 170.617 265.069 170.059 265.069 169.368ZM277.189 178.932C276.812 179.737 275.842 180.23 274.758 180.23C272.753 180.23 271.734 178.883 271.734 177.075V172.129H273.049V176.861C273.049 177.995 273.591 179.031 275.053 179.031C276.384 179.031 277.124 178.061 277.124 176.829V172.129H278.438V178.357C278.438 178.965 278.504 179.688 278.553 180H277.288C277.222 179.77 277.189 179.326 277.189 178.932ZM282.261 173.082C282.54 172.326 283.148 171.981 283.887 171.981C284.627 171.981 285.268 172.376 285.432 173.246C285.728 172.458 286.369 171.981 287.305 171.981C288.308 171.981 289.277 172.458 289.277 174.331V180H288.045V174.528C288.045 173.493 287.634 173.164 286.977 173.164C286.319 173.164 285.777 173.624 285.777 174.758V180H284.561V174.577C284.561 173.559 284.167 173.164 283.509 173.164C282.836 173.164 282.293 173.575 282.293 174.775V180H281.061V172.129H282.261V173.082ZM291.407 172.129H292.689V173.444C293.05 172.638 293.937 171.899 295.416 171.899C297.766 171.899 299.064 173.739 299.064 176.056C299.064 178.406 297.651 180.23 295.351 180.23C293.954 180.23 293.083 179.606 292.721 178.899V183.122H291.407V172.129ZM295.186 179.047C296.714 179.047 297.733 177.798 297.733 176.056C297.733 174.314 296.714 173.082 295.186 173.082C293.674 173.082 292.689 174.314 292.689 176.056C292.689 177.798 293.691 179.047 295.186 179.047ZM318.063 170.831C317.685 170.584 316.979 170.338 316.026 170.338C313.577 170.338 312.197 172.26 312.098 174.66C312.493 173.789 313.577 172.983 315.089 172.983C317.143 172.983 318.688 174.347 318.688 176.615C318.688 178.833 316.897 180.23 314.843 180.23C312.69 180.23 310.718 178.685 310.718 175.251C310.718 171.275 313.134 169.122 316.108 169.122C317.16 169.122 317.981 169.368 318.491 169.714L318.063 170.831ZM312.345 176.615C312.345 178.094 313.544 179.014 314.826 179.014C316.174 179.014 317.307 178.11 317.307 176.615C317.307 175.103 316.157 174.167 314.826 174.167C313.495 174.167 312.345 175.103 312.345 176.615ZM327.62 170.749C328.36 171.817 328.573 173.23 328.573 174.676C328.573 176.122 328.36 177.535 327.62 178.603C326.947 179.589 325.911 180.23 324.515 180.23C323.118 180.23 322.083 179.589 321.409 178.603C320.67 177.535 320.456 176.122 320.456 174.676C320.456 173.23 320.67 171.817 321.409 170.749C322.083 169.763 323.118 169.122 324.515 169.122C325.911 169.122 326.947 169.763 327.62 170.749ZM322.773 171.094C322.083 171.85 321.803 173.066 321.803 174.676C321.803 175.645 321.902 176.484 322.132 177.157L326.404 171.258L326.256 171.094C325.829 170.634 325.254 170.371 324.515 170.371C323.742 170.371 323.2 170.634 322.773 171.094ZM326.256 178.258C326.947 177.502 327.226 176.286 327.226 174.676C327.226 173.756 327.127 172.951 326.93 172.31L322.691 178.176C323.151 178.685 323.693 178.981 324.515 178.981C325.254 178.981 325.829 178.718 326.256 178.258ZM337.473 170.749C338.213 171.817 338.426 173.23 338.426 174.676C338.426 176.122 338.213 177.535 337.473 178.603C336.799 179.589 335.764 180.23 334.367 180.23C332.971 180.23 331.936 179.589 331.262 178.603C330.522 177.535 330.309 176.122 330.309 174.676C330.309 173.23 330.522 171.817 331.262 170.749C331.936 169.763 332.971 169.122 334.367 169.122C335.764 169.122 336.799 169.763 337.473 170.749ZM332.626 171.094C331.936 171.85 331.656 173.066 331.656 174.676C331.656 175.645 331.755 176.484 331.985 177.157L336.257 171.258L336.109 171.094C335.682 170.634 335.107 170.371 334.367 170.371C333.595 170.371 333.053 170.634 332.626 171.094ZM336.109 178.258C336.799 177.502 337.079 176.286 337.079 174.676C337.079 173.756 336.98 172.951 336.783 172.31L332.544 178.176C333.004 178.685 333.546 178.981 334.367 178.981C335.107 178.981 335.682 178.718 336.109 178.258ZM344.483 180.23C342.265 180.23 341.148 178.8 340.934 177.913L342.133 177.42C342.364 178.242 343.202 179.047 344.516 179.047C345.568 179.047 346.176 178.554 346.176 177.913C346.176 177.338 345.798 176.993 344.927 176.812L343.399 176.5C341.92 176.204 341.263 175.35 341.263 174.331C341.263 173 342.495 171.899 344.237 171.899C345.995 171.899 347.129 172.803 347.49 174.052L346.373 174.495C346.11 173.739 345.436 173.049 344.237 173.049C343.234 173.049 342.561 173.526 342.561 174.232C342.561 174.742 342.873 175.136 343.662 175.284L345.157 175.58C346.718 175.892 347.49 176.664 347.49 177.847C347.49 178.948 346.57 180.23 344.483 180.23ZM360.442 177.88C360.442 176.5 361.478 175.777 362.874 175.58L365.142 175.251C365.734 175.169 365.849 174.906 365.849 174.545C365.849 173.707 365.224 173.082 363.959 173.082C362.726 173.082 361.938 173.772 361.839 174.676L360.59 174.413C360.755 172.951 362.151 171.899 363.926 171.899C366.194 171.899 367.147 173.148 367.147 174.676V178.521C367.147 179.178 367.245 179.754 367.311 180H366.029C365.98 179.852 365.881 179.326 365.881 178.817C365.635 179.458 364.698 180.23 363.219 180.23C361.412 180.23 360.442 179.063 360.442 177.88ZM363.417 179.031C364.698 179.031 365.849 178.291 365.849 176.714V176.155L363.137 176.549C362.349 176.664 361.757 177.075 361.757 177.782C361.757 178.455 362.25 179.031 363.417 179.031ZM370.427 168.12H371.741V173.23C372.251 172.31 373.237 171.899 374.338 171.899C376.342 171.899 377.312 173.361 377.312 175.12V180H375.997V175.35C375.997 174.183 375.504 173.131 373.976 173.131C372.711 173.131 371.741 174.068 371.741 175.613V180H370.427V168.12ZM383.747 180.23C381.693 180.23 379.836 178.735 379.836 176.04C379.836 173.509 381.676 171.899 383.615 171.899C385.949 171.899 387.362 173.509 387.362 175.876C387.362 176.04 387.345 176.221 387.329 176.336H381.183V176.451C381.183 177.93 382.383 179.014 383.747 179.014C385.078 179.014 385.834 178.275 386.146 177.354L387.28 177.765C386.836 179.129 385.571 180.23 383.747 180.23ZM385.998 175.218C385.932 174.052 385.078 173.066 383.632 173.066C382.317 173.066 381.298 174.084 381.216 175.218H385.998ZM390.001 177.88C390.001 176.5 391.036 175.777 392.433 175.58L394.7 175.251C395.292 175.169 395.407 174.906 395.407 174.545C395.407 173.707 394.783 173.082 393.517 173.082C392.285 173.082 391.496 173.772 391.398 174.676L390.149 174.413C390.313 172.951 391.71 171.899 393.484 171.899C395.752 171.899 396.705 173.148 396.705 174.676V178.521C396.705 179.178 396.804 179.754 396.87 180H395.588C395.539 179.852 395.44 179.326 395.44 178.817C395.193 179.458 394.257 180.23 392.778 180.23C390.97 180.23 390.001 179.063 390.001 177.88ZM392.975 179.031C394.257 179.031 395.407 178.291 395.407 176.714V176.155L392.696 176.549C391.907 176.664 391.315 177.075 391.315 177.782C391.315 178.455 391.808 179.031 392.975 179.031ZM405.589 178.702C405.211 179.523 404.34 180.23 402.894 180.23C400.659 180.23 399.229 178.39 399.229 176.056C399.229 173.772 400.741 171.899 402.959 171.899C404.455 171.899 405.26 172.606 405.556 173.312V168.12H406.87V178.521C406.87 179.31 406.92 179.836 406.952 180H405.671C405.638 179.819 405.589 179.376 405.589 178.866V178.702ZM403.091 179.031C404.635 179.031 405.589 177.782 405.589 176.056C405.589 174.331 404.652 173.099 403.091 173.099C401.579 173.099 400.56 174.331 400.56 176.056C400.56 177.782 401.596 179.031 403.091 179.031ZM419.691 178.817H422.714V173.312H420.036V172.129H424.029V178.817H427.052V180H419.691V178.817ZM422.074 169.368C422.074 168.678 422.616 168.136 423.322 168.136C423.996 168.136 424.538 168.678 424.538 169.368C424.538 170.059 423.996 170.617 423.322 170.617C422.616 170.617 422.074 170.059 422.074 169.368ZM429.544 172.129H430.825V173.279C431.318 172.343 432.304 171.899 433.389 171.899C435.443 171.899 436.429 173.296 436.429 175.038V180H435.114V175.3C435.114 174.167 434.605 173.131 433.077 173.131C431.828 173.131 430.858 174.068 430.858 175.58V180H429.544V172.129ZM454.869 178.8C454.557 179.507 453.702 180.214 452.273 180.214C450.022 180.214 448.526 178.357 448.526 176.056C448.526 173.739 450.005 171.899 452.289 171.899C453.735 171.899 454.59 172.638 454.902 173.411V172.129H456.184V183.122H454.869V178.8ZM452.404 179.047C453.949 179.047 454.902 177.798 454.902 176.056C454.902 174.314 453.949 173.082 452.404 173.082C450.876 173.082 449.857 174.314 449.857 176.056C449.857 177.798 450.876 179.047 452.404 179.047ZM464.393 178.932C464.015 179.737 463.046 180.23 461.961 180.23C459.957 180.23 458.938 178.883 458.938 177.075V172.129H460.252V176.861C460.252 177.995 460.795 179.031 462.257 179.031C463.588 179.031 464.328 178.061 464.328 176.829V172.129H465.642V178.357C465.642 178.965 465.708 179.688 465.757 180H464.492C464.426 179.77 464.393 179.326 464.393 178.932ZM472.422 180.23C470.368 180.23 468.511 178.735 468.511 176.04C468.511 173.509 470.352 171.899 472.291 171.899C474.624 171.899 476.037 173.509 476.037 175.876C476.037 176.04 476.021 176.221 476.004 176.336H469.859V176.451C469.859 177.93 471.058 179.014 472.422 179.014C473.753 179.014 474.509 178.275 474.821 177.354L475.955 177.765C475.511 179.129 474.246 180.23 472.422 180.23ZM474.673 175.218C474.608 174.052 473.753 173.066 472.307 173.066C470.993 173.066 469.974 174.084 469.892 175.218H474.673ZM484.099 178.932C483.721 179.737 482.752 180.23 481.667 180.23C479.662 180.23 478.644 178.883 478.644 177.075V172.129H479.958V176.861C479.958 177.995 480.5 179.031 481.963 179.031C483.294 179.031 484.033 178.061 484.033 176.829V172.129H485.348V178.357C485.348 178.965 485.414 179.688 485.463 180H484.198C484.132 179.77 484.099 179.326 484.099 178.932ZM492.128 180.23C490.074 180.23 488.217 178.735 488.217 176.04C488.217 173.509 490.057 171.899 491.996 171.899C494.33 171.899 495.743 173.509 495.743 175.876C495.743 176.04 495.727 176.221 495.71 176.336H489.564V176.451C489.564 177.93 490.764 179.014 492.128 179.014C493.459 179.014 494.215 178.275 494.527 177.354L495.661 177.765C495.217 179.129 493.952 180.23 492.128 180.23ZM494.379 175.218C494.313 174.052 493.459 173.066 492.013 173.066C490.698 173.066 489.679 174.084 489.597 175.218H494.379ZM63.7071 330L71.611 318.35H72.9912L65.0874 330H63.7071ZM73.56 330L81.4638 318.35H82.8441L74.9402 330H73.56ZM100.561 322.129H102.007L96.6342 333.122H95.1717L97.3243 328.8L93.7914 322.129H95.3196L98.0145 327.387L100.561 322.129ZM107.752 330.23C105.485 330.23 103.809 328.488 103.809 326.056C103.809 323.641 105.485 321.899 107.752 321.899C110.02 321.899 111.696 323.641 111.696 326.056C111.696 328.488 110.02 330.23 107.752 330.23ZM107.752 329.031C109.165 329.031 110.365 327.962 110.365 326.056C110.365 324.167 109.165 323.099 107.752 323.099C106.339 323.099 105.14 324.167 105.14 326.056C105.14 327.962 106.339 329.031 107.752 329.031ZM119.544 328.932C119.166 329.737 118.197 330.23 117.112 330.23C115.107 330.23 114.089 328.883 114.089 327.075V322.129H115.403V326.861C115.403 327.995 115.946 329.031 117.408 329.031C118.739 329.031 119.478 328.061 119.478 326.829V322.129H120.793V328.357C120.793 328.965 120.859 329.688 120.908 330H119.643C119.577 329.77 119.544 329.326 119.544 328.932ZM131.172 323.575C130.958 323.509 130.629 323.427 130.071 323.427C128.444 323.427 127.573 324.347 127.573 326.155V328.833H130.054V330H123.925V328.833H126.258V323.296H124.172V322.129H127.54V323.674C128 322.458 129.15 322.014 130.087 322.014C130.662 322.014 130.974 322.096 131.172 322.162V323.575ZM143.483 328.817H146.506V319.303H143.91V318.12H147.821V328.817H150.844V330H143.483V328.817ZM157.016 330.23C154.749 330.23 153.073 328.488 153.073 326.056C153.073 323.641 154.749 321.899 157.016 321.899C159.284 321.899 160.96 323.641 160.96 326.056C160.96 328.488 159.284 330.23 157.016 330.23ZM157.016 329.031C158.43 329.031 159.629 327.962 159.629 326.056C159.629 324.167 158.43 323.099 157.016 323.099C155.603 323.099 154.404 324.167 154.404 326.056C154.404 327.962 155.603 329.031 157.016 329.031ZM164.289 330.214C164.454 331.183 165.325 332.103 166.639 332.103C168.414 332.103 169.071 330.986 169.071 329.458V328.143C168.726 328.915 167.872 329.556 166.574 329.556C164.487 329.556 163.024 327.913 163.024 325.744C163.024 323.559 164.47 321.899 166.606 321.899C167.921 321.899 168.775 322.474 169.088 323.246V322.129H170.386V329.573C170.386 331.38 169.482 333.319 166.623 333.319C164.75 333.319 163.205 332.12 163.008 330.526L164.289 330.214ZM169.137 325.777C169.137 324.15 168.167 323.082 166.738 323.082C165.308 323.082 164.339 324.134 164.339 325.728C164.339 327.322 165.308 328.373 166.738 328.373C168.167 328.373 169.137 327.322 169.137 325.777ZM173.37 328.817H176.394V323.312H173.715V322.129H177.708V328.817H180.732V330H173.37V328.817ZM175.753 319.368C175.753 318.678 176.295 318.136 177.001 318.136C177.675 318.136 178.217 318.678 178.217 319.368C178.217 320.059 177.675 320.617 177.001 320.617C176.295 320.617 175.753 320.059 175.753 319.368ZM186.821 330.23C184.669 330.23 182.828 328.603 182.828 326.056C182.828 323.476 184.735 321.899 186.805 321.899C188.941 321.899 190.091 323.131 190.42 324.397L189.221 324.89C189.007 324.068 188.284 323.131 186.805 323.131C185.507 323.131 184.159 324.117 184.159 326.056C184.159 327.979 185.507 328.998 186.821 328.998C188.399 328.998 189.04 327.93 189.27 327.223L190.42 327.716C190.042 328.883 188.892 330.23 186.821 330.23Z" fill="white" fill-opacity="0.2"/>
<path d="M45.1517 302.88C45.1517 301.5 46.1869 300.777 47.5836 300.58L49.8513 300.251C50.4428 300.169 50.5579 299.906 50.5579 299.545C50.5579 298.707 49.9334 298.082 48.6682 298.082C47.4358 298.082 46.647 298.772 46.5484 299.676L45.2996 299.413C45.4639 297.951 46.8606 296.899 48.6353 296.899C50.9029 296.899 51.856 298.148 51.856 299.676V303.521C51.856 304.178 51.9546 304.754 52.0203 305H50.7386C50.6893 304.852 50.5907 304.326 50.5907 303.817C50.3442 304.458 49.4076 305.23 47.9287 305.23C46.1212 305.23 45.1517 304.063 45.1517 302.88ZM48.1259 304.031C49.4076 304.031 50.5579 303.291 50.5579 301.714V301.155L47.8466 301.549C47.0578 301.664 46.4663 302.075 46.4663 302.782C46.4663 303.455 46.9592 304.031 48.1259 304.031ZM58.751 305.23C56.5327 305.23 55.4153 303.8 55.2017 302.913L56.4013 302.42C56.6313 303.242 57.4693 304.047 58.7839 304.047C59.8356 304.047 60.4435 303.554 60.4435 302.913C60.4435 302.338 60.0656 301.993 59.1947 301.812L57.6665 301.5C56.1876 301.204 55.5304 300.35 55.5304 299.331C55.5304 298 56.7628 296.899 58.5046 296.899C60.2628 296.899 61.3966 297.803 61.7581 299.052L60.6407 299.495C60.3778 298.739 59.7041 298.049 58.5046 298.049C57.5022 298.049 56.8285 298.526 56.8285 299.232C56.8285 299.742 57.1407 300.136 57.9294 300.284L59.4248 300.58C60.9858 300.892 61.7581 301.664 61.7581 302.847C61.7581 303.948 60.8379 305.23 58.751 305.23ZM71.003 297.129H72.449L67.0757 308.122H65.6132L67.7658 303.8L64.2329 297.129H65.7611L68.456 302.387L71.003 297.129ZM74.8417 297.129H76.1234V298.279C76.6163 297.343 77.6022 296.899 78.6868 296.899C80.7408 296.899 81.7267 298.296 81.7267 300.038V305H80.4121V300.3C80.4121 299.167 79.9027 298.131 78.3746 298.131C77.1257 298.131 76.1562 299.068 76.1562 300.58V305H74.8417V297.129ZM88.2931 305.23C86.1405 305.23 84.3001 303.603 84.3001 301.056C84.3001 298.476 86.2062 296.899 88.2767 296.899C90.4129 296.899 91.5631 298.131 91.8917 299.397L90.6922 299.89C90.4786 299.068 89.7556 298.131 88.2767 298.131C86.9785 298.131 85.6311 299.117 85.6311 301.056C85.6311 302.979 86.9785 303.998 88.2931 303.998C89.8706 303.998 90.5114 302.93 90.7415 302.223L91.8917 302.716C91.5138 303.883 90.3636 305.23 88.2931 305.23Z" fill="#B392F0"/>
<path d="M137.426 305.23C135.372 305.23 133.515 303.735 133.515 301.04C133.515 298.509 135.355 296.899 137.294 296.899C139.628 296.899 141.041 298.509 141.041 300.876C141.041 301.04 141.024 301.221 141.008 301.336H134.862V301.451C134.862 302.93 136.062 304.014 137.426 304.014C138.757 304.014 139.513 303.275 139.825 302.354L140.959 302.765C140.515 304.129 139.25 305.23 137.426 305.23ZM139.677 300.218C139.611 299.052 138.757 298.066 137.311 298.066C135.996 298.066 134.977 299.084 134.895 300.218H139.677ZM146.408 305L143.023 297.129H144.502L147.18 303.702L149.875 297.129H151.305L147.936 305H146.408ZM157.132 305.23C155.077 305.23 153.221 303.735 153.221 301.04C153.221 298.509 155.061 296.899 157 296.899C159.333 296.899 160.747 298.509 160.747 300.876C160.747 301.04 160.73 301.221 160.714 301.336H154.568V301.451C154.568 302.93 155.768 304.014 157.132 304.014C158.463 304.014 159.218 303.275 159.531 302.354L160.664 302.765C160.221 304.129 158.955 305.23 157.132 305.23ZM159.383 300.218C159.317 299.052 158.463 298.066 157.016 298.066C155.702 298.066 154.683 299.084 154.601 300.218H159.383ZM163.517 297.129H164.799V298.279C165.292 297.343 166.278 296.899 167.362 296.899C169.416 296.899 170.402 298.296 170.402 300.038V305H169.088V300.3C169.088 299.167 168.578 298.131 167.05 298.131C165.801 298.131 164.832 299.068 164.832 300.58V305H163.517V297.129ZM179.91 297.129V298.329H176.903V302.519C176.903 303.439 177.478 303.883 178.332 303.883C178.875 303.883 179.581 303.784 179.91 303.669V304.869C179.548 305 178.99 305.131 178.185 305.131C176.558 305.131 175.588 304.326 175.588 302.765V298.329H173.058V297.129H174.356C175.309 297.129 175.67 296.636 175.67 295.765V294.352H176.903V297.129H179.91ZM206.544 305.23C204.325 305.23 203.208 303.8 202.994 302.913L204.194 302.42C204.424 303.242 205.262 304.047 206.576 304.047C207.628 304.047 208.236 303.554 208.236 302.913C208.236 302.338 207.858 301.993 206.987 301.812L205.459 301.5C203.98 301.204 203.323 300.35 203.323 299.331C203.323 298 204.555 296.899 206.297 296.899C208.055 296.899 209.189 297.803 209.551 299.052L208.433 299.495C208.17 298.739 207.497 298.049 206.297 298.049C205.295 298.049 204.621 298.526 204.621 299.232C204.621 299.742 204.933 300.136 205.722 300.284L207.217 300.58C208.778 300.892 209.551 301.664 209.551 302.847C209.551 303.948 208.63 305.23 206.544 305.23ZM219.321 297.129V298.329H216.314V302.519C216.314 303.439 216.889 303.883 217.744 303.883C218.286 303.883 218.993 303.784 219.321 303.669V304.869C218.96 305 218.401 305.131 217.596 305.131C215.969 305.131 215 304.326 215 302.765V298.329H212.469V297.129H213.767C214.72 297.129 215.082 296.636 215.082 295.765V294.352H216.314V297.129H219.321ZM226.101 305.23C224.047 305.23 222.191 303.735 222.191 301.04C222.191 298.509 224.031 296.899 225.97 296.899C228.303 296.899 229.716 298.509 229.716 300.876C229.716 301.04 229.7 301.221 229.684 301.336H223.538V301.451C223.538 302.93 224.737 304.014 226.101 304.014C227.432 304.014 228.188 303.275 228.5 302.354L229.634 302.765C229.191 304.129 227.925 305.23 226.101 305.23ZM228.353 300.218C228.287 299.052 227.432 298.066 225.986 298.066C224.672 298.066 223.653 299.084 223.571 300.218H228.353ZM232.29 297.129H233.572V298.444C233.933 297.638 234.82 296.899 236.299 296.899C238.649 296.899 239.947 298.739 239.947 301.056C239.947 303.406 238.534 305.23 236.234 305.23C234.837 305.23 233.966 304.606 233.604 303.899V308.122H232.29V297.129ZM236.069 304.047C237.597 304.047 238.616 302.798 238.616 301.056C238.616 299.314 237.597 298.082 236.069 298.082C234.557 298.082 233.572 299.314 233.572 301.056C233.572 302.798 234.574 304.047 236.069 304.047Z" fill="#DCDCAA"/>
<path d="M28.5291 28H27.3788V22.1481H24.8771V21.1129H27.3788V19.977C27.3788 18.3954 28.4716 17.5903 29.9813 17.5903C30.542 17.5903 31.0884 17.6765 31.491 17.8203V18.8555C31.0309 18.7118 30.5564 18.6542 30.0244 18.6542C29.1761 18.6542 28.5291 19.0281 28.5291 20.1064V21.1129H31.491V22.1481H28.5291V28ZM38.6313 27.0654C38.3006 27.77 37.4523 28.2013 36.5033 28.2013C34.7492 28.2013 33.8577 27.0223 33.8577 25.4407V21.1129H35.008V25.2538C35.008 26.2459 35.4825 27.1517 36.7621 27.1517C37.9267 27.1517 38.5738 26.3034 38.5738 25.225V21.1129H39.724V26.5622C39.724 27.0942 39.7815 27.7268 39.8246 28H38.7175C38.66 27.7987 38.6313 27.4105 38.6313 27.0654ZM42.6228 21.1129H43.7442V22.1194C44.1756 21.2998 45.0383 20.9116 45.9872 20.9116C47.7845 20.9116 48.6472 22.1337 48.6472 23.6578V28H47.4969V23.8879C47.4969 22.8958 47.0512 21.99 45.714 21.99C44.6213 21.99 43.773 22.8095 43.773 24.1323V28H42.6228V21.1129ZM54.3928 28.2013C52.5093 28.2013 50.8989 26.7779 50.8989 24.5493C50.8989 22.2919 52.5668 20.9116 54.3784 20.9116C56.2476 20.9116 57.254 21.99 57.5416 23.0971L56.492 23.5284C56.3051 22.8095 55.6724 21.99 54.3784 21.99C53.2425 21.99 52.0635 22.8526 52.0635 24.5493C52.0635 26.2315 53.2425 27.1229 54.3928 27.1229C55.7731 27.1229 56.3338 26.1884 56.5351 25.5701L57.5416 26.0014C57.2109 27.0223 56.2044 28.2013 54.3928 28.2013ZM65.5877 21.1129V22.1625H62.9565V25.8289C62.9565 26.6341 63.4597 27.0223 64.2074 27.0223C64.6819 27.0223 65.3001 26.936 65.5877 26.8354V27.885C65.2714 28 64.7825 28.115 64.078 28.115C62.6546 28.115 61.8063 27.4105 61.8063 26.0446V22.1625H59.592V21.1129H60.7279C61.5618 21.1129 61.8781 20.6816 61.8781 19.9195V18.683H62.9565V21.1129H65.5877ZM68.4864 26.9648H71.132V22.1481H68.7884V21.1129H72.2823V26.9648H74.9278V28H68.4864V26.9648ZM70.5713 18.6974C70.5713 18.0935 71.0457 17.619 71.664 17.619C72.2535 17.619 72.728 18.0935 72.728 18.6974C72.728 19.3013 72.2535 19.7901 71.664 19.7901C71.0457 19.7901 70.5713 19.3013 70.5713 18.6974ZM80.0408 28.2013C78.0566 28.2013 76.5901 26.6772 76.5901 24.5493C76.5901 22.4357 78.0566 20.9116 80.0408 20.9116C82.025 20.9116 83.4915 22.4357 83.4915 24.5493C83.4915 26.6772 82.025 28.2013 80.0408 28.2013ZM80.0408 27.1517C81.2773 27.1517 82.3269 26.2171 82.3269 24.5493C82.3269 22.8958 81.2773 21.9612 80.0408 21.9612C78.8043 21.9612 77.7547 22.8958 77.7547 24.5493C77.7547 26.2171 78.8043 27.1517 80.0408 27.1517ZM85.7289 21.1129H86.8504V22.1194C87.2817 21.2998 88.1444 20.9116 89.0934 20.9116C90.8906 20.9116 91.7533 22.1337 91.7533 23.6578V28H90.6031V23.8879C90.6031 22.8958 90.1574 21.99 88.8202 21.99C87.7275 21.99 86.8792 22.8095 86.8792 24.1323V28H85.7289V21.1129ZM97.5133 28.2013C95.5723 28.2013 94.5946 26.9504 94.4076 26.174L95.4572 25.7426C95.6585 26.4615 96.3918 27.1661 97.5421 27.1661C98.4623 27.1661 98.9943 26.7347 98.9943 26.174C98.9943 25.6708 98.6636 25.3688 97.9015 25.2107L96.5644 24.9375C95.2703 24.6787 94.6952 23.931 94.6952 23.0396C94.6952 21.8749 95.7736 20.9116 97.2976 20.9116C98.8361 20.9116 99.8282 21.7024 100.145 22.7951L99.1668 23.1833C98.9367 22.522 98.3472 21.9181 97.2976 21.9181C96.4206 21.9181 95.8311 22.335 95.8311 22.9533C95.8311 23.399 96.1043 23.7441 96.7944 23.8735L98.1028 24.1323C99.4687 24.4055 100.145 25.0813 100.145 26.1165C100.145 27.0798 99.3393 28.2013 97.5133 28.2013ZM101.85 28L108.766 17.8059H109.973L103.058 28H101.85ZM114.756 28.2013C112.815 28.2013 111.837 26.9504 111.65 26.174L112.7 25.7426C112.901 26.4615 113.634 27.1661 114.785 27.1661C115.705 27.1661 116.237 26.7347 116.237 26.174C116.237 25.6708 115.906 25.3688 115.144 25.2107L113.807 24.9375C112.513 24.6787 111.938 23.931 111.938 23.0396C111.938 21.8749 113.016 20.9116 114.54 20.9116C116.079 20.9116 117.071 21.7024 117.387 22.7951L116.409 23.1833C116.179 22.522 115.59 21.9181 114.54 21.9181C113.663 21.9181 113.074 22.335 113.074 22.9533C113.074 23.399 113.347 23.7441 114.037 23.8735L115.345 24.1323C116.711 24.4055 117.387 25.0813 117.387 26.1165C117.387 27.0798 116.582 28.2013 114.756 28.2013ZM125.476 21.1129H126.741L122.04 30.7318H120.76L122.644 26.9504L119.552 21.1129H120.89L123.248 25.7139L125.476 21.1129ZM128.835 21.1129H129.957V22.1194C130.388 21.2998 131.251 20.9116 132.2 20.9116C133.997 20.9116 134.859 22.1337 134.859 23.6578V28H133.709V23.8879C133.709 22.8958 133.264 21.99 131.926 21.99C130.834 21.99 129.985 22.8095 129.985 24.1323V28H128.835V21.1129ZM140.605 28.2013C138.722 28.2013 137.111 26.7779 137.111 24.5493C137.111 22.2919 138.779 20.9116 140.591 20.9116C142.46 20.9116 143.466 21.99 143.754 23.0971L142.704 23.5284C142.517 22.8095 141.885 21.99 140.591 21.99C139.455 21.99 138.276 22.8526 138.276 24.5493C138.276 26.2315 139.455 27.1229 140.605 27.1229C141.985 27.1229 142.546 26.1884 142.747 25.5701L143.754 26.0014C143.423 27.0223 142.417 28.2013 140.605 28.2013ZM147.817 26.9073C147.817 26.2315 148.349 25.7139 148.996 25.7139C149.658 25.7139 150.19 26.2315 150.19 26.9073C150.19 27.583 149.658 28.0863 148.996 28.0863C148.349 28.0863 147.817 27.583 147.817 26.9073ZM160.421 21.1129V22.1625H157.79V25.8289C157.79 26.6341 158.293 27.0223 159.041 27.0223C159.515 27.0223 160.134 26.936 160.421 26.8354V27.885C160.105 28 159.616 28.115 158.912 28.115C157.488 28.115 156.64 27.4105 156.64 26.0446V22.1625H154.426V21.1129H155.561C156.395 21.1129 156.712 20.6816 156.712 19.9195V18.683H157.79V21.1129H160.421ZM166.483 28.2013C164.542 28.2013 163.564 26.9504 163.377 26.174L164.427 25.7426C164.628 26.4615 165.362 27.1661 166.512 27.1661C167.432 27.1661 167.964 26.7347 167.964 26.174C167.964 25.6708 167.633 25.3688 166.871 25.2107L165.534 24.9375C164.24 24.6787 163.665 23.931 163.665 23.0396C163.665 21.8749 164.743 20.9116 166.267 20.9116C167.806 20.9116 168.798 21.7024 169.114 22.7951L168.137 23.1833C167.907 22.522 167.317 21.9181 166.267 21.9181C165.39 21.9181 164.801 22.335 164.801 22.9533C164.801 23.399 165.074 23.7441 165.764 23.8735L167.073 24.1323C168.439 24.4055 169.114 25.0813 169.114 26.1165C169.114 27.0798 168.309 28.2013 166.483 28.2013Z" fill="#FEFEFE"/>
<rect x="0.5" y="0.5" width="576.5" height="411" stroke="white"/>
<path d="M0 47L577.5 47.0001" stroke="white"/>
</svg>
