<svg width="618" height="296" viewBox="0 0 618 296" fill="none" xmlns="http://www.w3.org/2000/svg">
<path d="M20.601 11.6046C23.1315 11.6046 23.8648 13.7182 23.9655 14.7534L22.7865 14.9691C22.5995 13.862 22.0532 12.7405 20.5579 12.7405C19.0482 12.7405 17.9698 14.0777 17.9698 16.8958C17.9698 19.7139 19.0482 21.0654 20.5291 21.0654C22.0675 21.0654 22.5852 19.8145 22.7289 18.7649L23.8792 18.9518C23.7929 19.9871 23.0309 22.2013 20.5435 22.2013C18.3436 22.2013 16.762 20.3897 16.762 16.8958C16.762 13.4163 18.4011 11.6046 20.601 11.6046ZM28.9347 22.2013C26.9505 22.2013 25.4839 20.6772 25.4839 18.5493C25.4839 16.4357 26.9505 14.9116 28.9347 14.9116C30.9188 14.9116 32.3854 16.4357 32.3854 18.5493C32.3854 20.6772 30.9188 22.2013 28.9347 22.2013ZM28.9347 21.1517C30.1712 21.1517 31.2208 20.2171 31.2208 18.5493C31.2208 16.8958 30.1712 15.9612 28.9347 15.9612C27.6981 15.9612 26.6485 16.8958 26.6485 18.5493C26.6485 20.2171 27.6981 21.1517 28.9347 21.1517ZM34.6228 15.1129H35.7442V16.1194C36.1756 15.2998 37.0383 14.9116 37.9872 14.9116C39.7845 14.9116 40.6472 16.1337 40.6472 17.6578V22H39.4969V17.8879C39.4969 16.8958 39.0512 15.99 37.714 15.99C36.6213 15.99 35.773 16.8095 35.773 18.1323V22H34.6228V15.1129ZM46.3928 22.2013C44.5093 22.2013 42.8989 20.7779 42.8989 18.5493C42.8989 16.2919 44.5668 14.9116 46.3784 14.9116C48.2476 14.9116 49.254 15.99 49.5416 17.0971L48.492 17.5284C48.3051 16.8095 47.6724 15.99 46.3784 15.99C45.2425 15.99 44.0635 16.8526 44.0635 18.5493C44.0635 20.2315 45.2425 21.1229 46.3928 21.1229C47.7731 21.1229 48.3338 20.1884 48.5351 19.5701L49.5416 20.0014C49.2109 21.0223 48.2044 22.2013 46.3928 22.2013ZM56.495 21.0654C56.1643 21.77 55.316 22.2013 54.367 22.2013C52.6129 22.2013 51.7214 21.0223 51.7214 19.4407V15.1129H52.8717V19.2538C52.8717 20.2459 53.3462 21.1517 54.6258 21.1517C55.7904 21.1517 56.4374 20.3034 56.4374 19.225V15.1129H57.5877V20.5622C57.5877 21.0942 57.6452 21.7268 57.6883 22H56.5812C56.5237 21.7987 56.495 21.4105 56.495 21.0654ZM66.669 16.3782C66.4821 16.3207 66.1945 16.2488 65.7057 16.2488C64.2823 16.2488 63.5202 17.0539 63.5202 18.6355V20.9792H65.6913V22H60.3283V20.9792H62.37V16.1337H60.544V15.1129H63.4915V16.4644C63.8941 15.4005 64.9005 15.0123 65.7201 15.0123C66.2233 15.0123 66.4965 15.0841 66.669 15.1417V16.3782ZM75.2902 16.3782C75.1033 16.3207 74.8158 16.2488 74.3269 16.2488C72.9035 16.2488 72.1414 17.0539 72.1414 18.6355V20.9792H74.3125V22H68.9495V20.9792H70.9912V16.1337H69.1652V15.1129H72.1127V16.4644C72.5153 15.4005 73.5217 15.0123 74.3413 15.0123C74.8445 15.0123 75.1177 15.0841 75.2902 15.1417V16.3782ZM80.7627 22.2013C78.9654 22.2013 77.3407 20.8929 77.3407 18.5349C77.3407 16.3207 78.951 14.9116 80.6477 14.9116C82.6893 14.9116 83.9259 16.3207 83.9259 18.3911C83.9259 18.5349 83.9115 18.693 83.8971 18.7937H78.5197V18.8943C78.5197 20.1884 79.5693 21.1373 80.7627 21.1373C81.9273 21.1373 82.5887 20.4903 82.8619 19.6851L83.854 20.0446C83.4658 21.238 82.3586 22.2013 80.7627 22.2013ZM82.7325 17.816C82.675 16.7951 81.9273 15.9325 80.662 15.9325C79.5118 15.9325 78.6203 16.8239 78.5485 17.816H82.7325ZM86.3501 15.1129H87.4716V16.1194C87.903 15.2998 88.7657 14.9116 89.7146 14.9116C91.5119 14.9116 92.3746 16.1337 92.3746 17.6578V22H91.2243V17.8879C91.2243 16.8958 90.7786 15.99 89.4414 15.99C88.3487 15.99 87.5004 16.8095 87.5004 18.1323V22H86.3501V15.1129ZM98.1202 22.2013C96.2366 22.2013 94.6263 20.7779 94.6263 18.5493C94.6263 16.2919 96.2942 14.9116 98.1058 14.9116C99.9749 14.9116 100.981 15.99 101.269 17.0971L100.219 17.5284C100.032 16.8095 99.3998 15.99 98.1058 15.99C96.9699 15.99 95.7909 16.8526 95.7909 18.5493C95.7909 20.2315 96.9699 21.1229 98.1202 21.1229C99.5005 21.1229 100.061 20.1884 100.263 19.5701L101.269 20.0014C100.938 21.0223 99.9318 22.2013 98.1202 22.2013ZM108.855 15.1129H110.12L105.419 24.7318H104.139L106.022 20.9504L102.931 15.1129H104.268L106.626 19.7139L108.855 15.1129ZM120.174 17.3703H127.363V18.3767H120.174V17.3703ZM141.241 22.2013C139.3 22.2013 138.322 20.9504 138.135 20.174L139.185 19.7426C139.386 20.4615 140.119 21.1661 141.269 21.1661C142.19 21.1661 142.722 20.7347 142.722 20.174C142.722 19.6708 142.391 19.3688 141.629 19.2107L140.292 18.9375C138.998 18.6787 138.423 17.931 138.423 17.0396C138.423 15.8749 139.501 14.9116 141.025 14.9116C142.563 14.9116 143.556 15.7024 143.872 16.7951L142.894 17.1833C142.664 16.522 142.075 15.9181 141.025 15.9181C140.148 15.9181 139.558 16.335 139.558 16.9533C139.558 17.399 139.832 17.7441 140.522 17.8735L141.83 18.1323C143.196 18.4055 143.872 19.0813 143.872 20.1165C143.872 21.0798 143.067 22.2013 141.241 22.2013ZM151.961 15.1129H153.226L148.525 24.7318H147.245L149.129 20.9504L146.037 15.1129H147.375L149.733 19.7139L151.961 15.1129ZM155.32 15.1129H156.441V16.1194C156.873 15.2998 157.735 14.9116 158.684 14.9116C160.482 14.9116 161.344 16.1337 161.344 17.6578V22H160.194V17.8879C160.194 16.8958 159.748 15.99 158.411 15.99C157.319 15.99 156.47 16.8095 156.47 18.1323V22H155.32V15.1129ZM167.09 22.2013C165.206 22.2013 163.596 20.7779 163.596 18.5493C163.596 16.2919 165.264 14.9116 167.076 14.9116C168.945 14.9116 169.951 15.99 170.239 17.0971L169.189 17.5284C169.002 16.8095 168.37 15.99 167.076 15.99C165.94 15.99 164.761 16.8526 164.761 18.5493C164.761 20.2315 165.94 21.1229 167.09 21.1229C168.47 21.1229 169.031 20.1884 169.232 19.5701L170.239 20.0014C169.908 21.0223 168.902 22.2013 167.09 22.2013ZM173.008 17.3703H177.983V18.3767H173.008V17.3703ZM181.069 20.1452C181.069 18.9375 181.974 18.3048 183.197 18.1323L185.181 17.8447C185.698 17.7728 185.799 17.5428 185.799 17.2265C185.799 16.4932 185.253 15.9468 184.146 15.9468C183.067 15.9468 182.377 16.5507 182.291 17.3415L181.198 17.1115C181.342 15.8318 182.564 14.9116 184.117 14.9116C186.101 14.9116 186.935 16.0043 186.935 17.3415V20.706C186.935 21.2811 187.021 21.7843 187.079 22H185.957C185.914 21.8706 185.828 21.4105 185.828 20.9648C185.612 21.5255 184.793 22.2013 183.499 22.2013C181.917 22.2013 181.069 21.1804 181.069 20.1452ZM183.671 21.1517C184.793 21.1517 185.799 20.5047 185.799 19.1244V18.6355L183.427 18.9806C182.737 19.0813 182.219 19.4407 182.219 20.059C182.219 20.6485 182.65 21.1517 183.671 21.1517ZM192.954 22.2013C191.07 22.2013 189.46 20.7779 189.46 18.5493C189.46 16.2919 191.128 14.9116 192.939 14.9116C194.808 14.9116 195.815 15.99 196.103 17.0971L195.053 17.5284C194.866 16.8095 194.233 15.99 192.939 15.99C191.803 15.99 190.624 16.8526 190.624 18.5493C190.624 20.2315 191.803 21.1229 192.954 21.1229C194.334 21.1229 194.895 20.1884 195.096 19.5701L196.103 20.0014C195.772 21.0223 194.765 22.2013 192.954 22.2013ZM201.575 22.2013C199.691 22.2013 198.081 20.7779 198.081 18.5493C198.081 16.2919 199.749 14.9116 201.561 14.9116C203.43 14.9116 204.436 15.99 204.724 17.0971L203.674 17.5284C203.487 16.8095 202.855 15.99 201.561 15.99C200.425 15.99 199.246 16.8526 199.246 18.5493C199.246 20.2315 200.425 21.1229 201.575 21.1229C202.955 21.1229 203.516 20.1884 203.717 19.5701L204.724 20.0014C204.393 21.0223 203.387 22.2013 201.575 22.2013ZM209.98 22.2013C207.996 22.2013 206.53 20.6772 206.53 18.5493C206.53 16.4357 207.996 14.9116 209.98 14.9116C211.965 14.9116 213.431 16.4357 213.431 18.5493C213.431 20.6772 211.965 22.2013 209.98 22.2013ZM209.98 21.1517C211.217 21.1517 212.267 20.2171 212.267 18.5493C212.267 16.8958 211.217 15.9612 209.98 15.9612C208.744 15.9612 207.694 16.8958 207.694 18.5493C207.694 20.2171 208.744 21.1517 209.98 21.1517ZM220.298 21.0654C219.968 21.77 219.119 22.2013 218.17 22.2013C216.416 22.2013 215.525 21.0223 215.525 19.4407V15.1129H216.675V19.2538C216.675 20.2459 217.15 21.1517 218.429 21.1517C219.594 21.1517 220.241 20.3034 220.241 19.225V15.1129H221.391V20.5622C221.391 21.0942 221.449 21.7268 221.492 22H220.385C220.327 21.7987 220.298 21.4105 220.298 21.0654ZM224.29 15.1129H225.411V16.1194C225.843 15.2998 226.705 14.9116 227.654 14.9116C229.452 14.9116 230.314 16.1337 230.314 17.6578V22H229.164V17.8879C229.164 16.8958 228.718 15.99 227.381 15.99C226.288 15.99 225.44 16.8095 225.44 18.1323V22H224.29V15.1129ZM238.634 15.1129V16.1625H236.002V19.8289C236.002 20.6341 236.506 21.0223 237.253 21.0223C237.728 21.0223 238.346 20.936 238.634 20.8354V21.885C238.317 22 237.828 22.115 237.124 22.115C235.7 22.115 234.852 21.4105 234.852 20.0446V16.1625H232.638V15.1129H233.774C234.608 15.1129 234.924 14.6816 234.924 13.9195V12.683H236.002V15.1129H238.634ZM241.978 17.3703H246.953V18.3767H241.978V17.3703ZM255.056 20.8641C254.726 21.583 253.964 22.2013 252.698 22.2013C250.743 22.2013 249.492 20.5909 249.492 18.5493C249.492 16.5507 250.815 14.9116 252.756 14.9116C254.064 14.9116 254.769 15.5299 255.028 16.1481V11.6046H256.178V20.706C256.178 21.3961 256.221 21.8562 256.25 22H255.128C255.1 21.8418 255.056 21.4536 255.056 21.0079V20.8641ZM252.871 21.1517C254.223 21.1517 255.056 20.059 255.056 18.5493C255.056 17.0396 254.237 15.9612 252.871 15.9612C251.548 15.9612 250.657 17.0396 250.657 18.5493C250.657 20.059 251.563 21.1517 252.871 21.1517ZM258.66 20.1452C258.66 18.9375 259.566 18.3048 260.788 18.1323L262.772 17.8447C263.289 17.7728 263.39 17.5428 263.39 17.2265C263.39 16.4932 262.844 15.9468 261.737 15.9468C260.658 15.9468 259.968 16.5507 259.882 17.3415L258.789 17.1115C258.933 15.8318 260.155 14.9116 261.708 14.9116C263.692 14.9116 264.526 16.0043 264.526 17.3415V20.706C264.526 21.2811 264.612 21.7843 264.67 22H263.548C263.505 21.8706 263.419 21.4105 263.419 20.9648C263.203 21.5255 262.384 22.2013 261.09 22.2013C259.508 22.2013 258.66 21.1804 258.66 20.1452ZM261.262 21.1517C262.384 21.1517 263.39 20.5047 263.39 19.1244V18.6355L261.018 18.9806C260.328 19.0813 259.81 19.4407 259.81 20.059C259.81 20.6485 260.241 21.1517 261.262 21.1517ZM273.118 15.1129V16.1625H270.487V19.8289C270.487 20.6341 270.99 21.0223 271.738 21.0223C272.213 21.0223 272.831 20.936 273.118 20.8354V21.885C272.802 22 272.313 22.115 271.609 22.115C270.185 22.115 269.337 21.4105 269.337 20.0446V16.1625H267.123V15.1129H268.259C269.093 15.1129 269.409 14.6816 269.409 13.9195V12.683H270.487V15.1129H273.118ZM275.902 20.1452C275.902 18.9375 276.808 18.3048 278.03 18.1323L280.014 17.8447C280.532 17.7728 280.633 17.5428 280.633 17.2265C280.633 16.4932 280.086 15.9468 278.979 15.9468C277.901 15.9468 277.211 16.5507 277.124 17.3415L276.032 17.1115C276.175 15.8318 277.397 14.9116 278.95 14.9116C280.935 14.9116 281.768 16.0043 281.768 17.3415V20.706C281.768 21.2811 281.855 21.7843 281.912 22H280.791C280.748 21.8706 280.661 21.4105 280.661 20.9648C280.446 21.5255 279.626 22.2013 278.332 22.2013C276.75 22.2013 275.902 21.1804 275.902 20.1452ZM278.505 21.1517C279.626 21.1517 280.633 20.5047 280.633 19.1244V18.6355L278.26 18.9806C277.57 19.0813 277.052 19.4407 277.052 20.059C277.052 20.6485 277.484 21.1517 278.505 21.1517Z" fill="#FEFEFE"/>
<rect x="16.5" y="66.5" width="585" height="101.317" stroke="white"/>
<path d="M42.6172 115.159C42.6172 108.347 45.5032 103.043 50.0532 99.3507H46.1012H39.9132V96.9587H52.2632V99.7927C46.7772 104.369 45.5032 109.153 45.5032 115.159H42.6172ZM60.106 115.523C56.31 115.523 53.866 113.339 53.606 109.959L56.336 109.387C56.44 111.753 57.896 113.261 60.106 113.261C62.056 113.261 63.564 112.091 63.564 110.167C63.564 108.191 62.082 107.021 60.054 107.021H58.754V104.811H60.054C61.822 104.811 63.278 103.693 63.278 101.821C63.278 100.001 61.848 98.8567 60.106 98.8567C58.13 98.8567 56.908 100.209 56.726 102.107L54.048 101.665C54.282 98.8567 56.466 96.5947 60.106 96.5947C63.772 96.5947 65.904 98.6747 65.904 101.405C65.904 103.641 64.5 105.175 62.576 105.799C64.734 106.293 66.242 108.035 66.242 110.505C66.242 113.261 63.954 115.523 60.106 115.523Z" fill="#FEFEFE"/>
<path d="M72.6072 113.323L76.9112 98.7787H78.4152L74.1112 113.323H72.6072ZM85.0036 111.659V110.267V104.107V102.539C84.3956 103.563 83.2276 104.411 81.9956 104.587V102.923C83.3236 102.603 84.5716 101.803 85.2916 100.459H86.5876V110.267V111.659H85.0036ZM93.3729 111.883C90.7009 111.883 88.8769 109.851 88.8769 106.027C88.8769 102.187 90.9089 100.235 93.3729 100.235C95.8209 100.235 97.8369 102.187 97.8369 106.027C97.8369 109.851 96.0289 111.883 93.3729 111.883ZM93.3729 110.459C95.0849 110.459 96.1569 108.923 96.1569 106.027C96.1569 103.339 95.0529 101.659 93.3729 101.659C91.6609 101.659 90.5569 103.339 90.5569 106.027C90.5569 108.907 91.6289 110.459 93.3729 110.459ZM103.963 111.883C101.291 111.883 99.4669 109.851 99.4669 106.027C99.4669 102.187 101.499 100.235 103.963 100.235C106.411 100.235 108.427 102.187 108.427 106.027C108.427 109.851 106.619 111.883 103.963 111.883ZM103.963 110.459C105.675 110.459 106.747 108.923 106.747 106.027C106.747 103.339 105.643 101.659 103.963 101.659C102.251 101.659 101.147 103.339 101.147 106.027C101.147 108.907 102.219 110.459 103.963 110.459Z" fill="#7C7C7C"/>
<path d="M43.9732 127.233C45.7512 127.233 46.7592 128.311 46.7592 129.851C46.7592 130.943 46.1292 131.825 45.2052 132.091C46.3532 132.371 46.9832 133.351 46.9832 134.471C46.9832 136.039 45.8072 137.159 44.0012 137.159H40.6692V127.233H43.9732ZM43.8332 136.109C45.0652 136.109 45.8072 135.409 45.8072 134.345C45.8072 133.351 45.1352 132.665 43.9592 132.665H41.8312V136.109H43.8332ZM43.8332 131.629C44.8972 131.629 45.5832 130.929 45.5832 129.963C45.5832 128.927 44.9252 128.269 43.6792 128.269H41.8312V131.629H43.8332ZM51.9617 137.355C50.0297 137.355 48.6857 136.333 48.6857 134.303V127.233H49.8477V134.191C49.8477 135.507 50.6737 136.249 51.9617 136.249C53.2497 136.249 54.0757 135.507 54.0757 134.191V127.233H55.2377V134.303C55.2377 136.333 53.8937 137.355 51.9617 137.355ZM57.5423 127.233H63.6323V128.325H58.7043V131.783H63.2683V132.875H58.7043V137.159H57.5423V127.233ZM65.9368 127.233H72.0268V128.325H67.0988V131.783H71.6628V132.875H67.0988V137.159H65.9368V127.233ZM74.4853 127.233H80.2813V128.325H75.6473V131.657H79.9733V132.749H75.6473V136.067H80.2813V137.159H74.4853V127.233ZM83.8038 133.001V137.159H82.6418V127.233H86.2538C88.0458 127.233 89.1658 128.521 89.1658 130.131C89.1658 131.573 88.2278 132.665 86.8278 132.903L89.1238 137.159H87.7938L85.5678 133.001H83.8038ZM86.0718 131.937C87.2338 131.937 87.9898 131.223 87.9898 130.131C87.9898 129.025 87.2338 128.297 86.0718 128.297H83.8038V131.937H86.0718ZM91.2744 127.233H97.0704V128.325H92.4364V131.657H96.7624V132.749H92.4364V136.067H97.0704V137.159H91.2744V127.233ZM99.3189 127.233H102.273C104.303 127.233 105.871 128.787 105.871 132.217C105.871 135.633 104.303 137.159 102.245 137.159H99.3189V127.233ZM102.063 136.067C103.603 136.067 104.709 134.919 104.709 132.217C104.709 129.501 103.617 128.325 102.063 128.325H100.495V136.067H102.063ZM116.458 127.233H122.254V128.325H117.62V131.657H121.946V132.749H117.62V136.067H122.254V137.159H116.458V127.233ZM131.531 127.233L128.171 137.159H126.855L123.523 127.233H124.769L127.513 135.759L130.312 127.233H131.531ZM133.247 127.233H139.043V128.325H134.409V131.657H138.735V132.749H134.409V136.067H139.043V137.159H133.247V127.233ZM142.188 128.983V137.159H141.04V127.233H142.552L146.416 135.045V127.233H147.564V137.159H146.22L142.188 128.983ZM153.27 137.159H152.108V128.325H148.888V127.233H156.49V128.325H153.27V137.159ZM163.345 129.865C163.191 129.039 162.519 128.115 161.105 128.115C159.957 128.115 159.103 128.843 159.103 129.823C159.103 130.621 159.593 131.223 160.685 131.461L161.959 131.741C163.555 132.091 164.479 133.085 164.479 134.485C164.479 135.997 163.261 137.355 161.231 137.355C159.117 137.355 157.857 135.941 157.675 134.541L158.781 134.191C158.893 135.311 159.943 136.263 161.287 136.263C162.603 136.263 163.303 135.479 163.303 134.555C163.303 133.729 162.757 133.127 161.721 132.903L160.419 132.623C158.907 132.301 157.927 131.349 157.927 129.851C157.927 128.297 159.327 127.037 161.119 127.037C163.261 127.037 164.171 128.339 164.423 129.487L163.345 129.865Z" fill="#FEFEFE"/>
<path d="M230.371 115.159C230.371 108.347 233.257 103.043 237.807 99.3507H233.855H227.667V96.9587H240.017V99.7927C234.531 104.369 233.257 109.153 233.257 115.159H230.371ZM245.143 115.523C242.439 115.523 240.021 114.275 239.475 111.831L241.789 111.077C242.127 112.403 243.063 113.521 245.169 113.521C246.963 113.521 247.925 112.871 247.925 111.727C247.925 110.817 247.379 110.167 245.611 109.829L244.051 109.543C241.841 109.101 239.995 108.269 239.995 105.799C239.995 103.485 242.179 101.899 244.857 101.899C248.055 101.899 249.589 103.537 250.109 105.175L247.951 106.007C247.639 105.123 246.859 103.849 244.831 103.849C243.115 103.849 242.335 104.655 242.335 105.565C242.335 106.397 242.725 106.891 244.519 107.229L246.053 107.515C247.535 107.827 250.395 108.659 250.395 111.519C250.395 113.963 248.471 115.523 245.143 115.523Z" fill="#FEFEFE"/>
<path d="M228.507 127.233H234.597V128.325H229.669V131.783H234.233V132.875H229.669V137.159H228.507V127.233ZM237.14 127.233H238.316V136.053H243.412V137.159H237.14V127.233ZM248.11 137.355C246.178 137.355 244.834 136.333 244.834 134.303V127.233H245.996V134.191C245.996 135.507 246.822 136.249 248.11 136.249C249.398 136.249 250.224 135.507 250.224 134.191V127.233H251.386V134.303C251.386 136.333 250.042 137.355 248.11 137.355ZM258.759 129.865C258.605 129.039 257.933 128.115 256.519 128.115C255.371 128.115 254.517 128.843 254.517 129.823C254.517 130.621 255.007 131.223 256.099 131.461L257.373 131.741C258.969 132.091 259.893 133.085 259.893 134.485C259.893 135.997 258.675 137.355 256.645 137.355C254.531 137.355 253.271 135.941 253.089 134.541L254.195 134.191C254.307 135.311 255.357 136.263 256.701 136.263C258.017 136.263 258.717 135.479 258.717 134.555C258.717 133.729 258.171 133.127 257.135 132.903L255.833 132.623C254.321 132.301 253.341 131.349 253.341 129.851C253.341 128.297 254.741 127.037 256.533 127.037C258.675 127.037 259.585 128.339 259.837 129.487L258.759 129.865ZM266.999 132.651H262.799V137.159H261.637V127.233H262.799V131.559H266.999V127.233H268.161V137.159H266.999V132.651Z" fill="#FEFEFE"/>
<path d="M420.517 115.159V112.897V102.887V100.339C419.529 102.003 417.631 103.381 415.629 103.667V100.963C417.787 100.443 419.815 99.1427 420.985 96.9587H423.091V112.897V115.159H420.517ZM426.811 112.299C431.881 109.179 436.067 106.163 436.067 102.523C436.067 100.157 434.559 98.9347 432.765 98.9347C430.789 98.9347 429.281 100.365 429.281 102.939L426.655 102.575C426.681 99.1167 428.995 96.5947 432.791 96.5947C436.561 96.5947 438.797 98.9867 438.797 102.237C438.797 104.187 438.121 105.851 436.873 107.307C435.313 109.101 432.895 110.817 429.671 112.767H433.909H439.005V115.159H426.811V112.299Z" fill="#0BDD48"/>
<path d="M419.481 127.233C421.259 127.233 422.267 128.311 422.267 129.851C422.267 130.943 421.637 131.825 420.713 132.091C421.861 132.371 422.491 133.351 422.491 134.471C422.491 136.039 421.315 137.159 419.509 137.159H416.177V127.233H419.481ZM419.341 136.109C420.573 136.109 421.315 135.409 421.315 134.345C421.315 133.351 420.643 132.665 419.467 132.665H417.339V136.109H419.341ZM419.341 131.629C420.405 131.629 421.091 130.929 421.091 129.963C421.091 128.927 420.433 128.269 419.187 128.269H417.339V131.629H419.341ZM430.2 137.159L429.304 134.289H425.608L424.726 137.159H423.494L426.63 127.233H428.296L431.446 137.159H430.2ZM427.456 128.269L425.958 133.155H428.954L427.456 128.269ZM436.438 137.159H435.276V128.325H432.056V127.233H439.658V128.325H436.438V137.159ZM444.539 127.037C447.003 127.037 447.717 129.095 447.815 130.103L446.667 130.313C446.485 129.235 445.953 128.143 444.497 128.143C443.027 128.143 441.977 129.445 441.977 132.189C441.977 134.933 443.027 136.249 444.469 136.249C445.967 136.249 446.471 135.031 446.611 134.009L447.731 134.191C447.647 135.199 446.905 137.355 444.483 137.355C442.341 137.355 440.801 135.591 440.801 132.189C440.801 128.801 442.397 127.037 444.539 127.037ZM454.753 132.651H450.553V137.159H449.391V127.233H450.553V131.559H454.753V127.233H455.915V137.159H454.753V132.651ZM458.388 127.233H464.184V128.325H459.55V131.657H463.876V132.749H459.55V136.067H464.184V137.159H458.388V127.233ZM471.696 129.865C471.542 129.039 470.87 128.115 469.456 128.115C468.308 128.115 467.454 128.843 467.454 129.823C467.454 130.621 467.944 131.223 469.036 131.461L470.31 131.741C471.906 132.091 472.83 133.085 472.83 134.485C472.83 135.997 471.612 137.355 469.582 137.355C467.468 137.355 466.208 135.941 466.026 134.541L467.132 134.191C467.244 135.311 468.294 136.263 469.638 136.263C470.954 136.263 471.654 135.479 471.654 134.555C471.654 133.729 471.108 133.127 470.072 132.903L468.77 132.623C467.258 132.301 466.278 131.349 466.278 129.851C466.278 128.297 467.678 127.037 469.47 127.037C471.612 127.037 472.522 128.339 472.774 129.487L471.696 129.865ZM486.805 137.159H485.643V128.325H482.423V127.233H490.025V128.325H486.805V137.159ZM494.626 137.355C492.512 137.355 491 135.647 491 132.189C491 128.731 492.512 127.037 494.626 127.037C496.74 127.037 498.252 128.731 498.252 132.189C498.252 135.647 496.74 137.355 494.626 137.355ZM494.626 136.235C496.11 136.235 497.076 134.961 497.076 132.189C497.076 129.417 496.11 128.157 494.626 128.157C493.142 128.157 492.176 129.417 492.176 132.189C492.176 134.961 493.142 136.235 494.626 136.235ZM500.01 127.233H502.964C504.994 127.233 506.562 128.787 506.562 132.217C506.562 135.633 504.994 137.159 502.936 137.159H500.01V127.233ZM502.754 136.067C504.294 136.067 505.4 134.919 505.4 132.217C505.4 129.501 504.308 128.325 502.754 128.325H501.186V136.067H502.754ZM514.145 137.159L513.249 134.289H509.553L508.671 137.159H507.439L510.575 127.233H512.241L515.391 137.159H514.145ZM511.401 128.269L509.903 133.155H512.899L511.401 128.269ZM517.177 127.233L519.809 131.839L522.455 127.233H523.827L520.397 132.959V137.159H519.221V132.959L515.805 127.233H517.177Z" fill="#FEFEFE"/>
<path d="M20.7304 200.123C22.5564 200.123 23.5916 201.23 23.5916 202.812C23.5916 203.933 22.9446 204.839 21.9957 205.112C23.1747 205.4 23.8217 206.406 23.8217 207.556C23.8217 209.167 22.6139 210.317 20.7591 210.317H17.3372V200.123H20.7304ZM20.5866 209.239C21.8519 209.239 22.6139 208.52 22.6139 207.427C22.6139 206.406 21.9238 205.702 20.716 205.702H18.5305V209.239H20.5866ZM20.5866 204.638C21.6793 204.638 22.3839 203.919 22.3839 202.927C22.3839 201.863 21.7081 201.187 20.4284 201.187H18.5305V204.638H20.5866ZM28.9347 210.518C26.9505 210.518 25.5702 209.469 25.5702 207.384V200.123H26.7636V207.269C26.7636 208.62 27.6119 209.382 28.9347 209.382C30.2574 209.382 31.1057 208.62 31.1057 207.269V200.123H32.2991V207.384C32.2991 209.469 30.9188 210.518 28.9347 210.518ZM34.6659 200.123H40.9204V201.244H35.8593V204.796H40.5465V205.917H35.8593V210.317H34.6659V200.123ZM43.2871 200.123H49.5416V201.244H44.4805V204.796H49.1678V205.917H44.4805V210.317H43.2871V200.123ZM52.0665 200.123H58.019V201.244H53.2599V204.666H57.7027V205.788H53.2599V209.195H58.019V210.317H52.0665V200.123ZM61.6367 206.047V210.317H60.4433V200.123H64.1529C65.9933 200.123 67.1435 201.446 67.1435 203.099C67.1435 204.58 66.1802 205.702 64.7424 205.946L67.1004 210.317H65.7344L63.4483 206.047H61.6367ZM63.9659 204.954C65.1593 204.954 65.9357 204.221 65.9357 203.099C65.9357 201.963 65.1593 201.216 63.9659 201.216H61.6367V204.954H63.9659ZM77.772 200.123H84.0265V201.244H78.9654V204.796H83.6527V205.917H78.9654V210.317H77.772V200.123ZM89.8871 209.282H92.2164V210.317H86.3501V209.282H88.6938V201.158H86.3501V200.123H92.2164V201.158H89.8871V209.282ZM95.2589 200.123H96.4667V209.181H101.7V210.317H95.2589V200.123ZM103.88 200.123H105.088V209.181H110.322V210.317H103.88V200.123Z" fill="#FEFEFE"/>
<g clip-path="url(#clip0_2_47421)">
<rect x="16" y="234.317" width="455" height="6" fill="#0BDD48"/>
<rect x="471" y="234.317" width="455" height="6" fill="#2C9B63"/>
</g>
<path d="M18.912 295.317H17.568V283.973H24.384V285.205H18.912V289.189H23.888V290.421H18.912V295.317ZM27.5124 295.317H26.2324V283.749H27.5124V295.317ZM35.1016 294.277C34.7336 295.061 33.8056 295.541 32.7976 295.541C30.9416 295.541 29.9176 294.165 29.9176 292.469V287.653H31.1976V292.261C31.1976 293.381 31.7256 294.389 33.0856 294.389C34.3496 294.389 35.0376 293.493 35.0376 292.277V287.653H36.3176V293.877C36.3176 294.469 36.3656 295.013 36.4136 295.317H35.1816C35.1336 295.141 35.1016 294.725 35.1016 294.341V294.277ZM38.1865 293.301L39.3385 292.901C39.4505 293.781 40.1065 294.453 41.2585 294.453C42.1705 294.453 42.7465 293.941 42.7465 293.285C42.7465 292.709 42.2825 292.325 41.5785 292.165L40.3305 291.877C39.1625 291.605 38.4265 290.853 38.4265 289.749C38.4265 288.469 39.6425 287.429 41.0985 287.429C43.0825 287.429 43.7705 288.693 43.9465 289.477L42.8105 289.893C42.7145 289.365 42.3145 288.517 41.0985 288.517C40.2985 288.517 39.6745 289.029 39.6745 289.669C39.6745 290.213 40.0105 290.549 40.6825 290.709L41.9305 290.997C43.2745 291.301 44.0105 292.085 44.0105 293.221C44.0105 294.325 43.0665 295.541 41.2425 295.541C39.2265 295.541 38.3145 294.261 38.1865 293.301ZM47.2624 290.741V295.317H45.9824V283.749H47.2624V288.677C47.7584 287.877 48.6384 287.429 49.6304 287.429C51.4704 287.429 52.3664 288.741 52.3664 290.405V295.317H51.0864V290.597C51.0864 289.477 50.5744 288.581 49.1824 288.581C47.9664 288.581 47.2624 289.557 47.2624 290.741ZM55.5796 290.741H60.1556C60.1236 289.525 59.3396 288.565 57.8836 288.565C56.5556 288.565 55.6596 289.605 55.5796 290.741ZM60.3316 292.741L61.4356 293.141C61.0036 294.469 59.8036 295.541 58.0276 295.541C55.9796 295.541 54.2356 294.037 54.2356 291.461C54.2356 289.045 55.9316 287.429 57.8676 287.429C60.1876 287.429 61.4836 289.045 61.4836 291.381C61.4836 291.541 61.4676 291.717 61.4516 291.829H55.5476V291.893C55.5476 293.349 56.6516 294.389 58.0276 294.389C59.3236 294.389 60.0276 293.653 60.3316 292.741ZM62.7959 293.301L63.9479 292.901C64.0599 293.781 64.7159 294.453 65.8679 294.453C66.7799 294.453 67.3559 293.941 67.3559 293.285C67.3559 292.709 66.8919 292.325 66.1879 292.165L64.9399 291.877C63.7719 291.605 63.0359 290.853 63.0359 289.749C63.0359 288.469 64.2519 287.429 65.7079 287.429C67.6919 287.429 68.3799 288.693 68.5559 289.477L67.4199 289.893C67.3239 289.365 66.9239 288.517 65.7079 288.517C64.9079 288.517 64.2839 289.029 64.2839 289.669C64.2839 290.213 64.6199 290.549 65.2919 290.709L66.5399 290.997C67.8839 291.301 68.6199 292.085 68.6199 293.221C68.6199 294.325 67.6759 295.541 65.8519 295.541C63.8359 295.541 62.9239 294.261 62.7959 293.301ZM74.1259 293.285C74.1259 291.941 75.0699 291.189 76.4139 290.997L78.4779 290.693C79.0379 290.613 79.1659 290.373 79.1659 290.037C79.1659 289.173 78.5899 288.517 77.3899 288.517C76.2699 288.517 75.5979 289.189 75.4859 290.165L74.2699 289.877C74.4299 288.421 75.7099 287.429 77.3579 287.429C79.5339 287.429 80.4459 288.677 80.4459 290.165V294.037C80.4459 294.677 80.4939 295.077 80.5419 295.317H79.2939C79.2619 295.141 79.1979 294.757 79.1979 294.165C78.8619 294.789 78.0299 295.541 76.6539 295.541C75.0699 295.541 74.1259 294.453 74.1259 293.285ZM76.8139 294.453C78.1419 294.453 79.1659 293.717 79.1659 292.085V291.573L76.6699 291.941C75.9339 292.053 75.4059 292.469 75.4059 293.221C75.4059 293.845 75.9339 294.453 76.8139 294.453ZM84.6509 285.221V287.653H86.4589V288.805H84.6509V293.045C84.6509 293.845 85.0029 294.245 85.8189 294.245C86.0429 294.245 86.3309 294.197 86.4589 294.165V295.253C86.3149 295.301 85.9469 295.397 85.4509 295.397C84.1869 295.397 83.3709 294.613 83.3709 293.221V288.805H81.8349V287.653H82.3309C83.1149 287.653 83.4509 287.205 83.4509 286.485V285.221H84.6509ZM95.3189 295.317H94.0069V287.749H91.4629V286.981C92.9029 286.917 93.8789 286.069 94.1349 284.949H95.3189V295.317ZM101.412 294.357C102.18 294.357 102.74 294.069 103.156 293.621C103.844 292.901 104.132 291.701 104.132 290.133C104.132 288.565 103.844 287.365 103.156 286.645C102.74 286.197 102.18 285.909 101.412 285.909C100.644 285.909 100.084 286.197 99.6676 286.645C98.9796 287.365 98.6916 288.565 98.6916 290.133C98.6916 291.701 98.9796 292.901 99.6676 293.621C100.084 294.069 100.644 294.357 101.412 294.357ZM101.412 295.541C100.004 295.541 98.9956 294.917 98.3396 293.957C97.6196 292.917 97.3796 291.541 97.3796 290.133C97.3796 288.725 97.6196 287.349 98.3396 286.309C98.9956 285.349 100.004 284.725 101.412 284.725C102.82 284.725 103.828 285.349 104.484 286.309C105.204 287.349 105.444 288.725 105.444 290.133C105.444 291.541 105.204 292.917 104.484 293.957C103.828 294.917 102.82 295.541 101.412 295.541ZM111.209 294.357C111.977 294.357 112.537 294.069 112.953 293.621C113.641 292.901 113.929 291.701 113.929 290.133C113.929 288.565 113.641 287.365 112.953 286.645C112.537 286.197 111.977 285.909 111.209 285.909C110.441 285.909 109.881 286.197 109.465 286.645C108.777 287.365 108.489 288.565 108.489 290.133C108.489 291.701 108.777 292.901 109.465 293.621C109.881 294.069 110.441 294.357 111.209 294.357ZM111.209 295.541C109.801 295.541 108.793 294.917 108.137 293.957C107.417 292.917 107.177 291.541 107.177 290.133C107.177 288.725 107.417 287.349 108.137 286.309C108.793 285.349 109.801 284.725 111.209 284.725C112.617 284.725 113.625 285.349 114.281 286.309C115.001 287.349 115.241 288.725 115.241 290.133C115.241 291.541 115.001 292.917 114.281 293.957C113.625 294.917 112.617 295.541 111.209 295.541ZM122.252 290.741H126.828C126.796 289.525 126.012 288.565 124.556 288.565C123.228 288.565 122.332 289.605 122.252 290.741ZM127.004 292.741L128.108 293.141C127.676 294.469 126.476 295.541 124.7 295.541C122.652 295.541 120.908 294.037 120.908 291.461C120.908 289.045 122.604 287.429 124.54 287.429C126.86 287.429 128.156 289.045 128.156 291.381C128.156 291.541 128.14 291.717 128.124 291.829H122.22V291.893C122.22 293.349 123.324 294.389 124.7 294.389C125.996 294.389 126.7 293.653 127.004 292.741ZM136.402 287.653L133.346 295.317H132.05L128.962 287.653H130.402L132.706 293.829L135.026 287.653H136.402ZM138.595 290.741H143.171C143.139 289.525 142.355 288.565 140.899 288.565C139.571 288.565 138.675 289.605 138.595 290.741ZM143.347 292.741L144.451 293.141C144.019 294.469 142.819 295.541 141.043 295.541C138.995 295.541 137.251 294.037 137.251 291.461C137.251 289.045 138.947 287.429 140.883 287.429C143.203 287.429 144.499 289.045 144.499 291.381C144.499 291.541 144.483 291.717 144.467 291.829H138.563V291.893C138.563 293.349 139.667 294.389 141.043 294.389C142.339 294.389 143.043 293.653 143.347 292.741ZM147.716 290.805V295.317H146.436V287.653H147.684V288.805C148.18 287.909 149.076 287.429 150.084 287.429C151.924 287.429 152.82 288.741 152.82 290.405V295.317H151.54V290.597C151.54 289.477 151.028 288.581 149.636 288.581C148.404 288.581 147.716 289.605 147.716 290.805ZM156.995 285.221V287.653H158.803V288.805H156.995V293.045C156.995 293.845 157.347 294.245 158.163 294.245C158.387 294.245 158.675 294.197 158.803 294.165V295.253C158.659 295.301 158.291 295.397 157.795 295.397C156.531 295.397 155.715 294.613 155.715 293.221V288.805H154.179V287.653H154.675C155.459 287.653 155.795 287.205 155.795 286.485V285.221H156.995ZM159.937 293.301L161.089 292.901C161.201 293.781 161.857 294.453 163.009 294.453C163.921 294.453 164.497 293.941 164.497 293.285C164.497 292.709 164.033 292.325 163.329 292.165L162.081 291.877C160.913 291.605 160.177 290.853 160.177 289.749C160.177 288.469 161.393 287.429 162.849 287.429C164.833 287.429 165.521 288.693 165.697 289.477L164.561 289.893C164.465 289.365 164.065 288.517 162.849 288.517C162.049 288.517 161.424 289.029 161.424 289.669C161.424 290.213 161.761 290.549 162.433 290.709L163.681 290.997C165.025 291.301 165.761 292.085 165.761 293.221C165.761 294.325 164.817 295.541 162.993 295.541C160.977 295.541 160.065 294.261 159.937 293.301Z" fill="#FEFEFE"/>
<path d="M469.56 287.429C471.768 287.429 473.4 289.125 473.4 291.477C473.4 293.845 471.768 295.541 469.56 295.541C467.352 295.541 465.72 293.845 465.72 291.477C465.72 289.125 467.352 287.429 469.56 287.429ZM469.56 288.581C468.184 288.581 467 289.621 467 291.477C467 293.349 468.184 294.389 469.56 294.389C470.936 294.389 472.12 293.349 472.12 291.477C472.12 289.621 470.936 288.581 469.56 288.581ZM479.485 287.605V288.965C479.277 288.901 479.037 288.885 478.813 288.885C477.533 288.885 476.653 289.621 476.653 291.349V295.317H475.373V287.653H476.621V289.029C477.117 287.909 478.093 287.541 478.941 287.541C479.149 287.541 479.373 287.573 479.485 287.605ZM484.173 293.285C484.173 291.941 485.117 291.189 486.461 290.997L488.525 290.693C489.085 290.613 489.213 290.373 489.213 290.037C489.213 289.173 488.637 288.517 487.437 288.517C486.317 288.517 485.645 289.189 485.533 290.165L484.317 289.877C484.477 288.421 485.757 287.429 487.405 287.429C489.581 287.429 490.493 288.677 490.493 290.165V294.037C490.493 294.677 490.541 295.077 490.589 295.317H489.341C489.309 295.141 489.245 294.757 489.245 294.165C488.909 294.789 488.077 295.541 486.701 295.541C485.117 295.541 484.173 294.453 484.173 293.285ZM486.861 294.453C488.189 294.453 489.213 293.717 489.213 292.085V291.573L486.717 291.941C485.981 292.053 485.453 292.469 485.453 293.221C485.453 293.845 485.981 294.453 486.861 294.453ZM496.744 288.805H494.76V295.317H493.48V288.805H491.976V287.653H493.48V286.229C493.48 284.549 494.536 283.669 495.896 283.669C496.36 283.669 496.664 283.765 496.776 283.829V284.933C496.664 284.885 496.456 284.821 496.088 284.821C495.464 284.821 494.76 285.157 494.76 286.261V287.653H496.744V288.805ZM500.167 285.221V287.653H501.975V288.805H500.167V293.045C500.167 293.845 500.519 294.245 501.335 294.245C501.559 294.245 501.847 294.197 501.975 294.165V295.253C501.831 295.301 501.463 295.397 500.967 295.397C499.703 295.397 498.887 294.613 498.887 293.221V288.805H497.351V287.653H497.847C498.631 287.653 498.967 287.205 498.967 286.485V285.221H500.167ZM504.548 290.741H509.124C509.092 289.525 508.308 288.565 506.852 288.565C505.524 288.565 504.628 289.605 504.548 290.741ZM509.3 292.741L510.404 293.141C509.972 294.469 508.772 295.541 506.996 295.541C504.948 295.541 503.204 294.037 503.204 291.461C503.204 289.045 504.9 287.429 506.836 287.429C509.156 287.429 510.452 289.045 510.452 291.381C510.452 291.541 510.436 291.717 510.42 291.829H504.516V291.893C504.516 293.349 505.62 294.389 506.996 294.389C508.292 294.389 508.996 293.653 509.3 292.741ZM516.501 287.605V288.965C516.293 288.901 516.053 288.885 515.829 288.885C514.549 288.885 513.669 289.621 513.669 291.349V295.317H512.389V287.653H513.637V289.029C514.133 287.909 515.109 287.541 515.957 287.541C516.165 287.541 516.389 287.573 516.501 287.605ZM524.756 295.317H523.444V287.749H520.9V286.981C522.34 286.917 523.316 286.069 523.572 284.949H524.756V295.317ZM530.849 294.357C531.617 294.357 532.177 294.069 532.593 293.621C533.281 292.901 533.569 291.701 533.569 290.133C533.569 288.565 533.281 287.365 532.593 286.645C532.177 286.197 531.617 285.909 530.849 285.909C530.081 285.909 529.521 286.197 529.105 286.645C528.417 287.365 528.129 288.565 528.129 290.133C528.129 291.701 528.417 292.901 529.105 293.621C529.521 294.069 530.081 294.357 530.849 294.357ZM530.849 295.541C529.441 295.541 528.433 294.917 527.777 293.957C527.057 292.917 526.817 291.541 526.817 290.133C526.817 288.725 527.057 287.349 527.777 286.309C528.433 285.349 529.441 284.725 530.849 284.725C532.257 284.725 533.265 285.349 533.921 286.309C534.641 287.349 534.881 288.725 534.881 290.133C534.881 291.541 534.641 292.917 533.921 293.957C533.265 294.917 532.257 295.541 530.849 295.541ZM536.374 293.301L537.526 292.901C537.638 293.781 538.294 294.453 539.446 294.453C540.358 294.453 540.934 293.941 540.934 293.285C540.934 292.709 540.47 292.325 539.766 292.165L538.518 291.877C537.35 291.605 536.614 290.853 536.614 289.749C536.614 288.469 537.83 287.429 539.286 287.429C541.27 287.429 541.958 288.693 542.134 289.477L540.998 289.893C540.902 289.365 540.502 288.517 539.286 288.517C538.486 288.517 537.862 289.029 537.862 289.669C537.862 290.213 538.198 290.549 538.87 290.709L540.118 290.997C541.462 291.301 542.198 292.085 542.198 293.221C542.198 294.325 541.254 295.541 539.43 295.541C537.414 295.541 536.502 294.261 536.374 293.301ZM549.792 285.221V287.653H551.6V288.805H549.792V293.045C549.792 293.845 550.144 294.245 550.96 294.245C551.184 294.245 551.472 294.197 551.6 294.165V295.253C551.456 295.301 551.088 295.397 550.592 295.397C549.328 295.397 548.512 294.613 548.512 293.221V288.805H546.976V287.653H547.472C548.256 287.653 548.592 287.205 548.592 286.485V285.221H549.792ZM554.637 295.317H553.357V287.653H554.637V295.317ZM553.037 284.629C553.037 284.101 553.469 283.669 553.997 283.669C554.525 283.669 554.957 284.101 554.957 284.629C554.957 285.157 554.525 285.589 553.997 285.589C553.469 285.589 553.037 285.157 553.037 284.629ZM558.387 287.653V288.741C558.819 287.941 559.747 287.429 560.739 287.429C561.795 287.429 562.707 287.989 563.091 288.997C563.635 287.909 564.595 287.429 565.683 287.429C567.075 287.429 568.323 288.389 568.323 290.309V295.317H567.043V290.453C567.043 289.397 566.483 288.581 565.283 288.581C564.147 288.581 563.379 289.509 563.379 290.661V295.317H562.099V290.453C562.099 289.397 561.539 288.581 560.323 288.581C559.171 288.581 558.419 289.477 558.419 290.677V295.317H557.139V287.653H558.387ZM571.533 290.741H576.109C576.077 289.525 575.293 288.565 573.837 288.565C572.509 288.565 571.613 289.605 571.533 290.741ZM576.285 292.741L577.389 293.141C576.957 294.469 575.757 295.541 573.981 295.541C571.933 295.541 570.189 294.037 570.189 291.461C570.189 289.045 571.885 287.429 573.821 287.429C576.141 287.429 577.437 289.045 577.437 291.381C577.437 291.541 577.421 291.717 577.405 291.829H571.501V291.893C571.501 293.349 572.605 294.389 573.981 294.389C575.277 294.389 575.981 293.653 576.285 292.741ZM582.685 287.429C584.893 287.429 586.525 289.125 586.525 291.477C586.525 293.845 584.893 295.541 582.685 295.541C580.477 295.541 578.845 293.845 578.845 291.477C578.845 289.125 580.477 287.429 582.685 287.429ZM582.685 288.581C581.309 288.581 580.125 289.621 580.125 291.477C580.125 293.349 581.309 294.389 582.685 294.389C584.061 294.389 585.245 293.349 585.245 291.477C585.245 289.621 584.061 288.581 582.685 288.581ZM593.586 294.277C593.218 295.061 592.29 295.541 591.282 295.541C589.426 295.541 588.402 294.165 588.402 292.469V287.653H589.682V292.261C589.682 293.381 590.21 294.389 591.57 294.389C592.834 294.389 593.522 293.493 593.522 292.277V287.653H594.802V293.877C594.802 294.469 594.85 295.013 594.898 295.317H593.666C593.618 295.141 593.586 294.725 593.586 294.341V294.277ZM599.151 285.221V287.653H600.959V288.805H599.151V293.045C599.151 293.845 599.503 294.245 600.319 294.245C600.543 294.245 600.831 294.197 600.959 294.165V295.253C600.815 295.301 600.447 295.397 599.951 295.397C598.687 295.397 597.871 294.613 597.871 293.221V288.805H596.335V287.653H596.831C597.615 287.653 597.951 287.205 597.951 286.485V285.221H599.151Z" fill="#FEFEFE"/>
<defs>
<clipPath id="clip0_2_47421">
<rect x="16" y="234.317" width="586" height="6" rx="2" fill="white"/>
</clipPath>
</defs>
</svg>
