<svg width="578" height="492" viewBox="0 0 578 492" fill="none" xmlns="http://www.w3.org/2000/svg">
<path d="M25.5775 78.8169H28.601V73.3121H25.9226V72.129H29.9156V78.8169H32.9391V80H25.5775V78.8169ZM27.9601 69.3684C27.9601 68.6783 28.5024 68.136 29.209 68.136C29.8827 68.136 30.4249 68.6783 30.4249 69.3684C30.4249 70.0586 29.8827 70.6173 29.209 70.6173C28.5024 70.6173 27.9601 70.0586 27.9601 69.3684ZM35.4303 72.129H36.712V73.2793C37.205 72.3426 38.1909 71.899 39.2754 71.899C41.3294 71.899 42.3154 73.2957 42.3154 75.0375V80H41.0008V75.3004C41.0008 74.1666 40.4914 73.1314 38.9632 73.1314C37.7144 73.1314 36.7449 74.068 36.7449 75.5798V80H35.4303V72.129ZM45.2831 72.129H46.5649V73.2793C47.0578 72.3426 48.0437 71.899 49.1283 71.899C51.1823 71.899 52.1682 73.2957 52.1682 75.0375V80H50.8536V75.3004C50.8536 74.1666 50.3442 73.1314 48.816 73.1314C47.5672 73.1314 46.5977 74.068 46.5977 75.5798V80H45.2831V72.129ZM55.9083 80.2136C56.0726 81.1831 56.9435 82.1033 58.2581 82.1033C60.0327 82.1033 60.69 80.9859 60.69 79.4577V78.1432C60.345 78.9155 59.4905 79.5563 58.1924 79.5563C56.1055 79.5563 54.643 77.9131 54.643 75.7441C54.643 73.5586 56.089 71.899 58.2252 71.899C59.5398 71.899 60.3943 72.4741 60.7065 73.2464V72.129H62.0046V79.5728C62.0046 81.3803 61.1008 83.3193 58.2416 83.3193C56.3684 83.3193 54.8238 82.1197 54.6266 80.5258L55.9083 80.2136ZM60.7558 75.777C60.7558 74.1502 59.7863 73.0821 58.3567 73.0821C56.9271 73.0821 55.9576 74.1337 55.9576 75.7277C55.9576 77.3216 56.9271 78.3732 58.3567 78.3732C59.7863 78.3732 60.7558 77.3216 60.7558 75.777ZM68.456 80.23C66.402 80.23 64.5452 78.7347 64.5452 76.0399C64.5452 73.5093 66.3855 71.899 68.3245 71.899C70.6579 71.899 72.071 73.5093 72.071 75.8755C72.071 76.0399 72.0546 76.2206 72.0382 76.3356H65.8926V76.4507C65.8926 77.9296 67.0921 79.0141 68.456 79.0141C69.787 79.0141 70.5429 78.2746 70.8551 77.3544L71.9889 77.7652C71.5452 79.1291 70.28 80.23 68.456 80.23ZM70.7072 75.2183C70.6415 74.0516 69.787 73.0657 68.341 73.0657C67.0264 73.0657 66.0076 74.0844 65.9254 75.2183H70.7072ZM78.4567 80.23C76.2384 80.23 75.121 78.8005 74.9074 77.9131L76.1069 77.4202C76.337 78.2418 77.175 79.0469 78.4896 79.0469C79.5412 79.0469 80.1492 78.554 80.1492 77.9131C80.1492 77.338 79.7713 76.9929 78.9004 76.8122L77.3722 76.5C75.8933 76.2042 75.236 75.3497 75.236 74.3309C75.236 72.9999 76.4684 71.899 78.2102 71.899C79.9685 71.899 81.1023 72.8027 81.4638 74.0516L80.3464 74.4953C80.0835 73.7394 79.4098 73.0492 78.2102 73.0492C77.2079 73.0492 76.5342 73.5258 76.5342 74.2323C76.5342 74.7417 76.8464 75.1361 77.6351 75.284L79.1304 75.5798C80.6915 75.892 81.4638 76.6643 81.4638 77.8474C81.4638 78.9483 80.5436 80.23 78.4567 80.23ZM91.2345 72.129V73.3286H88.2274V77.5188C88.2274 78.439 88.8025 78.8826 89.657 78.8826C90.1992 78.8826 90.9058 78.784 91.2345 78.669V79.8685C90.873 80 90.3143 80.1315 89.5091 80.1315C87.8823 80.1315 86.9128 79.3263 86.9128 77.7652V73.3286H84.3823V72.129H85.6804C86.6335 72.129 86.995 71.6361 86.995 70.7652V69.352H88.2274V72.129H91.2345ZM96.5356 78.7512C96.5356 77.9789 97.1436 77.3873 97.883 77.3873C98.6389 77.3873 99.2469 77.9789 99.2469 78.7512C99.2469 79.5235 98.6389 80.0986 97.883 80.0986C97.1436 80.0986 96.5356 79.5235 96.5356 78.7512Z" fill="#52B2FD"/>
<path d="M107.999 80.23C105.846 80.23 104.006 78.6033 104.006 76.0563C104.006 73.4765 105.912 71.899 107.982 71.899C110.119 71.899 111.269 73.1314 111.597 74.3967L110.398 74.8896C110.184 74.068 109.461 73.1314 107.982 73.1314C106.684 73.1314 105.337 74.1173 105.337 76.0563C105.337 77.9789 106.684 78.9976 107.999 78.9976C109.576 78.9976 110.217 77.9296 110.447 77.223L111.597 77.7159C111.219 78.8826 110.069 80.23 107.999 80.23ZM121.319 73.5751C121.105 73.5093 120.777 73.4272 120.218 73.4272C118.591 73.4272 117.72 74.3474 117.72 76.1549V78.8333H120.201V80H114.072V78.8333H116.406V73.2957H114.319V72.129H117.687V73.6736C118.147 72.4577 119.298 72.014 120.234 72.014C120.809 72.014 121.122 72.0962 121.319 72.1619V73.5751ZM127.573 80.23C125.519 80.23 123.662 78.7347 123.662 76.0399C123.662 73.5093 125.503 71.899 127.442 71.899C129.775 71.899 131.188 73.5093 131.188 75.8755C131.188 76.0399 131.172 76.2206 131.155 76.3356H125.01V76.4507C125.01 77.9296 126.209 79.0141 127.573 79.0141C128.904 79.0141 129.66 78.2746 129.972 77.3544L131.106 77.7652C130.662 79.1291 129.397 80.23 127.573 80.23ZM129.824 75.2183C129.758 74.0516 128.904 73.0657 127.458 73.0657C126.143 73.0657 125.125 74.0844 125.042 75.2183H129.824ZM133.827 77.8803C133.827 76.5 134.862 75.777 136.259 75.5798L138.527 75.2511C139.118 75.169 139.233 74.9061 139.233 74.5445C139.233 73.7065 138.609 73.0821 137.344 73.0821C136.111 73.0821 135.323 73.7722 135.224 74.676L133.975 74.4131C134.139 72.9506 135.536 71.899 137.311 71.899C139.578 71.899 140.531 73.1478 140.531 74.676V78.5211C140.531 79.1784 140.63 79.7535 140.696 80H139.414C139.365 79.8521 139.266 79.3263 139.266 78.8169C139.02 79.4577 138.083 80.23 136.604 80.23C134.797 80.23 133.827 79.0634 133.827 77.8803ZM136.801 79.0305C138.083 79.0305 139.233 78.2911 139.233 76.7136V76.1549L136.522 76.5493C135.733 76.6643 135.142 77.0751 135.142 77.7817C135.142 78.4554 135.635 79.0305 136.801 79.0305ZM150.351 72.129V73.3286H147.344V77.5188C147.344 78.439 147.92 78.8826 148.774 78.8826C149.316 78.8826 150.023 78.784 150.351 78.669V79.8685C149.99 80 149.431 80.1315 148.626 80.1315C146.999 80.1315 146.03 79.3263 146.03 77.7652V73.3286H143.499V72.129H144.797C145.75 72.129 146.112 71.6361 146.112 70.7652V69.352H147.344V72.129H150.351ZM157.132 80.23C155.077 80.23 153.221 78.7347 153.221 76.0399C153.221 73.5093 155.061 71.899 157 71.899C159.333 71.899 160.747 73.5093 160.747 75.8755C160.747 76.0399 160.73 76.2206 160.714 76.3356H154.568V76.4507C154.568 77.9296 155.768 79.0141 157.132 79.0141C158.463 79.0141 159.218 78.2746 159.531 77.3544L160.664 77.7652C160.221 79.1291 158.955 80.23 157.132 80.23ZM159.383 75.2183C159.317 74.0516 158.463 73.0657 157.016 73.0657C155.702 73.0657 154.683 74.0844 154.601 75.2183H159.383ZM163.566 68.3496H170.714V69.6314H164.93V73.6901H170.287V74.9718H164.93V80H163.566V68.3496ZM178.661 78.9319C178.283 79.7371 177.314 80.23 176.229 80.23C174.224 80.23 173.206 78.8826 173.206 77.0751V72.129H174.52V76.8615C174.52 77.9953 175.063 79.0305 176.525 79.0305C177.856 79.0305 178.595 78.061 178.595 76.8286V72.129H179.91V78.3568C179.91 78.9648 179.976 79.6878 180.025 80H178.76C178.694 79.77 178.661 79.3263 178.661 78.9319ZM183.223 72.129H184.505V73.2793C184.998 72.3426 185.983 71.899 187.068 71.899C189.122 71.899 190.108 73.2957 190.108 75.0375V80H188.793V75.3004C188.793 74.1666 188.284 73.1314 186.756 73.1314C185.507 73.1314 184.537 74.068 184.537 75.5798V80H183.223V72.129ZM196.674 80.23C194.522 80.23 192.681 78.6033 192.681 76.0563C192.681 73.4765 194.587 71.899 196.658 71.899C198.794 71.899 199.944 73.1314 200.273 74.3967L199.073 74.8896C198.86 74.068 198.137 73.1314 196.658 73.1314C195.36 73.1314 194.012 74.1173 194.012 76.0563C194.012 77.9789 195.36 78.9976 196.674 78.9976C198.252 78.9976 198.893 77.9296 199.123 77.223L200.273 77.7159C199.895 78.8826 198.745 80.23 196.674 80.23ZM209.468 72.129V73.3286H206.461V77.5188C206.461 78.439 207.037 78.8826 207.891 78.8826C208.433 78.8826 209.14 78.784 209.468 78.669V79.8685C209.107 80 208.548 80.1315 207.743 80.1315C206.116 80.1315 205.147 79.3263 205.147 77.7652V73.3286H202.616V72.129H203.914C204.867 72.129 205.229 71.6361 205.229 70.7652V69.352H206.461V72.129H209.468ZM212.781 78.8169H215.805V73.3121H213.126V72.129H217.119V78.8169H220.143V80H212.781V78.8169ZM215.164 69.3684C215.164 68.6783 215.706 68.136 216.413 68.136C217.087 68.136 217.629 68.6783 217.629 69.3684C217.629 70.0586 217.087 70.6173 216.413 70.6173C215.706 70.6173 215.164 70.0586 215.164 69.3684ZM225.986 80.23C223.719 80.23 222.043 78.4882 222.043 76.0563C222.043 73.6408 223.719 71.899 225.986 71.899C228.254 71.899 229.93 73.6408 229.93 76.0563C229.93 78.4882 228.254 80.23 225.986 80.23ZM225.986 79.0305C227.399 79.0305 228.599 77.9624 228.599 76.0563C228.599 74.1666 227.399 73.0985 225.986 73.0985C224.573 73.0985 223.374 74.1666 223.374 76.0563C223.374 77.9624 224.573 79.0305 225.986 79.0305ZM232.487 72.129H233.769V73.2793C234.262 72.3426 235.248 71.899 236.332 71.899C238.386 71.899 239.372 73.2957 239.372 75.0375V80H238.057V75.3004C238.057 74.1666 237.548 73.1314 236.02 73.1314C234.771 73.1314 233.802 74.068 233.802 75.5798V80H232.487V72.129Z" fill="#FD8A72"/>
<path d="M243.654 74.791C243.654 71.0774 245.38 68.629 247.335 67.0515L248.091 67.8403C246.119 69.5328 244.838 71.7018 244.838 74.791C244.838 77.8803 246.119 80.0493 248.091 81.7418L247.335 82.5305C245.38 80.9531 243.654 78.5047 243.654 74.791ZM40.9351 107.399C39.2426 107.399 38.3224 106.495 38.3224 104.704V102.617C38.3224 101.286 37.5665 100.645 36.3834 100.596V98.953C37.5665 98.9037 38.3224 98.2464 38.3224 96.9318V94.845C38.3224 93.0539 39.2426 92.1501 40.9351 92.1501H41.7402V93.2182H41.0994C39.9163 93.2182 39.4726 93.7605 39.4726 94.9436V97.2112C39.4726 98.5586 38.7167 99.6267 37.1885 99.7746C38.7167 99.9061 39.4726 100.991 39.4726 102.338V104.606C39.4726 105.789 39.9491 106.331 41.0994 106.331H41.7402V107.399H40.9351ZM313.183 128.8C313.183 128.061 313.742 127.486 314.563 127.486C315.368 127.486 316.075 128.094 316.075 129.293C316.075 131.808 314.284 132.958 312.739 133.171V132.235C314.07 131.988 314.925 131.002 314.925 129.967C314.859 130 314.662 130.082 314.432 130.082C313.725 130.082 313.183 129.573 313.183 128.8ZM155.373 167.15H159.744V168.218H156.524V181.315H159.744V182.383H155.373V167.15ZM70.4936 207.399C68.8011 207.399 67.8809 206.495 67.8809 204.704V202.617C67.8809 201.286 67.125 200.645 65.9419 200.596V198.953C67.125 198.904 67.8809 198.246 67.8809 196.932V194.845C67.8809 193.054 68.8011 192.15 70.4936 192.15H71.2987V193.218H70.6579C69.4748 193.218 69.0311 193.76 69.0311 194.944V197.211C69.0311 198.559 68.2752 199.627 66.7471 199.775C68.2752 199.906 69.0311 200.991 69.0311 202.338V204.606C69.0311 205.789 69.5076 206.331 70.6579 206.331H71.2987V207.399H70.4936ZM283.624 228.8C283.624 228.061 284.183 227.486 285.005 227.486C285.81 227.486 286.516 228.094 286.516 229.293C286.516 231.808 284.725 232.958 283.181 233.171V232.235C284.512 231.988 285.366 231.002 285.366 229.967C285.301 230 285.103 230.082 284.873 230.082C284.167 230.082 283.624 229.573 283.624 228.8ZM66.1884 282.399H65.3832V281.331H66.024C67.1743 281.331 67.6508 280.789 67.6508 279.606V277.338C67.6508 275.991 68.4067 274.906 69.9349 274.775C68.4067 274.627 67.6508 273.559 67.6508 272.211V269.944C67.6508 268.76 67.2072 268.218 66.024 268.218H65.3832V267.15H66.1884C67.8809 267.15 68.8011 268.054 68.8011 269.845V271.932C68.8011 273.246 69.5569 273.904 70.7401 273.953V275.596C69.5569 275.645 68.8011 276.286 68.8011 277.617V279.704C68.8011 281.495 67.8809 282.399 66.1884 282.399ZM55.7604 292.15H60.1313V307.383H55.7604V306.315H58.9811V293.218H55.7604V292.15ZM36.6299 332.399H35.8247V331.331H36.4655C37.6158 331.331 38.0923 330.789 38.0923 329.606V327.338C38.0923 325.991 38.8482 324.906 40.3764 324.775C38.8482 324.627 38.0923 323.559 38.0923 322.211V319.944C38.0923 318.76 37.6486 318.218 36.4655 318.218H35.8247V317.15H36.6299C38.3224 317.15 39.2426 318.054 39.2426 319.845V321.932C39.2426 323.246 39.9984 323.904 41.1815 323.953V325.596C39.9984 325.645 39.2426 326.286 39.2426 327.617V329.704C39.2426 331.495 38.3224 332.399 36.6299 332.399ZM47.1564 328.8C47.1564 328.061 47.7151 327.486 48.5367 327.486C49.3419 327.486 50.0485 328.094 50.0485 329.293C50.0485 331.808 48.2574 332.958 46.7127 333.171V332.235C48.0437 331.988 48.8982 331.002 48.8982 329.967C48.8325 330 48.6353 330.082 48.4052 330.082C47.6987 330.082 47.1564 329.573 47.1564 328.8ZM40.9351 357.399C39.2426 357.399 38.3224 356.495 38.3224 354.704V352.617C38.3224 351.286 37.5665 350.645 36.3834 350.596V348.953C37.5665 348.904 38.3224 348.246 38.3224 346.932V344.845C38.3224 343.054 39.2426 342.15 40.9351 342.15H41.7402V343.218H41.0994C39.9163 343.218 39.4726 343.76 39.4726 344.944V347.211C39.4726 348.559 38.7167 349.627 37.1885 349.775C38.7167 349.906 39.4726 350.991 39.4726 352.338V354.606C39.4726 355.789 39.9491 356.331 41.0994 356.331H41.7402V357.399H40.9351ZM312.509 357.399H311.704V356.331H312.345C313.495 356.331 313.972 355.789 313.972 354.606V352.338C313.972 350.991 314.728 349.906 316.256 349.775C314.728 349.627 313.972 348.559 313.972 347.211V344.944C313.972 343.76 313.528 343.218 312.345 343.218H311.704V342.15H312.509C314.202 342.15 315.122 343.054 315.122 344.845V346.932C315.122 348.246 315.878 348.904 317.061 348.953V350.596C315.878 350.645 315.122 351.286 315.122 352.617V354.704C315.122 356.495 314.202 357.399 312.509 357.399ZM323.036 353.8C323.036 353.061 323.594 352.486 324.416 352.486C325.221 352.486 325.928 353.094 325.928 354.293C325.928 356.808 324.137 357.958 322.592 358.171V357.235C323.923 356.988 324.778 356.002 324.778 354.967C324.712 355 324.515 355.082 324.285 355.082C323.578 355.082 323.036 354.573 323.036 353.8ZM105.715 374.791C105.715 371.077 107.44 368.629 109.396 367.052L110.151 367.84C108.18 369.533 106.898 371.702 106.898 374.791C106.898 377.88 108.18 380.049 110.151 381.742L109.396 382.531C107.44 380.953 105.715 378.505 105.715 374.791ZM119.758 382.399C118.065 382.399 117.145 381.495 117.145 379.704V377.617C117.145 376.286 116.389 375.645 115.206 375.596V373.953C116.389 373.904 117.145 373.246 117.145 371.932V369.845C117.145 368.054 118.065 367.15 119.758 367.15H120.563V368.218H119.922C118.739 368.218 118.295 368.76 118.295 369.944V372.211C118.295 373.559 117.539 374.627 116.011 374.775C117.539 374.906 118.295 375.991 118.295 377.338V379.606C118.295 380.789 118.772 381.331 119.922 381.331H120.563V382.399H119.758ZM185.096 378.8C185.096 378.061 185.655 377.486 186.476 377.486C187.282 377.486 187.988 378.094 187.988 379.293C187.988 381.808 186.197 382.958 184.652 383.171V382.235C185.983 381.988 186.838 381.002 186.838 379.967C186.772 380 186.575 380.082 186.345 380.082C185.638 380.082 185.096 379.573 185.096 378.8ZM253.392 382.399H252.587V381.331H253.228C254.378 381.331 254.855 380.789 254.855 379.606V377.338C254.855 375.991 255.611 374.906 257.139 374.775C255.611 374.627 254.855 373.559 254.855 372.211V369.944C254.855 368.76 254.411 368.218 253.228 368.218H252.587V367.15H253.392C255.085 367.15 256.005 368.054 256.005 369.845V371.932C256.005 373.246 256.761 373.904 257.944 373.953V375.596C256.761 375.645 256.005 376.286 256.005 377.617V379.704C256.005 381.495 255.085 382.399 253.392 382.399ZM267.435 374.791C267.435 378.505 265.71 380.953 263.754 382.531L262.999 381.742C264.97 380.049 266.252 377.88 266.252 374.791C266.252 371.702 264.97 369.533 262.999 367.84L263.754 367.052C265.71 368.629 267.435 371.077 267.435 374.791ZM281.357 373.131H288.85V374.232H281.357V373.131ZM281.357 376.303H288.85V377.42H281.357V376.303ZM291.834 379.261V377.946L297.175 375.284L291.834 372.622V371.291L298.522 374.692V375.876L291.834 379.261ZM316.814 382.399C315.122 382.399 314.202 381.495 314.202 379.704V377.617C314.202 376.286 313.446 375.645 312.263 375.596V373.953C313.446 373.904 314.202 373.246 314.202 371.932V369.845C314.202 368.054 315.122 367.15 316.814 367.15H317.62V368.218H316.979C315.796 368.218 315.352 368.76 315.352 369.944V372.211C315.352 373.559 314.596 374.627 313.068 374.775C314.596 374.906 315.352 375.991 315.352 377.338V379.606C315.352 380.789 315.829 381.331 316.979 381.331H317.62V382.399H316.814ZM46.4827 432.399H45.6775V431.331H46.3184C47.4686 431.331 47.9451 430.789 47.9451 429.606V427.338C47.9451 425.991 48.701 424.906 50.2292 424.775C48.701 424.627 47.9451 423.559 47.9451 422.211V419.944C47.9451 418.76 47.5015 418.218 46.3184 418.218H45.6775V417.15H46.4827C48.1752 417.15 49.0954 418.054 49.0954 419.845V421.932C49.0954 423.246 49.8513 423.904 51.0344 423.953V425.596C49.8513 425.645 49.0954 426.286 49.0954 427.617V429.704C49.0954 431.495 48.1752 432.399 46.4827 432.399ZM30.9672 449.791C30.9672 453.505 29.2418 455.953 27.2864 457.531L26.5305 456.742C28.5024 455.049 29.7841 452.88 29.7841 449.791C29.7841 446.702 28.5024 444.533 26.5305 442.84L27.2864 442.052C29.2418 443.629 30.9672 446.077 30.9672 449.791Z" fill="white"/>
<path d="M55.136 128.817H58.1595V123.312H55.4811V122.129H59.4741V128.817H62.4976V130H55.136V128.817ZM57.5186 119.368C57.5186 118.678 58.0609 118.136 58.7675 118.136C59.4412 118.136 59.9835 118.678 59.9835 119.368C59.9835 120.059 59.4412 120.617 58.7675 120.617C58.0609 120.617 57.5186 120.059 57.5186 119.368ZM70.5922 128.702C70.2142 129.523 69.3433 130.23 67.8973 130.23C65.6625 130.23 64.2329 128.39 64.2329 126.056C64.2329 123.772 65.7447 121.899 67.963 121.899C69.4583 121.899 70.2635 122.606 70.5593 123.312V118.12H71.8739V128.521C71.8739 129.31 71.9232 129.836 71.956 130H70.6743C70.6415 129.819 70.5922 129.376 70.5922 128.866V128.702ZM68.0945 129.031C69.6391 129.031 70.5922 127.782 70.5922 126.056C70.5922 124.331 69.6555 123.099 68.0945 123.099C66.5827 123.099 65.5639 124.331 65.5639 126.056C65.5639 127.782 66.5992 129.031 68.0945 129.031ZM76.7149 128.751C76.7149 127.979 77.3229 127.387 78.0623 127.387C78.8182 127.387 79.4262 127.979 79.4262 128.751C79.4262 129.523 78.8182 130.099 78.0623 130.099C77.3229 130.099 76.7149 129.523 76.7149 128.751ZM76.7149 123.23C76.7149 122.458 77.3229 121.866 78.0623 121.866C78.8182 121.866 79.4262 122.458 79.4262 123.23C79.4262 124.002 78.8182 124.577 78.0623 124.577C77.3229 124.577 76.7149 124.002 76.7149 123.23ZM58.7346 180.23C56.582 180.23 54.7416 178.603 54.7416 176.056C54.7416 173.476 56.6477 171.899 58.7182 171.899C60.8544 171.899 62.0046 173.131 62.3332 174.397L61.1337 174.89C60.9201 174.068 60.1971 173.131 58.7182 173.131C57.42 173.131 56.0726 174.117 56.0726 176.056C56.0726 177.979 57.42 178.998 58.7346 178.998C60.3121 178.998 60.9529 177.93 61.183 177.223L62.3332 177.716C61.9553 178.883 60.8051 180.23 58.7346 180.23ZM64.8574 177.88C64.8574 176.5 65.8926 175.777 67.2893 175.58L69.5569 175.251C70.1485 175.169 70.2635 174.906 70.2635 174.545C70.2635 173.707 69.6391 173.082 68.3738 173.082C67.1414 173.082 66.3527 173.772 66.2541 174.676L65.0053 174.413C65.1696 172.951 66.5663 171.899 68.341 171.899C70.6086 171.899 71.5617 173.148 71.5617 174.676V178.521C71.5617 179.178 71.6602 179.754 71.726 180H70.4443C70.395 179.852 70.2964 179.326 70.2964 178.817C70.0499 179.458 69.1133 180.23 67.6344 180.23C65.8269 180.23 64.8574 179.063 64.8574 177.88ZM67.8316 179.031C69.1133 179.031 70.2635 178.291 70.2635 176.714V176.155L67.5522 176.549C66.7635 176.664 66.1719 177.075 66.1719 177.782C66.1719 178.455 66.6649 179.031 67.8316 179.031ZM74.8417 172.129H76.1234V173.279C76.6163 172.343 77.6022 171.899 78.6868 171.899C80.7408 171.899 81.7267 173.296 81.7267 175.038V180H80.4121V175.3C80.4121 174.167 79.9027 173.131 78.3746 173.131C77.1257 173.131 76.1562 174.068 76.1562 175.58V180H74.8417V172.129ZM88.2931 180.23C86.1405 180.23 84.3001 178.603 84.3001 176.056C84.3001 173.476 86.2062 171.899 88.2767 171.899C90.4129 171.899 91.5631 173.131 91.8917 174.397L90.6922 174.89C90.4786 174.068 89.7556 173.131 88.2767 173.131C86.9785 173.131 85.6311 174.117 85.6311 176.056C85.6311 177.979 86.9785 178.998 88.2931 178.998C89.8706 178.998 90.5114 177.93 90.7415 177.223L91.8917 177.716C91.5138 178.883 90.3636 180.23 88.2931 180.23ZM98.0145 180.23C95.9605 180.23 94.1037 178.735 94.1037 176.04C94.1037 173.509 95.944 171.899 97.883 171.899C100.216 171.899 101.63 173.509 101.63 175.876C101.63 176.04 101.613 176.221 101.597 176.336H95.4511V176.451C95.4511 177.93 96.6506 179.014 98.0145 179.014C99.3455 179.014 100.101 178.275 100.414 177.354L101.547 177.765C101.104 179.129 99.8385 180.23 98.0145 180.23ZM100.266 175.218C100.2 174.052 99.3455 173.066 97.8995 173.066C96.5849 173.066 95.5661 174.084 95.484 175.218H100.266ZM104.072 178.817H107.095V169.303H104.499V168.12H108.41V178.817H111.433V180H104.072V178.817ZM117.605 180.23C115.124 180.23 113.349 178.225 113.349 174.167C113.349 170.108 115.124 168.12 117.605 168.12C120.086 168.12 121.861 170.108 121.861 174.167C121.861 178.225 120.086 180.23 117.605 180.23ZM117.605 178.915C119.347 178.915 120.481 177.42 120.481 174.167C120.481 170.913 119.347 169.434 117.605 169.434C115.863 169.434 114.73 170.913 114.73 174.167C114.73 177.42 115.863 178.915 117.605 178.915ZM124.106 172.129H125.388V173.279C125.88 172.343 126.866 171.899 127.951 171.899C130.005 171.899 130.991 173.296 130.991 175.038V180H129.676V175.3C129.676 174.167 129.167 173.131 127.639 173.131C126.39 173.131 125.42 174.068 125.42 175.58V180H124.106V172.129ZM135.832 178.751C135.832 177.979 136.44 177.387 137.179 177.387C137.935 177.387 138.543 177.979 138.543 178.751C138.543 179.523 137.935 180.099 137.179 180.099C136.44 180.099 135.832 179.523 135.832 178.751ZM135.832 173.23C135.832 172.458 136.44 171.866 137.179 171.866C137.935 171.866 138.543 172.458 138.543 173.23C138.543 174.002 137.935 174.577 137.179 174.577C136.44 174.577 135.832 174.002 135.832 173.23ZM88.1617 230.23C86.1076 230.23 84.2508 228.735 84.2508 226.04C84.2508 223.509 86.0912 221.899 88.0302 221.899C90.3636 221.899 91.7767 223.509 91.7767 225.876C91.7767 226.04 91.7603 226.221 91.7439 226.336H85.5983V226.451C85.5983 227.93 86.7978 229.014 88.1617 229.014C89.4927 229.014 90.2485 228.275 90.5607 227.354L91.6946 227.765C91.2509 229.129 89.9856 230.23 88.1617 230.23ZM90.4129 225.218C90.3471 224.052 89.4927 223.066 88.0466 223.066C86.7321 223.066 85.7133 224.084 85.6311 225.218H90.4129ZM97.1436 230L93.7586 222.129H95.2375L97.9159 228.702L100.611 222.129H102.04L98.6718 230H97.1436ZM107.867 230.23C105.813 230.23 103.956 228.735 103.956 226.04C103.956 223.509 105.797 221.899 107.736 221.899C110.069 221.899 111.482 223.509 111.482 225.876C111.482 226.04 111.466 226.221 111.45 226.336H105.304V226.451C105.304 227.93 106.503 229.014 107.867 229.014C109.198 229.014 109.954 228.275 110.266 227.354L111.4 227.765C110.957 229.129 109.691 230.23 107.867 230.23ZM110.119 225.218C110.053 224.052 109.198 223.066 107.752 223.066C106.438 223.066 105.419 224.084 105.337 225.218H110.119ZM114.253 222.129H115.535V223.279C116.028 222.343 117.014 221.899 118.098 221.899C120.152 221.899 121.138 223.296 121.138 225.038V230H119.823V225.3C119.823 224.167 119.314 223.131 117.786 223.131C116.537 223.131 115.568 224.068 115.568 225.58V230H114.253V222.129ZM130.646 222.129V223.329H127.639V227.519C127.639 228.439 128.214 228.883 129.068 228.883C129.611 228.883 130.317 228.784 130.646 228.669V229.869C130.284 230 129.726 230.131 128.92 230.131C127.294 230.131 126.324 229.326 126.324 227.765V223.329H123.794V222.129H125.092C126.045 222.129 126.406 221.636 126.406 220.765V219.352H127.639V222.129H130.646ZM135.832 228.751C135.832 227.979 136.44 227.387 137.179 227.387C137.935 227.387 138.543 227.979 138.543 228.751C138.543 229.523 137.935 230.099 137.179 230.099C136.44 230.099 135.832 229.523 135.832 228.751ZM135.832 223.23C135.832 222.458 136.44 221.866 137.179 221.866C137.935 221.866 138.543 222.458 138.543 223.23C138.543 224.002 137.935 224.577 137.179 224.577C136.44 224.577 135.832 224.002 135.832 223.23ZM85.2039 248.082C85.4832 247.326 86.0912 246.981 86.8307 246.981C87.5701 246.981 88.211 247.376 88.3753 248.246C88.6711 247.458 89.3119 246.981 90.2485 246.981C91.2509 246.981 92.2204 247.458 92.2204 249.331V255H90.988V249.528C90.988 248.493 90.5772 248.164 89.9199 248.164C89.2626 248.164 88.7204 248.624 88.7204 249.758V255H87.5044V249.577C87.5044 248.559 87.11 248.164 86.4527 248.164C85.779 248.164 85.2367 248.575 85.2367 249.775V255H84.0043V247.129H85.2039V248.082ZM94.4159 252.88C94.4159 251.5 95.4511 250.777 96.8478 250.58L99.1154 250.251C99.707 250.169 99.822 249.906 99.822 249.545C99.822 248.707 99.1976 248.082 97.9323 248.082C96.6999 248.082 95.9112 248.772 95.8126 249.676L94.5638 249.413C94.7281 247.951 96.1248 246.899 97.8995 246.899C100.167 246.899 101.12 248.148 101.12 249.676V253.521C101.12 254.178 101.219 254.754 101.284 255H100.003C99.9535 254.852 99.8549 254.326 99.8549 253.817C99.6084 254.458 98.6718 255.23 97.1929 255.23C95.3854 255.23 94.4159 254.063 94.4159 252.88ZM97.3901 254.031C98.6718 254.031 99.822 253.291 99.822 251.714V251.155L97.1107 251.549C96.322 251.664 95.7304 252.075 95.7304 252.782C95.7304 253.455 96.2234 254.031 97.3901 254.031ZM110.94 247.129V248.329H107.933V252.519C107.933 253.439 108.508 253.883 109.363 253.883C109.905 253.883 110.611 253.784 110.94 253.669V254.869C110.579 255 110.02 255.131 109.215 255.131C107.588 255.131 106.618 254.326 106.618 252.765V248.329H104.088V247.129H105.386C106.339 247.129 106.701 246.636 106.701 245.765V244.352H107.933V247.129H110.94ZM117.852 255.23C115.699 255.23 113.859 253.603 113.859 251.056C113.859 248.476 115.765 246.899 117.835 246.899C119.971 246.899 121.122 248.131 121.45 249.397L120.251 249.89C120.037 249.068 119.314 248.131 117.835 248.131C116.537 248.131 115.19 249.117 115.19 251.056C115.19 252.979 116.537 253.998 117.852 253.998C119.429 253.998 120.07 252.93 120.3 252.223L121.45 252.716C121.072 253.883 119.922 255.23 117.852 255.23ZM124.106 243.12H125.42V248.23C125.93 247.31 126.916 246.899 128.017 246.899C130.021 246.899 130.991 248.361 130.991 250.12V255H129.676V250.35C129.676 249.183 129.183 248.131 127.655 248.131C126.39 248.131 125.42 249.068 125.42 250.613V255H124.106V243.12ZM135.832 253.751C135.832 252.979 136.44 252.387 137.179 252.387C137.935 252.387 138.543 252.979 138.543 253.751C138.543 254.523 137.935 255.099 137.179 255.099C136.44 255.099 135.832 254.523 135.832 253.751ZM135.832 248.23C135.832 247.458 136.44 246.866 137.179 246.866C137.935 246.866 138.543 247.458 138.543 248.23C138.543 249.002 137.935 249.577 137.179 249.577C136.44 249.577 135.832 249.002 135.832 248.23ZM68.456 355.23C66.402 355.23 64.5452 353.735 64.5452 351.04C64.5452 348.509 66.3855 346.899 68.3245 346.899C70.6579 346.899 72.071 348.509 72.071 350.876C72.071 351.04 72.0546 351.221 72.0382 351.336H65.8926V351.451C65.8926 352.93 67.0921 354.014 68.456 354.014C69.787 354.014 70.5429 353.275 70.8551 352.354L71.9889 352.765C71.5452 354.129 70.28 355.23 68.456 355.23ZM70.7072 350.218C70.6415 349.052 69.787 348.066 68.341 348.066C67.0264 348.066 66.0076 349.084 65.9254 350.218H70.7072ZM77.4379 355L74.0529 347.129H75.5318L78.2102 353.702L80.9051 347.129H82.3347L78.9661 355H77.4379ZM88.1617 355.23C86.1076 355.23 84.2508 353.735 84.2508 351.04C84.2508 348.509 86.0912 346.899 88.0302 346.899C90.3636 346.899 91.7767 348.509 91.7767 350.876C91.7767 351.04 91.7603 351.221 91.7439 351.336H85.5983V351.451C85.5983 352.93 86.7978 354.014 88.1617 354.014C89.4927 354.014 90.2485 353.275 90.5607 352.354L91.6946 352.765C91.2509 354.129 89.9856 355.23 88.1617 355.23ZM90.4129 350.218C90.3471 349.052 89.4927 348.066 88.0466 348.066C86.7321 348.066 85.7133 349.084 85.6311 350.218H90.4129ZM94.5473 347.129H95.829V348.279C96.322 347.343 97.3079 346.899 98.3924 346.899C100.446 346.899 101.432 348.296 101.432 350.038V355H100.118V350.3C100.118 349.167 99.6084 348.131 98.0802 348.131C96.8314 348.131 95.8619 349.068 95.8619 350.58V355H94.5473V347.129ZM110.94 347.129V348.329H107.933V352.519C107.933 353.439 108.508 353.883 109.363 353.883C109.905 353.883 110.611 353.784 110.94 353.669V354.869C110.579 355 110.02 355.131 109.215 355.131C107.588 355.131 106.618 354.326 106.618 352.765V348.329H104.088V347.129H105.386C106.339 347.129 106.701 346.636 106.701 345.765V344.352H107.933V347.129H110.94ZM116.126 353.751C116.126 352.979 116.734 352.387 117.474 352.387C118.23 352.387 118.838 352.979 118.838 353.751C118.838 354.523 118.23 355.099 117.474 355.099C116.734 355.099 116.126 354.523 116.126 353.751ZM116.126 348.23C116.126 347.458 116.734 346.866 117.474 346.866C118.23 346.866 118.838 347.458 118.838 348.23C118.838 349.002 118.23 349.577 117.474 349.577C116.734 349.577 116.126 349.002 116.126 348.23Z" fill="#9CDCFE"/>
<path d="M98.606 118.958C97.6366 119.138 96.8971 119.96 96.8642 120.782C96.9135 120.749 97.0779 120.699 97.275 120.699C97.8502 120.699 98.3103 121.094 98.3103 121.768C98.3103 122.359 97.8337 122.852 97.16 122.852C96.4863 122.852 95.8948 122.326 95.8948 121.324C95.8948 119.336 97.5051 118.267 98.606 118.103V118.958ZM101.564 118.958C100.594 119.138 99.8549 119.96 99.822 120.782C99.8713 120.749 100.036 120.699 100.233 120.699C100.808 120.699 101.268 121.094 101.268 121.768C101.268 122.359 100.792 122.852 100.118 122.852C99.4441 122.852 98.8525 122.326 98.8525 121.324C98.8525 119.336 100.463 118.267 101.564 118.103V118.958ZM111.466 123.575C111.252 123.509 110.924 123.427 110.365 123.427C108.738 123.427 107.867 124.347 107.867 126.155V128.833H110.349V130H104.219V128.833H106.553V123.296H104.466V122.129H107.834V123.674C108.295 122.458 109.445 122.014 110.381 122.014C110.957 122.014 111.269 122.096 111.466 122.162V123.575ZM117.72 130.23C115.666 130.23 113.809 128.735 113.809 126.04C113.809 123.509 115.65 121.899 117.589 121.899C119.922 121.899 121.335 123.509 121.335 125.876C121.335 126.04 121.319 126.221 121.302 126.336H115.157V126.451C115.157 127.93 116.356 129.014 117.72 129.014C119.051 129.014 119.807 128.275 120.119 127.354L121.253 127.765C120.809 129.129 119.544 130.23 117.72 130.23ZM119.971 125.218C119.906 124.052 119.051 123.066 117.605 123.066C116.291 123.066 115.272 124.084 115.19 125.218H119.971ZM128.017 130.23C126.62 130.23 125.716 129.556 125.289 128.735V130H124.007V118.12H125.322V123.312C125.733 122.606 126.571 121.899 128.017 121.899C130.383 121.899 131.665 123.756 131.665 126.056C131.665 128.406 130.334 130.23 128.017 130.23ZM127.819 129.031C129.364 129.031 130.334 127.798 130.334 126.056C130.334 124.314 129.381 123.099 127.819 123.099C126.258 123.099 125.289 124.314 125.289 126.056C125.289 127.798 126.275 129.031 127.819 129.031ZM139.25 128.932C138.872 129.737 137.902 130.23 136.818 130.23C134.813 130.23 133.794 128.883 133.794 127.075V122.129H135.109V126.861C135.109 127.995 135.651 129.031 137.114 129.031C138.445 129.031 139.184 128.061 139.184 126.829V122.129H140.499V128.357C140.499 128.965 140.564 129.688 140.614 130H139.348C139.283 129.77 139.25 129.326 139.25 128.932ZM143.811 128.817H146.835V123.312H144.157V122.129H148.15V128.817H151.173V130H143.811V128.817ZM146.194 119.368C146.194 118.678 146.736 118.136 147.443 118.136C148.117 118.136 148.659 118.678 148.659 119.368C148.659 120.059 148.117 120.617 147.443 120.617C146.736 120.617 146.194 120.059 146.194 119.368ZM153.336 128.817H156.359V119.303H153.763V118.12H157.674V128.817H160.697V130H153.336V128.817ZM169.121 128.702C168.743 129.523 167.872 130.23 166.426 130.23C164.191 130.23 162.761 128.39 162.761 126.056C162.761 123.772 164.273 121.899 166.491 121.899C167.987 121.899 168.792 122.606 169.088 123.312V118.12H170.402V128.521C170.402 129.31 170.452 129.836 170.484 130H169.203C169.17 129.819 169.121 129.376 169.121 128.866V128.702ZM166.623 129.031C168.167 129.031 169.121 127.782 169.121 126.056C169.121 124.331 168.184 123.099 166.623 123.099C165.111 123.099 164.092 124.331 164.092 126.056C164.092 127.782 165.128 129.031 166.623 129.031ZM173.879 124.709H179.565V125.859H173.879V124.709ZM186.838 130.23C184.62 130.23 183.502 128.8 183.289 127.913L184.488 127.42C184.718 128.242 185.556 129.047 186.871 129.047C187.922 129.047 188.53 128.554 188.53 127.913C188.53 127.338 188.152 126.993 187.282 126.812L185.753 126.5C184.274 126.204 183.617 125.35 183.617 124.331C183.617 123 184.85 121.899 186.591 121.899C188.35 121.899 189.483 122.803 189.845 124.052L188.728 124.495C188.465 123.739 187.791 123.049 186.591 123.049C185.589 123.049 184.915 123.526 184.915 124.232C184.915 124.742 185.228 125.136 186.016 125.284L187.512 125.58C189.073 125.892 189.845 126.664 189.845 127.847C189.845 128.948 188.925 130.23 186.838 130.23ZM196.543 130.23C194.489 130.23 192.632 128.735 192.632 126.04C192.632 123.509 194.472 121.899 196.411 121.899C198.745 121.899 200.158 123.509 200.158 125.876C200.158 126.04 200.141 126.221 200.125 126.336H193.979V126.451C193.979 127.93 195.179 129.014 196.543 129.014C197.874 129.014 198.63 128.275 198.942 127.354L200.076 127.765C199.632 129.129 198.367 130.23 196.543 130.23ZM198.794 125.218C198.728 124.052 197.874 123.066 196.428 123.066C195.113 123.066 194.094 124.084 194.012 125.218H198.794ZM202.797 127.88C202.797 126.5 203.832 125.777 205.229 125.58L207.497 125.251C208.088 125.169 208.203 124.906 208.203 124.545C208.203 123.707 207.579 123.082 206.314 123.082C205.081 123.082 204.292 123.772 204.194 124.676L202.945 124.413C203.109 122.951 204.506 121.899 206.281 121.899C208.548 121.899 209.501 123.148 209.501 124.676V128.521C209.501 129.178 209.6 129.754 209.666 130H208.384C208.335 129.852 208.236 129.326 208.236 128.817C207.99 129.458 207.053 130.23 205.574 130.23C203.767 130.23 202.797 129.063 202.797 127.88ZM205.771 129.031C207.053 129.031 208.203 128.291 208.203 126.714V126.155L205.492 126.549C204.703 126.664 204.112 127.075 204.112 127.782C204.112 128.455 204.605 129.031 205.771 129.031ZM219.847 123.575C219.634 123.509 219.305 123.427 218.746 123.427C217.119 123.427 216.249 124.347 216.249 126.155V128.833H218.73V130H212.601V128.833H214.934V123.296H212.847V122.129H216.216V123.674C216.676 122.458 217.826 122.014 218.763 122.014C219.338 122.014 219.65 122.096 219.847 122.162V123.575ZM226.233 130.23C224.08 130.23 222.24 128.603 222.24 126.056C222.24 123.476 224.146 121.899 226.216 121.899C228.353 121.899 229.503 123.131 229.831 124.397L228.632 124.89C228.418 124.068 227.695 123.131 226.216 123.131C224.918 123.131 223.571 124.117 223.571 126.056C223.571 127.979 224.918 128.998 226.233 128.998C227.81 128.998 228.451 127.93 228.681 127.223L229.831 127.716C229.453 128.883 228.303 130.23 226.233 130.23ZM232.487 118.12H233.802V123.23C234.311 122.31 235.297 121.899 236.398 121.899C238.403 121.899 239.372 123.361 239.372 125.12V130H238.057V125.35C238.057 124.183 237.565 123.131 236.036 123.131C234.771 123.131 233.802 124.068 233.802 125.613V130H232.487V118.12ZM242.849 124.709H248.535V125.859H242.849V124.709ZM252.193 128.817H255.216V123.312H252.538V122.129H256.531V128.817H259.554V130H252.193V128.817ZM254.575 119.368C254.575 118.678 255.118 118.136 255.824 118.136C256.498 118.136 257.04 118.678 257.04 119.368C257.04 120.059 256.498 120.617 255.824 120.617C255.118 120.617 254.575 120.059 254.575 119.368ZM262.046 122.129H263.327V123.279C263.82 122.343 264.806 121.899 265.891 121.899C267.945 121.899 268.931 123.296 268.931 125.038V130H267.616V125.3C267.616 124.167 267.107 123.131 265.578 123.131C264.33 123.131 263.36 124.068 263.36 125.58V130H262.046V122.129ZM277.502 128.702C277.124 129.523 276.253 130.23 274.807 130.23C272.572 130.23 271.142 128.39 271.142 126.056C271.142 123.772 272.654 121.899 274.873 121.899C276.368 121.899 277.173 122.606 277.469 123.312V118.12H278.783V128.521C278.783 129.31 278.833 129.836 278.866 130H277.584C277.551 129.819 277.502 129.376 277.502 128.866V128.702ZM275.004 129.031C276.549 129.031 277.502 127.782 277.502 126.056C277.502 124.331 276.565 123.099 275.004 123.099C273.492 123.099 272.473 124.331 272.473 126.056C272.473 127.782 273.509 129.031 275.004 129.031ZM285.218 130.23C283.164 130.23 281.308 128.735 281.308 126.04C281.308 123.509 283.148 121.899 285.087 121.899C287.42 121.899 288.833 123.509 288.833 125.876C288.833 126.04 288.817 126.221 288.801 126.336H282.655V126.451C282.655 127.93 283.854 129.014 285.218 129.014C286.549 129.014 287.305 128.275 287.617 127.354L288.751 127.765C288.308 129.129 287.042 130.23 285.218 130.23ZM287.47 125.218C287.404 124.052 286.549 123.066 285.103 123.066C283.789 123.066 282.77 124.084 282.688 125.218H287.47ZM292.656 130H291.045L294.167 126.007L291.16 122.129H292.787L294.973 125.005L297.175 122.129H298.752L295.745 126.007L298.867 130H297.257L294.956 127.042L292.656 130ZM305.121 122.096C306.091 121.915 306.83 121.094 306.863 120.272C306.814 120.305 306.649 120.354 306.452 120.354C305.877 120.354 305.417 119.96 305.417 119.286C305.417 118.695 305.894 118.202 306.567 118.202C307.241 118.202 307.832 118.728 307.832 119.73C307.832 121.718 306.222 122.786 305.121 122.951V122.096ZM302.163 122.096C303.133 121.915 303.872 121.094 303.905 120.272C303.856 120.305 303.692 120.354 303.494 120.354C302.919 120.354 302.459 119.96 302.459 119.286C302.459 118.695 302.936 118.202 303.609 118.202C304.283 118.202 304.875 118.728 304.875 119.73C304.875 121.718 303.264 122.786 302.163 122.951V122.096ZM157.723 218.958C156.754 219.138 156.014 219.96 155.981 220.782C156.031 220.749 156.195 220.699 156.392 220.699C156.967 220.699 157.427 221.094 157.427 221.768C157.427 222.359 156.951 222.852 156.277 222.852C155.603 222.852 155.012 222.326 155.012 221.324C155.012 219.336 156.622 218.267 157.723 218.103V218.958ZM160.681 218.958C159.711 219.138 158.972 219.96 158.939 220.782C158.988 220.749 159.153 220.699 159.35 220.699C159.925 220.699 160.385 221.094 160.385 221.768C160.385 222.359 159.909 222.852 159.235 222.852C158.561 222.852 157.97 222.326 157.97 221.324C157.97 219.336 159.58 218.267 160.681 218.103V218.958ZM166.869 230.23C164.602 230.23 162.926 228.488 162.926 226.056C162.926 223.641 164.602 221.899 166.869 221.899C169.137 221.899 170.813 223.641 170.813 226.056C170.813 228.488 169.137 230.23 166.869 230.23ZM166.869 229.031C168.282 229.031 169.482 227.962 169.482 226.056C169.482 224.167 168.282 223.099 166.869 223.099C165.456 223.099 164.257 224.167 164.257 226.056C164.257 227.962 165.456 229.031 166.869 229.031ZM180.436 223.575C180.222 223.509 179.894 223.427 179.335 223.427C177.708 223.427 176.837 224.347 176.837 226.155V228.833H179.318V230H173.189V228.833H175.523V223.296H173.436V222.129H176.804V223.674C177.264 222.458 178.415 222.014 179.351 222.014C179.926 222.014 180.239 222.096 180.436 222.162V223.575ZM183.995 230.214C184.159 231.183 185.03 232.103 186.345 232.103C188.12 232.103 188.777 230.986 188.777 229.458V228.143C188.432 228.915 187.577 229.556 186.279 229.556C184.192 229.556 182.73 227.913 182.73 225.744C182.73 223.559 184.176 221.899 186.312 221.899C187.627 221.899 188.481 222.474 188.793 223.246V222.129H190.091V229.573C190.091 231.38 189.188 233.319 186.329 233.319C184.455 233.319 182.911 232.12 182.713 230.526L183.995 230.214ZM188.843 225.777C188.843 224.15 187.873 223.082 186.444 223.082C185.014 223.082 184.044 224.134 184.044 225.728C184.044 227.322 185.014 228.373 186.444 228.373C187.873 228.373 188.843 227.322 188.843 225.777ZM191.794 230L199.698 218.35H201.078L193.174 230H191.794ZM208.532 228.702C208.154 229.523 207.283 230.23 205.837 230.23C203.602 230.23 202.173 228.39 202.173 226.056C202.173 223.772 203.684 221.899 205.903 221.899C207.398 221.899 208.203 222.606 208.499 223.312V218.12H209.814V228.521C209.814 229.31 209.863 229.836 209.896 230H208.614C208.581 229.819 208.532 229.376 208.532 228.866V228.702ZM206.034 229.031C207.579 229.031 208.532 227.782 208.532 226.056C208.532 224.331 207.595 223.099 206.034 223.099C204.522 223.099 203.504 224.331 203.504 226.056C203.504 227.782 204.539 229.031 206.034 229.031ZM216.249 230.23C214.194 230.23 212.338 228.735 212.338 226.04C212.338 223.509 214.178 221.899 216.117 221.899C218.45 221.899 219.864 223.509 219.864 225.876C219.864 226.04 219.847 226.221 219.831 226.336H213.685V226.451C213.685 227.93 214.885 229.014 216.249 229.014C217.58 229.014 218.335 228.275 218.648 227.354L219.781 227.765C219.338 229.129 218.072 230.23 216.249 230.23ZM218.5 225.218C218.434 224.052 217.58 223.066 216.133 223.066C214.819 223.066 213.8 224.084 213.718 225.218H218.5ZM222.306 228.817H225.329V219.303H222.733V218.12H226.644V228.817H229.667V230H222.306V228.817ZM235.954 230.23C233.9 230.23 232.043 228.735 232.043 226.04C232.043 223.509 233.884 221.899 235.823 221.899C238.156 221.899 239.569 223.509 239.569 225.876C239.569 226.04 239.553 226.221 239.536 226.336H233.391V226.451C233.391 227.93 234.59 229.014 235.954 229.014C237.285 229.014 238.041 228.275 238.353 227.354L239.487 227.765C239.043 229.129 237.778 230.23 235.954 230.23ZM238.205 225.218C238.14 224.052 237.285 223.066 235.839 223.066C234.525 223.066 233.506 224.084 233.424 225.218H238.205ZM248.88 222.129V223.329H245.873V227.519C245.873 228.439 246.448 228.883 247.302 228.883C247.845 228.883 248.551 228.784 248.88 228.669V229.869C248.518 230 247.96 230.131 247.154 230.131C245.528 230.131 244.558 229.326 244.558 227.765V223.329H242.028V222.129H243.326C244.279 222.129 244.64 221.636 244.64 220.765V219.352H245.873V222.129H248.88ZM255.66 230.23C253.606 230.23 251.749 228.735 251.749 226.04C251.749 223.509 253.589 221.899 255.528 221.899C257.862 221.899 259.275 223.509 259.275 225.876C259.275 226.04 259.258 226.221 259.242 226.336H253.096V226.451C253.096 227.93 254.296 229.014 255.66 229.014C256.991 229.014 257.747 228.275 258.059 227.354L259.193 227.765C258.749 229.129 257.484 230.23 255.66 230.23ZM257.911 225.218C257.845 224.052 256.991 223.066 255.545 223.066C254.23 223.066 253.211 224.084 253.129 225.218H257.911ZM267.649 228.702C267.271 229.523 266.4 230.23 264.954 230.23C262.719 230.23 261.29 228.39 261.29 226.056C261.29 223.772 262.801 221.899 265.02 221.899C266.515 221.899 267.32 222.606 267.616 223.312V218.12H268.931V228.521C268.931 229.31 268.98 229.836 269.013 230H267.731C267.698 229.819 267.649 229.376 267.649 228.866V228.702ZM265.151 229.031C266.696 229.031 267.649 227.782 267.649 226.056C267.649 224.331 266.712 223.099 265.151 223.099C263.639 223.099 262.621 224.331 262.621 226.056C262.621 227.782 263.656 229.031 265.151 229.031ZM275.563 222.096C276.532 221.915 277.272 221.094 277.304 220.272C277.255 220.305 277.091 220.354 276.894 220.354C276.319 220.354 275.858 219.96 275.858 219.286C275.858 218.695 276.335 218.202 277.009 218.202C277.682 218.202 278.274 218.728 278.274 219.73C278.274 221.718 276.664 222.786 275.563 222.951V222.096ZM272.605 222.096C273.574 221.915 274.314 221.094 274.347 220.272C274.297 220.305 274.133 220.354 273.936 220.354C273.361 220.354 272.901 219.96 272.901 219.286C272.901 218.695 273.377 218.202 274.051 218.202C274.725 218.202 275.316 218.728 275.316 219.73C275.316 221.718 273.706 222.786 272.605 222.951V222.096ZM157.723 243.958C156.754 244.138 156.014 244.96 155.981 245.782C156.031 245.749 156.195 245.699 156.392 245.699C156.967 245.699 157.427 246.094 157.427 246.768C157.427 247.359 156.951 247.852 156.277 247.852C155.603 247.852 155.012 247.326 155.012 246.324C155.012 244.336 156.622 243.267 157.723 243.103V243.958ZM160.681 243.958C159.711 244.138 158.972 244.96 158.939 245.782C158.988 245.749 159.153 245.699 159.35 245.699C159.925 245.699 160.385 246.094 160.385 246.768C160.385 247.359 159.909 247.852 159.235 247.852C158.561 247.852 157.97 247.326 157.97 246.324C157.97 244.336 159.58 243.267 160.681 243.103V243.958ZM169.121 253.702C168.743 254.523 167.872 255.23 166.426 255.23C164.191 255.23 162.761 253.39 162.761 251.056C162.761 248.772 164.273 246.899 166.491 246.899C167.987 246.899 168.792 247.606 169.088 248.312V243.12H170.402V253.521C170.402 254.31 170.452 254.836 170.484 255H169.203C169.17 254.819 169.121 254.376 169.121 253.866V253.702ZM166.623 254.031C168.167 254.031 169.121 252.782 169.121 251.056C169.121 249.331 168.184 248.099 166.623 248.099C165.111 248.099 164.092 249.331 164.092 251.056C164.092 252.782 165.128 254.031 166.623 254.031ZM173.239 252.88C173.239 251.5 174.274 250.777 175.67 250.58L177.938 250.251C178.53 250.169 178.645 249.906 178.645 249.545C178.645 248.707 178.02 248.082 176.755 248.082C175.523 248.082 174.734 248.772 174.635 249.676L173.386 249.413C173.551 247.951 174.947 246.899 176.722 246.899C178.99 246.899 179.943 248.148 179.943 249.676V253.521C179.943 254.178 180.041 254.754 180.107 255H178.825C178.776 254.852 178.678 254.326 178.678 253.817C178.431 254.458 177.494 255.23 176.016 255.23C174.208 255.23 173.239 254.063 173.239 252.88ZM176.213 254.031C177.494 254.031 178.645 253.291 178.645 251.714V251.155L175.933 251.549C175.145 251.664 174.553 252.075 174.553 252.782C174.553 253.455 175.046 254.031 176.213 254.031ZM189.763 247.129V248.329H186.756V252.519C186.756 253.439 187.331 253.883 188.185 253.883C188.728 253.883 189.434 253.784 189.763 253.669V254.869C189.401 255 188.843 255.131 188.037 255.131C186.411 255.131 185.441 254.326 185.441 252.765V248.329H182.911V247.129H184.209C185.162 247.129 185.523 246.636 185.523 245.765V244.352H186.756V247.129H189.763ZM192.944 252.88C192.944 251.5 193.979 250.777 195.376 250.58L197.644 250.251C198.235 250.169 198.35 249.906 198.35 249.545C198.35 248.707 197.726 248.082 196.461 248.082C195.228 248.082 194.44 248.772 194.341 249.676L193.092 249.413C193.256 247.951 194.653 246.899 196.428 246.899C198.695 246.899 199.649 248.148 199.649 249.676V253.521C199.649 254.178 199.747 254.754 199.813 255H198.531C198.482 254.852 198.383 254.326 198.383 253.817C198.137 254.458 197.2 255.23 195.721 255.23C193.914 255.23 192.944 254.063 192.944 252.88ZM195.918 254.031C197.2 254.031 198.35 253.291 198.35 251.714V251.155L195.639 251.549C194.85 251.664 194.259 252.075 194.259 252.782C194.259 253.455 194.752 254.031 195.918 254.031ZM204.917 253.751C204.917 252.979 205.525 252.387 206.264 252.387C207.02 252.387 207.628 252.979 207.628 253.751C207.628 254.523 207.02 255.099 206.264 255.099C205.525 255.099 204.917 254.523 204.917 253.751ZM216.133 255.23C213.866 255.23 212.19 253.488 212.19 251.056C212.19 248.641 213.866 246.899 216.133 246.899C218.401 246.899 220.077 248.641 220.077 251.056C220.077 253.488 218.401 255.23 216.133 255.23ZM216.133 254.031C217.547 254.031 218.746 252.962 218.746 251.056C218.746 249.167 217.547 248.099 216.133 248.099C214.72 248.099 213.521 249.167 213.521 251.056C213.521 252.962 214.72 254.031 216.133 254.031ZM229.7 248.575C229.486 248.509 229.158 248.427 228.599 248.427C226.972 248.427 226.101 249.347 226.101 251.155V253.833H228.583V255H222.453V253.833H224.787V248.296H222.7V247.129H226.068V248.674C226.529 247.458 227.679 247.014 228.615 247.014C229.191 247.014 229.503 247.096 229.7 247.162V248.575ZM233.259 255.214C233.424 256.183 234.295 257.103 235.609 257.103C237.384 257.103 238.041 255.986 238.041 254.458V253.143C237.696 253.915 236.842 254.556 235.543 254.556C233.457 254.556 231.994 252.913 231.994 250.744C231.994 248.559 233.44 246.899 235.576 246.899C236.891 246.899 237.745 247.474 238.057 248.246V247.129H239.356V254.573C239.356 256.38 238.452 258.319 235.593 258.319C233.719 258.319 232.175 257.12 231.978 255.526L233.259 255.214ZM238.107 250.777C238.107 249.15 237.137 248.082 235.708 248.082C234.278 248.082 233.309 249.134 233.309 250.728C233.309 252.322 234.278 253.373 235.708 253.373C237.137 253.373 238.107 252.322 238.107 250.777ZM246.382 253.817H249.044V255H242.34V253.817H245.018V244.533H242.34V243.35H249.044V244.533H246.382V253.817ZM257.796 253.702C257.418 254.523 256.547 255.23 255.101 255.23C252.866 255.23 251.437 253.39 251.437 251.056C251.437 248.772 252.949 246.899 255.167 246.899C256.662 246.899 257.467 247.606 257.763 248.312V243.12H259.078V253.521C259.078 254.31 259.127 254.836 259.16 255H257.878C257.845 254.819 257.796 254.376 257.796 253.866V253.702ZM255.298 254.031C256.843 254.031 257.796 252.782 257.796 251.056C257.796 249.331 256.859 248.099 255.298 248.099C253.787 248.099 252.768 249.331 252.768 251.056C252.768 252.782 253.803 254.031 255.298 254.031ZM265.71 247.096C266.679 246.915 267.419 246.094 267.452 245.272C267.402 245.305 267.238 245.354 267.041 245.354C266.466 245.354 266.006 244.96 266.006 244.286C266.006 243.695 266.482 243.202 267.156 243.202C267.83 243.202 268.421 243.728 268.421 244.73C268.421 246.718 266.811 247.786 265.71 247.951V247.096ZM262.752 247.096C263.722 246.915 264.461 246.094 264.494 245.272C264.445 245.305 264.28 245.354 264.083 245.354C263.508 245.354 263.048 244.96 263.048 244.286C263.048 243.695 263.524 243.202 264.198 243.202C264.872 243.202 265.463 243.728 265.463 244.73C265.463 246.718 263.853 247.786 262.752 247.951V247.096ZM138.017 343.958C137.048 344.138 136.308 344.96 136.276 345.782C136.325 345.749 136.489 345.699 136.686 345.699C137.262 345.699 137.722 346.094 137.722 346.768C137.722 347.359 137.245 347.852 136.571 347.852C135.898 347.852 135.306 347.326 135.306 346.324C135.306 344.336 136.916 343.267 138.017 343.103V343.958ZM140.975 343.958C140.006 344.138 139.266 344.96 139.233 345.782C139.283 345.749 139.447 345.699 139.644 345.699C140.219 345.699 140.679 346.094 140.679 346.768C140.679 347.359 140.203 347.852 139.529 347.852C138.855 347.852 138.264 347.326 138.264 346.324C138.264 344.336 139.874 343.267 140.975 343.103V343.958ZM147.41 355.23C145.258 355.23 143.417 353.603 143.417 351.056C143.417 348.476 145.323 346.899 147.394 346.899C149.53 346.899 150.68 348.131 151.009 349.397L149.809 349.89C149.596 349.068 148.873 348.131 147.394 348.131C146.096 348.131 144.748 349.117 144.748 351.056C144.748 352.979 146.096 353.998 147.41 353.998C148.988 353.998 149.628 352.93 149.859 352.223L151.009 352.716C150.631 353.883 149.481 355.23 147.41 355.23ZM157.016 355.23C154.749 355.23 153.073 353.488 153.073 351.056C153.073 348.641 154.749 346.899 157.016 346.899C159.284 346.899 160.96 348.641 160.96 351.056C160.96 353.488 159.284 355.23 157.016 355.23ZM157.016 354.031C158.43 354.031 159.629 352.962 159.629 351.056C159.629 349.167 158.43 348.099 157.016 348.099C155.603 348.099 154.404 349.167 154.404 351.056C154.404 352.962 155.603 354.031 157.016 354.031ZM163.517 347.129H164.799V348.279C165.292 347.343 166.278 346.899 167.362 346.899C169.416 346.899 170.402 348.296 170.402 350.038V355H169.088V350.3C169.088 349.167 168.578 348.131 167.05 348.131C165.801 348.131 164.832 349.068 164.832 350.58V355H163.517V347.129ZM179.91 347.129V348.329H176.903V352.519C176.903 353.439 177.478 353.883 178.332 353.883C178.875 353.883 179.581 353.784 179.91 353.669V354.869C179.548 355 178.99 355.131 178.185 355.131C176.558 355.131 175.588 354.326 175.588 352.765V348.329H173.058V347.129H174.356C175.309 347.129 175.67 346.636 175.67 345.765V344.352H176.903V347.129H179.91ZM186.69 355.23C184.636 355.23 182.779 353.735 182.779 351.04C182.779 348.509 184.62 346.899 186.559 346.899C188.892 346.899 190.305 348.509 190.305 350.876C190.305 351.04 190.289 351.221 190.272 351.336H184.127V351.451C184.127 352.93 185.326 354.014 186.69 354.014C188.021 354.014 188.777 353.275 189.089 352.354L190.223 352.765C189.779 354.129 188.514 355.23 186.69 355.23ZM188.941 350.218C188.875 349.052 188.021 348.066 186.575 348.066C185.26 348.066 184.242 349.084 184.159 350.218H188.941ZM193.076 347.129H194.357V348.279C194.85 347.343 195.836 346.899 196.921 346.899C198.975 346.899 199.961 348.296 199.961 350.038V355H198.646V350.3C198.646 349.167 198.137 348.131 196.609 348.131C195.36 348.131 194.39 349.068 194.39 350.58V355H193.076V347.129ZM209.468 347.129V348.329H206.461V352.519C206.461 353.439 207.037 353.883 207.891 353.883C208.433 353.883 209.14 353.784 209.468 353.669V354.869C209.107 355 208.548 355.131 207.743 355.131C206.116 355.131 205.147 354.326 205.147 352.765V348.329H202.616V347.129H203.914C204.867 347.129 205.229 346.636 205.229 345.765V344.352H206.461V347.129H209.468ZM211.5 355L219.403 343.35H220.784L212.88 355H211.5ZM227.925 353.932C227.547 354.737 226.578 355.23 225.493 355.23C223.489 355.23 222.47 353.883 222.47 352.075V347.129H223.784V351.861C223.784 352.995 224.327 354.031 225.789 354.031C227.12 354.031 227.86 353.061 227.86 351.829V347.129H229.174V353.357C229.174 353.965 229.24 354.688 229.289 355H228.024C227.958 354.77 227.925 354.326 227.925 353.932ZM232.29 347.129H233.572V348.444C233.933 347.638 234.82 346.899 236.299 346.899C238.649 346.899 239.947 348.739 239.947 351.056C239.947 353.406 238.534 355.23 236.234 355.23C234.837 355.23 233.966 354.606 233.604 353.899V358.122H232.29V347.129ZM236.069 354.047C237.597 354.047 238.616 352.798 238.616 351.056C238.616 349.314 237.597 348.082 236.069 348.082C234.557 348.082 233.572 349.314 233.572 351.056C233.572 352.798 234.574 354.047 236.069 354.047ZM247.943 353.702C247.565 354.523 246.694 355.23 245.248 355.23C243.014 355.23 241.584 353.39 241.584 351.056C241.584 348.772 243.096 346.899 245.314 346.899C246.809 346.899 247.615 347.606 247.91 348.312V343.12H249.225V353.521C249.225 354.31 249.274 354.836 249.307 355H248.025C247.992 354.819 247.943 354.376 247.943 353.866V353.702ZM245.446 354.031C246.99 354.031 247.943 352.782 247.943 351.056C247.943 349.331 247.007 348.099 245.446 348.099C243.934 348.099 242.915 349.331 242.915 351.056C242.915 352.782 243.95 354.031 245.446 354.031ZM252.061 352.88C252.061 351.5 253.096 350.777 254.493 350.58L256.761 350.251C257.352 350.169 257.467 349.906 257.467 349.545C257.467 348.707 256.843 348.082 255.578 348.082C254.345 348.082 253.557 348.772 253.458 349.676L252.209 349.413C252.373 347.951 253.77 346.899 255.545 346.899C257.812 346.899 258.766 348.148 258.766 349.676V353.521C258.766 354.178 258.864 354.754 258.93 355H257.648C257.599 354.852 257.5 354.326 257.5 353.817C257.254 354.458 256.317 355.23 254.838 355.23C253.031 355.23 252.061 354.063 252.061 352.88ZM255.035 354.031C256.317 354.031 257.467 353.291 257.467 351.714V351.155L254.756 351.549C253.967 351.664 253.376 352.075 253.376 352.782C253.376 353.455 253.869 354.031 255.035 354.031ZM268.585 347.129V348.329H265.578V352.519C265.578 353.439 266.154 353.883 267.008 353.883C267.55 353.883 268.257 353.784 268.585 353.669V354.869C268.224 355 267.665 355.131 266.86 355.131C265.233 355.131 264.264 354.326 264.264 352.765V348.329H261.733V347.129H263.031C263.985 347.129 264.346 346.636 264.346 345.765V344.352H265.578V347.129H268.585ZM275.366 355.23C273.312 355.23 271.455 353.735 271.455 351.04C271.455 348.509 273.295 346.899 275.234 346.899C277.567 346.899 278.981 348.509 278.981 350.876C278.981 351.04 278.964 351.221 278.948 351.336H272.802V351.451C272.802 352.93 274.002 354.014 275.366 354.014C276.697 354.014 277.452 353.275 277.765 352.354L278.898 352.765C278.455 354.129 277.189 355.23 275.366 355.23ZM277.617 350.218C277.551 349.052 276.697 348.066 275.25 348.066C273.936 348.066 272.917 349.084 272.835 350.218H277.617ZM287.355 353.702C286.977 354.523 286.106 355.23 284.66 355.23C282.425 355.23 280.995 353.39 280.995 351.056C280.995 348.772 282.507 346.899 284.725 346.899C286.221 346.899 287.026 347.606 287.322 348.312V343.12H288.636V353.521C288.636 354.31 288.686 354.836 288.718 355H287.437C287.404 354.819 287.355 354.376 287.355 353.866V353.702ZM284.857 354.031C286.401 354.031 287.355 352.782 287.355 351.056C287.355 349.331 286.418 348.099 284.857 348.099C283.345 348.099 282.326 349.331 282.326 351.056C282.326 352.782 283.362 354.031 284.857 354.031ZM295.268 347.096C296.238 346.915 296.977 346.094 297.01 345.272C296.961 345.305 296.797 345.354 296.599 345.354C296.024 345.354 295.564 344.96 295.564 344.286C295.564 343.695 296.041 343.202 296.714 343.202C297.388 343.202 297.98 343.728 297.98 344.73C297.98 346.718 296.369 347.786 295.268 347.951V347.096ZM292.311 347.096C293.28 346.915 294.02 346.094 294.052 345.272C294.003 345.305 293.839 345.354 293.642 345.354C293.066 345.354 292.606 344.96 292.606 344.286C292.606 343.695 293.083 343.202 293.757 343.202C294.43 343.202 295.022 343.728 295.022 344.73C295.022 346.718 293.412 347.786 292.311 347.951V347.096Z" fill="#0BDD48"/>
<path d="M73.56 155L81.4638 143.35H82.8441L74.9402 155H73.56ZM83.4128 155L91.3166 143.35H92.6969L84.7931 155H83.4128ZM110.957 155L109.905 151.631H105.567L104.532 155H103.086L106.766 143.35H108.722L112.419 155H110.957ZM107.736 144.566L105.978 150.3H109.494L107.736 144.566ZM119.544 153.932C119.166 154.737 118.197 155.23 117.112 155.23C115.107 155.23 114.089 153.883 114.089 152.075V147.129H115.403V151.861C115.403 152.995 115.946 154.031 117.408 154.031C118.739 154.031 119.478 153.061 119.478 151.829V147.129H120.793V153.357C120.793 153.965 120.859 154.688 120.908 155H119.643C119.577 154.77 119.544 154.326 119.544 153.932ZM130.646 147.129V148.329H127.639V152.519C127.639 153.439 128.214 153.883 129.068 153.883C129.611 153.883 130.317 153.784 130.646 153.669V154.869C130.284 155 129.726 155.131 128.92 155.131C127.294 155.131 126.324 154.326 126.324 152.765V148.329H123.794V147.129H125.092C126.045 147.129 126.406 146.636 126.406 145.765V144.352H127.639V147.129H130.646ZM137.311 155.23C135.043 155.23 133.367 153.488 133.367 151.056C133.367 148.641 135.043 146.899 137.311 146.899C139.578 146.899 141.255 148.641 141.255 151.056C141.255 153.488 139.578 155.23 137.311 155.23ZM137.311 154.031C138.724 154.031 139.924 152.962 139.924 151.056C139.924 149.167 138.724 148.099 137.311 148.099C135.898 148.099 134.698 149.167 134.698 151.056C134.698 152.962 135.898 154.031 137.311 154.031ZM144.321 149.709H150.006V150.859H144.321V149.709ZM157.263 155.23C155.11 155.23 153.27 153.603 153.27 151.056C153.27 148.476 155.176 146.899 157.247 146.899C159.383 146.899 160.533 148.131 160.862 149.397L159.662 149.89C159.448 149.068 158.725 148.131 157.247 148.131C155.948 148.131 154.601 149.117 154.601 151.056C154.601 152.979 155.948 153.998 157.263 153.998C158.84 153.998 159.481 152.93 159.711 152.223L160.862 152.716C160.484 153.883 159.333 155.23 157.263 155.23ZM163.386 152.88C163.386 151.5 164.421 150.777 165.818 150.58L168.085 150.251C168.677 150.169 168.792 149.906 168.792 149.545C168.792 148.707 168.167 148.082 166.902 148.082C165.67 148.082 164.881 148.772 164.782 149.676L163.534 149.413C163.698 147.951 165.095 146.899 166.869 146.899C169.137 146.899 170.09 148.148 170.09 149.676V153.521C170.09 154.178 170.189 154.754 170.254 155H168.973C168.923 154.852 168.825 154.326 168.825 153.817C168.578 154.458 167.642 155.23 166.163 155.23C164.355 155.23 163.386 154.063 163.386 152.88ZM166.36 154.031C167.642 154.031 168.792 153.291 168.792 151.714V151.155L166.081 151.549C165.292 151.664 164.7 152.075 164.7 152.782C164.7 153.455 165.193 154.031 166.36 154.031ZM173.37 147.129H174.652V148.279C175.145 147.343 176.131 146.899 177.215 146.899C179.269 146.899 180.255 148.296 180.255 150.038V155H178.94V150.3C178.94 149.167 178.431 148.131 176.903 148.131C175.654 148.131 174.685 149.068 174.685 150.58V155H173.37V147.129ZM186.821 155.23C184.669 155.23 182.828 153.603 182.828 151.056C182.828 148.476 184.735 146.899 186.805 146.899C188.941 146.899 190.091 148.131 190.42 149.397L189.221 149.89C189.007 149.068 188.284 148.131 186.805 148.131C185.507 148.131 184.159 149.117 184.159 151.056C184.159 152.979 185.507 153.998 186.821 153.998C188.399 153.998 189.04 152.93 189.27 152.223L190.42 152.716C190.042 153.883 188.892 155.23 186.821 155.23ZM196.543 155.23C194.489 155.23 192.632 153.735 192.632 151.04C192.632 148.509 194.472 146.899 196.411 146.899C198.745 146.899 200.158 148.509 200.158 150.876C200.158 151.04 200.141 151.221 200.125 151.336H193.979V151.451C193.979 152.93 195.179 154.014 196.543 154.014C197.874 154.014 198.63 153.275 198.942 152.354L200.076 152.765C199.632 154.129 198.367 155.23 196.543 155.23ZM198.794 150.218C198.728 149.052 197.874 148.066 196.428 148.066C195.113 148.066 194.094 149.084 194.012 150.218H198.794ZM202.6 153.817H205.623V144.303H203.027V143.12H206.938V153.817H209.961V155H202.6V153.817ZM222.634 153.817H225.658V148.312H222.979V147.129H226.972V153.817H229.996V155H222.634V153.817ZM225.017 144.368C225.017 143.678 225.559 143.136 226.266 143.136C226.939 143.136 227.482 143.678 227.482 144.368C227.482 145.059 226.939 145.617 226.266 145.617C225.559 145.617 225.017 145.059 225.017 144.368ZM236.086 155H234.771V148.312H231.912V147.129H234.771V145.831C234.771 144.023 236.02 143.103 237.745 143.103C238.386 143.103 239.011 143.202 239.471 143.366V144.549C238.945 144.385 238.403 144.319 237.795 144.319C236.825 144.319 236.086 144.746 236.086 145.979V147.129H239.471V148.312H236.086V155ZM255.545 155.23C253.277 155.23 251.601 153.488 251.601 151.056C251.601 148.641 253.277 146.899 255.545 146.899C257.812 146.899 259.489 148.641 259.489 151.056C259.489 153.488 257.812 155.23 255.545 155.23ZM255.545 154.031C256.958 154.031 258.158 152.962 258.158 151.056C258.158 149.167 256.958 148.099 255.545 148.099C254.132 148.099 252.932 149.167 252.932 151.056C252.932 152.962 254.132 154.031 255.545 154.031ZM269.111 148.575C268.898 148.509 268.569 148.427 268.01 148.427C266.384 148.427 265.513 149.347 265.513 151.155V153.833H267.994V155H261.865V153.833H264.198V148.296H262.111V147.129H265.48V148.674C265.94 147.458 267.09 147.014 268.027 147.014C268.602 147.014 268.914 147.096 269.111 147.162V148.575ZM272.671 155.214C272.835 156.183 273.706 157.103 275.02 157.103C276.795 157.103 277.452 155.986 277.452 154.458V153.143C277.107 153.915 276.253 154.556 274.955 154.556C272.868 154.556 271.405 152.913 271.405 150.744C271.405 148.559 272.851 146.899 274.988 146.899C276.302 146.899 277.157 147.474 277.469 148.246V147.129H278.767V154.573C278.767 156.38 277.863 158.319 275.004 158.319C273.131 158.319 271.586 157.12 271.389 155.526L272.671 155.214ZM277.518 150.777C277.518 149.15 276.549 148.082 275.119 148.082C273.689 148.082 272.72 149.134 272.72 150.728C272.72 152.322 273.689 153.373 275.119 153.373C276.549 153.373 277.518 152.322 277.518 150.777ZM291.604 153.817H294.628V148.312H291.949V147.129H295.942V153.817H298.966V155H291.604V153.817ZM293.987 144.368C293.987 143.678 294.529 143.136 295.236 143.136C295.909 143.136 296.451 143.678 296.451 144.368C296.451 145.059 295.909 145.617 295.236 145.617C294.529 145.617 293.987 145.059 293.987 144.368ZM305.072 155.23C302.854 155.23 301.736 153.8 301.523 152.913L302.722 152.42C302.952 153.242 303.79 154.047 305.105 154.047C306.156 154.047 306.764 153.554 306.764 152.913C306.764 152.338 306.386 151.993 305.516 151.812L303.987 151.5C302.508 151.204 301.851 150.35 301.851 149.331C301.851 148 303.084 146.899 304.825 146.899C306.584 146.899 307.717 147.803 308.079 149.052L306.962 149.495C306.699 148.739 306.025 148.049 304.825 148.049C303.823 148.049 303.149 148.526 303.149 149.232C303.149 149.742 303.462 150.136 304.25 150.284L305.746 150.58C307.307 150.892 308.079 151.664 308.079 152.847C308.079 153.948 307.159 155.23 305.072 155.23ZM326.766 153.702C326.388 154.523 325.517 155.23 324.071 155.23C321.836 155.23 320.407 153.39 320.407 151.056C320.407 148.772 321.918 146.899 324.137 146.899C325.632 146.899 326.437 147.606 326.733 148.312V143.12H328.048V153.521C328.048 154.31 328.097 154.836 328.13 155H326.848C326.815 154.819 326.766 154.376 326.766 153.866V153.702ZM324.268 154.031C325.813 154.031 326.766 152.782 326.766 151.056C326.766 149.331 325.829 148.099 324.268 148.099C322.756 148.099 321.738 149.331 321.738 151.056C321.738 152.782 322.773 154.031 324.268 154.031ZM334.483 155.23C332.429 155.23 330.572 153.735 330.572 151.04C330.572 148.509 332.412 146.899 334.351 146.899C336.684 146.899 338.098 148.509 338.098 150.876C338.098 151.04 338.081 151.221 338.065 151.336H331.919V151.451C331.919 152.93 333.119 154.014 334.483 154.014C335.814 154.014 336.569 153.275 336.882 152.354L338.015 152.765C337.572 154.129 336.306 155.23 334.483 155.23ZM336.734 150.218C336.668 149.052 335.814 148.066 334.367 148.066C333.053 148.066 332.034 149.084 331.952 150.218H336.734ZM340.54 153.817H343.563V144.303H340.967V143.12H344.878V153.817H347.901V155H340.54V153.817ZM354.188 155.23C352.134 155.23 350.277 153.735 350.277 151.04C350.277 148.509 352.118 146.899 354.057 146.899C356.39 146.899 357.803 148.509 357.803 150.876C357.803 151.04 357.787 151.221 357.77 151.336H351.625V151.451C351.625 152.93 352.824 154.014 354.188 154.014C355.519 154.014 356.275 153.275 356.587 152.354L357.721 152.765C357.277 154.129 356.012 155.23 354.188 155.23ZM356.439 150.218C356.374 149.052 355.519 148.066 354.073 148.066C352.759 148.066 351.74 149.084 351.658 150.218H356.439ZM367.114 147.129V148.329H364.107V152.519C364.107 153.439 364.682 153.883 365.536 153.883C366.079 153.883 366.785 153.784 367.114 153.669V154.869C366.752 155 366.194 155.131 365.388 155.131C363.762 155.131 362.792 154.326 362.792 152.765V148.329H360.262V147.129H361.56C362.513 147.129 362.874 146.636 362.874 145.765V144.352H364.107V147.129H367.114ZM373.894 155.23C371.84 155.23 369.983 153.735 369.983 151.04C369.983 148.509 371.823 146.899 373.762 146.899C376.096 146.899 377.509 148.509 377.509 150.876C377.509 151.04 377.492 151.221 377.476 151.336H371.33V151.451C371.33 152.93 372.53 154.014 373.894 154.014C375.225 154.014 375.981 153.275 376.293 152.354L377.427 152.765C376.983 154.129 375.718 155.23 373.894 155.23ZM376.145 150.218C376.079 149.052 375.225 148.066 373.779 148.066C372.464 148.066 371.445 149.084 371.363 150.218H376.145ZM385.883 153.702C385.505 154.523 384.634 155.23 383.188 155.23C380.953 155.23 379.524 153.39 379.524 151.056C379.524 148.772 381.035 146.899 383.254 146.899C384.749 146.899 385.554 147.606 385.85 148.312V143.12H387.165V153.521C387.165 154.31 387.214 154.836 387.247 155H385.965C385.932 154.819 385.883 154.376 385.883 153.866V153.702ZM383.385 154.031C384.93 154.031 385.883 152.782 385.883 151.056C385.883 149.331 384.946 148.099 383.385 148.099C381.873 148.099 380.855 149.331 380.855 151.056C380.855 152.782 381.89 154.031 383.385 154.031ZM63.7071 405L71.611 393.35H72.9912L65.0874 405H63.7071ZM73.56 405L81.4638 393.35H82.8441L74.9402 405H73.56ZM98.1459 405.23C95.9933 405.23 94.153 403.603 94.153 401.056C94.153 398.476 96.0591 396.899 98.1295 396.899C100.266 396.899 101.416 398.131 101.745 399.397L100.545 399.89C100.331 399.068 99.6084 398.131 98.1295 398.131C96.8314 398.131 95.484 399.117 95.484 401.056C95.484 402.979 96.8314 403.998 98.1459 403.998C99.7234 403.998 100.364 402.93 100.594 402.223L101.745 402.716C101.367 403.883 100.216 405.23 98.1459 405.23ZM104.269 402.88C104.269 401.5 105.304 400.777 106.701 400.58L108.968 400.251C109.56 400.169 109.675 399.906 109.675 399.545C109.675 398.707 109.05 398.082 107.785 398.082C106.553 398.082 105.764 398.772 105.665 399.676L104.417 399.413C104.581 397.951 105.978 396.899 107.752 396.899C110.02 396.899 110.973 398.148 110.973 399.676V403.521C110.973 404.178 111.072 404.754 111.137 405H109.856C109.806 404.852 109.708 404.326 109.708 403.817C109.461 404.458 108.525 405.23 107.046 405.23C105.238 405.23 104.269 404.063 104.269 402.88ZM107.243 404.031C108.525 404.031 109.675 403.291 109.675 401.714V401.155L106.964 401.549C106.175 401.664 105.583 402.075 105.583 402.782C105.583 403.455 106.076 404.031 107.243 404.031ZM114.253 397.129H115.535V398.279C116.028 397.343 117.014 396.899 118.098 396.899C120.152 396.899 121.138 398.296 121.138 400.038V405H119.823V400.3C119.823 399.167 119.314 398.131 117.786 398.131C116.537 398.131 115.568 399.068 115.568 400.58V405H114.253V397.129ZM127.704 405.23C125.552 405.23 123.711 403.603 123.711 401.056C123.711 398.476 125.618 396.899 127.688 396.899C129.824 396.899 130.974 398.131 131.303 399.397L130.104 399.89C129.89 399.068 129.167 398.131 127.688 398.131C126.39 398.131 125.042 399.117 125.042 401.056C125.042 402.979 126.39 403.998 127.704 403.998C129.282 403.998 129.923 402.93 130.153 402.223L131.303 402.716C130.925 403.883 129.775 405.23 127.704 405.23ZM137.426 405.23C135.372 405.23 133.515 403.735 133.515 401.04C133.515 398.509 135.355 396.899 137.294 396.899C139.628 396.899 141.041 398.509 141.041 400.876C141.041 401.04 141.024 401.221 141.008 401.336H134.862V401.451C134.862 402.93 136.062 404.014 137.426 404.014C138.757 404.014 139.513 403.275 139.825 402.354L140.959 402.765C140.515 404.129 139.25 405.23 137.426 405.23ZM139.677 400.218C139.611 399.052 138.757 398.066 137.311 398.066C135.996 398.066 134.977 399.084 134.895 400.218H139.677ZM143.483 403.817H146.506V394.303H143.91V393.12H147.821V403.817H150.844V405H143.483V403.817ZM153.336 403.817H156.359V394.303H153.763V393.12H157.674V403.817H160.697V405H153.336V403.817ZM166.984 405.23C164.93 405.23 163.073 403.735 163.073 401.04C163.073 398.509 164.914 396.899 166.853 396.899C169.186 396.899 170.599 398.509 170.599 400.876C170.599 401.04 170.583 401.221 170.567 401.336H164.421V401.451C164.421 402.93 165.62 404.014 166.984 404.014C168.315 404.014 169.071 403.275 169.383 402.354L170.517 402.765C170.074 404.129 168.808 405.23 166.984 405.23ZM169.236 400.218C169.17 399.052 168.315 398.066 166.869 398.066C165.555 398.066 164.536 399.084 164.454 400.218H169.236ZM178.973 403.702C178.595 404.523 177.725 405.23 176.278 405.23C174.044 405.23 172.614 403.39 172.614 401.056C172.614 398.772 174.126 396.899 176.344 396.899C177.84 396.899 178.645 397.606 178.94 398.312V393.12H180.255V403.521C180.255 404.31 180.304 404.836 180.337 405H179.056C179.023 404.819 178.973 404.376 178.973 403.866V403.702ZM176.476 404.031C178.02 404.031 178.973 402.782 178.973 401.056C178.973 399.331 178.037 398.099 176.476 398.099C174.964 398.099 173.945 399.331 173.945 401.056C173.945 402.782 174.98 404.031 176.476 404.031ZM192.944 402.88C192.944 401.5 193.979 400.777 195.376 400.58L197.644 400.251C198.235 400.169 198.35 399.906 198.35 399.545C198.35 398.707 197.726 398.082 196.461 398.082C195.228 398.082 194.44 398.772 194.341 399.676L193.092 399.413C193.256 397.951 194.653 396.899 196.428 396.899C198.695 396.899 199.649 398.148 199.649 399.676V403.521C199.649 404.178 199.747 404.754 199.813 405H198.531C198.482 404.852 198.383 404.326 198.383 403.817C198.137 404.458 197.2 405.23 195.721 405.23C193.914 405.23 192.944 404.063 192.944 402.88ZM195.918 404.031C197.2 404.031 198.35 403.291 198.35 401.714V401.155L195.639 401.549C194.85 401.664 194.259 402.075 194.259 402.782C194.259 403.455 194.752 404.031 195.918 404.031ZM208.22 403.932C207.842 404.737 206.872 405.23 205.788 405.23C203.783 405.23 202.764 403.883 202.764 402.075V397.129H204.079V401.861C204.079 402.995 204.621 404.031 206.083 404.031C207.414 404.031 208.154 403.061 208.154 401.829V397.129H209.468V403.357C209.468 403.965 209.534 404.688 209.584 405H208.318C208.253 404.77 208.22 404.326 208.22 403.932ZM219.321 397.129V398.329H216.314V402.519C216.314 403.439 216.889 403.883 217.744 403.883C218.286 403.883 218.993 403.784 219.321 403.669V404.869C218.96 405 218.401 405.131 217.596 405.131C215.969 405.131 215 404.326 215 402.765V398.329H212.469V397.129H213.767C214.72 397.129 215.082 396.636 215.082 395.765V394.352H216.314V397.129H219.321ZM225.986 405.23C223.719 405.23 222.043 403.488 222.043 401.056C222.043 398.641 223.719 396.899 225.986 396.899C228.254 396.899 229.93 398.641 229.93 401.056C229.93 403.488 228.254 405.23 225.986 405.23ZM225.986 404.031C227.399 404.031 228.599 402.962 228.599 401.056C228.599 399.167 227.399 398.099 225.986 398.099C224.573 398.099 223.374 399.167 223.374 401.056C223.374 402.962 224.573 404.031 225.986 404.031ZM232.996 398.082C233.276 397.326 233.884 396.981 234.623 396.981C235.363 396.981 236.003 397.376 236.168 398.246C236.464 397.458 237.104 396.981 238.041 396.981C239.043 396.981 240.013 397.458 240.013 399.331V405H238.781V399.528C238.781 398.493 238.37 398.164 237.712 398.164C237.055 398.164 236.513 398.624 236.513 399.758V405H235.297V399.577C235.297 398.559 234.903 398.164 234.245 398.164C233.572 398.164 233.029 398.575 233.029 399.775V405H231.797V397.129H232.996V398.082ZM242.208 402.88C242.208 401.5 243.244 400.777 244.64 400.58L246.908 400.251C247.5 400.169 247.615 399.906 247.615 399.545C247.615 398.707 246.99 398.082 245.725 398.082C244.492 398.082 243.704 398.772 243.605 399.676L242.356 399.413C242.521 397.951 243.917 396.899 245.692 396.899C247.96 396.899 248.913 398.148 248.913 399.676V403.521C248.913 404.178 249.011 404.754 249.077 405H247.795C247.746 404.852 247.647 404.326 247.647 403.817C247.401 404.458 246.464 405.23 244.985 405.23C243.178 405.23 242.208 404.063 242.208 402.88ZM245.183 404.031C246.464 404.031 247.615 403.291 247.615 401.714V401.155L244.903 401.549C244.115 401.664 243.523 402.075 243.523 402.782C243.523 403.455 244.016 404.031 245.183 404.031ZM258.733 397.129V398.329H255.726V402.519C255.726 403.439 256.301 403.883 257.155 403.883C257.697 403.883 258.404 403.784 258.733 403.669V404.869C258.371 405 257.812 405.131 257.007 405.131C255.381 405.131 254.411 404.326 254.411 402.765V398.329H251.88V397.129H253.179C254.132 397.129 254.493 396.636 254.493 395.765V394.352H255.726V397.129H258.733ZM262.046 403.817H265.069V398.312H262.391V397.129H266.384V403.817H269.407V405H262.046V403.817ZM264.428 394.368C264.428 393.678 264.97 393.136 265.677 393.136C266.351 393.136 266.893 393.678 266.893 394.368C266.893 395.059 266.351 395.617 265.677 395.617C264.97 395.617 264.428 395.059 264.428 394.368ZM275.497 405.23C273.344 405.23 271.504 403.603 271.504 401.056C271.504 398.476 273.41 396.899 275.481 396.899C277.617 396.899 278.767 398.131 279.096 399.397L277.896 399.89C277.682 399.068 276.959 398.131 275.481 398.131C274.182 398.131 272.835 399.117 272.835 401.056C272.835 402.979 274.182 403.998 275.497 403.998C277.074 403.998 277.715 402.93 277.945 402.223L279.096 402.716C278.718 403.883 277.567 405.23 275.497 405.23ZM281.62 402.88C281.62 401.5 282.655 400.777 284.052 400.58L286.319 400.251C286.911 400.169 287.026 399.906 287.026 399.545C287.026 398.707 286.401 398.082 285.136 398.082C283.904 398.082 283.115 398.772 283.016 399.676L281.768 399.413C281.932 397.951 283.329 396.899 285.103 396.899C287.371 396.899 288.324 398.148 288.324 399.676V403.521C288.324 404.178 288.423 404.754 288.488 405H287.207C287.157 404.852 287.059 404.326 287.059 403.817C286.812 404.458 285.876 405.23 284.397 405.23C282.589 405.23 281.62 404.063 281.62 402.88ZM284.594 404.031C285.876 404.031 287.026 403.291 287.026 401.714V401.155L284.315 401.549C283.526 401.664 282.934 402.075 282.934 402.782C282.934 403.455 283.427 404.031 284.594 404.031ZM291.275 403.817H294.299V394.303H291.703V393.12H295.613V403.817H298.637V405H291.275V403.817ZM301.128 403.817H304.152V394.303H301.555V393.12H305.466V403.817H308.49V405H301.128V403.817ZM317.324 397.129H318.77L313.397 408.122H311.934L314.087 403.8L310.554 397.129H312.082L314.777 402.387L317.324 397.129ZM330.259 399.709H338.476V400.859H330.259V399.709ZM350.721 397.129H352.003V398.279C352.496 397.343 353.482 396.899 354.566 396.899C356.62 396.899 357.606 398.296 357.606 400.038V405H356.292V400.3C356.292 399.167 355.782 398.131 354.254 398.131C353.005 398.131 352.036 399.068 352.036 400.58V405H350.721V397.129ZM363.926 405.23C361.658 405.23 359.982 403.488 359.982 401.056C359.982 398.641 361.658 396.899 363.926 396.899C366.194 396.899 367.87 398.641 367.87 401.056C367.87 403.488 366.194 405.23 363.926 405.23ZM363.926 404.031C365.339 404.031 366.539 402.962 366.539 401.056C366.539 399.167 365.339 398.099 363.926 398.099C362.513 398.099 361.313 399.167 361.313 401.056C361.313 402.962 362.513 404.031 363.926 404.031ZM384.322 403.817H386.984V405H380.28V403.817H382.958V394.533H380.28V393.35H386.984V394.533H384.322V403.817ZM389.952 393.35H393.419C395.801 393.35 397.642 395.174 397.642 399.199C397.642 403.209 395.801 405 393.386 405H389.952V393.35ZM393.172 403.718C394.98 403.718 396.278 402.371 396.278 399.199C396.278 396.012 394.996 394.631 393.172 394.631H391.332V403.718H393.172ZM416.378 397.129V398.329H413.371V402.519C413.371 403.439 413.946 403.883 414.801 403.883C415.343 403.883 416.049 403.784 416.378 403.669V404.869C416.017 405 415.458 405.131 414.653 405.131C413.026 405.131 412.056 404.326 412.056 402.765V398.329H409.526V397.129H410.824C411.777 397.129 412.139 396.636 412.139 395.765V394.352H413.371V397.129H416.378ZM426.757 398.575C426.543 398.509 426.214 398.427 425.656 398.427C424.029 398.427 423.158 399.347 423.158 401.155V403.833H425.639V405H419.51V403.833H421.843V398.296H419.757V397.129H423.125V398.674C423.585 397.458 424.736 397.014 425.672 397.014C426.247 397.014 426.559 397.096 426.757 397.162V398.575ZM429.412 402.88C429.412 401.5 430.447 400.777 431.844 400.58L434.112 400.251C434.703 400.169 434.818 399.906 434.818 399.545C434.818 398.707 434.194 398.082 432.929 398.082C431.696 398.082 430.908 398.772 430.809 399.676L429.56 399.413C429.724 397.951 431.121 396.899 432.896 396.899C435.163 396.899 436.117 398.148 436.117 399.676V403.521C436.117 404.178 436.215 404.754 436.281 405H434.999C434.95 404.852 434.851 404.326 434.851 403.817C434.605 404.458 433.668 405.23 432.189 405.23C430.382 405.23 429.412 404.063 429.412 402.88ZM432.386 404.031C433.668 404.031 434.818 403.291 434.818 401.714V401.155L432.107 401.549C431.318 401.664 430.727 402.075 430.727 402.782C430.727 403.455 431.22 404.031 432.386 404.031ZM442.995 405.23C440.843 405.23 439.002 403.603 439.002 401.056C439.002 398.476 440.908 396.899 442.979 396.899C445.115 396.899 446.265 398.131 446.594 399.397L445.394 399.89C445.181 399.068 444.458 398.131 442.979 398.131C441.681 398.131 440.333 399.117 440.333 401.056C440.333 402.979 441.681 403.998 442.995 403.998C444.573 403.998 445.214 402.93 445.444 402.223L446.594 402.716C446.216 403.883 445.066 405.23 442.995 405.23ZM449.562 405V393.12H450.876V401.04L455.05 397.129H456.874L453.308 400.432L456.956 405H455.231L452.322 401.352L450.876 402.7V405H449.562ZM459.102 403.817H462.126V398.312H459.447V397.129H463.44V403.817H466.464V405H459.102V403.817ZM461.485 394.368C461.485 393.678 462.027 393.136 462.734 393.136C463.407 393.136 463.95 393.678 463.95 394.368C463.95 395.059 463.407 395.617 462.734 395.617C462.027 395.617 461.485 395.059 461.485 394.368ZM468.955 397.129H470.237V398.279C470.73 397.343 471.716 396.899 472.8 396.899C474.854 396.899 475.84 398.296 475.84 400.038V405H474.526V400.3C474.526 399.167 474.016 398.131 472.488 398.131C471.239 398.131 470.27 399.068 470.27 400.58V405H468.955V397.129ZM479.58 405.214C479.745 406.183 480.615 407.103 481.93 407.103C483.705 407.103 484.362 405.986 484.362 404.458V403.143C484.017 403.915 483.162 404.556 481.864 404.556C479.777 404.556 478.315 402.913 478.315 400.744C478.315 398.559 479.761 396.899 481.897 396.899C483.212 396.899 484.066 397.474 484.378 398.246V397.129H485.677V404.573C485.677 406.38 484.773 408.319 481.914 408.319C480.04 408.319 478.496 407.12 478.298 405.526L479.58 405.214ZM484.428 400.777C484.428 399.15 483.458 398.082 482.029 398.082C480.599 398.082 479.629 399.134 479.629 400.728C479.629 402.322 480.599 403.373 482.029 403.373C483.458 403.373 484.428 402.322 484.428 400.777Z" fill="white" fill-opacity="0.2"/>
<path d="M45.1517 377.88C45.1517 376.5 46.1869 375.777 47.5836 375.58L49.8513 375.251C50.4428 375.169 50.5579 374.906 50.5579 374.545C50.5579 373.707 49.9334 373.082 48.6682 373.082C47.4358 373.082 46.647 373.772 46.5484 374.676L45.2996 374.413C45.4639 372.951 46.8606 371.899 48.6353 371.899C50.9029 371.899 51.856 373.148 51.856 374.676V378.521C51.856 379.178 51.9546 379.754 52.0203 380H50.7386C50.6893 379.852 50.5907 379.326 50.5907 378.817C50.3442 379.458 49.4076 380.23 47.9287 380.23C46.1212 380.23 45.1517 379.063 45.1517 377.88ZM48.1259 379.031C49.4076 379.031 50.5579 378.291 50.5579 376.714V376.155L47.8466 376.549C47.0578 376.664 46.4663 377.075 46.4663 377.782C46.4663 378.455 46.9592 379.031 48.1259 379.031ZM58.751 380.23C56.5327 380.23 55.4153 378.8 55.2017 377.913L56.4013 377.42C56.6313 378.242 57.4693 379.047 58.7839 379.047C59.8356 379.047 60.4435 378.554 60.4435 377.913C60.4435 377.338 60.0656 376.993 59.1947 376.812L57.6665 376.5C56.1876 376.204 55.5304 375.35 55.5304 374.331C55.5304 373 56.7628 371.899 58.5046 371.899C60.2628 371.899 61.3966 372.803 61.7581 374.052L60.6407 374.495C60.3778 373.739 59.7041 373.049 58.5046 373.049C57.5022 373.049 56.8285 373.526 56.8285 374.232C56.8285 374.742 57.1407 375.136 57.9294 375.284L59.4248 375.58C60.9858 375.892 61.7581 376.664 61.7581 377.847C61.7581 378.948 60.8379 380.23 58.751 380.23ZM71.003 372.129H72.449L67.0757 383.122H65.6132L67.7658 378.8L64.2329 372.129H65.7611L68.456 377.387L71.003 372.129ZM74.8417 372.129H76.1234V373.279C76.6163 372.343 77.6022 371.899 78.6868 371.899C80.7408 371.899 81.7267 373.296 81.7267 375.038V380H80.4121V375.3C80.4121 374.167 79.9027 373.131 78.3746 373.131C77.1257 373.131 76.1562 374.068 76.1562 375.58V380H74.8417V372.129ZM88.2931 380.23C86.1405 380.23 84.3001 378.603 84.3001 376.056C84.3001 373.476 86.2062 371.899 88.2767 371.899C90.4129 371.899 91.5631 373.131 91.8917 374.397L90.6922 374.89C90.4786 374.068 89.7556 373.131 88.2767 373.131C86.9785 373.131 85.6311 374.117 85.6311 376.056C85.6311 377.979 86.9785 378.998 88.2931 378.998C89.8706 378.998 90.5114 377.93 90.7415 377.223L91.8917 377.716C91.5138 378.883 90.3636 380.23 88.2931 380.23Z" fill="#B392F0"/>
<path d="M137.426 380.23C135.372 380.23 133.515 378.735 133.515 376.04C133.515 373.509 135.355 371.899 137.294 371.899C139.628 371.899 141.041 373.509 141.041 375.876C141.041 376.04 141.024 376.221 141.008 376.336H134.862V376.451C134.862 377.93 136.062 379.014 137.426 379.014C138.757 379.014 139.513 378.275 139.825 377.354L140.959 377.765C140.515 379.129 139.25 380.23 137.426 380.23ZM139.677 375.218C139.611 374.052 138.757 373.066 137.311 373.066C135.996 373.066 134.977 374.084 134.895 375.218H139.677ZM146.408 380L143.023 372.129H144.502L147.18 378.702L149.875 372.129H151.305L147.936 380H146.408ZM157.132 380.23C155.077 380.23 153.221 378.735 153.221 376.04C153.221 373.509 155.061 371.899 157 371.899C159.333 371.899 160.747 373.509 160.747 375.876C160.747 376.04 160.73 376.221 160.714 376.336H154.568V376.451C154.568 377.93 155.768 379.014 157.132 379.014C158.463 379.014 159.218 378.275 159.531 377.354L160.664 377.765C160.221 379.129 158.955 380.23 157.132 380.23ZM159.383 375.218C159.317 374.052 158.463 373.066 157.016 373.066C155.702 373.066 154.683 374.084 154.601 375.218H159.383ZM163.517 372.129H164.799V373.279C165.292 372.343 166.278 371.899 167.362 371.899C169.416 371.899 170.402 373.296 170.402 375.038V380H169.088V375.3C169.088 374.167 168.578 373.131 167.05 373.131C165.801 373.131 164.832 374.068 164.832 375.58V380H163.517V372.129ZM179.91 372.129V373.329H176.903V377.519C176.903 378.439 177.478 378.883 178.332 378.883C178.875 378.883 179.581 378.784 179.91 378.669V379.869C179.548 380 178.99 380.131 178.185 380.131C176.558 380.131 175.588 379.326 175.588 377.765V373.329H173.058V372.129H174.356C175.309 372.129 175.67 371.636 175.67 370.765V369.352H176.903V372.129H179.91ZM206.544 380.23C204.325 380.23 203.208 378.8 202.994 377.913L204.194 377.42C204.424 378.242 205.262 379.047 206.576 379.047C207.628 379.047 208.236 378.554 208.236 377.913C208.236 377.338 207.858 376.993 206.987 376.812L205.459 376.5C203.98 376.204 203.323 375.35 203.323 374.331C203.323 373 204.555 371.899 206.297 371.899C208.055 371.899 209.189 372.803 209.551 374.052L208.433 374.495C208.17 373.739 207.497 373.049 206.297 373.049C205.295 373.049 204.621 373.526 204.621 374.232C204.621 374.742 204.933 375.136 205.722 375.284L207.217 375.58C208.778 375.892 209.551 376.664 209.551 377.847C209.551 378.948 208.63 380.23 206.544 380.23ZM219.321 372.129V373.329H216.314V377.519C216.314 378.439 216.889 378.883 217.744 378.883C218.286 378.883 218.993 378.784 219.321 378.669V379.869C218.96 380 218.401 380.131 217.596 380.131C215.969 380.131 215 379.326 215 377.765V373.329H212.469V372.129H213.767C214.72 372.129 215.082 371.636 215.082 370.765V369.352H216.314V372.129H219.321ZM226.101 380.23C224.047 380.23 222.191 378.735 222.191 376.04C222.191 373.509 224.031 371.899 225.97 371.899C228.303 371.899 229.716 373.509 229.716 375.876C229.716 376.04 229.7 376.221 229.684 376.336H223.538V376.451C223.538 377.93 224.737 379.014 226.101 379.014C227.432 379.014 228.188 378.275 228.5 377.354L229.634 377.765C229.191 379.129 227.925 380.23 226.101 380.23ZM228.353 375.218C228.287 374.052 227.432 373.066 225.986 373.066C224.672 373.066 223.653 374.084 223.571 375.218H228.353ZM232.29 372.129H233.572V373.444C233.933 372.638 234.82 371.899 236.299 371.899C238.649 371.899 239.947 373.739 239.947 376.056C239.947 378.406 238.534 380.23 236.234 380.23C234.837 380.23 233.966 379.606 233.604 378.899V383.122H232.29V372.129ZM236.069 379.047C237.597 379.047 238.616 377.798 238.616 376.056C238.616 374.314 237.597 373.082 236.069 373.082C234.557 373.082 233.572 374.314 233.572 376.056C233.572 377.798 234.574 379.047 236.069 379.047Z" fill="#DCDCAA"/>
<path d="M28.5291 28H27.3788V22.1481H24.8771V21.1129H27.3788V19.977C27.3788 18.3954 28.4716 17.5903 29.9813 17.5903C30.542 17.5903 31.0884 17.6765 31.491 17.8203V18.8555C31.0309 18.7118 30.5564 18.6542 30.0244 18.6542C29.1761 18.6542 28.5291 19.0281 28.5291 20.1064V21.1129H31.491V22.1481H28.5291V28ZM38.6313 27.0654C38.3006 27.77 37.4523 28.2013 36.5033 28.2013C34.7492 28.2013 33.8577 27.0223 33.8577 25.4407V21.1129H35.008V25.2538C35.008 26.2459 35.4825 27.1517 36.7621 27.1517C37.9267 27.1517 38.5738 26.3034 38.5738 25.225V21.1129H39.724V26.5622C39.724 27.0942 39.7815 27.7268 39.8246 28H38.7175C38.66 27.7987 38.6313 27.4105 38.6313 27.0654ZM42.6228 21.1129H43.7442V22.1194C44.1756 21.2998 45.0383 20.9116 45.9872 20.9116C47.7845 20.9116 48.6472 22.1337 48.6472 23.6578V28H47.4969V23.8879C47.4969 22.8958 47.0512 21.99 45.714 21.99C44.6213 21.99 43.773 22.8095 43.773 24.1323V28H42.6228V21.1129ZM54.3928 28.2013C52.5093 28.2013 50.8989 26.7779 50.8989 24.5493C50.8989 22.2919 52.5668 20.9116 54.3784 20.9116C56.2476 20.9116 57.254 21.99 57.5416 23.0971L56.492 23.5284C56.3051 22.8095 55.6724 21.99 54.3784 21.99C53.2425 21.99 52.0635 22.8526 52.0635 24.5493C52.0635 26.2315 53.2425 27.1229 54.3928 27.1229C55.7731 27.1229 56.3338 26.1884 56.5351 25.5701L57.5416 26.0014C57.2109 27.0223 56.2044 28.2013 54.3928 28.2013ZM65.5877 21.1129V22.1625H62.9565V25.8289C62.9565 26.6341 63.4597 27.0223 64.2074 27.0223C64.6819 27.0223 65.3001 26.936 65.5877 26.8354V27.885C65.2714 28 64.7825 28.115 64.078 28.115C62.6546 28.115 61.8063 27.4105 61.8063 26.0446V22.1625H59.592V21.1129H60.7279C61.5618 21.1129 61.8781 20.6816 61.8781 19.9195V18.683H62.9565V21.1129H65.5877ZM68.4864 26.9648H71.132V22.1481H68.7884V21.1129H72.2823V26.9648H74.9278V28H68.4864V26.9648ZM70.5713 18.6974C70.5713 18.0935 71.0457 17.619 71.664 17.619C72.2535 17.619 72.728 18.0935 72.728 18.6974C72.728 19.3013 72.2535 19.7901 71.664 19.7901C71.0457 19.7901 70.5713 19.3013 70.5713 18.6974ZM80.0408 28.2013C78.0566 28.2013 76.5901 26.6772 76.5901 24.5493C76.5901 22.4357 78.0566 20.9116 80.0408 20.9116C82.025 20.9116 83.4915 22.4357 83.4915 24.5493C83.4915 26.6772 82.025 28.2013 80.0408 28.2013ZM80.0408 27.1517C81.2773 27.1517 82.3269 26.2171 82.3269 24.5493C82.3269 22.8958 81.2773 21.9612 80.0408 21.9612C78.8043 21.9612 77.7547 22.8958 77.7547 24.5493C77.7547 26.2171 78.8043 27.1517 80.0408 27.1517ZM85.7289 21.1129H86.8504V22.1194C87.2817 21.2998 88.1444 20.9116 89.0934 20.9116C90.8906 20.9116 91.7533 22.1337 91.7533 23.6578V28H90.6031V23.8879C90.6031 22.8958 90.1574 21.99 88.8202 21.99C87.7275 21.99 86.8792 22.8095 86.8792 24.1323V28H85.7289V21.1129ZM97.5133 28.2013C95.5723 28.2013 94.5946 26.9504 94.4076 26.174L95.4572 25.7426C95.6585 26.4615 96.3918 27.1661 97.5421 27.1661C98.4623 27.1661 98.9943 26.7347 98.9943 26.174C98.9943 25.6708 98.6636 25.3688 97.9015 25.2107L96.5644 24.9375C95.2703 24.6787 94.6952 23.931 94.6952 23.0396C94.6952 21.8749 95.7736 20.9116 97.2976 20.9116C98.8361 20.9116 99.8282 21.7024 100.145 22.7951L99.1668 23.1833C98.9367 22.522 98.3472 21.9181 97.2976 21.9181C96.4206 21.9181 95.8311 22.335 95.8311 22.9533C95.8311 23.399 96.1043 23.7441 96.7944 23.8735L98.1028 24.1323C99.4687 24.4055 100.145 25.0813 100.145 26.1165C100.145 27.0798 99.3393 28.2013 97.5133 28.2013ZM101.85 28L108.766 17.8059H109.973L103.058 28H101.85ZM114.756 28.2013C112.815 28.2013 111.837 26.9504 111.65 26.174L112.7 25.7426C112.901 26.4615 113.634 27.1661 114.785 27.1661C115.705 27.1661 116.237 26.7347 116.237 26.174C116.237 25.6708 115.906 25.3688 115.144 25.2107L113.807 24.9375C112.513 24.6787 111.938 23.931 111.938 23.0396C111.938 21.8749 113.016 20.9116 114.54 20.9116C116.079 20.9116 117.071 21.7024 117.387 22.7951L116.409 23.1833C116.179 22.522 115.59 21.9181 114.54 21.9181C113.663 21.9181 113.074 22.335 113.074 22.9533C113.074 23.399 113.347 23.7441 114.037 23.8735L115.345 24.1323C116.711 24.4055 117.387 25.0813 117.387 26.1165C117.387 27.0798 116.582 28.2013 114.756 28.2013ZM123.248 28.2013C121.45 28.2013 119.826 26.8929 119.826 24.5349C119.826 22.3207 121.436 20.9116 123.133 20.9116C125.174 20.9116 126.411 22.3207 126.411 24.3911C126.411 24.5349 126.396 24.693 126.382 24.7937H121.005V24.8943C121.005 26.1884 122.054 27.1373 123.248 27.1373C124.412 27.1373 125.074 26.4903 125.347 25.6851L126.339 26.0446C125.951 27.238 124.844 28.2013 123.248 28.2013ZM125.217 23.816C125.16 22.7951 124.412 21.9325 123.147 21.9325C121.997 21.9325 121.105 22.8239 121.033 23.816H125.217ZM128.72 26.1452C128.72 24.9375 129.626 24.3048 130.848 24.1323L132.832 23.8447C133.35 23.7728 133.45 23.5428 133.45 23.2265C133.45 22.4932 132.904 21.9468 131.797 21.9468C130.719 21.9468 130.028 22.5507 129.942 23.3415L128.849 23.1115C128.993 21.8318 130.215 20.9116 131.768 20.9116C133.752 20.9116 134.586 22.0043 134.586 23.3415V26.706C134.586 27.2811 134.673 27.7843 134.73 28H133.609C133.565 27.8706 133.479 27.4105 133.479 26.9648C133.264 27.5255 132.444 28.2013 131.15 28.2013C129.568 28.2013 128.72 27.1804 128.72 26.1452ZM131.322 27.1517C132.444 27.1517 133.45 26.5047 133.45 25.1244V24.6355L131.078 24.9806C130.388 25.0813 129.87 25.4407 129.87 26.059C129.87 26.6485 130.302 27.1517 131.322 27.1517ZM143.639 22.3782C143.452 22.3207 143.164 22.2488 142.676 22.2488C141.252 22.2488 140.49 23.0539 140.49 24.6355V26.9792H142.661V28H137.298V26.9792H139.34V22.1337H137.514V21.1129H140.461V22.4644C140.864 21.4005 141.87 21.0123 142.69 21.0123C143.193 21.0123 143.466 21.0841 143.639 21.1417V22.3782ZM149.226 28.2013C147.343 28.2013 145.732 26.7779 145.732 24.5493C145.732 22.2919 147.4 20.9116 149.212 20.9116C151.081 20.9116 152.088 21.99 152.375 23.0971L151.326 23.5284C151.139 22.8095 150.506 21.99 149.212 21.99C148.076 21.99 146.897 22.8526 146.897 24.5493C146.897 26.2315 148.076 27.1229 149.226 27.1229C150.607 27.1229 151.167 26.1884 151.369 25.5701L152.375 26.0014C152.044 27.0223 151.038 28.2013 149.226 28.2013ZM154.699 17.6046H155.849V22.0762C156.295 21.2711 157.157 20.9116 158.121 20.9116C159.875 20.9116 160.723 22.1913 160.723 23.7297V28H159.573V23.931C159.573 22.9102 159.142 21.99 157.804 21.99C156.697 21.99 155.849 22.8095 155.849 24.1611V28H154.699V17.6046ZM165.06 26.9073C165.06 26.2315 165.592 25.7139 166.239 25.7139C166.9 25.7139 167.432 26.2315 167.432 26.9073C167.432 27.583 166.9 28.0863 166.239 28.0863C165.592 28.0863 165.06 27.583 165.06 26.9073ZM177.664 21.1129V22.1625H175.032V25.8289C175.032 26.6341 175.536 27.0223 176.283 27.0223C176.758 27.0223 177.376 26.936 177.664 26.8354V27.885C177.347 28 176.859 28.115 176.154 28.115C174.731 28.115 173.882 27.4105 173.882 26.0446V22.1625H171.668V21.1129H172.804C173.638 21.1129 173.954 20.6816 173.954 19.9195V18.683H175.032V21.1129H177.664ZM183.726 28.2013C181.785 28.2013 180.807 26.9504 180.62 26.174L181.67 25.7426C181.871 26.4615 182.604 27.1661 183.754 27.1661C184.675 27.1661 185.207 26.7347 185.207 26.174C185.207 25.6708 184.876 25.3688 184.114 25.2107L182.777 24.9375C181.483 24.6787 180.908 23.931 180.908 23.0396C180.908 21.8749 181.986 20.9116 183.51 20.9116C185.048 20.9116 186.04 21.7024 186.357 22.7951L185.379 23.1833C185.149 22.522 184.56 21.9181 183.51 21.9181C182.633 21.9181 182.043 22.335 182.043 22.9533C182.043 23.399 182.317 23.7441 183.007 23.8735L184.315 24.1323C185.681 24.4055 186.357 25.0813 186.357 26.1165C186.357 27.0798 185.552 28.2013 183.726 28.2013Z" fill="#FEFEFE"/>
<rect x="0.5" y="0.5" width="576.5" height="491" stroke="white"/>
<path d="M0 47L577.5 47.0001" stroke="white"/>
</svg>
