<svg xmlns="http://www.w3.org/2000/svg" width="723" height="219" fill="none" viewBox="0 0 723 219"><path stroke="#0bdd48" stroke-dasharray="2 2" d="M147 183.5h40"/><path stroke="#fefefe" stroke-dasharray="2 2" d="M334 183.5h65m147 0h30"/><path stroke="#0bdd48" stroke-dasharray="2 2" d="M260.5 148v-35"/><rect width="307" height="112" x="200.5" y=".5" stroke="#0bdd48" rx="5.5"/><path fill="#0bdd48" d="M221.265 19.806h3.825c1.883 0 3.062 1.294 3.062 2.99 0 1.712-1.179 2.977-3.062 2.977h-2.631V30h-1.194zm3.595 4.889c1.308 0 2.085-.762 2.085-1.884 0-1.165-.777-1.927-2.085-1.927h-2.401v3.81zm6.292 1.035V30h-1.194V19.806h3.71c1.84 0 2.991 1.323 2.991 2.976 0 1.481-.964 2.603-2.402 2.847L236.615 30h-1.365l-2.287-4.27zm2.329-1.093c1.193 0 1.97-.733 1.97-1.855 0-1.136-.777-1.883-1.97-1.883h-2.329v3.738zm8.075 5.564c-2.171 0-3.724-1.754-3.724-5.305 0-3.552 1.553-5.291 3.724-5.291s3.724 1.74 3.724 5.29c0 3.552-1.553 5.306-3.724 5.306m0-1.15c1.524 0 2.516-1.308 2.516-4.155s-.992-4.141-2.516-4.141-2.516 1.294-2.516 4.14c0 2.848.992 4.156 2.516 4.156m12.115-9.245V30h-1.107v-8.929l-1.841 8.871h-1.135l-1.798-8.785V30h-1.107V19.806h1.855l1.639 8.052 1.682-8.052zm2.079 0h3.825c1.883 0 3.062 1.294 3.062 2.99 0 1.712-1.179 2.977-3.062 2.977h-2.631V30h-1.194zm3.595 4.889c1.308 0 2.085-.762 2.085-1.884 0-1.165-.777-1.927-2.085-1.927h-2.401v3.81zM268.009 30h-1.193v-9.073h-3.307v-1.121h7.807v1.121h-3.307zm16.941-10.395c2.53 0 3.263 2.113 3.364 3.148l-1.179.216c-.187-1.107-.733-2.229-2.229-2.229-1.509 0-2.588 1.338-2.588 4.156s1.079 4.17 2.56 4.17c1.538 0 2.056-1.251 2.2-2.301l1.15.187c-.086 1.035-.849 3.25-3.336 3.25-2.2 0-3.781-1.812-3.781-5.306 0-3.48 1.639-5.291 3.839-5.291M296.087 30l-.92-2.948h-3.796L290.465 30H289.2l3.221-10.194h1.711L297.367 30zm-2.818-9.13-1.539 5.018h3.077zm5.587-1.064h3.825c1.883 0 3.062 1.294 3.062 2.99 0 1.712-1.179 2.977-3.062 2.977h-2.631V30h-1.194zm3.595 4.889c1.308 0 2.085-.762 2.085-1.884 0-1.165-.777-1.927-2.085-1.927h-2.401v3.81zM311.115 30h-1.193v-9.073h-3.307v-1.121h7.807v1.121h-3.307zm8.032.201c-1.984 0-3.365-1.05-3.365-3.134v-7.261h1.194v7.146c0 1.351.848 2.113 2.171 2.113s2.171-.762 2.171-2.113v-7.146h1.193v7.26c0 2.086-1.38 3.135-3.364 3.135m6.838-4.471V30h-1.193V19.806h3.709c1.841 0 2.991 1.323 2.991 2.976 0 1.481-.963 2.603-2.401 2.847L331.449 30h-1.366l-2.286-4.27zm2.33-1.093c1.193 0 1.969-.733 1.969-1.855 0-1.136-.776-1.883-1.969-1.883h-2.33v3.738zm5.343-4.831h5.952v1.121h-4.759v3.422h4.443v1.122h-4.443v3.407h4.759V30h-5.952zm8.261 0h3.034c2.085 0 3.695 1.596 3.695 5.118 0 3.509-1.61 5.076-3.724 5.076h-3.005zm2.818 9.072c1.582 0 2.718-1.178 2.718-3.954 0-2.789-1.122-3.997-2.718-3.997h-1.61v7.951z"/><path fill="#fff" d="M224.932 40.338c-.849.158-1.496.877-1.524 1.596a.8.8 0 0 1 .359-.072c.503 0 .906.345.906.935 0 .517-.417.949-1.007.949s-1.107-.46-1.107-1.338c0-1.74 1.409-2.674 2.373-2.818zm2.588 0c-.849.158-1.496.877-1.524 1.596a.8.8 0 0 1 .359-.072c.503 0 .906.345.906.935 0 .517-.417.949-1.007.949s-1.107-.46-1.107-1.338c0-1.74 1.409-2.674 2.373-2.818zm5.645 9.863c-1.941 0-2.919-1.25-3.106-2.027l1.05-.431c.201.718.934 1.423 2.084 1.423.921 0 1.453-.431 1.453-.992 0-.503-.331-.805-1.093-.963l-1.337-.273c-1.294-.26-1.869-1.007-1.869-1.898 0-1.165 1.078-2.128 2.602-2.128 1.538 0 2.531.79 2.847 1.883l-.978.388c-.23-.661-.819-1.265-1.869-1.265-.877 0-1.467.417-1.467 1.035 0 .446.274.791.964.92l1.308.26c1.366.273 2.042.948 2.042 1.983 0 .964-.805 2.085-2.631 2.085m10.087-1.136c-.33.705-1.179 1.136-2.127 1.136-1.755 0-2.646-1.179-2.646-2.76v-4.328h1.15v4.14c0 .993.475 1.899 1.754 1.899 1.165 0 1.812-.849 1.812-1.927v-4.112h1.15v5.45c0 .531.058 1.164.101 1.437h-1.107c-.058-.201-.087-.59-.087-.935m4.438-5.118c.244-.662.776-.964 1.423-.964s1.208.346 1.352 1.108c.258-.69.819-1.108 1.639-1.108.877 0 1.725.418 1.725 2.057V50h-1.078v-4.788c0-.906-.36-1.193-.935-1.193s-1.049.402-1.049 1.394V50h-1.064v-4.745c0-.891-.345-1.236-.921-1.236-.589 0-1.064.36-1.064 1.409V50h-1.078v-6.887h1.05zm8.621 0c.244-.662.776-.964 1.423-.964s1.208.346 1.352 1.108c.259-.69.819-1.108 1.639-1.108.877 0 1.725.418 1.725 2.057V50h-1.078v-4.788c0-.906-.359-1.193-.935-1.193-.575 0-1.049.402-1.049 1.394V50h-1.064v-4.745c0-.891-.345-1.236-.92-1.236-.59 0-1.064.36-1.064 1.409V50h-1.079v-6.887h1.05zm8.06 4.198c0-1.208.906-1.84 2.128-2.013l1.985-.287c.517-.072.618-.302.618-.618 0-.734-.547-1.28-1.654-1.28-1.078 0-1.768.604-1.854 1.395l-1.093-.23c.144-1.28 1.366-2.2 2.919-2.2 1.984 0 2.818 1.092 2.818 2.43v3.364c0 .575.086 1.078.143 1.294h-1.121a4.2 4.2 0 0 1-.129-1.035c-.216.56-1.036 1.236-2.33 1.236-1.581 0-2.43-1.02-2.43-2.056m2.603 1.007c1.121 0 2.128-.647 2.128-2.028v-.489l-2.373.346c-.69.1-1.207.46-1.207 1.078 0 .59.431 1.093 1.452 1.093m12.316-4.774a3.1 3.1 0 0 0-.963-.13c-1.424 0-2.186.806-2.186 2.388v2.343h2.172V50h-5.363v-1.02h2.041v-4.846h-1.826v-1.021h2.948v1.351c.402-1.063 1.409-1.452 2.228-1.452.504 0 .777.072.949.13zm2.439 4.587h2.645v-4.817h-2.343v-1.035h3.494v5.852h2.645V50h-6.441zm2.085-8.268a1.07 1.07 0 0 1 1.092-1.078c.59 0 1.064.474 1.064 1.078s-.474 1.093-1.064 1.093a1.083 1.083 0 0 1-1.092-1.093m6.493 8.296 4.428-4.83h-4.385v-1.05h5.881v1.006l-4.429 4.831h4.501V50h-5.996zm11.698 1.208c-1.797 0-3.422-1.308-3.422-3.666 0-2.214 1.611-3.623 3.307-3.623 2.042 0 3.278 1.409 3.278 3.48 0 .143-.014.301-.028.402h-5.378v.1a2.237 2.237 0 0 0 2.243 2.243c1.165 0 1.826-.647 2.099-1.452l.992.36c-.388 1.193-1.495 2.156-3.091 2.156m1.97-4.385c-.058-1.02-.805-1.884-2.071-1.884-1.15 0-2.041.892-2.113 1.884zm17.961-2.703v1.05h-2.631v3.666c0 .805.503 1.193 1.251 1.193.474 0 1.093-.086 1.38-.187v1.05c-.316.115-.805.23-1.509.23-1.424 0-2.272-.705-2.272-2.07v-3.883h-2.214v-1.05h1.136c.833 0 1.15-.43 1.15-1.193v-1.236h1.078v2.43zm2.899-3.508h1.15v4.471c.446-.805 1.309-1.164 2.272-1.164 1.754 0 2.602 1.28 2.602 2.818V50h-1.15v-4.069c0-1.02-.431-1.941-1.768-1.941-1.107 0-1.956.82-1.956 2.171V50h-1.15zM336.49 50.2c-1.797 0-3.422-1.308-3.422-3.666 0-2.214 1.61-3.623 3.307-3.623 2.042 0 3.278 1.409 3.278 3.48 0 .143-.014.301-.029.402h-5.377v.1a2.237 2.237 0 0 0 2.243 2.243c1.165 0 1.826-.647 2.099-1.452l.992.36c-.388 1.193-1.495 2.156-3.091 2.156m1.97-4.385c-.058-1.02-.805-1.884-2.071-1.884-1.15 0-2.041.892-2.113 1.884zM353.848 50h-1.151v-5.852h-2.501v-1.035h2.501v-1.136c0-1.582 1.093-2.387 2.603-2.387.56 0 1.107.086 1.509.23v1.035a4.8 4.8 0 0 0-1.466-.2c-.848 0-1.495.373-1.495 1.451v1.007h2.961v1.035h-2.961zm8.405.201c-1.984 0-3.451-1.524-3.451-3.652 0-2.113 1.467-3.637 3.451-3.637s3.451 1.524 3.451 3.637c0 2.128-1.467 3.652-3.451 3.652m0-1.05c1.237 0 2.286-.934 2.286-2.602 0-1.653-1.049-2.588-2.286-2.588-1.236 0-2.286.935-2.286 2.588 0 1.668 1.05 2.603 2.286 2.603m5.401-.186h2.645V40.64h-2.272v-1.035h3.422v9.36h2.646V50h-6.441zm8.621 0h2.645V40.64h-2.271v-1.035h3.422v9.36h2.645V50h-6.441zm11.842 1.236c-1.984 0-3.451-1.524-3.451-3.652 0-2.113 1.467-3.637 3.451-3.637s3.451 1.524 3.451 3.637c0 2.128-1.467 3.652-3.451 3.652m0-1.05c1.236 0 2.286-.934 2.286-2.602 0-1.653-1.05-2.588-2.286-2.588-1.237 0-2.286.935-2.286 2.588 0 1.668 1.049 2.603 2.286 2.603m8.003-5.966h1.294l1.323 5.45.934-5.522h1.093L399.499 50h-1.381l-1.38-5.593L395.415 50h-1.366l-1.337-6.887h1.122l.977 5.521zm6.306 5.78h2.646V44.15h-2.344v-1.035h3.494v5.852h2.646V50h-6.442zm2.085-8.268a1.07 1.07 0 0 1 1.093-1.078c.589 0 1.064.474 1.064 1.078s-.475 1.093-1.064 1.093a1.083 1.083 0 0 1-1.093-1.093m6.536 2.416h1.122v1.006c.431-.82 1.294-1.207 2.243-1.207 1.797 0 2.66 1.222 2.66 2.746V50h-1.15v-4.112c0-.992-.446-1.898-1.783-1.898-1.093 0-1.941.82-1.941 2.142V50h-1.151zm9.297 7.074c.144.848.906 1.653 2.056 1.653 1.553 0 2.128-.977 2.128-2.315v-1.15c-.302.676-1.049 1.237-2.185 1.237-1.826 0-3.106-1.438-3.106-3.336 0-1.912 1.266-3.364 3.135-3.364 1.15 0 1.898.503 2.171 1.179v-.978h1.136v6.513c0 1.582-.791 3.278-3.293 3.278-1.639 0-2.991-1.05-3.163-2.444zm4.242-3.882c0-1.424-.848-2.358-2.099-2.358s-2.1.92-2.1 2.315c0 1.394.849 2.315 2.1 2.315s2.099-.92 2.099-2.272m6.91-3.22c.848-.159 1.495-.878 1.524-1.597a.8.8 0 0 1-.359.072c-.503 0-.906-.345-.906-.934 0-.518.417-.95 1.006-.95.59 0 1.108.46 1.108 1.338 0 1.74-1.41 2.674-2.373 2.818zm-2.588 0c.848-.159 1.495-.878 1.524-1.597a.8.8 0 0 1-.359.072c-.504 0-.906-.345-.906-.934 0-.518.417-.95 1.006-.95.59 0 1.107.46 1.107 1.338 0 1.74-1.409 2.674-2.372 2.818zM227.103 63.113v1.05h-2.631v3.666c0 .805.503 1.193 1.25 1.193.475 0 1.093-.086 1.381-.187v1.05c-.317.115-.805.23-1.51.23-1.423 0-2.272-.704-2.272-2.07v-3.883h-2.214v-1.05h1.136c.834 0 1.15-.43 1.15-1.193v-1.236h1.079v2.43zm5.832 7.088c-1.985 0-3.451-1.524-3.451-3.652 0-2.113 1.466-3.637 3.451-3.637 1.984 0 3.45 1.524 3.45 3.637 0 2.128-1.466 3.652-3.45 3.652m0-1.05c1.236 0 2.286-.934 2.286-2.602 0-1.653-1.05-2.588-2.286-2.588-1.237 0-2.286.935-2.286 2.588 0 1.668 1.049 2.603 2.286 2.603m5.961.849V59.605h1.15v6.93l3.652-3.422h1.596l-3.12 2.89L245.366 70h-1.51l-2.545-3.192-1.265 1.18V70zm11.382.201c-1.798 0-3.422-1.308-3.422-3.666 0-2.214 1.61-3.623 3.307-3.623 2.041 0 3.278 1.409 3.278 3.48 0 .143-.014.301-.029.402h-5.377v.1a2.236 2.236 0 0 0 2.243 2.243c1.164 0 1.826-.647 2.099-1.452l.992.36c-.388 1.193-1.495 2.156-3.091 2.156m1.97-4.385c-.058-1.02-.806-1.884-2.071-1.884-1.15 0-2.042.892-2.113 1.884zm3.617-2.703h1.122v1.006c.431-.82 1.294-1.207 2.243-1.207 1.797 0 2.66 1.222 2.66 2.746V70h-1.151v-4.112c0-.992-.445-1.898-1.782-1.898-1.093 0-1.942.82-1.942 2.142V70h-1.15zM267.65 70.2c-1.941 0-2.919-1.25-3.106-2.027l1.05-.431c.201.719.934 1.423 2.084 1.423.921 0 1.453-.431 1.453-.992 0-.503-.331-.805-1.093-.963l-1.337-.273c-1.294-.26-1.869-1.007-1.869-1.898 0-1.165 1.078-2.128 2.602-2.128 1.538 0 2.53.79 2.847 1.883l-.978.388c-.23-.661-.819-1.265-1.869-1.265-.877 0-1.467.417-1.467 1.035 0 .446.274.791.964.92l1.308.26c1.366.273 2.042.948 2.042 1.984 0 .963-.805 2.084-2.631 2.084m7.097-1.294c0-.675.532-1.193 1.179-1.193.661 0 1.193.517 1.193 1.193s-.532 1.18-1.193 1.18a1.166 1.166 0 0 1-1.179-1.18m0-4.83c0-.676.532-1.194 1.179-1.194.661 0 1.193.517 1.193 1.193s-.532 1.18-1.193 1.18a1.166 1.166 0 0 1-1.179-1.18M293.37 70.2c-2.1 0-3.322-1.179-3.322-2.645 0-1.15.791-1.999 1.826-2.33-.891-.302-1.596-1.15-1.596-2.2 0-1.48 1.309-2.544 3.092-2.544 1.782 0 3.091 1.064 3.091 2.545 0 1.035-.705 1.897-1.611 2.2 1.036.316 1.841 1.178 1.841 2.329 0 1.466-1.222 2.645-3.321 2.645m0-1.035c1.337 0 2.113-.762 2.113-1.71 0-.95-.776-1.726-2.113-1.726-1.352 0-2.114.776-2.114 1.725s.762 1.711 2.114 1.711m0-4.443c1.092 0 1.897-.661 1.897-1.624 0-.92-.747-1.61-1.897-1.61-1.165 0-1.898.69-1.898 1.61 0 .963.79 1.624 1.898 1.624m11.511-2.746c-.331-.216-.949-.431-1.783-.431-2.142 0-3.35 1.682-3.436 3.781.345-.762 1.294-1.466 2.616-1.466 1.798 0 3.149 1.193 3.149 3.177 0 1.941-1.567 3.163-3.364 3.163-1.884 0-3.609-1.351-3.609-4.356 0-3.48 2.113-5.363 4.716-5.363.92 0 1.639.215 2.085.517zm-5.004 5.061c0 1.294 1.05 2.1 2.171 2.1 1.179 0 2.171-.791 2.171-2.1 0-1.323-1.006-2.142-2.171-2.142s-2.171.82-2.171 2.142m13.869-5.205c-1.222 1.079-3.594 3.465-4.054 8.167h-1.237c.446-5.119 3.408-7.735 3.94-8.224h-5.392v-1.093h6.743zm15.992 7.031c-.331.719-1.093 1.337-2.358 1.337-1.955 0-3.206-1.61-3.206-3.652 0-1.998 1.322-3.637 3.263-3.637 1.309 0 2.013.618 2.272 1.236v-4.543h1.15v9.101c0 .69.044 1.15.072 1.294h-1.121a6 6 0 0 1-.072-.992zm-2.185.288c1.351 0 2.185-1.093 2.185-2.603s-.82-2.588-2.185-2.588c-1.323 0-2.215 1.079-2.215 2.588s.906 2.603 2.215 2.603m10.533-.087c-.331.705-1.179 1.136-2.128 1.136-1.754 0-2.645-1.179-2.645-2.76v-4.328h1.15v4.14c0 .993.474 1.899 1.754 1.899 1.164 0 1.812-.849 1.812-1.927v-4.112h1.15v5.45c0 .531.057 1.164.1 1.437h-1.107c-.057-.201-.086-.59-.086-.935m10.174-4.687a3.1 3.1 0 0 0-.963-.13c-1.424 0-2.186.806-2.186 2.387v2.344h2.171V70h-5.363v-1.02h2.042v-4.846h-1.826v-1.021h2.948v1.351c.402-1.063 1.409-1.452 2.228-1.452.503 0 .777.072.949.13zm2.324 3.767c0-1.207.906-1.84 2.128-2.013l1.984-.287c.517-.072.618-.302.618-.618 0-.734-.546-1.28-1.653-1.28-1.079 0-1.769.604-1.855 1.394l-1.093-.23c.144-1.28 1.366-2.2 2.919-2.2 1.984 0 2.818 1.093 2.818 2.43v3.365c0 .575.086 1.078.144 1.294h-1.122a4.2 4.2 0 0 1-.129-1.035c-.216.56-1.035 1.236-2.329 1.236-1.582 0-2.43-1.02-2.43-2.056m2.602 1.007c1.122 0 2.128-.647 2.128-2.028v-.489l-2.372.346c-.69.1-1.208.46-1.208 1.078 0 .59.431 1.093 1.452 1.093m11.856-6.04v1.05h-2.631v3.667c0 .805.503 1.193 1.251 1.193.475 0 1.093-.086 1.38-.187v1.05c-.316.115-.805.23-1.509.23-1.424 0-2.272-.704-2.272-2.07v-3.883h-2.214v-1.05h1.136c.834 0 1.15-.43 1.15-1.193v-1.236h1.078v2.43zm2.899 5.853h2.646v-4.817h-2.344v-1.035h3.494v5.852h2.646V70h-6.442zm2.085-8.268c0-.604.475-1.078 1.093-1.078.589 0 1.064.474 1.064 1.078s-.475 1.093-1.064 1.093a1.084 1.084 0 0 1-1.093-1.093m9.47 9.504c-1.985 0-3.451-1.524-3.451-3.652 0-2.113 1.466-3.637 3.451-3.637 1.984 0 3.45 1.524 3.45 3.637 0 2.128-1.466 3.652-3.45 3.652m0-1.05c1.236 0 2.286-.934 2.286-2.602 0-1.653-1.05-2.588-2.286-2.588-1.237 0-2.287.935-2.287 2.588 0 1.668 1.05 2.603 2.287 2.603m5.688-6.038h1.121v1.006c.432-.82 1.294-1.207 2.243-1.207 1.797 0 2.66 1.222 2.66 2.746V70h-1.15v-4.112c0-.992-.446-1.898-1.783-1.898-1.093 0-1.941.82-1.941 2.142V70h-1.15zm10.26 5.794c0-.675.532-1.193 1.179-1.193.661 0 1.193.517 1.193 1.193s-.532 1.18-1.193 1.18a1.166 1.166 0 0 1-1.179-1.18m0-4.83c0-.676.532-1.194 1.179-1.194.661 0 1.193.517 1.193 1.193s-.532 1.18-1.193 1.18a1.166 1.166 0 0 1-1.179-1.18m15.488-.202a2 2 0 0 1-.043-.417c0-1.596 1.237-2.976 3.235-2.976 1.927 0 3.077 1.28 3.077 2.818 0 1.222-.762 2.185-1.826 2.861l-1.912 1.222c-.561.36-1.078.849-1.193 1.524h5.017V70h-6.484c.029-1.438.604-2.588 2.099-3.551l1.668-1.079c.906-.59 1.423-1.236 1.423-2.056 0-.92-.661-1.768-1.897-1.768-1.266 0-2.028.877-2.028 2.027 0 .158.015.33.043.446zm10.476 5.032c0-.675.532-1.193 1.179-1.193.662 0 1.194.517 1.194 1.193s-.532 1.18-1.194 1.18a1.166 1.166 0 0 1-1.179-1.18m9.484.015v-5.58h-2.645v-.79c1.624 0 2.703-.748 2.76-1.869h1.064v8.239h2.387V70h-6.024v-1.078zm9.182 1.28c-1.941 0-2.919-1.252-3.105-2.028l1.049-.431c.201.719.935 1.423 2.085 1.423.92 0 1.452-.431 1.452-.992 0-.503-.331-.805-1.093-.963l-1.337-.273c-1.294-.26-1.869-1.007-1.869-1.898 0-1.165 1.078-2.128 2.603-2.128 1.538 0 2.53.79 2.846 1.883l-.977.388c-.23-.661-.82-1.265-1.869-1.265-.878 0-1.467.417-1.467 1.035 0 .446.273.791.963.92l1.309.26c1.366.273 2.041.948 2.041 1.984 0 .963-.805 2.084-2.631 2.084M221.826 83.947c.244-.662.776-.963 1.423-.963s1.208.345 1.352 1.107c.259-.69.82-1.107 1.639-1.107.877 0 1.725.416 1.725 2.056V90h-1.078v-4.788c0-.906-.359-1.193-.934-1.193s-1.05.402-1.05 1.394V90h-1.064v-4.745c0-.891-.345-1.236-.92-1.236-.59 0-1.064.36-1.064 1.409V90h-1.079v-6.887h1.05zm11.109 6.254c-1.985 0-3.451-1.524-3.451-3.652 0-2.113 1.466-3.637 3.451-3.637 1.984 0 3.45 1.524 3.45 3.637 0 2.128-1.466 3.652-3.45 3.652m0-1.05c1.236 0 2.286-.934 2.286-2.602 0-1.653-1.05-2.588-2.286-2.588-1.237 0-2.286.935-2.286 2.588 0 1.668 1.049 2.603 2.286 2.603m10.591-.287c-.331.719-1.093 1.337-2.358 1.337-1.956 0-3.207-1.61-3.207-3.652 0-1.998 1.323-3.637 3.264-3.637 1.309 0 2.013.618 2.272 1.236v-4.543h1.15v9.101c0 .69.043 1.15.072 1.294h-1.121a6 6 0 0 1-.072-.992zm-2.186.288c1.352 0 2.186-1.093 2.186-2.603s-.82-2.588-2.186-2.588c-1.323 0-2.214 1.079-2.214 2.588s.906 2.603 2.214 2.603m8.938 1.05c-1.798 0-3.422-1.31-3.422-3.667 0-2.214 1.61-3.623 3.307-3.623 2.041 0 3.278 1.409 3.278 3.48 0 .143-.014.301-.029.402h-5.377v.1a2.236 2.236 0 0 0 2.243 2.243c1.164 0 1.826-.647 2.099-1.452l.992.36c-.388 1.193-1.495 2.156-3.091 2.156m1.97-4.386c-.058-1.02-.806-1.883-2.071-1.883-1.15 0-2.042.89-2.113 1.883zm3.33 3.149h2.645V80.64h-2.272v-1.035h3.422v9.36h2.646V90h-6.441zm10.548-.058c0-.675.532-1.193 1.179-1.193.661 0 1.193.517 1.193 1.193s-.532 1.18-1.193 1.18a1.166 1.166 0 0 1-1.179-1.18m0-4.83c0-.677.532-1.194 1.179-1.194.661 0 1.193.517 1.193 1.193s-.532 1.18-1.193 1.18a1.166 1.166 0 0 1-1.179-1.18m16.279 6.11c.143.848.905 1.653 2.056 1.653 1.553 0 2.128-.977 2.128-2.315v-1.15c-.302.676-1.05 1.237-2.186 1.237-1.826 0-3.105-1.438-3.105-3.336 0-1.912 1.265-3.364 3.134-3.364 1.15 0 1.898.503 2.171 1.179v-.978h1.136v6.513c0 1.582-.791 3.278-3.293 3.278-1.639 0-2.99-1.05-3.163-2.444zm4.241-3.882c0-1.424-.848-2.358-2.099-2.358s-2.099.92-2.099 2.315c0 1.394.848 2.315 2.099 2.315s2.099-.92 2.099-2.272m3.532-3.192h1.121v1.15c.316-.704 1.093-1.351 2.387-1.351 2.056 0 3.192 1.61 3.192 3.637 0 2.056-1.237 3.652-3.25 3.652-1.222 0-1.984-.546-2.3-1.164v3.695h-1.15zm3.307 6.053c1.337 0 2.228-1.093 2.228-2.617s-.891-2.602-2.228-2.602c-1.323 0-2.186 1.078-2.186 2.602s.877 2.617 2.186 2.617m11.209-6.053v1.05h-2.631v3.666c0 .805.503 1.193 1.251 1.193.474 0 1.092-.086 1.38-.187v1.05c-.316.115-.805.23-1.51.23-1.423 0-2.272-.704-2.272-2.07v-3.883h-2.214v-1.05h1.136c.834 0 1.15-.43 1.15-1.192v-1.237h1.079v2.43zm3.344 2.257h4.975v1.007h-4.975zm13.079 3.494c-.331.719-1.093 1.337-2.358 1.337-1.956 0-3.207-1.61-3.207-3.652 0-1.998 1.323-3.637 3.264-3.637 1.309 0 2.013.618 2.272 1.236v-4.543h1.15v9.101c0 .69.043 1.15.072 1.294h-1.121a6 6 0 0 1-.072-.992zm-2.186.288c1.352 0 2.186-1.093 2.186-2.603s-.82-2.588-2.186-2.588c-1.322 0-2.214 1.079-2.214 2.588s.906 2.603 2.214 2.603m5.789-1.007c0-1.207.906-1.84 2.128-2.013l1.984-.287c.518-.072.618-.302.618-.618 0-.734-.546-1.28-1.653-1.28-1.078 0-1.769.604-1.855 1.394l-1.093-.23c.144-1.28 1.366-2.2 2.919-2.2 1.984 0 2.818 1.093 2.818 2.43v3.365c0 .575.087 1.078.144 1.294h-1.121c-.044-.13-.13-.59-.13-1.035-.215.56-1.035 1.236-2.329 1.236-1.582 0-2.43-1.02-2.43-2.056m2.602 1.007c1.122 0 2.128-.647 2.128-2.028v-.489l-2.372.346c-.69.1-1.208.46-1.208 1.078 0 .59.432 1.093 1.452 1.093m17.904 1.05c-1.883 0-3.494-1.424-3.494-3.653 0-2.257 1.668-3.637 3.48-3.637 1.869 0 2.876 1.078 3.163 2.185l-1.049.431c-.187-.719-.82-1.538-2.114-1.538-1.136 0-2.315.863-2.315 2.56 0 1.681 1.179 2.573 2.329 2.573 1.381 0 1.941-.935 2.143-1.553l1.006.431c-.331 1.021-1.337 2.2-3.149 2.2m8.406 0c-1.984 0-3.451-1.525-3.451-3.653 0-2.113 1.467-3.637 3.451-3.637s3.451 1.524 3.451 3.637c0 2.128-1.467 3.652-3.451 3.652m0-1.05c1.236 0 2.286-.935 2.286-2.603 0-1.653-1.05-2.588-2.286-2.588-1.237 0-2.286.935-2.286 2.588 0 1.668 1.049 2.603 2.286 2.603m8.851 1.05c-1.941 0-2.919-1.252-3.106-2.028l1.05-.431c.201.719.935 1.423 2.085 1.423.92 0 1.452-.431 1.452-.992 0-.503-.331-.805-1.093-.963l-1.337-.273c-1.294-.26-1.869-1.007-1.869-1.898 0-1.165 1.078-2.128 2.602-2.128 1.539 0 2.531.79 2.847 1.883l-.977.388c-.23-.661-.82-1.265-1.87-1.265-.877 0-1.466.417-1.466 1.035 0 .446.273.791.963.92l1.309.26c1.366.273 2.041.948 2.041 1.984 0 .963-.805 2.084-2.631 2.084m11.181-7.09v1.05h-2.632v3.667c0 .805.504 1.193 1.251 1.193.475 0 1.093-.086 1.381-.187v1.05c-.317.115-.805.23-1.51.23-1.423 0-2.272-.704-2.272-2.07v-3.883h-2.214v-1.05h1.136c.834 0 1.15-.43 1.15-1.192v-1.237h1.078v2.43zm4.538 5.795c0-.675.532-1.193 1.179-1.193.661 0 1.193.517 1.193 1.193s-.532 1.18-1.193 1.18a1.166 1.166 0 0 1-1.179-1.18m0-4.83c0-.677.532-1.194 1.179-1.194.661 0 1.193.517 1.193 1.193s-.532 1.18-1.193 1.18a1.166 1.166 0 0 1-1.179-1.18m18.133 5.995c-1.869-.173-2.846-1.495-2.976-2.746l1.122-.36c.072.964.675 1.898 1.854 2.07v-3.234l-.388-.101c-1.323-.345-2.228-1.121-2.228-2.459 0-1.337 1.107-2.43 2.616-2.602v-1.467h.993v1.467c1.667.201 2.358 1.294 2.602 2.272l-1.064.388c-.115-.662-.59-1.41-1.538-1.596v3.12l.273.072c1.466.36 2.415 1.294 2.415 2.56 0 1.279-.963 2.443-2.688 2.616v1.452h-.993zm2.517-2.545c0-.705-.504-1.179-1.438-1.495l-.086-.03v3.049c1.02-.158 1.524-.776 1.524-1.524m-3.954-4.342c0 .69.388 1.136 1.337 1.409l.1.029V81.67c-.862.13-1.437.719-1.437 1.51m13.179-1.28c.647.935.834 2.171.834 3.436s-.187 2.502-.834 3.437c-.59.862-1.496 1.423-2.718 1.423s-2.128-.56-2.717-1.423c-.647-.935-.834-2.171-.834-3.437 0-1.265.187-2.501.834-3.436.589-.862 1.495-1.423 2.717-1.423s2.128.56 2.718 1.423m-4.242.302c-.604.662-.848 1.726-.848 3.135 0 .848.086 1.581.287 2.17l3.739-5.161-.13-.144c-.373-.402-.877-.633-1.524-.633-.676 0-1.15.23-1.524.633m3.048 6.269c.604-.662.849-1.725.849-3.135 0-.805-.087-1.51-.259-2.07l-3.71 5.133c.403.446.877.705 1.596.705.647 0 1.151-.23 1.524-.633m5.904.431c0-.675.532-1.193 1.179-1.193a1.18 1.18 0 0 1 1.193 1.193c0 .676-.531 1.18-1.193 1.18a1.166 1.166 0 0 1-1.179-1.18m12.532-7.002c.647.935.834 2.171.834 3.436s-.187 2.502-.834 3.437c-.589.862-1.495 1.423-2.717 1.423s-2.128-.56-2.718-1.423c-.647-.935-.834-2.171-.834-3.437 0-1.265.187-2.501.834-3.436.59-.862 1.496-1.423 2.718-1.423s2.128.56 2.717 1.423m-4.241.302c-.604.662-.849 1.726-.849 3.135 0 .848.087 1.581.288 2.17l3.738-5.161-.129-.144c-.374-.402-.877-.633-1.524-.633-.676 0-1.151.23-1.524.633m3.048 6.269c.604-.662.848-1.725.848-3.135 0-.805-.086-1.51-.259-2.07l-3.709 5.133c.402.446.877.705 1.596.705.647 0 1.15-.23 1.524-.633m9.814-6.57c.647.934.834 2.17.834 3.435s-.187 2.502-.834 3.437c-.589.862-1.495 1.423-2.717 1.423s-2.128-.56-2.718-1.423c-.647-.935-.833-2.171-.833-3.437 0-1.265.186-2.501.833-3.436.59-.862 1.496-1.423 2.718-1.423s2.128.56 2.717 1.423m-4.241.301c-.604.662-.848 1.726-.848 3.135 0 .848.086 1.581.287 2.17l3.738-5.161-.129-.144c-.374-.402-.877-.633-1.524-.633-.676 0-1.15.23-1.524.633m3.048 6.269c.604-.662.848-1.725.848-3.135 0-.805-.086-1.51-.258-2.07l-3.71 5.133c.403.446.877.705 1.596.705.647 0 1.15-.23 1.524-.633m7.759-7.793h1.653v6.053h1.625v1.093h-1.625V90h-1.179v-2.171h-4.587v-1.38zm-3.005 6.053h3.479v-4.888z"/><rect width="146" height="70" x=".5" y="148.5" stroke="#fff" rx="5.5"/><path fill="#fff" d="M43.544 178.701c-1.942 0-2.92-1.251-3.106-2.027l1.05-.431c.2.719.934 1.423 2.084 1.423.92 0 1.452-.431 1.452-.992 0-.503-.33-.805-1.092-.963l-1.338-.274c-1.294-.258-1.869-1.006-1.869-1.897 0-1.165 1.079-2.128 2.603-2.128 1.538 0 2.53.79 2.847 1.883l-.978.388c-.23-.661-.82-1.265-1.87-1.265-.876 0-1.466.417-1.466 1.035 0 .446.273.791.964.92l1.308.259c1.366.273 2.042.949 2.042 1.984 0 .964-.805 2.085-2.631 2.085m11.18-7.088v1.05h-2.631v3.666c0 .805.503 1.193 1.25 1.193.475 0 1.093-.086 1.381-.187v1.05c-.316.115-.805.23-1.51.23-1.423 0-2.271-.705-2.271-2.07v-3.882h-2.215v-1.05h1.136c.834 0 1.15-.431 1.15-1.193v-1.237h1.079v2.43zm5.933 7.088c-1.798 0-3.422-1.308-3.422-3.666 0-2.214 1.61-3.623 3.307-3.623 2.041 0 3.278 1.409 3.278 3.479 0 .144-.015.302-.029.403h-5.377v.1a2.236 2.236 0 0 0 2.242 2.243c1.165 0 1.827-.647 2.1-1.452l.992.36c-.388 1.193-1.495 2.156-3.091 2.156m1.97-4.385c-.058-1.021-.806-1.884-2.071-1.884-1.15 0-2.042.892-2.114 1.884zm3.444-2.703h1.122v1.15c.316-.704 1.093-1.351 2.387-1.351 2.056 0 3.192 1.61 3.192 3.637 0 2.056-1.237 3.652-3.25 3.652-1.222 0-1.984-.546-2.3-1.164v3.695h-1.15zm3.307 6.053c1.338 0 2.229-1.093 2.229-2.617s-.891-2.602-2.229-2.602c-1.322 0-2.185 1.078-2.185 2.602s.877 2.617 2.185 2.617m7.227-.259c0-.676.532-1.193 1.179-1.193a1.18 1.18 0 0 1 1.193 1.193c0 .676-.532 1.179-1.193 1.179a1.166 1.166 0 0 1-1.179-1.179m13.064-4.529a3.1 3.1 0 0 0-.963-.129c-1.424 0-2.186.805-2.186 2.387v2.343h2.171v1.021h-5.363v-1.021h2.042v-4.845h-1.826v-1.021h2.948v1.351c.402-1.064 1.408-1.452 2.228-1.452.503 0 .776.072.949.13zm7.068 4.687c-.33.705-1.179 1.136-2.127 1.136-1.755 0-2.646-1.179-2.646-2.76v-4.328h1.15v4.141c0 .992.475 1.898 1.754 1.898 1.165 0 1.812-.849 1.812-1.927v-4.112h1.15v5.449c0 .532.058 1.165.1 1.438h-1.106c-.058-.201-.087-.59-.087-.935m3.992-5.952h1.121v1.006c.432-.819 1.294-1.207 2.243-1.207 1.798 0 2.66 1.222 2.66 2.746v4.342h-1.15v-4.112c0-.992-.446-1.898-1.783-1.898-1.093 0-1.941.82-1.941 2.142v3.868h-1.15z"/><path fill="#ccc" d="M26.03 198.5h-1.151v-5.852h-2.502v-1.035h2.502v-1.136c0-1.582 1.093-2.387 2.602-2.387.561 0 1.107.087 1.51.23v1.036a4.8 4.8 0 0 0-1.467-.202c-.848 0-1.495.374-1.495 1.452v1.007h2.962v1.035h-2.962zm8.505.201c-1.797 0-3.422-1.308-3.422-3.666 0-2.214 1.61-3.623 3.307-3.623 2.042 0 3.279 1.409 3.279 3.479 0 .144-.015.302-.03.403h-5.377v.1a2.236 2.236 0 0 0 2.243 2.243c1.165 0 1.826-.647 2.1-1.452l.992.36c-.389 1.193-1.496 2.156-3.092 2.156m1.97-4.385c-.057-1.021-.805-1.884-2.07-1.884-1.15 0-2.042.892-2.114 1.884zm9.34-2.703v1.05h-2.631v3.666c0 .805.503 1.193 1.25 1.193.475 0 1.094-.086 1.381-.187v1.05c-.316.115-.805.23-1.51.23-1.423 0-2.271-.705-2.271-2.07v-3.882H39.85v-1.05h1.135c.834 0 1.15-.431 1.15-1.193v-1.237h1.079v2.43zm6.048 7.088c-1.884 0-3.494-1.423-3.494-3.652 0-2.257 1.668-3.637 3.48-3.637 1.869 0 2.875 1.078 3.163 2.185l-1.05.431c-.187-.718-.82-1.538-2.114-1.538-1.136 0-2.315.863-2.315 2.559 0 1.682 1.18 2.574 2.33 2.574 1.38 0 1.94-.935 2.142-1.553l1.007.431c-.331 1.021-1.338 2.2-3.15 2.2m5.472-10.596h1.15v4.471c.446-.805 1.309-1.164 2.272-1.164 1.754 0 2.603 1.279 2.603 2.818v4.27h-1.15v-4.069c0-1.021-.432-1.941-1.77-1.941-1.106 0-1.954.82-1.954 2.171v3.839h-1.15zm9.067 5.765h4.975v1.007h-4.975zm14.358-.992a3.1 3.1 0 0 0-.963-.129c-1.424 0-2.186.805-2.186 2.387v2.343h2.171v1.021H74.45v-1.021h2.041v-4.845h-1.826v-1.021h2.948v1.351c.402-1.064 1.409-1.452 2.228-1.452.504 0 .777.072.95.13zm7.069 4.687c-.331.705-1.18 1.136-2.128 1.136-1.754 0-2.646-1.179-2.646-2.76v-4.328h1.15v4.141c0 .992.475 1.898 1.755 1.898 1.164 0 1.811-.849 1.811-1.927v-4.112h1.15v5.449c0 .532.058 1.165.101 1.438h-1.107c-.058-.201-.086-.59-.086-.935m3.991-5.952h1.122v1.006c.431-.819 1.294-1.207 2.243-1.207 1.797 0 2.66 1.222 2.66 2.746v4.342h-1.15v-4.112c0-.992-.446-1.898-1.784-1.898-1.092 0-1.94.82-1.94 2.142v3.868h-1.15zm11.785 7.088c-1.941 0-2.919-1.251-3.106-2.027l1.049-.431c.202.719.935 1.423 2.085 1.423.92 0 1.452-.431 1.452-.992 0-.503-.33-.805-1.092-.963l-1.337-.274c-1.294-.258-1.87-1.006-1.87-1.897 0-1.165 1.079-2.128 2.603-2.128 1.538 0 2.53.79 2.847 1.883l-.978.388c-.23-.661-.82-1.265-1.869-1.265-.877 0-1.467.417-1.467 1.035 0 .446.273.791.964.92l1.308.259c1.366.273 2.042.949 2.042 1.984 0 .964-.805 2.085-2.631 2.085m8.491 0c-1.797 0-3.422-1.308-3.422-3.666 0-2.214 1.611-3.623 3.307-3.623 2.042 0 3.279 1.409 3.279 3.479 0 .144-.015.302-.029.403h-5.378v.1a2.237 2.237 0 0 0 2.243 2.243c1.165 0 1.826-.647 2.1-1.452l.992.36c-.389 1.193-1.496 2.156-3.092 2.156m1.97-4.385c-.057-1.021-.805-1.884-2.07-1.884-1.151 0-2.042.892-2.114 1.884zm9.34-2.703v1.05h-2.631v3.666c0 .805.503 1.193 1.251 1.193.474 0 1.093-.086 1.38-.187v1.05c-.316.115-.805.23-1.509.23-1.424 0-2.272-.705-2.272-2.07v-3.882h-2.214v-1.05h1.136c.833 0 1.15-.431 1.15-1.193v-1.237h1.078v2.43z"/><rect width="146" height="70" x="399.5" y="148.5" stroke="#fff" rx="5.5"/><path fill="#fff" d="M442.543 178.701c-1.941 0-2.918-1.251-3.105-2.027l1.049-.431c.202.719.935 1.423 2.085 1.423.92 0 1.452-.431 1.452-.992 0-.503-.33-.805-1.092-.963l-1.337-.274c-1.295-.258-1.87-1.006-1.87-1.897 0-1.165 1.079-2.128 2.603-2.128 1.538 0 2.53.79 2.847 1.883l-.978.388c-.23-.661-.82-1.265-1.869-1.265-.877 0-1.467.417-1.467 1.035 0 .446.273.791.964.92l1.308.259c1.366.273 2.042.949 2.042 1.984 0 .964-.806 2.085-2.632 2.085m11.181-7.088v1.05h-2.631v3.666c0 .805.503 1.193 1.251 1.193.474 0 1.092-.086 1.38-.187v1.05c-.316.115-.805.23-1.51.23-1.423 0-2.271-.705-2.271-2.07v-3.882h-2.215v-1.05h1.136c.834 0 1.15-.431 1.15-1.193v-1.237h1.079v2.43zm5.933 7.088c-1.798 0-3.422-1.308-3.422-3.666 0-2.214 1.61-3.623 3.307-3.623 2.041 0 3.278 1.409 3.278 3.479 0 .144-.015.302-.029.403h-5.377v.1a2.236 2.236 0 0 0 2.243 2.243c1.164 0 1.826-.647 2.099-1.452l.992.36c-.388 1.193-1.496 2.156-3.091 2.156m1.969-4.385c-.057-1.021-.805-1.884-2.07-1.884-1.15 0-2.042.892-2.114 1.884zm3.445-2.703h1.122v1.15c.316-.704 1.093-1.351 2.387-1.351 2.056 0 3.192 1.61 3.192 3.637 0 2.056-1.237 3.652-3.25 3.652-1.222 0-1.984-.546-2.3-1.164v3.695h-1.151zm3.307 6.053c1.338 0 2.229-1.093 2.229-2.617s-.891-2.602-2.229-2.602c-1.322 0-2.185 1.078-2.185 2.602s.877 2.617 2.185 2.617m7.227-.259c0-.676.532-1.193 1.179-1.193a1.18 1.18 0 0 1 1.193 1.193c0 .676-.532 1.179-1.193 1.179a1.166 1.166 0 0 1-1.179-1.179m13.064-4.529a3.1 3.1 0 0 0-.963-.129c-1.424 0-2.186.805-2.186 2.387v2.343h2.171v1.021h-5.363v-1.021h2.042v-4.845h-1.826v-1.021h2.947v1.351c.403-1.064 1.41-1.452 2.229-1.452.503 0 .776.072.949.13zm7.068 4.687c-.33.705-1.179 1.136-2.128 1.136-1.754 0-2.645-1.179-2.645-2.76v-4.328h1.15v4.141c0 .992.475 1.898 1.754 1.898 1.165 0 1.812-.849 1.812-1.927v-4.112h1.15v5.449c0 .532.058 1.165.101 1.438h-1.107c-.058-.201-.087-.59-.087-.935m3.992-5.952h1.121v1.006c.432-.819 1.294-1.207 2.243-1.207 1.798 0 2.66 1.222 2.66 2.746v4.342h-1.15v-4.112c0-.992-.446-1.898-1.783-1.898-1.093 0-1.941.82-1.941 2.142v3.868h-1.15z"/><path fill="#ccc" d="M429.543 198.701c-1.941 0-2.918-1.251-3.105-2.027l1.049-.431c.202.719.935 1.423 2.085 1.423.92 0 1.452-.431 1.452-.992 0-.503-.33-.805-1.092-.963l-1.337-.274c-1.295-.258-1.87-1.006-1.87-1.897 0-1.165 1.079-2.128 2.603-2.128 1.538 0 2.53.79 2.847 1.883l-.978.388c-.23-.661-.82-1.265-1.869-1.265-.877 0-1.467.417-1.467 1.035 0 .446.273.791.964.92l1.308.259c1.366.273 2.042.949 2.042 1.984 0 .964-.806 2.085-2.632 2.085m5.344-2.056c0-1.208.905-1.84 2.127-2.013l1.985-.287c.517-.072.618-.302.618-.619 0-.733-.546-1.279-1.654-1.279-1.078 0-1.768.604-1.854 1.395l-1.093-.231c.144-1.279 1.366-2.199 2.919-2.199 1.984 0 2.818 1.092 2.818 2.43v3.364c0 .575.086 1.078.144 1.294h-1.122a4.2 4.2 0 0 1-.129-1.035c-.216.561-1.036 1.236-2.33 1.236-1.581 0-2.429-1.021-2.429-2.056m2.602 1.007c1.121 0 2.128-.647 2.128-2.028v-.488l-2.372.345c-.691.1-1.208.46-1.208 1.078 0 .589.431 1.093 1.452 1.093m8.405.848-2.961-6.887h1.294l2.343 5.751 2.358-5.751h1.251l-2.947 6.887zm9.384.201c-1.798 0-3.422-1.308-3.422-3.666 0-2.214 1.61-3.623 3.307-3.623 2.041 0 3.278 1.409 3.278 3.479a3 3 0 0 1-.029.403h-5.377v.1a2.236 2.236 0 0 0 2.243 2.243c1.164 0 1.826-.647 2.099-1.452l.992.36c-.388 1.193-1.495 2.156-3.091 2.156m1.97-4.385c-.058-1.021-.806-1.884-2.071-1.884-1.15 0-2.042.892-2.113 1.884zm4.063-.446h4.975v1.007h-4.975zm14.358-.992a3.1 3.1 0 0 0-.963-.129c-1.424 0-2.186.805-2.186 2.387v2.343h2.171v1.021h-5.363v-1.021h2.042v-4.845h-1.826v-1.021h2.947v1.351c.403-1.064 1.41-1.452 2.229-1.452.503 0 .776.072.949.13zm5.472 5.823c-1.797 0-3.422-1.308-3.422-3.666 0-2.214 1.611-3.623 3.307-3.623 2.042 0 3.279 1.409 3.279 3.479 0 .144-.015.302-.029.403h-5.378v.1a2.237 2.237 0 0 0 2.243 2.243c1.165 0 1.826-.647 2.1-1.452l.992.36c-.388 1.193-1.496 2.156-3.092 2.156m1.97-4.385c-.057-1.021-.805-1.884-2.07-1.884-1.15 0-2.042.892-2.114 1.884zm6.781 4.385c-1.941 0-2.919-1.251-3.106-2.027l1.05-.431c.201.719.935 1.423 2.085 1.423.92 0 1.452-.431 1.452-.992 0-.503-.331-.805-1.093-.963l-1.337-.274c-1.294-.258-1.869-1.006-1.869-1.897 0-1.165 1.078-2.128 2.602-2.128 1.539 0 2.531.79 2.847 1.883l-.977.388c-.23-.661-.82-1.265-1.87-1.265-.877 0-1.466.417-1.466 1.035 0 .446.273.791.963.92l1.309.259c1.366.273 2.041.949 2.041 1.984 0 .964-.805 2.085-2.631 2.085m10.088-1.136c-.331.705-1.179 1.136-2.128 1.136-1.754 0-2.646-1.179-2.646-2.76v-4.328h1.151v4.141c0 .992.474 1.898 1.754 1.898 1.164 0 1.811-.849 1.811-1.927v-4.112h1.151v5.449c0 .532.057 1.165.1 1.438h-1.107c-.057-.201-.086-.59-.086-.935m3.704-.1h2.645v-8.325h-2.271v-1.035h3.422v9.36h2.645v1.035h-6.441zm14.631-5.852v1.05h-2.631v3.666c0 .805.503 1.193 1.251 1.193.474 0 1.093-.086 1.38-.187v1.05c-.316.115-.805.23-1.51.23-1.423 0-2.271-.705-2.271-2.07v-3.882h-2.215v-1.05h1.136c.834 0 1.151-.431 1.151-1.193v-1.237h1.078v2.43z"/><rect width="146" height="70" x="576.5" y="148.5" stroke="#fff" rx="5.5"/><path fill="#fff" d="M619.543 178.701c-1.941 0-2.918-1.251-3.105-2.027l1.049-.431c.202.719.935 1.423 2.085 1.423.92 0 1.452-.431 1.452-.992 0-.503-.33-.805-1.092-.963l-1.337-.274c-1.295-.258-1.87-1.006-1.87-1.897 0-1.165 1.079-2.128 2.603-2.128 1.538 0 2.53.79 2.847 1.883l-.978.388c-.23-.661-.82-1.265-1.869-1.265-.877 0-1.467.417-1.467 1.035 0 .446.273.791.964.92l1.308.259c1.366.273 2.042.949 2.042 1.984 0 .964-.806 2.085-2.632 2.085m11.181-7.088v1.05h-2.631v3.666c0 .805.503 1.193 1.251 1.193.474 0 1.092-.086 1.38-.187v1.05c-.316.115-.805.23-1.51.23-1.423 0-2.271-.705-2.271-2.07v-3.882h-2.215v-1.05h1.136c.834 0 1.15-.431 1.15-1.193v-1.237h1.079v2.43zm5.933 7.088c-1.798 0-3.422-1.308-3.422-3.666 0-2.214 1.61-3.623 3.307-3.623 2.041 0 3.278 1.409 3.278 3.479 0 .144-.015.302-.029.403h-5.377v.1a2.236 2.236 0 0 0 2.243 2.243c1.164 0 1.826-.647 2.099-1.452l.992.36c-.388 1.193-1.496 2.156-3.091 2.156m1.969-4.385c-.057-1.021-.805-1.884-2.07-1.884-1.15 0-2.042.892-2.114 1.884zm3.445-2.703h1.122v1.15c.316-.704 1.093-1.351 2.387-1.351 2.056 0 3.192 1.61 3.192 3.637 0 2.056-1.237 3.652-3.25 3.652-1.222 0-1.984-.546-2.3-1.164v3.695h-1.151zm3.307 6.053c1.338 0 2.229-1.093 2.229-2.617s-.891-2.602-2.229-2.602c-1.322 0-2.185 1.078-2.185 2.602s.877 2.617 2.185 2.617m7.227-.259c0-.676.532-1.193 1.179-1.193a1.18 1.18 0 0 1 1.193 1.193c0 .676-.532 1.179-1.193 1.179a1.166 1.166 0 0 1-1.179-1.179m13.064-4.529a3.1 3.1 0 0 0-.963-.129c-1.424 0-2.186.805-2.186 2.387v2.343h2.171v1.021h-5.363v-1.021h2.042v-4.845h-1.826v-1.021h2.947v1.351c.403-1.064 1.41-1.452 2.229-1.452.503 0 .776.072.949.13zm7.068 4.687c-.33.705-1.179 1.136-2.128 1.136-1.754 0-2.645-1.179-2.645-2.76v-4.328h1.15v4.141c0 .992.475 1.898 1.754 1.898 1.165 0 1.812-.849 1.812-1.927v-4.112h1.15v5.449c0 .532.058 1.165.101 1.438h-1.107c-.058-.201-.087-.59-.087-.935m3.992-5.952h1.121v1.006c.432-.819 1.294-1.207 2.243-1.207 1.798 0 2.66 1.222 2.66 2.746v4.342h-1.15v-4.112c0-.992-.446-1.898-1.783-1.898-1.093 0-1.941.82-1.941 2.142v3.868h-1.15z"/><path fill="#ccc" d="M603.38 191.613h1.122v1.006c.431-.819 1.294-1.207 2.243-1.207 1.797 0 2.66 1.222 2.66 2.746v4.342h-1.151v-4.112c0-.992-.445-1.898-1.782-1.898-1.093 0-1.941.82-1.941 2.142v3.868h-1.151zm11.555 7.088c-1.985 0-3.451-1.524-3.451-3.652 0-2.113 1.466-3.637 3.451-3.637 1.984 0 3.45 1.524 3.45 3.637 0 2.128-1.466 3.652-3.45 3.652m0-1.049c1.236 0 2.286-.935 2.286-2.603 0-1.653-1.05-2.588-2.286-2.588-1.237 0-2.286.935-2.286 2.588 0 1.668 1.049 2.603 2.286 2.603m11.41-6.039v1.05h-2.631v3.666c0 .805.503 1.193 1.251 1.193.474 0 1.093-.086 1.38-.187v1.05c-.316.115-.805.23-1.509.23-1.424 0-2.272-.705-2.272-2.07v-3.882h-2.214v-1.05h1.135c.834 0 1.151-.431 1.151-1.193v-1.237h1.078v2.43zm2.899 5.852h2.646v-4.817h-2.344v-1.035h3.494v5.852h2.645v1.035h-6.441zm2.085-8.268c0-.603.474-1.078 1.093-1.078.589 0 1.064.475 1.064 1.078s-.475 1.093-1.064 1.093a1.083 1.083 0 0 1-1.093-1.093m9.685 9.303h-1.15v-5.852h-2.502v-1.035h2.502v-1.136c0-1.582 1.093-2.387 2.602-2.387.561 0 1.107.087 1.51.23v1.036a4.8 4.8 0 0 0-1.467-.202c-.848 0-1.495.374-1.495 1.452v1.007h2.962v1.035h-2.962zm10.735-6.887h1.265l-4.702 9.619h-1.279l1.883-3.782-3.091-5.837h1.337l2.358 4.601zm3.804 2.257h4.975v1.007h-4.975zm12.806 3.695c-.331.705-1.179 1.136-2.128 1.136-1.754 0-2.646-1.179-2.646-2.76v-4.328h1.15v4.141c0 .992.475 1.898 1.754 1.898 1.165 0 1.812-.849 1.812-1.927v-4.112h1.15v5.449c0 .532.058 1.165.101 1.438h-1.107c-.058-.201-.086-.59-.086-.935m7.154 1.136c-1.941 0-2.918-1.251-3.105-2.027l1.049-.431c.202.719.935 1.423 2.085 1.423.92 0 1.452-.431 1.452-.992 0-.503-.33-.805-1.092-.963l-1.338-.274c-1.294-.258-1.869-1.006-1.869-1.897 0-1.165 1.079-2.128 2.603-2.128 1.538 0 2.53.79 2.847 1.883l-.978.388c-.23-.661-.82-1.265-1.869-1.265-.877 0-1.467.417-1.467 1.035 0 .446.273.791.963.92l1.309.259c1.366.273 2.042.949 2.042 1.984 0 .964-.806 2.085-2.632 2.085m8.492 0c-1.797 0-3.422-1.308-3.422-3.666 0-2.214 1.611-3.623 3.307-3.623 2.042 0 3.278 1.409 3.278 3.479 0 .144-.014.302-.028.403h-5.378v.1a2.237 2.237 0 0 0 2.243 2.243c1.165 0 1.826-.647 2.099-1.452l.992.36c-.388 1.193-1.495 2.156-3.091 2.156m1.97-4.385c-.058-1.021-.805-1.884-2.071-1.884-1.15 0-2.041.892-2.113 1.884zm9.8-1.438a3.1 3.1 0 0 0-.963-.129c-1.424 0-2.186.805-2.186 2.387v2.343h2.171v1.021h-5.363v-1.021h2.042v-4.845h-1.826v-1.021h2.948v1.351c.402-1.064 1.409-1.452 2.228-1.452.503 0 .777.072.949.13z"/><rect width="146" height="70" x="187.5" y="148.5" stroke="#0bdd48" rx="5.5"/><path fill="#0bdd48" d="M234.543 178.701c-1.941 0-2.918-1.251-3.105-2.027l1.049-.431c.202.719.935 1.423 2.085 1.423.92 0 1.452-.431 1.452-.992 0-.503-.33-.805-1.092-.963l-1.337-.274c-1.295-.258-1.87-1.006-1.87-1.897 0-1.165 1.079-2.128 2.603-2.128 1.538 0 2.53.79 2.847 1.883l-.978.388c-.23-.661-.82-1.265-1.869-1.265-.877 0-1.467.417-1.467 1.035 0 .446.273.791.964.92l1.308.259c1.366.273 2.042.949 2.042 1.984 0 .964-.806 2.085-2.632 2.085m11.181-7.088v1.05h-2.631v3.666c0 .805.503 1.193 1.251 1.193.474 0 1.092-.086 1.38-.187v1.05c-.316.115-.805.23-1.51.23-1.423 0-2.271-.705-2.271-2.07v-3.882h-2.215v-1.05h1.136c.834 0 1.15-.431 1.15-1.193v-1.237h1.079v2.43zm5.933 7.088c-1.798 0-3.422-1.308-3.422-3.666 0-2.214 1.61-3.623 3.307-3.623 2.041 0 3.278 1.409 3.278 3.479 0 .144-.015.302-.029.403h-5.377v.1a2.236 2.236 0 0 0 2.243 2.243c1.164 0 1.826-.647 2.099-1.452l.992.36c-.388 1.193-1.496 2.156-3.091 2.156m1.969-4.385c-.057-1.021-.805-1.884-2.07-1.884-1.15 0-2.042.892-2.114 1.884zm3.445-2.703h1.122v1.15c.316-.704 1.093-1.351 2.387-1.351 2.056 0 3.192 1.61 3.192 3.637 0 2.056-1.237 3.652-3.25 3.652-1.222 0-1.984-.546-2.3-1.164v3.695h-1.151zm3.307 6.053c1.338 0 2.229-1.093 2.229-2.617s-.891-2.602-2.229-2.602c-1.322 0-2.185 1.078-2.185 2.602s.877 2.617 2.185 2.617m7.227-.259c0-.676.532-1.193 1.179-1.193a1.18 1.18 0 0 1 1.193 1.193c0 .676-.532 1.179-1.193 1.179a1.166 1.166 0 0 1-1.179-1.179m6.766-.762c0-1.208.906-1.84 2.128-2.013l1.985-.287c.517-.072.618-.302.618-.619 0-.733-.547-1.279-1.654-1.279-1.078 0-1.768.604-1.854 1.395l-1.093-.231c.144-1.279 1.366-2.199 2.919-2.199 1.984 0 2.818 1.092 2.818 2.43v3.364c0 .575.086 1.078.143 1.294h-1.121a4.2 4.2 0 0 1-.129-1.035c-.216.561-1.036 1.236-2.33 1.236-1.581 0-2.43-1.021-2.43-2.056m2.603 1.007c1.121 0 2.128-.647 2.128-2.028v-.488l-2.373.345c-.69.1-1.207.46-1.207 1.078 0 .589.431 1.093 1.452 1.093m6.134-.187h2.645v-4.817h-2.343v-1.035h3.493v5.852h2.646v1.035h-6.441zm2.084-8.268c0-.603.475-1.078 1.093-1.078.59 0 1.064.475 1.064 1.078s-.474 1.093-1.064 1.093a1.084 1.084 0 0 1-1.093-1.093"/><path fill="#ccc" d="M235.708 191.613h1.121v1.15c.317-.704 1.093-1.351 2.387-1.351 2.056 0 3.192 1.61 3.192 3.637 0 2.056-1.237 3.652-3.25 3.652-1.222 0-1.984-.546-2.3-1.164v3.695h-1.15zm3.307 6.053c1.337 0 2.228-1.093 2.228-2.617s-.891-2.602-2.228-2.602c-1.323 0-2.186 1.078-2.186 2.602s.877 2.617 2.186 2.617m11.669-4.788a3.1 3.1 0 0 0-.963-.129c-1.424 0-2.186.805-2.186 2.387v2.343h2.171v1.021h-5.363v-1.021h2.042v-4.845h-1.826v-1.021h2.948v1.351c.402-1.064 1.409-1.452 2.228-1.452.503 0 .777.072.949.13zm5.372 5.823c-1.984 0-3.451-1.524-3.451-3.652 0-2.113 1.467-3.637 3.451-3.637s3.451 1.524 3.451 3.637c0 2.128-1.467 3.652-3.451 3.652m0-1.049c1.236 0 2.286-.935 2.286-2.603 0-1.653-1.05-2.588-2.286-2.588-1.237 0-2.286.935-2.286 2.588 0 1.668 1.049 2.603 2.286 2.603m6.134-5.205c.244-.662.776-.964 1.423-.964s1.208.346 1.352 1.108c.258-.691.819-1.108 1.639-1.108.877 0 1.725.417 1.725 2.057v4.96h-1.078v-4.788c0-.906-.36-1.193-.935-1.193s-1.049.402-1.049 1.394v4.587h-1.064v-4.745c0-.891-.345-1.236-.921-1.236-.589 0-1.064.359-1.064 1.409v4.572h-1.078v-6.887h1.05zm8.003-.834h1.121v1.15c.316-.704 1.093-1.351 2.387-1.351 2.056 0 3.192 1.61 3.192 3.637 0 2.056-1.237 3.652-3.25 3.652-1.222 0-1.984-.546-2.3-1.164v3.695h-1.15zm3.307 6.053c1.337 0 2.228-1.093 2.228-2.617s-.891-2.602-2.228-2.602c-1.323 0-2.186 1.078-2.186 2.602s.877 2.617 2.186 2.617m11.209-6.053v1.05h-2.631v3.666c0 .805.503 1.193 1.251 1.193.474 0 1.092-.086 1.38-.187v1.05c-.316.115-.805.23-1.51.23-1.423 0-2.272-.705-2.272-2.07v-3.882h-2.214v-1.05h1.136c.834 0 1.15-.431 1.15-1.193v-1.237h1.079v2.43z"/><path fill="#0bdd48" d="M162.797 187.771v-8.544h8.413v8.544z"/></svg>