<svg width="467" height="470" viewBox="0 0 467 470" fill="none" xmlns="http://www.w3.org/2000/svg">
<path d="M58.6171 28L57.697 25.0525H53.9011L52.9953 28H51.73L54.9507 17.8059H56.6617L59.8968 28H58.6171ZM55.799 18.8699L54.2606 23.8879H57.3375L55.799 18.8699ZM61.7891 17.8059H62.9968V26.8641H68.2305V28H61.7891V17.8059ZM70.4103 17.8059H71.6181V26.8641H76.8517V28H70.4103V17.8059ZM90.9022 26.9648H93.2315V28H87.3652V26.9648H89.7088V18.8412H87.3652V17.8059H93.2315V18.8412H90.9022V26.9648ZM96.7485 19.6032V28H95.5695V17.8059H97.1223L101.091 25.8289V17.8059H102.27V28H100.889L96.7485 19.6032ZM109.856 20.509C109.698 19.6607 109.007 18.7118 107.555 18.7118C106.376 18.7118 105.499 19.4594 105.499 20.4659C105.499 21.2854 106.002 21.9037 107.124 22.1481L108.432 22.4357C110.071 22.7951 111.02 23.816 111.02 25.2538C111.02 26.8066 109.769 28.2013 107.685 28.2013C105.513 28.2013 104.219 26.7491 104.033 25.3113L105.168 24.9518C105.283 26.1021 106.362 27.0798 107.742 27.0798C109.094 27.0798 109.813 26.2746 109.813 25.3257C109.813 24.4774 109.252 23.8591 108.188 23.6291L106.851 23.3415C105.298 23.0108 104.291 22.0331 104.291 20.4946C104.291 18.8987 105.729 17.6046 107.57 17.6046C109.769 17.6046 110.704 18.9418 110.963 20.1208L109.856 20.509ZM116.766 26.9648H119.095V28H113.229V26.9648H115.573V18.8412H113.229V17.8059H119.095V18.8412H116.766V26.9648ZM124.223 23.0971H128.133V28H127.199L127.141 26.6628C126.796 27.468 126.135 28.2013 124.683 28.2013C122.555 28.2013 121.059 26.5478 121.059 22.9389C121.059 19.3156 122.713 17.6046 124.855 17.6046C127.429 17.6046 128.061 19.632 128.162 20.6672L127.055 20.9404C126.854 19.8189 126.408 18.7118 124.841 18.7118C123.288 18.7118 122.253 20.0058 122.253 22.9389C122.253 25.9008 123.259 27.1229 124.783 27.1229C126.494 27.1229 127.012 25.6851 127.012 24.2042H124.223V23.0971ZM135.561 23.3703H131.248V28H130.054V17.8059H131.248V22.2488H135.561V17.8059H136.755V28H135.561V23.3703ZM142.615 28H141.422V18.9274H138.115V17.8059H145.922V18.9274H142.615V28ZM152.962 20.509C152.804 19.6607 152.114 18.7118 150.661 18.7118C149.482 18.7118 148.605 19.4594 148.605 20.4659C148.605 21.2854 149.109 21.9037 150.23 22.1481L151.538 22.4357C153.177 22.7951 154.126 23.816 154.126 25.2538C154.126 26.8066 152.876 28.2013 150.791 28.2013C148.62 28.2013 147.326 26.7491 147.139 25.3113L148.275 24.9518C148.39 26.1021 149.468 27.0798 150.848 27.0798C152.2 27.0798 152.919 26.2746 152.919 25.3257C152.919 24.4774 152.358 23.8591 151.294 23.6291L149.957 23.3415C148.404 23.0108 147.398 22.0331 147.398 20.4946C147.398 18.8987 148.835 17.6046 150.676 17.6046C152.876 17.6046 153.81 18.9418 154.069 20.1208L152.962 20.509ZM170.851 29.179L169.701 27.6549C169.169 28.0144 168.536 28.2013 167.832 28.2013C165.661 28.2013 164.108 26.4472 164.108 22.8958C164.108 19.3444 165.661 17.6046 167.832 17.6046C170.003 17.6046 171.556 19.3444 171.556 22.8958C171.556 24.6787 171.168 26.0014 170.506 26.8785L171.743 28.532L170.851 29.179ZM167.832 27.051C168.278 27.051 168.666 26.936 169.011 26.7204L167.228 24.348L168.105 23.6866L169.759 25.8864C170.132 25.1963 170.348 24.2186 170.348 22.8958C170.348 20.0489 169.356 18.7549 167.832 18.7549C166.308 18.7549 165.316 20.0489 165.316 22.8958C165.316 25.7426 166.308 27.051 167.832 27.051ZM176.511 28.2013C174.526 28.2013 173.146 27.1517 173.146 25.0669V17.8059H174.34V24.9518C174.34 26.3034 175.188 27.0654 176.511 27.0654C177.833 27.0654 178.682 26.3034 178.682 24.9518V17.8059H179.875V25.0669C179.875 27.1517 178.495 28.2013 176.511 28.2013ZM182.4 17.8059H188.353V18.9274H183.593V22.3494H188.036V23.4709H183.593V26.8785H188.353V28H182.4V17.8059ZM191.97 23.7297V28H190.777V17.8059H194.486C196.327 17.8059 197.477 19.1287 197.477 20.7822C197.477 22.2631 196.514 23.3846 195.076 23.6291L197.434 28H196.068L193.782 23.7297H191.97ZM194.299 22.637C195.493 22.637 196.269 21.9037 196.269 20.7822C196.269 19.6463 195.493 18.8987 194.299 18.8987H191.97V22.637H194.299ZM202.978 26.9648H205.307V28H199.441V26.9648H201.785V18.8412H199.441V17.8059H205.307V18.8412H202.978V26.9648ZM208.264 17.8059H214.216V18.9274H209.457V22.3494H213.9V23.4709H209.457V26.8785H214.216V28H208.264V17.8059ZM221.932 20.509C221.774 19.6607 221.083 18.7118 219.631 18.7118C218.452 18.7118 217.575 19.4594 217.575 20.4659C217.575 21.2854 218.078 21.9037 219.2 22.1481L220.508 22.4357C222.147 22.7951 223.096 23.816 223.096 25.2538C223.096 26.8066 221.845 28.2013 219.761 28.2013C217.589 28.2013 216.295 26.7491 216.109 25.3113L217.244 24.9518C217.359 26.1021 218.438 27.0798 219.818 27.0798C221.17 27.0798 221.889 26.2746 221.889 25.3257C221.889 24.4774 221.328 23.8591 220.264 23.6291L218.927 23.3415C217.374 23.0108 216.367 22.0331 216.367 20.4946C216.367 18.8987 217.805 17.6046 219.646 17.6046C221.845 17.6046 222.78 18.9418 223.039 20.1208L221.932 20.509Z" fill="#FEFEFE"/>
<rect x="0.5" y="0.5" width="465.75" height="468.319" stroke="white"/>
<path d="M0 47L466.75 47" stroke="white"/>
<path d="M26.125 23.187L26.125 27.9996" stroke="white" stroke-width="2"/>
<path d="M34.7715 20.8711L34.7715 28.0001" stroke="white" stroke-width="2"/>
<path d="M30.4492 17.6797L30.4492 27.9997" stroke="white" stroke-width="2"/>
<path d="M57.3252 71.4389C57.1444 70.4694 56.3557 69.3849 54.6961 69.3849C53.3486 69.3849 52.3463 70.2393 52.3463 71.3896C52.3463 72.3262 52.9214 73.0328 54.2031 73.3121L55.6984 73.6408C57.5717 74.0516 58.6562 75.2183 58.6562 76.8615C58.6562 78.6361 57.2266 80.23 54.8439 80.23C52.3627 80.23 50.8838 78.5704 50.6702 76.9272L51.9683 76.5164C52.0998 77.831 53.3322 78.9483 54.9097 78.9483C56.4543 78.9483 57.2759 78.0281 57.2759 76.9436C57.2759 75.9741 56.635 75.2676 55.4191 75.0046L53.8909 74.676C52.1162 74.2981 50.966 73.1807 50.966 71.4224C50.966 69.5985 52.6092 68.1196 54.7125 68.1196C57.2266 68.1196 58.2947 69.6478 58.5905 70.9952L57.3252 71.4389ZM61.4104 68.3496H68.2133V69.6314H62.7742V73.5422H67.8517V74.8239H62.7742V78.7183H68.2133V80H61.4104V68.3496ZM71.3618 68.3496H72.7421V78.7019H78.7234V80H71.3618V68.3496ZM81.116 68.3496H87.9189V69.6314H82.4799V73.5422H87.5574V74.8239H82.4799V78.7183H87.9189V80H81.116V68.3496ZM94.4196 68.1196C97.3117 68.1196 98.1497 70.5351 98.2647 71.7182L96.9173 71.9647C96.7037 70.6994 96.0792 69.4177 94.3703 69.4177C92.6449 69.4177 91.4125 70.9459 91.4125 74.1666C91.4125 77.3873 92.6449 78.9319 94.3374 78.9319C96.0957 78.9319 96.6872 77.5023 96.8516 76.3028L98.1661 76.5164C98.0675 77.6995 97.1966 80.23 94.3539 80.23C91.8398 80.23 90.0322 78.1596 90.0322 74.1666C90.0322 70.19 91.9055 68.1196 94.4196 68.1196ZM104.618 80H103.254V69.6314H99.4743V68.3496H108.397V69.6314H104.618V80ZM66.7837 103.702C66.4057 104.523 65.5348 105.23 64.0888 105.23C61.854 105.23 60.4244 103.39 60.4244 101.056C60.4244 98.7722 61.9362 96.899 64.1545 96.899C65.6498 96.899 66.455 97.6056 66.7508 98.3121V93.1196H68.0654V103.521C68.0654 104.31 68.1147 104.836 68.1475 105H66.8658C66.833 104.819 66.7837 104.376 66.7837 103.866V103.702ZM64.286 104.031C65.8306 104.031 66.7837 102.782 66.7837 101.056C66.7837 99.3309 65.847 98.0985 64.286 98.0985C62.7742 98.0985 61.7554 99.3309 61.7554 101.056C61.7554 102.782 62.7907 104.031 64.286 104.031ZM70.9017 102.88C70.9017 101.5 71.9369 100.777 73.3336 100.58L75.6013 100.251C76.1928 100.169 76.3079 99.9061 76.3079 99.5445C76.3079 98.7065 75.6834 98.0821 74.4182 98.0821C73.1858 98.0821 72.397 98.7722 72.2984 99.676L71.0496 99.4131C71.2139 97.9506 72.6106 96.899 74.3853 96.899C76.6529 96.899 77.606 98.1478 77.606 99.676V103.521C77.606 104.178 77.7046 104.754 77.7703 105H76.4886C76.4393 104.852 76.3407 104.326 76.3407 103.817C76.0942 104.458 75.1576 105.23 73.6787 105.23C71.8712 105.23 70.9017 104.063 70.9017 102.88ZM73.8759 104.031C75.1576 104.031 76.3079 103.291 76.3079 101.714V101.155L73.5966 101.549C72.8078 101.664 72.2163 102.075 72.2163 102.782C72.2163 103.455 72.7092 104.031 73.8759 104.031ZM87.426 97.129V98.3286H84.4189V102.519C84.4189 103.439 84.994 103.883 85.8485 103.883C86.3907 103.883 87.0973 103.784 87.426 103.669V104.869C87.0645 105 86.5058 105.131 85.7006 105.131C84.0738 105.131 83.1043 104.326 83.1043 102.765V98.3286H80.5738V97.129H81.8719C82.825 97.129 83.1865 96.6361 83.1865 95.7652V94.352H84.4189V97.129H87.426ZM90.6074 102.88C90.6074 101.5 91.6426 100.777 93.0393 100.58L95.3069 100.251C95.8985 100.169 96.0135 99.9061 96.0135 99.5445C96.0135 98.7065 95.3891 98.0821 94.1238 98.0821C92.8914 98.0821 92.1027 98.7722 92.0041 99.676L90.7553 99.4131C90.9196 97.9506 92.3163 96.899 94.091 96.899C96.3586 96.899 97.3117 98.1478 97.3117 99.676V103.521C97.3117 104.178 97.4102 104.754 97.476 105H96.1943C96.145 104.852 96.0464 104.326 96.0464 103.817C95.7999 104.458 94.8633 105.23 93.3844 105.23C91.5769 105.23 90.6074 104.063 90.6074 102.88ZM93.5816 104.031C94.8633 104.031 96.0135 103.291 96.0135 101.714V101.155L93.3022 101.549C92.5135 101.664 91.9219 102.075 91.9219 102.782C91.9219 103.455 92.4149 104.031 93.5816 104.031ZM102.58 103.751C102.58 102.979 103.188 102.387 103.927 102.387C104.683 102.387 105.291 102.979 105.291 103.751C105.291 104.523 104.683 105.099 103.927 105.099C103.188 105.099 102.58 104.523 102.58 103.751ZM113.09 97.2112H114.569L116.081 103.439L117.149 97.129H118.398L116.952 105H115.374L113.797 98.6079L112.285 105H110.724L109.196 97.129H110.477L111.595 103.439L113.09 97.2112ZM123.649 105.23C121.382 105.23 119.706 103.488 119.706 101.056C119.706 98.6408 121.382 96.899 123.649 96.899C125.917 96.899 127.593 98.6408 127.593 101.056C127.593 103.488 125.917 105.23 123.649 105.23ZM123.649 104.031C125.063 104.031 126.262 102.962 126.262 101.056C126.262 99.1666 125.063 98.0985 123.649 98.0985C122.236 98.0985 121.037 99.1666 121.037 101.056C121.037 102.962 122.236 104.031 123.649 104.031ZM137.216 98.5751C137.002 98.5093 136.674 98.4272 136.115 98.4272C134.488 98.4272 133.617 99.3474 133.617 101.155V103.833H136.099V105H129.969V103.833H132.303V98.2957H130.216V97.129H133.584V98.6736C134.045 97.4577 135.195 97.014 136.131 97.014C136.707 97.014 137.019 97.0962 137.216 97.1619V98.5751ZM140.315 105V93.1196H141.63V101.04L145.804 97.129H147.627L144.062 100.432L147.71 105H145.984L143.076 101.352L141.63 102.7V105H140.315ZM153.471 105.23C151.253 105.23 150.135 103.8 149.922 102.913L151.121 102.42C151.351 103.242 152.189 104.047 153.504 104.047C154.555 104.047 155.163 103.554 155.163 102.913C155.163 102.338 154.785 101.993 153.915 101.812L152.386 101.5C150.907 101.204 150.25 100.35 150.25 99.3309C150.25 97.9999 151.483 96.899 153.224 96.899C154.983 96.899 156.116 97.8027 156.478 99.0516L155.361 99.4953C155.098 98.7394 154.424 98.0492 153.224 98.0492C152.222 98.0492 151.548 98.5258 151.548 99.2323C151.548 99.7417 151.861 100.136 152.649 100.284L154.145 100.58C155.706 100.892 156.478 101.664 156.478 102.847C156.478 103.948 155.558 105.23 153.471 105.23ZM159.511 97.129H160.793V98.4436C161.155 97.6384 162.042 96.899 163.521 96.899C165.871 96.899 167.169 98.7394 167.169 101.056C167.169 103.406 165.756 105.23 163.455 105.23C162.058 105.23 161.188 104.606 160.826 103.899V108.122H159.511V97.129ZM163.291 104.047C164.819 104.047 165.838 102.798 165.838 101.056C165.838 99.3145 164.819 98.0821 163.291 98.0821C161.779 98.0821 160.793 99.3145 160.793 101.056C160.793 102.798 161.796 104.047 163.291 104.047ZM169.43 102.88C169.43 101.5 170.465 100.777 171.862 100.58L174.13 100.251C174.721 100.169 174.836 99.9061 174.836 99.5445C174.836 98.7065 174.212 98.0821 172.947 98.0821C171.714 98.0821 170.925 98.7722 170.827 99.676L169.578 99.4131C169.742 97.9506 171.139 96.899 172.914 96.899C175.181 96.899 176.134 98.1478 176.134 99.676V103.521C176.134 104.178 176.233 104.754 176.299 105H175.017C174.968 104.852 174.869 104.326 174.869 103.817C174.623 104.458 173.686 105.23 172.207 105.23C170.4 105.23 169.43 104.063 169.43 102.88ZM172.404 104.031C173.686 104.031 174.836 103.291 174.836 101.714V101.155L172.125 101.549C171.336 101.664 170.745 102.075 170.745 102.782C170.745 103.455 171.238 104.031 172.404 104.031ZM183.013 105.23C180.86 105.23 179.02 103.603 179.02 101.056C179.02 98.4765 180.926 96.899 182.997 96.899C185.133 96.899 186.283 98.1314 186.612 99.3967L185.412 99.8896C185.198 99.068 184.475 98.1314 182.997 98.1314C181.698 98.1314 180.351 99.1173 180.351 101.056C180.351 102.979 181.698 103.998 183.013 103.998C184.59 103.998 185.231 102.93 185.461 102.223L186.612 102.716C186.234 103.883 185.083 105.23 183.013 105.23ZM192.734 105.23C190.68 105.23 188.823 103.735 188.823 101.04C188.823 98.5093 190.664 96.899 192.603 96.899C194.936 96.899 196.349 98.5093 196.349 100.876C196.349 101.04 196.333 101.221 196.317 101.336H190.171V101.451C190.171 102.93 191.37 104.014 192.734 104.014C194.065 104.014 194.821 103.275 195.133 102.354L196.267 102.765C195.824 104.129 194.558 105.23 192.734 105.23ZM194.986 100.218C194.92 99.0516 194.065 98.0657 192.619 98.0657C191.305 98.0657 190.286 99.0844 190.204 100.218H194.986ZM198.446 105H206.498V106.101H198.446V105ZM208.973 103.817H211.996V98.3121H209.318V97.129H213.311V103.817H216.334V105H208.973V103.817ZM211.355 94.3684C211.355 93.6783 211.898 93.136 212.604 93.136C213.278 93.136 213.82 93.6783 213.82 94.3684C213.82 95.0586 213.278 95.6173 212.604 95.6173C211.898 95.6173 211.355 95.0586 211.355 94.3684ZM224.429 103.702C224.051 104.523 223.18 105.23 221.734 105.23C219.499 105.23 218.07 103.39 218.07 101.056C218.07 98.7722 219.582 96.899 221.8 96.899C223.295 96.899 224.1 97.6056 224.396 98.3121V93.1196H225.711V103.521C225.711 104.31 225.76 104.836 225.793 105H224.511C224.478 104.819 224.429 104.376 224.429 103.866V103.702ZM221.931 104.031C223.476 104.031 224.429 102.782 224.429 101.056C224.429 99.3309 223.492 98.0985 221.931 98.0985C220.42 98.0985 219.401 99.3309 219.401 101.056C219.401 102.782 220.436 104.031 221.931 104.031ZM245.088 105L244.036 101.631H239.698L238.663 105H237.217L240.898 93.3496H242.853L246.55 105H245.088ZM241.867 94.5656L240.109 100.3H243.625L241.867 94.5656ZM254.382 96.4389C254.201 95.4694 253.412 94.3849 251.753 94.3849C250.405 94.3849 249.403 95.2393 249.403 96.3896C249.403 97.3262 249.978 98.0328 251.26 98.3121L252.755 98.6408C254.628 99.0516 255.713 100.218 255.713 101.861C255.713 103.636 254.283 105.23 251.901 105.23C249.419 105.23 247.941 103.57 247.727 101.927L249.025 101.516C249.156 102.831 250.389 103.948 251.966 103.948C253.511 103.948 254.333 103.028 254.333 101.944C254.333 100.974 253.692 100.268 252.476 100.005L250.948 99.676C249.173 99.2981 248.023 98.1807 248.023 96.4224C248.023 94.5985 249.666 93.1196 251.769 93.1196C254.283 93.1196 255.351 94.6478 255.647 95.9952L254.382 96.4389ZM271.688 105.23C269.536 105.23 267.695 103.603 267.695 101.056C267.695 98.4765 269.602 96.899 271.672 96.899C273.808 96.899 274.958 98.1314 275.287 99.3967L274.088 99.8896C273.874 99.068 273.151 98.1314 271.672 98.1314C270.374 98.1314 269.026 99.1173 269.026 101.056C269.026 102.979 270.374 103.998 271.688 103.998C273.266 103.998 273.907 102.93 274.137 102.223L275.287 102.716C274.909 103.883 273.759 105.23 271.688 105.23ZM281.295 105.23C279.027 105.23 277.351 103.488 277.351 101.056C277.351 98.6408 279.027 96.899 281.295 96.899C283.562 96.899 285.239 98.6408 285.239 101.056C285.239 103.488 283.562 105.23 281.295 105.23ZM281.295 104.031C282.708 104.031 283.908 102.962 283.908 101.056C283.908 99.1666 282.708 98.0985 281.295 98.0985C279.882 98.0985 278.682 99.1666 278.682 101.056C278.682 102.962 279.882 104.031 281.295 104.031ZM288.305 98.0821C288.584 97.3262 289.192 96.9811 289.932 96.9811C290.671 96.9811 291.312 97.3755 291.476 98.2464C291.772 97.4577 292.413 96.9811 293.35 96.9811C294.352 96.9811 295.321 97.4577 295.321 99.3309V105H294.089V99.5281C294.089 98.4929 293.678 98.1643 293.021 98.1643C292.364 98.1643 291.821 98.6243 291.821 99.7582V105H290.605V99.5774C290.605 98.5586 290.211 98.1643 289.554 98.1643C288.88 98.1643 288.338 98.5751 288.338 99.7746V105H287.105V97.129H288.305V98.0821ZM297.451 97.129H298.733V98.4436C299.094 97.6384 299.982 96.899 301.461 96.899C303.81 96.899 305.109 98.7394 305.109 101.056C305.109 103.406 303.695 105.23 301.395 105.23C299.998 105.23 299.127 104.606 298.766 103.899V108.122H297.451V97.129ZM301.231 104.047C302.759 104.047 303.778 102.798 303.778 101.056C303.778 99.3145 302.759 98.0821 301.231 98.0821C299.719 98.0821 298.733 99.3145 298.733 101.056C298.733 102.798 299.735 104.047 301.231 104.047ZM307.37 102.88C307.37 101.5 308.405 100.777 309.802 100.58L312.069 100.251C312.661 100.169 312.776 99.9061 312.776 99.5445C312.776 98.7065 312.151 98.0821 310.886 98.0821C309.654 98.0821 308.865 98.7722 308.766 99.676L307.518 99.4131C307.682 97.9506 309.079 96.899 310.853 96.899C313.121 96.899 314.074 98.1478 314.074 99.676V103.521C314.074 104.178 314.173 104.754 314.238 105H312.957C312.907 104.852 312.809 104.326 312.809 103.817C312.562 104.458 311.626 105.23 310.147 105.23C308.339 105.23 307.37 104.063 307.37 102.88ZM310.344 104.031C311.626 104.031 312.776 103.291 312.776 101.714V101.155L310.065 101.549C309.276 101.664 308.684 102.075 308.684 102.782C308.684 103.455 309.177 104.031 310.344 104.031ZM317.354 97.129H318.636V98.2793C319.129 97.3426 320.115 96.899 321.199 96.899C323.253 96.899 324.239 98.2957 324.239 100.038V105H322.925V100.3C322.925 99.1666 322.415 98.1314 320.887 98.1314C319.638 98.1314 318.669 99.068 318.669 100.58V105H317.354V97.129ZM333.221 97.129H334.667L329.294 108.122H327.831L329.984 103.8L326.451 97.129H327.979L330.674 102.387L333.221 97.129ZM336.386 105H344.438V106.101H336.386V105ZM346.913 103.817H349.936V98.3121H347.258V97.129H351.251V103.817H354.274V105H346.913V103.817ZM349.295 94.3684C349.295 93.6783 349.837 93.136 350.544 93.136C351.218 93.136 351.76 93.6783 351.76 94.3684C351.76 95.0586 351.218 95.6173 350.544 95.6173C349.837 95.6173 349.295 95.0586 349.295 94.3684ZM362.369 103.702C361.991 104.523 361.12 105.23 359.674 105.23C357.439 105.23 356.009 103.39 356.009 101.056C356.009 98.7722 357.521 96.899 359.74 96.899C361.235 96.899 362.04 97.6056 362.336 98.3121V93.1196H363.65V103.521C363.65 104.31 363.7 104.836 363.733 105H362.451C362.418 104.819 362.369 104.376 362.369 103.866V103.702ZM359.871 104.031C361.416 104.031 362.369 102.782 362.369 101.056C362.369 99.3309 361.432 98.0985 359.871 98.0985C358.359 98.0985 357.34 99.3309 357.34 101.056C357.34 102.782 358.376 104.031 359.871 104.031ZM368.491 103.8C368.491 103.061 369.05 102.486 369.872 102.486C370.677 102.486 371.383 103.094 371.383 104.293C371.383 106.808 369.592 107.958 368.048 108.171V107.235C369.379 106.988 370.233 106.002 370.233 104.967C370.168 105 369.97 105.082 369.74 105.082C369.034 105.082 368.491 104.573 368.491 103.8ZM66.7837 128.702C66.4057 129.523 65.5348 130.23 64.0888 130.23C61.854 130.23 60.4244 128.39 60.4244 126.056C60.4244 123.772 61.9362 121.899 64.1545 121.899C65.6498 121.899 66.455 122.606 66.7508 123.312V118.12H68.0654V128.521C68.0654 129.31 68.1147 129.836 68.1475 130H66.8658C66.833 129.819 66.7837 129.376 66.7837 128.866V128.702ZM64.286 129.031C65.8306 129.031 66.7837 127.782 66.7837 126.056C66.7837 124.331 65.847 123.099 64.286 123.099C62.7742 123.099 61.7554 124.331 61.7554 126.056C61.7554 127.782 62.7907 129.031 64.286 129.031ZM70.9017 127.88C70.9017 126.5 71.9369 125.777 73.3336 125.58L75.6013 125.251C76.1928 125.169 76.3079 124.906 76.3079 124.545C76.3079 123.707 75.6834 123.082 74.4182 123.082C73.1858 123.082 72.397 123.772 72.2984 124.676L71.0496 124.413C71.2139 122.951 72.6106 121.899 74.3853 121.899C76.6529 121.899 77.606 123.148 77.606 124.676V128.521C77.606 129.178 77.7046 129.754 77.7703 130H76.4886C76.4393 129.852 76.3407 129.326 76.3407 128.817C76.0942 129.458 75.1576 130.23 73.6787 130.23C71.8712 130.23 70.9017 129.063 70.9017 127.88ZM73.8759 129.031C75.1576 129.031 76.3079 128.291 76.3079 126.714V126.155L73.5966 126.549C72.8078 126.664 72.2163 127.075 72.2163 127.782C72.2163 128.455 72.7092 129.031 73.8759 129.031ZM87.426 122.129V123.329H84.4189V127.519C84.4189 128.439 84.994 128.883 85.8485 128.883C86.3907 128.883 87.0973 128.784 87.426 128.669V129.869C87.0645 130 86.5058 130.131 85.7006 130.131C84.0738 130.131 83.1043 129.326 83.1043 127.765V123.329H80.5738V122.129H81.8719C82.825 122.129 83.1865 121.636 83.1865 120.765V119.352H84.4189V122.129H87.426ZM90.6074 127.88C90.6074 126.5 91.6426 125.777 93.0393 125.58L95.3069 125.251C95.8985 125.169 96.0135 124.906 96.0135 124.545C96.0135 123.707 95.3891 123.082 94.1238 123.082C92.8914 123.082 92.1027 123.772 92.0041 124.676L90.7553 124.413C90.9196 122.951 92.3163 121.899 94.091 121.899C96.3586 121.899 97.3117 123.148 97.3117 124.676V128.521C97.3117 129.178 97.4102 129.754 97.476 130H96.1943C96.145 129.852 96.0464 129.326 96.0464 128.817C95.7999 129.458 94.8633 130.23 93.3844 130.23C91.5769 130.23 90.6074 129.063 90.6074 127.88ZM93.5816 129.031C94.8633 129.031 96.0135 128.291 96.0135 126.714V126.155L93.3022 126.549C92.5135 126.664 91.9219 127.075 91.9219 127.782C91.9219 128.455 92.4149 129.031 93.5816 129.031ZM102.58 128.751C102.58 127.979 103.188 127.387 103.927 127.387C104.683 127.387 105.291 127.979 105.291 128.751C105.291 129.523 104.683 130.099 103.927 130.099C103.188 130.099 102.58 129.523 102.58 128.751ZM113.09 122.211H114.569L116.081 128.439L117.149 122.129H118.398L116.952 130H115.374L113.797 123.608L112.285 130H110.724L109.196 122.129H110.477L111.595 128.439L113.09 122.211ZM123.649 130.23C121.382 130.23 119.706 128.488 119.706 126.056C119.706 123.641 121.382 121.899 123.649 121.899C125.917 121.899 127.593 123.641 127.593 126.056C127.593 128.488 125.917 130.23 123.649 130.23ZM123.649 129.031C125.063 129.031 126.262 127.962 126.262 126.056C126.262 124.167 125.063 123.099 123.649 123.099C122.236 123.099 121.037 124.167 121.037 126.056C121.037 127.962 122.236 129.031 123.649 129.031ZM137.216 123.575C137.002 123.509 136.674 123.427 136.115 123.427C134.488 123.427 133.617 124.347 133.617 126.155V128.833H136.099V130H129.969V128.833H132.303V123.296H130.216V122.129H133.584V123.674C134.045 122.458 135.195 122.014 136.131 122.014C136.707 122.014 137.019 122.096 137.216 122.162V123.575ZM140.315 130V118.12H141.63V126.04L145.804 122.129H147.627L144.062 125.432L147.71 130H145.984L143.076 126.352L141.63 127.7V130H140.315ZM153.471 130.23C151.253 130.23 150.135 128.8 149.922 127.913L151.121 127.42C151.351 128.242 152.189 129.047 153.504 129.047C154.555 129.047 155.163 128.554 155.163 127.913C155.163 127.338 154.785 126.993 153.915 126.812L152.386 126.5C150.907 126.204 150.25 125.35 150.25 124.331C150.25 123 151.483 121.899 153.224 121.899C154.983 121.899 156.116 122.803 156.478 124.052L155.361 124.495C155.098 123.739 154.424 123.049 153.224 123.049C152.222 123.049 151.548 123.526 151.548 124.232C151.548 124.742 151.861 125.136 152.649 125.284L154.145 125.58C155.706 125.892 156.478 126.664 156.478 127.847C156.478 128.948 155.558 130.23 153.471 130.23ZM159.511 122.129H160.793V123.444C161.155 122.638 162.042 121.899 163.521 121.899C165.871 121.899 167.169 123.739 167.169 126.056C167.169 128.406 165.756 130.23 163.455 130.23C162.058 130.23 161.188 129.606 160.826 128.899V133.122H159.511V122.129ZM163.291 129.047C164.819 129.047 165.838 127.798 165.838 126.056C165.838 124.314 164.819 123.082 163.291 123.082C161.779 123.082 160.793 124.314 160.793 126.056C160.793 127.798 161.796 129.047 163.291 129.047ZM169.43 127.88C169.43 126.5 170.465 125.777 171.862 125.58L174.13 125.251C174.721 125.169 174.836 124.906 174.836 124.545C174.836 123.707 174.212 123.082 172.947 123.082C171.714 123.082 170.925 123.772 170.827 124.676L169.578 124.413C169.742 122.951 171.139 121.899 172.914 121.899C175.181 121.899 176.134 123.148 176.134 124.676V128.521C176.134 129.178 176.233 129.754 176.299 130H175.017C174.968 129.852 174.869 129.326 174.869 128.817C174.623 129.458 173.686 130.23 172.207 130.23C170.4 130.23 169.43 129.063 169.43 127.88ZM172.404 129.031C173.686 129.031 174.836 128.291 174.836 126.714V126.155L172.125 126.549C171.336 126.664 170.745 127.075 170.745 127.782C170.745 128.455 171.238 129.031 172.404 129.031ZM183.013 130.23C180.86 130.23 179.02 128.603 179.02 126.056C179.02 123.476 180.926 121.899 182.997 121.899C185.133 121.899 186.283 123.131 186.612 124.397L185.412 124.89C185.198 124.068 184.475 123.131 182.997 123.131C181.698 123.131 180.351 124.117 180.351 126.056C180.351 127.979 181.698 128.998 183.013 128.998C184.59 128.998 185.231 127.93 185.461 127.223L186.612 127.716C186.234 128.883 185.083 130.23 183.013 130.23ZM192.734 130.23C190.68 130.23 188.823 128.735 188.823 126.04C188.823 123.509 190.664 121.899 192.603 121.899C194.936 121.899 196.349 123.509 196.349 125.876C196.349 126.04 196.333 126.221 196.317 126.336H190.171V126.451C190.171 127.93 191.37 129.014 192.734 129.014C194.065 129.014 194.821 128.275 195.133 127.354L196.267 127.765C195.824 129.129 194.558 130.23 192.734 130.23ZM194.986 125.218C194.92 124.052 194.065 123.066 192.619 123.066C191.305 123.066 190.286 124.084 190.204 125.218H194.986ZM198.446 130H206.498V131.101H198.446V130ZM208.973 122.129H210.255V123.279C210.748 122.343 211.733 121.899 212.818 121.899C214.872 121.899 215.858 123.296 215.858 125.038V130H214.543V125.3C214.543 124.167 214.034 123.131 212.506 123.131C211.257 123.131 210.287 124.068 210.287 125.58V130H208.973V122.129ZM218.694 127.88C218.694 126.5 219.729 125.777 221.126 125.58L223.394 125.251C223.985 125.169 224.1 124.906 224.1 124.545C224.1 123.707 223.476 123.082 222.211 123.082C220.978 123.082 220.19 123.772 220.091 124.676L218.842 124.413C219.006 122.951 220.403 121.899 222.178 121.899C224.445 121.899 225.399 123.148 225.399 124.676V128.521C225.399 129.178 225.497 129.754 225.563 130H224.281C224.232 129.852 224.133 129.326 224.133 128.817C223.887 129.458 222.95 130.23 221.471 130.23C219.664 130.23 218.694 129.063 218.694 127.88ZM221.668 129.031C222.95 129.031 224.1 128.291 224.1 126.714V126.155L221.389 126.549C220.6 126.664 220.009 127.075 220.009 127.782C220.009 128.455 220.502 129.031 221.668 129.031ZM229.188 123.082C229.467 122.326 230.075 121.981 230.815 121.981C231.554 121.981 232.195 122.376 232.359 123.246C232.655 122.458 233.296 121.981 234.233 121.981C235.235 121.981 236.204 122.458 236.204 124.331V130H234.972V124.528C234.972 123.493 234.561 123.164 233.904 123.164C233.247 123.164 232.704 123.624 232.704 124.758V130H231.488V124.577C231.488 123.559 231.094 123.164 230.437 123.164C229.763 123.164 229.221 123.575 229.221 124.775V130H227.988V122.129H229.188V123.082ZM241.999 130.23C239.944 130.23 238.088 128.735 238.088 126.04C238.088 123.509 239.928 121.899 241.867 121.899C244.2 121.899 245.614 123.509 245.614 125.876C245.614 126.04 245.597 126.221 245.581 126.336H239.435V126.451C239.435 127.93 240.635 129.014 241.999 129.014C243.33 129.014 244.085 128.275 244.398 127.354L245.531 127.765C245.088 129.129 243.822 130.23 241.999 130.23ZM244.25 125.218C244.184 124.052 243.33 123.066 241.883 123.066C240.569 123.066 239.55 124.084 239.468 125.218H244.25ZM264.793 130L263.742 126.631H259.404L258.368 130H256.922L260.603 118.35H262.559L266.256 130H264.793ZM261.573 119.566L259.814 125.3H263.331L261.573 119.566ZM274.088 121.439C273.907 120.469 273.118 119.385 271.458 119.385C270.111 119.385 269.109 120.239 269.109 121.39C269.109 122.326 269.684 123.033 270.965 123.312L272.461 123.641C274.334 124.052 275.419 125.218 275.419 126.861C275.419 128.636 273.989 130.23 271.606 130.23C269.125 130.23 267.646 128.57 267.433 126.927L268.731 126.516C268.862 127.831 270.095 128.948 271.672 128.948C273.217 128.948 274.038 128.028 274.038 126.944C274.038 125.974 273.397 125.268 272.181 125.005L270.653 124.676C268.879 124.298 267.728 123.181 267.728 121.422C267.728 119.598 269.372 118.12 271.475 118.12C273.989 118.12 275.057 119.648 275.353 120.995L274.088 121.439ZM291.394 130.23C289.242 130.23 287.401 128.603 287.401 126.056C287.401 123.476 289.307 121.899 291.378 121.899C293.514 121.899 294.664 123.131 294.993 124.397L293.793 124.89C293.58 124.068 292.857 123.131 291.378 123.131C290.08 123.131 288.732 124.117 288.732 126.056C288.732 127.979 290.08 128.998 291.394 128.998C292.972 128.998 293.612 127.93 293.843 127.223L294.993 127.716C294.615 128.883 293.465 130.23 291.394 130.23ZM301 130.23C298.733 130.23 297.057 128.488 297.057 126.056C297.057 123.641 298.733 121.899 301 121.899C303.268 121.899 304.944 123.641 304.944 126.056C304.944 128.488 303.268 130.23 301 130.23ZM301 129.031C302.414 129.031 303.613 127.962 303.613 126.056C303.613 124.167 302.414 123.099 301 123.099C299.587 123.099 298.388 124.167 298.388 126.056C298.388 127.962 299.587 129.031 301 129.031ZM308.011 123.082C308.29 122.326 308.898 121.981 309.637 121.981C310.377 121.981 311.018 122.376 311.182 123.246C311.478 122.458 312.119 121.981 313.055 121.981C314.058 121.981 315.027 122.458 315.027 124.331V130H313.795V124.528C313.795 123.493 313.384 123.164 312.727 123.164C312.069 123.164 311.527 123.624 311.527 124.758V130H310.311V124.577C310.311 123.559 309.917 123.164 309.259 123.164C308.586 123.164 308.043 123.575 308.043 124.775V130H306.811V122.129H308.011V123.082ZM317.157 122.129H318.439V123.444C318.8 122.638 319.687 121.899 321.166 121.899C323.516 121.899 324.814 123.739 324.814 126.056C324.814 128.406 323.401 130.23 321.101 130.23C319.704 130.23 318.833 129.606 318.471 128.899V133.122H317.157V122.129ZM320.936 129.047C322.464 129.047 323.483 127.798 323.483 126.056C323.483 124.314 322.464 123.082 320.936 123.082C319.424 123.082 318.439 124.314 318.439 126.056C318.439 127.798 319.441 129.047 320.936 129.047ZM327.075 127.88C327.075 126.5 328.111 125.777 329.507 125.58L331.775 125.251C332.367 125.169 332.482 124.906 332.482 124.545C332.482 123.707 331.857 123.082 330.592 123.082C329.359 123.082 328.571 123.772 328.472 124.676L327.223 124.413C327.388 122.951 328.784 121.899 330.559 121.899C332.827 121.899 333.78 123.148 333.78 124.676V128.521C333.78 129.178 333.878 129.754 333.944 130H332.662C332.613 129.852 332.514 129.326 332.514 128.817C332.268 129.458 331.331 130.23 329.852 130.23C328.045 130.23 327.075 129.063 327.075 127.88ZM330.05 129.031C331.331 129.031 332.482 128.291 332.482 126.714V126.155L329.77 126.549C328.982 126.664 328.39 127.075 328.39 127.782C328.39 128.455 328.883 129.031 330.05 129.031ZM337.06 122.129H338.341V123.279C338.834 122.343 339.82 121.899 340.905 121.899C342.959 121.899 343.945 123.296 343.945 125.038V130H342.63V125.3C342.63 124.167 342.121 123.131 340.593 123.131C339.344 123.131 338.374 124.068 338.374 125.58V130H337.06V122.129ZM352.927 122.129H354.373L348.999 133.122H347.537L349.69 128.8L346.157 122.129H347.685L350.38 127.387L352.927 122.129ZM356.092 130H364.143V131.101H356.092V130ZM366.618 122.129H367.9V123.279C368.393 122.343 369.379 121.899 370.463 121.899C372.517 121.899 373.503 123.296 373.503 125.038V130H372.189V125.3C372.189 124.167 371.679 123.131 370.151 123.131C368.902 123.131 367.933 124.068 367.933 125.58V130H366.618V122.129ZM376.34 127.88C376.34 126.5 377.375 125.777 378.772 125.58L381.039 125.251C381.631 125.169 381.746 124.906 381.746 124.545C381.746 123.707 381.121 123.082 379.856 123.082C378.624 123.082 377.835 123.772 377.736 124.676L376.487 124.413C376.652 122.951 378.049 121.899 379.823 121.899C382.091 121.899 383.044 123.148 383.044 124.676V128.521C383.044 129.178 383.142 129.754 383.208 130H381.926C381.877 129.852 381.779 129.326 381.779 128.817C381.532 129.458 380.595 130.23 379.117 130.23C377.309 130.23 376.34 129.063 376.34 127.88ZM379.314 129.031C380.595 129.031 381.746 128.291 381.746 126.714V126.155L379.034 126.549C378.246 126.664 377.654 127.075 377.654 127.782C377.654 128.455 378.147 129.031 379.314 129.031ZM386.833 123.082C387.113 122.326 387.721 121.981 388.46 121.981C389.199 121.981 389.84 122.376 390.005 123.246C390.3 122.458 390.941 121.981 391.878 121.981C392.88 121.981 393.85 122.458 393.85 124.331V130H392.617V124.528C392.617 123.493 392.207 123.164 391.549 123.164C390.892 123.164 390.35 123.624 390.35 124.758V130H389.134V124.577C389.134 123.559 388.739 123.164 388.082 123.164C387.408 123.164 386.866 123.575 386.866 124.775V130H385.634V122.129H386.833V123.082ZM399.644 130.23C397.59 130.23 395.733 128.735 395.733 126.04C395.733 123.509 397.573 121.899 399.512 121.899C401.846 121.899 403.259 123.509 403.259 125.876C403.259 126.04 403.242 126.221 403.226 126.336H397.08V126.451C397.08 127.93 398.28 129.014 399.644 129.014C400.975 129.014 401.731 128.275 402.043 127.354L403.177 127.765C402.733 129.129 401.468 130.23 399.644 130.23ZM401.895 125.218C401.829 124.052 400.975 123.066 399.529 123.066C398.214 123.066 397.195 124.084 397.113 125.218H401.895ZM407.903 128.8C407.903 128.061 408.461 127.486 409.283 127.486C410.088 127.486 410.795 128.094 410.795 129.293C410.795 131.808 409.004 132.958 407.459 133.171V132.235C408.79 131.988 409.645 131.002 409.645 129.967C409.579 130 409.382 130.082 409.152 130.082C408.445 130.082 407.903 129.573 407.903 128.8ZM111.759 149.791C111.759 146.077 113.484 143.629 115.44 142.052L116.196 142.84C114.224 144.533 112.942 146.702 112.942 149.791C112.942 152.88 114.224 155.049 116.196 156.742L115.44 157.531C113.484 155.953 111.759 153.505 111.759 149.791ZM126.344 144.911L126.657 145.913L124.52 146.636L125.934 148.493L125.079 149.134L123.649 147.228L122.302 149.117L121.448 148.476L122.811 146.636L120.659 145.913L120.987 144.911L123.107 145.65V143.35H124.208V145.634L126.344 144.911ZM135.54 149.791C135.54 153.505 133.815 155.953 131.859 157.531L131.103 156.742C133.075 155.049 134.357 152.88 134.357 149.791C134.357 146.702 133.075 144.533 131.103 142.84L131.859 142.052C133.815 143.629 135.54 146.077 135.54 149.791ZM156.412 155L155.361 151.631H151.023L149.987 155H148.541L152.222 143.35H154.177L157.875 155H156.412ZM153.192 144.566L151.433 150.3H154.95L153.192 144.566ZM165.706 146.439C165.526 145.469 164.737 144.385 163.077 144.385C161.73 144.385 160.727 145.239 160.727 146.39C160.727 147.326 161.303 148.033 162.584 148.312L164.08 148.641C165.953 149.052 167.037 150.218 167.037 151.861C167.037 153.636 165.608 155.23 163.225 155.23C160.744 155.23 159.265 153.57 159.051 151.927L160.35 151.516C160.481 152.831 161.713 153.948 163.291 153.948C164.835 153.948 165.657 153.028 165.657 151.944C165.657 150.974 165.016 150.268 163.8 150.005L162.272 149.676C160.497 149.298 159.347 148.181 159.347 146.422C159.347 144.598 160.99 143.12 163.094 143.12C165.608 143.12 166.676 144.648 166.972 145.995L165.706 146.439ZM179.283 152.88C179.283 151.5 180.318 150.777 181.715 150.58L183.982 150.251C184.574 150.169 184.689 149.906 184.689 149.545C184.689 148.707 184.065 148.082 182.799 148.082C181.567 148.082 180.778 148.772 180.68 149.676L179.431 149.413C179.595 147.951 180.992 146.899 182.766 146.899C185.034 146.899 185.987 148.148 185.987 149.676V153.521C185.987 154.178 186.086 154.754 186.151 155H184.87C184.82 154.852 184.722 154.326 184.722 153.817C184.475 154.458 183.539 155.23 182.06 155.23C180.252 155.23 179.283 154.063 179.283 152.88ZM182.257 154.031C183.539 154.031 184.689 153.291 184.689 151.714V151.155L181.978 151.549C181.189 151.664 180.597 152.075 180.597 152.782C180.597 153.455 181.09 154.031 182.257 154.031ZM189.267 153.817H192.291V148.312H189.612V147.129H193.605V153.817H196.629V155H189.267V153.817ZM191.65 144.368C191.65 143.678 192.192 143.136 192.899 143.136C193.572 143.136 194.115 143.678 194.115 144.368C194.115 145.059 193.572 145.617 192.899 145.617C192.192 145.617 191.65 145.059 191.65 144.368ZM198.446 155H206.498V156.101H198.446V155ZM212.44 155.23C210.386 155.23 208.529 153.735 208.529 151.04C208.529 148.509 210.37 146.899 212.309 146.899C214.642 146.899 216.055 148.509 216.055 150.876C216.055 151.04 216.039 151.221 216.022 151.336H209.877V151.451C209.877 152.93 211.076 154.014 212.44 154.014C213.771 154.014 214.527 153.275 214.839 152.354L215.973 152.765C215.529 154.129 214.264 155.23 212.44 155.23ZM214.691 150.218C214.625 149.052 213.771 148.066 212.325 148.066C211.01 148.066 209.992 149.084 209.909 150.218H214.691ZM221.422 155L218.037 147.129H219.516L222.194 153.702L224.889 147.129H226.319L222.95 155H221.422ZM232.146 155.23C230.092 155.23 228.235 153.735 228.235 151.04C228.235 148.509 230.075 146.899 232.014 146.899C234.348 146.899 235.761 148.509 235.761 150.876C235.761 151.04 235.744 151.221 235.728 151.336H229.582V151.451C229.582 152.93 230.782 154.014 232.146 154.014C233.477 154.014 234.233 153.275 234.545 152.354L235.679 152.765C235.235 154.129 233.97 155.23 232.146 155.23ZM234.397 150.218C234.331 149.052 233.477 148.066 232.031 148.066C230.716 148.066 229.697 149.084 229.615 150.218H234.397ZM238.531 147.129H239.813V148.279C240.306 147.343 241.292 146.899 242.376 146.899C244.43 146.899 245.416 148.296 245.416 150.038V155H244.102V150.3C244.102 149.167 243.592 148.131 242.064 148.131C240.815 148.131 239.846 149.068 239.846 150.58V155H238.531V147.129ZM254.924 147.129V148.329H251.917V152.519C251.917 153.439 252.492 153.883 253.347 153.883C253.889 153.883 254.596 153.784 254.924 153.669V154.869C254.563 155 254.004 155.131 253.199 155.131C251.572 155.131 250.603 154.326 250.603 152.765V148.329H248.072V147.129H249.37C250.323 147.129 250.685 146.636 250.685 145.765V144.352H251.917V147.129H254.924ZM257.563 155H265.615V156.101H257.563V155ZM271.688 155.23C269.536 155.23 267.695 153.603 267.695 151.056C267.695 148.476 269.602 146.899 271.672 146.899C273.808 146.899 274.958 148.131 275.287 149.397L274.088 149.89C273.874 149.068 273.151 148.131 271.672 148.131C270.374 148.131 269.026 149.117 269.026 151.056C269.026 152.979 270.374 153.998 271.688 153.998C273.266 153.998 273.907 152.93 274.137 152.223L275.287 152.716C274.909 153.883 273.759 155.23 271.688 155.23ZM281.295 155.23C279.027 155.23 277.351 153.488 277.351 151.056C277.351 148.641 279.027 146.899 281.295 146.899C283.562 146.899 285.239 148.641 285.239 151.056C285.239 153.488 283.562 155.23 281.295 155.23ZM281.295 154.031C282.708 154.031 283.908 152.962 283.908 151.056C283.908 149.167 282.708 148.099 281.295 148.099C279.882 148.099 278.682 149.167 278.682 151.056C278.682 152.962 279.882 154.031 281.295 154.031ZM293.087 153.932C292.709 154.737 291.739 155.23 290.655 155.23C288.65 155.23 287.631 153.883 287.631 152.075V147.129H288.946V151.861C288.946 152.995 289.488 154.031 290.95 154.031C292.281 154.031 293.021 153.061 293.021 151.829V147.129H294.335V153.357C294.335 153.965 294.401 154.688 294.451 155H293.185C293.12 154.77 293.087 154.326 293.087 153.932ZM297.648 147.129H298.93V148.279C299.423 147.343 300.409 146.899 301.493 146.899C303.547 146.899 304.533 148.296 304.533 150.038V155H303.219V150.3C303.219 149.167 302.709 148.131 301.181 148.131C299.932 148.131 298.963 149.068 298.963 150.58V155H297.648V147.129ZM314.041 147.129V148.329H311.034V152.519C311.034 153.439 311.609 153.883 312.464 153.883C313.006 153.883 313.713 153.784 314.041 153.669V154.869C313.68 155 313.121 155.131 312.316 155.131C310.689 155.131 309.72 154.326 309.72 152.765V148.329H307.189V147.129H308.487C309.44 147.129 309.802 146.636 309.802 145.765V144.352H311.034V147.129H314.041ZM51.3768 168.35H58.5247V169.631H52.7406V173.69H58.0975V174.972H52.7406V180H51.3768V168.35ZM62.4949 175.12V180H61.131V168.35H65.3705C67.4738 168.35 68.7884 169.861 68.7884 171.751C68.7884 173.444 67.6874 174.725 66.0442 175.005L68.7391 180H67.178L64.5653 175.12H62.4949ZM65.1569 173.871C66.5207 173.871 67.4081 173.033 67.4081 171.751C67.4081 170.453 66.5207 169.598 65.1569 169.598H62.4949V173.871H65.1569ZM74.3853 180.23C71.9041 180.23 70.1294 178.225 70.1294 174.167C70.1294 170.108 71.9041 168.12 74.3853 168.12C76.8665 168.12 78.6412 170.108 78.6412 174.167C78.6412 178.225 76.8665 180.23 74.3853 180.23ZM74.3853 178.915C76.1271 178.915 77.2609 177.42 77.2609 174.167C77.2609 170.913 76.1271 169.434 74.3853 169.434C72.6435 169.434 71.5097 170.913 71.5097 174.167C71.5097 177.42 72.6435 178.915 74.3853 178.915ZM88.2311 168.35V180H86.9659V169.796L84.8626 179.934H83.5644L81.5104 169.894V180H80.2451V168.35H82.3649L84.2381 177.552L86.1607 168.35H88.2311ZM64.6475 205.23C62.5935 205.23 60.7366 203.735 60.7366 201.04C60.7366 198.509 62.577 196.899 64.516 196.899C66.8494 196.899 68.2625 198.509 68.2625 200.876C68.2625 201.04 68.2461 201.221 68.2297 201.336H62.0841V201.451C62.0841 202.93 63.2836 204.014 64.6475 204.014C65.9785 204.014 66.7344 203.275 67.0466 202.354L68.1804 202.765C67.7367 204.129 66.4714 205.23 64.6475 205.23ZM66.8987 200.218C66.833 199.052 65.9785 198.066 64.5325 198.066C63.2179 198.066 62.1991 199.084 62.1169 200.218H66.8987ZM73.6294 205L70.2444 197.129H71.7233L74.4017 203.702L77.0966 197.129H78.5262L75.1576 205H73.6294ZM84.3532 205.23C82.2991 205.23 80.4423 203.735 80.4423 201.04C80.4423 198.509 82.2827 196.899 84.2217 196.899C86.5551 196.899 87.9682 198.509 87.9682 200.876C87.9682 201.04 87.9518 201.221 87.9354 201.336H81.7897V201.451C81.7897 202.93 82.9893 204.014 84.3532 204.014C85.6842 204.014 86.44 203.275 86.7522 202.354L87.8861 202.765C87.4424 204.129 86.1771 205.23 84.3532 205.23ZM86.6044 200.218C86.5386 199.052 85.6842 198.066 84.2381 198.066C82.9236 198.066 81.9048 199.084 81.8226 200.218H86.6044ZM90.7388 197.129H92.0205V198.279C92.5135 197.343 93.4994 196.899 94.5839 196.899C96.6379 196.899 97.6239 198.296 97.6239 200.038V205H96.3093V200.3C96.3093 199.167 95.7999 198.131 94.2717 198.131C93.0229 198.131 92.0534 199.068 92.0534 200.58V205H90.7388V197.129ZM107.132 197.129V198.329H104.125V202.519C104.125 203.439 104.7 203.883 105.554 203.883C106.096 203.883 106.803 203.784 107.132 203.669V204.869C106.77 205 106.211 205.131 105.406 205.131C103.779 205.131 102.81 204.326 102.81 202.765V198.329H100.279V197.129H101.578C102.531 197.129 102.892 196.636 102.892 195.765V194.352H104.125V197.129H107.132ZM114.06 205.23C111.841 205.23 110.724 203.8 110.51 202.913L111.71 202.42C111.94 203.242 112.778 204.047 114.092 204.047C115.144 204.047 115.752 203.554 115.752 202.913C115.752 202.338 115.374 201.993 114.503 201.812L112.975 201.5C111.496 201.204 110.839 200.35 110.839 199.331C110.839 198 112.071 196.899 113.813 196.899C115.571 196.899 116.705 197.803 117.067 199.052L115.949 199.495C115.686 198.739 115.013 198.049 113.813 198.049C112.811 198.049 112.137 198.526 112.137 199.232C112.137 199.742 112.449 200.136 113.238 200.284L114.733 200.58C116.294 200.892 117.067 201.664 117.067 202.847C117.067 203.948 116.146 205.23 114.06 205.23ZM50.0458 218.35H51.3603L52.3298 227.65L53.8745 218.448H55.3862L56.9144 227.552L58.0318 218.35H59.3135L57.7853 230H56.2571L54.6303 220.338L53.0693 230H51.3439L50.0458 218.35ZM66.9973 224.709H62.0676V230H60.7038V218.35H62.0676V223.427H66.9973V218.35H68.3611V230H66.9973V224.709ZM71.2632 218.35H78.0661V219.631H72.6271V223.542H77.7046V224.824H72.6271V228.718H78.0661V230H71.2632V218.35ZM82.2006 225.12V230H80.8367V218.35H85.0762C87.1795 218.35 88.494 219.861 88.494 221.751C88.494 223.444 87.3931 224.725 85.7499 225.005L88.4447 230H86.8837L84.271 225.12H82.2006ZM84.8626 223.871C86.2264 223.871 87.1137 223.033 87.1137 221.751C87.1137 220.453 86.2264 219.598 84.8626 219.598H82.2006V223.871H84.8626ZM90.9689 218.35H97.7718V219.631H92.3327V223.542H97.4102V224.824H92.3327V228.718H97.7718V230H90.9689V218.35ZM61.1803 247.129H62.462V248.279C62.955 247.343 63.9409 246.899 65.0254 246.899C67.0794 246.899 68.0654 248.296 68.0654 250.038V255H66.7508V250.3C66.7508 249.167 66.2414 248.131 64.7132 248.131C63.4644 248.131 62.4949 249.068 62.4949 250.58V255H61.1803V247.129ZM70.9017 252.88C70.9017 251.5 71.9369 250.777 73.3336 250.58L75.6013 250.251C76.1928 250.169 76.3079 249.906 76.3079 249.545C76.3079 248.707 75.6834 248.082 74.4182 248.082C73.1858 248.082 72.397 248.772 72.2984 249.676L71.0496 249.413C71.2139 247.951 72.6106 246.899 74.3853 246.899C76.6529 246.899 77.606 248.148 77.606 249.676V253.521C77.606 254.178 77.7046 254.754 77.7703 255H76.4886C76.4393 254.852 76.3407 254.326 76.3407 253.817C76.0942 254.458 75.1576 255.23 73.6787 255.23C71.8712 255.23 70.9017 254.063 70.9017 252.88ZM73.8759 254.031C75.1576 254.031 76.3079 253.291 76.3079 251.714V251.155L73.5966 251.549C72.8078 251.664 72.2163 252.075 72.2163 252.782C72.2163 253.455 72.7092 254.031 73.8759 254.031ZM81.3954 248.082C81.6747 247.326 82.2827 246.981 83.0222 246.981C83.7616 246.981 84.4025 247.376 84.5668 248.246C84.8626 247.458 85.5034 246.981 86.44 246.981C87.4424 246.981 88.4119 247.458 88.4119 249.331V255H87.1795V249.528C87.1795 248.493 86.7687 248.164 86.1114 248.164C85.4541 248.164 84.9118 248.624 84.9118 249.758V255H83.6959V249.577C83.6959 248.559 83.3015 248.164 82.6442 248.164C81.9705 248.164 81.4282 248.575 81.4282 249.775V255H80.1958V247.129H81.3954V248.082ZM94.206 255.23C92.152 255.23 90.2952 253.735 90.2952 251.04C90.2952 248.509 92.1355 246.899 94.0745 246.899C96.4079 246.899 97.821 248.509 97.821 250.876C97.821 251.04 97.8046 251.221 97.7882 251.336H91.6426V251.451C91.6426 252.93 92.8421 254.014 94.206 254.014C95.537 254.014 96.2929 253.275 96.6051 252.354L97.7389 252.765C97.2952 254.129 96.03 255.23 94.206 255.23ZM96.4572 250.218C96.3915 249.052 95.537 248.066 94.091 248.066C92.7764 248.066 91.7576 249.084 91.6754 250.218H96.4572ZM114.487 253.817H117.149V255H110.444V253.817H113.123V244.533H110.444V243.35H117.149V244.533H114.487V253.817ZM120.626 243.35H122.006V253.702H127.988V255H120.626V243.35ZM134.192 253.817H136.854V255H130.15V253.817H132.829V244.533H130.15V243.35H136.854V244.533H134.192V253.817ZM148.104 255H146.412L142.616 249.61L140.907 251.582V255H139.543V243.35H140.907V249.627L146.247 243.35H148.055L143.552 248.526L148.104 255ZM150.086 243.35H156.889V244.631H151.45V248.542H156.527V249.824H151.45V253.718H156.889V255H150.086V243.35ZM54.0388 274.397H58.5083V280H57.4402L57.3745 278.472C56.9801 279.392 56.2242 280.23 54.5646 280.23C52.1327 280.23 50.4237 278.34 50.4237 274.216C50.4237 270.075 52.3134 268.12 54.7618 268.12C57.7031 268.12 58.4261 270.437 58.5412 271.62L57.2759 271.932C57.0458 270.65 56.5365 269.385 54.7454 269.385C52.9707 269.385 51.7876 270.864 51.7876 274.216C51.7876 277.601 52.9378 278.998 54.6796 278.998C56.635 278.998 57.2266 277.354 57.2266 275.662H54.0388V274.397ZM62.4949 275.12V280H61.131V268.35H65.3705C67.4738 268.35 68.7884 269.861 68.7884 271.751C68.7884 273.444 67.6874 274.725 66.0442 275.005L68.7391 280H67.178L64.5653 275.12H62.4949ZM65.1569 273.871C66.5207 273.871 67.4081 273.033 67.4081 271.751C67.4081 270.453 66.5207 269.598 65.1569 269.598H62.4949V273.871H65.1569ZM74.3853 280.23C71.9041 280.23 70.1294 278.225 70.1294 274.167C70.1294 270.108 71.9041 268.12 74.3853 268.12C76.8665 268.12 78.6412 270.108 78.6412 274.167C78.6412 278.225 76.8665 280.23 74.3853 280.23ZM74.3853 278.915C76.1271 278.915 77.2609 277.42 77.2609 274.167C77.2609 270.913 76.1271 269.434 74.3853 269.434C72.6435 269.434 71.5097 270.913 71.5097 274.167C71.5097 277.42 72.6435 278.915 74.3853 278.915ZM84.2381 280.23C81.9705 280.23 80.393 279.031 80.393 276.648V268.35H81.7569V276.516C81.7569 278.061 82.7264 278.932 84.2381 278.932C85.7499 278.932 86.7194 278.061 86.7194 276.516V268.35H88.0832V276.648C88.0832 279.031 86.5058 280.23 84.2381 280.23ZM90.6074 268.35H94.9783C97.1309 268.35 98.4783 269.829 98.4783 271.768C98.4783 273.723 97.1309 275.169 94.9783 275.169H91.9712V280H90.6074V268.35ZM94.7154 273.937C96.2107 273.937 97.098 273.066 97.098 271.784C97.098 270.453 96.2107 269.582 94.7154 269.582H91.9712V273.937H94.7154ZM114.273 268.35C116.36 268.35 117.543 269.615 117.543 271.422C117.543 272.704 116.804 273.739 115.719 274.052C117.067 274.38 117.806 275.53 117.806 276.845C117.806 278.685 116.426 280 114.306 280H110.395V268.35H114.273ZM114.109 278.768C115.555 278.768 116.426 277.946 116.426 276.697C116.426 275.53 115.637 274.725 114.257 274.725H111.759V278.768H114.109ZM114.109 273.509C115.358 273.509 116.163 272.688 116.163 271.554C116.163 270.338 115.391 269.566 113.928 269.566H111.759V273.509H114.109ZM120.56 268.35L123.649 273.756L126.755 268.35H128.365L124.34 275.07V280H122.959V275.07L118.95 268.35H120.56ZM66.7837 303.702C66.4057 304.523 65.5348 305.23 64.0888 305.23C61.854 305.23 60.4244 303.39 60.4244 301.056C60.4244 298.772 61.9362 296.899 64.1545 296.899C65.6498 296.899 66.455 297.606 66.7508 298.312V293.12H68.0654V303.521C68.0654 304.31 68.1147 304.836 68.1475 305H66.8658C66.833 304.819 66.7837 304.376 66.7837 303.866V303.702ZM64.286 304.031C65.8306 304.031 66.7837 302.782 66.7837 301.056C66.7837 299.331 65.847 298.099 64.286 298.099C62.7742 298.099 61.7554 299.331 61.7554 301.056C61.7554 302.782 62.7907 304.031 64.286 304.031ZM70.9017 302.88C70.9017 301.5 71.9369 300.777 73.3336 300.58L75.6013 300.251C76.1928 300.169 76.3079 299.906 76.3079 299.545C76.3079 298.707 75.6834 298.082 74.4182 298.082C73.1858 298.082 72.397 298.772 72.2984 299.676L71.0496 299.413C71.2139 297.951 72.6106 296.899 74.3853 296.899C76.6529 296.899 77.606 298.148 77.606 299.676V303.521C77.606 304.178 77.7046 304.754 77.7703 305H76.4886C76.4393 304.852 76.3407 304.326 76.3407 303.817C76.0942 304.458 75.1576 305.23 73.6787 305.23C71.8712 305.23 70.9017 304.063 70.9017 302.88ZM73.8759 304.031C75.1576 304.031 76.3079 303.291 76.3079 301.714V301.155L73.5966 301.549C72.8078 301.664 72.2163 302.075 72.2163 302.782C72.2163 303.455 72.7092 304.031 73.8759 304.031ZM87.426 297.129V298.329H84.4189V302.519C84.4189 303.439 84.994 303.883 85.8485 303.883C86.3907 303.883 87.0973 303.784 87.426 303.669V304.869C87.0645 305 86.5058 305.131 85.7006 305.131C84.0738 305.131 83.1043 304.326 83.1043 302.765V298.329H80.5738V297.129H81.8719C82.825 297.129 83.1865 296.636 83.1865 295.765V294.352H84.4189V297.129H87.426ZM90.6074 302.88C90.6074 301.5 91.6426 300.777 93.0393 300.58L95.3069 300.251C95.8985 300.169 96.0135 299.906 96.0135 299.545C96.0135 298.707 95.3891 298.082 94.1238 298.082C92.8914 298.082 92.1027 298.772 92.0041 299.676L90.7553 299.413C90.9196 297.951 92.3163 296.899 94.091 296.899C96.3586 296.899 97.3117 298.148 97.3117 299.676V303.521C97.3117 304.178 97.4102 304.754 97.476 305H96.1943C96.145 304.852 96.0464 304.326 96.0464 303.817C95.7999 304.458 94.8633 305.23 93.3844 305.23C91.5769 305.23 90.6074 304.063 90.6074 302.88ZM93.5816 304.031C94.8633 304.031 96.0135 303.291 96.0135 301.714V301.155L93.3022 301.549C92.5135 301.664 91.9219 302.075 91.9219 302.782C91.9219 303.455 92.4149 304.031 93.5816 304.031ZM102.58 303.751C102.58 302.979 103.188 302.387 103.927 302.387C104.683 302.387 105.291 302.979 105.291 303.751C105.291 304.523 104.683 305.099 103.927 305.099C103.188 305.099 102.58 304.523 102.58 303.751ZM113.09 297.211H114.569L116.081 303.439L117.149 297.129H118.398L116.952 305H115.374L113.797 298.608L112.285 305H110.724L109.196 297.129H110.477L111.595 303.439L113.09 297.211ZM123.649 305.23C121.382 305.23 119.706 303.488 119.706 301.056C119.706 298.641 121.382 296.899 123.649 296.899C125.917 296.899 127.593 298.641 127.593 301.056C127.593 303.488 125.917 305.23 123.649 305.23ZM123.649 304.031C125.063 304.031 126.262 302.962 126.262 301.056C126.262 299.167 125.063 298.099 123.649 298.099C122.236 298.099 121.037 299.167 121.037 301.056C121.037 302.962 122.236 304.031 123.649 304.031ZM137.216 298.575C137.002 298.509 136.674 298.427 136.115 298.427C134.488 298.427 133.617 299.347 133.617 301.155V303.833H136.099V305H129.969V303.833H132.303V298.296H130.216V297.129H133.584V298.674C134.045 297.458 135.195 297.014 136.131 297.014C136.707 297.014 137.019 297.096 137.216 297.162V298.575ZM140.315 305V293.12H141.63V301.04L145.804 297.129H147.627L144.062 300.432L147.71 305H145.984L143.076 301.352L141.63 302.7V305H140.315ZM153.471 305.23C151.253 305.23 150.135 303.8 149.922 302.913L151.121 302.42C151.351 303.242 152.189 304.047 153.504 304.047C154.555 304.047 155.163 303.554 155.163 302.913C155.163 302.338 154.785 301.993 153.915 301.812L152.386 301.5C150.907 301.204 150.25 300.35 150.25 299.331C150.25 298 151.483 296.899 153.224 296.899C154.983 296.899 156.116 297.803 156.478 299.052L155.361 299.495C155.098 298.739 154.424 298.049 153.224 298.049C152.222 298.049 151.548 298.526 151.548 299.232C151.548 299.742 151.861 300.136 152.649 300.284L154.145 300.58C155.706 300.892 156.478 301.664 156.478 302.847C156.478 303.948 155.558 305.23 153.471 305.23ZM159.511 297.129H160.793V298.444C161.155 297.638 162.042 296.899 163.521 296.899C165.871 296.899 167.169 298.739 167.169 301.056C167.169 303.406 165.756 305.23 163.455 305.23C162.058 305.23 161.188 304.606 160.826 303.899V308.122H159.511V297.129ZM163.291 304.047C164.819 304.047 165.838 302.798 165.838 301.056C165.838 299.314 164.819 298.082 163.291 298.082C161.779 298.082 160.793 299.314 160.793 301.056C160.793 302.798 161.796 304.047 163.291 304.047ZM169.43 302.88C169.43 301.5 170.465 300.777 171.862 300.58L174.13 300.251C174.721 300.169 174.836 299.906 174.836 299.545C174.836 298.707 174.212 298.082 172.947 298.082C171.714 298.082 170.925 298.772 170.827 299.676L169.578 299.413C169.742 297.951 171.139 296.899 172.914 296.899C175.181 296.899 176.134 298.148 176.134 299.676V303.521C176.134 304.178 176.233 304.754 176.299 305H175.017C174.968 304.852 174.869 304.326 174.869 303.817C174.623 304.458 173.686 305.23 172.207 305.23C170.4 305.23 169.43 304.063 169.43 302.88ZM172.404 304.031C173.686 304.031 174.836 303.291 174.836 301.714V301.155L172.125 301.549C171.336 301.664 170.745 302.075 170.745 302.782C170.745 303.455 171.238 304.031 172.404 304.031ZM183.013 305.23C180.86 305.23 179.02 303.603 179.02 301.056C179.02 298.476 180.926 296.899 182.997 296.899C185.133 296.899 186.283 298.131 186.612 299.397L185.412 299.89C185.198 299.068 184.475 298.131 182.997 298.131C181.698 298.131 180.351 299.117 180.351 301.056C180.351 302.979 181.698 303.998 183.013 303.998C184.59 303.998 185.231 302.93 185.461 302.223L186.612 302.716C186.234 303.883 185.083 305.23 183.013 305.23ZM192.734 305.23C190.68 305.23 188.823 303.735 188.823 301.04C188.823 298.509 190.664 296.899 192.603 296.899C194.936 296.899 196.349 298.509 196.349 300.876C196.349 301.04 196.333 301.221 196.317 301.336H190.171V301.451C190.171 302.93 191.37 304.014 192.734 304.014C194.065 304.014 194.821 303.275 195.133 302.354L196.267 302.765C195.824 304.129 194.558 305.23 192.734 305.23ZM194.986 300.218C194.92 299.052 194.065 298.066 192.619 298.066C191.305 298.066 190.286 299.084 190.204 300.218H194.986ZM198.446 305H206.498V306.101H198.446V305ZM208.973 303.817H211.996V298.312H209.318V297.129H213.311V303.817H216.334V305H208.973V303.817ZM211.355 294.368C211.355 293.678 211.898 293.136 212.604 293.136C213.278 293.136 213.82 293.678 213.82 294.368C213.82 295.059 213.278 295.617 212.604 295.617C211.898 295.617 211.355 295.059 211.355 294.368ZM224.429 303.702C224.051 304.523 223.18 305.23 221.734 305.23C219.499 305.23 218.07 303.39 218.07 301.056C218.07 298.772 219.582 296.899 221.8 296.899C223.295 296.899 224.1 297.606 224.396 298.312V293.12H225.711V303.521C225.711 304.31 225.76 304.836 225.793 305H224.511C224.478 304.819 224.429 304.376 224.429 303.866V303.702ZM221.931 304.031C223.476 304.031 224.429 302.782 224.429 301.056C224.429 299.331 223.492 298.099 221.931 298.099C220.42 298.099 219.401 299.331 219.401 301.056C219.401 302.782 220.436 304.031 221.931 304.031ZM230.552 303.8C230.552 303.061 231.11 302.486 231.932 302.486C232.737 302.486 233.444 303.094 233.444 304.293C233.444 306.808 231.653 307.958 230.108 308.171V307.235C231.439 306.988 232.294 306.002 232.294 304.967C232.228 305 232.031 305.082 231.801 305.082C231.094 305.082 230.552 304.573 230.552 303.8ZM66.7837 328.702C66.4057 329.523 65.5348 330.23 64.0888 330.23C61.854 330.23 60.4244 328.39 60.4244 326.056C60.4244 323.772 61.9362 321.899 64.1545 321.899C65.6498 321.899 66.455 322.606 66.7508 323.312V318.12H68.0654V328.521C68.0654 329.31 68.1147 329.836 68.1475 330H66.8658C66.833 329.819 66.7837 329.376 66.7837 328.866V328.702ZM64.286 329.031C65.8306 329.031 66.7837 327.782 66.7837 326.056C66.7837 324.331 65.847 323.099 64.286 323.099C62.7742 323.099 61.7554 324.331 61.7554 326.056C61.7554 327.782 62.7907 329.031 64.286 329.031ZM70.9017 327.88C70.9017 326.5 71.9369 325.777 73.3336 325.58L75.6013 325.251C76.1928 325.169 76.3079 324.906 76.3079 324.545C76.3079 323.707 75.6834 323.082 74.4182 323.082C73.1858 323.082 72.397 323.772 72.2984 324.676L71.0496 324.413C71.2139 322.951 72.6106 321.899 74.3853 321.899C76.6529 321.899 77.606 323.148 77.606 324.676V328.521C77.606 329.178 77.7046 329.754 77.7703 330H76.4886C76.4393 329.852 76.3407 329.326 76.3407 328.817C76.0942 329.458 75.1576 330.23 73.6787 330.23C71.8712 330.23 70.9017 329.063 70.9017 327.88ZM73.8759 329.031C75.1576 329.031 76.3079 328.291 76.3079 326.714V326.155L73.5966 326.549C72.8078 326.664 72.2163 327.075 72.2163 327.782C72.2163 328.455 72.7092 329.031 73.8759 329.031ZM87.426 322.129V323.329H84.4189V327.519C84.4189 328.439 84.994 328.883 85.8485 328.883C86.3907 328.883 87.0973 328.784 87.426 328.669V329.869C87.0645 330 86.5058 330.131 85.7006 330.131C84.0738 330.131 83.1043 329.326 83.1043 327.765V323.329H80.5738V322.129H81.8719C82.825 322.129 83.1865 321.636 83.1865 320.765V319.352H84.4189V322.129H87.426ZM90.6074 327.88C90.6074 326.5 91.6426 325.777 93.0393 325.58L95.3069 325.251C95.8985 325.169 96.0135 324.906 96.0135 324.545C96.0135 323.707 95.3891 323.082 94.1238 323.082C92.8914 323.082 92.1027 323.772 92.0041 324.676L90.7553 324.413C90.9196 322.951 92.3163 321.899 94.091 321.899C96.3586 321.899 97.3117 323.148 97.3117 324.676V328.521C97.3117 329.178 97.4102 329.754 97.476 330H96.1943C96.145 329.852 96.0464 329.326 96.0464 328.817C95.7999 329.458 94.8633 330.23 93.3844 330.23C91.5769 330.23 90.6074 329.063 90.6074 327.88ZM93.5816 329.031C94.8633 329.031 96.0135 328.291 96.0135 326.714V326.155L93.3022 326.549C92.5135 326.664 91.9219 327.075 91.9219 327.782C91.9219 328.455 92.4149 329.031 93.5816 329.031ZM102.58 328.751C102.58 327.979 103.188 327.387 103.927 327.387C104.683 327.387 105.291 327.979 105.291 328.751C105.291 329.523 104.683 330.099 103.927 330.099C103.188 330.099 102.58 329.523 102.58 328.751ZM113.09 322.211H114.569L116.081 328.439L117.149 322.129H118.398L116.952 330H115.374L113.797 323.608L112.285 330H110.724L109.196 322.129H110.477L111.595 328.439L113.09 322.211ZM123.649 330.23C121.382 330.23 119.706 328.488 119.706 326.056C119.706 323.641 121.382 321.899 123.649 321.899C125.917 321.899 127.593 323.641 127.593 326.056C127.593 328.488 125.917 330.23 123.649 330.23ZM123.649 329.031C125.063 329.031 126.262 327.962 126.262 326.056C126.262 324.167 125.063 323.099 123.649 323.099C122.236 323.099 121.037 324.167 121.037 326.056C121.037 327.962 122.236 329.031 123.649 329.031ZM137.216 323.575C137.002 323.509 136.674 323.427 136.115 323.427C134.488 323.427 133.617 324.347 133.617 326.155V328.833H136.099V330H129.969V328.833H132.303V323.296H130.216V322.129H133.584V323.674C134.045 322.458 135.195 322.014 136.131 322.014C136.707 322.014 137.019 322.096 137.216 322.162V323.575ZM140.315 330V318.12H141.63V326.04L145.804 322.129H147.627L144.062 325.432L147.71 330H145.984L143.076 326.352L141.63 327.7V330H140.315ZM153.471 330.23C151.253 330.23 150.135 328.8 149.922 327.913L151.121 327.42C151.351 328.242 152.189 329.047 153.504 329.047C154.555 329.047 155.163 328.554 155.163 327.913C155.163 327.338 154.785 326.993 153.915 326.812L152.386 326.5C150.907 326.204 150.25 325.35 150.25 324.331C150.25 323 151.483 321.899 153.224 321.899C154.983 321.899 156.116 322.803 156.478 324.052L155.361 324.495C155.098 323.739 154.424 323.049 153.224 323.049C152.222 323.049 151.548 323.526 151.548 324.232C151.548 324.742 151.861 325.136 152.649 325.284L154.145 325.58C155.706 325.892 156.478 326.664 156.478 327.847C156.478 328.948 155.558 330.23 153.471 330.23ZM159.511 322.129H160.793V323.444C161.155 322.638 162.042 321.899 163.521 321.899C165.871 321.899 167.169 323.739 167.169 326.056C167.169 328.406 165.756 330.23 163.455 330.23C162.058 330.23 161.188 329.606 160.826 328.899V333.122H159.511V322.129ZM163.291 329.047C164.819 329.047 165.838 327.798 165.838 326.056C165.838 324.314 164.819 323.082 163.291 323.082C161.779 323.082 160.793 324.314 160.793 326.056C160.793 327.798 161.796 329.047 163.291 329.047ZM169.43 327.88C169.43 326.5 170.465 325.777 171.862 325.58L174.13 325.251C174.721 325.169 174.836 324.906 174.836 324.545C174.836 323.707 174.212 323.082 172.947 323.082C171.714 323.082 170.925 323.772 170.827 324.676L169.578 324.413C169.742 322.951 171.139 321.899 172.914 321.899C175.181 321.899 176.134 323.148 176.134 324.676V328.521C176.134 329.178 176.233 329.754 176.299 330H175.017C174.968 329.852 174.869 329.326 174.869 328.817C174.623 329.458 173.686 330.23 172.207 330.23C170.4 330.23 169.43 329.063 169.43 327.88ZM172.404 329.031C173.686 329.031 174.836 328.291 174.836 326.714V326.155L172.125 326.549C171.336 326.664 170.745 327.075 170.745 327.782C170.745 328.455 171.238 329.031 172.404 329.031ZM183.013 330.23C180.86 330.23 179.02 328.603 179.02 326.056C179.02 323.476 180.926 321.899 182.997 321.899C185.133 321.899 186.283 323.131 186.612 324.397L185.412 324.89C185.198 324.068 184.475 323.131 182.997 323.131C181.698 323.131 180.351 324.117 180.351 326.056C180.351 327.979 181.698 328.998 183.013 328.998C184.59 328.998 185.231 327.93 185.461 327.223L186.612 327.716C186.234 328.883 185.083 330.23 183.013 330.23ZM192.734 330.23C190.68 330.23 188.823 328.735 188.823 326.04C188.823 323.509 190.664 321.899 192.603 321.899C194.936 321.899 196.349 323.509 196.349 325.876C196.349 326.04 196.333 326.221 196.317 326.336H190.171V326.451C190.171 327.93 191.37 329.014 192.734 329.014C194.065 329.014 194.821 328.275 195.133 327.354L196.267 327.765C195.824 329.129 194.558 330.23 192.734 330.23ZM194.986 325.218C194.92 324.052 194.065 323.066 192.619 323.066C191.305 323.066 190.286 324.084 190.204 325.218H194.986ZM198.446 330H206.498V331.101H198.446V330ZM208.973 322.129H210.255V323.279C210.748 322.343 211.733 321.899 212.818 321.899C214.872 321.899 215.858 323.296 215.858 325.038V330H214.543V325.3C214.543 324.167 214.034 323.131 212.506 323.131C211.257 323.131 210.287 324.068 210.287 325.58V330H208.973V322.129ZM218.694 327.88C218.694 326.5 219.729 325.777 221.126 325.58L223.394 325.251C223.985 325.169 224.1 324.906 224.1 324.545C224.1 323.707 223.476 323.082 222.211 323.082C220.978 323.082 220.19 323.772 220.091 324.676L218.842 324.413C219.006 322.951 220.403 321.899 222.178 321.899C224.445 321.899 225.399 323.148 225.399 324.676V328.521C225.399 329.178 225.497 329.754 225.563 330H224.281C224.232 329.852 224.133 329.326 224.133 328.817C223.887 329.458 222.95 330.23 221.471 330.23C219.664 330.23 218.694 329.063 218.694 327.88ZM221.668 329.031C222.95 329.031 224.1 328.291 224.1 326.714V326.155L221.389 326.549C220.6 326.664 220.009 327.075 220.009 327.782C220.009 328.455 220.502 329.031 221.668 329.031ZM229.188 323.082C229.467 322.326 230.075 321.981 230.815 321.981C231.554 321.981 232.195 322.376 232.359 323.246C232.655 322.458 233.296 321.981 234.233 321.981C235.235 321.981 236.204 322.458 236.204 324.331V330H234.972V324.528C234.972 323.493 234.561 323.164 233.904 323.164C233.247 323.164 232.704 323.624 232.704 324.758V330H231.488V324.577C231.488 323.559 231.094 323.164 230.437 323.164C229.763 323.164 229.221 323.575 229.221 324.775V330H227.988V322.129H229.188V323.082ZM241.999 330.23C239.944 330.23 238.088 328.735 238.088 326.04C238.088 323.509 239.928 321.899 241.867 321.899C244.2 321.899 245.614 323.509 245.614 325.876C245.614 326.04 245.597 326.221 245.581 326.336H239.435V326.451C239.435 327.93 240.635 329.014 241.999 329.014C243.33 329.014 244.085 328.275 244.398 327.354L245.531 327.765C245.088 329.129 243.822 330.23 241.999 330.23ZM244.25 325.218C244.184 324.052 243.33 323.066 241.883 323.066C240.569 323.066 239.55 324.084 239.468 325.218H244.25ZM54.6796 355.23C52.1984 355.23 50.4237 353.225 50.4237 349.167C50.4237 345.108 52.1984 343.12 54.6796 343.12C57.1609 343.12 58.9355 345.108 58.9355 349.167C58.9355 353.225 57.1609 355.23 54.6796 355.23ZM54.6796 353.915C56.4214 353.915 57.5552 352.42 57.5552 349.167C57.5552 345.913 56.4214 344.434 54.6796 344.434C52.9378 344.434 51.804 345.913 51.804 349.167C51.804 352.42 52.9378 353.915 54.6796 353.915ZM62.4949 350.12V355H61.131V343.35H65.3705C67.4738 343.35 68.7884 344.861 68.7884 346.751C68.7884 348.444 67.6874 349.725 66.0442 350.005L68.7391 355H67.178L64.5653 350.12H62.4949ZM65.1569 348.871C66.5207 348.871 67.4081 348.033 67.4081 346.751C67.4081 345.453 66.5207 344.598 65.1569 344.598H62.4949V348.871H65.1569ZM70.8524 343.35H74.3196C76.7022 343.35 78.5426 345.174 78.5426 349.199C78.5426 353.209 76.7022 355 74.2867 355H70.8524V343.35ZM74.0731 353.718C75.8806 353.718 77.1788 352.371 77.1788 349.199C77.1788 346.012 75.897 344.631 74.0731 344.631H72.2327V353.718H74.0731ZM81.116 343.35H87.9189V344.631H82.4799V348.542H87.5574V349.824H82.4799V353.718H87.9189V355H81.116V343.35ZM92.0534 350.12V355H90.6895V343.35H94.929C97.0323 343.35 98.3469 344.861 98.3469 346.751C98.3469 348.444 97.2459 349.725 95.6027 350.005L98.2976 355H96.7365L94.1238 350.12H92.0534ZM94.7154 348.871C96.0792 348.871 96.9666 348.033 96.9666 346.751C96.9666 345.453 96.0792 344.598 94.7154 344.598H92.0534V348.871H94.7154ZM114.273 343.35C116.36 343.35 117.543 344.615 117.543 346.422C117.543 347.704 116.804 348.739 115.719 349.052C117.067 349.38 117.806 350.53 117.806 351.845C117.806 353.685 116.426 355 114.306 355H110.395V343.35H114.273ZM114.109 353.768C115.555 353.768 116.426 352.946 116.426 351.697C116.426 350.53 115.637 349.725 114.257 349.725H111.759V353.768H114.109ZM114.109 348.509C115.358 348.509 116.163 347.688 116.163 346.554C116.163 345.338 115.391 344.566 113.928 344.566H111.759V348.509H114.109ZM120.56 343.35L123.649 348.756L126.755 343.35H128.365L124.34 350.07V355H122.959V350.07L118.95 343.35H120.56ZM61.0489 377.88C61.0489 376.5 62.0841 375.777 63.4808 375.58L65.7484 375.251C66.34 375.169 66.455 374.906 66.455 374.545C66.455 373.707 65.8306 373.082 64.5653 373.082C63.3329 373.082 62.5442 373.772 62.4456 374.676L61.1967 374.413C61.3611 372.951 62.7578 371.899 64.5325 371.899C66.8001 371.899 67.7532 373.148 67.7532 374.676V378.521C67.7532 379.178 67.8517 379.754 67.9175 380H66.6358C66.5865 379.852 66.4879 379.326 66.4879 378.817C66.2414 379.458 65.3048 380.23 63.8259 380.23C62.0184 380.23 61.0489 379.063 61.0489 377.88ZM64.0231 379.031C65.3048 379.031 66.455 378.291 66.455 376.714V376.155L63.7437 376.549C62.955 376.664 62.3634 377.075 62.3634 377.782C62.3634 378.455 62.8564 379.031 64.0231 379.031ZM71.0331 378.817H74.0567V373.312H71.3782V372.129H75.3712V378.817H78.3947V380H71.0331V378.817ZM73.4158 369.368C73.4158 368.678 73.9581 368.136 74.6646 368.136C75.3384 368.136 75.8806 368.678 75.8806 369.368C75.8806 370.059 75.3384 370.617 74.6646 370.617C73.9581 370.617 73.4158 370.059 73.4158 369.368ZM80.2123 380H88.264V381.101H80.2123V380ZM94.206 380.23C92.152 380.23 90.2952 378.735 90.2952 376.04C90.2952 373.509 92.1355 371.899 94.0745 371.899C96.4079 371.899 97.821 373.509 97.821 375.876C97.821 376.04 97.8046 376.221 97.7882 376.336H91.6426V376.451C91.6426 377.93 92.8421 379.014 94.206 379.014C95.537 379.014 96.2929 378.275 96.6051 377.354L97.7389 377.765C97.2952 379.129 96.03 380.23 94.206 380.23ZM96.4572 375.218C96.3915 374.052 95.537 373.066 94.091 373.066C92.7764 373.066 91.7576 374.084 91.6754 375.218H96.4572ZM103.188 380L99.8029 372.129H101.282L103.96 378.702L106.655 372.129H108.085L104.716 380H103.188ZM113.912 380.23C111.858 380.23 110.001 378.735 110.001 376.04C110.001 373.509 111.841 371.899 113.78 371.899C116.114 371.899 117.527 373.509 117.527 375.876C117.527 376.04 117.51 376.221 117.494 376.336H111.348V376.451C111.348 377.93 112.548 379.014 113.912 379.014C115.243 379.014 115.999 378.275 116.311 377.354L117.445 377.765C117.001 379.129 115.736 380.23 113.912 380.23ZM116.163 375.218C116.097 374.052 115.243 373.066 113.797 373.066C112.482 373.066 111.463 374.084 111.381 375.218H116.163ZM120.297 372.129H121.579V373.279C122.072 372.343 123.058 371.899 124.142 371.899C126.196 371.899 127.182 373.296 127.182 375.038V380H125.868V375.3C125.868 374.167 125.358 373.131 123.83 373.131C122.581 373.131 121.612 374.068 121.612 375.58V380H120.297V372.129ZM136.69 372.129V373.329H133.683V377.519C133.683 378.439 134.258 378.883 135.113 378.883C135.655 378.883 136.361 378.784 136.69 378.669V379.869C136.329 380 135.77 380.131 134.965 380.131C133.338 380.131 132.368 379.326 132.368 377.765V373.329H129.838V372.129H131.136C132.089 372.129 132.451 371.636 132.451 370.765V369.352H133.683V372.129H136.69ZM139.329 380H147.381V381.101H139.329V380ZM153.454 380.23C151.302 380.23 149.461 378.603 149.461 376.056C149.461 373.476 151.368 371.899 153.438 371.899C155.574 371.899 156.724 373.131 157.053 374.397L155.854 374.89C155.64 374.068 154.917 373.131 153.438 373.131C152.14 373.131 150.792 374.117 150.792 376.056C150.792 377.979 152.14 378.998 153.454 378.998C155.032 378.998 155.673 377.93 155.903 377.223L157.053 377.716C156.675 378.883 155.525 380.23 153.454 380.23ZM163.061 380.23C160.793 380.23 159.117 378.488 159.117 376.056C159.117 373.641 160.793 371.899 163.061 371.899C165.328 371.899 167.005 373.641 167.005 376.056C167.005 378.488 165.328 380.23 163.061 380.23ZM163.061 379.031C164.474 379.031 165.674 377.962 165.674 376.056C165.674 374.167 164.474 373.099 163.061 373.099C161.648 373.099 160.448 374.167 160.448 376.056C160.448 377.962 161.648 379.031 163.061 379.031ZM174.853 378.932C174.475 379.737 173.505 380.23 172.421 380.23C170.416 380.23 169.397 378.883 169.397 377.075V372.129H170.712V376.861C170.712 377.995 171.254 379.031 172.716 379.031C174.047 379.031 174.787 378.061 174.787 376.829V372.129H176.101V378.357C176.101 378.965 176.167 379.688 176.216 380H174.951C174.885 379.77 174.853 379.326 174.853 378.932ZM179.414 372.129H180.696V373.279C181.189 372.343 182.175 371.899 183.259 371.899C185.313 371.899 186.299 373.296 186.299 375.038V380H184.985V375.3C184.985 374.167 184.475 373.131 182.947 373.131C181.698 373.131 180.729 374.068 180.729 375.58V380H179.414V372.129ZM195.807 372.129V373.329H192.8V377.519C192.8 378.439 193.375 378.883 194.23 378.883C194.772 378.883 195.478 378.784 195.807 378.669V379.869C195.446 380 194.887 380.131 194.082 380.131C192.455 380.131 191.485 379.326 191.485 377.765V373.329H188.955V372.129H190.253C191.206 372.129 191.568 371.636 191.568 370.765V369.352H192.8V372.129H195.807ZM208.792 368.35H212.259C214.642 368.35 216.482 370.174 216.482 374.199C216.482 378.209 214.642 380 212.226 380H208.792V368.35ZM212.013 378.718C213.82 378.718 215.118 377.371 215.118 374.199C215.118 371.012 213.837 369.631 212.013 369.631H210.172V378.718H212.013ZM219.056 368.35H225.859V369.631H220.42V373.542H225.497V374.824H220.42V378.718H225.859V380H219.056V368.35ZM234.676 371.439C234.495 370.469 233.707 369.385 232.047 369.385C230.7 369.385 229.697 370.239 229.697 371.39C229.697 372.326 230.272 373.033 231.554 373.312L233.049 373.641C234.923 374.052 236.007 375.218 236.007 376.861C236.007 378.636 234.578 380.23 232.195 380.23C229.714 380.23 228.235 378.57 228.021 376.927L229.319 376.516C229.451 377.831 230.683 378.948 232.261 378.948C233.805 378.948 234.627 378.028 234.627 376.944C234.627 375.974 233.986 375.268 232.77 375.005L231.242 374.676C229.467 374.298 228.317 373.181 228.317 371.422C228.317 369.598 229.96 368.12 232.064 368.12C234.578 368.12 235.646 369.648 235.941 370.995L234.676 371.439ZM242.212 368.12C245.104 368.12 245.942 370.535 246.057 371.718L244.71 371.965C244.496 370.699 243.872 369.418 242.163 369.418C240.437 369.418 239.205 370.946 239.205 374.167C239.205 377.387 240.437 378.932 242.13 378.932C243.888 378.932 244.48 377.502 244.644 376.303L245.959 376.516C245.86 377.7 244.989 380.23 242.146 380.23C239.632 380.23 237.825 378.16 237.825 374.167C237.825 370.19 239.698 368.12 242.212 368.12ZM51.6561 393.35H53.0364V403.702H59.0177V405H51.6561V393.35ZM65.2226 403.817H67.8846V405H61.1803V403.817H63.8587V394.533H61.1803V393.35H67.8846V394.533H65.2226V403.817ZM78.3783 393.35V405H77.113V394.796L75.0097 404.934H73.7116L71.6576 394.894V405H70.3923V393.35H72.512L74.3853 402.552L76.3079 393.35H78.3783ZM84.9283 403.817H87.5903V405H80.886V403.817H83.5644V394.533H80.886V393.35H87.5903V394.533H84.9283V403.817ZM94.7647 405H93.4008V394.631H89.6214V393.35H98.5441V394.631H94.7647V405Z" fill="#B392F0"/>
<path d="M64.8611 143.12C67.7532 143.12 68.5912 145.535 68.7062 146.718L67.3588 146.965C67.1452 145.699 66.5207 144.418 64.8118 144.418C63.0864 144.418 61.854 145.946 61.854 149.167C61.854 152.387 63.0864 153.932 64.7789 153.932C66.5372 153.932 67.1287 152.502 67.2931 151.303L68.6076 151.516C68.509 152.7 67.6381 155.23 64.7954 155.23C62.2813 155.23 60.4737 153.16 60.4737 149.167C60.4737 145.19 62.347 143.12 64.8611 143.12ZM74.3853 155.23C71.9041 155.23 70.1294 153.225 70.1294 149.167C70.1294 145.108 71.9041 143.12 74.3853 143.12C76.8665 143.12 78.6412 145.108 78.6412 149.167C78.6412 153.225 76.8665 155.23 74.3853 155.23ZM74.3853 153.915C76.1271 153.915 77.2609 152.42 77.2609 149.167C77.2609 145.913 76.1271 144.434 74.3853 144.434C72.6435 144.434 71.5097 145.913 71.5097 149.167C71.5097 152.42 72.6435 153.915 74.3853 153.915ZM84.2381 155.23C81.9705 155.23 80.393 154.031 80.393 151.648V143.35H81.7569V151.516C81.7569 153.061 82.7264 153.932 84.2381 153.932C85.7499 153.932 86.7194 153.061 86.7194 151.516V143.35H88.0832V151.648C88.0832 154.031 86.5058 155.23 84.2381 155.23ZM91.6097 145.404V155H90.2623V143.35H92.037L96.5722 152.519V143.35H97.9196V155H96.3422L91.6097 145.404ZM104.618 155H103.254V144.631H99.4743V143.35H108.397V144.631H104.618V155Z" fill="#0133F5"/>
<path d="M174.458 243.958C173.489 244.138 172.749 244.96 172.716 245.782C172.766 245.749 172.93 245.699 173.127 245.699C173.702 245.699 174.162 246.094 174.162 246.768C174.162 247.359 173.686 247.852 173.012 247.852C172.339 247.852 171.747 247.326 171.747 246.324C171.747 244.336 173.357 243.267 174.458 243.103V243.958ZM184.804 255.131C183.605 255.131 182.586 254.162 182.586 252.946C182.586 251.73 183.605 250.761 184.804 250.761C186.004 250.761 187.022 251.73 187.022 252.946C187.022 254.162 186.004 255.131 184.804 255.131ZM180.712 248.641C179.513 248.641 178.494 247.671 178.494 246.455C178.494 245.239 179.513 244.27 180.712 244.27C181.912 244.27 182.931 245.239 182.931 246.455C182.931 247.671 181.912 248.641 180.712 248.641ZM178.889 251.648L186.809 246.242V247.523L178.889 252.93V251.648ZM184.804 254.113C185.461 254.113 185.971 253.62 185.971 252.946C185.971 252.272 185.461 251.779 184.804 251.779C184.147 251.779 183.637 252.272 183.637 252.946C183.637 253.62 184.147 254.113 184.804 254.113ZM180.712 247.622C181.37 247.622 181.879 247.129 181.879 246.455C181.879 245.782 181.37 245.289 180.712 245.289C180.055 245.289 179.546 245.782 179.546 246.455C179.546 247.129 180.055 247.622 180.712 247.622ZM189.136 252.88C189.136 251.5 190.171 250.777 191.568 250.58L193.835 250.251C194.427 250.169 194.542 249.906 194.542 249.545C194.542 248.707 193.917 248.082 192.652 248.082C191.42 248.082 190.631 248.772 190.532 249.676L189.284 249.413C189.448 247.951 190.845 246.899 192.619 246.899C194.887 246.899 195.84 248.148 195.84 249.676V253.521C195.84 254.178 195.939 254.754 196.004 255H194.723C194.673 254.852 194.575 254.326 194.575 253.817C194.328 254.458 193.392 255.23 191.913 255.23C190.105 255.23 189.136 254.063 189.136 252.88ZM192.11 254.031C193.392 254.031 194.542 253.291 194.542 251.714V251.155L191.831 251.549C191.042 251.664 190.45 252.075 190.45 252.782C190.45 253.455 190.943 254.031 192.11 254.031ZM199.12 253.817H202.144V248.312H199.465V247.129H203.458V253.817H206.482V255H199.12V253.817ZM201.503 244.368C201.503 243.678 202.045 243.136 202.751 243.136C203.425 243.136 203.967 243.678 203.967 244.368C203.967 245.059 203.425 245.617 202.751 245.617C202.045 245.617 201.503 245.059 201.503 244.368ZM214.363 255.131C213.163 255.131 212.144 254.162 212.144 252.946C212.144 251.73 213.163 250.761 214.363 250.761C215.562 250.761 216.581 251.73 216.581 252.946C216.581 254.162 215.562 255.131 214.363 255.131ZM210.271 248.641C209.071 248.641 208.053 247.671 208.053 246.455C208.053 245.239 209.071 244.27 210.271 244.27C211.471 244.27 212.489 245.239 212.489 246.455C212.489 247.671 211.471 248.641 210.271 248.641ZM208.447 251.648L216.367 246.242V247.523L208.447 252.93V251.648ZM214.363 254.113C215.02 254.113 215.529 253.62 215.529 252.946C215.529 252.272 215.02 251.779 214.363 251.779C213.705 251.779 213.196 252.272 213.196 252.946C213.196 253.62 213.705 254.113 214.363 254.113ZM210.271 247.622C210.928 247.622 211.438 247.129 211.438 246.455C211.438 245.782 210.928 245.289 210.271 245.289C209.614 245.289 209.104 245.782 209.104 246.455C209.104 247.129 209.614 247.622 210.271 247.622ZM220.666 247.096C221.636 246.915 222.375 246.094 222.408 245.272C222.359 245.305 222.194 245.354 221.997 245.354C221.422 245.354 220.962 244.96 220.962 244.286C220.962 243.695 221.438 243.202 222.112 243.202C222.786 243.202 223.377 243.728 223.377 244.73C223.377 246.718 221.767 247.786 220.666 247.951V247.096Z" fill="#FB5536"/>
<path d="M64.1545 428.768V422.392H61.131V421.488C62.9878 421.488 64.2203 420.634 64.286 419.352H65.502V428.768H68.2297V430H61.3446V428.768H64.1545ZM77.491 420.749C78.2304 421.817 78.444 423.23 78.444 424.676C78.444 426.122 78.2304 427.535 77.491 428.603C76.8172 429.589 75.782 430.23 74.3853 430.23C72.9886 430.23 71.9533 429.589 71.2796 428.603C70.5402 427.535 70.3266 426.122 70.3266 424.676C70.3266 423.23 70.5402 421.817 71.2796 420.749C71.9533 419.763 72.9886 419.122 74.3853 419.122C75.782 419.122 76.8172 419.763 77.491 420.749ZM72.6435 421.094C71.9533 421.85 71.674 423.066 71.674 424.676C71.674 425.645 71.7726 426.484 72.0026 427.157L76.275 421.258L76.1271 421.094C75.6999 420.634 75.1247 420.371 74.3853 420.371C73.613 420.371 73.0707 420.634 72.6435 421.094ZM76.1271 428.258C76.8172 427.502 77.0966 426.286 77.0966 424.676C77.0966 423.756 76.998 422.951 76.8008 422.31L72.5613 428.176C73.0214 428.685 73.5637 428.981 74.3853 428.981C75.1247 428.981 75.6999 428.718 76.1271 428.258ZM87.3438 420.749C88.0832 421.817 88.2969 423.23 88.2969 424.676C88.2969 426.122 88.0832 427.535 87.3438 428.603C86.6701 429.589 85.6349 430.23 84.2381 430.23C82.8414 430.23 81.8062 429.589 81.1325 428.603C80.393 427.535 80.1794 426.122 80.1794 424.676C80.1794 423.23 80.393 421.817 81.1325 420.749C81.8062 419.763 82.8414 419.122 84.2381 419.122C85.6349 419.122 86.6701 419.763 87.3438 420.749ZM82.4963 421.094C81.8062 421.85 81.5268 423.066 81.5268 424.676C81.5268 425.645 81.6254 426.484 81.8555 427.157L86.1278 421.258L85.9799 421.094C85.5527 420.634 84.9776 420.371 84.2381 420.371C83.4658 420.371 82.9236 420.634 82.4963 421.094ZM85.9799 428.258C86.6701 427.502 86.9494 426.286 86.9494 424.676C86.9494 423.756 86.8508 422.951 86.6536 422.31L82.4142 428.176C82.8743 428.685 83.4165 428.981 84.2381 428.981C84.9776 428.981 85.5527 428.718 85.9799 428.258ZM97.1966 420.749C97.9361 421.817 98.1497 423.23 98.1497 424.676C98.1497 426.122 97.9361 427.535 97.1966 428.603C96.5229 429.589 95.4877 430.23 94.091 430.23C92.6942 430.23 91.659 429.589 90.9853 428.603C90.2459 427.535 90.0322 426.122 90.0322 424.676C90.0322 423.23 90.2459 421.817 90.9853 420.749C91.659 419.763 92.6942 419.122 94.091 419.122C95.4877 419.122 96.5229 419.763 97.1966 420.749ZM92.3492 421.094C91.659 421.85 91.3797 423.066 91.3797 424.676C91.3797 425.645 91.4783 426.484 91.7083 427.157L95.9807 421.258L95.8328 421.094C95.4055 420.634 94.8304 420.371 94.091 420.371C93.3187 420.371 92.7764 420.634 92.3492 421.094ZM95.8328 428.258C96.5229 427.502 96.8023 426.286 96.8023 424.676C96.8023 423.756 96.7037 422.951 96.5065 422.31L92.267 428.176C92.7271 428.685 93.2694 428.981 94.091 428.981C94.8304 428.981 95.4055 428.718 95.8328 428.258Z" fill="#FFE39B"/>
<path d="M29.1989 78.6768V72.3011H26.1753V71.3974C28.0322 71.3974 29.2646 70.5429 29.3303 69.2612H30.5463V78.6768H33.274V79.9092H26.389V78.6768H29.1989ZM26.0932 97.9091C26.0603 97.7612 26.0439 97.5805 26.0439 97.4326C26.0439 95.6086 27.4571 94.0311 29.7411 94.0311C31.943 94.0311 33.2576 95.4936 33.2576 97.2518C33.2576 98.6486 32.3867 99.7495 31.1707 100.522L28.9852 101.919C28.3444 102.329 27.7528 102.888 27.6214 103.66H33.3562V104.909H25.9453C25.9782 103.266 26.6354 101.951 28.3444 100.85L30.2505 99.618C31.2857 98.9443 31.8773 98.2049 31.8773 97.2683C31.8773 96.2166 31.1214 95.2471 29.7082 95.2471C28.2622 95.2471 27.3913 96.2495 27.3913 97.564C27.3913 97.7448 27.4078 97.942 27.4406 98.0734L26.0932 97.9091ZM29.8726 123.484C31.6801 123.484 33.274 124.651 33.274 126.754C33.274 128.562 31.8773 130.139 29.4782 130.139C27.1613 130.139 25.6988 128.595 25.5509 126.82L26.8984 126.557C27.0134 128.019 28.1472 128.907 29.4618 128.907C30.9407 128.907 31.9101 128.003 31.9101 126.787C31.9101 125.374 30.9407 124.667 29.5768 124.667C29.2317 124.667 28.9031 124.7 28.6073 124.782L27.9664 123.632L31.2693 120.51H25.8796V119.261H33.044V120.494L29.8726 123.484ZM30.3327 144.261H32.2224V151.179H34.0792V152.428H32.2224V154.909H30.8749V152.428H25.6331V150.85L30.3327 144.261ZM26.8984 151.179H30.8749V145.592L26.8984 151.179ZM27.0298 176.606C27.1284 177.97 28.1636 178.94 29.5768 178.94C30.9735 178.94 32.0416 178.003 32.0416 176.606C32.0416 175.078 30.9407 174.224 29.5768 174.224C28.7716 174.224 27.9993 174.536 27.4735 175.111L26.1589 174.585L27.4242 169.261H33.1754V170.51H28.3608L27.5556 173.895C28.0979 173.303 29.0181 173.024 29.8726 173.024C31.9759 173.024 33.4219 174.421 33.4219 176.557C33.4219 178.545 31.9101 180.139 29.5768 180.139C27.4078 180.139 25.8631 178.66 25.7153 176.984L27.0298 176.606ZM32.9782 195.74C32.6003 195.494 31.8937 195.247 30.9407 195.247C28.4923 195.247 27.112 197.17 27.0134 199.569C27.4078 198.698 28.4923 197.893 30.004 197.893C32.058 197.893 33.6027 199.257 33.6027 201.524C33.6027 203.743 31.8116 205.139 29.7575 205.139C27.6049 205.139 25.6331 203.595 25.6331 200.16C25.6331 196.184 28.0486 194.031 31.0228 194.031C32.0745 194.031 32.8961 194.278 33.4055 194.623L32.9782 195.74ZM27.2599 201.524C27.2599 203.003 28.4594 203.923 29.7411 203.923C31.0885 203.923 32.2224 203.019 32.2224 201.524C32.2224 200.012 31.0721 199.076 29.7411 199.076C28.4101 199.076 27.2599 200.012 27.2599 201.524ZM33.2576 220.576C31.8609 221.808 29.1496 224.536 28.6237 229.909H27.2106C27.72 224.059 31.105 221.069 31.713 220.51H25.5509V219.261H33.2576V220.576ZM29.6754 255.139C27.2763 255.139 25.8796 253.792 25.8796 252.116C25.8796 250.801 26.7833 249.832 27.9664 249.454C26.9477 249.109 26.1425 248.139 26.1425 246.94C26.1425 245.247 27.6378 244.031 29.6754 244.031C31.713 244.031 33.2083 245.247 33.2083 246.94C33.2083 248.123 32.4031 249.109 31.3679 249.454C32.551 249.815 33.4712 250.801 33.4712 252.116C33.4712 253.792 32.0745 255.139 29.6754 255.139ZM29.6754 253.956C31.2036 253.956 32.0909 253.085 32.0909 252.001C32.0909 250.916 31.2036 250.029 29.6754 250.029C28.1308 250.029 27.2599 250.916 27.2599 252.001C27.2599 253.085 28.1308 253.956 29.6754 253.956ZM29.6754 248.879C30.9242 248.879 31.8444 248.123 31.8444 247.022C31.8444 245.97 30.99 245.181 29.6754 245.181C28.3444 245.181 27.5063 245.97 27.5063 247.022C27.5063 248.123 28.4101 248.879 29.6754 248.879ZM26.1753 278.348C26.7012 278.644 27.5556 278.858 28.2787 278.858C30.8421 278.858 32.0416 277.083 32.0416 274.437C31.6637 275.341 30.6284 276.081 29.1989 276.081C27.4406 276.081 25.666 274.832 25.666 272.58C25.666 270.477 27.4406 269.031 29.396 269.031C31.5979 269.031 33.4055 270.724 33.4055 274.142C33.4055 277.757 31.7623 280.139 28.3115 280.139C27.3749 280.139 26.2904 279.893 25.7153 279.531L26.1753 278.348ZM31.7787 272.564C31.7787 271.151 30.6284 270.264 29.396 270.264C28.1965 270.264 27.0134 271.151 27.0134 272.564C27.0134 274.01 28.1801 274.865 29.396 274.865C30.6449 274.865 31.7787 273.961 31.7787 272.564ZM19.346 303.677V297.301H16.3225V296.397C18.1793 296.397 19.4117 295.543 19.4775 294.261H20.6935V303.677H23.4212V304.909H16.5361V303.677H19.346ZM32.6825 295.658C33.4219 296.726 33.6355 298.139 33.6355 299.585C33.6355 301.031 33.4219 302.444 32.6825 303.512C32.0087 304.498 30.9735 305.139 29.5768 305.139C28.1801 305.139 27.1448 304.498 26.4711 303.512C25.7317 302.444 25.5181 301.031 25.5181 299.585C25.5181 298.139 25.7317 296.726 26.4711 295.658C27.1448 294.672 28.1801 294.031 29.5768 294.031C30.9735 294.031 32.0087 294.672 32.6825 295.658ZM27.835 296.003C27.1448 296.759 26.8655 297.975 26.8655 299.585C26.8655 300.555 26.9641 301.393 27.1941 302.066L31.4665 296.167L31.3186 296.003C30.8914 295.543 30.3162 295.28 29.5768 295.28C28.8045 295.28 28.2622 295.543 27.835 296.003ZM31.3186 303.167C32.0087 302.412 32.2881 301.196 32.2881 299.585C32.2881 298.665 32.1895 297.86 31.9923 297.219L27.7528 303.085C28.2129 303.595 28.7552 303.89 29.5768 303.89C30.3162 303.89 30.8914 303.627 31.3186 303.167ZM19.346 328.677V322.301H16.3225V321.397C18.1793 321.397 19.4117 320.543 19.4775 319.261H20.6935V328.677H23.4212V329.909H16.5361V328.677H19.346ZM29.1989 328.677V322.301H26.1753V321.397C28.0322 321.397 29.2646 320.543 29.3303 319.261H30.5463V328.677H33.274V329.909H26.389V328.677H29.1989ZM19.346 353.677V347.301H16.3225V346.397C18.1793 346.397 19.4117 345.543 19.4775 344.261H20.6935V353.677H23.4212V354.909H16.5361V353.677H19.346ZM26.0932 347.909C26.0603 347.761 26.0439 347.58 26.0439 347.433C26.0439 345.609 27.4571 344.031 29.7411 344.031C31.943 344.031 33.2576 345.494 33.2576 347.252C33.2576 348.649 32.3867 349.75 31.1707 350.522L28.9852 351.919C28.3444 352.329 27.7528 352.888 27.6214 353.66H33.3562V354.909H25.9453C25.9782 353.266 26.6354 351.951 28.3444 350.85L30.2505 349.618C31.2857 348.944 31.8773 348.205 31.8773 347.268C31.8773 346.217 31.1214 345.247 29.7082 345.247C28.2622 345.247 27.3913 346.249 27.3913 347.564C27.3913 347.745 27.4078 347.942 27.4406 348.073L26.0932 347.909ZM19.346 378.677V372.301H16.3225V371.397C18.1793 371.397 19.4117 370.543 19.4775 369.261H20.6935V378.677H23.4212V379.909H16.5361V378.677H19.346ZM29.8726 373.484C31.6801 373.484 33.274 374.651 33.274 376.754C33.274 378.562 31.8773 380.139 29.4782 380.139C27.1613 380.139 25.6988 378.595 25.5509 376.82L26.8984 376.557C27.0134 378.019 28.1472 378.907 29.4618 378.907C30.9407 378.907 31.9101 378.003 31.9101 376.787C31.9101 375.374 30.9407 374.667 29.5768 374.667C29.2317 374.667 28.9031 374.7 28.6073 374.782L27.9664 373.632L31.2693 370.51H25.8796V369.261H33.044V370.494L29.8726 373.484ZM19.346 403.677V397.301H16.3225V396.397C18.1793 396.397 19.4117 395.543 19.4775 394.261H20.6935V403.677H23.4212V404.909H16.5361V403.677H19.346ZM30.3327 394.261H32.2224V401.179H34.0792V402.428H32.2224V404.909H30.8749V402.428H25.6331V400.85L30.3327 394.261ZM26.8984 401.179H30.8749V395.592L26.8984 401.179ZM19.346 428.677V422.301H16.3225V421.397C18.1793 421.397 19.4117 420.543 19.4775 419.261H20.6935V428.677H23.4212V429.909H16.5361V428.677H19.346ZM27.0298 426.606C27.1284 427.97 28.1636 428.94 29.5768 428.94C30.9735 428.94 32.0416 428.003 32.0416 426.606C32.0416 425.078 30.9407 424.224 29.5768 424.224C28.7716 424.224 27.9993 424.536 27.4735 425.111L26.1589 424.585L27.4242 419.261H33.1754V420.51H28.3608L27.5556 423.895C28.0979 423.303 29.0181 423.024 29.8726 423.024C31.9759 423.024 33.4219 424.421 33.4219 426.557C33.4219 428.545 31.9101 430.139 29.5768 430.139C27.4078 430.139 25.8631 428.66 25.7153 426.984L27.0298 426.606Z" fill="white"/>
</svg>
