<svg width="370" height="485" viewBox="0 0 370 485" fill="none" xmlns="http://www.w3.org/2000/svg">
<path d="M1.61719 31.5H369.117" stroke="white"/>
<path d="M1.61719 326H369.117" stroke="white"/>
<g opacity="0.4">
<rect x="0.5" y="-0.5" width="332" height="30" transform="matrix(1 -2.46186e-08 -3.10446e-07 -1 18.1172 115.242)" stroke="white"/>
<path d="M30.8926 105.242V104.25H32.9681V98.2518H30.8926V97.2597H36.1953V98.2518H34.04V104.25H36.1953V105.242H30.8926ZM37.7075 105.242V97.2597H39.2127L42.0636 103.133C42.0294 102.494 42.0066 101.844 42.0066 101.205V97.2597H43.0557V105.242H41.9838L38.6996 98.4799C38.7338 99.1983 38.7566 99.9282 38.7566 100.647V105.242H37.7075ZM47.339 105.402C45.446 105.402 44.3399 103.885 44.3399 101.251C44.3399 98.6053 45.446 97.1001 47.339 97.1001C48.7872 97.1001 49.7565 98.001 50.1442 99.6089L49.1065 99.8597C48.8442 98.6852 48.2513 98.0808 47.339 98.0808C46.1074 98.0808 45.4574 99.1527 45.4574 101.251C45.4574 103.349 46.1074 104.421 47.339 104.421C48.2627 104.421 48.8671 103.828 49.1293 102.585L50.1671 102.847C49.7907 104.501 48.7872 105.402 47.339 105.402ZM51.4056 105.242V104.25H53.481V98.2518H51.4056V97.2597H56.7082V98.2518H54.5529V104.25H56.7082V105.242H51.4056ZM58.1976 105.242V97.2597H60.3871C62.5424 97.2597 63.8424 98.7878 63.8424 101.251C63.8424 103.714 62.5424 105.242 60.3871 105.242H58.1976ZM59.2695 104.261H60.3301C61.9152 104.261 62.7362 103.235 62.7362 101.251C62.7362 99.2667 61.9152 98.2404 60.3187 98.2404H59.2695V104.261ZM65.2519 105.242V97.2597H70.4861V98.2518H66.3239V100.612H69.3344V101.593H66.3239V104.25H70.4861V105.242H65.2519ZM71.8957 105.242V97.2597H73.401L76.2519 103.133C76.2177 102.494 76.1948 101.844 76.1948 101.205V97.2597H77.244V105.242H76.172L72.8878 98.4799C72.922 99.1983 72.9448 99.9282 72.9448 100.647V105.242H71.8957ZM80.8202 105.242V98.2518H78.3913V97.2597H84.4123V98.2518H81.9036V105.242H80.8202ZM92.8078 104.182L93.0473 103.019H92.2946H91.9411V102.14H93.2411L93.5832 100.304H92.3403V99.358H93.7885L94.199 97.2597H95.1341L94.9631 98.1948L94.7236 99.358H95.5903H96.2289L96.6394 97.2597H97.5745L97.392 98.2176L97.1525 99.358H97.871H98.2131V100.304H96.9587L96.6052 102.14H97.8139V103.019H96.4227L95.9894 105.242H95.0543L95.2481 104.193C95.3166 103.783 95.4078 103.383 95.4762 103.019H94.5867H93.9824L93.549 105.242H92.6139L92.8078 104.182ZM94.1762 102.14H95.6701L96.0236 100.304H94.5297L94.1762 102.14ZM99.2235 105.242V104.25H101.709V99.8597V98.7422C101.242 99.529 100.341 100.19 99.406 100.327V99.1413C100.409 98.8904 101.367 98.286 101.915 97.2597H102.781V104.25H104.823V105.242H99.2235ZM106.05 104.068C108.809 102.391 110.315 101.114 110.315 99.5975C110.315 98.5483 109.573 98.058 108.73 98.058C107.68 98.058 107.03 98.8106 107.03 99.9053L105.993 99.7343C106.016 98.2518 106.973 97.1001 108.73 97.1001C110.326 97.1001 111.398 98.0694 111.398 99.5518C111.398 100.236 111.193 100.897 110.737 101.525C110.007 102.517 108.73 103.429 107.236 104.25H109.197H111.501V105.242H106.05V104.068ZM115.647 105.402C113.88 105.402 112.808 104.444 112.694 102.961L113.765 102.722C113.811 103.771 114.495 104.444 115.647 104.444C116.696 104.444 117.369 103.885 117.369 103.053C117.369 102.232 116.719 101.661 115.67 101.661H114.929V100.715H115.67C116.537 100.715 117.232 100.213 117.232 99.3808C117.232 98.5597 116.525 98.058 115.647 98.058C114.666 98.058 114.051 98.6624 113.959 99.5176L112.899 99.3238C113.001 98.0922 113.994 97.1001 115.647 97.1001C117.232 97.1001 118.27 98.0124 118.27 99.2782C118.27 100.282 117.597 100.875 116.799 101.148C117.677 101.308 118.441 102.095 118.441 103.155C118.441 104.41 117.449 105.402 115.647 105.402ZM123.18 99.9624V98.1492L120.443 102.209H121.903H123.18V99.9624ZM119.349 103.144V102.163L122.644 97.2597H124.229V102.209H125.507V103.144H124.229V105.242H123.18V103.144H119.349Z" fill="white"/>
</g>
<g opacity="0.4">
<rect x="0.5" y="-0.5" width="332" height="66.5625" transform="matrix(1 -2.46186e-08 -3.10446e-07 -1 18.1172 413.367)" stroke="white"/>
<path d="M30.6452 366.805V361.205H31.7012L33.7012 365.325C33.6772 364.877 33.6612 364.421 33.6612 363.973V361.205H34.3972V366.805H33.6452L31.3412 362.061C31.3652 362.565 31.3812 363.077 31.3812 363.581V366.805H30.6452ZM37.3141 366.917C36.0341 366.917 35.2741 365.877 35.2741 364.005C35.2741 362.133 36.0341 361.093 37.3141 361.093C38.6021 361.093 39.3621 362.133 39.3621 364.005C39.3621 365.877 38.6021 366.917 37.3141 366.917ZM37.3141 366.229C38.1381 366.229 38.5861 365.493 38.5861 364.005C38.5861 362.517 38.1381 361.781 37.3141 361.781C36.4981 361.781 36.0501 362.517 36.0501 364.005C36.0501 365.493 36.4981 366.229 37.3141 366.229ZM41.7029 366.805V361.901H39.9989V361.205H44.2229V361.901H42.4629V366.805H41.7029ZM45.1718 366.805V361.205H48.8438V361.901H45.9238V363.557H48.0358V364.245H45.9238V366.109H48.8438V366.805H45.1718ZM51.1447 363.981V362.837H52.2647V363.981H51.1447ZM51.1447 366.805V365.661H52.2647V366.805H51.1447ZM59.4584 366.805V361.205H61.5944C62.6184 361.205 63.3224 361.797 63.3224 362.741C63.3224 363.469 62.8584 364.029 62.0904 364.197C62.7624 364.285 63.0584 364.701 63.1864 365.373L63.4664 366.805H62.6744L62.4344 365.445C62.3224 364.805 62.0664 364.509 61.3304 364.509H60.2104V366.805H59.4584ZM60.2104 363.829H61.4984C62.1224 363.829 62.5464 363.453 62.5464 362.845C62.5464 362.253 62.1224 361.893 61.4984 361.893H60.2104V363.829ZM64.3593 366.805V361.205H68.0313V361.901H65.1113V363.557H67.2233V364.245H65.1113V366.109H68.0313V366.805H64.3593ZM69.0522 366.805V361.205H71.1642C72.3002 361.205 72.9722 361.925 72.9722 362.909C72.9722 363.901 72.3002 364.629 71.1562 364.629H69.8042V366.805H69.0522ZM71.0282 363.949C71.8202 363.949 72.2042 363.477 72.2042 362.909C72.2042 362.349 71.8362 361.893 71.0282 361.893H69.8042V363.949H71.0282ZM74.0171 366.805V361.205H74.7771V366.109H77.6571V366.805H74.0171ZM78.2379 366.805L79.9259 361.205H81.0379L82.7339 366.805H81.9579L81.5099 365.285H79.4619L79.0139 366.805H78.2379ZM79.6619 364.597H81.3099L80.8939 363.181L80.4939 361.821H80.4779L80.0779 363.181L79.6619 364.597ZM84.9148 366.805V364.437L83.0108 361.205H83.8428L84.8428 362.917L85.2988 363.693L85.7628 362.901L86.7468 361.205H87.5628L85.6748 364.445V366.805H84.9148ZM88.3437 366.805V361.205H92.0157V361.901H89.0957V363.557H91.2077V364.245H89.0957V366.109H92.0157V366.805H88.3437ZM92.9886 366.805V361.205H94.5246C96.0366 361.205 96.9486 362.277 96.9486 364.005C96.9486 365.733 96.0366 366.805 94.5246 366.805H92.9886ZM93.7406 366.117H94.4846C95.5966 366.117 96.1726 365.397 96.1726 364.005C96.1726 362.613 95.5966 361.893 94.4766 361.893H93.7406V366.117ZM102.742 366.805V361.205H106.526V361.901H103.494V363.725H105.822V364.421H103.494V366.805H102.742ZM109.275 366.917C108.043 366.917 107.395 366.149 107.395 364.773V361.205H108.155V364.749C108.155 365.717 108.507 366.221 109.275 366.221C110.051 366.221 110.379 365.709 110.379 364.749V361.205H111.139V364.773C111.139 366.149 110.499 366.917 109.275 366.917ZM112.192 366.805V361.205H113.248L115.248 365.325C115.224 364.877 115.208 364.421 115.208 363.973V361.205H115.944V366.805H115.192L112.888 362.061C112.912 362.565 112.928 363.077 112.928 363.581V366.805H112.192ZM118.949 366.917C117.621 366.917 116.845 365.853 116.845 364.005C116.845 362.149 117.621 361.093 118.949 361.093C119.965 361.093 120.645 361.725 120.917 362.853L120.189 363.029C120.005 362.205 119.589 361.781 118.949 361.781C118.085 361.781 117.629 362.533 117.629 364.005C117.629 365.477 118.085 366.229 118.949 366.229C119.597 366.229 120.021 365.813 120.205 364.941L120.933 365.125C120.669 366.285 119.965 366.917 118.949 366.917ZM123.25 366.805V361.901H121.546V361.205H125.77V361.901H124.01V366.805H123.25ZM126.599 366.805V366.109H128.055V361.901H126.599V361.205H130.319V361.901H128.807V366.109H130.319V366.805H126.599ZM133.252 366.917C131.972 366.917 131.212 365.877 131.212 364.005C131.212 362.133 131.972 361.093 133.252 361.093C134.54 361.093 135.3 362.133 135.3 364.005C135.3 365.877 134.54 366.917 133.252 366.917ZM133.252 366.229C134.076 366.229 134.524 365.493 134.524 364.005C134.524 362.517 134.076 361.781 133.252 361.781C132.436 361.781 131.988 362.517 131.988 364.005C131.988 365.493 132.436 366.229 133.252 366.229ZM136.176 366.805V361.205H137.232L139.232 365.325C139.208 364.877 139.192 364.421 139.192 363.973V361.205H139.928V366.805H139.176L136.872 362.061C136.896 362.565 136.912 363.077 136.912 363.581V366.805H136.176ZM142.909 366.917C141.733 366.917 140.965 366.317 140.725 365.373L141.445 365.053C141.653 365.853 142.109 366.229 142.909 366.229C143.669 366.229 144.125 365.885 144.125 365.317C144.125 364.797 143.805 364.549 143.133 364.397L142.397 364.229C141.381 363.997 140.973 363.469 140.973 362.685C140.973 361.701 141.709 361.093 142.829 361.093C143.853 361.093 144.565 361.613 144.813 362.405L144.093 362.725C143.909 362.109 143.525 361.773 142.829 361.773C142.141 361.773 141.733 362.101 141.733 362.629C141.733 363.093 141.981 363.333 142.613 363.477L143.341 363.645C144.381 363.885 144.893 364.389 144.893 365.269C144.893 366.285 144.109 366.917 142.909 366.917ZM150.191 366.805L151.879 361.205H152.991L154.687 366.805H153.911L153.463 365.285H151.415L150.967 366.805H150.191ZM151.615 364.597H153.263L152.847 363.181L152.447 361.821H152.431L152.031 363.181L151.615 364.597ZM155.396 366.805V361.205H157.532C158.556 361.205 159.26 361.797 159.26 362.741C159.26 363.469 158.796 364.029 158.028 364.197C158.7 364.285 158.996 364.701 159.124 365.373L159.404 366.805H158.612L158.372 365.445C158.26 364.805 158.004 364.509 157.268 364.509H156.148V366.805H155.396ZM156.148 363.829H157.436C158.06 363.829 158.484 363.453 158.484 362.845C158.484 362.253 158.06 361.893 157.436 361.893H156.148V363.829ZM160.297 366.805V361.205H163.969V361.901H161.049V363.557H163.161V364.245H161.049V366.109H163.969V366.805H160.297ZM169.787 366.805V361.205H171.923C172.947 361.205 173.651 361.797 173.651 362.741C173.651 363.469 173.187 364.029 172.419 364.197C173.091 364.285 173.387 364.701 173.515 365.373L173.795 366.805H173.003L172.763 365.445C172.651 364.805 172.395 364.509 171.659 364.509H170.539V366.805H169.787ZM170.539 363.829H171.827C172.451 363.829 172.875 363.453 172.875 362.845C172.875 362.253 172.451 361.893 171.827 361.893H170.539V363.829ZM174.687 366.805V361.205H178.359V361.901H175.439V363.557H177.551V364.245H175.439V366.109H178.359V366.805H174.687ZM179.988 364.309V363.533H182.452V364.309H179.988ZM184.177 366.805V361.205H186.313C187.337 361.205 188.041 361.797 188.041 362.741C188.041 363.469 187.577 364.029 186.809 364.197C187.481 364.285 187.777 364.701 187.905 365.373L188.185 366.805H187.393L187.153 365.445C187.041 364.805 186.785 364.509 186.049 364.509H184.929V366.805H184.177ZM184.929 363.829H186.217C186.841 363.829 187.265 363.453 187.265 362.845C187.265 362.253 186.841 361.893 186.217 361.893H184.929V363.829ZM190.822 366.917C189.59 366.917 188.942 366.149 188.942 364.773V361.205H189.702V364.749C189.702 365.717 190.054 366.221 190.822 366.221C191.598 366.221 191.926 365.709 191.926 364.749V361.205H192.686V364.773C192.686 366.149 192.046 366.917 190.822 366.917ZM193.739 366.805V361.205H194.795L196.795 365.325C196.771 364.877 196.755 364.421 196.755 363.973V361.205H197.491V366.805H196.739L194.435 362.061C194.459 362.565 194.475 363.077 194.475 363.581V366.805H193.739ZM203.477 366.805V361.205H207.261V361.901H204.229V363.725H206.557V364.421H204.229V366.805H203.477ZM208.162 366.805V361.205H210.298C211.322 361.205 212.026 361.797 212.026 362.741C212.026 363.469 211.562 364.029 210.794 364.197C211.466 364.285 211.762 364.701 211.89 365.373L212.17 366.805H211.378L211.138 365.445C211.026 364.805 210.77 364.509 210.034 364.509H208.914V366.805H208.162ZM208.914 363.829H210.202C210.826 363.829 211.25 363.453 211.25 362.845C211.25 362.253 210.826 361.893 210.202 361.893H208.914V363.829ZM214.798 366.917C213.518 366.917 212.758 365.877 212.758 364.005C212.758 362.133 213.518 361.093 214.798 361.093C216.086 361.093 216.846 362.133 216.846 364.005C216.846 365.877 216.086 366.917 214.798 366.917ZM214.798 366.229C215.622 366.229 216.07 365.493 216.07 364.005C216.07 362.517 215.622 361.781 214.798 361.781C213.982 361.781 213.534 362.517 213.534 364.005C213.534 365.493 213.982 366.229 214.798 366.229ZM217.651 366.805V361.205H218.795L219.291 363.197L219.611 364.525C219.715 364.085 219.811 363.637 219.923 363.197L220.419 361.205H221.539V366.805H220.819V364.061V361.981L219.875 365.685H219.315L218.371 361.981V364.061V366.805H217.651ZM228.781 366.805V361.901H227.077V361.205H231.301V361.901H229.541V366.805H228.781ZM232.13 366.805V361.205H232.89V363.549H235.082V361.205H235.842V366.805H235.082V364.245H232.89V366.805H232.13ZM237.047 366.805V361.205H240.719V361.901H237.799V363.557H239.911V364.245H237.799V366.109H240.719V366.805H237.047ZM246.553 366.805V361.205H248.633C249.657 361.205 250.273 361.749 250.273 362.597C250.273 363.309 249.761 363.717 249.297 363.869C249.897 363.973 250.473 364.453 250.473 365.253C250.473 366.165 249.793 366.805 248.761 366.805H246.553ZM247.297 366.125H248.657C249.337 366.125 249.705 365.717 249.705 365.181C249.705 364.621 249.337 364.229 248.665 364.229H247.297V366.125ZM247.297 363.565H248.521C249.193 363.565 249.521 363.221 249.521 362.725C249.521 362.229 249.193 361.885 248.521 361.885H247.297V363.565ZM251.437 366.805V361.205H255.109V361.901H252.189V363.557H254.301V364.245H252.189V366.109H255.109V366.805H251.437ZM257.882 366.917C256.698 366.917 255.954 365.853 255.954 364.005C255.954 362.149 256.738 361.093 258.074 361.093C259.058 361.093 259.77 361.661 260.066 362.789L259.33 362.981C259.138 362.181 258.714 361.781 258.074 361.781C257.194 361.781 256.73 362.541 256.73 364.005C256.73 365.477 257.178 366.237 258.042 366.237C258.802 366.237 259.218 365.693 259.242 364.725H258.01V364.029H259.994V366.805H259.322V365.901C259.138 366.533 258.61 366.917 257.882 366.917ZM260.911 366.805V366.109H262.367V361.901H260.911V361.205H264.631V361.901H263.119V366.109H264.631V366.805H260.911ZM265.692 366.805V361.205H266.748L268.748 365.325C268.724 364.877 268.708 364.421 268.708 363.973V361.205H269.444V366.805H268.692L266.388 362.061C266.412 362.565 266.428 363.077 266.428 363.581V366.805H265.692ZM270.489 366.805V361.205H271.545L273.545 365.325C273.521 364.877 273.505 364.421 273.505 363.973V361.205H274.241V366.805H273.489L271.185 362.061C271.209 362.565 271.225 363.077 271.225 363.581V366.805H270.489ZM275.302 366.805V366.109H276.758V361.901H275.302V361.205H279.022V361.901H277.51V366.109H279.022V366.805H275.302ZM280.083 366.805V361.205H281.139L283.139 365.325C283.115 364.877 283.099 364.421 283.099 363.973V361.205H283.835V366.805H283.083L280.779 362.061C280.803 362.565 280.819 363.077 280.819 363.581V366.805H280.083ZM286.664 366.917C285.48 366.917 284.736 365.853 284.736 364.005C284.736 362.149 285.52 361.093 286.856 361.093C287.84 361.093 288.552 361.661 288.848 362.789L288.112 362.981C287.92 362.181 287.496 361.781 286.856 361.781C285.976 361.781 285.512 362.541 285.512 364.005C285.512 365.477 285.96 366.237 286.824 366.237C287.584 366.237 288 365.693 288.024 364.725H286.792V364.029H288.776V366.805H288.104V365.901C287.92 366.533 287.392 366.917 286.664 366.917ZM290.988 366.805V365.661H292.108V366.805H290.988ZM30.6772 376.805V371.205H32.7892C33.9252 371.205 34.5972 371.925 34.5972 372.909C34.5972 373.901 33.9252 374.629 32.7812 374.629H31.4292V376.805H30.6772ZM32.6532 373.949C33.4452 373.949 33.8292 373.477 33.8292 372.909C33.8292 372.349 33.4612 371.893 32.6532 371.893H31.4292V373.949H32.6532ZM35.4741 376.805V371.205H37.6101C38.6341 371.205 39.3381 371.797 39.3381 372.741C39.3381 373.469 38.8741 374.029 38.1061 374.197C38.7781 374.285 39.0741 374.701 39.2021 375.373L39.4821 376.805H38.6901L38.4501 375.445C38.3381 374.805 38.0821 374.509 37.3461 374.509H36.2261V376.805H35.4741ZM36.2261 373.829H37.5141C38.1381 373.829 38.5621 373.453 38.5621 372.845C38.5621 372.253 38.1381 371.893 37.5141 371.893H36.2261V373.829ZM40.3749 376.805V371.205H44.0469V371.901H41.1269V373.557H43.2389V374.245H41.1269V376.109H44.0469V376.805H40.3749ZM46.3558 376.805L44.6758 371.205H45.4758L46.5318 374.789L46.9078 376.061H46.9238L47.2998 374.781L48.3478 371.205H49.1318L47.4518 376.805H46.3558ZM49.8487 376.805V376.109H51.3047V371.901H49.8487V371.205H53.5687V371.901H52.0567V376.109H53.5687V376.805H49.8487ZM56.5016 376.917C55.2216 376.917 54.4616 375.877 54.4616 374.005C54.4616 372.133 55.2216 371.093 56.5016 371.093C57.7896 371.093 58.5496 372.133 58.5496 374.005C58.5496 375.877 57.7896 376.917 56.5016 376.917ZM56.5016 376.229C57.3256 376.229 57.7736 375.493 57.7736 374.005C57.7736 372.517 57.3256 371.781 56.5016 371.781C55.6856 371.781 55.2376 372.517 55.2376 374.005C55.2376 375.493 55.6856 376.229 56.5016 376.229ZM61.3064 376.917C60.0744 376.917 59.4264 376.149 59.4264 374.773V371.205H60.1864V374.749C60.1864 375.717 60.5384 376.221 61.3064 376.221C62.0824 376.221 62.4104 375.709 62.4104 374.749V371.205H63.1704V374.773C63.1704 376.149 62.5304 376.917 61.3064 376.917ZM66.1593 376.917C64.9833 376.917 64.2153 376.317 63.9753 375.373L64.6953 375.053C64.9033 375.853 65.3593 376.229 66.1593 376.229C66.9193 376.229 67.3753 375.885 67.3753 375.317C67.3753 374.797 67.0553 374.549 66.3833 374.397L65.6473 374.229C64.6313 373.997 64.2233 373.469 64.2233 372.685C64.2233 371.701 64.9593 371.093 66.0793 371.093C67.1033 371.093 67.8153 371.613 68.0633 372.405L67.3433 372.725C67.1593 372.109 66.7753 371.773 66.0793 371.773C65.3913 371.773 64.9833 372.101 64.9833 372.629C64.9833 373.093 65.2313 373.333 65.8633 373.477L66.5913 373.645C67.6313 373.885 68.1433 374.389 68.1433 375.269C68.1433 376.285 67.3593 376.917 66.1593 376.917ZM69.2202 376.805V371.205H69.9802V376.109H72.8602V376.805H69.2202ZM75.3211 376.805V374.437L73.4171 371.205H74.2491L75.2491 372.917L75.7051 373.693L76.1691 372.901L77.1531 371.205H77.9691L76.0811 374.445V376.805H75.3211ZM83.4428 376.805V371.205H85.5788C86.6028 371.205 87.3068 371.797 87.3068 372.741C87.3068 373.469 86.8428 374.029 86.0748 374.197C86.7468 374.285 87.0428 374.701 87.1708 375.373L87.4508 376.805H86.6588L86.4188 375.445C86.3068 374.805 86.0508 374.509 85.3148 374.509H84.1948V376.805H83.4428ZM84.1948 373.829H85.4828C86.1068 373.829 86.5308 373.453 86.5308 372.845C86.5308 372.253 86.1068 371.893 85.4828 371.893H84.1948V373.829ZM90.0877 376.917C88.8557 376.917 88.2077 376.149 88.2077 374.773V371.205H88.9677V374.749C88.9677 375.717 89.3197 376.221 90.0877 376.221C90.8637 376.221 91.1917 375.709 91.1917 374.749V371.205H91.9517V374.773C91.9517 376.149 91.3117 376.917 90.0877 376.917ZM93.0046 376.805V371.205H94.0606L96.0606 375.325C96.0366 374.877 96.0206 374.421 96.0206 373.973V371.205H96.7566V376.805H96.0046L93.7006 372.061C93.7246 372.565 93.7406 373.077 93.7406 373.581V376.805H93.0046ZM104.534 376.917C103.358 376.917 102.59 376.317 102.35 375.373L103.07 375.053C103.278 375.853 103.734 376.229 104.534 376.229C105.294 376.229 105.75 375.885 105.75 375.317C105.75 374.797 105.43 374.549 104.758 374.397L104.022 374.229C103.006 373.997 102.598 373.469 102.598 372.685C102.598 371.701 103.334 371.093 104.454 371.093C105.478 371.093 106.19 371.613 106.438 372.405L105.718 372.725C105.534 372.109 105.15 371.773 104.454 371.773C103.766 371.773 103.358 372.101 103.358 372.629C103.358 373.093 103.606 373.333 104.238 373.477L104.966 373.645C106.006 373.885 106.518 374.389 106.518 375.269C106.518 376.285 105.734 376.917 104.534 376.917ZM108.859 376.805V371.901H107.155V371.205H111.379V371.901H109.619V376.805H108.859ZM112.328 376.805V371.205H116V371.901H113.08V373.557H115.192V374.245H113.08V376.109H116V376.805H112.328ZM117.021 376.805V371.205H119.133C120.269 371.205 120.941 371.925 120.941 372.909C120.941 373.901 120.269 374.629 119.125 374.629H117.773V376.805H117.021ZM118.997 373.949C119.789 373.949 120.173 373.477 120.173 372.909C120.173 372.349 119.805 371.893 118.997 371.893H117.773V373.949H118.997ZM123.722 376.917C122.546 376.917 121.778 376.317 121.538 375.373L122.258 375.053C122.466 375.853 122.922 376.229 123.722 376.229C124.482 376.229 124.938 375.885 124.938 375.317C124.938 374.797 124.618 374.549 123.946 374.397L123.21 374.229C122.194 373.997 121.786 373.469 121.786 372.685C121.786 371.701 122.522 371.093 123.642 371.093C124.666 371.093 125.378 371.613 125.626 372.405L124.906 372.725C124.722 372.109 124.338 371.773 123.642 371.773C122.954 371.773 122.546 372.101 122.546 372.629C122.546 373.093 122.794 373.333 123.426 373.477L124.154 373.645C125.194 373.885 125.706 374.389 125.706 375.269C125.706 376.285 124.922 376.917 123.722 376.917ZM131.004 376.805L132.692 371.205H133.804L135.5 376.805H134.724L134.276 375.285H132.228L131.78 376.805H131.004ZM132.428 374.597H134.076L133.66 373.181L133.26 371.821H133.244L132.844 373.181L132.428 374.597ZM136.176 376.805V371.205H137.232L139.232 375.325C139.208 374.877 139.192 374.421 139.192 373.973V371.205H139.928V376.805H139.176L136.872 372.061C136.896 372.565 136.912 373.077 136.912 373.581V376.805H136.176ZM140.957 376.805V371.205H142.493C144.005 371.205 144.917 372.277 144.917 374.005C144.917 375.733 144.005 376.805 142.493 376.805H140.957ZM141.709 376.117H142.453C143.565 376.117 144.141 375.397 144.141 374.005C144.141 372.613 143.565 371.893 142.445 371.893H141.709V376.117ZM150.711 376.805V371.205H154.495V371.901H151.463V373.725H153.791V374.421H151.463V376.805H150.711ZM157.244 376.917C156.012 376.917 155.364 376.149 155.364 374.773V371.205H156.124V374.749C156.124 375.717 156.476 376.221 157.244 376.221C158.02 376.221 158.348 375.709 158.348 374.749V371.205H159.108V374.773C159.108 376.149 158.468 376.917 157.244 376.917ZM160.161 376.805V371.205H161.217L163.217 375.325C163.193 374.877 163.177 374.421 163.177 373.973V371.205H163.913V376.805H163.161L160.857 372.061C160.881 372.565 160.897 373.077 160.897 373.581V376.805H160.161ZM166.918 376.917C165.59 376.917 164.814 375.853 164.814 374.005C164.814 372.149 165.59 371.093 166.918 371.093C167.934 371.093 168.614 371.725 168.886 372.853L168.158 373.029C167.974 372.205 167.558 371.781 166.918 371.781C166.054 371.781 165.598 372.533 165.598 374.005C165.598 375.477 166.054 376.229 166.918 376.229C167.566 376.229 167.99 375.813 168.174 374.941L168.902 375.125C168.638 376.285 167.934 376.917 166.918 376.917ZM171.219 376.805V371.901H169.515V371.205H173.739V371.901H171.979V376.805H171.219ZM174.567 376.805V376.109H176.023V371.901H174.567V371.205H178.287V371.901H176.775V376.109H178.287V376.805H174.567ZM181.22 376.917C179.94 376.917 179.18 375.877 179.18 374.005C179.18 372.133 179.94 371.093 181.22 371.093C182.508 371.093 183.268 372.133 183.268 374.005C183.268 375.877 182.508 376.917 181.22 376.917ZM181.22 376.229C182.044 376.229 182.492 375.493 182.492 374.005C182.492 372.517 182.044 371.781 181.22 371.781C180.404 371.781 179.956 372.517 179.956 374.005C179.956 375.493 180.404 376.229 181.22 376.229ZM184.145 376.805V371.205H185.201L187.201 375.325C187.177 374.877 187.161 374.421 187.161 373.973V371.205H187.897V376.805H187.145L184.841 372.061C184.865 372.565 184.881 373.077 184.881 373.581V376.805H184.145ZM195.675 376.917C194.499 376.917 193.731 376.317 193.491 375.373L194.211 375.053C194.419 375.853 194.875 376.229 195.675 376.229C196.435 376.229 196.891 375.885 196.891 375.317C196.891 374.797 196.571 374.549 195.899 374.397L195.163 374.229C194.147 373.997 193.739 373.469 193.739 372.685C193.739 371.701 194.475 371.093 195.595 371.093C196.619 371.093 197.331 371.613 197.579 372.405L196.859 372.725C196.675 372.109 196.291 371.773 195.595 371.773C194.907 371.773 194.499 372.101 194.499 372.629C194.499 373.093 194.747 373.333 195.379 373.477L196.107 373.645C197.147 373.885 197.659 374.389 197.659 375.269C197.659 376.285 196.875 376.917 195.675 376.917ZM200 376.805V371.901H198.296V371.205H202.52V371.901H200.76V376.805H200ZM202.957 376.805L204.645 371.205H205.757L207.453 376.805H206.677L206.229 375.285H204.181L203.733 376.805H202.957ZM204.381 374.597H206.029L205.613 373.181L205.213 371.821H205.197L204.797 373.181L204.381 374.597ZM209.594 376.805V371.901H207.89V371.205H212.114V371.901H210.354V376.805H209.594ZM213.062 376.805V371.205H216.734V371.901H213.814V373.557H215.926V374.245H213.814V376.109H216.734V376.805H213.062ZM219.659 376.917C218.483 376.917 217.715 376.317 217.475 375.373L218.195 375.053C218.403 375.853 218.859 376.229 219.659 376.229C220.419 376.229 220.875 375.885 220.875 375.317C220.875 374.797 220.555 374.549 219.883 374.397L219.147 374.229C218.131 373.997 217.723 373.469 217.723 372.685C217.723 371.701 218.459 371.093 219.579 371.093C220.603 371.093 221.315 371.613 221.563 372.405L220.843 372.725C220.659 372.109 220.275 371.773 219.579 371.773C218.891 371.773 218.483 372.101 218.483 372.629C218.483 373.093 218.731 373.333 219.363 373.477L220.091 373.645C221.131 373.885 221.643 374.389 221.643 375.269C221.643 376.285 220.859 376.917 219.659 376.917ZM227.685 376.805L226.989 371.205H227.741L228.013 374.005L228.197 375.917L228.541 374.005L228.869 372.189H229.517L229.845 374.005L230.189 375.917L230.373 374.005L230.645 371.205H231.389L230.693 376.805H229.765L229.405 374.765C229.325 374.301 229.261 373.845 229.189 373.381C229.117 373.845 229.053 374.301 228.973 374.765L228.613 376.805H227.685ZM232.13 376.805V376.109H233.586V371.901H232.13V371.205H235.85V371.901H234.338V376.109H235.85V376.805H232.13ZM237.111 376.805V371.205H237.871V376.109H240.751V376.805H237.111ZM241.908 376.805V371.205H242.668V376.109H245.548V376.805H241.908ZM251.301 376.805V371.205H252.357L254.357 375.325C254.333 374.877 254.317 374.421 254.317 373.973V371.205H255.053V376.805H254.301L251.997 372.061C252.021 372.565 252.037 373.077 252.037 373.581V376.805H251.301ZM257.97 376.917C256.69 376.917 255.93 375.877 255.93 374.005C255.93 372.133 256.69 371.093 257.97 371.093C259.258 371.093 260.018 372.133 260.018 374.005C260.018 375.877 259.258 376.917 257.97 376.917ZM257.97 376.229C258.794 376.229 259.242 375.493 259.242 374.005C259.242 372.517 258.794 371.781 257.97 371.781C257.154 371.781 256.706 372.517 256.706 374.005C256.706 375.493 257.154 376.229 257.97 376.229ZM262.359 376.805V371.901H260.655V371.205H264.879V371.901H263.119V376.805H262.359ZM270.537 376.805V371.205H272.617C273.641 371.205 274.257 371.749 274.257 372.597C274.257 373.309 273.745 373.717 273.281 373.869C273.881 373.973 274.457 374.453 274.457 375.253C274.457 376.165 273.777 376.805 272.745 376.805H270.537ZM271.281 376.125H272.641C273.321 376.125 273.689 375.717 273.689 375.181C273.689 374.621 273.321 374.229 272.649 374.229H271.281V376.125ZM271.281 373.565H272.505C273.177 373.565 273.505 373.221 273.505 372.725C273.505 372.229 273.177 371.885 272.505 371.885H271.281V373.565ZM275.422 376.805V371.205H279.094V371.901H276.174V373.557H278.286V374.245H276.174V376.109H279.094V376.805H275.422ZM284.912 376.805V371.205H287.048C288.072 371.205 288.776 371.797 288.776 372.741C288.776 373.469 288.312 374.029 287.544 374.197C288.216 374.285 288.512 374.701 288.64 375.373L288.92 376.805H288.128L287.888 375.445C287.776 374.805 287.52 374.509 286.784 374.509H285.664V376.805H284.912ZM285.664 373.829H286.952C287.576 373.829 288 373.453 288 372.845C288 372.253 287.576 371.893 286.952 371.893H285.664V373.829ZM289.812 376.805V371.205H293.484V371.901H290.564V373.557H292.676V374.245H290.564V376.109H293.484V376.805H289.812ZM296.353 376.917C295.121 376.917 294.473 376.149 294.473 374.773V371.205H295.233V374.749C295.233 375.717 295.585 376.221 296.353 376.221C297.129 376.221 297.457 375.709 297.457 374.749V371.205H298.217V374.773C298.217 376.149 297.577 376.917 296.353 376.917ZM301.206 376.917C300.03 376.917 299.262 376.317 299.022 375.373L299.742 375.053C299.95 375.853 300.406 376.229 301.206 376.229C301.966 376.229 302.422 375.885 302.422 375.317C302.422 374.797 302.102 374.549 301.43 374.397L300.694 374.229C299.678 373.997 299.27 373.469 299.27 372.685C299.27 371.701 300.006 371.093 301.126 371.093C302.15 371.093 302.862 371.613 303.11 372.405L302.39 372.725C302.206 372.109 301.822 371.773 301.126 371.773C300.438 371.773 300.03 372.101 300.03 372.629C300.03 373.093 300.278 373.333 300.91 373.477L301.638 373.645C302.678 373.885 303.19 374.389 303.19 375.269C303.19 376.285 302.406 376.917 301.206 376.917ZM304.203 376.805V371.205H307.875V371.901H304.955V373.557H307.067V374.245H304.955V376.109H307.875V376.805H304.203ZM308.848 376.805V371.205H310.384C311.896 371.205 312.808 372.277 312.808 374.005C312.808 375.733 311.896 376.805 310.384 376.805H308.848ZM309.6 376.117H310.344C311.456 376.117 312.032 375.397 312.032 374.005C312.032 372.613 311.456 371.893 310.336 371.893H309.6V376.117ZM30.6292 386.805V381.205H32.1652C33.6772 381.205 34.5892 382.277 34.5892 384.005C34.5892 385.733 33.6772 386.805 32.1652 386.805H30.6292ZM31.3812 386.117H32.1252C33.2372 386.117 33.8132 385.397 33.8132 384.005C33.8132 382.613 33.2372 381.893 32.1172 381.893H31.3812V386.117ZM37.3221 386.917C36.0901 386.917 35.4421 386.149 35.4421 384.773V381.205H36.2021V384.749C36.2021 385.717 36.5541 386.221 37.3221 386.221C38.0981 386.221 38.4261 385.709 38.4261 384.749V381.205H39.1861V384.773C39.1861 386.149 38.5461 386.917 37.3221 386.917ZM40.2709 386.805V381.205H42.4069C43.4309 381.205 44.1349 381.797 44.1349 382.741C44.1349 383.469 43.6709 384.029 42.9029 384.197C43.5749 384.285 43.8709 384.701 43.9989 385.373L44.2789 386.805H43.4869L43.2469 385.445C43.1349 384.805 42.8789 384.509 42.1429 384.509H41.0229V386.805H40.2709ZM41.0229 383.829H42.3109C42.9349 383.829 43.3589 383.453 43.3589 382.845C43.3589 382.253 42.9349 381.893 42.3109 381.893H41.0229V383.829ZM45.0518 386.805V386.109H46.5078V381.901H45.0518V381.205H48.7718V381.901H47.2598V386.109H48.7718V386.805H45.0518ZM49.8327 386.805V381.205H50.8887L52.8887 385.325C52.8647 384.877 52.8487 384.421 52.8487 383.973V381.205H53.5847V386.805H52.8327L50.5287 382.061C50.5527 382.565 50.5687 383.077 50.5687 383.581V386.805H49.8327ZM56.4136 386.917C55.2296 386.917 54.4856 385.853 54.4856 384.005C54.4856 382.149 55.2696 381.093 56.6056 381.093C57.5896 381.093 58.3016 381.661 58.5976 382.789L57.8616 382.981C57.6696 382.181 57.2456 381.781 56.6056 381.781C55.7256 381.781 55.2616 382.541 55.2616 384.005C55.2616 385.477 55.7096 386.237 56.5736 386.237C57.3336 386.237 57.7496 385.693 57.7736 384.725H56.5416V384.029H58.5256V386.805H57.8536V385.901C57.6696 386.533 57.1416 386.917 56.4136 386.917ZM65.6873 386.805V381.901H63.9833V381.205H68.2073V381.901H66.4473V386.805H65.6873ZM69.0362 386.805V381.205H69.7962V383.549H71.9882V381.205H72.7482V386.805H71.9882V384.245H69.7962V386.805H69.0362ZM73.9531 386.805V381.205H77.6251V381.901H74.7051V383.557H76.8171V384.245H74.7051V386.109H77.6251V386.805H73.9531ZM83.4428 386.805V381.205H85.5788C86.6028 381.205 87.3068 381.797 87.3068 382.741C87.3068 383.469 86.8428 384.029 86.0748 384.197C86.7468 384.285 87.0428 384.701 87.1708 385.373L87.4508 386.805H86.6588L86.4188 385.445C86.3068 384.805 86.0508 384.509 85.3148 384.509H84.1948V386.805H83.4428ZM84.1948 383.829H85.4828C86.1068 383.829 86.5308 383.453 86.5308 382.845C86.5308 382.253 86.1068 381.893 85.4828 381.893H84.1948V383.829ZM88.3437 386.805V381.205H92.0157V381.901H89.0957V383.557H91.2077V384.245H89.0957V386.109H92.0157V386.805H88.3437ZM93.0366 386.805V381.205H95.1486C96.2846 381.205 96.9566 381.925 96.9566 382.909C96.9566 383.901 96.2846 384.629 95.1406 384.629H93.7886V386.805H93.0366ZM95.0126 383.949C95.8046 383.949 96.1886 383.477 96.1886 382.909C96.1886 382.349 95.8206 381.893 95.0126 381.893H93.7886V383.949H95.0126ZM98.0014 386.805V381.205H98.7614V386.109H101.641V386.805H98.0014ZM102.222 386.805L103.91 381.205H105.022L106.718 386.805H105.942L105.494 385.285H103.446L102.998 386.805H102.222ZM103.646 384.597H105.294L104.878 383.181L104.478 381.821H104.462L104.062 383.181L103.646 384.597ZM108.899 386.805V384.437L106.995 381.205H107.827L108.827 382.917L109.283 383.693L109.747 382.901L110.731 381.205H111.547L109.659 384.445V386.805H108.899ZM113.504 386.805V385.661H114.624V386.805H113.504ZM123.25 386.805V381.901H121.546V381.205H125.77V381.901H124.01V386.805H123.25ZM126.599 386.805V381.205H127.359V383.549H129.551V381.205H130.311V386.805H129.551V384.245H127.359V386.805H126.599ZM131.516 386.805V381.205H135.188V381.901H132.268V383.557H134.38V384.245H132.268V386.109H135.188V386.805H131.516ZM141.109 386.805V381.205H144.781V381.901H141.861V383.557H143.973V384.245H141.861V386.109H144.781V386.805H141.109ZM147.09 386.805L145.41 381.205H146.21L147.266 384.789L147.642 386.061H147.658L148.034 384.781L149.082 381.205H149.866L148.186 386.805H147.09ZM150.703 386.805V381.205H154.375V381.901H151.455V383.557H153.567V384.245H151.455V386.109H154.375V386.805H150.703ZM155.364 386.805V381.205H156.42L158.42 385.325C158.396 384.877 158.38 384.421 158.38 383.973V381.205H159.116V386.805H158.364L156.06 382.061C156.084 382.565 156.1 383.077 156.1 383.581V386.805H155.364ZM161.625 386.805V381.901H159.921V381.205H164.145V381.901H162.385V386.805H161.625ZM166.27 386.805V385.661H167.39V386.805H166.27ZM171.635 386.917C170.403 386.917 169.755 386.149 169.755 384.773V381.205H170.515V384.749C170.515 385.717 170.867 386.221 171.635 386.221C172.411 386.221 172.739 385.709 172.739 384.749V381.205H173.499V384.773C173.499 386.149 172.859 386.917 171.635 386.917ZM176.487 386.917C175.311 386.917 174.543 386.317 174.303 385.373L175.023 385.053C175.231 385.853 175.687 386.229 176.487 386.229C177.247 386.229 177.703 385.885 177.703 385.317C177.703 384.797 177.383 384.549 176.711 384.397L175.975 384.229C174.959 383.997 174.551 383.469 174.551 382.685C174.551 381.701 175.287 381.093 176.407 381.093C177.431 381.093 178.143 381.613 178.391 382.405L177.671 382.725C177.487 382.109 177.103 381.773 176.407 381.773C175.719 381.773 175.311 382.101 175.311 382.629C175.311 383.093 175.559 383.333 176.191 383.477L176.919 383.645C177.959 383.885 178.471 384.389 178.471 385.269C178.471 386.285 177.687 386.917 176.487 386.917ZM179.484 386.805V381.205H183.156V381.901H180.236V383.557H182.348V384.245H180.236V386.109H183.156V386.805H179.484ZM184.177 386.805V381.205H186.313C187.337 381.205 188.041 381.797 188.041 382.741C188.041 383.469 187.577 384.029 186.809 384.197C187.481 384.285 187.777 384.701 187.905 385.373L188.185 386.805H187.393L187.153 385.445C187.041 384.805 186.785 384.509 186.049 384.509H184.929V386.805H184.177ZM184.929 383.829H186.217C186.841 383.829 187.265 383.453 187.265 382.845C187.265 382.253 186.841 381.893 186.217 381.893H184.929V383.829ZM195.611 386.917C194.331 386.917 193.571 385.877 193.571 384.005C193.571 382.133 194.331 381.093 195.611 381.093C196.899 381.093 197.659 382.133 197.659 384.005C197.659 385.877 196.899 386.917 195.611 386.917ZM195.611 386.229C196.435 386.229 196.883 385.493 196.883 384.005C196.883 382.517 196.435 381.781 195.611 381.781C194.795 381.781 194.347 382.517 194.347 384.005C194.347 385.493 194.795 386.229 195.611 386.229ZM198.584 386.805V381.205H200.664C201.688 381.205 202.304 381.749 202.304 382.597C202.304 383.309 201.792 383.717 201.328 383.869C201.928 383.973 202.504 384.453 202.504 385.253C202.504 386.165 201.824 386.805 200.792 386.805H198.584ZM199.328 386.125H200.688C201.368 386.125 201.736 385.717 201.736 385.181C201.736 384.621 201.368 384.229 200.696 384.229H199.328V386.125ZM199.328 383.565H200.552C201.224 383.565 201.552 383.221 201.552 382.725C201.552 382.229 201.224 381.885 200.552 381.885H199.328V383.565ZM205.109 386.917C203.917 386.917 203.221 386.197 203.261 384.965L204.037 384.765C203.965 385.733 204.317 386.221 205.085 386.221C205.837 386.221 206.173 385.773 206.173 384.885V381.205H206.933V384.829C206.933 386.197 206.309 386.917 205.109 386.917ZM208.266 386.805V381.205H211.938V381.901H209.018V383.557H211.13V384.245H209.018V386.109H211.938V386.805H208.266ZM214.886 386.917C213.558 386.917 212.782 385.853 212.782 384.005C212.782 382.149 213.558 381.093 214.886 381.093C215.902 381.093 216.582 381.725 216.854 382.853L216.126 383.029C215.942 382.205 215.526 381.781 214.886 381.781C214.022 381.781 213.566 382.533 213.566 384.005C213.566 385.477 214.022 386.229 214.886 386.229C215.534 386.229 215.958 385.813 216.142 384.941L216.87 385.125C216.606 386.285 215.902 386.917 214.886 386.917ZM219.187 386.805V381.901H217.483V381.205H221.707V381.901H219.947V386.805H219.187ZM227.685 386.805L226.989 381.205H227.741L228.013 384.005L228.197 385.917L228.541 384.005L228.869 382.189H229.517L229.845 384.005L230.189 385.917L230.373 384.005L230.645 381.205H231.389L230.693 386.805H229.765L229.405 384.765C229.325 384.301 229.261 383.845 229.189 383.381C229.117 383.845 229.053 384.301 228.973 384.765L228.613 386.805H227.685ZM232.13 386.805V386.109H233.586V381.901H232.13V381.205H235.85V381.901H234.338V386.109H235.85V386.805H232.13ZM237.111 386.805V381.205H237.871V386.109H240.751V386.805H237.111ZM241.908 386.805V381.205H242.668V386.109H245.548V386.805H241.908ZM251.349 386.805V381.205H253.429C254.453 381.205 255.069 381.749 255.069 382.597C255.069 383.309 254.557 383.717 254.093 383.869C254.693 383.973 255.269 384.453 255.269 385.253C255.269 386.165 254.589 386.805 253.557 386.805H251.349ZM252.093 386.125H253.453C254.133 386.125 254.501 385.717 254.501 385.181C254.501 384.621 254.133 384.229 253.461 384.229H252.093V386.125ZM252.093 383.565H253.317C253.989 383.565 254.317 383.221 254.317 382.725C254.317 382.229 253.989 381.885 253.317 381.885H252.093V383.565ZM256.234 386.805V381.205H259.906V381.901H256.986V383.557H259.098V384.245H256.986V386.109H259.906V386.805H256.234ZM265.828 386.805V381.205H269.5V381.901H266.58V383.557H268.692V384.245H266.58V386.109H269.5V386.805H265.828ZM270.417 386.805V381.205H271.561L272.057 383.197L272.377 384.525C272.481 384.085 272.577 383.637 272.689 383.197L273.185 381.205H274.305V386.805H273.585V384.061V381.981L272.641 385.685H272.081L271.137 381.981V384.061V386.805H270.417ZM275.318 386.805V381.205H277.43C278.566 381.205 279.238 381.925 279.238 382.909C279.238 383.901 278.566 384.629 277.422 384.629H276.07V386.805H275.318ZM277.294 383.949C278.086 383.949 278.47 383.477 278.47 382.909C278.47 382.349 278.102 381.893 277.294 381.893H276.07V383.949H277.294ZM281.547 386.805V381.901H279.843V381.205H284.067V381.901H282.307V386.805H281.547ZM286.384 386.805V384.437L284.48 381.205H285.312L286.312 382.917L286.768 383.693L287.232 382.901L288.216 381.205H289.032L287.144 384.445V386.805H286.384ZM294.617 386.805V381.205H298.401V381.901H295.369V383.725H297.697V384.421H295.369V386.805H294.617ZM301.142 386.917C299.862 386.917 299.102 385.877 299.102 384.005C299.102 382.133 299.862 381.093 301.142 381.093C302.43 381.093 303.19 382.133 303.19 384.005C303.19 385.877 302.43 386.917 301.142 386.917ZM301.142 386.229C301.966 386.229 302.414 385.493 302.414 384.005C302.414 382.517 301.966 381.781 301.142 381.781C300.326 381.781 299.878 382.517 299.878 384.005C299.878 385.493 300.326 386.229 301.142 386.229ZM304.099 386.805V381.205H306.235C307.259 381.205 307.963 381.797 307.963 382.741C307.963 383.469 307.499 384.029 306.731 384.197C307.403 384.285 307.699 384.701 307.827 385.373L308.107 386.805H307.315L307.075 385.445C306.963 384.805 306.707 384.509 305.971 384.509H304.851V386.805H304.099ZM304.851 383.829H306.139C306.763 383.829 307.187 383.453 307.187 382.845C307.187 382.253 306.763 381.893 306.139 381.893H304.851V383.829ZM313.285 386.805L314.973 381.205H316.085L317.781 386.805H317.005L316.557 385.285H314.509L314.061 386.805H313.285ZM314.709 384.597H316.357L315.941 383.181L315.541 381.821H315.525L315.125 383.181L314.709 384.597ZM318.658 386.805V381.205H319.418V386.109H322.298V386.805H318.658ZM323.455 386.805V381.205H324.215V386.109H327.095V386.805H323.455ZM30.6772 396.805V391.205H32.8132C33.8372 391.205 34.5412 391.797 34.5412 392.741C34.5412 393.469 34.0772 394.029 33.3092 394.197C33.9812 394.285 34.2772 394.701 34.4052 395.373L34.6852 396.805H33.8932L33.6532 395.445C33.5412 394.805 33.2852 394.509 32.5492 394.509H31.4292V396.805H30.6772ZM31.4292 393.829H32.7172C33.3412 393.829 33.7652 393.453 33.7652 392.845C33.7652 392.253 33.3412 391.893 32.7172 391.893H31.4292V393.829ZM37.3221 396.917C36.0901 396.917 35.4421 396.149 35.4421 394.773V391.205H36.2021V394.749C36.2021 395.717 36.5541 396.221 37.3221 396.221C38.0981 396.221 38.4261 395.709 38.4261 394.749V391.205H39.1861V394.773C39.1861 396.149 38.5461 396.917 37.3221 396.917ZM40.2389 396.805V391.205H41.2949L43.2949 395.325C43.2709 394.877 43.2549 394.421 43.2549 393.973V391.205H43.9909V396.805H43.2389L40.9349 392.061C40.9589 392.565 40.9749 393.077 40.9749 393.581V396.805H40.2389ZM46.9718 396.917C45.7958 396.917 45.0278 396.317 44.7878 395.373L45.5078 395.053C45.7158 395.853 46.1718 396.229 46.9718 396.229C47.7318 396.229 48.1878 395.885 48.1878 395.317C48.1878 394.797 47.8678 394.549 47.1958 394.397L46.4598 394.229C45.4438 393.997 45.0358 393.469 45.0358 392.685C45.0358 391.701 45.7718 391.093 46.8918 391.093C47.9158 391.093 48.6278 391.613 48.8758 392.405L48.1558 392.725C47.9718 392.109 47.5878 391.773 46.8918 391.773C46.2038 391.773 45.7958 392.101 45.7958 392.629C45.7958 393.093 46.0438 393.333 46.6758 393.477L47.4038 393.645C48.4438 393.885 48.9558 394.389 48.9558 395.269C48.9558 396.285 48.1718 396.917 46.9718 396.917ZM54.6456 396.805V396.109H56.1016V391.901H54.6456V391.205H58.3656V391.901H56.8536V396.109H58.3656V396.805H54.6456ZM59.4264 396.805V391.205H60.4824L62.4824 395.325C62.4584 394.877 62.4424 394.421 62.4424 393.973V391.205H63.1784V396.805H62.4264L60.1224 392.061C60.1464 392.565 60.1624 393.077 60.1624 393.581V396.805H59.4264ZM70.4842 396.805V391.901H68.7802V391.205H73.0042V391.901H71.2442V396.805H70.4842ZM73.8331 396.805V391.205H74.5931V393.549H76.7851V391.205H77.5451V396.805H76.7851V394.245H74.5931V396.805H73.8331ZM78.7499 396.805V391.205H82.4219V391.901H79.5019V393.557H81.6139V394.245H79.5019V396.109H82.4219V396.805H78.7499ZM88.2397 396.805V391.205H90.3757C91.3997 391.205 92.1037 391.797 92.1037 392.741C92.1037 393.469 91.6397 394.029 90.8717 394.197C91.5437 394.285 91.8397 394.701 91.9677 395.373L92.2477 396.805H91.4557L91.2157 395.445C91.1037 394.805 90.8477 394.509 90.1117 394.509H88.9917V396.805H88.2397ZM88.9917 393.829H90.2797C90.9037 393.829 91.3277 393.453 91.3277 392.845C91.3277 392.253 90.9037 391.893 90.2797 391.893H88.9917V393.829ZM93.1406 396.805V391.205H96.8126V391.901H93.8926V393.557H96.0046V394.245H93.8926V396.109H96.8126V396.805H93.1406ZM97.8334 396.805V391.205H99.9454C101.081 391.205 101.753 391.925 101.753 392.909C101.753 393.901 101.081 394.629 99.9374 394.629H98.5854V396.805H97.8334ZM99.8094 393.949C100.601 393.949 100.985 393.477 100.985 392.909C100.985 392.349 100.617 391.893 99.8094 391.893H98.5854V393.949H99.8094ZM102.798 396.805V391.205H103.558V396.109H106.438V396.805H102.798ZM107.019 396.805L108.707 391.205H109.819L111.515 396.805H110.739L110.291 395.285H108.243L107.795 396.805H107.019ZM108.443 394.597H110.091L109.675 393.181L109.275 391.821H109.259L108.859 393.181L108.443 394.597ZM113.696 396.805V394.437L111.792 391.205H112.624L113.624 392.917L114.08 393.693L114.544 392.901L115.528 391.205H116.344L114.456 394.445V396.805H113.696ZM118.301 396.805V395.661H119.421V396.805H118.301Z" fill="white"/>
</g>
<g opacity="0.4">
<rect x="0.5" y="-0.5" width="332" height="30" transform="matrix(1 -2.46186e-08 -3.10446e-07 -1 18.1172 208.196)" stroke="white"/>
<path d="M51.0045 198.356C49.3282 198.356 48.2334 197.501 47.8913 196.155L48.9176 195.699C49.2141 196.839 49.8641 197.375 51.0045 197.375C52.0878 197.375 52.7378 196.885 52.7378 196.075C52.7378 195.334 52.2817 194.98 51.3238 194.764L50.2746 194.524C48.8264 194.194 48.2448 193.441 48.2448 192.323C48.2448 190.921 49.2939 190.054 50.8904 190.054C52.3501 190.054 53.365 190.795 53.7185 191.924L52.6922 192.38C52.4299 191.502 51.8825 191.023 50.8904 191.023C49.9097 191.023 49.3282 191.491 49.3282 192.244C49.3282 192.905 49.6817 193.247 50.5825 193.452L51.6203 193.692C53.1027 194.034 53.8325 194.752 53.8325 196.007C53.8325 197.455 52.715 198.356 51.0045 198.356ZM55.2763 198.196V190.214H60.5105V191.206H56.3483V193.566H59.3588V194.547H56.3483V197.204H60.5105V198.196H55.2763ZM62.2052 198.196V190.214H63.2885V197.204H67.3938V198.196H62.2052ZM68.9516 198.196V190.214H74.1858V191.206H70.0236V193.566H73.0341V194.547H70.0236V197.204H74.1858V198.196H68.9516ZM78.3893 198.356C76.4963 198.356 75.3902 196.839 75.3902 194.205C75.3902 191.559 76.4963 190.054 78.3893 190.054C79.8375 190.054 80.8068 190.955 81.1945 192.563L80.1568 192.814C79.8945 191.639 79.3016 191.035 78.3893 191.035C77.1577 191.035 76.5077 192.107 76.5077 194.205C76.5077 196.303 77.1577 197.375 78.3893 197.375C79.313 197.375 79.9174 196.782 80.1796 195.539L81.2174 195.802C80.841 197.455 79.8375 198.356 78.3893 198.356ZM84.5199 198.196V191.206H82.091V190.214H88.112V191.206H85.6033V198.196H84.5199ZM96.0856 198.196V190.214H98.275C100.43 190.214 101.73 191.742 101.73 194.205C101.73 196.668 100.43 198.196 98.275 198.196H96.0856ZM97.1575 197.216H98.218C99.8031 197.216 100.624 196.189 100.624 194.205C100.624 192.221 99.8031 191.195 98.2066 191.195H97.1575V197.216ZM102.41 198.196L104.816 190.214H106.401L108.819 198.196H107.713L107.074 196.03H104.155L103.516 198.196H102.41ZM104.44 195.049H106.789L106.196 193.03L105.626 191.092H105.603L105.033 193.03L104.44 195.049ZM111.871 198.196V191.206H109.442V190.214H115.463V191.206H112.954V198.196H111.871ZM116.815 198.196V190.214H122.049V191.206H117.887V193.566H120.898V194.547H117.887V197.204H122.049V198.196H116.815Z" fill="white"/>
<path d="M42.3438 186.586V200.898H25.4688V186.586H42.3438Z" stroke="#ADADAD"/>
<path d="M30.4688 183.867V189.992" stroke="#ADADAD"/>
<path d="M36.5938 183.867V189.992" stroke="#ADADAD"/>
</g>
<path d="M37.9154 21V13.0175H40.9602C42.4198 13.0175 43.4233 13.8614 43.4233 15.207C43.4233 16.2447 42.7619 17.043 41.6672 17.2825C42.6251 17.4079 43.047 18.0009 43.2295 18.9588L43.6286 21H42.4996L42.1575 19.0614C41.9979 18.1491 41.633 17.7272 40.5839 17.7272H38.9874V21H37.9154ZM38.9874 16.7579H40.8233C41.7128 16.7579 42.3172 16.2219 42.3172 15.3553C42.3172 14.5114 41.7128 13.9982 40.8233 13.9982H38.9874V16.7579ZM44.9013 21V13.0175H50.1355V14.0096H45.9733V16.3702H48.9838V17.3509H45.9733V20.0079H50.1355V21H44.9013ZM51.5907 21V13.0175H54.6013C56.2206 13.0175 57.1785 14.0439 57.1785 15.4465C57.1785 16.8605 56.2206 17.8982 54.5899 17.8982H52.6627V21H51.5907ZM54.4074 16.9289C55.5363 16.9289 56.0837 16.2561 56.0837 15.4465C56.0837 14.6482 55.5592 13.9982 54.4074 13.9982H52.6627V16.9289H54.4074ZM58.6679 21V13.0175H59.7512V20.0079H63.8565V21H58.6679ZM64.6845 21L67.0906 13.0175H68.6757L71.0932 21H69.9871L69.3485 18.8333H66.4292L65.7906 21H64.6845ZM66.7143 17.8526H69.0634L68.4704 15.8342L67.9002 13.8956H67.8774L67.3073 15.8342L66.7143 17.8526ZM74.2019 21V17.6246L71.4879 13.0175H72.6739L74.0993 15.4579L74.7493 16.564L75.4107 15.4351L76.8133 13.0175H77.9765L75.2853 17.636V21H74.2019ZM85.9386 21V13.0175H91.3325V14.0096H87.0106V16.6096H90.329V17.6018H87.0106V21H85.9386ZM95.2509 21.1596C93.4947 21.1596 92.571 20.0649 92.571 18.1035V13.0175H93.6544V18.0693C93.6544 19.4491 94.1561 20.1675 95.2509 20.1675C96.357 20.1675 96.8245 19.4377 96.8245 18.0693V13.0175H97.9079V18.1035C97.9079 20.0649 96.9956 21.1596 95.2509 21.1596ZM99.4087 21V13.0175H100.914L103.765 18.8904C103.731 18.2518 103.708 17.6018 103.708 16.9632V13.0175H104.757V21H103.685L100.401 14.2377C100.435 14.9561 100.458 15.686 100.458 16.4044V21H99.4087ZM109.04 21.1596C107.147 21.1596 106.041 19.643 106.041 17.0088C106.041 14.3632 107.147 12.8579 109.04 12.8579C110.488 12.8579 111.458 13.7588 111.845 15.3667L110.808 15.6175C110.545 14.443 109.952 13.8386 109.04 13.8386C107.809 13.8386 107.159 14.9105 107.159 17.0088C107.159 19.107 107.809 20.1789 109.04 20.1789C109.964 20.1789 110.568 19.586 110.831 18.343L111.868 18.6053C111.492 20.2588 110.488 21.1596 109.04 21.1596ZM115.171 21V14.0096H112.742V13.0175H118.763V14.0096H116.254V21H115.171ZM119.944 21V20.0079H122.02V14.0096H119.944V13.0175H125.247V14.0096H123.092V20.0079H125.247V21H119.944ZM129.428 21.1596C127.603 21.1596 126.52 19.6772 126.52 17.0088C126.52 14.3404 127.603 12.8579 129.428 12.8579C131.264 12.8579 132.347 14.3404 132.347 17.0088C132.347 19.6772 131.264 21.1596 129.428 21.1596ZM129.428 20.1789C130.602 20.1789 131.241 19.1298 131.241 17.0088C131.241 14.8877 130.602 13.8386 129.428 13.8386C128.265 13.8386 127.626 14.8877 127.626 17.0088C127.626 19.1298 128.265 20.1789 129.428 20.1789ZM133.597 21V13.0175H135.102L137.953 18.8904C137.919 18.2518 137.896 17.6018 137.896 16.9632V13.0175H138.945V21H137.873L134.589 14.2377C134.623 14.9561 134.646 15.686 134.646 16.4044V21H133.597Z" fill="white"/>
<path d="M18.1172 23.2881V11H30.2163V23.2881H18.1172Z" fill="#7C7C7C"/>
<path d="M18.6772 52.0469V46.4469H20.8132C21.8372 46.4469 22.5412 47.0389 22.5412 47.9829C22.5412 48.7109 22.0772 49.2709 21.3092 49.4389C21.9812 49.5269 22.2772 49.9429 22.4052 50.6149L22.6852 52.0469H21.8932L21.6532 50.6869C21.5412 50.0469 21.2852 49.7509 20.5492 49.7509H19.4292V52.0469H18.6772ZM19.4292 49.0709H20.7172C21.3412 49.0709 21.7652 48.6949 21.7652 48.0869C21.7652 47.4949 21.3412 47.1349 20.7172 47.1349H19.4292V49.0709ZM23.5781 52.0469V46.4469H27.2501V47.1429H24.3301V48.7989H26.4421V49.4869H24.3301V51.3509H27.2501V52.0469H23.5781ZM28.2709 52.0469V46.4469H30.3829C31.5189 46.4469 32.1909 47.1669 32.1909 48.1509C32.1909 49.1429 31.5189 49.8709 30.3749 49.8709H29.0229V52.0469H28.2709ZM30.2469 49.1909C31.0389 49.1909 31.4229 48.7189 31.4229 48.1509C31.4229 47.5909 31.0549 47.1349 30.2469 47.1349H29.0229V49.1909H30.2469ZM33.2358 52.0469V46.4469H33.9958V51.3509H36.8758V52.0469H33.2358ZM37.4567 52.0469L39.1447 46.4469H40.2567L41.9527 52.0469H41.1767L40.7287 50.5269H38.6807L38.2327 52.0469H37.4567ZM38.8807 49.8389H40.5287L40.1127 48.4229L39.7127 47.0629H39.6967L39.2967 48.4229L38.8807 49.8389ZM44.1336 52.0469V49.6789L42.2296 46.4469H43.0616L44.0616 48.1589L44.5176 48.9349L44.9816 48.1429L45.9656 46.4469H46.7816L44.8936 49.6869V52.0469H44.1336ZM52.2233 52.0469V46.4469H53.2793L55.2793 50.5669C55.2553 50.1189 55.2393 49.6629 55.2393 49.2149V46.4469H55.9753V52.0469H55.2233L52.9193 47.3029C52.9433 47.8069 52.9593 48.3189 52.9593 48.8229V52.0469H52.2233ZM56.6442 52.0469L58.3322 46.4469H59.4442L61.1402 52.0469H60.3642L59.9162 50.5269H57.8682L57.4202 52.0469H56.6442ZM58.0682 49.8389H59.7162L59.3002 48.4229L58.9002 47.0629H58.8842L58.4842 48.4229L58.0682 49.8389ZM61.7451 52.0469V46.4469H62.8891L63.3851 48.4389L63.7051 49.7669C63.8091 49.3269 63.9051 48.8789 64.0171 48.4389L64.5131 46.4469H65.6331V52.0469H64.9131V49.3029V47.2229L63.9691 50.9269H63.4091L62.4651 47.2229V49.3029V52.0469H61.7451ZM66.7499 52.0469V46.4469H70.4219V47.1429H67.5019V48.7989H69.6139V49.4869H67.5019V51.3509H70.4219V52.0469H66.7499Z" fill="white"/>
<path d="M18.6292 145.001V139.401H20.1652C21.6772 139.401 22.5892 140.473 22.5892 142.201C22.5892 143.929 21.6772 145.001 20.1652 145.001H18.6292ZM19.3812 144.313H20.1252C21.2372 144.313 21.8132 143.593 21.8132 142.201C21.8132 140.809 21.2372 140.089 20.1172 140.089H19.3812V144.313ZM23.0661 145.001L24.7541 139.401H25.8661L27.5621 145.001H26.7861L26.3381 143.481H24.2901L23.8421 145.001H23.0661ZM24.4901 142.793H26.1381L25.7221 141.377L25.3221 140.017H25.3061L24.9061 141.377L24.4901 142.793ZM29.7029 145.001V140.097H27.9989V139.401H32.2229V140.097H30.4629V145.001H29.7029ZM33.1718 145.001V139.401H36.8438V140.097H33.9238V141.753H36.0358V142.441H33.9238V144.305H36.8438V145.001H33.1718ZM42.6616 145.001V139.401H44.7976C45.8216 139.401 46.5256 139.993 46.5256 140.937C46.5256 141.665 46.0616 142.225 45.2936 142.393C45.9656 142.481 46.2616 142.897 46.3896 143.569L46.6696 145.001H45.8776L45.6376 143.641C45.5256 143.001 45.2696 142.705 44.5336 142.705H43.4136V145.001H42.6616ZM43.4136 142.025H44.7016C45.3256 142.025 45.7496 141.649 45.7496 141.041C45.7496 140.449 45.3256 140.089 44.7016 140.089H43.4136V142.025ZM47.0504 145.001L48.7384 139.401H49.8504L51.5464 145.001H50.7704L50.3224 143.481H48.2744L47.8264 145.001H47.0504ZM48.4744 142.793H50.1224L49.7064 141.377L49.3064 140.017H49.2904L48.8904 141.377L48.4744 142.793ZM52.2233 145.001V139.401H53.2793L55.2793 143.521C55.2553 143.073 55.2393 142.617 55.2393 142.169V139.401H55.9753V145.001H55.2233L52.9193 140.257C52.9433 140.761 52.9593 141.273 52.9593 141.777V145.001H52.2233ZM58.8042 145.113C57.6202 145.113 56.8762 144.049 56.8762 142.201C56.8762 140.345 57.6602 139.289 58.9962 139.289C59.9802 139.289 60.6922 139.857 60.9882 140.985L60.2522 141.177C60.0602 140.377 59.6362 139.977 58.9962 139.977C58.1162 139.977 57.6522 140.737 57.6522 142.201C57.6522 143.673 58.1002 144.433 58.9642 144.433C59.7242 144.433 60.1402 143.889 60.1642 142.921H58.9322V142.225H60.9162V145.001H60.2442V144.097C60.0602 144.729 59.5322 145.113 58.8042 145.113ZM61.9531 145.001V139.401H65.6251V140.097H62.7051V141.753H64.8171V142.441H62.7051V144.305H65.6251V145.001H61.9531Z" fill="white"/>
<path d="M20.5812 229.855C19.4052 229.855 18.6372 229.255 18.3972 228.311L19.1172 227.991C19.3252 228.791 19.7812 229.167 20.5812 229.167C21.3412 229.167 21.7972 228.823 21.7972 228.255C21.7972 227.735 21.4772 227.487 20.8052 227.335L20.0692 227.167C19.0532 226.935 18.6452 226.407 18.6452 225.623C18.6452 224.639 19.3812 224.031 20.5012 224.031C21.5252 224.031 22.2372 224.551 22.4852 225.343L21.7652 225.663C21.5812 225.047 21.1972 224.711 20.5012 224.711C19.8132 224.711 19.4052 225.039 19.4052 225.567C19.4052 226.031 19.6532 226.271 20.2852 226.415L21.0132 226.583C22.0532 226.823 22.5652 227.327 22.5652 228.207C22.5652 229.223 21.7812 229.855 20.5812 229.855ZM24.9061 229.743V224.839H23.2021V224.143H27.4261V224.839H25.6661V229.743H24.9061ZM27.8629 229.743L29.5509 224.143H30.6629L32.3589 229.743H31.5829L31.1349 228.223H29.0869L28.6389 229.743H27.8629ZM29.2869 227.535H30.9349L30.5189 226.119L30.1189 224.759H30.1029L29.7029 226.119L29.2869 227.535ZM34.4998 229.743V224.839H32.7958V224.143H37.0198V224.839H35.2598V229.743H34.4998ZM39.7127 229.855C38.4807 229.855 37.8327 229.087 37.8327 227.711V224.143H38.5927V227.687C38.5927 228.655 38.9447 229.159 39.7127 229.159C40.4887 229.159 40.8167 228.647 40.8167 227.687V224.143H41.5767V227.711C41.5767 229.087 40.9367 229.855 39.7127 229.855ZM44.5656 229.855C43.3896 229.855 42.6216 229.255 42.3816 228.311L43.1016 227.991C43.3096 228.791 43.7656 229.167 44.5656 229.167C45.3256 229.167 45.7816 228.823 45.7816 228.255C45.7816 227.735 45.4616 227.487 44.7896 227.335L44.0536 227.167C43.0376 226.935 42.6296 226.407 42.6296 225.623C42.6296 224.639 43.3656 224.031 44.4856 224.031C45.5096 224.031 46.2216 224.551 46.4696 225.343L45.7496 225.663C45.5656 225.047 45.1816 224.711 44.4856 224.711C43.7976 224.711 43.3896 225.039 43.3896 225.567C43.3896 226.031 43.6376 226.271 44.2696 226.415L44.9976 226.583C46.0376 226.823 46.5496 227.327 46.5496 228.207C46.5496 229.223 45.7656 229.855 44.5656 229.855ZM47.5624 229.743V224.143H51.2344V224.839H48.3144V226.495H50.4264V227.183H48.3144V229.047H51.2344V229.743H47.5624ZM54.1593 229.855C52.9833 229.855 52.2153 229.255 51.9753 228.311L52.6953 227.991C52.9033 228.791 53.3593 229.167 54.1593 229.167C54.9193 229.167 55.3753 228.823 55.3753 228.255C55.3753 227.735 55.0553 227.487 54.3833 227.335L53.6473 227.167C52.6313 226.935 52.2233 226.407 52.2233 225.623C52.2233 224.639 52.9593 224.031 54.0793 224.031C55.1033 224.031 55.8153 224.551 56.0633 225.343L55.3433 225.663C55.1593 225.047 54.7753 224.711 54.0793 224.711C53.3913 224.711 52.9833 225.039 52.9833 225.567C52.9833 226.031 53.2313 226.271 53.8633 226.415L54.5913 226.583C55.6313 226.823 56.1433 227.327 56.1433 228.207C56.1433 229.223 55.3593 229.855 54.1593 229.855Z" fill="white"/>
<path opacity="0.4" d="M18.6772 67.0645V61.4645H20.7892C21.9252 61.4645 22.5972 62.1845 22.5972 63.1685C22.5972 64.1605 21.9252 64.8885 20.7812 64.8885H19.4292V67.0645H18.6772ZM20.6532 64.2085C21.4452 64.2085 21.8292 63.7365 21.8292 63.1685C21.8292 62.6085 21.4612 62.1525 20.6532 62.1525H19.4292V64.2085H20.6532ZM23.4741 67.0645V61.4645H25.6101C26.6341 61.4645 27.3381 62.0565 27.3381 63.0005C27.3381 63.7285 26.8741 64.2885 26.1061 64.4565C26.7781 64.5445 27.0741 64.9605 27.2021 65.6325L27.4821 67.0645H26.6901L26.4501 65.7045C26.3381 65.0645 26.0821 64.7685 25.3461 64.7685H24.2261V67.0645H23.4741ZM24.2261 64.0885H25.5141C26.1381 64.0885 26.5621 63.7125 26.5621 63.1045C26.5621 62.5125 26.1381 62.1525 25.5141 62.1525H24.2261V64.0885ZM30.1109 67.1765C28.8309 67.1765 28.0709 66.1365 28.0709 64.2645C28.0709 62.3925 28.8309 61.3525 30.1109 61.3525C31.3989 61.3525 32.1589 62.3925 32.1589 64.2645C32.1589 66.1365 31.3989 67.1765 30.1109 67.1765ZM30.1109 66.4885C30.9349 66.4885 31.3829 65.7525 31.3829 64.2645C31.3829 62.7765 30.9349 62.0405 30.1109 62.0405C29.2949 62.0405 28.8469 62.7765 28.8469 64.2645C28.8469 65.7525 29.2949 66.4885 30.1109 66.4885ZM34.3558 67.0645L32.6758 61.4645H33.4758L34.5318 65.0485L34.9078 66.3205H34.9238L35.2998 65.0405L36.3478 61.4645H37.1318L35.4518 67.0645H34.3558ZM37.8487 67.0645V66.3685H39.3047V62.1605H37.8487V61.4645H41.5687V62.1605H40.0567V66.3685H41.5687V67.0645H37.8487ZM42.6136 67.0645V61.4645H44.1496C45.6616 61.4645 46.5736 62.5365 46.5736 64.2645C46.5736 65.9925 45.6616 67.0645 44.1496 67.0645H42.6136ZM43.3656 66.3765H44.1096C45.2216 66.3765 45.7976 65.6565 45.7976 64.2645C45.7976 62.8725 45.2216 62.1525 44.1016 62.1525H43.3656V66.3765ZM47.5624 67.0645V61.4645H51.2344V62.1605H48.3144V63.8165H50.4264V64.5045H48.3144V66.3685H51.2344V67.0645H47.5624ZM56.6442 67.0645L58.3322 61.4645H59.4442L61.1402 67.0645H60.3642L59.9162 65.5445H57.8682L57.4202 67.0645H56.6442ZM58.0682 64.8565H59.7162L59.3002 63.4405L58.9002 62.0805H58.8842L58.4842 63.4405L58.0682 64.8565ZM68.4939 67.1765C67.2619 67.1765 66.6139 66.4085 66.6139 65.0325V61.4645H67.3739V65.0085C67.3739 65.9765 67.7259 66.4805 68.4939 66.4805C69.2699 66.4805 69.5979 65.9685 69.5979 65.0085V61.4645H70.3579V65.0325C70.3579 66.4085 69.7179 67.1765 68.4939 67.1765ZM71.4108 67.0645V61.4645H72.4668L74.4668 65.5845C74.4428 65.1365 74.4268 64.6805 74.4268 64.2325V61.4645H75.1628V67.0645H74.4108L72.1068 62.3205C72.1308 62.8245 72.1468 63.3365 72.1468 63.8405V67.0645H71.4108ZM76.2237 67.0645V66.3685H77.6797V62.1605H76.2237V61.4645H79.9437V62.1605H78.4317V66.3685H79.9437V67.0645H76.2237ZM82.8766 67.1765C81.5966 67.1765 80.8286 66.1445 80.8286 64.2645C80.8286 62.3845 81.5966 61.3525 82.8766 61.3525C84.1566 61.3525 84.9246 62.3845 84.9246 64.2645C84.9246 65.1125 84.7566 65.7765 84.4606 66.2565C84.6286 66.4165 84.8286 66.4405 85.0286 66.4565V67.1765C84.5486 67.1765 84.2526 67.0245 84.0366 66.7685C83.7006 67.0405 83.3166 67.1765 82.8766 67.1765ZM82.8766 66.4885C83.2046 66.4885 83.4766 66.3925 83.6606 66.2085L83.4606 65.7765C83.1486 65.1125 82.8846 64.9685 82.4926 64.9845V64.2725C82.7966 64.2165 83.1246 64.2885 83.3406 64.4805C83.6446 64.7685 83.8206 65.0805 84.0206 65.5125C84.1086 65.1845 84.1486 64.7765 84.1486 64.2645C84.1486 62.7845 83.7086 62.0405 82.8766 62.0405C82.0446 62.0405 81.6046 62.7845 81.6046 64.2645C81.6046 65.7445 82.0446 66.4885 82.8766 66.4885ZM87.6814 67.1765C86.4494 67.1765 85.8014 66.4085 85.8014 65.0325V61.4645H86.5614V65.0085C86.5614 65.9765 86.9134 66.4805 87.6814 66.4805C88.4574 66.4805 88.7854 65.9685 88.7854 65.0085V61.4645H89.5454V65.0325C89.5454 66.4085 88.9054 67.1765 87.6814 67.1765ZM90.7343 67.0645V61.4645H94.4063V62.1605H91.4863V63.8165H93.5983V64.5045H91.4863V66.3685H94.4063V67.0645H90.7343ZM100.192 67.0645V61.4645H101.248L103.248 65.5845C103.224 65.1365 103.208 64.6805 103.208 64.2325V61.4645H103.944V67.0645H103.192L100.888 62.3205C100.912 62.8245 100.928 63.3365 100.928 63.8405V67.0645H100.192ZM104.613 67.0645L106.301 61.4645H107.413L109.109 67.0645H108.333L107.885 65.5445H105.837L105.389 67.0645H104.613ZM106.037 64.8565H107.685L107.269 63.4405L106.869 62.0805H106.853L106.453 63.4405L106.037 64.8565ZM109.714 67.0645V61.4645H110.858L111.354 63.4565L111.674 64.7845C111.778 64.3445 111.874 63.8965 111.986 63.4565L112.482 61.4645H113.602V67.0645H112.882V64.3205V62.2405L111.938 65.9445H111.378L110.434 62.2405V64.3205V67.0645H109.714ZM114.719 67.0645V61.4645H118.391V62.1605H115.471V63.8165H117.583V64.5045H115.471V66.3685H118.391V67.0645H114.719ZM124.32 67.0645V61.4645H128.104V62.1605H125.072V63.9845H127.4V64.6805H125.072V67.0645H124.32ZM130.845 67.1765C129.565 67.1765 128.805 66.1365 128.805 64.2645C128.805 62.3925 129.565 61.3525 130.845 61.3525C132.133 61.3525 132.893 62.3925 132.893 64.2645C132.893 66.1365 132.133 67.1765 130.845 67.1765ZM130.845 66.4885C131.669 66.4885 132.117 65.7525 132.117 64.2645C132.117 62.7765 131.669 62.0405 130.845 62.0405C130.029 62.0405 129.581 62.7765 129.581 64.2645C129.581 65.7525 130.029 66.4885 130.845 66.4885ZM133.802 67.0645V61.4645H135.938C136.962 61.4645 137.666 62.0565 137.666 63.0005C137.666 63.7285 137.202 64.2885 136.434 64.4565C137.106 64.5445 137.402 64.9605 137.53 65.6325L137.81 67.0645H137.018L136.778 65.7045C136.666 65.0645 136.41 64.7685 135.674 64.7685H134.554V67.0645H133.802ZM134.554 64.0885H135.842C136.466 64.0885 136.89 63.7125 136.89 63.1045C136.89 62.5125 136.466 62.1525 135.842 62.1525H134.554V64.0885ZM144.828 67.0645V62.1605H143.124V61.4645H147.348V62.1605H145.588V67.0645H144.828ZM148.177 67.0645V61.4645H148.937V63.8085H151.129V61.4645H151.889V67.0645H151.129V64.5045H148.937V67.0645H148.177ZM152.974 67.0645V66.3685H154.43V62.1605H152.974V61.4645H156.694V62.1605H155.182V66.3685H156.694V67.0645H152.974ZM159.691 67.1765C158.515 67.1765 157.747 66.5765 157.507 65.6325L158.227 65.3125C158.435 66.1125 158.891 66.4885 159.691 66.4885C160.451 66.4885 160.907 66.1445 160.907 65.5765C160.907 65.0565 160.587 64.8085 159.915 64.6565L159.179 64.4885C158.163 64.2565 157.755 63.7285 157.755 62.9445C157.755 61.9605 158.491 61.3525 159.611 61.3525C160.635 61.3525 161.347 61.8725 161.595 62.6645L160.875 62.9845C160.691 62.3685 160.307 62.0325 159.611 62.0325C158.923 62.0325 158.515 62.3605 158.515 62.8885C158.515 63.3525 158.763 63.5925 159.395 63.7365L160.123 63.9045C161.163 64.1445 161.675 64.6485 161.675 65.5285C161.675 66.5445 160.891 67.1765 159.691 67.1765ZM167.38 67.0645V61.4645H169.516C170.54 61.4645 171.244 62.0565 171.244 63.0005C171.244 63.7285 170.78 64.2885 170.012 64.4565C170.684 64.5445 170.98 64.9605 171.108 65.6325L171.388 67.0645H170.596L170.356 65.7045C170.244 65.0645 169.988 64.7685 169.252 64.7685H168.132V67.0645H167.38ZM168.132 64.0885H169.42C170.044 64.0885 170.468 63.7125 170.468 63.1045C170.468 62.5125 170.044 62.1525 169.42 62.1525H168.132V64.0885ZM172.281 67.0645V61.4645H175.953V62.1605H173.033V63.8165H175.145V64.5045H173.033V66.3685H175.953V67.0645H172.281ZM176.974 67.0645V61.4645H179.086C180.222 61.4645 180.894 62.1845 180.894 63.1685C180.894 64.1605 180.222 64.8885 179.078 64.8885H177.726V67.0645H176.974ZM178.95 64.2085C179.742 64.2085 180.126 63.7365 180.126 63.1685C180.126 62.6085 179.758 62.1525 178.95 62.1525H177.726V64.2085H178.95ZM181.939 67.0645V61.4645H182.699V66.3685H185.579V67.0645H181.939ZM186.16 67.0645L187.848 61.4645H188.96L190.656 67.0645H189.88L189.432 65.5445H187.384L186.936 67.0645H186.16ZM187.584 64.8565H189.232L188.816 63.4405L188.416 62.0805H188.4L188 63.4405L187.584 64.8565ZM192.837 67.0645V64.6965L190.933 61.4645H191.765L192.765 63.1765L193.221 63.9525L193.685 63.1605L194.669 61.4645H195.485L193.597 64.7045V67.0645H192.837ZM202.71 67.1765C201.526 67.1765 200.782 66.1125 200.782 64.2645C200.782 62.4085 201.566 61.3525 202.902 61.3525C203.886 61.3525 204.598 61.9205 204.894 63.0485L204.158 63.2405C203.966 62.4405 203.542 62.0405 202.902 62.0405C202.022 62.0405 201.558 62.8005 201.558 64.2645C201.558 65.7365 202.006 66.4965 202.87 66.4965C203.63 66.4965 204.046 65.9525 204.07 64.9845H202.838V64.2885H204.822V67.0645H204.15V66.1605C203.966 66.7925 203.438 67.1765 202.71 67.1765ZM205.755 67.0645V61.4645H207.891C208.915 61.4645 209.619 62.0565 209.619 63.0005C209.619 63.7285 209.155 64.2885 208.387 64.4565C209.059 64.5445 209.355 64.9605 209.483 65.6325L209.763 67.0645H208.971L208.731 65.7045C208.619 65.0645 208.363 64.7685 207.627 64.7685H206.507V67.0645H205.755ZM206.507 64.0885H207.795C208.419 64.0885 208.843 63.7125 208.843 63.1045C208.843 62.5125 208.419 62.1525 207.795 62.1525H206.507V64.0885ZM212.392 67.1765C211.112 67.1765 210.352 66.1365 210.352 64.2645C210.352 62.3925 211.112 61.3525 212.392 61.3525C213.68 61.3525 214.44 62.3925 214.44 64.2645C214.44 66.1365 213.68 67.1765 212.392 67.1765ZM212.392 66.4885C213.216 66.4885 213.664 65.7525 213.664 64.2645C213.664 62.7765 213.216 62.0405 212.392 62.0405C211.576 62.0405 211.128 62.7765 211.128 64.2645C211.128 65.7525 211.576 66.4885 212.392 66.4885ZM217.197 67.1765C215.965 67.1765 215.317 66.4085 215.317 65.0325V61.4645H216.077V65.0085C216.077 65.9765 216.429 66.4805 217.197 66.4805C217.973 66.4805 218.301 65.9685 218.301 65.0085V61.4645H219.061V65.0325C219.061 66.4085 218.421 67.1765 217.197 67.1765ZM220.146 67.0645V61.4645H222.258C223.394 61.4645 224.066 62.1845 224.066 63.1685C224.066 64.1605 223.394 64.8885 222.25 64.8885H220.898V67.0645H220.146ZM222.122 64.2085C222.914 64.2085 223.298 63.7365 223.298 63.1685C223.298 62.6085 222.93 62.1525 222.122 62.1525H220.898V64.2085H222.122ZM231.172 67.0645V62.1605H229.468V61.4645H233.692V62.1605H231.932V67.0645H231.172ZM236.377 67.1765C235.097 67.1765 234.337 66.1365 234.337 64.2645C234.337 62.3925 235.097 61.3525 236.377 61.3525C237.665 61.3525 238.425 62.3925 238.425 64.2645C238.425 66.1365 237.665 67.1765 236.377 67.1765ZM236.377 66.4885C237.201 66.4885 237.649 65.7525 237.649 64.2645C237.649 62.7765 237.201 62.0405 236.377 62.0405C235.561 62.0405 235.113 62.7765 235.113 64.2645C235.113 65.7525 235.561 66.4885 236.377 66.4885ZM18.7812 77.0645V71.4645H22.4532V72.1605H19.5332V73.8165H21.6452V74.5045H19.5332V76.3685H22.4532V77.0645H18.7812ZM23.0661 77.0645L24.7541 71.4645H25.8661L27.5621 77.0645H26.7861L26.3381 75.5445H24.2901L23.8421 77.0645H23.0661ZM24.4901 74.8565H26.1381L25.7221 73.4405L25.3221 72.0805H25.3061L24.9061 73.4405L24.4901 74.8565ZM30.1749 77.1765C28.9989 77.1765 28.2309 76.5765 27.9909 75.6325L28.7109 75.3125C28.9189 76.1125 29.3749 76.4885 30.1749 76.4885C30.9349 76.4885 31.3909 76.1445 31.3909 75.5765C31.3909 75.0565 31.0709 74.8085 30.3989 74.6565L29.6629 74.4885C28.6469 74.2565 28.2389 73.7285 28.2389 72.9445C28.2389 71.9605 28.9749 71.3525 30.0949 71.3525C31.1189 71.3525 31.8309 71.8725 32.0789 72.6645L31.3589 72.9845C31.1749 72.3685 30.7909 72.0325 30.0949 72.0325C29.4069 72.0325 28.9989 72.3605 28.9989 72.8885C28.9989 73.3525 29.2469 73.5925 29.8789 73.7365L30.6069 73.9045C31.6469 74.1445 32.1589 74.6485 32.1589 75.5285C32.1589 76.5445 31.3749 77.1765 30.1749 77.1765ZM33.0518 77.0645V76.3685H34.5078V72.1605H33.0518V71.4645H36.7718V72.1605H35.2598V76.3685H36.7718V77.0645H33.0518ZM38.0327 77.0645V71.4645H38.7927V76.3685H41.6727V77.0645H38.0327ZM44.1336 77.0645V74.6965L42.2296 71.4645H43.0616L44.0616 73.1765L44.5176 73.9525L44.9816 73.1605L45.9656 71.4645H46.7816L44.8936 74.7045V77.0645H44.1336ZM52.2393 77.0645V76.3685H53.6953V72.1605H52.2393V71.4645H55.9593V72.1605H54.4473V76.3685H55.9593V77.0645H52.2393ZM57.0042 77.0645V71.4645H58.5402C60.0522 71.4645 60.9642 72.5365 60.9642 74.2645C60.9642 75.9925 60.0522 77.0645 58.5402 77.0645H57.0042ZM57.7562 76.3765H58.5002C59.6122 76.3765 60.1882 75.6565 60.1882 74.2645C60.1882 72.8725 59.6122 72.1525 58.4922 72.1525H57.7562V76.3765ZM61.9531 77.0645V71.4645H65.6251V72.1605H62.7051V73.8165H64.8171V74.5045H62.7051V76.3685H65.6251V77.0645H61.9531ZM66.6139 77.0645V71.4645H67.6699L69.6699 75.5845C69.6459 75.1365 69.6299 74.6805 69.6299 74.2325V71.4645H70.3659V77.0645H69.6139L67.3099 72.3205C67.3339 72.8245 67.3499 73.3365 67.3499 73.8405V77.0645H66.6139ZM72.8748 77.0645V72.1605H71.1708V71.4645H75.3948V72.1605H73.6348V77.0645H72.8748ZM76.2237 77.0645V76.3685H77.6797V72.1605H76.2237V71.4645H79.9437V72.1605H78.4317V76.3685H79.9437V77.0645H76.2237ZM81.1486 77.0645V71.4645H84.9326V72.1605H81.9006V73.9845H84.2286V74.6805H81.9006V77.0645H81.1486ZM87.3054 77.0645V74.6965L85.4014 71.4645H86.2334L87.2334 73.1765L87.6894 73.9525L88.1534 73.1605L89.1374 71.4645H89.9534L88.0654 74.7045V77.0645H87.3054ZM96.8592 77.0645V72.1605H95.1552V71.4645H99.3792V72.1605H97.6192V77.0645H96.8592ZM100.208 77.0645V71.4645H100.968V73.8085H103.16V71.4645H103.92V77.0645H103.16V74.5045H100.968V77.0645H100.208ZM105.125 77.0645V71.4645H108.797V72.1605H105.877V73.8165H107.989V74.5045H105.877V76.3685H108.797V77.0645H105.125ZM114.615 77.0645V71.4645H116.751C117.775 71.4645 118.479 72.0565 118.479 73.0005C118.479 73.7285 118.015 74.2885 117.247 74.4565C117.919 74.5445 118.215 74.9605 118.343 75.6325L118.623 77.0645H117.831L117.591 75.7045C117.479 75.0645 117.223 74.7685 116.487 74.7685H115.367V77.0645H114.615ZM115.367 74.0885H116.655C117.279 74.0885 117.703 73.7125 117.703 73.1045C117.703 72.5125 117.279 72.1525 116.655 72.1525H115.367V74.0885ZM121.26 77.1765C120.028 77.1765 119.38 76.4085 119.38 75.0325V71.4645H120.14V75.0085C120.14 75.9765 120.492 76.4805 121.26 76.4805C122.036 76.4805 122.364 75.9685 122.364 75.0085V71.4645H123.124V75.0325C123.124 76.4085 122.484 77.1765 121.26 77.1765ZM124.176 77.0645V71.4645H125.232L127.232 75.5845C127.208 75.1365 127.192 74.6805 127.192 74.2325V71.4645H127.928V77.0645H127.176L124.872 72.3205C124.896 72.8245 124.912 73.3365 124.912 73.8405V77.0645H124.176ZM130.909 77.1765C129.733 77.1765 128.965 76.5765 128.725 75.6325L129.445 75.3125C129.653 76.1125 130.109 76.4885 130.909 76.4885C131.669 76.4885 132.125 76.1445 132.125 75.5765C132.125 75.0565 131.805 74.8085 131.133 74.6565L130.397 74.4885C129.381 74.2565 128.973 73.7285 128.973 72.9445C128.973 71.9605 129.709 71.3525 130.829 71.3525C131.853 71.3525 132.565 71.8725 132.813 72.6645L132.093 72.9845C131.909 72.3685 131.525 72.0325 130.829 72.0325C130.141 72.0325 129.733 72.3605 129.733 72.8885C129.733 73.3525 129.981 73.5925 130.613 73.7365L131.341 73.9045C132.381 74.1445 132.893 74.6485 132.893 75.5285C132.893 76.5445 132.109 77.1765 130.909 77.1765ZM138.615 77.0645V71.4645H140.695C141.719 71.4645 142.335 72.0085 142.335 72.8565C142.335 73.5685 141.823 73.9765 141.359 74.1285C141.959 74.2325 142.535 74.7125 142.535 75.5125C142.535 76.4245 141.855 77.0645 140.823 77.0645H138.615ZM139.359 76.3845H140.719C141.399 76.3845 141.767 75.9765 141.767 75.4405C141.767 74.8805 141.399 74.4885 140.727 74.4885H139.359V76.3845ZM139.359 73.8245H140.583C141.255 73.8245 141.583 73.4805 141.583 72.9845C141.583 72.4885 141.255 72.1445 140.583 72.1445H139.359V73.8245ZM143.5 77.0645V71.4645H147.172V72.1605H144.252V73.8165H146.364V74.5045H144.252V76.3685H147.172V77.0645H143.5ZM148.177 77.0645V76.3685H149.633V72.1605H148.177V71.4645H151.897V72.1605H150.385V76.3685H151.897V77.0645H148.177ZM152.958 77.0645V71.4645H154.014L156.014 75.5845C155.99 75.1365 155.974 74.6805 155.974 74.2325V71.4645H156.71V77.0645H155.958L153.654 72.3205C153.678 72.8245 153.694 73.3365 153.694 73.8405V77.0645H152.958ZM159.539 77.1765C158.355 77.1765 157.611 76.1125 157.611 74.2645C157.611 72.4085 158.395 71.3525 159.731 71.3525C160.715 71.3525 161.427 71.9205 161.723 73.0485L160.987 73.2405C160.795 72.4405 160.371 72.0405 159.731 72.0405C158.851 72.0405 158.387 72.8005 158.387 74.2645C158.387 75.7365 158.835 76.4965 159.699 76.4965C160.459 76.4965 160.875 75.9525 160.899 74.9845H159.667V74.2885H161.651V77.0645H160.979V76.1605C160.795 76.7925 160.267 77.1765 159.539 77.1765ZM167.38 77.0645V71.4645H169.516C170.54 71.4645 171.244 72.0565 171.244 73.0005C171.244 73.7285 170.78 74.2885 170.012 74.4565C170.684 74.5445 170.98 74.9605 171.108 75.6325L171.388 77.0645H170.596L170.356 75.7045C170.244 75.0645 169.988 74.7685 169.252 74.7685H168.132V77.0645H167.38ZM168.132 74.0885H169.42C170.044 74.0885 170.468 73.7125 170.468 73.1045C170.468 72.5125 170.044 72.1525 169.42 72.1525H168.132V74.0885ZM172.281 77.0645V71.4645H175.953V72.1605H173.033V73.8165H175.145V74.5045H173.033V76.3685H175.953V77.0645H172.281ZM176.974 77.0645V71.4645H179.086C180.222 71.4645 180.894 72.1845 180.894 73.1685C180.894 74.1605 180.222 74.8885 179.078 74.8885H177.726V77.0645H176.974ZM178.95 74.2085C179.742 74.2085 180.126 73.7365 180.126 73.1685C180.126 72.6085 179.758 72.1525 178.95 72.1525H177.726V74.2085H178.95ZM181.939 77.0645V71.4645H182.699V76.3685H185.579V77.0645H181.939ZM186.16 77.0645L187.848 71.4645H188.96L190.656 77.0645H189.88L189.432 75.5445H187.384L186.936 77.0645H186.16ZM187.584 74.8565H189.232L188.816 73.4405L188.416 72.0805H188.4L188 73.4405L187.584 74.8565ZM192.837 77.0645V74.6965L190.933 71.4645H191.765L192.765 73.1765L193.221 73.9525L193.685 73.1605L194.669 71.4645H195.485L193.597 74.7045V77.0645H192.837ZM196.266 77.0645V71.4645H199.938V72.1605H197.018V73.8165H199.13V74.5045H197.018V76.3685H199.938V77.0645H196.266ZM200.91 77.0645V71.4645H202.446C203.958 71.4645 204.87 72.5365 204.87 74.2645C204.87 75.9925 203.958 77.0645 202.446 77.0645H200.91ZM201.662 76.3765H202.406C203.518 76.3765 204.094 75.6565 204.094 74.2645C204.094 72.8725 203.518 72.1525 202.398 72.1525H201.662V76.3765ZM207.035 77.0645V75.9205H208.155V77.0645H207.035Z" fill="white"/>
<path opacity="0.4" d="M20.6052 165.131C19.2772 165.131 18.5012 164.067 18.5012 162.219C18.5012 160.363 19.2772 159.307 20.6052 159.307C21.6212 159.307 22.3012 159.939 22.5732 161.067L21.8452 161.243C21.6612 160.419 21.2452 159.995 20.6052 159.995C19.7412 159.995 19.2852 160.747 19.2852 162.219C19.2852 163.691 19.7412 164.443 20.6052 164.443C21.2532 164.443 21.6772 164.027 21.8612 163.155L22.5892 163.339C22.3252 164.499 21.6212 165.131 20.6052 165.131ZM23.4581 165.019V159.419H24.2181V161.763H26.4101V159.419H27.1701V165.019H26.4101V162.459H24.2181V165.019H23.4581ZM30.1109 165.131C28.8309 165.131 28.0709 164.091 28.0709 162.219C28.0709 160.347 28.8309 159.307 30.1109 159.307C31.3989 159.307 32.1589 160.347 32.1589 162.219C32.1589 164.091 31.3989 165.131 30.1109 165.131ZM30.1109 164.443C30.9349 164.443 31.3829 163.707 31.3829 162.219C31.3829 160.731 30.9349 159.995 30.1109 159.995C29.2949 159.995 28.8469 160.731 28.8469 162.219C28.8469 163.707 29.2949 164.443 30.1109 164.443ZM34.9078 165.131C33.6278 165.131 32.8678 164.091 32.8678 162.219C32.8678 160.347 33.6278 159.307 34.9078 159.307C36.1958 159.307 36.9558 160.347 36.9558 162.219C36.9558 164.091 36.1958 165.131 34.9078 165.131ZM34.9078 164.443C35.7318 164.443 36.1798 163.707 36.1798 162.219C36.1798 160.731 35.7318 159.995 34.9078 159.995C34.0918 159.995 33.6438 160.731 33.6438 162.219C33.6438 163.707 34.0918 164.443 34.9078 164.443ZM39.7687 165.131C38.5927 165.131 37.8247 164.531 37.5847 163.587L38.3047 163.267C38.5127 164.067 38.9687 164.443 39.7687 164.443C40.5287 164.443 40.9847 164.099 40.9847 163.531C40.9847 163.011 40.6647 162.763 39.9927 162.611L39.2567 162.443C38.2407 162.211 37.8327 161.683 37.8327 160.899C37.8327 159.915 38.5687 159.307 39.6887 159.307C40.7127 159.307 41.4247 159.827 41.6727 160.619L40.9527 160.939C40.7687 160.323 40.3847 159.987 39.6887 159.987C39.0007 159.987 38.5927 160.315 38.5927 160.843C38.5927 161.307 38.8407 161.547 39.4727 161.691L40.2007 161.859C41.2407 162.099 41.7527 162.603 41.7527 163.483C41.7527 164.499 40.9687 165.131 39.7687 165.131ZM42.7656 165.019V159.419H46.4376V160.115H43.5176V161.771H45.6296V162.459H43.5176V164.323H46.4376V165.019H42.7656ZM53.6873 165.019V160.115H51.9833V159.419H56.2073V160.115H54.4473V165.019H53.6873ZM57.0362 165.019V159.419H57.7962V161.763H59.9882V159.419H60.7482V165.019H59.9882V162.459H57.7962V165.019H57.0362ZM61.9531 165.019V159.419H65.6251V160.115H62.7051V161.771H64.8171V162.459H62.7051V164.323H65.6251V165.019H61.9531ZM72.8748 165.019V160.115H71.1708V159.419H75.3948V160.115H73.6348V165.019H72.8748ZM76.2237 165.019V164.323H77.6797V160.115H76.2237V159.419H79.9437V160.115H78.4317V164.323H79.9437V165.019H76.2237ZM80.9326 165.019V159.419H82.0766L82.5726 161.411L82.8926 162.739C82.9966 162.299 83.0926 161.851 83.2046 161.411L83.7006 159.419H84.8206V165.019H84.1006V162.275V160.195L83.1566 163.899H82.5966L81.6526 160.195V162.275V165.019H80.9326ZM85.9374 165.019V159.419H89.6094V160.115H86.6894V161.771H88.8014V162.459H86.6894V164.323H89.6094V165.019H85.9374ZM95.4272 165.019V159.419H97.5632C98.5872 159.419 99.2912 160.011 99.2912 160.955C99.2912 161.683 98.8272 162.243 98.0592 162.411C98.7312 162.499 99.0272 162.915 99.1552 163.587L99.4352 165.019H98.6432L98.4032 163.659C98.2912 163.019 98.0352 162.723 97.2992 162.723H96.1792V165.019H95.4272ZM96.1792 162.043H97.4672C98.0912 162.043 98.5152 161.667 98.5152 161.059C98.5152 160.467 98.0912 160.107 97.4672 160.107H96.1792V162.043ZM99.8161 165.019L101.504 159.419H102.616L104.312 165.019H103.536L103.088 163.499H101.04L100.592 165.019H99.8161ZM101.24 162.811H102.888L102.472 161.395L102.072 160.035H102.056L101.656 161.395L101.24 162.811ZM104.989 165.019V159.419H106.045L108.045 163.539C108.021 163.091 108.005 162.635 108.005 162.187V159.419H108.741V165.019H107.989L105.685 160.275C105.709 160.779 105.725 161.291 105.725 161.795V165.019H104.989ZM111.57 165.131C110.386 165.131 109.642 164.067 109.642 162.219C109.642 160.363 110.426 159.307 111.762 159.307C112.746 159.307 113.458 159.875 113.754 161.003L113.018 161.195C112.826 160.395 112.402 159.995 111.762 159.995C110.882 159.995 110.418 160.755 110.418 162.219C110.418 163.691 110.866 164.451 111.73 164.451C112.49 164.451 112.906 163.907 112.93 162.939H111.698V162.243H113.682V165.019H113.01V164.115C112.826 164.747 112.298 165.131 111.57 165.131ZM114.719 165.019V159.419H118.391V160.115H115.471V161.771H117.583V162.459H115.471V164.323H118.391V165.019H114.719ZM124.32 165.019V159.419H128.104V160.115H125.072V161.939H127.4V162.635H125.072V165.019H124.32ZM130.845 165.131C129.565 165.131 128.805 164.091 128.805 162.219C128.805 160.347 129.565 159.307 130.845 159.307C132.133 159.307 132.893 160.347 132.893 162.219C132.893 164.091 132.133 165.131 130.845 165.131ZM130.845 164.443C131.669 164.443 132.117 163.707 132.117 162.219C132.117 160.731 131.669 159.995 130.845 159.995C130.029 159.995 129.581 160.731 129.581 162.219C129.581 163.707 130.029 164.443 130.845 164.443ZM133.802 165.019V159.419H135.938C136.962 159.419 137.666 160.011 137.666 160.955C137.666 161.683 137.202 162.243 136.434 162.411C137.106 162.499 137.402 162.915 137.53 163.587L137.81 165.019H137.018L136.778 163.659C136.666 163.019 136.41 162.723 135.674 162.723H134.554V165.019H133.802ZM134.554 162.043H135.842C136.466 162.043 136.89 161.667 136.89 161.059C136.89 160.467 136.466 160.107 135.842 160.107H134.554V162.043ZM143.732 165.019L143.036 159.419H143.788L144.06 162.219L144.244 164.131L144.588 162.219L144.916 160.403H145.564L145.892 162.219L146.236 164.131L146.42 162.219L146.692 159.419H147.436L146.74 165.019H145.812L145.452 162.979C145.372 162.515 145.308 162.059 145.236 161.595C145.164 162.059 145.1 162.515 145.02 162.979L144.66 165.019H143.732ZM148.177 165.019V159.419H148.937V161.763H151.129V159.419H151.889V165.019H151.129V162.459H148.937V165.019H148.177ZM153.094 165.019V159.419H156.766V160.115H153.846V161.771H155.958V162.459H153.846V164.323H156.766V165.019H153.094ZM157.755 165.019V159.419H158.811L160.811 163.539C160.787 163.091 160.771 162.635 160.771 162.187V159.419H161.507V165.019H160.755L158.451 160.275C158.475 160.779 158.491 161.291 158.491 161.795V165.019H157.755ZM168.812 165.019V160.115H167.108V159.419H171.332V160.115H169.572V165.019H168.812ZM172.161 165.019V159.419H172.921V161.763H175.113V159.419H175.873V165.019H175.113V162.459H172.921V165.019H172.161ZM177.078 165.019V159.419H180.75V160.115H177.83V161.771H179.942V162.459H177.83V164.323H180.75V165.019H177.078ZM186.568 165.019V159.419H188.704C189.728 159.419 190.432 160.011 190.432 160.955C190.432 161.683 189.968 162.243 189.2 162.411C189.872 162.499 190.168 162.915 190.296 163.587L190.576 165.019H189.784L189.544 163.659C189.432 163.019 189.176 162.723 188.44 162.723H187.32V165.019H186.568ZM187.32 162.043H188.608C189.232 162.043 189.656 161.667 189.656 161.059C189.656 160.467 189.232 160.107 188.608 160.107H187.32V162.043ZM193.213 165.131C191.981 165.131 191.333 164.363 191.333 162.987V159.419H192.093V162.963C192.093 163.931 192.445 164.435 193.213 164.435C193.989 164.435 194.317 163.923 194.317 162.963V159.419H195.077V162.987C195.077 164.363 194.437 165.131 193.213 165.131ZM196.13 165.019V159.419H197.186L199.186 163.539C199.162 163.091 199.146 162.635 199.146 162.187V159.419H199.882V165.019H199.13L196.826 160.275C196.85 160.779 196.866 161.291 196.866 161.795V165.019H196.13ZM202.862 165.131C201.686 165.131 200.918 164.531 200.678 163.587L201.398 163.267C201.606 164.067 202.062 164.443 202.862 164.443C203.622 164.443 204.078 164.099 204.078 163.531C204.078 163.011 203.758 162.763 203.086 162.611L202.35 162.443C201.334 162.211 200.926 161.683 200.926 160.899C200.926 159.915 201.662 159.307 202.782 159.307C203.806 159.307 204.518 159.827 204.766 160.619L204.046 160.939C203.862 160.323 203.478 159.987 202.782 159.987C202.094 159.987 201.686 160.315 201.686 160.843C201.686 161.307 201.934 161.547 202.566 161.691L203.294 161.859C204.334 162.099 204.846 162.603 204.846 163.483C204.846 164.499 204.062 165.131 202.862 165.131ZM210.888 165.019L210.192 159.419H210.944L211.216 162.219L211.4 164.131L211.744 162.219L212.072 160.403H212.72L213.048 162.219L213.392 164.131L213.576 162.219L213.848 159.419H214.592L213.896 165.019H212.968L212.608 162.979C212.528 162.515 212.464 162.059 212.392 161.595C212.32 162.059 212.256 162.515 212.176 162.979L211.816 165.019H210.888ZM215.453 165.019V159.419H219.125V160.115H216.205V161.771H218.317V162.459H216.205V164.323H219.125V165.019H215.453ZM220.146 165.019V159.419H222.282C223.306 159.419 224.01 160.011 224.01 160.955C224.01 161.683 223.546 162.243 222.778 162.411C223.45 162.499 223.746 162.915 223.874 163.587L224.154 165.019H223.362L223.122 163.659C223.01 163.019 222.754 162.723 222.018 162.723H220.898V165.019H220.146ZM220.898 162.043H222.186C222.81 162.043 223.234 161.667 223.234 161.059C223.234 160.467 222.81 160.107 222.186 160.107H220.898V162.043ZM225.047 165.019V159.419H228.719V160.115H225.799V161.771H227.911V162.459H225.799V164.323H228.719V165.019H225.047ZM236.377 165.131C235.097 165.131 234.329 164.099 234.329 162.219C234.329 160.339 235.097 159.307 236.377 159.307C237.657 159.307 238.425 160.339 238.425 162.219C238.425 163.067 238.257 163.731 237.961 164.211C238.129 164.371 238.329 164.395 238.529 164.411V165.131C238.049 165.131 237.753 164.979 237.537 164.723C237.201 164.995 236.817 165.131 236.377 165.131ZM236.377 164.443C236.705 164.443 236.977 164.347 237.161 164.163L236.961 163.731C236.649 163.067 236.385 162.923 235.993 162.939V162.227C236.297 162.171 236.625 162.243 236.841 162.435C237.145 162.723 237.321 163.035 237.521 163.467C237.609 163.139 237.649 162.731 237.649 162.219C237.649 160.739 237.209 159.995 236.377 159.995C235.545 159.995 235.105 160.739 235.105 162.219C235.105 163.699 235.545 164.443 236.377 164.443ZM241.181 165.131C239.949 165.131 239.301 164.363 239.301 162.987V159.419H240.061V162.963C240.061 163.931 240.413 164.435 241.181 164.435C241.957 164.435 242.285 163.923 242.285 162.963V159.419H243.045V162.987C243.045 164.363 242.405 165.131 241.181 165.131ZM244.234 165.019V159.419H247.906V160.115H244.986V161.771H247.098V162.459H244.986V164.323H247.906V165.019H244.234ZM250.775 165.131C249.543 165.131 248.895 164.363 248.895 162.987V159.419H249.655V162.963C249.655 163.931 250.007 164.435 250.775 164.435C251.551 164.435 251.879 163.923 251.879 162.963V159.419H252.639V162.987C252.639 164.363 251.999 165.131 250.775 165.131ZM253.828 165.019V159.419H257.5V160.115H254.58V161.771H256.692V162.459H254.58V164.323H257.5V165.019H253.828ZM258.473 165.019V159.419H260.009C261.521 159.419 262.433 160.491 262.433 162.219C262.433 163.947 261.521 165.019 260.009 165.019H258.473ZM259.225 164.331H259.969C261.081 164.331 261.657 163.611 261.657 162.219C261.657 160.827 261.081 160.107 259.961 160.107H259.225V164.331ZM264.598 165.019V163.875H265.718V165.019H264.598Z" fill="white"/>
<rect x="0.5" y="-0.5" width="369" height="484" transform="matrix(1 -2.46186e-08 -3.10446e-07 -1 -1.55223e-07 484)" stroke="white"/>
<rect x="0.5" y="-0.5" width="139.234" height="30" transform="matrix(1 -2.46186e-08 -3.10446e-07 -1 210.883 462)" stroke="#0BDD48"/>
<path d="M229.856 451V443.018H232.9C234.36 443.018 235.364 443.861 235.364 445.207C235.364 446.245 234.702 447.043 233.607 447.282C234.565 447.408 234.987 448.001 235.17 448.959L235.569 451H234.44L234.098 449.061C233.938 448.149 233.573 447.727 232.524 447.727H230.928V451H229.856ZM230.928 446.758H232.764C233.653 446.758 234.257 446.222 234.257 445.355C234.257 444.511 233.653 443.998 232.764 443.998H230.928V446.758ZM236.842 451V443.018H242.076V444.01H237.914V446.37H240.924V447.351H237.914V450.008H242.076V451H236.842ZM243.531 451V443.018H246.542C248.161 443.018 249.119 444.044 249.119 445.446C249.119 446.861 248.161 447.898 246.53 447.898H244.603V451H243.531ZM246.348 446.929C247.477 446.929 248.024 446.256 248.024 445.446C248.024 444.648 247.499 443.998 246.348 443.998H244.603V446.929H246.348ZM250.608 451V443.018H251.691V450.008H255.797V451H250.608ZM256.625 451L259.031 443.018H260.616L263.034 451H261.927L261.289 448.833H258.369L257.731 451H256.625ZM258.655 447.853H261.004L260.411 445.834L259.841 443.896H259.818L259.248 445.834L258.655 447.853ZM266.142 451V447.625L263.428 443.018H264.614L266.04 445.458L266.69 446.564L267.351 445.435L268.754 443.018H269.917L267.226 447.636V451H266.142ZM277.879 451V443.018H283.273V444.01H278.951V446.61H282.269V447.602H278.951V451H277.879ZM287.191 451.16C285.435 451.16 284.511 450.065 284.511 448.104V443.018H285.595V448.069C285.595 449.449 286.096 450.168 287.191 450.168C288.297 450.168 288.765 449.438 288.765 448.069V443.018H289.848V448.104C289.848 450.065 288.936 451.16 287.191 451.16ZM291.349 451V443.018H292.854L295.705 448.89C295.671 448.252 295.648 447.602 295.648 446.963V443.018H296.697V451H295.625L292.341 444.238C292.375 444.956 292.398 445.686 292.398 446.404V451H291.349ZM300.98 451.16C299.087 451.16 297.981 449.643 297.981 447.009C297.981 444.363 299.087 442.858 300.98 442.858C302.429 442.858 303.398 443.759 303.786 445.367L302.748 445.618C302.486 444.443 301.893 443.839 300.98 443.839C299.749 443.839 299.099 444.911 299.099 447.009C299.099 449.107 299.749 450.179 300.98 450.179C301.904 450.179 302.509 449.586 302.771 448.343L303.809 448.605C303.432 450.259 302.429 451.16 300.98 451.16ZM307.111 451V444.01H304.682V443.018H310.703V444.01H308.194V451H307.111ZM311.885 451V450.008H313.96V444.01H311.885V443.018H317.187V444.01H315.032V450.008H317.187V451H311.885ZM321.368 451.16C319.543 451.16 318.46 449.677 318.46 447.009C318.46 444.34 319.543 442.858 321.368 442.858C323.204 442.858 324.287 444.34 324.287 447.009C324.287 449.677 323.204 451.16 321.368 451.16ZM321.368 450.179C322.543 450.179 323.181 449.13 323.181 447.009C323.181 444.888 322.543 443.839 321.368 443.839C320.205 443.839 319.566 444.888 319.566 447.009C319.566 449.13 320.205 450.179 321.368 450.179ZM325.537 451V443.018H327.042L329.893 448.89C329.859 448.252 329.836 447.602 329.836 446.963V443.018H330.885V451H329.814L326.529 444.238C326.564 444.956 326.586 445.686 326.586 446.404V451H325.537Z" fill="#0BDD48"/>
<rect x="0.5" y="-0.5" width="67.4063" height="30" transform="matrix(1 -2.46186e-08 -3.10446e-07 -1 132.797 462)" stroke="white"/>
<path d="M149.272 451.16C147.379 451.16 146.273 449.643 146.273 447.009C146.273 444.363 147.379 442.858 149.272 442.858C150.72 442.858 151.689 443.759 152.077 445.367L151.039 445.618C150.777 444.443 150.184 443.839 149.272 443.839C148.04 443.839 147.39 444.911 147.39 447.009C147.39 449.107 148.04 450.179 149.272 450.179C150.196 450.179 150.8 449.586 151.062 448.343L152.1 448.605C151.724 450.259 150.72 451.16 149.272 451.16ZM152.78 451L155.186 443.018H156.771L159.189 451H158.082L157.444 448.833H154.524L153.886 451H152.78ZM154.81 447.853H157.159L156.566 445.834L155.996 443.896H155.973L155.403 445.834L154.81 447.853ZM160.153 451V443.018H161.659L164.51 448.89C164.475 448.252 164.452 447.602 164.452 446.963V443.018H165.502V451H164.43L161.145 444.238C161.18 444.956 161.202 445.686 161.202 446.404V451H160.153ZM169.785 451.16C167.892 451.16 166.786 449.643 166.786 447.009C166.786 444.363 167.892 442.858 169.785 442.858C171.233 442.858 172.202 443.759 172.59 445.367L171.552 445.618C171.29 444.443 170.697 443.839 169.785 443.839C168.553 443.839 167.903 444.911 167.903 447.009C167.903 449.107 168.553 450.179 169.785 450.179C170.709 450.179 171.313 449.586 171.575 448.343L172.613 448.605C172.237 450.259 171.233 451.16 169.785 451.16ZM174.023 451V443.018H179.257V444.01H175.094V446.37H178.105V447.351H175.094V450.008H179.257V451H174.023ZM180.951 451V443.018H182.035V450.008H186.14V451H180.951Z" fill="white"/>
<rect x="18.8203" y="241.5" width="67" height="56" stroke="white"/>
<path d="M48.1133 261.545V253H56.5265V261.545H48.1133Z" fill="#FB5536"/>
<path d="M38.6018 282.545V276.945H42.3858V277.641H39.3538V279.465H41.6818V280.161H39.3538V282.545H38.6018ZM42.8787 282.545L44.5667 276.945H45.6787L47.3747 282.545H46.5987L46.1507 281.025H44.1027L43.6547 282.545H42.8787ZM44.3027 280.337H45.9507L45.5347 278.921L45.1347 277.561H45.1187L44.7187 278.921L44.3027 280.337ZM48.0675 282.545V281.849H49.5235V277.641H48.0675V276.945H51.7875V277.641H50.2755V281.849H51.7875V282.545H48.0675ZM53.0484 282.545V276.945H53.8084V281.849H56.6884V282.545H53.0484ZM57.7813 282.545V276.945H61.4533V277.641H58.5333V279.297H60.6453V279.985H58.5333V281.849H61.4533V282.545H57.7813ZM62.4262 282.545V276.945H63.9622C65.4742 276.945 66.3862 278.017 66.3862 279.745C66.3862 281.473 65.4742 282.545 63.9622 282.545H62.4262ZM63.1782 281.857H63.9222C65.0342 281.857 65.6102 281.137 65.6102 279.745C65.6102 278.353 65.0342 277.633 63.9142 277.633H63.1782V281.857Z" fill="white"/>
<rect x="283.617" y="241.5" width="67" height="56" stroke="white"/>
<path d="M312.91 261.545V253H321.323V261.545H312.91Z" fill="#013CF6"/>
<path d="M302.792 282.657C301.616 282.657 300.848 282.057 300.608 281.113L301.328 280.793C301.536 281.593 301.992 281.969 302.792 281.969C303.552 281.969 304.008 281.625 304.008 281.057C304.008 280.537 303.688 280.289 303.016 280.137L302.28 279.969C301.264 279.737 300.856 279.209 300.856 278.425C300.856 277.441 301.592 276.833 302.712 276.833C303.736 276.833 304.448 277.353 304.696 278.145L303.976 278.465C303.792 277.849 303.408 277.513 302.712 277.513C302.024 277.513 301.616 277.841 301.616 278.369C301.616 278.833 301.864 279.073 302.496 279.217L303.224 279.385C304.264 279.625 304.776 280.129 304.776 281.009C304.776 282.025 303.992 282.657 302.792 282.657ZM305.709 282.545V276.945H306.453V278.337V279.769L308.741 276.945H309.629L307.733 279.241L309.869 282.545H308.989L307.229 279.809L306.453 280.729V282.545H305.709ZM310.466 282.545V281.849H311.922V277.641H310.466V276.945H314.186V277.641H312.674V281.849H314.186V282.545H310.466ZM315.279 282.545V276.945H317.391C318.527 276.945 319.199 277.665 319.199 278.649C319.199 279.641 318.527 280.369 317.383 280.369H316.031V282.545H315.279ZM317.255 279.689C318.047 279.689 318.431 279.217 318.431 278.649C318.431 278.089 318.063 277.633 317.255 277.633H316.031V279.689H317.255ZM320.076 282.545V276.945H322.188C323.324 276.945 323.996 277.665 323.996 278.649C323.996 279.641 323.324 280.369 322.18 280.369H320.828V282.545H320.076ZM322.052 279.689C322.844 279.689 323.228 279.217 323.228 278.649C323.228 278.089 322.86 277.633 322.052 277.633H320.828V279.689H322.052ZM324.977 282.545V276.945H328.649V277.641H325.729V279.297H327.841V279.985H325.729V281.849H328.649V282.545H324.977ZM329.621 282.545V276.945H331.157C332.669 276.945 333.581 278.017 333.581 279.745C333.581 281.473 332.669 282.545 331.157 282.545H329.621ZM330.373 281.857H331.117C332.229 281.857 332.805 281.137 332.805 279.745C332.805 278.353 332.229 277.633 331.109 277.633H330.373V281.857Z" fill="white"/>
<rect x="195.352" y="241.5" width="67" height="56" stroke="white"/>
<path d="M224.645 261.545V253H233.058V261.545H224.645Z" fill="#0BDD48"/>
<path d="M209.73 282.657C208.554 282.657 207.786 282.057 207.546 281.113L208.266 280.793C208.474 281.593 208.93 281.969 209.73 281.969C210.49 281.969 210.946 281.625 210.946 281.057C210.946 280.537 210.626 280.289 209.954 280.137L209.218 279.969C208.202 279.737 207.794 279.209 207.794 278.425C207.794 277.441 208.53 276.833 209.65 276.833C210.674 276.833 211.386 277.353 211.634 278.145L210.914 278.465C210.73 277.849 210.346 277.513 209.65 277.513C208.962 277.513 208.554 277.841 208.554 278.369C208.554 278.833 208.802 279.073 209.434 279.217L210.162 279.385C211.202 279.625 211.714 280.129 211.714 281.009C211.714 282.025 210.93 282.657 209.73 282.657ZM214.471 282.657C213.239 282.657 212.591 281.889 212.591 280.513V276.945H213.351V280.489C213.351 281.457 213.703 281.961 214.471 281.961C215.247 281.961 215.575 281.449 215.575 280.489V276.945H216.335V280.513C216.335 281.889 215.695 282.657 214.471 282.657ZM219.347 282.657C218.019 282.657 217.243 281.593 217.243 279.745C217.243 277.889 218.019 276.833 219.347 276.833C220.363 276.833 221.043 277.465 221.315 278.593L220.587 278.769C220.403 277.945 219.987 277.521 219.347 277.521C218.483 277.521 218.027 278.273 218.027 279.745C218.027 281.217 218.483 281.969 219.347 281.969C219.995 281.969 220.419 281.553 220.603 280.681L221.331 280.865C221.067 282.025 220.363 282.657 219.347 282.657ZM224.144 282.657C222.816 282.657 222.04 281.593 222.04 279.745C222.04 277.889 222.816 276.833 224.144 276.833C225.16 276.833 225.84 277.465 226.112 278.593L225.384 278.769C225.2 277.945 224.784 277.521 224.144 277.521C223.28 277.521 222.824 278.273 222.824 279.745C222.824 281.217 223.28 281.969 224.144 281.969C224.792 281.969 225.216 281.553 225.4 280.681L226.128 280.865C225.864 282.025 225.16 282.657 224.144 282.657ZM227.117 282.545V276.945H230.789V277.641H227.869V279.297H229.981V279.985H227.869V281.849H230.789V282.545H227.117ZM231.914 282.545V276.945H235.586V277.641H232.666V279.297H234.778V279.985H232.666V281.849H235.586V282.545H231.914ZM236.559 282.545V276.945H238.095C239.607 276.945 240.519 278.017 240.519 279.745C240.519 281.473 239.607 282.545 238.095 282.545H236.559ZM237.311 281.857H238.055C239.167 281.857 239.743 281.137 239.743 279.745C239.743 278.353 239.167 277.633 238.047 277.633H237.311V281.857ZM241.508 282.545V276.945H245.18V277.641H242.26V279.297H244.372V279.985H242.26V281.849H245.18V282.545H241.508ZM246.153 282.545V276.945H247.689C249.201 276.945 250.113 278.017 250.113 279.745C250.113 281.473 249.201 282.545 247.689 282.545H246.153ZM246.905 281.857H247.649C248.761 281.857 249.337 281.137 249.337 279.745C249.337 278.353 248.761 277.633 247.641 277.633H246.905V281.857Z" fill="white"/>
<rect x="107.086" y="241.5" width="67" height="56" stroke="white"/>
<path d="M136.379 261.545V253H144.792V261.545H136.379Z" fill="#7C7C7C"/>
<path d="M121.488 282.657C120.16 282.657 119.384 281.593 119.384 279.745C119.384 277.889 120.16 276.833 121.488 276.833C122.504 276.833 123.184 277.465 123.456 278.593L122.728 278.769C122.544 277.945 122.128 277.521 121.488 277.521C120.624 277.521 120.168 278.273 120.168 279.745C120.168 281.217 120.624 281.969 121.488 281.969C122.136 281.969 122.56 281.553 122.744 280.681L123.472 280.865C123.208 282.025 122.504 282.657 121.488 282.657ZM123.949 282.545L125.637 276.945H126.749L128.445 282.545H127.669L127.221 281.025H125.173L124.725 282.545H123.949ZM125.373 280.337H127.021L126.605 278.921L126.205 277.561H126.189L125.789 278.921L125.373 280.337ZM129.122 282.545V276.945H130.178L132.178 281.065C132.154 280.617 132.138 280.161 132.138 279.713V276.945H132.874V282.545H132.122L129.818 277.801C129.842 278.305 129.858 278.817 129.858 279.321V282.545H129.122ZM135.879 282.657C134.551 282.657 133.775 281.593 133.775 279.745C133.775 277.889 134.551 276.833 135.879 276.833C136.895 276.833 137.575 277.465 137.847 278.593L137.119 278.769C136.935 277.945 136.519 277.521 135.879 277.521C135.015 277.521 134.559 278.273 134.559 279.745C134.559 281.217 135.015 281.969 135.879 281.969C136.527 281.969 136.951 281.553 137.135 280.681L137.863 280.865C137.599 282.025 136.895 282.657 135.879 282.657ZM138.852 282.545V276.945H142.524V277.641H139.604V279.297H141.716V279.985H139.604V281.849H142.524V282.545H138.852ZM143.712 282.545V276.945H144.472V281.849H147.352V282.545H143.712ZM148.509 282.545V276.945H149.269V281.849H152.149V282.545H148.509ZM153.242 282.545V276.945H156.914V277.641H153.994V279.297H156.106V279.985H153.994V281.849H156.914V282.545H153.242ZM157.887 282.545V276.945H159.423C160.935 276.945 161.847 278.017 161.847 279.745C161.847 281.473 160.935 282.545 159.423 282.545H157.887ZM158.639 281.857H159.383C160.495 281.857 161.071 281.137 161.071 279.745C161.071 278.353 160.495 277.633 159.375 277.633H158.639V281.857Z" fill="white"/>
</svg>
