<svg width="539" height="310" viewBox="0 0 539 310" fill="none" xmlns="http://www.w3.org/2000/svg">
<path d="M148.732 67.6815C149.092 68.2015 149.196 68.8895 149.196 69.5935C149.196 70.2975 149.092 70.9855 148.732 71.5055C148.404 71.9855 147.9 72.2975 147.22 72.2975C146.54 72.2975 146.036 71.9855 145.708 71.5055C145.348 70.9855 145.244 70.2975 145.244 69.5935C145.244 68.8895 145.348 68.2015 145.708 67.6815C146.036 67.2015 146.54 66.8895 147.22 66.8895C147.9 66.8895 148.404 67.2015 148.732 67.6815ZM146.372 67.8495C146.036 68.2175 145.9 68.8095 145.9 69.5935C145.9 70.0655 145.948 70.4735 146.06 70.8015L148.14 67.9295L148.068 67.8495C147.86 67.6255 147.58 67.4975 147.22 67.4975C146.844 67.4975 146.58 67.6255 146.372 67.8495ZM148.068 71.3375C148.404 70.9695 148.54 70.3775 148.54 69.5935C148.54 69.1455 148.492 68.7535 148.396 68.4415L146.332 71.2975C146.556 71.5455 146.82 71.6895 147.22 71.6895C147.58 71.6895 147.86 71.5615 148.068 71.3375ZM150.633 68.8175C150.769 68.4495 151.065 68.2815 151.425 68.2815C151.785 68.2815 152.097 68.4735 152.177 68.8975C152.321 68.5135 152.633 68.2815 153.089 68.2815C153.577 68.2815 154.049 68.5135 154.049 69.4255V72.1855H153.449V69.5215C153.449 69.0175 153.249 68.8575 152.929 68.8575C152.609 68.8575 152.345 69.0815 152.345 69.6335V72.1855H151.753V69.5455C151.753 69.0495 151.561 68.8575 151.241 68.8575C150.913 68.8575 150.649 69.0575 150.649 69.6415V72.1855H150.049V68.3535H150.633V68.8175ZM156.942 72.2975C155.862 72.2975 155.318 71.6015 155.214 71.1695L155.798 70.9295C155.91 71.3295 156.318 71.7215 156.958 71.7215C157.47 71.7215 157.766 71.4815 157.766 71.1695C157.766 70.8895 157.582 70.7215 157.158 70.6335L156.414 70.4815C155.694 70.3375 155.374 69.9215 155.374 69.4255C155.374 68.7775 155.974 68.2415 156.822 68.2415C157.678 68.2415 158.23 68.6815 158.406 69.2895L157.862 69.5055C157.734 69.1375 157.406 68.8015 156.822 68.8015C156.334 68.8015 156.006 69.0335 156.006 69.3775C156.006 69.6255 156.158 69.8175 156.542 69.8895L157.27 70.0335C158.03 70.1855 158.406 70.5615 158.406 71.1375C158.406 71.6735 157.958 72.2975 156.942 72.2975Z" fill="#FEFEFE"/>
<path d="M230.768 72.2975C229.6 72.2975 228.92 71.6415 228.92 70.8255C228.92 70.1855 229.36 69.7135 229.936 69.5295C229.44 69.3615 229.048 68.8895 229.048 68.3055C229.048 67.4815 229.776 66.8895 230.768 66.8895C231.76 66.8895 232.488 67.4815 232.488 68.3055C232.488 68.8815 232.096 69.3615 231.592 69.5295C232.168 69.7055 232.616 70.1855 232.616 70.8255C232.616 71.6415 231.936 72.2975 230.768 72.2975ZM230.768 71.7215C231.512 71.7215 231.944 71.2975 231.944 70.7695C231.944 70.2415 231.512 69.8095 230.768 69.8095C230.016 69.8095 229.592 70.2415 229.592 70.7695C229.592 71.2975 230.016 71.7215 230.768 71.7215ZM230.768 69.2495C231.376 69.2495 231.824 68.8815 231.824 68.3455C231.824 67.8335 231.408 67.4495 230.768 67.4495C230.12 67.4495 229.712 67.8335 229.712 68.3455C229.712 68.8815 230.152 69.2495 230.768 69.2495ZM237.029 67.6815C237.389 68.2015 237.493 68.8895 237.493 69.5935C237.493 70.2975 237.389 70.9855 237.029 71.5055C236.701 71.9855 236.197 72.2975 235.517 72.2975C234.837 72.2975 234.333 71.9855 234.005 71.5055C233.645 70.9855 233.541 70.2975 233.541 69.5935C233.541 68.8895 233.645 68.2015 234.005 67.6815C234.333 67.2015 234.837 66.8895 235.517 66.8895C236.197 66.8895 236.701 67.2015 237.029 67.6815ZM234.669 67.8495C234.333 68.2175 234.197 68.8095 234.197 69.5935C234.197 70.0655 234.245 70.4735 234.357 70.8015L236.437 67.9295L236.365 67.8495C236.157 67.6255 235.877 67.4975 235.517 67.4975C235.141 67.4975 234.877 67.6255 234.669 67.8495ZM236.365 71.3375C236.701 70.9695 236.837 70.3775 236.837 69.5935C236.837 69.1455 236.789 68.7535 236.693 68.4415L234.629 71.2975C234.853 71.5455 235.117 71.6895 235.517 71.6895C235.877 71.6895 236.157 71.5615 236.365 71.3375ZM241.826 67.6815C242.186 68.2015 242.29 68.8895 242.29 69.5935C242.29 70.2975 242.186 70.9855 241.826 71.5055C241.498 71.9855 240.994 72.2975 240.314 72.2975C239.634 72.2975 239.13 71.9855 238.802 71.5055C238.442 70.9855 238.338 70.2975 238.338 69.5935C238.338 68.8895 238.442 68.2015 238.802 67.6815C239.13 67.2015 239.634 66.8895 240.314 66.8895C240.994 66.8895 241.498 67.2015 241.826 67.6815ZM239.466 67.8495C239.13 68.2175 238.994 68.8095 238.994 69.5935C238.994 70.0655 239.042 70.4735 239.154 70.8015L241.234 67.9295L241.162 67.8495C240.954 67.6255 240.674 67.4975 240.314 67.4975C239.938 67.4975 239.674 67.6255 239.466 67.8495ZM241.162 71.3375C241.498 70.9695 241.634 70.3775 241.634 69.5935C241.634 69.1455 241.586 68.7535 241.49 68.4415L239.426 71.2975C239.65 71.5455 239.914 71.6895 240.314 71.6895C240.674 71.6895 240.954 71.5615 241.162 71.3375ZM243.727 68.8175C243.863 68.4495 244.159 68.2815 244.519 68.2815C244.879 68.2815 245.191 68.4735 245.271 68.8975C245.415 68.5135 245.727 68.2815 246.183 68.2815C246.671 68.2815 247.143 68.5135 247.143 69.4255V72.1855H246.543V69.5215C246.543 69.0175 246.343 68.8575 246.023 68.8575C245.703 68.8575 245.439 69.0815 245.439 69.6335V72.1855H244.847V69.5455C244.847 69.0495 244.655 68.8575 244.335 68.8575C244.007 68.8575 243.743 69.0575 243.743 69.6415V72.1855H243.143V68.3535H243.727V68.8175ZM250.036 72.2975C248.956 72.2975 248.412 71.6015 248.308 71.1695L248.892 70.9295C249.004 71.3295 249.412 71.7215 250.052 71.7215C250.564 71.7215 250.86 71.4815 250.86 71.1695C250.86 70.8895 250.676 70.7215 250.252 70.6335L249.508 70.4815C248.788 70.3375 248.468 69.9215 248.468 69.4255C248.468 68.7775 249.068 68.2415 249.916 68.2415C250.772 68.2415 251.324 68.6815 251.5 69.2895L250.956 69.5055C250.828 69.1375 250.5 68.8015 249.916 68.8015C249.428 68.8015 249.1 69.0335 249.1 69.3775C249.1 69.6255 249.252 69.8175 249.636 69.8895L250.364 70.0335C251.124 70.1855 251.5 70.5615 251.5 71.1375C251.5 71.6735 251.052 72.2975 250.036 72.2975Z" fill="#FEFEFE"/>
<path d="M500.364 69.0575C501.244 69.0575 502.02 69.6255 502.02 70.6495C502.02 71.5295 501.34 72.2975 500.172 72.2975C499.044 72.2975 498.332 71.5455 498.26 70.6815L498.916 70.5535C498.972 71.2655 499.524 71.6975 500.164 71.6975C500.884 71.6975 501.356 71.2575 501.356 70.6655C501.356 69.9775 500.884 69.6335 500.22 69.6335C500.052 69.6335 499.892 69.6495 499.748 69.6895L499.436 69.1295L501.044 67.6095H498.42V67.0015H501.908V67.6015L500.364 69.0575ZM504.353 71.5775C504.353 71.2015 504.649 70.9135 505.009 70.9135C505.377 70.9135 505.673 71.2015 505.673 71.5775C505.673 71.9535 505.377 72.2335 505.009 72.2335C504.649 72.2335 504.353 71.9535 504.353 71.5775ZM508.118 68.7775C508.102 68.7055 508.094 68.6175 508.094 68.5455C508.094 67.6575 508.782 66.8895 509.894 66.8895C510.966 66.8895 511.606 67.6015 511.606 68.4575C511.606 69.1375 511.182 69.6735 510.59 70.0495L509.526 70.7295C509.214 70.9295 508.926 71.2015 508.862 71.5775H511.654V72.1855H508.046C508.062 71.3855 508.382 70.7455 509.214 70.2095L510.142 69.6095C510.646 69.2815 510.934 68.9215 510.934 68.4655C510.934 67.9535 510.566 67.4815 509.878 67.4815C509.174 67.4815 508.75 67.9695 508.75 68.6095C508.75 68.6975 508.758 68.7935 508.774 68.8575L508.118 68.7775ZM514.739 72.2975C513.659 72.2975 513.115 71.6015 513.011 71.1695L513.595 70.9295C513.707 71.3295 514.115 71.7215 514.755 71.7215C515.267 71.7215 515.563 71.4815 515.563 71.1695C515.563 70.8895 515.379 70.7215 514.955 70.6335L514.211 70.4815C513.491 70.3375 513.171 69.9215 513.171 69.4255C513.171 68.7775 513.771 68.2415 514.619 68.2415C515.475 68.2415 516.027 68.6815 516.203 69.2895L515.659 69.5055C515.531 69.1375 515.203 68.8015 514.619 68.8015C514.131 68.8015 513.803 69.0335 513.803 69.3775C513.803 69.6255 513.955 69.8175 514.339 69.8895L515.067 70.0335C515.827 70.1855 516.203 70.5615 516.203 71.1375C516.203 71.6735 515.755 72.2975 514.739 72.2975Z" fill="#FEFEFE"/>
<path d="M410.024 68.7775C410.008 68.7055 410 68.6175 410 68.5455C410 67.6575 410.688 66.8895 411.8 66.8895C412.872 66.8895 413.512 67.6015 413.512 68.4575C413.512 69.1375 413.088 69.6735 412.496 70.0495L411.432 70.7295C411.12 70.9295 410.832 71.2015 410.768 71.5775H413.56V72.1855H409.952C409.968 71.3855 410.288 70.7455 411.12 70.2095L412.048 69.6095C412.552 69.2815 412.84 68.9215 412.84 68.4655C412.84 67.9535 412.472 67.4815 411.784 67.4815C411.08 67.4815 410.656 67.9695 410.656 68.6095C410.656 68.6975 410.664 68.7935 410.68 68.8575L410.024 68.7775ZM415.853 71.5775C415.853 71.2015 416.149 70.9135 416.509 70.9135C416.877 70.9135 417.173 71.2015 417.173 71.5775C417.173 71.9535 416.877 72.2335 416.509 72.2335C416.149 72.2335 415.853 71.9535 415.853 71.5775ZM421.682 67.0015H422.602V70.3695H423.506V70.9775H422.602V72.1855H421.946V70.9775H419.394V70.2095L421.682 67.0015ZM420.01 70.3695H421.946V67.6495L420.01 70.3695ZM426.239 72.2975C425.159 72.2975 424.615 71.6015 424.511 71.1695L425.095 70.9295C425.207 71.3295 425.615 71.7215 426.255 71.7215C426.767 71.7215 427.063 71.4815 427.063 71.1695C427.063 70.8895 426.879 70.7215 426.455 70.6335L425.711 70.4815C424.991 70.3375 424.671 69.9215 424.671 69.4255C424.671 68.7775 425.271 68.2415 426.119 68.2415C426.975 68.2415 427.527 68.6815 427.703 69.2895L427.159 69.5055C427.031 69.1375 426.703 68.8015 426.119 68.8015C425.631 68.8015 425.303 69.0335 425.303 69.3775C425.303 69.6255 425.455 69.8175 425.839 69.8895L426.567 70.0335C427.327 70.1855 427.703 70.5615 427.703 71.1375C427.703 71.6735 427.255 72.2975 426.239 72.2975Z" fill="#FEFEFE"/>
<path d="M323.036 71.5855V68.4815H321.564V68.0415C322.468 68.0415 323.068 67.6255 323.1 67.0015H323.692V71.5855H325.02V72.1855H321.668V71.5855H323.036ZM327.353 71.5775C327.353 71.2015 327.649 70.9135 328.009 70.9135C328.377 70.9135 328.673 71.2015 328.673 71.5775C328.673 71.9535 328.377 72.2335 328.009 72.2335C327.649 72.2335 327.353 71.9535 327.353 71.5775ZM334.47 67.7215C334.286 67.6015 333.942 67.4815 333.478 67.4815C332.286 67.4815 331.614 68.4175 331.566 69.5855C331.758 69.1615 332.286 68.7695 333.022 68.7695C334.022 68.7695 334.774 69.4335 334.774 70.5375C334.774 71.6175 333.902 72.2975 332.902 72.2975C331.854 72.2975 330.894 71.5455 330.894 69.8735C330.894 67.9375 332.07 66.8895 333.518 66.8895C334.03 66.8895 334.43 67.0095 334.678 67.1775L334.47 67.7215ZM331.686 70.5375C331.686 71.2575 332.27 71.7055 332.894 71.7055C333.55 71.7055 334.102 71.2655 334.102 70.5375C334.102 69.8015 333.542 69.3455 332.894 69.3455C332.246 69.3455 331.686 69.8015 331.686 70.5375ZM337.739 72.2975C336.659 72.2975 336.115 71.6015 336.011 71.1695L336.595 70.9295C336.707 71.3295 337.115 71.7215 337.755 71.7215C338.267 71.7215 338.563 71.4815 338.563 71.1695C338.563 70.8895 338.379 70.7215 337.955 70.6335L337.211 70.4815C336.491 70.3375 336.171 69.9215 336.171 69.4255C336.171 68.7775 336.771 68.2415 337.619 68.2415C338.475 68.2415 339.027 68.6815 339.203 69.2895L338.659 69.5055C338.531 69.1375 338.203 68.8015 337.619 68.8015C337.131 68.8015 336.803 69.0335 336.803 69.3775C336.803 69.6255 336.955 69.8175 337.339 69.8895L338.067 70.0335C338.827 70.1855 339.203 70.5615 339.203 71.1375C339.203 71.6735 338.755 72.2975 337.739 72.2975Z" fill="#FEFEFE"/>
<rect x="145.32" y="90.7871" width="372" height="23" rx="5.5" stroke="#0BDD48"/>
<path d="M164.82 106.559V98.0146H173.234V106.559H164.82Z" fill="#0BDD48"/>
<path d="M189.05 102.095C190.37 102.095 191.534 102.947 191.534 104.483C191.534 105.803 190.514 106.955 188.762 106.955C187.07 106.955 186.002 105.827 185.894 104.531L186.878 104.339C186.962 105.407 187.79 106.055 188.75 106.055C189.83 106.055 190.538 105.395 190.538 104.507C190.538 103.475 189.83 102.959 188.834 102.959C188.582 102.959 188.342 102.983 188.126 103.043L187.658 102.203L190.07 99.9231H186.134V99.0111H191.366V99.9111L189.05 102.095ZM195.034 105.875C195.034 105.311 195.478 104.879 196.018 104.879C196.57 104.879 197.014 105.311 197.014 105.875C197.014 106.439 196.57 106.859 196.018 106.859C195.478 106.859 195.034 106.439 195.034 105.875ZM200.681 101.675C200.657 101.567 200.645 101.435 200.645 101.327C200.645 99.9951 201.677 98.8431 203.345 98.8431C204.953 98.8431 205.913 99.9111 205.913 101.195C205.913 102.215 205.277 103.019 204.389 103.583L202.793 104.603C202.325 104.903 201.893 105.311 201.797 105.875H205.985V106.787H200.573C200.597 105.587 201.077 104.627 202.325 103.823L203.717 102.923C204.473 102.431 204.905 101.891 204.905 101.207C204.905 100.439 204.353 99.7311 203.321 99.7311C202.265 99.7311 201.629 100.463 201.629 101.423C201.629 101.555 201.641 101.699 201.665 101.795L200.681 101.675ZM210.612 106.955C208.992 106.955 208.176 105.911 208.02 105.263L208.896 104.903C209.064 105.503 209.676 106.091 210.636 106.091C211.404 106.091 211.848 105.731 211.848 105.263C211.848 104.843 211.572 104.591 210.936 104.459L209.82 104.231C208.74 104.015 208.26 103.391 208.26 102.647C208.26 101.675 209.16 100.871 210.432 100.871C211.716 100.871 212.544 101.531 212.808 102.443L211.992 102.767C211.8 102.215 211.308 101.711 210.432 101.711C209.7 101.711 209.208 102.059 209.208 102.575C209.208 102.947 209.436 103.235 210.012 103.343L211.104 103.559C212.244 103.787 212.808 104.351 212.808 105.215C212.808 106.019 212.136 106.955 210.612 106.955ZM227.139 101.039V101.915H224.943V104.975C224.943 105.647 225.363 105.971 225.987 105.971C226.383 105.971 226.899 105.899 227.139 105.815V106.691C226.875 106.787 226.467 106.883 225.879 106.883C224.691 106.883 223.983 106.295 223.983 105.155V101.915H222.135V101.039H223.083C223.779 101.039 224.043 100.679 224.043 100.043V99.0111H224.943V101.039H227.139ZM232.006 106.955C230.35 106.955 229.126 105.683 229.126 103.907C229.126 102.143 230.35 100.871 232.006 100.871C233.662 100.871 234.886 102.143 234.886 103.907C234.886 105.683 233.662 106.955 232.006 106.955ZM232.006 106.079C233.038 106.079 233.914 105.299 233.914 103.907C233.914 102.527 233.038 101.747 232.006 101.747C230.974 101.747 230.098 102.527 230.098 103.907C230.098 105.299 230.974 106.079 232.006 106.079ZM241.53 101.039V101.915H239.334V104.975C239.334 105.647 239.754 105.971 240.378 105.971C240.774 105.971 241.29 105.899 241.53 105.815V106.691C241.266 106.787 240.858 106.883 240.27 106.883C239.082 106.883 238.374 106.295 238.374 105.155V101.915H236.526V101.039H237.474C238.17 101.039 238.434 100.679 238.434 100.043V99.0111H239.334V101.039H241.53ZM243.853 105.239C243.853 104.231 244.609 103.703 245.629 103.559L247.285 103.319C247.717 103.259 247.801 103.067 247.801 102.803C247.801 102.191 247.345 101.735 246.421 101.735C245.521 101.735 244.945 102.239 244.873 102.899L243.961 102.707C244.081 101.639 245.101 100.871 246.397 100.871C248.053 100.871 248.749 101.783 248.749 102.899V105.707C248.749 106.187 248.821 106.607 248.869 106.787H247.933C247.897 106.679 247.825 106.295 247.825 105.923C247.645 106.391 246.961 106.955 245.881 106.955C244.561 106.955 243.853 106.103 243.853 105.239ZM246.025 106.079C246.961 106.079 247.801 105.539 247.801 104.387V103.979L245.821 104.267C245.245 104.351 244.813 104.651 244.813 105.167C244.813 105.659 245.173 106.079 246.025 106.079ZM250.904 105.923H253.112V98.9751H251.216V98.1111H254.072V105.923H256.28V106.787H250.904V105.923Z" fill="#FEFEFE"/>
<rect x="145.32" y="122.037" width="99" height="23" rx="5.5" stroke="#0BDD48"/>
<path d="M168.492 138.205C166.74 138.205 165.72 137.221 165.72 135.997C165.72 135.037 166.38 134.329 167.244 134.053C166.5 133.801 165.912 133.093 165.912 132.217C165.912 130.981 167.004 130.093 168.492 130.093C169.98 130.093 171.072 130.981 171.072 132.217C171.072 133.081 170.484 133.801 169.728 134.053C170.592 134.317 171.264 135.037 171.264 135.997C171.264 137.221 170.244 138.205 168.492 138.205ZM168.492 137.341C169.608 137.341 170.256 136.705 170.256 135.913C170.256 135.121 169.608 134.473 168.492 134.473C167.364 134.473 166.728 135.121 166.728 135.913C166.728 136.705 167.364 137.341 168.492 137.341ZM168.492 133.633C169.404 133.633 170.076 133.081 170.076 132.277C170.076 131.509 169.452 130.933 168.492 130.933C167.52 130.933 166.908 131.509 166.908 132.277C166.908 133.081 167.568 133.633 168.492 133.633ZM173.132 136.897C173.516 137.113 174.14 137.269 174.668 137.269C176.54 137.269 177.416 135.973 177.416 134.041C177.14 134.701 176.384 135.241 175.34 135.241C174.056 135.241 172.76 134.329 172.76 132.685C172.76 131.149 174.056 130.093 175.484 130.093C177.092 130.093 178.412 131.329 178.412 133.825C178.412 136.465 177.212 138.205 174.692 138.205C174.008 138.205 173.216 138.025 172.796 137.761L173.132 136.897ZM177.224 132.673C177.224 131.641 176.384 130.993 175.484 130.993C174.608 130.993 173.744 131.641 173.744 132.673C173.744 133.729 174.596 134.353 175.484 134.353C176.396 134.353 177.224 133.693 177.224 132.673ZM185.079 131.281C185.619 132.061 185.775 133.093 185.775 134.149C185.775 135.205 185.619 136.237 185.079 137.017C184.587 137.737 183.831 138.205 182.811 138.205C181.791 138.205 181.035 137.737 180.543 137.017C180.003 136.237 179.847 135.205 179.847 134.149C179.847 133.093 180.003 132.061 180.543 131.281C181.035 130.561 181.791 130.093 182.811 130.093C183.831 130.093 184.587 130.561 185.079 131.281ZM181.539 131.533C181.035 132.085 180.831 132.973 180.831 134.149C180.831 134.857 180.903 135.469 181.071 135.961L184.191 131.653L184.083 131.533C183.771 131.197 183.351 131.005 182.811 131.005C182.247 131.005 181.851 131.197 181.539 131.533ZM184.083 136.765C184.587 136.213 184.791 135.325 184.791 134.149C184.791 133.477 184.719 132.889 184.575 132.421L181.479 136.705C181.815 137.077 182.211 137.293 182.811 137.293C183.351 137.293 183.771 137.101 184.083 136.765ZM187.93 132.985C188.134 132.433 188.578 132.181 189.118 132.181C189.658 132.181 190.126 132.469 190.246 133.105C190.462 132.529 190.93 132.181 191.614 132.181C192.346 132.181 193.054 132.529 193.054 133.897V138.037H192.154V134.041C192.154 133.285 191.854 133.045 191.374 133.045C190.894 133.045 190.498 133.381 190.498 134.209V138.037H189.61V134.077C189.61 133.333 189.322 133.045 188.842 133.045C188.35 133.045 187.954 133.345 187.954 134.221V138.037H187.054V132.289H187.93V132.985ZM197.394 138.205C195.774 138.205 194.958 137.161 194.802 136.513L195.678 136.153C195.846 136.753 196.458 137.341 197.418 137.341C198.186 137.341 198.63 136.981 198.63 136.513C198.63 136.093 198.354 135.841 197.718 135.709L196.602 135.481C195.522 135.265 195.042 134.641 195.042 133.897C195.042 132.925 195.942 132.121 197.214 132.121C198.498 132.121 199.326 132.781 199.59 133.693L198.774 134.017C198.582 133.465 198.09 132.961 197.214 132.961C196.482 132.961 195.99 133.309 195.99 133.825C195.99 134.197 196.218 134.485 196.794 134.593L197.886 134.809C199.026 135.037 199.59 135.601 199.59 136.465C199.59 137.269 198.918 138.205 197.394 138.205Z" fill="#FEFEFE"/>
<rect x="245.32" y="153.287" width="79" height="23" rx="5.5" stroke="#0BDD48"/>
<path d="M271.108 162.471C270.088 163.371 268.108 165.363 267.724 169.287H266.692C267.064 165.015 269.536 162.831 269.98 162.423H265.48V161.511H271.108V162.471ZM277.884 162.531C278.424 163.311 278.58 164.343 278.58 165.399C278.58 166.455 278.424 167.487 277.884 168.267C277.392 168.987 276.636 169.455 275.616 169.455C274.596 169.455 273.84 168.987 273.348 168.267C272.808 167.487 272.652 166.455 272.652 165.399C272.652 164.343 272.808 163.311 273.348 162.531C273.84 161.811 274.596 161.343 275.616 161.343C276.636 161.343 277.392 161.811 277.884 162.531ZM274.344 162.783C273.84 163.335 273.636 164.223 273.636 165.399C273.636 166.107 273.708 166.719 273.876 167.211L276.996 162.903L276.888 162.783C276.576 162.447 276.156 162.255 275.616 162.255C275.052 162.255 274.656 162.447 274.344 162.783ZM276.888 168.015C277.392 167.463 277.596 166.575 277.596 165.399C277.596 164.727 277.524 164.139 277.38 163.671L274.284 167.955C274.62 168.327 275.016 168.543 275.616 168.543C276.156 168.543 276.576 168.351 276.888 168.015ZM285.079 162.531C285.619 163.311 285.775 164.343 285.775 165.399C285.775 166.455 285.619 167.487 285.079 168.267C284.587 168.987 283.831 169.455 282.811 169.455C281.791 169.455 281.035 168.987 280.543 168.267C280.003 167.487 279.847 166.455 279.847 165.399C279.847 164.343 280.003 163.311 280.543 162.531C281.035 161.811 281.791 161.343 282.811 161.343C283.831 161.343 284.587 161.811 285.079 162.531ZM281.539 162.783C281.035 163.335 280.831 164.223 280.831 165.399C280.831 166.107 280.903 166.719 281.071 167.211L284.191 162.903L284.083 162.783C283.771 162.447 283.351 162.255 282.811 162.255C282.247 162.255 281.851 162.447 281.539 162.783ZM284.083 168.015C284.587 167.463 284.791 166.575 284.791 165.399C284.791 164.727 284.719 164.139 284.575 163.671L281.479 167.955C281.815 168.327 282.211 168.543 282.811 168.543C283.351 168.543 283.771 168.351 284.083 168.015ZM287.93 164.235C288.134 163.683 288.578 163.431 289.118 163.431C289.658 163.431 290.126 163.719 290.246 164.355C290.462 163.779 290.93 163.431 291.614 163.431C292.346 163.431 293.054 163.779 293.054 165.147V169.287H292.154V165.291C292.154 164.535 291.854 164.295 291.374 164.295C290.894 164.295 290.498 164.631 290.498 165.459V169.287H289.61V165.327C289.61 164.583 289.322 164.295 288.842 164.295C288.35 164.295 287.954 164.595 287.954 165.471V169.287H287.054V163.539H287.93V164.235ZM297.394 169.455C295.774 169.455 294.958 168.411 294.802 167.763L295.678 167.403C295.846 168.003 296.458 168.591 297.418 168.591C298.186 168.591 298.63 168.231 298.63 167.763C298.63 167.343 298.354 167.091 297.718 166.959L296.602 166.731C295.522 166.515 295.042 165.891 295.042 165.147C295.042 164.175 295.942 163.371 297.214 163.371C298.498 163.371 299.326 164.031 299.59 164.943L298.774 165.267C298.582 164.715 298.09 164.211 297.214 164.211C296.482 164.211 295.99 164.559 295.99 165.075C295.99 165.447 296.218 165.735 296.794 165.843L297.886 166.059C299.026 166.287 299.59 166.851 299.59 167.715C299.59 168.519 298.918 169.455 297.394 169.455Z" fill="#FEFEFE"/>
<rect x="325.32" y="184.537" width="115" height="23" rx="5.5" stroke="#FB5536"/>
<path d="M346.008 192.029H351.228V192.965H347.004V195.929H350.916V196.865H347.004V200.537H346.008V192.029ZM357.956 200.537L357.188 198.077H354.02L353.264 200.537H352.208L354.896 192.029H356.324L359.024 200.537H357.956ZM355.604 192.917L354.32 197.105H356.888L355.604 192.917ZM363.315 199.673H365.259V200.537H360.363V199.673H362.319V192.893H360.363V192.029H365.259V192.893H363.315V199.673ZM367.798 192.029H368.806V199.589H373.174V200.537H367.798V192.029ZM374.922 192.029H379.89V192.965H375.918V195.821H379.626V196.757H375.918V199.601H379.89V200.537H374.922V192.029ZM381.817 192.029H384.349C386.089 192.029 387.433 193.361 387.433 196.301C387.433 199.229 386.089 200.537 384.325 200.537H381.817V192.029ZM384.169 199.601C385.489 199.601 386.437 198.617 386.437 196.301C386.437 193.973 385.501 192.965 384.169 192.965H382.825V199.601H384.169Z" fill="#FB5536"/>
<rect x="441.32" y="215.787" width="72" height="23" rx="5.5" stroke="#0BDD48"/>
<path d="M459.132 227.095C458.976 227.047 458.736 226.987 458.328 226.987C457.14 226.987 456.504 227.659 456.504 228.979V230.935H458.316V231.787H453.84V230.935H455.544V226.891H454.02V226.039H456.48V227.167C456.816 226.279 457.656 225.955 458.34 225.955C458.76 225.955 458.988 226.015 459.132 226.063V227.095ZM463.7 231.955C462.2 231.955 460.844 230.863 460.844 228.895C460.844 227.047 462.188 225.871 463.604 225.871C465.308 225.871 466.34 227.047 466.34 228.775C466.34 228.895 466.328 229.027 466.316 229.111H461.828V229.195C461.828 230.275 462.704 231.067 463.7 231.067C464.672 231.067 465.224 230.527 465.452 229.855L466.28 230.155C465.956 231.151 465.032 231.955 463.7 231.955ZM465.344 228.295C465.296 227.443 464.672 226.723 463.616 226.723C462.656 226.723 461.912 227.467 461.852 228.295H465.344ZM473.139 226.039V226.915H470.943V229.975C470.943 230.647 471.363 230.971 471.987 230.971C472.383 230.971 472.899 230.899 473.139 230.815V231.691C472.875 231.787 472.467 231.883 471.879 231.883C470.691 231.883 469.983 231.295 469.983 230.155V226.915H468.135V226.039H469.083C469.779 226.039 470.043 225.679 470.043 225.043V224.011H470.943V226.039H473.139ZM480.718 227.095C480.562 227.047 480.322 226.987 479.914 226.987C478.726 226.987 478.09 227.659 478.09 228.979V230.935H479.902V231.787H475.426V230.935H477.13V226.891H475.606V226.039H478.066V227.167C478.402 226.279 479.242 225.955 479.926 225.955C480.346 225.955 480.574 226.015 480.718 226.063V227.095ZM487.146 226.039H488.202L484.278 234.067H483.21L484.782 230.911L482.202 226.039H483.318L485.286 229.879L487.146 226.039ZM499.316 230.887V226.231H497.108V225.571C498.464 225.571 499.364 224.947 499.412 224.011H500.3V230.887H502.292V231.787H497.264V230.887H499.316Z" fill="#FEFEFE"/>
<path d="M23.8997 274.088C23.8027 273.568 23.3796 272.986 22.4893 272.986C21.7664 272.986 21.2287 273.444 21.2287 274.062C21.2287 274.564 21.5373 274.943 22.2248 275.093L23.027 275.269C24.0319 275.49 24.6137 276.115 24.6137 276.997C24.6137 277.949 23.8468 278.804 22.5686 278.804C21.2375 278.804 20.4442 277.914 20.3296 277.032L21.026 276.812C21.0965 277.517 21.7576 278.116 22.6039 278.116C23.4325 278.116 23.8733 277.623 23.8733 277.041C23.8733 276.521 23.5295 276.142 22.8771 276.001L22.0573 275.825C21.1053 275.622 20.4883 275.022 20.4883 274.079C20.4883 273.101 21.3698 272.307 22.4981 272.307C23.8468 272.307 24.4198 273.127 24.5785 273.85L23.8997 274.088ZM26.0912 272.431H29.7407V273.118H26.8229V275.216H29.5467V275.904H26.8229V277.993H29.7407V278.681H26.0912V272.431ZM31.7206 273.533V278.681H30.9978V272.431H31.9498L34.3828 277.35V272.431H35.1056V278.681H34.2594L31.7206 273.533ZM36.4421 272.431H38.3021C39.5802 272.431 40.5675 273.409 40.5675 275.569C40.5675 277.72 39.5802 278.681 38.2844 278.681H36.4421V272.431ZM38.1698 277.993C39.1395 277.993 39.8359 277.27 39.8359 275.569C39.8359 273.859 39.1483 273.118 38.1698 273.118H37.1825V277.993H38.1698ZM42.0979 275.842H45.1479V276.459H42.0979V275.842ZM47.2337 272.431H50.8831V273.118H47.9653V275.216H50.6892V275.904H47.9653V277.993H50.8831V278.681H47.2337V272.431ZM56.3362 272.431V278.681H55.6575V273.206L54.5291 278.645H53.8327L52.7309 273.259V278.681H52.0521V272.431H53.1892L54.1942 277.367L55.2255 272.431H56.3362ZM61.1987 278.681L60.6346 276.874H58.3074L57.752 278.681H56.9763L58.9509 272.431H59.9999L61.9833 278.681H61.1987ZM59.471 273.083L58.5278 276.16H60.4142L59.471 273.083ZM65.1356 278.046H66.5637V278.681H62.9671V278.046H64.404V273.065H62.9671V272.431H66.5637V273.065H65.1356V278.046ZM68.429 272.431H69.1695V277.984H72.3782V278.681H68.429V272.431ZM78.8504 272.431H82.685V273.118H79.5821V275.296H82.4558V275.983H79.5821V278.681H78.8504V272.431ZM87.6268 278.681L87.0626 276.874H84.7355L84.1801 278.681H83.4044L85.379 272.431H86.428L88.4114 278.681H87.6268ZM85.8991 273.083L84.9558 276.16H86.8423L85.8991 273.083ZM91.5637 278.046H92.9918V278.681H89.3952V278.046H90.8321V273.065H89.3952V272.431H92.9918V273.065H91.5637V278.046ZM94.8571 272.431H95.5976V277.984H98.8063V278.681H94.8571V272.431ZM100.09 272.431H103.739V273.118H100.822V275.216H103.545V275.904H100.822V277.993H103.739V278.681H100.09V272.431ZM105.155 272.431H107.015C108.293 272.431 109.281 273.409 109.281 275.569C109.281 277.72 108.293 278.681 106.997 278.681H105.155V272.431ZM106.883 277.993C107.853 277.993 108.549 277.27 108.549 275.569C108.549 273.859 107.861 273.118 106.883 273.118H105.896V277.993H106.883ZM116.097 275.842H119.147V276.459H116.097V275.842ZM129.612 274.088C129.515 273.568 129.092 272.986 128.202 272.986C127.479 272.986 126.941 273.444 126.941 274.062C126.941 274.564 127.25 274.943 127.937 275.093L128.739 275.269C129.744 275.49 130.326 276.115 130.326 276.997C130.326 277.949 129.559 278.804 128.281 278.804C126.95 278.804 126.157 277.914 126.042 277.032L126.738 276.812C126.809 277.517 127.47 278.116 128.316 278.116C129.145 278.116 129.586 277.623 129.586 277.041C129.586 276.521 129.242 276.142 128.589 276.001L127.77 275.825C126.818 275.622 126.201 275.022 126.201 274.079C126.201 273.101 127.082 272.307 128.21 272.307C129.559 272.307 130.132 273.127 130.291 273.85L129.612 274.088ZM135.62 272.431V278.681H134.942V273.206L133.813 278.645H133.117L132.015 273.259V278.681H131.336V272.431H132.473L133.478 277.367L134.51 272.431H135.62ZM139.125 278.681H138.394V273.118H136.366V272.431H141.153V273.118H139.125V278.681ZM142.181 272.431H144.526C145.68 272.431 146.403 273.224 146.403 274.264C146.403 275.313 145.68 276.089 144.526 276.089H142.912V278.681H142.181V272.431ZM144.385 275.428C145.187 275.428 145.663 274.961 145.663 274.273C145.663 273.559 145.187 273.092 144.385 273.092H142.912V275.428H144.385ZM154.982 278.681H154.251V273.118H152.223V272.431H157.01V273.118H154.982V278.681ZM160.277 278.046H161.705V278.681H158.108V278.046H159.545V273.065H158.108V272.431H161.705V273.065H160.277V278.046ZM167.334 272.431V278.681H166.655V273.206L165.527 278.645H164.831L163.729 273.259V278.681H163.05V272.431H164.187L165.192 277.367L166.223 272.431H167.334ZM168.803 272.431H172.452V273.118H169.535V275.216H172.258V275.904H169.535V277.993H172.452V278.681H168.803V272.431ZM175.763 278.804C174.432 278.804 173.48 277.729 173.48 275.551C173.48 273.374 174.432 272.307 175.763 272.307C177.094 272.307 178.046 273.374 178.046 275.551C178.046 277.729 177.094 278.804 175.763 278.804ZM175.763 278.099C176.698 278.099 177.306 277.297 177.306 275.551C177.306 273.806 176.698 273.013 175.763 273.013C174.829 273.013 174.221 273.806 174.221 275.551C174.221 277.297 174.829 278.099 175.763 278.099ZM181.049 278.804C179.832 278.804 178.986 278.161 178.986 276.882V272.431H179.718V276.812C179.718 277.64 180.238 278.108 181.049 278.108C181.86 278.108 182.38 277.64 182.38 276.812V272.431H183.112V276.882C183.112 278.161 182.265 278.804 181.049 278.804ZM186.696 278.681H185.964V273.118H183.937V272.431H188.723V273.118H186.696V278.681ZM195.381 275.842H198.431V276.459H195.381V275.842ZM209.196 278.681L208.632 276.874H206.305L205.749 278.681H204.974L206.948 272.431H207.997L209.981 278.681H209.196ZM207.468 273.083L206.525 276.16H208.411L207.468 273.083ZM212.763 278.804C211.546 278.804 210.7 278.161 210.7 276.882V272.431H211.432V276.812C211.432 277.64 211.952 278.108 212.763 278.108C213.574 278.108 214.094 277.64 214.094 276.812V272.431H214.825V276.882C214.825 278.161 213.979 278.804 212.763 278.804ZM218.41 278.681H217.678V273.118H215.651V272.431H220.437V273.118H218.41V278.681ZM223.334 278.804C222.003 278.804 221.051 277.729 221.051 275.551C221.051 273.374 222.003 272.307 223.334 272.307C224.665 272.307 225.617 273.374 225.617 275.551C225.617 277.729 224.665 278.804 223.334 278.804ZM223.334 278.099C224.268 278.099 224.877 277.297 224.877 275.551C224.877 273.806 224.268 273.013 223.334 273.013C222.399 273.013 221.791 273.806 221.791 275.551C221.791 277.297 222.399 278.099 223.334 278.099ZM227.094 275.842H230.145V276.459H227.094V275.842ZM232.812 276.063V278.681H232.08V272.431H234.355C235.483 272.431 236.188 273.242 236.188 274.255C236.188 275.163 235.598 275.851 234.716 276.001L236.162 278.681H235.324L233.923 276.063H232.812ZM234.24 275.393C234.972 275.393 235.448 274.943 235.448 274.255C235.448 273.559 234.972 273.101 234.24 273.101H232.812V275.393H234.24ZM237.516 272.431H241.165V273.118H238.248V275.216H240.971V275.904H238.248V277.993H241.165V278.681H237.516V272.431ZM244.838 278.681H244.106V273.118H242.079V272.431H246.865V273.118H244.838V278.681ZM248.669 276.063V278.681H247.937V272.431H250.212C251.34 272.431 252.045 273.242 252.045 274.255C252.045 275.163 251.454 275.851 250.573 276.001L252.019 278.681H251.181L249.78 276.063H248.669ZM250.097 275.393C250.829 275.393 251.305 274.943 251.305 274.255C251.305 273.559 250.829 273.101 250.097 273.101H248.669V275.393H250.097ZM255.418 278.046H256.846V278.681H253.249V278.046H254.686V273.065H253.249V272.431H256.846V273.065H255.418V278.046ZM258.658 272.431H262.308V273.118H259.39V275.216H262.114V275.904H259.39V277.993H262.308V278.681H258.658V272.431ZM263.724 272.431H265.584C266.862 272.431 267.849 273.409 267.849 275.569C267.849 277.72 266.862 278.681 265.566 278.681H263.724V272.431ZM265.451 277.993C266.421 277.993 267.117 277.27 267.117 275.569C267.117 273.859 266.43 273.118 265.451 273.118H264.464V277.993H265.451ZM274.665 275.842H277.715V276.459H274.665V275.842ZM288.181 274.088C288.084 273.568 287.66 272.986 286.77 272.986C286.047 272.986 285.51 273.444 285.51 274.062C285.51 274.564 285.818 274.943 286.506 275.093L287.308 275.269C288.313 275.49 288.895 276.115 288.895 276.997C288.895 277.949 288.128 278.804 286.849 278.804C285.518 278.804 284.725 277.914 284.61 277.032L285.307 276.812C285.377 277.517 286.038 278.116 286.885 278.116C287.713 278.116 288.154 277.623 288.154 277.041C288.154 276.521 287.81 276.142 287.158 276.001L286.338 275.825C285.386 275.622 284.769 275.022 284.769 274.079C284.769 273.101 285.651 272.307 286.779 272.307C288.128 272.307 288.701 273.127 288.859 273.85L288.181 274.088ZM292.047 278.804C290.83 278.804 289.984 278.161 289.984 276.882V272.431H290.716V276.812C290.716 277.64 291.236 278.108 292.047 278.108C292.858 278.108 293.378 277.64 293.378 276.812V272.431H294.11V276.882C294.11 278.161 293.263 278.804 292.047 278.804ZM297.509 272.307C299.06 272.307 299.51 273.603 299.572 274.238L298.849 274.37C298.734 273.691 298.399 273.004 297.482 273.004C296.557 273.004 295.896 273.824 295.896 275.551C295.896 277.279 296.557 278.108 297.465 278.108C298.408 278.108 298.725 277.341 298.813 276.697L299.519 276.812C299.466 277.447 298.999 278.804 297.474 278.804C296.125 278.804 295.155 277.693 295.155 275.551C295.155 273.418 296.16 272.307 297.509 272.307ZM302.794 272.307C304.346 272.307 304.795 273.603 304.857 274.238L304.134 274.37C304.02 273.691 303.685 273.004 302.768 273.004C301.842 273.004 301.181 273.824 301.181 275.551C301.181 277.279 301.842 278.108 302.75 278.108C303.694 278.108 304.011 277.341 304.099 276.697L304.804 276.812C304.751 277.447 304.284 278.804 302.759 278.804C301.41 278.804 300.441 277.693 300.441 275.551C300.441 273.418 301.446 272.307 302.794 272.307ZM306.229 272.431H309.878V273.118H306.961V275.216H309.684V275.904H306.961V277.993H309.878V278.681H306.229V272.431ZM311.514 272.431H315.164V273.118H312.246V275.216H314.97V275.904H312.246V277.993H315.164V278.681H311.514V272.431ZM316.58 272.431H318.44C319.718 272.431 320.705 273.409 320.705 275.569C320.705 277.72 319.718 278.681 318.422 278.681H316.58V272.431ZM318.307 277.993C319.277 277.993 319.974 277.27 319.974 275.569C319.974 273.859 319.286 273.118 318.307 273.118H317.32V277.993H318.307ZM322.086 272.431H325.735V273.118H322.817V275.216H325.541V275.904H322.817V277.993H325.735V278.681H322.086V272.431ZM327.151 272.431H329.011C330.289 272.431 331.276 273.409 331.276 275.569C331.276 277.72 330.289 278.681 328.993 278.681H327.151V272.431ZM328.879 277.993C329.848 277.993 330.545 277.27 330.545 275.569C330.545 273.859 329.857 273.118 328.879 273.118H327.891V277.993H328.879Z" fill="#FEFEFE"/>
<path d="M21.5519 106.842C21.6719 107.55 22.3079 108.222 23.2679 108.222C24.5639 108.222 25.0439 107.406 25.0439 106.29V105.33C24.7919 105.894 24.1679 106.362 23.2199 106.362C21.6959 106.362 20.6279 105.162 20.6279 103.578C20.6279 101.982 21.6839 100.77 23.2439 100.77C24.2039 100.77 24.8279 101.19 25.0559 101.754V100.938H26.0039V106.374C26.0039 107.694 25.3439 109.11 23.2559 109.11C21.8879 109.11 20.7599 108.234 20.6159 107.07L21.5519 106.842ZM25.0919 103.602C25.0919 102.414 24.3839 101.634 23.3399 101.634C22.2959 101.634 21.5879 102.402 21.5879 103.566C21.5879 104.73 22.2959 105.498 23.3399 105.498C24.3839 105.498 25.0919 104.73 25.0919 103.602ZM30.7153 106.854C29.2153 106.854 27.8593 105.762 27.8593 103.794C27.8593 101.946 29.2033 100.77 30.6193 100.77C32.3233 100.77 33.3553 101.946 33.3553 103.674C33.3553 103.794 33.3433 103.926 33.3313 104.01H28.8433V104.094C28.8433 105.174 29.7193 105.966 30.7153 105.966C31.6873 105.966 32.2393 105.426 32.4673 104.754L33.2953 105.054C32.9713 106.05 32.0473 106.854 30.7153 106.854ZM32.3593 103.194C32.3113 102.342 31.6873 101.622 30.6313 101.622C29.6713 101.622 28.9273 102.366 28.8673 103.194H32.3593ZM35.3786 100.938H36.3146V101.778C36.6746 101.094 37.3946 100.77 38.1866 100.77C39.6866 100.77 40.4066 101.79 40.4066 103.062V106.686H39.4466V103.254C39.4466 102.426 39.0746 101.67 37.9586 101.67C37.0466 101.67 36.3386 102.354 36.3386 103.458V106.686H35.3786V100.938ZM45.1059 106.854C43.6059 106.854 42.2499 105.762 42.2499 103.794C42.2499 101.946 43.5939 100.77 45.0099 100.77C46.7139 100.77 47.7459 101.946 47.7459 103.674C47.7459 103.794 47.7339 103.926 47.7219 104.01H43.2339V104.094C43.2339 105.174 44.1099 105.966 45.1059 105.966C46.0779 105.966 46.6299 105.426 46.8579 104.754L47.6859 105.054C47.3619 106.05 46.4379 106.854 45.1059 106.854ZM46.7499 103.194C46.7019 102.342 46.0779 101.622 45.0219 101.622C44.0619 101.622 43.3179 102.366 43.2579 103.194H46.7499ZM54.9292 101.994C54.7732 101.946 54.5332 101.886 54.1252 101.886C52.9372 101.886 52.3012 102.558 52.3012 103.878V105.834H54.1132V106.686H49.6372V105.834H51.3412V101.79H49.8172V100.938H52.2772V102.066C52.6132 101.178 53.4532 100.854 54.1372 100.854C54.5572 100.854 54.7852 100.914 54.9292 100.962V101.994ZM56.8685 105.138C56.8685 104.13 57.6245 103.602 58.6445 103.458L60.3005 103.218C60.7325 103.158 60.8165 102.966 60.8165 102.702C60.8165 102.09 60.3605 101.634 59.4365 101.634C58.5365 101.634 57.9605 102.138 57.8885 102.798L56.9765 102.606C57.0965 101.538 58.1165 100.77 59.4125 100.77C61.0685 100.77 61.7645 101.682 61.7645 102.798V105.606C61.7645 106.086 61.8365 106.506 61.8845 106.686H60.9485C60.9125 106.578 60.8405 106.194 60.8405 105.822C60.6605 106.29 59.9765 106.854 58.8965 106.854C57.5765 106.854 56.8685 106.002 56.8685 105.138ZM59.0405 105.978C59.9765 105.978 60.8165 105.438 60.8165 104.286V103.878L58.8365 104.166C58.2605 104.25 57.8285 104.55 57.8285 105.066C57.8285 105.558 58.1885 105.978 59.0405 105.978ZM68.9358 100.938V101.814H66.7398V104.874C66.7398 105.546 67.1598 105.87 67.7838 105.87C68.1798 105.87 68.6958 105.798 68.9358 105.714V106.59C68.6718 106.686 68.2638 106.782 67.6758 106.782C66.4878 106.782 65.7798 106.194 65.7798 105.054V101.814H63.9318V100.938H64.8798C65.5758 100.938 65.8398 100.578 65.8398 99.9415V98.9095H66.7398V100.938H68.9358ZM73.8871 106.854C72.3871 106.854 71.0311 105.762 71.0311 103.794C71.0311 101.946 72.3751 100.77 73.7911 100.77C75.4951 100.77 76.5271 101.946 76.5271 103.674C76.5271 103.794 76.5151 103.926 76.5031 104.01H72.0151V104.094C72.0151 105.174 72.8911 105.966 73.8871 105.966C74.8591 105.966 75.4111 105.426 75.6391 104.754L76.4671 105.054C76.1431 106.05 75.2191 106.854 73.8871 106.854ZM75.5311 103.194C75.4831 102.342 74.8591 101.622 73.8031 101.622C72.8431 101.622 72.0991 102.366 72.0391 103.194H75.5311ZM78.9224 102.822H83.0744V103.662H78.9224V102.822ZM90.9058 101.994C90.7498 101.946 90.5098 101.886 90.1018 101.886C88.9138 101.886 88.2778 102.558 88.2778 103.878V105.834H90.0898V106.686H85.6138V105.834H87.3178V101.79H85.7938V100.938H88.2538V102.066C88.5898 101.178 89.4298 100.854 90.1138 100.854C90.5338 100.854 90.7617 100.914 90.9058 100.962V101.994ZM95.4731 106.854C93.9731 106.854 92.6171 105.762 92.6171 103.794C92.6171 101.946 93.9611 100.77 95.3771 100.77C97.0811 100.77 98.1131 101.946 98.1131 103.674C98.1131 103.794 98.1011 103.926 98.0891 104.01H93.6011V104.094C93.6011 105.174 94.4771 105.966 95.4731 105.966C96.4451 105.966 96.9971 105.426 97.2251 104.754L98.0531 105.054C97.7291 106.05 96.8051 106.854 95.4731 106.854ZM97.1171 103.194C97.0691 102.342 96.4451 101.622 95.3891 101.622C94.4291 101.622 93.6851 102.366 93.6251 103.194H97.1171ZM99.9924 100.938H100.928V101.898C101.192 101.31 101.84 100.77 102.92 100.77C104.636 100.77 105.584 102.114 105.584 103.806C105.584 105.522 104.552 106.854 102.872 106.854C101.852 106.854 101.216 106.398 100.952 105.882V108.966H99.9924V100.938ZM102.752 105.99C103.868 105.99 104.612 105.078 104.612 103.806C104.612 102.534 103.868 101.634 102.752 101.634C101.648 101.634 100.928 102.534 100.928 103.806C100.928 105.078 101.66 105.99 102.752 105.99ZM109.78 106.854C108.124 106.854 106.9 105.582 106.9 103.806C106.9 102.042 108.124 100.77 109.78 100.77C111.436 100.77 112.66 102.042 112.66 103.806C112.66 105.582 111.436 106.854 109.78 106.854ZM109.78 105.978C110.812 105.978 111.688 105.198 111.688 103.806C111.688 102.426 110.812 101.646 109.78 101.646C108.748 101.646 107.872 102.426 107.872 103.806C107.872 105.198 108.748 105.978 109.78 105.978ZM119.687 101.994C119.531 101.946 119.291 101.886 118.883 101.886C117.695 101.886 117.059 102.558 117.059 103.878V105.834H118.871V106.686H114.395V105.834H116.099V101.79H114.575V100.938H117.035V102.066C117.371 101.178 118.211 100.854 118.895 100.854C119.315 100.854 119.543 100.914 119.687 100.962V101.994ZM126.498 100.938V101.814H124.302V104.874C124.302 105.546 124.722 105.87 125.346 105.87C125.742 105.87 126.258 105.798 126.498 105.714V106.59C126.234 106.686 125.826 106.782 125.238 106.782C124.05 106.782 123.342 106.194 123.342 105.054V101.814H121.494V100.938H122.442C123.138 100.938 123.402 100.578 123.402 99.9415V98.9095H124.302V100.938H126.498Z" fill="#FEFEFE"/>
<path d="M23.6159 139.203H22.6559V134.319H20.5679V133.455H22.6559V132.507C22.6559 131.187 23.5679 130.515 24.8279 130.515C25.2959 130.515 25.7519 130.587 26.0879 130.707V131.571C25.7039 131.451 25.3079 131.403 24.8639 131.403C24.1559 131.403 23.6159 131.715 23.6159 132.615V133.455H26.0879V134.319H23.6159V139.203ZM30.7153 139.371C29.2153 139.371 27.8593 138.279 27.8593 136.311C27.8593 134.463 29.2033 133.287 30.6193 133.287C32.3233 133.287 33.3553 134.463 33.3553 136.191C33.3553 136.311 33.3433 136.443 33.3313 136.527H28.8433V136.611C28.8433 137.691 29.7193 138.483 30.7153 138.483C31.6873 138.483 32.2393 137.943 32.4673 137.271L33.2953 137.571C32.9713 138.567 32.0473 139.371 30.7153 139.371ZM32.3593 135.711C32.3113 134.859 31.6873 134.139 30.6313 134.139C29.6713 134.139 28.9273 134.883 28.8673 135.711H32.3593ZM40.1546 133.455V134.331H37.9586V137.391C37.9586 138.063 38.3786 138.387 39.0026 138.387C39.3986 138.387 39.9146 138.315 40.1546 138.231V139.107C39.8906 139.203 39.4826 139.299 38.8946 139.299C37.7066 139.299 36.9986 138.711 36.9986 137.571V134.331H35.1506V133.455H36.0986C36.7946 133.455 37.0586 133.095 37.0586 132.459V131.427H37.9586V133.455H40.1546ZM45.2019 139.371C43.6299 139.371 42.2859 138.183 42.2859 136.323C42.2859 134.439 43.6779 133.287 45.1899 133.287C46.7499 133.287 47.5899 134.187 47.8299 135.111L46.9539 135.471C46.7979 134.871 46.2699 134.187 45.1899 134.187C44.2419 134.187 43.2579 134.907 43.2579 136.323C43.2579 137.727 44.2419 138.471 45.2019 138.471C46.3539 138.471 46.8219 137.691 46.9899 137.175L47.8299 137.535C47.5539 138.387 46.7139 139.371 45.2019 139.371ZM49.7692 130.527H50.7292V134.259C51.1012 133.587 51.8212 133.287 52.6252 133.287C54.0892 133.287 54.7972 134.355 54.7972 135.639V139.203H53.8372V135.807C53.8372 134.955 53.4772 134.187 52.3612 134.187C51.4372 134.187 50.7292 134.871 50.7292 135.999V139.203H49.7692V130.527ZM57.3365 135.339H61.4885V136.179H57.3365V135.339ZM68.2518 138.255C67.9758 138.855 67.3398 139.371 66.2838 139.371C64.6518 139.371 63.6078 138.027 63.6078 136.323C63.6078 134.655 64.7118 133.287 66.3318 133.287C67.4238 133.287 68.0118 133.803 68.2278 134.319V130.527H69.1878V138.123C69.1878 138.699 69.2238 139.083 69.2478 139.203H68.3118C68.2878 139.071 68.2518 138.747 68.2518 138.375V138.255ZM66.4278 138.495C67.5558 138.495 68.2518 137.583 68.2518 136.323C68.2518 135.063 67.5678 134.163 66.4278 134.163C65.3238 134.163 64.5798 135.063 64.5798 136.323C64.5798 137.583 65.3358 138.495 66.4278 138.495ZM71.2591 137.655C71.2591 136.647 72.0151 136.119 73.0351 135.975L74.6911 135.735C75.1231 135.675 75.2071 135.483 75.2071 135.219C75.2071 134.607 74.7511 134.151 73.8271 134.151C72.9271 134.151 72.3511 134.655 72.2791 135.315L71.3671 135.123C71.4871 134.055 72.5071 133.287 73.8031 133.287C75.4591 133.287 76.1551 134.199 76.1551 135.315V138.123C76.1551 138.603 76.2271 139.023 76.2751 139.203H75.3391C75.3031 139.095 75.2311 138.711 75.2311 138.339C75.0511 138.807 74.3671 139.371 73.2871 139.371C71.9671 139.371 71.2591 138.519 71.2591 137.655ZM73.4311 138.495C74.3671 138.495 75.2071 137.955 75.2071 136.803V136.395L73.2271 136.683C72.6511 136.767 72.2191 137.067 72.2191 137.583C72.2191 138.075 72.5791 138.495 73.4311 138.495ZM83.3264 133.455V134.331H81.1304V137.391C81.1304 138.063 81.5504 138.387 82.1744 138.387C82.5704 138.387 83.0864 138.315 83.3264 138.231V139.107C83.0624 139.203 82.6544 139.299 82.0664 139.299C80.8784 139.299 80.1704 138.711 80.1704 137.571V134.331H78.3224V133.455H79.2704C79.9664 133.455 80.2304 133.095 80.2304 132.459V131.427H81.1304V133.455H83.3264ZM85.6498 137.655C85.6498 136.647 86.4058 136.119 87.4258 135.975L89.0818 135.735C89.5138 135.675 89.5978 135.483 89.5978 135.219C89.5978 134.607 89.1418 134.151 88.2178 134.151C87.3178 134.151 86.7418 134.655 86.6698 135.315L85.7578 135.123C85.8778 134.055 86.8978 133.287 88.1938 133.287C89.8498 133.287 90.5458 134.199 90.5458 135.315V138.123C90.5458 138.603 90.6178 139.023 90.6658 139.203H89.7298C89.6938 139.095 89.6218 138.711 89.6218 138.339C89.4418 138.807 88.7578 139.371 87.6777 139.371C86.3577 139.371 85.6498 138.519 85.6498 137.655ZM87.8218 138.495C88.7578 138.495 89.5978 137.955 89.5978 136.803V136.395L87.6178 136.683C87.0418 136.767 86.6098 137.067 86.6098 137.583C86.6098 138.075 86.9698 138.495 87.8218 138.495Z" fill="#FEFEFE"/>
<path d="M20.8439 165.973H21.7799V166.933C22.0439 166.345 22.6919 165.805 23.7719 165.805C25.4879 165.805 26.4359 167.149 26.4359 168.841C26.4359 170.557 25.4039 171.889 23.7239 171.889C22.7039 171.889 22.0679 171.433 21.8039 170.917V174.001H20.8439V165.973ZM23.6039 171.025C24.7199 171.025 25.4639 170.113 25.4639 168.841C25.4639 167.569 24.7199 166.669 23.6039 166.669C22.4999 166.669 21.7799 167.569 21.7799 168.841C21.7799 170.113 22.5119 171.025 23.6039 171.025ZM33.3433 167.029C33.1873 166.981 32.9473 166.921 32.5393 166.921C31.3513 166.921 30.7153 167.593 30.7153 168.913V170.869H32.5273V171.721H28.0513V170.869H29.7553V166.825H28.2313V165.973H30.6913V167.101C31.0273 166.213 31.8673 165.889 32.5513 165.889C32.9713 165.889 33.1992 165.949 33.3433 165.997V167.029ZM37.8266 171.889C36.1706 171.889 34.9466 170.617 34.9466 168.841C34.9466 167.077 36.1706 165.805 37.8266 165.805C39.4826 165.805 40.7066 167.077 40.7066 168.841C40.7066 170.617 39.4826 171.889 37.8266 171.889ZM37.8266 171.013C38.8586 171.013 39.7346 170.233 39.7346 168.841C39.7346 167.461 38.8586 166.681 37.8266 166.681C36.7946 166.681 35.9186 167.461 35.9186 168.841C35.9186 170.233 36.7946 171.013 37.8266 171.013ZM45.2019 171.889C43.6299 171.889 42.2859 170.701 42.2859 168.841C42.2859 166.957 43.6779 165.805 45.1899 165.805C46.7499 165.805 47.5899 166.705 47.8299 167.629L46.9539 167.989C46.7979 167.389 46.2699 166.705 45.1899 166.705C44.2419 166.705 43.2579 167.425 43.2579 168.841C43.2579 170.245 44.2419 170.989 45.2019 170.989C46.3539 170.989 46.8219 170.209 46.9899 169.693L47.8299 170.053C47.5539 170.905 46.7139 171.889 45.2019 171.889ZM52.3012 171.889C50.8012 171.889 49.4452 170.797 49.4452 168.829C49.4452 166.981 50.7892 165.805 52.2052 165.805C53.9092 165.805 54.9412 166.981 54.9412 168.709C54.9412 168.829 54.9292 168.961 54.9172 169.045H50.4292V169.129C50.4292 170.209 51.3052 171.001 52.3012 171.001C53.2732 171.001 53.8252 170.461 54.0532 169.789L54.8812 170.089C54.5572 171.085 53.6332 171.889 52.3012 171.889ZM53.9452 168.229C53.8972 167.377 53.2732 166.657 52.2172 166.657C51.2572 166.657 50.5132 167.401 50.4532 168.229H53.9452ZM59.6045 171.889C57.9845 171.889 57.1685 170.845 57.0125 170.197L57.8885 169.837C58.0565 170.437 58.6685 171.025 59.6285 171.025C60.3965 171.025 60.8405 170.665 60.8405 170.197C60.8405 169.777 60.5645 169.525 59.9285 169.393L58.8125 169.165C57.7325 168.949 57.2525 168.325 57.2525 167.581C57.2525 166.609 58.1525 165.805 59.4245 165.805C60.7085 165.805 61.5365 166.465 61.8005 167.377L60.9845 167.701C60.7925 167.149 60.3005 166.645 59.4245 166.645C58.6925 166.645 58.2005 166.993 58.2005 167.509C58.2005 167.881 58.4285 168.169 59.0045 168.277L60.0965 168.493C61.2365 168.721 61.8005 169.285 61.8005 170.149C61.8005 170.953 61.1285 171.889 59.6045 171.889ZM66.7998 171.889C65.1798 171.889 64.3638 170.845 64.2078 170.197L65.0838 169.837C65.2518 170.437 65.8638 171.025 66.8238 171.025C67.5918 171.025 68.0358 170.665 68.0358 170.197C68.0358 169.777 67.7598 169.525 67.1238 169.393L66.0078 169.165C64.9278 168.949 64.4478 168.325 64.4478 167.581C64.4478 166.609 65.3478 165.805 66.6198 165.805C67.9038 165.805 68.7318 166.465 68.9958 167.377L68.1798 167.701C67.9878 167.149 67.4958 166.645 66.6198 166.645C65.8878 166.645 65.3958 166.993 65.3958 167.509C65.3958 167.881 65.6238 168.169 66.1998 168.277L67.2918 168.493C68.4318 168.721 68.9958 169.285 68.9958 170.149C68.9958 170.953 68.3238 171.889 66.7998 171.889ZM71.7271 167.857H75.8791V168.697H71.7271V167.857ZM83.7104 167.029C83.5544 166.981 83.3144 166.921 82.9064 166.921C81.7184 166.921 81.0824 167.593 81.0824 168.913V170.869H82.8944V171.721H78.4184V170.869H80.1224V166.825H78.5984V165.973H81.0584V167.101C81.3944 166.213 82.2344 165.889 82.9184 165.889C83.3384 165.889 83.5664 165.949 83.7104 165.997V167.029ZM88.1938 171.889C86.5378 171.889 85.3138 170.617 85.3138 168.841C85.3138 167.077 86.5378 165.805 88.1938 165.805C89.8498 165.805 91.0738 167.077 91.0738 168.841C91.0738 170.617 89.8498 171.889 88.1938 171.889ZM88.1938 171.013C89.2258 171.013 90.1018 170.233 90.1018 168.841C90.1018 167.461 89.2258 166.681 88.1938 166.681C87.1618 166.681 86.2858 167.461 86.2858 168.841C86.2858 170.233 87.1618 171.013 88.1938 171.013ZM94.8731 166.033H95.9531L97.0571 170.581L97.8371 165.973H98.7491L97.6931 171.721H96.5411L95.3891 167.053L94.2851 171.721H93.1451L92.0291 165.973H92.9651L93.7811 170.581L94.8731 166.033ZM102.776 171.889C101.156 171.889 100.34 170.845 100.184 170.197L101.06 169.837C101.228 170.437 101.84 171.025 102.8 171.025C103.568 171.025 104.012 170.665 104.012 170.197C104.012 169.777 103.736 169.525 103.1 169.393L101.984 169.165C100.904 168.949 100.424 168.325 100.424 167.581C100.424 166.609 101.324 165.805 102.596 165.805C103.88 165.805 104.708 166.465 104.972 167.377L104.156 167.701C103.964 167.149 103.472 166.645 102.596 166.645C101.864 166.645 101.372 166.993 101.372 167.509C101.372 167.881 101.6 168.169 102.176 168.277L103.268 168.493C104.408 168.721 104.972 169.285 104.972 170.149C104.972 170.953 104.3 171.889 102.776 171.889Z" fill="#FEFEFE"/>
<path d="M23.6279 204.406C22.0079 204.406 21.1919 203.362 21.0359 202.714L21.9119 202.354C22.0799 202.954 22.6919 203.542 23.6519 203.542C24.4199 203.542 24.8639 203.182 24.8639 202.714C24.8639 202.294 24.5879 202.042 23.9519 201.91L22.8359 201.682C21.7559 201.466 21.2759 200.842 21.2759 200.098C21.2759 199.126 22.1759 198.322 23.4479 198.322C24.7319 198.322 25.5599 198.982 25.8239 199.894L25.0079 200.218C24.8159 199.666 24.3239 199.162 23.4479 199.162C22.7159 199.162 22.2239 199.51 22.2239 200.026C22.2239 200.398 22.4519 200.686 23.0279 200.794L24.1199 201.01C25.2599 201.238 25.8239 201.802 25.8239 202.666C25.8239 203.47 25.1519 204.406 23.6279 204.406ZM30.7153 204.406C29.2153 204.406 27.8593 203.314 27.8593 201.346C27.8593 199.498 29.2033 198.322 30.6193 198.322C32.3233 198.322 33.3553 199.498 33.3553 201.226C33.3553 201.346 33.3433 201.478 33.3313 201.562H28.8433V201.646C28.8433 202.726 29.7193 203.518 30.7153 203.518C31.6873 203.518 32.2393 202.978 32.4673 202.306L33.2953 202.606C32.9713 203.602 32.0473 204.406 30.7153 204.406ZM32.3593 200.746C32.3113 199.894 31.6873 199.174 30.6313 199.174C29.6713 199.174 28.9273 199.918 28.8673 200.746H32.3593ZM35.3786 198.49H36.3146V199.33C36.6746 198.646 37.3946 198.322 38.1866 198.322C39.6866 198.322 40.4066 199.342 40.4066 200.614V204.238H39.4466V200.806C39.4466 199.978 39.0746 199.222 37.9586 199.222C37.0466 199.222 36.3386 199.906 36.3386 201.01V204.238H35.3786V198.49ZM46.6659 203.29C46.3899 203.89 45.7539 204.406 44.6979 204.406C43.0659 204.406 42.0219 203.062 42.0219 201.358C42.0219 199.69 43.1259 198.322 44.7459 198.322C45.8379 198.322 46.4259 198.838 46.6419 199.354V195.562H47.6019V203.158C47.6019 203.734 47.6379 204.118 47.6619 204.238H46.7259C46.7019 204.106 46.6659 203.782 46.6659 203.41V203.29ZM44.8419 203.53C45.9699 203.53 46.6659 202.618 46.6659 201.358C46.6659 200.098 45.9819 199.198 44.8419 199.198C43.7379 199.198 42.9939 200.098 42.9939 201.358C42.9939 202.618 43.7499 203.53 44.8419 203.53ZM50.1412 200.374H54.2932V201.214H50.1412V200.374ZM59.4965 204.406C57.9965 204.406 56.6405 203.314 56.6405 201.346C56.6405 199.498 57.9845 198.322 59.4005 198.322C61.1045 198.322 62.1365 199.498 62.1365 201.226C62.1365 201.346 62.1245 201.478 62.1125 201.562H57.6245V201.646C57.6245 202.726 58.5005 203.518 59.4965 203.518C60.4685 203.518 61.0205 202.978 61.2485 202.306L62.0765 202.606C61.7525 203.602 60.8285 204.406 59.4965 204.406ZM61.1405 200.746C61.0925 199.894 60.4685 199.174 59.4125 199.174C58.4525 199.174 57.7085 199.918 57.6485 200.746H61.1405ZM64.5318 199.186C64.7358 198.634 65.1798 198.382 65.7198 198.382C66.2598 198.382 66.7278 198.67 66.8478 199.306C67.0638 198.73 67.5318 198.382 68.2158 198.382C68.9478 198.382 69.6558 198.73 69.6558 200.098V204.238H68.7558V200.242C68.7558 199.486 68.4558 199.246 67.9758 199.246C67.4958 199.246 67.0998 199.582 67.0998 200.41V204.238H66.2118V200.278C66.2118 199.534 65.9238 199.246 65.4438 199.246C64.9518 199.246 64.5558 199.546 64.5558 200.422V204.238H63.6558V198.49H64.5318V199.186ZM71.2591 202.69C71.2591 201.682 72.0151 201.154 73.0351 201.01L74.6911 200.77C75.1231 200.71 75.2071 200.518 75.2071 200.254C75.2071 199.642 74.7511 199.186 73.8271 199.186C72.9271 199.186 72.3511 199.69 72.2791 200.35L71.3671 200.158C71.4871 199.09 72.5071 198.322 73.8031 198.322C75.4591 198.322 76.1551 199.234 76.1551 200.35V203.158C76.1551 203.638 76.2271 204.058 76.2751 204.238H75.3391C75.3031 204.13 75.2311 203.746 75.2311 203.374C75.0511 203.842 74.3671 204.406 73.2871 204.406C71.9671 204.406 71.2591 203.554 71.2591 202.69ZM73.4311 203.53C74.3671 203.53 75.2071 202.99 75.2071 201.838V201.43L73.2271 201.718C72.6511 201.802 72.2191 202.102 72.2191 202.618C72.2191 203.11 72.5791 203.53 73.4311 203.53ZM78.5504 203.374H80.7584V199.354H78.8024V198.49H81.7184V203.374H83.9264V204.238H78.5504V203.374ZM80.2904 196.474C80.2904 195.97 80.6864 195.574 81.2024 195.574C81.6944 195.574 82.0904 195.97 82.0904 196.474C82.0904 196.978 81.6944 197.386 81.2024 197.386C80.6864 197.386 80.2904 196.978 80.2904 196.474ZM85.5058 203.374H87.7138V196.426H85.8178V195.562H88.6738V203.374H90.8818V204.238H85.5058V203.374Z" fill="#FEFEFE"/>
<path d="M23.6279 236.923C22.0079 236.923 21.1919 235.879 21.0359 235.231L21.9119 234.871C22.0799 235.471 22.6919 236.059 23.6519 236.059C24.4199 236.059 24.8639 235.699 24.8639 235.231C24.8639 234.811 24.5879 234.559 23.9519 234.427L22.8359 234.199C21.7559 233.983 21.2759 233.359 21.2759 232.615C21.2759 231.643 22.1759 230.839 23.4479 230.839C24.7319 230.839 25.5599 231.499 25.8239 232.411L25.0079 232.735C24.8159 232.183 24.3239 231.679 23.4479 231.679C22.7159 231.679 22.2239 232.027 22.2239 232.543C22.2239 232.915 22.4519 233.203 23.0279 233.311L24.1199 233.527C25.2599 233.755 25.8239 234.319 25.8239 235.183C25.8239 235.987 25.1519 236.923 23.6279 236.923ZM30.7153 236.923C29.2153 236.923 27.8593 235.831 27.8593 233.863C27.8593 232.015 29.2033 230.839 30.6193 230.839C32.3233 230.839 33.3553 232.015 33.3553 233.743C33.3553 233.863 33.3433 233.995 33.3313 234.079H28.8433V234.163C28.8433 235.243 29.7193 236.035 30.7153 236.035C31.6873 236.035 32.2393 235.495 32.4673 234.823L33.2953 235.123C32.9713 236.119 32.0473 236.923 30.7153 236.923ZM32.3593 233.263C32.3113 232.411 31.6873 231.691 30.6313 231.691C29.6713 231.691 28.9273 232.435 28.8673 233.263H32.3593ZM35.3786 231.007H36.3146V231.847C36.6746 231.163 37.3946 230.839 38.1866 230.839C39.6866 230.839 40.4066 231.859 40.4066 233.131V236.755H39.4466V233.323C39.4466 232.495 39.0746 231.739 37.9586 231.739C37.0466 231.739 36.3386 232.423 36.3386 233.527V236.755H35.3786V231.007ZM46.6659 235.807C46.3899 236.407 45.7539 236.923 44.6979 236.923C43.0659 236.923 42.0219 235.579 42.0219 233.875C42.0219 232.207 43.1259 230.839 44.7459 230.839C45.8379 230.839 46.4259 231.355 46.6419 231.871V228.079H47.6019V235.675C47.6019 236.251 47.6379 236.635 47.6619 236.755H46.7259C46.7019 236.623 46.6659 236.299 46.6659 235.927V235.807ZM44.8419 236.047C45.9699 236.047 46.6659 235.135 46.6659 233.875C46.6659 232.615 45.9819 231.715 44.8419 231.715C43.7379 231.715 42.9939 232.615 42.9939 233.875C42.9939 235.135 43.7499 236.047 44.8419 236.047ZM50.1412 232.891H54.2932V233.731H50.1412V232.891ZM59.4965 236.923C57.9965 236.923 56.6405 235.831 56.6405 233.863C56.6405 232.015 57.9845 230.839 59.4005 230.839C61.1045 230.839 62.1365 232.015 62.1365 233.743C62.1365 233.863 62.1245 233.995 62.1125 234.079H57.6245V234.163C57.6245 235.243 58.5005 236.035 59.4965 236.035C60.4685 236.035 61.0205 235.495 61.2485 234.823L62.0765 235.123C61.7525 236.119 60.8285 236.923 59.4965 236.923ZM61.1405 233.263C61.0925 232.411 60.4685 231.691 59.4125 231.691C58.4525 231.691 57.7085 232.435 57.6485 233.263H61.1405ZM64.5318 231.703C64.7358 231.151 65.1798 230.899 65.7198 230.899C66.2598 230.899 66.7278 231.187 66.8478 231.823C67.0638 231.247 67.5318 230.899 68.2158 230.899C68.9478 230.899 69.6558 231.247 69.6558 232.615V236.755H68.7558V232.759C68.7558 232.003 68.4558 231.763 67.9758 231.763C67.4958 231.763 67.0998 232.099 67.0998 232.927V236.755H66.2118V232.795C66.2118 232.051 65.9238 231.763 65.4438 231.763C64.9518 231.763 64.5558 232.063 64.5558 232.939V236.755H63.6558V231.007H64.5318V231.703ZM71.2591 235.207C71.2591 234.199 72.0151 233.671 73.0351 233.527L74.6911 233.287C75.1231 233.227 75.2071 233.035 75.2071 232.771C75.2071 232.159 74.7511 231.703 73.8271 231.703C72.9271 231.703 72.3511 232.207 72.2791 232.867L71.3671 232.675C71.4871 231.607 72.5071 230.839 73.8031 230.839C75.4591 230.839 76.1551 231.751 76.1551 232.867V235.675C76.1551 236.155 76.2271 236.575 76.2751 236.755H75.3391C75.3031 236.647 75.2311 236.263 75.2311 235.891C75.0511 236.359 74.3671 236.923 73.2871 236.923C71.9671 236.923 71.2591 236.071 71.2591 235.207ZM73.4311 236.047C74.3671 236.047 75.2071 235.507 75.2071 234.355V233.947L73.2271 234.235C72.6511 234.319 72.2191 234.619 72.2191 235.135C72.2191 235.627 72.5791 236.047 73.4311 236.047ZM78.5504 235.891H80.7584V231.871H78.8024V231.007H81.7184V235.891H83.9264V236.755H78.5504V235.891ZM80.2904 228.991C80.2904 228.487 80.6864 228.091 81.2024 228.091C81.6944 228.091 82.0904 228.487 82.0904 228.991C82.0904 229.495 81.6944 229.903 81.2024 229.903C80.6864 229.903 80.2904 229.495 80.2904 228.991ZM85.5058 235.891H87.7138V228.943H85.8178V228.079H88.6738V235.891H90.8818V236.755H85.5058V235.891Z" fill="#FEFEFE"/>
<rect x="0.440755" y="0.440755" width="537.939" height="308.304" stroke="white" stroke-width="0.88151"/>
<path d="M0 41.4307L538.82 41.4307" stroke="white" stroke-width="0.88151"/>
<path d="M25.4782 24.8672H24.4263V16.8696H21.5111V15.881H28.3933V16.8696H25.4782V24.8672ZM35.4227 19.9115C35.2579 19.8608 35.0044 19.7974 34.5735 19.7974C33.3187 19.7974 32.647 20.5072 32.647 21.9014V23.9673H34.5608V24.8672H29.8333V23.9673H31.633V19.696H30.0234V18.7961H32.6216V19.9875C32.9765 19.0496 33.8637 18.7074 34.5862 18.7074C35.0298 18.7074 35.2706 18.7708 35.4227 18.8215V19.9115ZM37.471 23.2322C37.471 22.1675 38.2695 21.6099 39.3468 21.4578L41.0959 21.2043C41.5522 21.1409 41.6409 20.9381 41.6409 20.6593C41.6409 20.0129 41.1593 19.5313 40.1833 19.5313C39.2327 19.5313 38.6244 20.0636 38.5483 20.7607L37.5851 20.5579C37.7118 19.4299 38.7891 18.6187 40.158 18.6187C41.907 18.6187 42.6422 19.582 42.6422 20.7607V23.7265C42.6422 24.2335 42.7182 24.6771 42.7689 24.8672H41.7803C41.7423 24.7531 41.6662 24.3475 41.6662 23.9546C41.4761 24.4489 40.7537 25.0446 39.613 25.0446C38.2188 25.0446 37.471 24.1447 37.471 23.2322ZM39.7651 24.1194C40.7537 24.1194 41.6409 23.549 41.6409 22.3323V21.9014L39.5496 22.2056C38.9412 22.2943 38.485 22.6111 38.485 23.1561C38.485 23.6758 38.8652 24.1194 39.7651 24.1194ZM47.9478 25.0446C46.2874 25.0446 44.8679 23.7899 44.8679 21.8253C44.8679 19.8354 46.3381 18.6187 47.9351 18.6187C49.5828 18.6187 50.47 19.5693 50.7235 20.5452L49.7983 20.9254C49.6335 20.2917 49.0758 19.5693 47.9351 19.5693C46.9338 19.5693 45.8945 20.3297 45.8945 21.8253C45.8945 23.3082 46.9338 24.094 47.9478 24.094C49.1645 24.094 49.6588 23.2702 49.8363 22.7252L50.7235 23.1054C50.432 24.0053 49.5448 25.0446 47.9478 25.0446ZM55.4461 25.0446C53.8618 25.0446 52.4296 23.8913 52.4296 21.8127C52.4296 19.8608 53.8491 18.6187 55.3447 18.6187C57.1445 18.6187 58.2345 19.8608 58.2345 21.6859C58.2345 21.8127 58.2218 21.9521 58.2091 22.0408H53.4689V22.1295C53.4689 23.2702 54.3941 24.1067 55.4461 24.1067C56.4727 24.1067 57.0557 23.5364 57.2966 22.8266L58.1711 23.1435C57.8289 24.1954 56.853 25.0446 55.4461 25.0446ZM57.1825 21.1789C57.1318 20.279 56.4727 19.5186 55.3574 19.5186C54.3434 19.5186 53.5576 20.3044 53.4942 21.1789H57.1825ZM68.3641 20.786H72.7494V21.6732H68.3641V20.786ZM83.7663 25.032C83.893 25.7797 84.5648 26.4895 85.5787 26.4895C86.9476 26.4895 87.4545 25.6277 87.4545 24.4489V23.435C87.1884 24.0307 86.5293 24.525 85.528 24.525C83.9184 24.525 82.7904 23.2575 82.7904 21.5845C82.7904 19.8988 83.9057 18.6187 85.5534 18.6187C86.5673 18.6187 87.2264 19.0623 87.4672 19.658V18.7961H88.4685V24.5377C88.4685 25.9318 87.7714 27.4274 85.5661 27.4274C84.1212 27.4274 82.9298 26.5022 82.7777 25.2728L83.7663 25.032ZM87.5052 21.6099C87.5052 20.3551 86.7575 19.5313 85.6548 19.5313C84.5521 19.5313 83.8043 20.3424 83.8043 21.5718C83.8043 22.8013 84.5521 23.6124 85.6548 23.6124C86.7575 23.6124 87.5052 22.8013 87.5052 21.6099ZM93.4446 25.0446C91.8603 25.0446 90.4281 23.8913 90.4281 21.8127C90.4281 19.8608 91.8476 18.6187 93.3432 18.6187C95.143 18.6187 96.233 19.8608 96.233 21.6859C96.233 21.8127 96.2203 21.9521 96.2076 22.0408H91.4674V22.1295C91.4674 23.2702 92.3926 24.1067 93.4446 24.1067C94.4712 24.1067 95.0542 23.5364 95.2951 22.8266L96.1696 23.1435C95.8274 24.1954 94.8515 25.0446 93.4446 25.0446ZM95.181 21.1789C95.1303 20.279 94.4712 19.5186 93.3559 19.5186C92.3419 19.5186 91.5561 20.3044 91.4927 21.1789H95.181ZM98.37 18.7961H99.3586V19.6834C99.7388 18.9609 100.499 18.6187 101.336 18.6187C102.92 18.6187 103.681 19.696 103.681 21.0395V24.8672H102.667V21.2423C102.667 20.3678 102.274 19.5693 101.095 19.5693C100.132 19.5693 99.3839 20.2917 99.3839 21.4578V24.8672H98.37V18.7961ZM108.644 25.0446C107.06 25.0446 105.627 23.8913 105.627 21.8127C105.627 19.8608 107.047 18.6187 108.543 18.6187C110.342 18.6187 111.432 19.8608 111.432 21.6859C111.432 21.8127 111.42 21.9521 111.407 22.0408H106.667V22.1295C106.667 23.2702 107.592 24.1067 108.644 24.1067C109.671 24.1067 110.254 23.5364 110.494 22.8266L111.369 23.1435C111.027 24.1954 110.051 25.0446 108.644 25.0446ZM110.38 21.1789C110.33 20.279 109.671 19.5186 108.555 19.5186C107.541 19.5186 106.756 20.3044 106.692 21.1789H110.38ZM119.019 19.9115C118.855 19.8608 118.601 19.7974 118.17 19.7974C116.915 19.7974 116.244 20.5072 116.244 21.9014V23.9673H118.158V24.8672H113.43V23.9673H115.23V19.696H113.62V18.7961H116.218V19.9875C116.573 19.0496 117.46 18.7074 118.183 18.7074C118.626 18.7074 118.867 18.7708 119.019 18.8215V19.9115ZM121.068 23.2322C121.068 22.1675 121.866 21.6099 122.944 21.4578L124.693 21.2043C125.149 21.1409 125.238 20.9381 125.238 20.6593C125.238 20.0129 124.756 19.5313 123.78 19.5313C122.829 19.5313 122.221 20.0636 122.145 20.7607L121.182 20.5579C121.309 19.4299 122.386 18.6187 123.755 18.6187C125.504 18.6187 126.239 19.582 126.239 20.7607V23.7265C126.239 24.2335 126.315 24.6771 126.366 24.8672H125.377C125.339 24.7531 125.263 24.3475 125.263 23.9546C125.073 24.4489 124.35 25.0446 123.21 25.0446C121.815 25.0446 121.068 24.1447 121.068 23.2322ZM123.362 24.1194C124.35 24.1194 125.238 23.549 125.238 22.3323V21.9014L123.146 22.2056C122.538 22.2943 122.082 22.6111 122.082 23.1561C122.082 23.6758 122.462 24.1194 123.362 24.1194ZM133.813 18.7961V19.7214H131.494V22.9534C131.494 23.6631 131.937 24.0053 132.596 24.0053C133.015 24.0053 133.56 23.9293 133.813 23.8406V24.7658C133.534 24.8672 133.103 24.9686 132.482 24.9686C131.228 24.9686 130.48 24.3475 130.48 23.1435V19.7214H128.528V18.7961H129.529C130.264 18.7961 130.543 18.4159 130.543 17.7442V16.6542H131.494V18.7961H133.813ZM139.043 25.0446C137.458 25.0446 136.026 23.8913 136.026 21.8127C136.026 19.8608 137.446 18.6187 138.941 18.6187C140.741 18.6187 141.831 19.8608 141.831 21.6859C141.831 21.8127 141.818 21.9521 141.806 22.0408H137.066V22.1295C137.066 23.2702 137.991 24.1067 139.043 24.1067C140.069 24.1067 140.652 23.5364 140.893 22.8266L141.768 23.1435C141.426 24.1954 140.45 25.0446 139.043 25.0446ZM140.779 21.1789C140.728 20.279 140.069 19.5186 138.954 19.5186C137.94 19.5186 137.154 20.3044 137.091 21.1789H140.779ZM144.361 20.786H148.746V21.6732H144.361V20.786ZM157.018 19.9115C156.853 19.8608 156.6 19.7974 156.169 19.7974C154.914 19.7974 154.242 20.5072 154.242 21.9014V23.9673H156.156V24.8672H151.428V23.9673H153.228V19.696H151.619V18.7961H154.217V19.9875C154.572 19.0496 155.459 18.7074 156.181 18.7074C156.625 18.7074 156.866 18.7708 157.018 18.8215V19.9115ZM161.842 25.0446C160.258 25.0446 158.825 23.8913 158.825 21.8127C158.825 19.8608 160.245 18.6187 161.741 18.6187C163.54 18.6187 164.63 19.8608 164.63 21.6859C164.63 21.8127 164.618 21.9521 164.605 22.0408H159.865V22.1295C159.865 23.2702 160.79 24.1067 161.842 24.1067C162.869 24.1067 163.452 23.5364 163.692 22.8266L164.567 23.1435C164.225 24.1954 163.249 25.0446 161.842 25.0446ZM163.578 21.1789C163.528 20.279 162.869 19.5186 161.753 19.5186C160.739 19.5186 159.953 20.3044 159.89 21.1789H163.578ZM166.615 18.7961H167.604V19.8101C167.883 19.189 168.567 18.6187 169.708 18.6187C171.52 18.6187 172.521 20.0382 172.521 21.8253C172.521 23.6378 171.431 25.0446 169.657 25.0446C168.58 25.0446 167.908 24.563 167.629 24.018V27.2753H166.615V18.7961ZM169.53 24.1321C170.709 24.1321 171.495 23.1688 171.495 21.8253C171.495 20.4818 170.709 19.5313 169.53 19.5313C168.364 19.5313 167.604 20.4818 167.604 21.8253C167.604 23.1688 168.377 24.1321 169.53 24.1321ZM176.953 25.0446C175.204 25.0446 173.911 23.7011 173.911 21.8253C173.911 19.9622 175.204 18.6187 176.953 18.6187C178.702 18.6187 179.994 19.9622 179.994 21.8253C179.994 23.7011 178.702 25.0446 176.953 25.0446ZM176.953 24.1194C178.043 24.1194 178.968 23.2956 178.968 21.8253C178.968 20.3678 178.043 19.5439 176.953 19.5439C175.863 19.5439 174.937 20.3678 174.937 21.8253C174.937 23.2956 175.863 24.1194 176.953 24.1194ZM187.417 19.9115C187.252 19.8608 186.998 19.7974 186.568 19.7974C185.313 19.7974 184.641 20.5072 184.641 21.9014V23.9673H186.555V24.8672H181.827V23.9673H183.627V19.696H182.017V18.7961H184.616V19.9875C184.971 19.0496 185.858 18.7074 186.58 18.7074C187.024 18.7074 187.265 18.7708 187.417 18.8215V19.9115ZM194.611 18.7961V19.7214H192.291V22.9534C192.291 23.6631 192.735 24.0053 193.394 24.0053C193.812 24.0053 194.357 23.9293 194.611 23.8406V24.7658C194.332 24.8672 193.901 24.9686 193.28 24.9686C192.025 24.9686 191.277 24.3475 191.277 23.1435V19.7214H189.326V18.7961H190.327C191.062 18.7961 191.341 18.4159 191.341 17.7442V16.6542H192.291V18.7961H194.611ZM205.159 20.786H209.544V21.6732H205.159V20.786ZM225.415 19.9115C225.25 19.8608 224.997 19.7974 224.566 19.7974C223.311 19.7974 222.639 20.5072 222.639 21.9014V23.9673H224.553V24.8672H219.826V23.9673H221.626V19.696H220.016V18.7961H222.614V19.9875C222.969 19.0496 223.856 18.7074 224.579 18.7074C225.022 18.7074 225.263 18.7708 225.415 18.8215V19.9115ZM231.646 24.0434C231.355 24.6644 230.607 25.0446 229.77 25.0446C228.224 25.0446 227.438 24.0053 227.438 22.6111V18.7961H228.452V22.4464C228.452 23.3209 228.87 24.1194 229.998 24.1194C231.025 24.1194 231.595 23.3716 231.595 22.421V18.7961H232.609V23.5997C232.609 24.0687 232.66 24.6264 232.698 24.8672H231.722C231.671 24.6897 231.646 24.3475 231.646 24.0434ZM235.165 18.7961H236.153V19.6834C236.533 18.9609 237.294 18.6187 238.13 18.6187C239.715 18.6187 240.475 19.696 240.475 21.0395V24.8672H239.461V21.2423C239.461 20.3678 239.068 19.5693 237.89 19.5693C236.926 19.5693 236.179 20.2917 236.179 21.4578V24.8672H235.165V18.7961ZM242.245 24.8672H248.455V25.7164H242.245V24.8672ZM253.026 25.0446C251.175 25.0446 250.098 24.0053 250.098 22.7125C250.098 21.6986 250.795 20.9508 251.707 20.6593C250.922 20.3931 250.301 19.6453 250.301 18.7201C250.301 17.4146 251.454 16.4767 253.026 16.4767C254.597 16.4767 255.751 17.4146 255.751 18.7201C255.751 19.6327 255.13 20.3931 254.331 20.6593C255.244 20.9381 255.953 21.6986 255.953 22.7125C255.953 24.0053 254.876 25.0446 253.026 25.0446ZM253.026 24.1321C254.204 24.1321 254.889 23.4603 254.889 22.6238C254.889 21.7873 254.204 21.1029 253.026 21.1029C251.834 21.1029 251.162 21.7873 251.162 22.6238C251.162 23.4603 251.834 24.1321 253.026 24.1321ZM253.026 20.2157C253.989 20.2157 254.699 19.6327 254.699 18.7835C254.699 17.9723 254.04 17.3639 253.026 17.3639C251.999 17.3639 251.353 17.9723 251.353 18.7835C251.353 19.6327 252.05 20.2157 253.026 20.2157ZM260.739 24.8672H259.725V19.7087H257.52V18.7961H259.725V17.7949C259.725 16.4007 260.689 15.6909 262.02 15.6909C262.514 15.6909 262.995 15.767 263.35 15.8937V16.8063C262.945 16.6795 262.526 16.6288 262.058 16.6288C261.31 16.6288 260.739 16.9584 260.739 17.9089V18.7961H263.35V19.7087H260.739V24.8672ZM265.462 19.4679C265.437 19.3538 265.424 19.2144 265.424 19.1003C265.424 17.6935 266.514 16.4767 268.276 16.4767C269.974 16.4767 270.988 17.6047 270.988 18.9609C270.988 20.0382 270.316 20.8874 269.378 21.4831L267.693 22.5604C267.198 22.8773 266.742 23.3082 266.641 23.9039H271.064V24.8672H265.348C265.373 23.5997 265.88 22.5858 267.198 21.7366L268.669 20.786C269.467 20.2664 269.923 19.696 269.923 18.9736C269.923 18.1624 269.34 17.4146 268.25 17.4146C267.135 17.4146 266.463 18.1878 266.463 19.2017C266.463 19.3411 266.476 19.4932 266.501 19.5946L265.462 19.4679ZM273.404 24.8672V15.7036H274.418V21.8127L277.637 18.7961H279.044L276.294 21.3437L279.107 24.8672H277.777L275.533 22.0535L274.418 23.0928V24.8672H273.404ZM281.574 24.8672H280.332L282.74 21.7873L280.421 18.7961H281.675L283.361 21.0142L285.059 18.7961H286.276L283.957 21.7873L286.365 24.8672H285.123L283.348 22.5858L281.574 24.8672Z" fill="#FEFEFE"/>
</svg>
