<svg width="192" height="192" viewBox="0 0 192 192" fill="none" xmlns="http://www.w3.org/2000/svg">
<path d="M21.4072 129.294C19.0746 129.294 16.9123 127.809 16.17 125.48C12.2674 113.258 15.1639 103.03 25.2893 93.2902L66.5214 54.0973C72.8173 48.0347 81.6973 46.4807 89.7012 50.0448C97.6725 53.5967 102.419 61.177 102.106 69.8471V74.061C102.106 77.0843 99.6441 79.5303 96.6097 79.5303C93.5753 79.5303 91.1129 77.0802 91.1129 74.061V69.7421C91.1129 69.6655 91.1129 69.5928 91.1169 69.5202C91.2914 65.3022 89.0845 61.7542 85.2104 60.0307C81.3363 58.3072 77.2066 59.0297 74.1641 61.9681C74.156 61.9762 74.1439 61.9883 74.1358 61.9964L32.9159 101.177C25.8816 107.946 24.0602 114.037 26.6565 122.166C27.5774 125.044 25.9749 128.12 23.0825 129.036C22.5268 129.21 21.9669 129.294 21.4152 129.294H21.4072Z" fill="#FAFAF9"/>
<path d="M112.284 144.019C109.371 144.019 106.41 143.397 103.562 142.13C95.591 138.578 90.8447 130.998 91.1571 122.328V118.142C91.1571 115.119 93.6195 112.673 96.6539 112.673C99.6883 112.673 102.151 115.123 102.151 118.142V122.433C102.151 122.509 102.151 122.582 102.147 122.659C101.972 126.877 104.179 130.425 108.053 132.148C111.927 133.872 116.057 133.149 119.099 130.211L160.031 91.0136C167.195 84.1195 169.025 78.0569 166.335 70.0972C165.37 67.2314 166.915 64.1315 169.796 63.1668C172.676 62.2062 175.791 63.744 176.761 66.6098C180.797 78.5574 177.824 89.1165 167.67 98.8885L126.746 138.077C122.698 141.985 117.566 144.023 112.284 144.023V144.019Z" fill="#FAFAF9"/>
<path d="M42.9197 143.918C39.6662 143.918 36.4209 143.333 33.3338 142.126C33.0336 142.009 32.7334 141.888 32.4373 141.758C29.6463 140.564 28.3603 137.347 29.5611 134.57C30.7619 131.793 33.9951 130.513 36.786 131.708C36.9727 131.789 37.1592 131.865 37.3458 131.938C42.8994 134.102 49.4266 132.818 54.392 128.592C54.6272 128.378 55.4021 127.655 55.5075 127.555L129.485 57.4512C129.485 57.4512 131.075 55.9578 131.42 55.6712C136.45 51.4532 142.162 48.9264 147.939 48.3654C149.164 48.2443 150.405 48.208 151.626 48.2524C154.356 48.3452 157.35 48.6358 160.604 50.1333C163.358 51.4048 164.559 54.654 163.281 57.3987C162.003 60.1394 158.738 61.3342 155.979 60.0627C154.576 59.4169 153.18 59.2514 151.237 59.1868C150.49 59.1586 149.748 59.1828 149.01 59.2555C145.472 59.5985 141.862 61.2373 138.56 63.9941C138.296 64.2323 137.237 65.2171 137.067 65.3746L63.0895 135.482C63.0895 135.482 61.8765 136.62 61.6088 136.85C56.2012 141.484 49.5442 143.918 42.9197 143.922V143.918Z" fill="#FAFAF9"/>
</svg>
