<svg xmlns="http://www.w3.org/2000/svg" width="578" height="291" fill="none" viewBox="0 0 578 291"><path fill="#b392f0" d="M25.446 77.88c0-1.38 1.035-2.103 2.432-2.3l2.268-.329c.591-.082.706-.345.706-.707 0-.837-.624-1.462-1.89-1.462-1.232 0-2.02.69-2.12 1.594l-1.248-.263c.164-1.462 1.561-2.514 3.336-2.514 2.267 0 3.22 1.249 3.22 2.777v3.845c0 .657.099 1.233.165 1.479h-1.282c-.05-.148-.148-.674-.148-1.183-.246.64-1.183 1.413-2.662 1.413-1.807 0-2.777-1.167-2.777-2.35m2.974 1.15c1.282 0 2.432-.739 2.432-2.316v-.56l-2.711.395c-.789.115-1.38.526-1.38 1.233 0 .673.493 1.249 1.66 1.249m9.656-6.819h1.479l1.511 6.228 1.069-6.31h1.248L41.937 80H40.36l-1.578-6.392L37.271 80H35.71l-1.529-7.871h1.282l1.118 6.31zm7.076 5.67c0-1.381 1.035-2.104 2.432-2.301l2.267-.329c.592-.082.707-.345.707-.707 0-.837-.625-1.462-1.89-1.462-1.232 0-2.021.69-2.12 1.594l-1.248-.263c.164-1.462 1.56-2.514 3.335-2.514 2.268 0 3.221 1.249 3.221 2.777v3.845c0 .657.099 1.233.164 1.479H50.74c-.05-.148-.148-.674-.148-1.183-.247.64-1.183 1.413-2.662 1.413-1.808 0-2.777-1.167-2.777-2.35m2.974 1.15c1.282 0 2.432-.74 2.432-2.317v-.56l-2.711.395c-.79.115-1.38.526-1.38 1.233 0 .673.492 1.249 1.659 1.249m7.01-.214h3.023v-5.505h-2.678V72.13h3.993v6.688h3.024V80h-7.362zm2.383-9.449c0-.69.542-1.232 1.249-1.232.673 0 1.215.542 1.215 1.232s-.542 1.25-1.215 1.25a1.24 1.24 0 0 1-1.25-1.25m14.01 2.761v1.2h-3.007v4.19c0 .92.575 1.364 1.43 1.364.542 0 1.248-.099 1.577-.214v1.2c-.362.131-.92.263-1.726.263-1.626 0-2.596-.806-2.596-2.367V73.33h-2.53v-1.2h1.298c.953 0 1.314-.493 1.314-1.364v-1.413h1.233v2.777zM25.446 152.88c0-1.38 1.035-2.103 2.432-2.3l2.268-.329c.591-.082.706-.345.706-.706 0-.838-.624-1.463-1.89-1.463-1.232 0-2.02.69-2.12 1.594l-1.248-.263c.164-1.462 1.561-2.514 3.336-2.514 2.267 0 3.22 1.249 3.22 2.777v3.845c0 .657.099 1.233.165 1.479h-1.282c-.05-.148-.148-.674-.148-1.183-.246.641-1.183 1.413-2.662 1.413-1.807 0-2.777-1.167-2.777-2.35m2.974 1.151c1.282 0 2.432-.74 2.432-2.317v-.559l-2.711.394c-.789.115-1.38.526-1.38 1.233 0 .673.493 1.249 1.66 1.249m9.656-6.82h1.479l1.511 6.228 1.069-6.31h1.248L41.937 155H40.36l-1.578-6.392L37.271 155H35.71l-1.529-7.871h1.282l1.118 6.31zm7.076 5.669c0-1.38 1.035-2.103 2.432-2.3l2.267-.329c.592-.082.707-.345.707-.706 0-.838-.625-1.463-1.89-1.463-1.232 0-2.021.69-2.12 1.594l-1.248-.263c.164-1.462 1.56-2.514 3.335-2.514 2.268 0 3.221 1.249 3.221 2.777v3.845c0 .657.099 1.233.164 1.479H50.74c-.05-.148-.148-.674-.148-1.183-.247.641-1.183 1.413-2.662 1.413-1.808 0-2.777-1.167-2.777-2.35m2.974 1.151c1.282 0 2.432-.74 2.432-2.317v-.559l-2.711.394c-.79.115-1.38.526-1.38 1.233 0 .673.492 1.249 1.659 1.249m7.01-.214h3.023v-5.505h-2.678v-1.183h3.993v6.688h3.024V155h-7.362zm2.383-9.449c0-.69.542-1.232 1.249-1.232.673 0 1.215.542 1.215 1.232 0 .691-.542 1.249-1.215 1.249a1.24 1.24 0 0 1-1.25-1.249m14.01 2.761v1.2h-3.007v4.19c0 .92.575 1.364 1.43 1.364.542 0 1.248-.099 1.577-.214v1.2c-.362.131-.92.262-1.726.262-1.626 0-2.596-.805-2.596-2.366v-4.436h-2.53v-1.2h1.298c.953 0 1.314-.493 1.314-1.364v-1.413h1.233v2.777zM25.446 202.88c0-1.38 1.035-2.103 2.432-2.3l2.268-.329c.591-.082.706-.345.706-.706 0-.838-.624-1.463-1.89-1.463-1.232 0-2.02.69-2.12 1.594l-1.248-.263c.164-1.462 1.561-2.514 3.336-2.514 2.267 0 3.22 1.249 3.22 2.777v3.845c0 .657.099 1.233.165 1.479h-1.282c-.05-.148-.148-.674-.148-1.183-.246.641-1.183 1.413-2.662 1.413-1.807 0-2.777-1.167-2.777-2.35m2.974 1.151c1.282 0 2.432-.74 2.432-2.317v-.559l-2.711.394c-.789.115-1.38.526-1.38 1.233 0 .673.493 1.249 1.66 1.249m9.656-6.82h1.479l1.511 6.228 1.069-6.31h1.248L41.937 205H40.36l-1.578-6.392L37.271 205H35.71l-1.529-7.871h1.282l1.118 6.31zm7.076 5.669c0-1.38 1.035-2.103 2.432-2.3l2.267-.329c.592-.082.707-.345.707-.706 0-.838-.625-1.463-1.89-1.463-1.232 0-2.021.69-2.12 1.594l-1.248-.263c.164-1.462 1.56-2.514 3.335-2.514 2.268 0 3.221 1.249 3.221 2.777v3.845c0 .657.099 1.233.164 1.479H50.74c-.05-.148-.148-.674-.148-1.183-.247.641-1.183 1.413-2.662 1.413-1.808 0-2.777-1.167-2.777-2.35m2.974 1.151c1.282 0 2.432-.74 2.432-2.317v-.559l-2.711.394c-.79.115-1.38.526-1.38 1.233 0 .673.492 1.249 1.659 1.249m7.01-.214h3.023v-5.505h-2.678v-1.183h3.993v6.688h3.024V205h-7.362zm2.383-9.449c0-.69.542-1.232 1.249-1.232.673 0 1.215.542 1.215 1.232 0 .691-.542 1.249-1.215 1.249a1.24 1.24 0 0 1-1.25-1.249m14.01 2.761v1.2h-3.007v4.19c0 .92.575 1.364 1.43 1.364.542 0 1.248-.099 1.577-.214v1.2c-.362.131-.92.262-1.726.262-1.626 0-2.596-.805-2.596-2.366v-4.436h-2.53v-1.2h1.298c.953 0 1.314-.493 1.314-1.364v-1.413h1.233v2.777z"/><path fill="#52b2fd" d="M88.31 80.23c-2.219 0-3.336-1.43-3.55-2.317l1.2-.493c.23.822 1.068 1.627 2.382 1.627 1.052 0 1.66-.493 1.66-1.134 0-.575-.378-.92-1.249-1.1l-1.528-.313c-1.479-.296-2.136-1.15-2.136-2.17 0-1.33 1.232-2.431 2.974-2.431 1.758 0 2.892.904 3.254 2.153l-1.118.443c-.263-.756-.936-1.446-2.136-1.446-1.002 0-1.676.477-1.676 1.183 0 .51.312.904 1.1 1.052l1.496.296c1.561.312 2.334 1.084 2.334 2.267 0 1.101-.92 2.383-3.007 2.383m12.777-8.101v1.2H98.08v4.19c0 .92.575 1.364 1.43 1.364.542 0 1.249-.099 1.577-.214v1.2c-.361.131-.92.263-1.725.263-1.627 0-2.596-.806-2.596-2.367V73.33h-2.53v-1.2h1.297c.953 0 1.315-.493 1.315-1.364v-1.413h1.232v2.777zm6.78 8.101c-2.054 0-3.911-1.495-3.911-4.19 0-2.53 1.841-4.141 3.78-4.141 2.333 0 3.746 1.61 3.746 3.977 0 .164-.016.345-.032.46h-6.146v.115a2.555 2.555 0 0 0 2.563 2.563c1.331 0 2.087-.74 2.399-1.66l1.134.411c-.443 1.364-1.709 2.465-3.533 2.465m2.252-5.012c-.066-1.166-.921-2.152-2.367-2.152-1.314 0-2.333 1.018-2.415 2.152zm3.937-3.089h1.282v1.315c.361-.806 1.248-1.545 2.727-1.545 2.35 0 3.648 1.84 3.648 4.157 0 2.35-1.413 4.174-3.713 4.174-1.397 0-2.268-.624-2.63-1.33v4.222h-1.314zm3.779 6.918c1.528 0 2.547-1.249 2.547-2.99 0-1.743-1.019-2.975-2.547-2.975-1.512 0-2.497 1.233-2.497 2.974s1.002 2.99 2.497 2.99m8.259-.296c0-.772.608-1.364 1.348-1.364a1.35 1.35 0 0 1 1.363 1.364c0 .772-.608 1.348-1.363 1.348-.74 0-1.348-.576-1.348-1.348M88.31 155.23c-2.219 0-3.336-1.43-3.55-2.317l1.2-.493c.23.822 1.068 1.627 2.382 1.627 1.052 0 1.66-.493 1.66-1.134 0-.575-.378-.92-1.249-1.101l-1.528-.312c-1.479-.296-2.136-1.15-2.136-2.169 0-1.331 1.232-2.432 2.974-2.432 1.758 0 2.892.904 3.254 2.153l-1.118.443c-.263-.756-.936-1.446-2.136-1.446-1.002 0-1.676.477-1.676 1.183 0 .51.312.904 1.1 1.052l1.496.296c1.561.312 2.334 1.084 2.334 2.267 0 1.101-.92 2.383-3.007 2.383m12.777-8.101v1.2H98.08v4.19c0 .92.575 1.364 1.43 1.364.542 0 1.249-.099 1.577-.214v1.2c-.361.131-.92.262-1.725.262-1.627 0-2.596-.805-2.596-2.366v-4.436h-2.53v-1.2h1.297c.953 0 1.315-.493 1.315-1.364v-1.413h1.232v2.777zm6.78 8.101c-2.054 0-3.911-1.495-3.911-4.19 0-2.531 1.841-4.141 3.78-4.141 2.333 0 3.746 1.61 3.746 3.977 0 .164-.016.345-.032.46h-6.146v.115a2.555 2.555 0 0 0 2.563 2.563c1.331 0 2.087-.739 2.399-1.66l1.134.411c-.443 1.364-1.709 2.465-3.533 2.465m2.252-5.012c-.066-1.166-.921-2.152-2.367-2.152-1.314 0-2.333 1.018-2.415 2.152zm3.937-3.089h1.282v1.315c.361-.806 1.248-1.545 2.727-1.545 2.35 0 3.648 1.84 3.648 4.157 0 2.35-1.413 4.174-3.713 4.174-1.397 0-2.268-.624-2.63-1.331v4.223h-1.314zm3.779 6.918c1.528 0 2.547-1.249 2.547-2.991s-1.019-2.974-2.547-2.974c-1.512 0-2.497 1.232-2.497 2.974s1.002 2.991 2.497 2.991m8.259-.296c0-.772.608-1.364 1.348-1.364a1.35 1.35 0 0 1 1.363 1.364c0 .772-.608 1.348-1.363 1.348-.74 0-1.348-.576-1.348-1.348M88.31 205.23c-2.219 0-3.336-1.43-3.55-2.317l1.2-.493c.23.822 1.068 1.627 2.382 1.627 1.052 0 1.66-.493 1.66-1.134 0-.575-.378-.92-1.249-1.101l-1.528-.312c-1.479-.296-2.136-1.15-2.136-2.169 0-1.331 1.232-2.432 2.974-2.432 1.758 0 2.892.904 3.254 2.153l-1.118.443c-.263-.756-.936-1.446-2.136-1.446-1.002 0-1.676.477-1.676 1.183 0 .51.312.904 1.1 1.052l1.496.296c1.561.312 2.334 1.084 2.334 2.267 0 1.101-.92 2.383-3.007 2.383m12.777-8.101v1.2H98.08v4.19c0 .92.575 1.364 1.43 1.364.542 0 1.249-.099 1.577-.214v1.2c-.361.131-.92.262-1.725.262-1.627 0-2.596-.805-2.596-2.366v-4.436h-2.53v-1.2h1.297c.953 0 1.315-.493 1.315-1.364v-1.413h1.232v2.777zm6.78 8.101c-2.054 0-3.911-1.495-3.911-4.19 0-2.531 1.841-4.141 3.78-4.141 2.333 0 3.746 1.61 3.746 3.977 0 .164-.016.345-.032.46h-6.146v.115a2.555 2.555 0 0 0 2.563 2.563c1.331 0 2.087-.739 2.399-1.66l1.134.411c-.443 1.364-1.709 2.465-3.533 2.465m2.252-5.012c-.066-1.166-.921-2.152-2.367-2.152-1.314 0-2.333 1.018-2.415 2.152zm3.937-3.089h1.282v1.315c.361-.806 1.248-1.545 2.727-1.545 2.35 0 3.648 1.84 3.648 4.157 0 2.35-1.413 4.174-3.713 4.174-1.397 0-2.268-.624-2.63-1.331v4.223h-1.314zm3.779 6.918c1.528 0 2.547-1.249 2.547-2.991s-1.019-2.974-2.547-2.974c-1.512 0-2.497 1.232-2.497 2.974s1.002 2.991 2.497 2.991m8.259-.296c0-.772.608-1.364 1.348-1.364a1.35 1.35 0 0 1 1.363 1.364c0 .772-.608 1.348-1.363 1.348-.74 0-1.348-.576-1.348-1.348"/><path fill="#ce9178" d="M141.024 73.575c-.213-.066-.542-.148-1.1-.148-1.627 0-2.498.92-2.498 2.728v2.678h2.481V80h-6.129v-1.167h2.333v-5.537h-2.087v-1.167h3.369v1.545c.46-1.216 1.61-1.66 2.547-1.66.575 0 .887.082 1.084.148zm8.079 5.357c-.378.805-1.348 1.298-2.432 1.298-2.005 0-3.024-1.347-3.024-3.155V72.13h1.315v4.733c0 1.133.542 2.169 2.004 2.169 1.331 0 2.071-.97 2.071-2.202v-4.7h1.314v6.228c0 .608.066 1.33.115 1.643h-1.265c-.066-.23-.098-.674-.098-1.068m4.561-6.803h1.282v1.15c.493-.936 1.479-1.38 2.563-1.38 2.054 0 3.04 1.397 3.04 3.138V80h-1.314v-4.7c0-1.133-.51-2.169-2.038-2.169-1.249 0-2.218.937-2.218 2.449V80h-1.315zm-12.64 76.446c-.213-.066-.542-.148-1.1-.148-1.627 0-2.498.92-2.498 2.728v2.678h2.481V155h-6.129v-1.167h2.333v-5.537h-2.087v-1.167h3.369v1.545c.46-1.216 1.61-1.66 2.547-1.66.575 0 .887.082 1.084.148zm8.079 5.357c-.378.805-1.348 1.298-2.432 1.298-2.005 0-3.024-1.347-3.024-3.155v-4.946h1.315v4.732c0 1.134.542 2.17 2.004 2.17 1.331 0 2.071-.97 2.071-2.202v-4.7h1.314v6.228c0 .608.066 1.331.115 1.643h-1.265c-.066-.23-.098-.674-.098-1.068m4.561-6.803h1.282v1.15c.493-.936 1.479-1.38 2.563-1.38 2.054 0 3.04 1.397 3.04 3.139V155h-1.314v-4.7c0-1.133-.51-2.169-2.038-2.169-1.249 0-2.218.937-2.218 2.449V155h-1.315zm-12.64 51.446c-.213-.066-.542-.148-1.1-.148-1.627 0-2.498.92-2.498 2.728v2.678h2.481V205h-6.129v-1.167h2.333v-5.537h-2.087v-1.167h3.369v1.545c.46-1.216 1.61-1.66 2.547-1.66.575 0 .887.082 1.084.148zm8.079 5.357c-.378.805-1.348 1.298-2.432 1.298-2.005 0-3.024-1.347-3.024-3.155v-4.946h1.315v4.732c0 1.134.542 2.17 2.004 2.17 1.331 0 2.071-.97 2.071-2.202v-4.7h1.314v6.228c0 .608.066 1.331.115 1.643h-1.265c-.066-.23-.098-.674-.098-1.068m4.561-6.803h1.282v1.15c.493-.936 1.479-1.38 2.563-1.38 2.054 0 3.04 1.397 3.04 3.139V205h-1.314v-4.7c0-1.133-.51-2.169-2.038-2.169-1.249 0-2.218.937-2.218 2.449V205h-1.315z"/><path fill="#fff" d="M164.832 74.791c0-3.714 1.725-6.162 3.681-7.74l.755.79c-1.971 1.692-3.253 3.86-3.253 6.95s1.282 5.258 3.253 6.95l-.755.79c-1.956-1.578-3.681-4.026-3.681-7.74m148.351 4.01c0-.74.559-1.315 1.38-1.315.805 0 1.512.608 1.512 1.807 0 2.514-1.791 3.665-3.336 3.878v-.936c1.331-.247 2.186-1.233 2.186-2.268a1.2 1.2 0 0 1-.493.115c-.707 0-1.249-.51-1.249-1.281m21.447 1.429c-2.218 0-3.335-1.43-3.549-2.317l1.2-.493c.23.822 1.068 1.627 2.382 1.627 1.052 0 1.66-.493 1.66-1.134 0-.575-.378-.92-1.249-1.1l-1.528-.313c-1.479-.296-2.136-1.15-2.136-2.17 0-1.33 1.232-2.431 2.974-2.431 1.758 0 2.892.904 3.253 2.153l-1.117.443c-.263-.756-.937-1.446-2.136-1.446-1.002 0-1.676.477-1.676 1.183 0 .51.312.904 1.101 1.052l1.495.296c1.561.312 2.333 1.084 2.333 2.267 0 1.101-.92 2.383-3.007 2.383m9.705 0c-2.054 0-3.91-1.495-3.91-4.19 0-2.53 1.84-4.141 3.779-4.141 2.333 0 3.746 1.61 3.746 3.977 0 .164-.016.345-.032.46h-6.146v.115a2.555 2.555 0 0 0 2.563 2.563c1.331 0 2.087-.74 2.399-1.66l1.134.411c-.443 1.364-1.709 2.465-3.533 2.465m2.252-5.012c-.066-1.166-.921-2.152-2.367-2.152-1.314 0-2.333 1.018-2.415 2.152zm4.134-3.089h1.282v1.15c.493-.936 1.479-1.38 2.563-1.38 2.054 0 3.04 1.397 3.04 3.138V80h-1.314v-4.7c0-1.133-.51-2.169-2.038-2.169-1.249 0-2.218.937-2.218 2.449V80h-1.315zm15.456 6.573c-.378.822-1.249 1.528-2.695 1.528-2.234 0-3.664-1.84-3.664-4.174 0-2.284 1.512-4.157 3.73-4.157 1.495 0 2.301.707 2.596 1.413V68.12h1.315v10.4c0 .789.049 1.315.082 1.479h-1.282a7 7 0 0 1-.082-1.134zm-2.497.329c1.544 0 2.497-1.25 2.497-2.975s-.936-2.957-2.497-2.957c-1.512 0-2.531 1.232-2.531 2.957 0 1.726 1.035 2.975 2.531 2.975m5.465-10.681h1.315l.969 9.3 1.545-9.202h1.511l1.529 9.104 1.117-9.202h1.282L376.885 80h-1.529l-1.626-9.662L372.168 80h-1.725zm14.602 11.88c-2.054 0-3.911-1.495-3.911-4.19 0-2.53 1.84-4.141 3.779-4.141 2.334 0 3.747 1.61 3.747 3.977 0 .164-.017.345-.033.46h-6.146v.115c0 1.479 1.2 2.563 2.564 2.563 1.331 0 2.087-.74 2.399-1.66l1.134.411c-.444 1.364-1.709 2.465-3.533 2.465m2.251-5.012c-.066-1.166-.92-2.152-2.366-2.152-1.315 0-2.334 1.018-2.416 2.152zm3.806 3.599h3.023v-9.514h-2.596V68.12h3.911v10.697h3.023V80h-7.361zm13.78 1.413c-2.153 0-3.993-1.627-3.993-4.174 0-2.58 1.906-4.157 3.976-4.157 2.137 0 3.287 1.232 3.615 2.498l-1.199.493c-.214-.822-.937-1.759-2.416-1.759-1.298 0-2.645.986-2.645 2.925 0 1.923 1.347 2.942 2.662 2.942 1.577 0 2.218-1.068 2.448-1.775l1.15.493c-.377 1.167-1.528 2.514-3.598 2.514m9.606 0c-2.267 0-3.944-1.742-3.944-4.174 0-2.415 1.677-4.157 3.944-4.157s3.944 1.742 3.944 4.157c0 2.432-1.676 4.174-3.944 4.174m0-1.2c1.413 0 2.613-1.068 2.613-2.974 0-1.89-1.2-2.957-2.613-2.957s-2.613 1.068-2.613 2.957c0 1.906 1.2 2.975 2.613 2.975m7.01-5.948c.28-.756.888-1.1 1.627-1.1s1.38.394 1.545 1.264c.295-.788.936-1.265 1.873-1.265 1.002 0 1.972.477 1.972 2.35V80h-1.233v-5.472c0-1.035-.41-1.364-1.068-1.364-.657 0-1.199.46-1.199 1.594V80h-1.216v-5.423c0-1.018-.395-1.413-1.052-1.413-.674 0-1.216.411-1.216 1.61V80h-1.232v-7.871h1.199zm12.811 7.148c-2.054 0-3.911-1.495-3.911-4.19 0-2.53 1.84-4.141 3.779-4.141 2.334 0 3.747 1.61 3.747 3.977 0 .164-.017.345-.033.46h-6.146v.115c0 1.479 1.2 2.563 2.564 2.563 1.331 0 2.087-.74 2.399-1.66l1.134.411c-.444 1.364-1.709 2.465-3.533 2.465m2.251-5.012c-.066-1.166-.92-2.152-2.366-2.152-1.315 0-2.334 1.018-2.416 2.152zm9.524-.427c0 3.714-1.725 6.162-3.681 7.74l-.755-.79c1.971-1.692 3.253-3.86 3.253-6.95s-1.282-5.258-3.253-6.95l.755-.79c1.956 1.578 3.681 4.026 3.681 7.74m-279.954 75c0-3.714 1.725-6.162 3.681-7.739l.755.788c-1.971 1.693-3.253 3.862-3.253 6.951s1.282 5.258 3.253 6.951l-.755.789c-1.956-1.578-3.681-4.026-3.681-7.74M303.33 153.8c0-.739.559-1.314 1.38-1.314.806 0 1.512.608 1.512 1.807 0 2.515-1.791 3.665-3.336 3.878v-.936c1.331-.247 2.186-1.233 2.186-2.268a1.2 1.2 0 0 1-.493.115c-.707 0-1.249-.509-1.249-1.282m62.634-4.009c0 3.714-1.726 6.162-3.681 7.74l-.756-.789c1.972-1.693 3.253-3.862 3.253-6.951s-1.281-5.258-3.253-6.951l.756-.788c1.955 1.577 3.681 4.025 3.681 7.739m-201.132 50c0-3.714 1.725-6.162 3.681-7.739l.755.788c-1.971 1.693-3.253 3.862-3.253 6.951s1.282 5.258 3.253 6.951l-.755.789c-1.956-1.578-3.681-4.026-3.681-7.74m128.645 4.009c0-.739.559-1.314 1.381-1.314.805 0 1.511.608 1.511 1.807 0 2.515-1.791 3.665-3.335 3.878v-.936c1.331-.247 2.185-1.233 2.185-2.268a1.2 1.2 0 0 1-.493.115c-.706 0-1.249-.509-1.249-1.282m21.448 1.43c-2.219 0-3.336-1.43-3.55-2.317l1.2-.493c.23.822 1.068 1.627 2.383 1.627 1.051 0 1.659-.493 1.659-1.134 0-.575-.378-.92-1.249-1.101l-1.528-.312c-1.479-.296-2.136-1.15-2.136-2.169 0-1.331 1.232-2.432 2.974-2.432 1.759 0 2.892.904 3.254 2.153l-1.118.443c-.262-.756-.936-1.446-2.136-1.446-1.002 0-1.676.477-1.676 1.183 0 .51.312.904 1.101 1.052l1.495.296c1.562.312 2.334 1.084 2.334 2.267 0 1.101-.92 2.383-3.007 2.383m9.705 0c-2.054 0-3.911-1.495-3.911-4.19 0-2.531 1.84-4.141 3.779-4.141 2.334 0 3.747 1.61 3.747 3.977 0 .164-.017.345-.033.46h-6.146v.115c0 1.479 1.2 2.563 2.564 2.563 1.331 0 2.087-.739 2.399-1.66l1.134.411c-.444 1.364-1.709 2.465-3.533 2.465m2.251-5.012c-.066-1.166-.92-2.152-2.366-2.152-1.315 0-2.334 1.018-2.416 2.152zm4.134-3.089h1.282v1.15c.493-.936 1.479-1.38 2.563-1.38 2.054 0 3.04 1.397 3.04 3.139V205h-1.314v-4.7c0-1.133-.51-2.169-2.038-2.169-1.249 0-2.218.937-2.218 2.449V205h-1.315zm15.457 6.573c-.378.821-1.249 1.528-2.695 1.528-2.235 0-3.665-1.84-3.665-4.174 0-2.284 1.512-4.157 3.73-4.157 1.496 0 2.301.707 2.597 1.413v-5.192h1.314v10.401c0 .789.05 1.315.082 1.479h-1.281a7 7 0 0 1-.082-1.134zm-2.498.329c1.544 0 2.498-1.249 2.498-2.975s-.937-2.957-2.498-2.957c-1.512 0-2.531 1.232-2.531 2.957 0 1.726 1.036 2.975 2.531 2.975m7.618-8.627V205h-1.347v-11.65h1.774l4.535 9.169v-9.169h1.348V205h-1.578zm14.273 8.528c-.378.805-1.347 1.298-2.432 1.298-2.005 0-3.023-1.347-3.023-3.155v-4.946h1.314v4.732c0 1.134.542 2.17 2.005 2.17 1.331 0 2.07-.97 2.07-2.202v-4.7h1.315v6.228c0 .608.066 1.331.115 1.643h-1.265c-.066-.23-.099-.674-.099-1.068m10.165-.23c-.378.821-1.249 1.528-2.695 1.528-2.235 0-3.664-1.84-3.664-4.174 0-2.284 1.512-4.157 3.73-4.157 1.495 0 2.3.707 2.596 1.413v-5.192h1.315v10.401c0 .789.049 1.315.082 1.479h-1.282a7 7 0 0 1-.082-1.134zm-2.498.329c1.545 0 2.498-1.249 2.498-2.975s-.937-2.957-2.498-2.957c-1.511 0-2.53 1.232-2.53 2.957 0 1.726 1.035 2.975 2.53 2.975m7.52 1.183c.164.969 1.035 1.889 2.35 1.889 1.774 0 2.432-1.117 2.432-2.645v-1.315c-.345.772-1.2 1.413-2.498 1.413-2.087 0-3.549-1.643-3.549-3.812 0-2.185 1.446-3.845 3.582-3.845 1.314 0 2.169.575 2.481 1.347v-1.117h1.298v7.444c0 1.807-.904 3.746-3.763 3.746-1.873 0-3.418-1.199-3.615-2.793zm4.847-4.437c0-1.627-.969-2.695-2.399-2.695-1.429 0-2.399 1.052-2.399 2.646s.97 2.645 2.399 2.645 2.399-1.051 2.399-2.596m7.701 4.453c-2.054 0-3.911-1.495-3.911-4.19 0-2.531 1.84-4.141 3.779-4.141 2.333 0 3.747 1.61 3.747 3.977 0 .164-.017.345-.033.46h-6.146v.115c0 1.479 1.2 2.563 2.564 2.563 1.331 0 2.086-.739 2.399-1.66l1.133.411c-.443 1.364-1.709 2.465-3.532 2.465m2.251-5.012c-.066-1.166-.92-2.152-2.367-2.152-1.314 0-2.333 1.018-2.415 2.152zm9.524-.427c0 3.714-1.725 6.162-3.681 7.74l-.756-.789c1.972-1.693 3.254-3.862 3.254-6.951s-1.282-5.258-3.254-6.951l.756-.788c1.956 1.577 3.681 4.025 3.681 7.739"/><path fill="#66bd8b" d="M177.429 68.958c-.97.18-1.709 1.002-1.742 1.824.049-.033.214-.083.411-.083.575 0 1.035.395 1.035 1.069 0 .591-.477 1.084-1.15 1.084-.674 0-1.266-.526-1.266-1.528 0-1.988 1.611-3.056 2.712-3.22zm2.958 0c-.97.18-1.709 1.002-1.742 1.824.049-.033.213-.083.411-.083.575 0 1.035.395 1.035 1.069 0 .591-.477 1.084-1.151 1.084-.673 0-1.265-.526-1.265-1.528 0-1.988 1.611-3.056 2.712-3.22zm6.451 11.272c-2.218 0-3.336-1.43-3.549-2.317l1.199-.493c.23.822 1.068 1.627 2.383 1.627 1.051 0 1.659-.493 1.659-1.134 0-.575-.378-.92-1.248-1.1l-1.529-.313c-1.479-.296-2.136-1.15-2.136-2.17 0-1.33 1.233-2.431 2.974-2.431 1.759 0 2.892.904 3.254 2.153l-1.117.443c-.263-.756-.937-1.446-2.137-1.446-1.002 0-1.676.477-1.676 1.183 0 .51.313.904 1.101 1.052l1.496.296c1.561.312 2.333 1.084 2.333 2.267 0 1.101-.92 2.383-3.007 2.383m9.705 0c-2.054 0-3.911-1.495-3.911-4.19 0-2.53 1.84-4.141 3.779-4.141 2.334 0 3.747 1.61 3.747 3.977 0 .164-.017.345-.033.46h-6.146v.115c0 1.479 1.2 2.563 2.564 2.563 1.331 0 2.087-.74 2.399-1.66l1.134.411c-.444 1.364-1.709 2.465-3.533 2.465m2.251-5.012c-.066-1.166-.92-2.152-2.366-2.152-1.315 0-2.334 1.018-2.416 2.152zm4.135-3.089h1.281v1.15c.493-.936 1.479-1.38 2.564-1.38 2.054 0 3.04 1.397 3.04 3.138V80h-1.315v-4.7c0-1.133-.509-2.169-2.038-2.169-1.248 0-2.218.937-2.218 2.449V80h-1.314zm15.456 6.573c-.378.822-1.249 1.528-2.695 1.528-2.235 0-3.665-1.84-3.665-4.174 0-2.284 1.512-4.157 3.731-4.157 1.495 0 2.3.707 2.596 1.413V68.12h1.314v10.4c0 .789.05 1.315.083 1.479h-1.282a7 7 0 0 1-.082-1.134zm-2.498.329c1.545 0 2.498-1.25 2.498-2.975s-.937-2.957-2.498-2.957c-1.512 0-2.531 1.232-2.531 2.957 0 1.726 1.036 2.975 2.531 2.975m7.257-4.322h5.685v1.15h-5.685zm11.989-2.498h1.478l1.512 6.228 1.068-6.31h1.249L238.994 80h-1.577l-1.578-6.392L234.327 80h-1.561l-1.528-7.871h1.282l1.117 6.31zm10.674 8.019c-2.054 0-3.911-1.495-3.911-4.19 0-2.53 1.841-4.141 3.78-4.141 2.333 0 3.746 1.61 3.746 3.977 0 .164-.016.345-.033.46h-6.145v.115a2.555 2.555 0 0 0 2.563 2.563c1.331 0 2.087-.74 2.399-1.66l1.134.411c-.444 1.364-1.709 2.465-3.533 2.465m2.251-5.012c-.066-1.166-.92-2.152-2.366-2.152-1.315 0-2.333 1.018-2.416 2.152zm3.806 3.599h3.024v-9.514h-2.597V68.12h3.911v10.697h3.024V80h-7.362zm13.78 1.413c-2.152 0-3.993-1.627-3.993-4.174 0-2.58 1.906-4.157 3.977-4.157 2.136 0 3.286 1.232 3.615 2.498l-1.2.493c-.213-.822-.936-1.759-2.415-1.759-1.298 0-2.646.986-2.646 2.925 0 1.923 1.348 2.942 2.662 2.942 1.578 0 2.218-1.068 2.449-1.775l1.15.493c-.378 1.167-1.528 2.514-3.599 2.514m9.606 0c-2.267 0-3.943-1.742-3.943-4.174 0-2.415 1.676-4.157 3.943-4.157s3.944 1.742 3.944 4.157c0 2.432-1.676 4.174-3.944 4.174m0-1.2c1.414 0 2.613-1.068 2.613-2.974 0-1.89-1.199-2.957-2.613-2.957s-2.612 1.068-2.612 2.957c0 1.906 1.199 2.975 2.612 2.975m7.011-5.948c.279-.756.887-1.1 1.626-1.1.74 0 1.381.394 1.545 1.264.296-.788.937-1.265 1.873-1.265 1.003 0 1.972.477 1.972 2.35V80h-1.232v-5.472c0-1.035-.411-1.364-1.068-1.364-.658 0-1.2.46-1.2 1.594V80h-1.216v-5.423c0-1.018-.394-1.413-1.052-1.413-.673 0-1.216.411-1.216 1.61V80h-1.232v-7.871h1.2zm12.81 7.148c-2.054 0-3.911-1.495-3.911-4.19 0-2.53 1.841-4.141 3.78-4.141 2.333 0 3.746 1.61 3.746 3.977 0 .164-.016.345-.033.46h-6.145v.115a2.555 2.555 0 0 0 2.563 2.563c1.331 0 2.087-.74 2.399-1.66l1.134.411c-.444 1.364-1.709 2.465-3.533 2.465m2.251-5.012c-.065-1.166-.92-2.152-2.366-2.152-1.314 0-2.333 1.018-2.415 2.152zm7.799-3.122c.97-.18 1.709-1.002 1.742-1.824-.049.033-.214.082-.411.082-.575 0-1.035-.394-1.035-1.068 0-.591.477-1.084 1.15-1.084.674 0 1.265.526 1.265 1.528 0 1.988-1.61 3.056-2.711 3.22zm-2.958 0c.97-.18 1.709-1.002 1.742-1.824-.049.033-.213.082-.411.082-.575 0-1.035-.394-1.035-1.068 0-.591.477-1.084 1.15-1.084.674 0 1.266.526 1.266 1.528 0 1.988-1.611 3.056-2.712 3.22zm-124.734 71.862c-.97.18-1.709 1.002-1.742 1.824.049-.033.214-.083.411-.083.575 0 1.035.395 1.035 1.069 0 .591-.477 1.084-1.15 1.084-.674 0-1.266-.526-1.266-1.528 0-1.988 1.611-3.057 2.712-3.221zm2.958 0c-.97.18-1.709 1.002-1.742 1.824.049-.033.213-.083.411-.083.575 0 1.035.395 1.035 1.069 0 .591-.477 1.084-1.151 1.084-.673 0-1.265-.526-1.265-1.528 0-1.988 1.611-3.057 2.712-3.221zm5.481 3.253h1.479l1.512 6.228 1.068-6.31h1.249L189.73 155h-1.578l-1.577-6.392-1.512 6.392h-1.561l-1.528-7.871h1.282l1.117 6.31zm7.076 5.669c0-1.38 1.035-2.103 2.432-2.3l2.268-.329c.591-.082.706-.345.706-.706 0-.838-.624-1.463-1.889-1.463-1.233 0-2.021.69-2.12 1.594l-1.249-.263c.164-1.462 1.561-2.514 3.336-2.514 2.267 0 3.221 1.249 3.221 2.777v3.845c0 .657.098 1.233.164 1.479h-1.282c-.049-.148-.148-.674-.148-1.183-.246.641-1.183 1.413-2.662 1.413-1.807 0-2.777-1.167-2.777-2.35m2.974 1.151c1.282 0 2.432-.74 2.432-2.317v-.559l-2.711.394c-.789.115-1.38.526-1.38 1.233 0 .673.493 1.249 1.659 1.249m7.011-.214h3.023v-5.505h-2.678v-1.183h3.993v6.688h3.023V155h-7.361zm2.382-9.449c0-.69.542-1.232 1.249-1.232.674 0 1.216.542 1.216 1.232 0 .691-.542 1.249-1.216 1.249a1.237 1.237 0 0 1-1.249-1.249m14.01 2.761v1.2h-3.007v4.19c0 .92.575 1.364 1.43 1.364.542 0 1.249-.099 1.577-.214v1.2c-.361.131-.92.262-1.725.262-1.627 0-2.596-.805-2.596-2.366v-4.436h-2.531v-1.2h1.298c.953 0 1.315-.493 1.315-1.364v-1.413h1.232v2.777zm3.823 2.58h5.685v1.15h-5.685zm12.991-1.134c1.807 0 3.401 1.167 3.401 3.27 0 1.808-1.396 3.385-3.795 3.385-2.317 0-3.78-1.545-3.928-3.319l1.348-.263c.115 1.462 1.249 2.35 2.563 2.35 1.479 0 2.449-.904 2.449-2.12 0-1.413-.97-2.12-2.334-2.12-.345 0-.674.033-.969.115l-.641-1.15 3.303-3.122h-5.39v-1.249h7.164v1.232zm6.714 1.134h5.686v1.15h-5.686zm14.947 3.993c-.378.821-1.249 1.528-2.695 1.528-2.235 0-3.664-1.84-3.664-4.174 0-2.284 1.512-4.157 3.73-4.157 1.495 0 2.3.707 2.596 1.413v-5.192h1.315v10.401c0 .789.049 1.315.082 1.479h-1.282a7 7 0 0 1-.082-1.134zm-2.498.329c1.545 0 2.498-1.249 2.498-2.975s-.937-2.957-2.498-2.957c-1.511 0-2.53 1.232-2.53 2.957 0 1.726 1.035 2.975 2.53 2.975m6.616-1.151c0-1.38 1.035-2.103 2.432-2.3l2.268-.329c.591-.082.706-.345.706-.706 0-.838-.624-1.463-1.889-1.463-1.233 0-2.022.69-2.12 1.594l-1.249-.263c.164-1.462 1.561-2.514 3.336-2.514 2.267 0 3.22 1.249 3.22 2.777v3.845c0 .657.099 1.233.165 1.479h-1.282c-.049-.148-.148-.674-.148-1.183-.246.641-1.183 1.413-2.662 1.413-1.807 0-2.777-1.167-2.777-2.35m2.974 1.151c1.282 0 2.432-.74 2.432-2.317v-.559l-2.711.394c-.789.115-1.38.526-1.38 1.233 0 .673.493 1.249 1.659 1.249m13.024-6.902h1.447l-5.374 10.993h-1.462l2.152-4.322-3.533-6.671h1.529l2.695 5.258zm7.454 8.101c-2.218 0-3.335-1.43-3.549-2.317l1.199-.493c.231.822 1.069 1.627 2.383 1.627 1.052 0 1.66-.493 1.66-1.134 0-.575-.378-.92-1.249-1.101l-1.528-.312c-1.479-.296-2.136-1.15-2.136-2.169 0-1.331 1.232-2.432 2.974-2.432 1.758 0 2.892.904 3.253 2.153l-1.117.443c-.263-.756-.937-1.446-2.136-1.446-1.003 0-1.676.477-1.676 1.183 0 .51.312.904 1.101 1.052l1.495.296c1.561.312 2.333 1.084 2.333 2.267 0 1.101-.92 2.383-3.007 2.383m9.902-8.134c.97-.181 1.709-1.002 1.742-1.824-.049.033-.213.082-.411.082-.575 0-1.035-.394-1.035-1.068 0-.591.477-1.084 1.15-1.084.674 0 1.266.526 1.266 1.528 0 1.988-1.611 3.056-2.712 3.221zm-2.957 0c.969-.181 1.709-1.002 1.741-1.824-.049.033-.213.082-.41.082-.576 0-1.036-.394-1.036-1.068 0-.591.477-1.084 1.151-1.084.673 0 1.265.526 1.265 1.528 0 1.988-1.61 3.056-2.711 3.221zm32.91-3.138c-.969.18-1.709 1.002-1.742 1.824.05-.033.214-.083.411-.083.575 0 1.035.395 1.035 1.069 0 .591-.476 1.084-1.15 1.084s-1.265-.526-1.265-1.528c0-1.988 1.61-3.057 2.711-3.221zm2.958 0c-.969.18-1.709 1.002-1.742 1.824.05-.033.214-.083.411-.083.575 0 1.035.395 1.035 1.069 0 .591-.476 1.084-1.15 1.084s-1.265-.526-1.265-1.528c0-1.988 1.61-3.057 2.711-3.221zm6.484 4.617c1.808 0 3.402 1.167 3.402 3.27 0 1.808-1.397 3.385-3.796 3.385-2.317 0-3.779-1.545-3.927-3.319l1.347-.263c.115 1.462 1.249 2.35 2.563 2.35 1.479 0 2.449-.904 2.449-2.12 0-1.413-.97-2.12-2.334-2.12-.345 0-.673.033-.969.115l-.641-1.15 3.303-3.122h-5.39v-1.249h7.165v1.232zm11.809 5.127c-.378.821-1.249 1.528-2.695 1.528-2.235 0-3.665-1.84-3.665-4.174 0-2.284 1.512-4.157 3.73-4.157 1.496 0 2.301.707 2.597 1.413v-5.192h1.314v10.401c0 .789.05 1.315.082 1.479h-1.281a7 7 0 0 1-.082-1.134zm-2.498.329c1.544 0 2.498-1.249 2.498-2.975s-.937-2.957-2.498-2.957c-1.512 0-2.531 1.232-2.531 2.957 0 1.726 1.036 2.975 2.531 2.975m10.411-6.935c.97-.181 1.709-1.002 1.742-1.824-.049.033-.213.082-.411.082-.575 0-1.035-.394-1.035-1.068 0-.591.477-1.084 1.15-1.084.674 0 1.266.526 1.266 1.528 0 1.988-1.611 3.056-2.712 3.221zm-2.957 0c.969-.181 1.709-1.002 1.741-1.824-.049.033-.213.082-.41.082-.576 0-1.036-.394-1.036-1.068 0-.591.477-1.084 1.151-1.084.673 0 1.265.526 1.265 1.528 0 1.988-1.61 3.056-2.711 3.221zm-173.999 46.862c-.97.18-1.709 1.002-1.742 1.824.049-.033.214-.083.411-.083.575 0 1.035.395 1.035 1.069 0 .591-.477 1.084-1.15 1.084-.674 0-1.266-.526-1.266-1.528 0-1.988 1.611-3.057 2.712-3.221zm2.958 0c-.97.18-1.709 1.002-1.742 1.824.049-.033.213-.083.411-.083.575 0 1.035.395 1.035 1.069 0 .591-.477 1.084-1.151 1.084-.673 0-1.265-.526-1.265-1.528 0-1.988 1.611-3.057 2.712-3.221zm6.451 11.272c-2.218 0-3.336-1.43-3.549-2.317l1.199-.493c.23.822 1.068 1.627 2.383 1.627 1.051 0 1.659-.493 1.659-1.134 0-.575-.378-.92-1.248-1.101l-1.529-.312c-1.479-.296-2.136-1.15-2.136-2.169 0-1.331 1.233-2.432 2.974-2.432 1.759 0 2.892.904 3.254 2.153l-1.117.443c-.263-.756-.937-1.446-2.137-1.446-1.002 0-1.676.477-1.676 1.183 0 .51.313.904 1.101 1.052l1.496.296c1.561.312 2.333 1.084 2.333 2.267 0 1.101-.92 2.383-3.007 2.383m9.705 0c-2.054 0-3.911-1.495-3.911-4.19 0-2.531 1.84-4.141 3.779-4.141 2.334 0 3.747 1.61 3.747 3.977 0 .164-.017.345-.033.46h-6.146v.115c0 1.479 1.2 2.563 2.564 2.563 1.331 0 2.087-.739 2.399-1.66l1.134.411c-.444 1.364-1.709 2.465-3.533 2.465m2.251-5.012c-.066-1.166-.92-2.152-2.366-2.152-1.315 0-2.334 1.018-2.416 2.152zm4.135-3.089h1.281v1.15c.493-.936 1.479-1.38 2.564-1.38 2.054 0 3.04 1.397 3.04 3.139V205h-1.315v-4.7c0-1.133-.509-2.169-2.038-2.169-1.248 0-2.218.937-2.218 2.449V205h-1.314zm15.456 6.573c-.378.821-1.249 1.528-2.695 1.528-2.235 0-3.665-1.84-3.665-4.174 0-2.284 1.512-4.157 3.731-4.157 1.495 0 2.3.707 2.596 1.413v-5.192h1.314v10.401c0 .789.05 1.315.083 1.479h-1.282a7 7 0 0 1-.082-1.134zm-2.498.329c1.545 0 2.498-1.249 2.498-2.975s-.937-2.957-2.498-2.957c-1.512 0-2.531 1.232-2.531 2.957 0 1.726 1.036 2.975 2.531 2.975m7.257-4.322h5.685v1.15h-5.685zm9.343-2.58h1.282v1.15c.493-.936 1.479-1.38 2.563-1.38 2.054 0 3.04 1.397 3.04 3.139V205h-1.315v-4.7c0-1.133-.509-2.169-2.037-2.169-1.249 0-2.218.937-2.218 2.449V205h-1.315zm15.144 6.803c-.378.805-1.347 1.298-2.432 1.298-2.005 0-3.023-1.347-3.023-3.155v-4.946h1.314v4.732c0 1.134.542 2.17 2.005 2.17 1.331 0 2.07-.97 2.07-2.202v-4.7h1.315v6.228c0 .608.066 1.331.115 1.643h-1.265c-.066-.23-.099-.674-.099-1.068m10.165-.23c-.378.821-1.249 1.528-2.695 1.528-2.235 0-3.664-1.84-3.664-4.174 0-2.284 1.512-4.157 3.73-4.157 1.495 0 2.3.707 2.596 1.413v-5.192h1.315v10.401c0 .789.049 1.315.082 1.479h-1.282a7 7 0 0 1-.082-1.134zm-2.498.329c1.545 0 2.498-1.249 2.498-2.975s-.937-2.957-2.498-2.957c-1.511 0-2.53 1.232-2.53 2.957 0 1.726 1.035 2.975 2.53 2.975m7.52 1.183c.164.969 1.035 1.889 2.35 1.889 1.774 0 2.432-1.117 2.432-2.645v-1.315c-.346.772-1.2 1.413-2.498 1.413-2.087 0-3.549-1.643-3.549-3.812 0-2.185 1.446-3.845 3.582-3.845 1.314 0 2.169.575 2.481 1.347v-1.117h1.298v7.444c0 1.807-.904 3.746-3.763 3.746-1.873 0-3.418-1.199-3.615-2.793zm4.847-4.437c0-1.627-.969-2.695-2.399-2.695-1.429 0-2.399 1.052-2.399 2.646s.97 2.645 2.399 2.645 2.399-1.051 2.399-2.596m7.701 4.453c-2.054 0-3.911-1.495-3.911-4.19 0-2.531 1.84-4.141 3.779-4.141 2.333 0 3.747 1.61 3.747 3.977 0 .164-.017.345-.033.46h-6.146v.115c0 1.479 1.2 2.563 2.564 2.563 1.331 0 2.086-.739 2.399-1.66l1.133.411c-.443 1.364-1.709 2.465-3.532 2.465m2.251-5.012c-.066-1.166-.92-2.152-2.367-2.152-1.314 0-2.333 1.018-2.415 2.152zm7.799-3.122c.969-.181 1.708-1.002 1.741-1.824-.049.033-.213.082-.41.082-.576 0-1.036-.394-1.036-1.068 0-.591.477-1.084 1.151-1.084.673 0 1.265.526 1.265 1.528 0 1.988-1.611 3.056-2.711 3.221zm-2.958 0c.969-.181 1.709-1.002 1.742-1.824-.05.033-.214.082-.411.082-.575 0-1.035-.394-1.035-1.068 0-.591.476-1.084 1.15-1.084s1.265.526 1.265 1.528c0 1.988-1.61 3.056-2.711 3.221z"/><path fill="#636363" d="m24.296 130 7.904-11.65h1.38L25.676 130zm9.853 0 7.903-11.65h1.38L35.53 130zm26.985-8.561c-.181-.97-.97-2.054-2.63-2.054-1.347 0-2.35.854-2.35 2.005 0 .936.576 1.643 1.858 1.922l1.495.329c1.873.411 2.958 1.577 2.958 3.22 0 1.775-1.43 3.369-3.812 3.369-2.482 0-3.96-1.66-4.174-3.303l1.298-.411c.131 1.315 1.364 2.432 2.941 2.432 1.545 0 2.366-.92 2.366-2.004 0-.97-.64-1.676-1.856-1.939l-1.529-.329c-1.774-.378-2.924-1.495-2.924-3.254 0-1.824 1.643-3.302 3.746-3.302 2.514 0 3.582 1.528 3.878 2.875zm9.146 7.493c-.378.805-1.347 1.298-2.432 1.298-2.005 0-3.023-1.347-3.023-3.155v-4.946h1.314v4.732c0 1.134.542 2.17 2.005 2.17 1.33 0 2.07-.97 2.07-2.202v-4.7h1.315v6.228c0 .608.066 1.331.115 1.643h-1.266c-.065-.23-.098-.674-.098-1.068m8.177 1.298c-2.219 0-3.336-1.43-3.55-2.317l1.2-.493c.23.822 1.068 1.627 2.383 1.627 1.051 0 1.66-.493 1.66-1.134 0-.575-.379-.92-1.25-1.101l-1.528-.312c-1.479-.296-2.136-1.15-2.136-2.169 0-1.331 1.232-2.432 2.974-2.432 1.759 0 2.892.904 3.254 2.153l-1.118.443c-.263-.756-.936-1.446-2.136-1.446-1.002 0-1.676.477-1.676 1.183 0 .51.312.904 1.101 1.052l1.495.296c1.562.312 2.334 1.084 2.334 2.267 0 1.101-.92 2.383-3.007 2.383m6.04-8.101h1.282v1.315c.362-.806 1.249-1.545 2.728-1.545 2.35 0 3.648 1.84 3.648 4.157 0 2.35-1.413 4.174-3.714 4.174-1.397 0-2.268-.624-2.63-1.331v4.223h-1.314zm3.78 6.918c1.528 0 2.547-1.249 2.547-2.991s-1.02-2.974-2.547-2.974c-1.512 0-2.498 1.232-2.498 2.974s1.002 2.991 2.498 2.991m9.737 1.183c-2.053 0-3.91-1.495-3.91-4.19 0-2.531 1.84-4.141 3.779-4.141 2.333 0 3.747 1.61 3.747 3.977 0 .164-.017.345-.033.46h-6.146v.115c0 1.479 1.2 2.563 2.564 2.563 1.33 0 2.086-.739 2.399-1.66l1.133.411c-.443 1.364-1.709 2.465-3.532 2.465m2.252-5.012c-.066-1.166-.92-2.152-2.367-2.152-1.314 0-2.333 1.018-2.415 2.152zm4.134-3.089h1.282v1.15c.493-.936 1.479-1.38 2.563-1.38 2.054 0 3.04 1.397 3.04 3.139V130h-1.314v-4.7c0-1.133-.51-2.169-2.038-2.169-1.249 0-2.218.937-2.218 2.449V130H104.4zm15.456 6.573c-.378.821-1.249 1.528-2.695 1.528-2.234 0-3.664-1.84-3.664-4.174 0-2.284 1.512-4.157 3.73-4.157 1.496 0 2.301.707 2.596 1.413v-5.192h1.315v10.401c0 .789.049 1.315.082 1.479h-1.282a7.4 7.4 0 0 1-.082-1.134zm-2.497.329c1.544 0 2.497-1.249 2.497-2.975s-.936-2.957-2.497-2.957c-1.512 0-2.531 1.232-2.531 2.957 0 1.726 1.035 2.975 2.531 2.975m20.248-5.456c1.807 0 3.401 1.167 3.401 3.27 0 1.808-1.397 3.385-3.796 3.385-2.317 0-3.779-1.545-3.927-3.319l1.347-.263c.115 1.462 1.249 2.35 2.564 2.35 1.479 0 2.448-.904 2.448-2.12 0-1.413-.969-2.12-2.333-2.12a3.7 3.7 0 0 0-.97.115l-.641-1.15 3.303-3.122h-5.389v-1.249h7.164v1.232zm21.661 5.127c-.378.821-1.249 1.528-2.695 1.528-2.235 0-3.665-1.84-3.665-4.174 0-2.284 1.512-4.157 3.731-4.157 1.495 0 2.3.707 2.596 1.413v-5.192h1.314v10.401c0 .789.05 1.315.083 1.479h-1.282a7 7 0 0 1-.082-1.134zm-2.498.329c1.545 0 2.498-1.249 2.498-2.975s-.937-2.957-2.498-2.957c-1.512 0-2.531 1.232-2.531 2.957 0 1.726 1.036 2.975 2.531 2.975m6.616-1.151c0-1.38 1.035-2.103 2.432-2.3l2.267-.329c.592-.082.707-.345.707-.706 0-.838-.625-1.463-1.89-1.463-1.232 0-2.021.69-2.12 1.594l-1.248-.263c.164-1.462 1.561-2.514 3.335-2.514 2.268 0 3.221 1.249 3.221 2.777v3.845c0 .657.099 1.233.164 1.479h-1.281c-.05-.148-.148-.674-.148-1.183-.247.641-1.183 1.413-2.662 1.413-1.808 0-2.777-1.167-2.777-2.35m2.974 1.151c1.282 0 2.432-.74 2.432-2.317v-.559l-2.711.394c-.789.115-1.381.526-1.381 1.233 0 .673.493 1.249 1.66 1.249m13.024-6.902h1.446l-5.373 10.993h-1.463l2.153-4.322-3.533-6.671h1.528l2.695 5.258zm7.454 8.101c-2.218 0-3.336-1.43-3.549-2.317l1.199-.493c.23.822 1.068 1.627 2.383 1.627 1.051 0 1.659-.493 1.659-1.134 0-.575-.378-.92-1.248-1.101l-1.529-.312c-1.479-.296-2.136-1.15-2.136-2.169 0-1.331 1.233-2.432 2.974-2.432 1.759 0 2.892.904 3.254 2.153l-1.117.443c-.263-.756-.937-1.446-2.137-1.446-1.002 0-1.676.477-1.676 1.183 0 .51.313.904 1.101 1.052l1.496.296c1.561.312 2.333 1.084 2.333 2.267 0 1.101-.92 2.383-3.007 2.383m15.335-5.521h8.216v1.15h-8.216zm20.412 4.141 5.061-5.521h-5.012v-1.2h6.721v1.15l-5.061 5.521h5.143v1.2h-6.852zm13.369 1.38c-2.054 0-3.911-1.495-3.911-4.19 0-2.531 1.841-4.141 3.78-4.141 2.333 0 3.746 1.61 3.746 3.977 0 .164-.016.345-.033.46h-6.145v.115a2.555 2.555 0 0 0 2.563 2.563c1.331 0 2.087-.739 2.399-1.66l1.134.411c-.444 1.364-1.709 2.465-3.533 2.465m2.251-5.012c-.065-1.166-.92-2.152-2.366-2.152-1.314 0-2.333 1.018-2.415 2.152zm11.201-1.643c-.214-.066-.543-.148-1.101-.148-1.627 0-2.498.92-2.498 2.728v2.678h2.481V130h-6.129v-1.167h2.333v-5.537h-2.086v-1.167h3.368v1.545c.46-1.216 1.61-1.66 2.547-1.66.575 0 .887.082 1.085.148zm6.139 6.655c-2.268 0-3.944-1.742-3.944-4.174 0-2.415 1.676-4.157 3.944-4.157s3.944 1.742 3.944 4.157c0 2.432-1.677 4.174-3.944 4.174m0-1.199c1.413 0 2.613-1.069 2.613-2.975 0-1.889-1.2-2.957-2.613-2.957s-2.613 1.068-2.613 2.957c0 1.906 1.2 2.975 2.613 2.975m19.952 1.199c-2.153 0-3.993-1.627-3.993-4.174 0-2.58 1.906-4.157 3.977-4.157 2.136 0 3.286 1.232 3.615 2.498l-1.2.493c-.214-.822-.937-1.759-2.415-1.759-1.299 0-2.646.986-2.646 2.925 0 1.923 1.347 2.942 2.662 2.942 1.577 0 2.218-1.068 2.448-1.775l1.151.493c-.378 1.167-1.529 2.514-3.599 2.514m9.606 0c-2.267 0-3.943-1.742-3.943-4.174 0-2.415 1.676-4.157 3.943-4.157s3.944 1.742 3.944 4.157c0 2.432-1.676 4.174-3.944 4.174m0-1.199c1.413 0 2.613-1.069 2.613-2.975 0-1.889-1.2-2.957-2.613-2.957s-2.612 1.068-2.612 2.957c0 1.906 1.199 2.975 2.612 2.975m6.37-1.151c0-1.38 1.035-2.103 2.432-2.3l2.267-.329c.592-.082.707-.345.707-.706 0-.838-.625-1.463-1.89-1.463-1.232 0-2.021.69-2.12 1.594l-1.249-.263c.165-1.462 1.562-2.514 3.336-2.514 2.268 0 3.221 1.249 3.221 2.777v3.845c0 .657.098 1.233.164 1.479h-1.282c-.049-.148-.147-.674-.147-1.183-.247.641-1.184 1.413-2.662 1.413-1.808 0-2.777-1.167-2.777-2.35m2.974 1.151c1.281 0 2.432-.74 2.432-2.317v-.559l-2.712.394c-.788.115-1.38.526-1.38 1.233 0 .673.493 1.249 1.66 1.249m10.625 1.199c-2.218 0-3.336-1.43-3.549-2.317l1.199-.493c.23.822 1.068 1.627 2.383 1.627 1.051 0 1.659-.493 1.659-1.134 0-.575-.378-.92-1.248-1.101l-1.529-.312c-1.479-.296-2.136-1.15-2.136-2.169 0-1.331 1.233-2.432 2.974-2.432 1.759 0 2.892.904 3.254 2.153l-1.117.443c-.263-.756-.937-1.446-2.137-1.446-1.002 0-1.676.477-1.676 1.183 0 .51.313.904 1.101 1.052l1.496.296c1.561.312 2.333 1.084 2.333 2.267 0 1.101-.92 2.383-3.007 2.383m12.778-8.101v1.2h-3.007v4.19c0 .92.575 1.364 1.429 1.364.542 0 1.249-.099 1.578-.214v1.2c-.362.131-.921.262-1.726.262-1.626 0-2.596-.805-2.596-2.366v-4.436h-2.531v-1.2h1.299c.953 0 1.314-.493 1.314-1.364v-1.413h1.233v2.777zm5.186 6.671c0-.739.558-1.314 1.38-1.314.805 0 1.512.608 1.512 1.807 0 2.515-1.791 3.665-3.336 3.878v-.936c1.331-.247 2.186-1.233 2.186-2.268a1.2 1.2 0 0 1-.493.115c-.707 0-1.249-.509-1.249-1.282m17.832-6.671h1.282v1.15c.493-.936 1.479-1.38 2.563-1.38 2.054 0 3.04 1.397 3.04 3.139V130h-1.314v-4.7c0-1.133-.51-2.169-2.038-2.169-1.249 0-2.218.937-2.218 2.449V130h-1.315zm13.205 8.101c-2.267 0-3.944-1.742-3.944-4.174 0-2.415 1.677-4.157 3.944-4.157s3.944 1.742 3.944 4.157c0 2.432-1.676 4.174-3.944 4.174m0-1.199c1.413 0 2.613-1.069 2.613-2.975 0-1.889-1.2-2.957-2.613-2.957s-2.613 1.068-2.613 2.957c0 1.906 1.2 2.975 2.613 2.975m16.157-6.902h1.281v1.315c.362-.806 1.249-1.545 2.728-1.545 2.35 0 3.648 1.84 3.648 4.157 0 2.35-1.413 4.174-3.714 4.174-1.397 0-2.267-.624-2.629-1.331v4.223h-1.314zm3.779 6.918c1.528 0 2.547-1.249 2.547-2.991s-1.019-2.974-2.547-2.974c-1.512 0-2.498 1.232-2.498 2.974s1.003 2.991 2.498 2.991m6.139-1.167c0-1.38 1.035-2.103 2.432-2.3l2.268-.329c.591-.082.706-.345.706-.706 0-.838-.624-1.463-1.889-1.463-1.233 0-2.022.69-2.12 1.594l-1.249-.263c.164-1.462 1.561-2.514 3.336-2.514 2.267 0 3.22 1.249 3.22 2.777v3.845c0 .657.099 1.233.165 1.479h-1.282c-.049-.148-.148-.674-.148-1.183-.246.641-1.183 1.413-2.662 1.413-1.807 0-2.777-1.167-2.777-2.35m2.974 1.151c1.282 0 2.432-.74 2.432-2.317v-.559l-2.711.394c-.789.115-1.38.526-1.38 1.233 0 .673.493 1.249 1.659 1.249m6.682-.214h3.023v-9.514h-2.596v-1.183h3.911v10.697h3.023V130h-7.361zm9.853 0h3.023v-9.514h-2.596v-1.183h3.911v10.697h3.023V130h-7.361zm10.181 0h3.024v-5.505h-2.679v-1.183h3.993v6.688h3.024V130h-7.362zm2.383-9.449c0-.69.542-1.232 1.249-1.232.673 0 1.216.542 1.216 1.232 0 .691-.543 1.249-1.216 1.249a1.237 1.237 0 0 1-1.249-1.249m7.47 2.761h1.282v1.15c.493-.936 1.478-1.38 2.563-1.38 2.054 0 3.04 1.397 3.04 3.139V130h-1.315v-4.7c0-1.133-.509-2.169-2.037-2.169-1.249 0-2.219.937-2.219 2.449V130h-1.314zm10.625 8.085c.164.969 1.035 1.889 2.35 1.889 1.774 0 2.432-1.117 2.432-2.645v-1.315c-.345.772-1.2 1.413-2.498 1.413-2.087 0-3.549-1.643-3.549-3.812 0-2.185 1.446-3.845 3.582-3.845 1.314 0 2.169.575 2.481 1.347v-1.117h1.298v7.444c0 1.807-.903 3.746-3.763 3.746-1.873 0-3.418-1.199-3.615-2.793zm4.847-4.437c0-1.627-.969-2.695-2.399-2.695-1.429 0-2.399 1.052-2.399 2.646s.97 2.645 2.399 2.645 2.399-1.051 2.399-2.596M24.296 230l7.904-11.65h1.38L25.676 230zm9.853 0 7.903-11.65h1.38L35.53 230zm24.34.23c-2.482 0-4.257-2.005-4.257-6.063 0-4.059 1.775-6.047 4.256-6.047s4.256 1.988 4.256 6.047-1.775 6.063-4.256 6.063m0-1.315c1.74 0 2.875-1.495 2.875-4.748s-1.134-4.733-2.876-4.733-2.876 1.479-2.876 4.733 1.134 4.748 2.876 4.748m13.566-5.34c-.214-.066-.543-.148-1.101-.148-1.627 0-2.498.92-2.498 2.728v2.678h2.481V230h-6.129v-1.167h2.333v-5.537h-2.087v-1.167h3.37v1.545c.46-1.216 1.61-1.66 2.546-1.66.575 0 .887.082 1.085.148zm16.254 6.655c-2.218 0-3.335-1.43-3.549-2.317l1.2-.493c.23.822 1.068 1.627 2.382 1.627 1.052 0 1.66-.493 1.66-1.134 0-.575-.378-.92-1.249-1.101l-1.528-.312c-1.479-.296-2.136-1.15-2.136-2.169 0-1.331 1.232-2.432 2.974-2.432 1.758 0 2.892.904 3.254 2.153l-1.118.443c-.263-.756-.936-1.446-2.136-1.446-1.002 0-1.676.477-1.676 1.183 0 .51.312.904 1.1 1.052l1.496.296c1.561.312 2.334 1.084 2.334 2.267 0 1.101-.92 2.383-3.007 2.383m5.91-1.413h3.023v-9.514h-2.596v-1.183h3.91v10.697h3.024V230h-7.361zm13.648 1.413c-2.054 0-3.911-1.495-3.911-4.19 0-2.531 1.841-4.141 3.78-4.141 2.333 0 3.746 1.61 3.746 3.977 0 .164-.016.345-.032.46h-6.146v.115a2.555 2.555 0 0 0 2.563 2.563c1.331 0 2.087-.739 2.399-1.66l1.134.411c-.443 1.364-1.709 2.465-3.533 2.465m2.252-5.012c-.066-1.166-.921-2.152-2.367-2.152-1.314 0-2.333 1.018-2.415 2.152zm7.601 5.012c-2.054 0-3.911-1.495-3.911-4.19 0-2.531 1.841-4.141 3.78-4.141 2.333 0 3.746 1.61 3.746 3.977 0 .164-.016.345-.033.46h-6.145v.115a2.555 2.555 0 0 0 2.563 2.563c1.331 0 2.087-.739 2.399-1.66l1.134.411c-.444 1.364-1.709 2.465-3.533 2.465m2.251-5.012c-.065-1.166-.92-2.152-2.366-2.152-1.314 0-2.333 1.018-2.415 2.152zm3.938-3.089h1.281v1.315c.362-.806 1.249-1.545 2.728-1.545 2.35 0 3.648 1.84 3.648 4.157 0 2.35-1.413 4.174-3.714 4.174-1.396 0-2.267-.624-2.629-1.331v4.223h-1.314zm3.779 6.918c1.528 0 2.547-1.249 2.547-2.991s-1.019-2.974-2.547-2.974c-1.512 0-2.498 1.232-2.498 2.974s1.003 2.991 2.498 2.991m21.415-.115c-.378.805-1.348 1.298-2.432 1.298-2.005 0-3.024-1.347-3.024-3.155v-4.946h1.315v4.732c0 1.134.542 2.17 2.004 2.17 1.331 0 2.071-.97 2.071-2.202v-4.7h1.314v6.228c0 .608.066 1.331.115 1.643H149.2c-.066-.23-.098-.674-.098-1.068m4.561-6.803h1.282v1.15c.493-.936 1.479-1.38 2.563-1.38 2.054 0 3.04 1.397 3.04 3.139V230h-1.314v-4.7c0-1.133-.51-2.169-2.038-2.169-1.249 0-2.218.937-2.218 2.449V230h-1.315zm16.393 0v1.2h-3.007v4.19c0 .92.575 1.364 1.43 1.364.542 0 1.248-.099 1.577-.214v1.2c-.361.131-.92.262-1.725.262-1.627 0-2.597-.805-2.597-2.366v-4.436h-2.53v-1.2h1.298c.953 0 1.315-.493 1.315-1.364v-1.413h1.232v2.777zm3.313 6.688h3.024v-5.505h-2.679v-1.183h3.993v6.688h3.024V230h-7.362zm2.383-9.449c0-.69.542-1.232 1.248-1.232.674 0 1.216.542 1.216 1.232 0 .691-.542 1.249-1.216 1.249a1.237 1.237 0 0 1-1.248-1.249m7.141 9.449h3.024v-9.514h-2.597v-1.183h3.911v10.697h3.024V230h-7.362zm19.903-.937c0-1.38 1.035-2.103 2.432-2.3l2.268-.329c.591-.082.706-.345.706-.706 0-.838-.624-1.463-1.889-1.463-1.233 0-2.022.69-2.12 1.594l-1.249-.263c.164-1.462 1.561-2.514 3.336-2.514 2.267 0 3.22 1.249 3.22 2.777v3.845c0 .657.099 1.233.165 1.479h-1.282c-.049-.148-.148-.674-.148-1.183-.246.641-1.183 1.413-2.662 1.413-1.807 0-2.777-1.167-2.777-2.35m2.974 1.151c1.282 0 2.432-.74 2.432-2.317v-.559l-2.711.394c-.789.115-1.38.526-1.38 1.233 0 .673.493 1.249 1.659 1.249m20.478 1.199c-2.218 0-3.335-1.43-3.549-2.317l1.199-.493c.231.822 1.069 1.627 2.383 1.627 1.052 0 1.66-.493 1.66-1.134 0-.575-.378-.92-1.249-1.101l-1.528-.312c-1.479-.296-2.136-1.15-2.136-2.169 0-1.331 1.232-2.432 2.974-2.432 1.758 0 2.892.904 3.253 2.153l-1.117.443c-.263-.756-.937-1.446-2.136-1.446-1.003 0-1.676.477-1.676 1.183 0 .51.312.904 1.101 1.052l1.495.296c1.561.312 2.333 1.084 2.333 2.267 0 1.101-.92 2.383-3.007 2.383m6.041-8.101h1.282v1.315c.361-.806 1.248-1.545 2.727-1.545 2.35 0 3.648 1.84 3.648 4.157 0 2.35-1.413 4.174-3.713 4.174-1.397 0-2.268-.624-2.63-1.331v4.223h-1.314zm3.779 6.918c1.528 0 2.547-1.249 2.547-2.991s-1.019-2.974-2.547-2.974c-1.512 0-2.497 1.232-2.497 2.974s1.002 2.991 2.497 2.991m9.738 1.183c-2.054 0-3.911-1.495-3.911-4.19 0-2.531 1.841-4.141 3.78-4.141 2.333 0 3.746 1.61 3.746 3.977 0 .164-.016.345-.033.46h-6.145v.115a2.555 2.555 0 0 0 2.563 2.563c1.331 0 2.087-.739 2.399-1.66l1.134.411c-.444 1.364-1.709 2.465-3.533 2.465m2.251-5.012c-.066-1.166-.92-2.152-2.366-2.152-1.315 0-2.333 1.018-2.416 2.152zm7.733 5.012c-2.152 0-3.993-1.627-3.993-4.174 0-2.58 1.906-4.157 3.977-4.157 2.136 0 3.286 1.232 3.615 2.498l-1.2.493c-.213-.822-.936-1.759-2.415-1.759-1.298 0-2.646.986-2.646 2.925 0 1.923 1.348 2.942 2.662 2.942 1.578 0 2.219-1.068 2.449-1.775l1.15.493c-.378 1.167-1.528 2.514-3.599 2.514m6.255-1.413h3.023v-5.505h-2.678v-1.183h3.993v6.688h3.023V230h-7.361zm2.382-9.449c0-.69.542-1.232 1.249-1.232.674 0 1.216.542 1.216 1.232 0 .691-.542 1.249-1.216 1.249a1.237 1.237 0 0 1-1.249-1.249M275.497 230h-1.315v-6.688h-2.859v-1.183h2.859v-1.298c0-1.808 1.249-2.728 2.975-2.728.64 0 1.265.099 1.725.263v1.183c-.526-.164-1.068-.23-1.676-.23-.97 0-1.709.427-1.709 1.66v1.15h3.385v1.183h-3.385zm6.254-1.183h3.024v-5.505h-2.679v-1.183h3.993v6.688h3.024V230h-7.362zm2.383-9.449c0-.69.542-1.232 1.249-1.232.673 0 1.216.542 1.216 1.232 0 .691-.543 1.249-1.216 1.249a1.237 1.237 0 0 1-1.249-1.249m11.069 10.862c-2.153 0-3.993-1.627-3.993-4.174 0-2.58 1.906-4.157 3.976-4.157 2.136 0 3.287 1.232 3.615 2.498l-1.199.493c-.214-.822-.937-1.759-2.416-1.759-1.298 0-2.645.986-2.645 2.925 0 1.923 1.347 2.942 2.662 2.942 1.577 0 2.218-1.068 2.448-1.775l1.15.493c-.378 1.167-1.528 2.514-3.598 2.514m22.647-8.101v1.2h-3.007v4.19c0 .92.575 1.364 1.429 1.364.542 0 1.249-.099 1.578-.214v1.2c-.362.131-.921.262-1.726.262-1.626 0-2.596-.805-2.596-2.366v-4.436h-2.531v-1.2h1.299c.953 0 1.314-.493 1.314-1.364v-1.413h1.233v2.777zm3.313 6.688h3.023v-5.505h-2.678v-1.183h3.993v6.688h3.023V230h-7.361zm2.382-9.449c0-.69.542-1.232 1.249-1.232.674 0 1.216.542 1.216 1.232 0 .691-.542 1.249-1.216 1.249a1.237 1.237 0 0 1-1.249-1.249m7.98 3.714c.279-.756.887-1.101 1.627-1.101.739 0 1.38.395 1.544 1.265.296-.788.937-1.265 1.873-1.265 1.003 0 1.972.477 1.972 2.35V230h-1.232v-5.472c0-1.035-.411-1.364-1.068-1.364-.658 0-1.2.46-1.2 1.594V230h-1.216v-5.423c0-1.018-.394-1.413-1.051-1.413-.674 0-1.216.411-1.216 1.611V230h-1.233v-7.871h1.2zm12.81 7.148c-2.054 0-3.91-1.495-3.91-4.19 0-2.531 1.84-4.141 3.779-4.141 2.333 0 3.746 1.61 3.746 3.977 0 .164-.016.345-.032.46h-6.146v.115a2.555 2.555 0 0 0 2.563 2.563c1.331 0 2.087-.739 2.399-1.66l1.134.411c-.443 1.364-1.709 2.465-3.533 2.465m2.252-5.012c-.066-1.166-.921-2.152-2.367-2.152-1.314 0-2.333 1.018-2.415 2.152zm7.749 5.012c-2.218 0-3.336-1.43-3.549-2.317l1.199-.493c.23.822 1.068 1.627 2.383 1.627 1.052 0 1.66-.493 1.66-1.134 0-.575-.378-.92-1.249-1.101l-1.528-.312c-1.479-.296-2.137-1.15-2.137-2.169 0-1.331 1.233-2.432 2.975-2.432 1.758 0 2.892.904 3.253 2.153l-1.117.443c-.263-.756-.937-1.446-2.136-1.446-1.003 0-1.676.477-1.676 1.183 0 .51.312.904 1.1 1.052l1.496.296c1.561.312 2.333 1.084 2.333 2.267 0 1.101-.92 2.383-3.007 2.383m12.778-8.101v1.2h-3.007v4.19c0 .92.575 1.364 1.429 1.364.543 0 1.249-.099 1.578-.214v1.2c-.362.131-.92.262-1.726.262-1.626 0-2.596-.805-2.596-2.366v-4.436h-2.53v-1.2h1.298c.953 0 1.314-.493 1.314-1.364v-1.413h1.233v2.777zm3.181 5.751c0-1.38 1.035-2.103 2.432-2.3l2.268-.329c.591-.082.706-.345.706-.706 0-.838-.624-1.463-1.889-1.463-1.233 0-2.021.69-2.12 1.594l-1.249-.263c.164-1.462 1.561-2.514 3.336-2.514 2.267 0 3.221 1.249 3.221 2.777v3.845c0 .657.098 1.233.164 1.479h-1.282c-.049-.148-.148-.674-.148-1.183-.246.641-1.183 1.413-2.662 1.413-1.807 0-2.777-1.167-2.777-2.35m2.974 1.151c1.282 0 2.432-.74 2.432-2.317v-.559l-2.711.394c-.789.115-1.38.526-1.38 1.233 0 .673.493 1.249 1.659 1.249m7.52-5.949c.279-.756.887-1.101 1.627-1.101.739 0 1.38.395 1.544 1.265.296-.788.937-1.265 1.874-1.265 1.002 0 1.971.477 1.971 2.35V230h-1.232v-5.472c0-1.035-.411-1.364-1.068-1.364s-1.2.46-1.2 1.594V230h-1.216v-5.423c0-1.018-.394-1.413-1.051-1.413-.674 0-1.216.411-1.216 1.611V230h-1.233v-7.871h1.2zm9.146-.953h1.282v1.315c.361-.806 1.249-1.545 2.728-1.545 2.349 0 3.648 1.84 3.648 4.157 0 2.35-1.414 4.174-3.714 4.174-1.397 0-2.268-.624-2.629-1.331v4.223h-1.315zm3.78 6.918c1.528 0 2.547-1.249 2.547-2.991s-1.019-2.974-2.547-2.974c-1.512 0-2.498 1.232-2.498 2.974s1.002 2.991 2.498 2.991m8.143-.296c0-.772.608-1.364 1.348-1.364a1.35 1.35 0 0 1 1.364 1.364c0 .772-.608 1.348-1.364 1.348-.74 0-1.348-.576-1.348-1.348m0-5.521c0-.772.608-1.364 1.348-1.364a1.35 1.35 0 0 1 1.364 1.364c0 .772-.608 1.347-1.364 1.347-.74 0-1.348-.575-1.348-1.347M24.296 255l7.904-11.65h1.38L25.676 255zm9.853 0 7.903-11.65h1.38L35.53 255zm20.856-2.12c0-1.38 1.035-2.103 2.432-2.3l2.267-.329c.592-.082.707-.345.707-.706 0-.838-.625-1.463-1.89-1.463-1.232 0-2.021.69-2.12 1.594l-1.249-.263c.165-1.462 1.562-2.514 3.336-2.514 2.268 0 3.22 1.249 3.22 2.777v3.845c0 .657.1 1.233.165 1.479h-1.282c-.049-.148-.148-.674-.148-1.183-.246.641-1.183 1.413-2.661 1.413-1.808 0-2.777-1.167-2.777-2.35m2.974 1.151c1.281 0 2.432-.74 2.432-2.317v-.559l-2.712.394c-.788.115-1.38.526-1.38 1.233 0 .673.493 1.249 1.66 1.249m9.655-6.82h1.48l1.511 6.228 1.068-6.31h1.249L71.496 255h-1.578l-1.577-6.392L66.829 255h-1.56l-1.529-7.871h1.282l1.117 6.31zm7.076 5.669c0-1.38 1.035-2.103 2.432-2.3l2.268-.329c.591-.082.706-.345.706-.706 0-.838-.624-1.463-1.89-1.463-1.232 0-2.02.69-2.12 1.594l-1.248-.263c.164-1.462 1.561-2.514 3.336-2.514 2.267 0 3.22 1.249 3.22 2.777v3.845c0 .657.1 1.233.165 1.479h-1.282c-.05-.148-.148-.674-.148-1.183-.246.641-1.183 1.413-2.662 1.413-1.807 0-2.777-1.167-2.777-2.35m2.974 1.151c1.282 0 2.432-.74 2.432-2.317v-.559l-2.71.394c-.79.115-1.381.526-1.381 1.233 0 .673.493 1.249 1.66 1.249m7.01-.214h3.024v-5.505H85.04v-1.183h3.993v6.688h3.023V255h-7.361zm2.383-9.449c0-.69.542-1.232 1.249-1.232.674 0 1.216.542 1.216 1.232 0 .691-.542 1.249-1.216 1.249a1.24 1.24 0 0 1-1.249-1.249m14.01 2.761v1.2H98.08v4.19c0 .92.575 1.364 1.43 1.364.542 0 1.249-.099 1.577-.214v1.2c-.361.131-.92.262-1.725.262-1.627 0-2.596-.805-2.596-2.366v-4.436h-2.53v-1.2h1.297c.953 0 1.315-.493 1.315-1.364v-1.413h1.232v2.777zm16.781 8.101c-2.218 0-3.336-1.43-3.549-2.317l1.199-.493c.23.822 1.068 1.627 2.383 1.627 1.052 0 1.66-.493 1.66-1.134 0-.575-.378-.92-1.249-1.101l-1.528-.312c-1.479-.296-2.137-1.15-2.137-2.169 0-1.331 1.233-2.432 2.975-2.432 1.758 0 2.892.904 3.253 2.153l-1.117.443c-.263-.756-.937-1.446-2.136-1.446-1.003 0-1.676.477-1.676 1.183 0 .51.312.904 1.1 1.052l1.496.296c1.561.312 2.333 1.084 2.333 2.267 0 1.101-.92 2.383-3.007 2.383m12.778-8.101v1.2h-3.007v4.19c0 .92.575 1.364 1.429 1.364.543 0 1.249-.099 1.578-.214v1.2c-.362.131-.92.262-1.726.262-1.626 0-2.596-.805-2.596-2.366v-4.436h-2.53v-1.2h1.298c.953 0 1.314-.493 1.314-1.364v-1.413h1.233v2.777zm6.78 8.101c-2.054 0-3.911-1.495-3.911-4.19 0-2.531 1.84-4.141 3.779-4.141 2.334 0 3.747 1.61 3.747 3.977 0 .164-.017.345-.033.46h-6.146v.115c0 1.479 1.2 2.563 2.564 2.563 1.331 0 2.087-.739 2.399-1.66l1.134.411c-.444 1.364-1.709 2.465-3.533 2.465m2.251-5.012c-.066-1.166-.92-2.152-2.366-2.152-1.315 0-2.334 1.018-2.416 2.152zm3.937-3.089h1.282v1.315c.362-.806 1.249-1.545 2.728-1.545 2.35 0 3.648 1.84 3.648 4.157 0 2.35-1.413 4.174-3.714 4.174-1.397 0-2.268-.624-2.629-1.331v4.223h-1.315zm3.78 6.918c1.528 0 2.547-1.249 2.547-2.991s-1.019-2.974-2.547-2.974c-1.512 0-2.498 1.232-2.498 2.974s1.002 2.991 2.498 2.991m8.259-.296c0-.772.608-1.364 1.347-1.364a1.35 1.35 0 0 1 1.364 1.364c0 .772-.608 1.348-1.364 1.348a1.333 1.333 0 0 1-1.347-1.348m11.479 1.479c-2.218 0-3.335-1.43-3.549-2.317l1.199-.493c.23.822 1.069 1.627 2.383 1.627 1.052 0 1.66-.493 1.66-1.134 0-.575-.378-.92-1.249-1.101l-1.528-.312c-1.479-.296-2.136-1.15-2.136-2.169 0-1.331 1.232-2.432 2.974-2.432 1.758 0 2.892.904 3.253 2.153l-1.117.443c-.263-.756-.937-1.446-2.136-1.446-1.003 0-1.676.477-1.676 1.183 0 .51.312.904 1.101 1.052l1.495.296c1.561.312 2.333 1.084 2.333 2.267 0 1.101-.92 2.383-3.007 2.383m5.909-1.413h3.024v-9.514h-2.596v-1.183h3.91v10.697h3.024V255h-7.362zm13.649 1.413c-2.054 0-3.911-1.495-3.911-4.19 0-2.531 1.841-4.141 3.78-4.141 2.333 0 3.746 1.61 3.746 3.977 0 .164-.016.345-.033.46h-6.145v.115a2.555 2.555 0 0 0 2.563 2.563c1.331 0 2.087-.739 2.399-1.66l1.134.411c-.444 1.364-1.709 2.465-3.533 2.465m2.251-5.012c-.066-1.166-.92-2.152-2.366-2.152-1.315 0-2.333 1.018-2.416 2.152zm7.602 5.012c-2.054 0-3.911-1.495-3.911-4.19 0-2.531 1.84-4.141 3.779-4.141 2.334 0 3.747 1.61 3.747 3.977 0 .164-.017.345-.033.46h-6.146v.115c0 1.479 1.2 2.563 2.564 2.563 1.331 0 2.087-.739 2.399-1.66l1.134.411c-.444 1.364-1.709 2.465-3.533 2.465m2.251-5.012c-.066-1.166-.92-2.152-2.366-2.152-1.315 0-2.334 1.018-2.416 2.152zm3.937-3.089h1.282v1.315c.362-.806 1.249-1.545 2.728-1.545 2.35 0 3.648 1.84 3.648 4.157 0 2.35-1.413 4.174-3.714 4.174-1.397 0-2.268-.624-2.629-1.331v4.223h-1.315zm3.78 6.918c1.528 0 2.547-1.249 2.547-2.991s-1.019-2.974-2.547-2.974c-1.512 0-2.498 1.232-2.498 2.974s1.002 2.991 2.498 2.991m9.622 1.183c-2.267 0-3.845-1.199-3.845-3.582v-8.298h1.364v8.166c0 1.545.97 2.416 2.481 2.416 1.512 0 2.482-.871 2.482-2.416v-8.166h1.364v8.298c0 2.383-1.578 3.582-3.846 3.582m6.501-8.101h1.282v1.15c.493-.936 1.479-1.38 2.563-1.38 2.054 0 3.04 1.397 3.04 3.139V255h-1.314v-4.7c0-1.133-.51-2.169-2.038-2.169-1.249 0-2.218.937-2.218 2.449V255h-1.315zm16.393 0v1.2h-3.007v4.19c0 .92.575 1.364 1.43 1.364.542 0 1.248-.099 1.577-.214v1.2c-.362.131-.92.262-1.725.262-1.627 0-2.597-.805-2.597-2.366v-4.436h-2.53v-1.2h1.298c.953 0 1.315-.493 1.315-1.364v-1.413h1.232v2.777zm3.313 6.688h3.023v-5.505h-2.678v-1.183h3.993v6.688h3.023V255h-7.361zm2.382-9.449c0-.69.543-1.232 1.249-1.232.674 0 1.216.542 1.216 1.232 0 .691-.542 1.249-1.216 1.249a1.24 1.24 0 0 1-1.249-1.249m7.142 9.449h3.024v-9.514h-2.597v-1.183h3.911v10.697h3.024V255h-7.362zm11.496-4.026c0-3.714 1.725-6.162 3.681-7.739l.756.788c-1.972 1.693-3.254 3.862-3.254 6.951s1.282 5.258 3.254 6.951l-.756.789c-1.956-1.578-3.681-4.026-3.681-7.74m12.597-5.833c-.969.18-1.709 1.002-1.742 1.824.05-.033.214-.083.411-.083.575 0 1.035.395 1.035 1.069 0 .591-.476 1.084-1.15 1.084s-1.265-.526-1.265-1.528c0-1.988 1.61-3.057 2.711-3.221zm2.958 0c-.97.18-1.709 1.002-1.742 1.824.049-.033.214-.083.411-.083.575 0 1.035.395 1.035 1.069 0 .591-.476 1.084-1.15 1.084s-1.265-.526-1.265-1.528c0-1.988 1.61-3.057 2.711-3.221zm8.127 9.974c-.378.805-1.347 1.298-2.432 1.298-2.004 0-3.023-1.347-3.023-3.155v-4.946h1.314v4.732c0 1.134.543 2.17 2.005 2.17 1.331 0 2.071-.97 2.071-2.202v-4.7h1.314v6.228c0 .608.066 1.331.115 1.643h-1.265c-.066-.23-.099-.674-.099-1.068m4.562-6.803h1.282v1.15c.493-.936 1.479-1.38 2.563-1.38 2.054 0 3.04 1.397 3.04 3.139V255h-1.314v-4.7c0-1.133-.51-2.169-2.038-2.169-1.249 0-2.218.937-2.218 2.449V255h-1.315zm16.393 0v1.2h-3.007v4.19c0 .92.575 1.364 1.429 1.364.543 0 1.249-.099 1.578-.214v1.2c-.362.131-.92.262-1.726.262-1.626 0-2.596-.805-2.596-2.366v-4.436h-2.53v-1.2h1.298c.953 0 1.314-.493 1.314-1.364v-1.413h1.233v2.777zm3.313 6.688h3.023v-5.505h-2.678v-1.183h3.993v6.688h3.023V255h-7.361zm2.382-9.449c0-.69.543-1.232 1.249-1.232.674 0 1.216.542 1.216 1.232 0 .691-.542 1.249-1.216 1.249a1.24 1.24 0 0 1-1.249-1.249m7.142 9.449h3.023v-9.514h-2.596v-1.183h3.911v10.697h3.023V255h-7.361zm13.846-6.721c.969-.181 1.709-1.002 1.742-1.824-.05.033-.214.082-.411.082-.575 0-1.036-.394-1.036-1.068 0-.591.477-1.084 1.151-1.084.673 0 1.265.526 1.265 1.528 0 1.988-1.61 3.056-2.711 3.221zm-2.958 0c.969-.181 1.709-1.002 1.742-1.824-.05.033-.214.082-.411.082-.575 0-1.035-.394-1.035-1.068 0-.591.476-1.084 1.15-1.084s1.265.526 1.265 1.528c0 1.988-1.61 3.056-2.711 3.221zm11.019 6.704c0-.739.559-1.314 1.381-1.314.805 0 1.511.608 1.511 1.807 0 2.515-1.791 3.665-3.335 3.878v-.936c1.331-.247 2.185-1.233 2.185-2.268a1.2 1.2 0 0 1-.493.115c-.706 0-1.249-.509-1.249-1.282m23.436-.098c-.378.821-1.249 1.528-2.695 1.528-2.234 0-3.664-1.84-3.664-4.174 0-2.284 1.512-4.157 3.73-4.157 1.495 0 2.301.707 2.596 1.413v-5.192h1.315v10.401c0 .789.049 1.315.082 1.479h-1.282a7 7 0 0 1-.082-1.134zm-2.497.329c1.544 0 2.497-1.249 2.497-2.975s-.936-2.957-2.497-2.957c-1.512 0-2.531 1.232-2.531 2.957 0 1.726 1.035 2.975 2.531 2.975m6.615-1.151c0-1.38 1.035-2.103 2.432-2.3l2.268-.329c.591-.082.706-.345.706-.706 0-.838-.624-1.463-1.889-1.463-1.233 0-2.021.69-2.12 1.594l-1.249-.263c.164-1.462 1.561-2.514 3.336-2.514 2.267 0 3.221 1.249 3.221 2.777v3.845c0 .657.098 1.233.164 1.479h-1.282c-.049-.148-.148-.674-.148-1.183-.246.641-1.183 1.413-2.662 1.413-1.807 0-2.777-1.167-2.777-2.35m2.974 1.151c1.282 0 2.432-.74 2.432-2.317v-.559l-2.711.394c-.789.115-1.38.526-1.38 1.233 0 .673.493 1.249 1.659 1.249m13.551-6.902v1.2h-3.008v4.19c0 .92.576 1.364 1.43 1.364.542 0 1.249-.099 1.578-.214v1.2c-.362.131-.921.262-1.726.262-1.627 0-2.596-.805-2.596-2.366v-4.436h-2.531v-1.2h1.298c.954 0 1.315-.493 1.315-1.364v-1.413h1.232v2.777zm6.78 8.101c-2.054 0-3.911-1.495-3.911-4.19 0-2.531 1.84-4.141 3.779-4.141 2.333 0 3.747 1.61 3.747 3.977 0 .164-.017.345-.033.46h-6.146v.115c0 1.479 1.2 2.563 2.564 2.563 1.331 0 2.086-.739 2.399-1.66l1.133.411c-.443 1.364-1.709 2.465-3.532 2.465m2.251-5.012c-.066-1.166-.92-2.152-2.367-2.152-1.314 0-2.333 1.018-2.415 2.152zm9.524-.427c0 3.714-1.725 6.162-3.681 7.74l-.756-.789c1.972-1.693 3.254-3.862 3.254-6.951s-1.282-5.258-3.254-6.951l.756-.788c1.956 1.577 3.681 4.025 3.681 7.739"/><path fill="#fefefe" d="M28.544 28.201c-1.942 0-2.92-1.25-3.106-2.027l1.05-.431c.2.719.934 1.423 2.084 1.423.92 0 1.452-.431 1.452-.992 0-.503-.33-.805-1.092-.963l-1.337-.273c-1.294-.26-1.87-1.007-1.87-1.898 0-1.165 1.079-2.128 2.603-2.128 1.538 0 2.53.79 2.847 1.883l-.978.388c-.23-.661-.82-1.265-1.87-1.265-.876 0-1.466.417-1.466 1.035 0 .446.273.791.964.92l1.308.26c1.366.273 2.042.948 2.042 1.983 0 .964-.806 2.085-2.631 2.085m11.18-7.088v1.05h-2.631v3.666c0 .805.503 1.193 1.25 1.193.475 0 1.093-.086 1.381-.187v1.05c-.316.115-.805.23-1.51.23-1.423 0-2.271-.704-2.271-2.07v-3.883h-2.215v-1.05h1.136c.834 0 1.15-.43 1.15-1.192v-1.237h1.079v2.43zm5.933 7.088c-1.798 0-3.422-1.308-3.422-3.666 0-2.214 1.61-3.623 3.307-3.623 2.041 0 3.278 1.409 3.278 3.48 0 .143-.015.301-.029.402h-5.377v.1a2.236 2.236 0 0 0 2.242 2.243c1.165 0 1.827-.647 2.1-1.452l.992.36c-.388 1.193-1.495 2.156-3.091 2.156m1.97-4.385c-.058-1.02-.806-1.883-2.071-1.883-1.15 0-2.042.89-2.114 1.883zm3.444-2.703h1.122v1.15c.316-.704 1.093-1.351 2.387-1.351 2.056 0 3.192 1.61 3.192 3.637 0 2.056-1.237 3.652-3.25 3.652-1.222 0-1.984-.546-2.3-1.164v3.695h-1.15zm3.307 6.053c1.338 0 2.229-1.093 2.229-2.617s-.891-2.602-2.229-2.602c-1.322 0-2.185 1.078-2.185 2.602s.877 2.617 2.185 2.617m7.227-.259c0-.675.532-1.193 1.179-1.193.661 0 1.193.518 1.193 1.193 0 .676-.532 1.18-1.193 1.18a1.166 1.166 0 0 1-1.179-1.18m10.045 1.294c-1.941 0-2.92-1.25-3.106-2.027l1.05-.431c.2.719.934 1.423 2.084 1.423.92 0 1.453-.431 1.453-.992 0-.503-.331-.805-1.093-.963l-1.337-.273c-1.294-.26-1.87-1.007-1.87-1.898 0-1.165 1.079-2.128 2.603-2.128 1.538 0 2.53.79 2.847 1.883l-.978.388c-.23-.661-.82-1.265-1.869-1.265-.877 0-1.467.417-1.467 1.035 0 .446.274.791.964.92l1.308.26c1.366.273 2.042.948 2.042 1.983 0 .964-.805 2.085-2.631 2.085m5.17-1.236h2.646V18.64h-2.272v-1.035h3.422v9.36h2.645V28h-6.44zM88.763 28.2c-1.798 0-3.422-1.308-3.422-3.666 0-2.214 1.61-3.623 3.307-3.623 2.041 0 3.278 1.409 3.278 3.48 0 .143-.014.301-.029.402H86.52v.1a2.236 2.236 0 0 0 2.243 2.243c1.164 0 1.826-.647 2.099-1.452l.992.36c-.388 1.193-1.495 2.156-3.091 2.156m1.97-4.385c-.058-1.02-.806-1.883-2.071-1.883-1.15 0-2.042.89-2.114 1.883zm6.65 4.385c-1.796 0-3.421-1.308-3.421-3.666 0-2.214 1.61-3.623 3.307-3.623 2.042 0 3.278 1.409 3.278 3.48 0 .143-.014.301-.029.402h-5.377v.1a2.236 2.236 0 0 0 2.243 2.243c1.165 0 1.826-.647 2.1-1.452l.991.36c-.388 1.193-1.495 2.156-3.091 2.156m1.97-4.385c-.057-1.02-.804-1.883-2.07-1.883-1.15 0-2.041.89-2.113 1.883zm3.446-2.703h1.121v1.15c.317-.704 1.093-1.351 2.387-1.351 2.056 0 3.192 1.61 3.192 3.637 0 2.056-1.236 3.652-3.249 3.652-1.223 0-1.985-.546-2.301-1.164v3.695h-1.15zm3.307 6.053c1.337 0 2.228-1.093 2.228-2.617s-.891-2.602-2.228-2.602c-1.323 0-2.186 1.078-2.186 2.602s.877 2.617 2.186 2.617"/><path stroke="#fff" d="M.5.5H577v290H.5zM0 47h577.5"/></svg>