<svg xmlns="http://www.w3.org/2000/svg" width="578" height="317" fill="none" viewBox="0 0 578 317"><path fill="#b392f0" d="M29.176 80.23c-2.152 0-3.993-1.627-3.993-4.174 0-2.58 1.906-4.157 3.977-4.157 2.136 0 3.286 1.232 3.615 2.498l-1.2.493c-.213-.822-.936-1.759-2.415-1.759-1.299 0-2.646.986-2.646 2.925 0 1.923 1.348 2.942 2.662 2.942 1.578 0 2.218-1.068 2.449-1.775l1.15.493c-.378 1.167-1.528 2.514-3.599 2.514m9.607 0c-2.268 0-3.944-1.742-3.944-4.174 0-2.415 1.676-4.157 3.944-4.157s3.943 1.742 3.943 4.157c0 2.432-1.676 4.174-3.943 4.174m0-1.2c1.413 0 2.612-1.068 2.612-2.974 0-1.89-1.2-2.957-2.613-2.957s-2.612 1.068-2.612 2.957c0 1.906 1.2 2.975 2.612 2.975m6.5-6.901h1.282v1.15c.493-.936 1.479-1.38 2.563-1.38 2.054 0 3.04 1.397 3.04 3.138V80h-1.314v-4.7c0-1.133-.51-2.169-2.038-2.169-1.249 0-2.218.937-2.218 2.449V80h-1.315zm13.468 8.101c-2.218 0-3.336-1.43-3.55-2.317l1.2-.493c.23.822 1.068 1.627 2.383 1.627 1.052 0 1.66-.493 1.66-1.134 0-.575-.378-.92-1.25-1.1l-1.528-.313c-1.478-.296-2.136-1.15-2.136-2.17 0-1.33 1.233-2.431 2.975-2.431 1.758 0 2.892.904 3.253 2.153l-1.117.443c-.263-.756-.937-1.446-2.136-1.446-1.003 0-1.677.477-1.677 1.183 0 .51.313.904 1.101 1.052l1.496.296c1.56.312 2.333 1.084 2.333 2.267 0 1.101-.92 2.383-3.007 2.383m12.778-8.101v1.2h-3.007v4.19c0 .92.575 1.364 1.43 1.364.542 0 1.248-.099 1.577-.214v1.2c-.362.131-.92.263-1.726.263-1.626 0-2.596-.806-2.596-2.367V73.33h-2.53v-1.2h1.298c.953 0 1.314-.493 1.314-1.364v-1.413h1.233v2.777zm121.415 5.751c0-1.38 1.035-2.103 2.432-2.3l2.268-.329c.591-.082.706-.345.706-.707 0-.837-.624-1.462-1.889-1.462-1.233 0-2.021.69-2.12 1.594l-1.249-.263c.164-1.462 1.561-2.514 3.336-2.514 2.267 0 3.221 1.249 3.221 2.777v3.845c0 .657.098 1.233.164 1.479h-1.282c-.049-.148-.148-.674-.148-1.183-.246.64-1.183 1.413-2.662 1.413-1.807 0-2.777-1.167-2.777-2.35m2.974 1.15c1.282 0 2.432-.739 2.432-2.316v-.56l-2.711.395c-.789.115-1.38.526-1.38 1.233 0 .673.493 1.249 1.659 1.249m9.656-6.819h1.479l1.512 6.228 1.068-6.31h1.249L209.436 80h-1.578l-1.577-6.392L204.769 80h-1.561l-1.528-7.871h1.281l1.118 6.31zm7.076 5.67c0-1.381 1.035-2.104 2.432-2.301l2.267-.329c.592-.082.707-.345.707-.707 0-.837-.624-1.462-1.89-1.462-1.232 0-2.021.69-2.119 1.594l-1.249-.263c.164-1.462 1.561-2.514 3.335-2.514 2.268 0 3.221 1.249 3.221 2.777v3.845c0 .657.099 1.233.164 1.479h-1.281c-.05-.148-.148-.674-.148-1.183-.247.64-1.183 1.413-2.662 1.413-1.808 0-2.777-1.167-2.777-2.35m2.974 1.15c1.282 0 2.432-.74 2.432-2.317v-.56l-2.711.395c-.789.115-1.381.526-1.381 1.233 0 .673.493 1.249 1.66 1.249m7.01-.214h3.024v-5.505h-2.679V72.13h3.993v6.688h3.024V80h-7.362zm2.383-9.449c0-.69.542-1.232 1.249-1.232.673 0 1.216.542 1.216 1.232s-.543 1.25-1.216 1.25a1.24 1.24 0 0 1-1.249-1.25m14.01 2.761v1.2h-3.007v4.19c0 .92.575 1.364 1.43 1.364.542 0 1.248-.099 1.577-.214v1.2c-.362.131-.92.263-1.725.263-1.627 0-2.597-.806-2.597-2.367V73.33h-2.53v-1.2h1.298c.953 0 1.315-.493 1.315-1.364v-1.413h1.232v2.777z"/><path fill="#fff" d="M172.976 73.131h7.493v1.101h-7.493zm0 3.172h7.493v1.117h-7.493zm248.029-1.512c0-3.714 1.726-6.162 3.681-7.74l.756.79c-1.972 1.692-3.253 3.86-3.253 6.95s1.281 5.258 3.253 6.95l-.756.79c-1.955-1.578-3.681-4.026-3.681-7.74M234.36 103.8c0-.739.559-1.314 1.381-1.314.805 0 1.511.608 1.511 1.807 0 2.515-1.791 3.665-3.335 3.878v-.936c1.331-.247 2.185-1.233 2.185-2.268a1.2 1.2 0 0 1-.493.115c-.706 0-1.249-.509-1.249-1.282M50.788 132.399c-1.693 0-2.613-.904-2.613-2.695v-2.087c0-1.331-.756-1.972-1.939-2.021v-1.643c1.183-.049 1.94-.707 1.94-2.021v-2.087c0-1.791.92-2.695 2.612-2.695h.805v1.068h-.64c-1.184 0-1.628.542-1.628 1.726v2.267c0 1.348-.755 2.416-2.284 2.564 1.529.131 2.284 1.216 2.284 2.563v2.268c0 1.183.477 1.725 1.627 1.725h.641v1.068zM342.74 153.8c0-.739.559-1.314 1.381-1.314.805 0 1.511.608 1.511 1.807 0 2.515-1.791 3.665-3.335 3.878v-.936c1.331-.247 2.185-1.233 2.185-2.268a1.2 1.2 0 0 1-.493.115c-.706 0-1.249-.509-1.249-1.282m-59.117 25c0-.739.559-1.314 1.381-1.314.805 0 1.511.608 1.511 1.807 0 2.515-1.791 3.665-3.335 3.878v-.936c1.331-.247 2.185-1.233 2.185-2.268a1.2 1.2 0 0 1-.493.115c-.706 0-1.249-.509-1.249-1.282m-237.14 53.599h-.805v-1.068h.64c1.15 0 1.627-.542 1.627-1.725v-2.268c0-1.347.756-2.432 2.284-2.563-1.528-.148-2.284-1.216-2.284-2.564v-2.267c0-1.184-.444-1.726-1.627-1.726h-.64v-1.068h.805c1.692 0 2.612.904 2.612 2.695v2.087c0 1.314.756 1.972 1.94 2.021v1.643c-1.184.049-1.94.69-1.94 2.021v2.087c0 1.791-.92 2.695-2.612 2.695m-15.516 17.392c0 3.714-1.725 6.162-3.68 7.74l-.756-.789c1.971-1.693 3.253-3.862 3.253-6.951s-1.282-5.258-3.253-6.951l.755-.788c1.956 1.577 3.681 4.025 3.681 7.739"/><path fill="#52b2fd" d="M84.563 77.88c0-1.38 1.035-2.103 2.432-2.3l2.268-.329c.591-.082.706-.345.706-.707 0-.837-.624-1.462-1.89-1.462-1.232 0-2.02.69-2.12 1.594l-1.248-.263c.164-1.462 1.561-2.514 3.336-2.514 2.267 0 3.22 1.249 3.22 2.777v3.845c0 .657.099 1.233.165 1.479H90.15c-.05-.148-.148-.674-.148-1.183-.246.64-1.183 1.413-2.662 1.413-1.808 0-2.777-1.167-2.777-2.35m2.974 1.15c1.282 0 2.432-.739 2.432-2.316v-.56l-2.711.395c-.789.115-1.38.526-1.38 1.233 0 .673.493 1.249 1.66 1.249m6.813-6.901h1.282v1.315c.361-.806 1.249-1.545 2.728-1.545 2.349 0 3.647 1.84 3.647 4.157 0 2.35-1.413 4.174-3.713 4.174-1.397 0-2.268-.624-2.63-1.33v4.222H94.35zm3.78 6.918c1.528 0 2.546-1.249 2.546-2.99 0-1.743-1.018-2.975-2.547-2.975-1.511 0-2.497 1.233-2.497 2.974s1.002 2.99 2.497 2.99m6.073-6.918h1.282v1.315c.361-.806 1.249-1.545 2.727-1.545 2.35 0 3.648 1.84 3.648 4.157 0 2.35-1.413 4.174-3.713 4.174-1.397 0-2.268-.624-2.629-1.33v4.222h-1.315zm3.779 6.918c1.529 0 2.547-1.249 2.547-2.99 0-1.743-1.018-2.975-2.547-2.975-1.511 0-2.497 1.233-2.497 2.974s1.002 2.99 2.497 2.99m13.337-5.472c-.214-.066-.542-.148-1.101-.148-1.627 0-2.498.92-2.498 2.728v2.678h2.481V80h-6.129v-1.167h2.334v-5.537h-2.087v-1.167h3.368v1.545c.46-1.216 1.611-1.66 2.547-1.66.575 0 .888.082 1.085.148zm6.139 6.655c-2.268 0-3.944-1.742-3.944-4.174 0-2.415 1.676-4.157 3.944-4.157s3.944 1.742 3.944 4.157c0 2.432-1.676 4.174-3.944 4.174m0-1.2c1.413 0 2.613-1.068 2.613-2.974 0-1.89-1.2-2.957-2.613-2.957s-2.613 1.068-2.613 2.957c0 1.906 1.2 2.975 2.613 2.975m9.097.97-3.385-7.871h1.479l2.678 6.573 2.695-6.573h1.43L138.083 80zm7.125-2.12c0-1.38 1.035-2.103 2.432-2.3l2.268-.329c.591-.082.706-.345.706-.707 0-.837-.624-1.462-1.889-1.462-1.233 0-2.022.69-2.12 1.594l-1.249-.263c.164-1.462 1.561-2.514 3.336-2.514 2.267 0 3.22 1.249 3.22 2.777v3.845c0 .657.099 1.233.165 1.479h-1.282c-.049-.148-.148-.674-.148-1.183-.246.64-1.183 1.413-2.662 1.413-1.807 0-2.777-1.167-2.777-2.35m2.974 1.15c1.282 0 2.432-.739 2.432-2.316v-.56l-2.711.395c-.789.115-1.38.526-1.38 1.233 0 .673.493 1.249 1.659 1.249m6.682-.213h3.023v-9.514h-2.596V68.12h3.911v10.697h3.023V80h-7.361zm102.472 1.413c-2.219 0-3.336-1.43-3.55-2.317l1.2-.493c.23.822 1.068 1.627 2.383 1.627 1.051 0 1.659-.493 1.659-1.134 0-.575-.378-.92-1.249-1.1l-1.528-.313c-1.479-.296-2.136-1.15-2.136-2.17 0-1.33 1.232-2.431 2.974-2.431 1.758 0 2.892.904 3.254 2.153l-1.118.443c-.262-.756-.936-1.446-2.136-1.446-1.002 0-1.676.477-1.676 1.183 0 .51.312.904 1.101 1.052l1.495.296c1.562.312 2.334 1.084 2.334 2.267 0 1.101-.92 2.383-3.007 2.383m12.777-8.101v1.2h-3.007v4.19c0 .92.576 1.364 1.43 1.364.542 0 1.249-.099 1.577-.214v1.2c-.361.131-.92.263-1.725.263-1.627 0-2.596-.806-2.596-2.367V73.33h-2.531v-1.2h1.298c.954 0 1.315-.493 1.315-1.364v-1.413h1.232v2.777zm6.781 8.101c-2.054 0-3.911-1.495-3.911-4.19 0-2.53 1.84-4.141 3.779-4.141 2.333 0 3.747 1.61 3.747 3.977 0 .164-.017.345-.033.46h-6.146v.115c0 1.479 1.2 2.563 2.564 2.563 1.331 0 2.086-.74 2.399-1.66l1.133.411c-.443 1.364-1.709 2.465-3.532 2.465m2.251-5.012c-.066-1.166-.92-2.152-2.367-2.152-1.314 0-2.333 1.018-2.415 2.152zm3.937-3.089h1.282v1.315c.361-.806 1.249-1.545 2.727-1.545 2.35 0 3.648 1.84 3.648 4.157 0 2.35-1.413 4.174-3.713 4.174-1.397 0-2.268-.624-2.629-1.33v4.222h-1.315zm3.779 6.918c1.529 0 2.547-1.249 2.547-2.99 0-1.743-1.018-2.975-2.547-2.975-1.511 0-2.497 1.233-2.497 2.974s1.002 2.99 2.497 2.99m8.259-.296c0-.772.608-1.364 1.348-1.364a1.35 1.35 0 0 1 1.364 1.364c0 .772-.608 1.348-1.364 1.348-.74 0-1.348-.576-1.348-1.348M58.603 155.23c-2.054 0-3.91-1.495-3.91-4.19 0-2.531 1.84-4.141 3.779-4.141 2.333 0 3.746 1.61 3.746 3.977 0 .164-.016.345-.033.46H56.04v.115c0 1.479 1.2 2.563 2.563 2.563 1.331 0 2.087-.739 2.4-1.66l1.133.411c-.444 1.364-1.709 2.465-3.533 2.465m2.251-5.012c-.065-1.166-.92-2.152-2.366-2.152-1.314 0-2.333 1.018-2.415 2.152zM67.585 155l-3.385-7.871h1.479l2.678 6.573 2.695-6.573h1.43L69.113 155zm10.724.23c-2.054 0-3.911-1.495-3.911-4.19 0-2.531 1.84-4.141 3.78-4.141 2.333 0 3.746 1.61 3.746 3.977 0 .164-.017.345-.033.46h-6.146v.115c0 1.479 1.2 2.563 2.564 2.563 1.33 0 2.087-.739 2.399-1.66l1.134.411c-.444 1.364-1.71 2.465-3.533 2.465m2.251-5.012c-.066-1.166-.92-2.152-2.366-2.152-1.315 0-2.334 1.018-2.416 2.152zm4.135-3.089h1.281v1.15c.493-.936 1.48-1.38 2.564-1.38 2.054 0 3.04 1.397 3.04 3.139V155h-1.315v-4.7c0-1.133-.51-2.169-2.038-2.169-1.249 0-2.218.937-2.218 2.449V155h-1.314zm16.392 0v1.2H98.08v4.19c0 .92.575 1.364 1.43 1.364.542 0 1.249-.099 1.577-.214v1.2c-.361.131-.92.262-1.725.262-1.627 0-2.596-.805-2.596-2.366v-4.436h-2.53v-1.2h1.297c.953 0 1.315-.493 1.315-1.364v-1.413h1.232v2.777zm5.186 6.622c0-.772.608-1.364 1.348-1.364a1.35 1.35 0 0 1 1.364 1.364c0 .772-.608 1.348-1.364 1.348-.74 0-1.348-.576-1.348-1.348m0-5.521c0-.772.608-1.364 1.348-1.364a1.35 1.35 0 0 1 1.364 1.364c0 .772-.608 1.347-1.364 1.347-.74 0-1.348-.575-1.348-1.347m-50.628 24.852c.28-.756.888-1.101 1.627-1.101.74 0 1.38.395 1.545 1.265.296-.788.936-1.265 1.873-1.265 1.002 0 1.972.477 1.972 2.35V180h-1.233v-5.472c0-1.035-.41-1.364-1.068-1.364-.657 0-1.2.46-1.2 1.594V180h-1.215v-5.423c0-1.018-.395-1.413-1.052-1.413-.673 0-1.216.411-1.216 1.611V180h-1.232v-7.871h1.2zm9.212 4.798c0-1.38 1.036-2.103 2.432-2.3l2.268-.329c.591-.082.706-.345.706-.706 0-.838-.624-1.463-1.89-1.463-1.232 0-2.02.69-2.119 1.594l-1.249-.263c.165-1.462 1.561-2.514 3.336-2.514 2.268 0 3.22 1.249 3.22 2.777v3.845c0 .657.1 1.233.165 1.479h-1.282c-.049-.148-.148-.674-.148-1.183-.246.641-1.183 1.413-2.662 1.413-1.807 0-2.777-1.167-2.777-2.35m2.975 1.151c1.281 0 2.432-.74 2.432-2.317v-.559l-2.712.394c-.789.115-1.38.526-1.38 1.233 0 .673.493 1.249 1.66 1.249m13.55-6.902v1.2h-3.007v4.19c0 .92.575 1.364 1.43 1.364.541 0 1.248-.099 1.577-.214v1.2c-.362.131-.92.262-1.726.262-1.627 0-2.596-.805-2.596-2.366v-4.436h-2.53v-1.2h1.298c.953 0 1.314-.493 1.314-1.364v-1.413h1.233v2.777zm6.911 8.101c-2.153 0-3.993-1.627-3.993-4.174 0-2.58 1.906-4.157 3.977-4.157 2.136 0 3.286 1.232 3.615 2.498l-1.2.493c-.213-.822-.936-1.759-2.415-1.759-1.299 0-2.646.986-2.646 2.925 0 1.923 1.347 2.942 2.662 2.942 1.578 0 2.218-1.068 2.448-1.775l1.15.493c-.377 1.167-1.527 2.514-3.598 2.514m6.254-12.11h1.315v5.11c.51-.92 1.495-1.331 2.596-1.331 2.005 0 2.974 1.462 2.974 3.221V180h-1.314v-4.65c0-1.167-.493-2.219-2.021-2.219-1.266 0-2.235.937-2.235 2.482V180h-1.315zm11.726 10.631c0-.772.608-1.364 1.348-1.364a1.35 1.35 0 0 1 1.364 1.364c0 .772-.608 1.348-1.364 1.348-.74 0-1.348-.576-1.348-1.348m0-5.521c0-.772.608-1.364 1.348-1.364a1.35 1.35 0 0 1 1.364 1.364c0 .772-.608 1.347-1.364 1.347-.74 0-1.348-.575-1.348-1.347m-44.597 23.899v1.2h-3.007v4.19c0 .92.575 1.364 1.43 1.364.542 0 1.248-.099 1.577-.214v1.2c-.361.131-.92.262-1.725.262-1.627 0-2.597-.805-2.597-2.366v-4.436h-2.53v-1.2h1.298c.953 0 1.315-.493 1.315-1.364v-1.413h1.232v2.777zm3.313 6.688h3.023v-5.505h-2.678v-1.183h3.993v6.688h3.023V205h-7.36zm2.382-9.449c0-.69.543-1.232 1.25-1.232.673 0 1.215.542 1.215 1.232 0 .691-.542 1.249-1.216 1.249a1.237 1.237 0 0 1-1.249-1.249m7.98 3.714c.28-.756.887-1.101 1.627-1.101s1.38.395 1.544 1.265c.296-.788.937-1.265 1.874-1.265 1.002 0 1.972.477 1.972 2.35V205h-1.233v-5.472c0-1.035-.41-1.364-1.068-1.364-.657 0-1.2.46-1.2 1.594V205h-1.216v-5.423c0-1.018-.394-1.413-1.051-1.413-.674 0-1.216.411-1.216 1.611V205H74.15v-7.871h1.2zm12.81 7.148c-2.053 0-3.91-1.495-3.91-4.19 0-2.531 1.84-4.141 3.78-4.141 2.333 0 3.746 1.61 3.746 3.977 0 .164-.017.345-.033.46h-6.146v.115c0 1.479 1.2 2.563 2.564 2.563 1.33 0 2.087-.739 2.399-1.66l1.134.411c-.444 1.364-1.71 2.465-3.533 2.465m2.252-5.012c-.066-1.166-.92-2.152-2.366-2.152-1.315 0-2.334 1.018-2.416 2.152zm7.487 5.012c-2.268 0-3.944-1.742-3.944-4.174 0-2.415 1.676-4.157 3.944-4.157s3.943 1.742 3.943 4.157c0 2.432-1.676 4.174-3.943 4.174m0-1.199c1.413 0 2.612-1.069 2.612-2.975 0-1.889-1.2-2.957-2.612-2.957-1.414 0-2.613 1.068-2.613 2.957 0 1.906 1.2 2.975 2.612 2.975m11.791-.099c-.378.805-1.347 1.298-2.432 1.298-2.004 0-3.023-1.347-3.023-3.155v-4.946h1.314v4.732c0 1.134.543 2.17 2.005 2.17 1.331 0 2.071-.97 2.071-2.202v-4.7h1.314v6.228c0 .608.066 1.331.115 1.643h-1.265c-.066-.23-.099-.674-.099-1.068m11.102-6.803v1.2h-3.007v4.19c0 .92.575 1.364 1.429 1.364.543 0 1.249-.099 1.578-.214v1.2c-.362.131-.92.262-1.725.262-1.627 0-2.597-.805-2.597-2.366v-4.436h-2.53v-1.2h1.298c.953 0 1.314-.493 1.314-1.364v-1.413h1.233v2.777zm5.186 6.622c0-.772.608-1.364 1.348-1.364a1.35 1.35 0 0 1 1.363 1.364c0 .772-.608 1.348-1.363 1.348-.74 0-1.348-.576-1.348-1.348m0-5.521c0-.772.608-1.364 1.348-1.364a1.35 1.35 0 0 1 1.363 1.364c0 .772-.608 1.347-1.363 1.347-.74 0-1.348-.575-1.348-1.347"/><path fill="#ce9178" d="M304.102 72.211h1.479l1.512 6.228 1.068-6.31h1.249L307.964 80h-1.578l-1.577-6.392L303.297 80h-1.561l-1.528-7.871h1.282l1.117 6.31zm7.076 5.67c0-1.381 1.035-2.104 2.432-2.301l2.268-.329c.591-.082.706-.345.706-.707 0-.837-.624-1.462-1.889-1.462-1.233 0-2.021.69-2.12 1.594l-1.249-.263c.164-1.462 1.561-2.514 3.336-2.514 2.267 0 3.221 1.249 3.221 2.777v3.845c0 .657.098 1.233.164 1.479h-1.282c-.049-.148-.148-.674-.148-1.183-.246.64-1.183 1.413-2.662 1.413-1.807 0-2.777-1.167-2.777-2.35m2.974 1.15c1.282 0 2.432-.74 2.432-2.317v-.56l-2.711.395c-.789.115-1.38.526-1.38 1.233 0 .673.493 1.249 1.659 1.249m7.011-.214h3.023v-5.505h-2.678V72.13h3.993v6.688h3.023V80h-7.361zm2.382-9.449c0-.69.542-1.232 1.249-1.232.674 0 1.216.542 1.216 1.232s-.542 1.25-1.216 1.25a1.24 1.24 0 0 1-1.249-1.25m14.01 2.761v1.2h-3.007v4.19c0 .92.575 1.364 1.43 1.364.542 0 1.249-.099 1.577-.214v1.2c-.361.131-.92.263-1.725.263-1.627 0-2.596-.806-2.596-2.367V73.33h-2.531v-1.2h1.298c.953 0 1.315-.493 1.315-1.364v-1.413h1.232v2.777zm3.362-3.78h7.148v1.282h-5.784v4.06h5.357v1.28h-5.357V80h-1.364zm13.156 11.881c-2.267 0-3.944-1.742-3.944-4.174 0-2.415 1.677-4.157 3.944-4.157s3.944 1.742 3.944 4.157c0 2.432-1.676 4.174-3.944 4.174m0-1.2c1.413 0 2.613-1.068 2.613-2.974 0-1.89-1.2-2.957-2.613-2.957s-2.613 1.068-2.613 2.957c0 1.906 1.2 2.975 2.613 2.975m13.567-5.455c-.214-.066-.543-.148-1.101-.148-1.627 0-2.498.92-2.498 2.728v2.678h2.481V80h-6.129v-1.167h2.333v-5.537h-2.086v-1.167h3.368v1.545c.46-1.216 1.611-1.66 2.547-1.66.575 0 .887.082 1.085.148zm3.017-5.225h6.803v1.281h-5.439v3.911h5.077v1.282h-5.077v3.894h5.439V80h-6.803zM382.876 80l-3.385-7.871h1.479l2.678 6.573 2.695-6.573h1.43L384.404 80zm10.724.23c-2.054 0-3.911-1.495-3.911-4.19 0-2.53 1.84-4.141 3.779-4.141 2.333 0 3.747 1.61 3.747 3.977 0 .164-.017.345-.033.46h-6.146v.115c0 1.479 1.2 2.563 2.564 2.563 1.331 0 2.086-.74 2.399-1.66l1.133.411c-.443 1.364-1.709 2.465-3.532 2.465m2.251-5.012c-.066-1.166-.92-2.152-2.367-2.152-1.314 0-2.333 1.018-2.415 2.152zm4.134-3.089h1.282v1.15c.493-.936 1.479-1.38 2.563-1.38 2.054 0 3.04 1.397 3.04 3.138V80h-1.314v-4.7c0-1.133-.51-2.169-2.038-2.169-1.249 0-2.218.937-2.218 2.449V80h-1.315zm16.393 0v1.2h-3.007v4.19c0 .92.575 1.364 1.43 1.364.542 0 1.248-.099 1.577-.214v1.2c-.361.131-.92.263-1.725.263-1.627 0-2.597-.806-2.597-2.367V73.33h-2.53v-1.2h1.298c.953 0 1.315-.493 1.315-1.364v-1.413h1.232v2.777z"/><path fill="#66bd8b" d="M49.342 93.958c-.97.18-1.71 1.002-1.742 1.824.05-.033.214-.083.41-.083.576 0 1.036.395 1.036 1.069 0 .591-.476 1.084-1.15 1.084s-1.265-.526-1.265-1.528c0-1.988 1.61-3.056 2.71-3.22zm2.958 0c-.97.18-1.71 1.002-1.742 1.824.05-.033.214-.083.41-.083.576 0 1.036.395 1.036 1.069 0 .591-.477 1.084-1.15 1.084-.674 0-1.266-.526-1.266-1.528 0-1.988 1.61-3.056 2.712-3.22zm5.482 3.253h1.478l1.512 6.228 1.068-6.31h1.25L61.642 105h-1.577l-1.578-6.392L56.976 105h-1.56l-1.529-7.871h1.282l1.117 6.31zm7.075 5.669c0-1.38 1.036-2.103 2.432-2.3l2.268-.329c.591-.082.706-.345.706-.707 0-.837-.624-1.462-1.89-1.462-1.232 0-2.02.69-2.119 1.594l-1.249-.263c.165-1.462 1.561-2.514 3.336-2.514 2.268 0 3.22 1.249 3.22 2.777v3.845c0 .657.1 1.233.165 1.479h-1.282c-.049-.148-.148-.674-.148-1.183-.246.641-1.183 1.413-2.662 1.413-1.807 0-2.777-1.167-2.777-2.35m2.975 1.151c1.281 0 2.432-.74 2.432-2.317v-.559l-2.712.394c-.789.115-1.38.526-1.38 1.233 0 .673.493 1.249 1.66 1.249m7.01-.214h3.023v-5.505h-2.678V97.13h3.993v6.688h3.023V105h-7.361zm2.382-9.449c0-.69.543-1.232 1.25-1.232.673 0 1.215.542 1.215 1.232s-.542 1.25-1.216 1.25a1.24 1.24 0 0 1-1.249-1.25m14.01 2.761v1.2h-3.007v4.19c0 .92.575 1.364 1.43 1.364.542 0 1.249-.099 1.578-.214v1.2c-.362.131-.92.262-1.726.262-1.627 0-2.596-.805-2.596-2.366v-4.436h-2.53v-1.2h1.297c.953 0 1.315-.493 1.315-1.364v-1.413h1.232v2.777zm3.823 2.58h5.685v1.15h-5.685zM107.999 105h-1.315v-6.688h-2.859V97.13h2.859v-1.298c0-1.808 1.249-2.728 2.974-2.728.641 0 1.266.099 1.726.263v1.183c-.526-.164-1.068-.23-1.676-.23-.97 0-1.709.427-1.709 1.66v1.15h3.385v1.183h-3.385zm9.606.23c-2.267 0-3.944-1.742-3.944-4.174 0-2.415 1.677-4.157 3.944-4.157s3.944 1.742 3.944 4.157c0 2.432-1.676 4.174-3.944 4.174m0-1.199c1.413 0 2.613-1.069 2.613-2.975 0-1.89-1.2-2.957-2.613-2.957s-2.613 1.068-2.613 2.957c0 1.906 1.2 2.975 2.613 2.975m13.567-5.456c-.214-.066-.543-.148-1.101-.148-1.627 0-2.498.92-2.498 2.728v2.678h2.481V105h-6.129v-1.167h2.333v-5.537h-2.086v-1.167h3.368v1.545c.46-1.216 1.61-1.66 2.547-1.66.575 0 .887.082 1.085.148zm3.296 1.134h5.686v1.15h-5.686zm9.212 3.171c0-1.38 1.035-2.103 2.432-2.3l2.268-.329c.591-.082.706-.345.706-.707 0-.837-.624-1.462-1.889-1.462-1.233 0-2.022.69-2.12 1.594l-1.249-.263c.164-1.462 1.561-2.514 3.336-2.514 2.267 0 3.22 1.249 3.22 2.777v3.845c0 .657.099 1.233.165 1.479h-1.282c-.049-.148-.148-.674-.148-1.183-.246.641-1.183 1.413-2.662 1.413-1.807 0-2.777-1.167-2.777-2.35m2.974 1.151c1.282 0 2.432-.74 2.432-2.317v-.559l-2.711.394c-.789.115-1.38.526-1.38 1.233 0 .673.493 1.249 1.659 1.249m6.813-6.902h1.282v1.315c.361-.806 1.249-1.545 2.728-1.545 2.349 0 3.648 1.84 3.648 4.157 0 2.35-1.414 4.174-3.714 4.174-1.397 0-2.268-.624-2.629-1.331v4.223h-1.315zm3.78 6.918c1.528 0 2.547-1.249 2.547-2.991s-1.019-2.974-2.547-2.974c-1.512 0-2.498 1.233-2.498 2.974s1.002 2.991 2.498 2.991m6.073-6.918h1.282v1.315c.361-.806 1.249-1.545 2.727-1.545 2.35 0 3.648 1.84 3.648 4.157 0 2.35-1.413 4.174-3.713 4.174-1.397 0-2.268-.624-2.629-1.331v4.223h-1.315zm3.779 6.918c1.529 0 2.547-1.249 2.547-2.991s-1.018-2.974-2.547-2.974c-1.511 0-2.497 1.233-2.497 2.974s1.002 2.991 2.497 2.991m13.337-5.472c-.214-.066-.542-.148-1.101-.148-1.627 0-2.498.92-2.498 2.728v2.678h2.481V105h-6.129v-1.167h2.334v-5.537h-2.087v-1.167h3.368v1.545c.46-1.216 1.611-1.66 2.547-1.66.575 0 .888.082 1.085.148zm6.139 6.655c-2.268 0-3.944-1.742-3.944-4.174 0-2.415 1.676-4.157 3.944-4.157s3.944 1.742 3.944 4.157c0 2.432-1.676 4.174-3.944 4.174m0-1.199c1.413 0 2.613-1.069 2.613-2.975 0-1.89-1.2-2.957-2.613-2.957s-2.613 1.068-2.613 2.957c0 1.906 1.2 2.975 2.613 2.975m9.097.969-3.385-7.871h1.479l2.678 6.573 2.695-6.573h1.43L197.2 105zm7.125-2.12c0-1.38 1.035-2.103 2.432-2.3l2.268-.329c.591-.082.706-.345.706-.707 0-.837-.624-1.462-1.889-1.462-1.233 0-2.022.69-2.12 1.594l-1.249-.263c.164-1.462 1.561-2.514 3.336-2.514 2.267 0 3.22 1.249 3.22 2.777v3.845c0 .657.099 1.233.165 1.479h-1.282c-.049-.148-.148-.674-.148-1.183-.246.641-1.183 1.413-2.662 1.413-1.807 0-2.777-1.167-2.777-2.35m2.974 1.151c1.282 0 2.432-.74 2.432-2.317v-.559l-2.711.394c-.789.115-1.38.526-1.38 1.233 0 .673.493 1.249 1.659 1.249m6.682-.214h3.023v-9.514h-2.596V93.12h3.911v10.697h3.023V105h-7.361zm13.846-6.72c.969-.182 1.708-1.003 1.741-1.825-.049.033-.213.082-.41.082-.576 0-1.036-.394-1.036-1.068 0-.591.477-1.084 1.151-1.084.673 0 1.265.526 1.265 1.528 0 1.988-1.611 3.056-2.711 3.22zm-2.958 0c.969-.182 1.709-1.003 1.742-1.825-.05.033-.214.082-.411.082-.575 0-1.035-.394-1.035-1.068 0-.591.476-1.084 1.15-1.084s1.265.526 1.265 1.528c0 1.988-1.61 3.056-2.711 3.22zm-95.176 46.861c-.97.18-1.709 1.002-1.742 1.824.049-.033.213-.083.411-.083.575 0 1.035.395 1.035 1.069 0 .591-.477 1.084-1.15 1.084-.674 0-1.266-.526-1.266-1.528 0-1.988 1.611-3.057 2.712-3.221zm2.957 0c-.969.18-1.709 1.002-1.741 1.824.049-.033.213-.083.41-.083.575 0 1.036.395 1.036 1.069 0 .591-.477 1.084-1.151 1.084-.673 0-1.265-.526-1.265-1.528 0-1.988 1.61-3.057 2.711-3.221zm2.705 8.922c0-1.38 1.035-2.103 2.432-2.3l2.268-.329c.591-.082.706-.345.706-.706 0-.838-.624-1.463-1.889-1.463-1.233 0-2.021.69-2.12 1.594l-1.249-.263c.164-1.462 1.561-2.514 3.336-2.514 2.267 0 3.22 1.249 3.22 2.777v3.845c0 .657.099 1.233.165 1.479h-1.282c-.049-.148-.148-.674-.148-1.183-.246.641-1.183 1.413-2.662 1.413-1.807 0-2.777-1.167-2.777-2.35m2.974 1.151c1.282 0 2.432-.74 2.432-2.317v-.559l-2.711.394c-.789.115-1.38.526-1.38 1.233 0 .673.493 1.249 1.659 1.249m6.813-6.902h1.282v1.315c.362-.806 1.249-1.545 2.728-1.545 2.35 0 3.648 1.84 3.648 4.157 0 2.35-1.413 4.174-3.714 4.174-1.397 0-2.268-.624-2.629-1.331v4.223h-1.315zm3.78 6.918c1.528 0 2.547-1.249 2.547-2.991s-1.019-2.974-2.547-2.974c-1.512 0-2.498 1.232-2.498 2.974s1.002 2.991 2.498 2.991m6.073-6.918h1.282v1.315c.361-.806 1.249-1.545 2.728-1.545 2.349 0 3.648 1.84 3.648 4.157 0 2.35-1.414 4.174-3.714 4.174-1.397 0-2.268-.624-2.629-1.331v4.223h-1.315zm3.78 6.918c1.528 0 2.547-1.249 2.547-2.991s-1.019-2.974-2.547-2.974c-1.512 0-2.498 1.232-2.498 2.974s1.002 2.991 2.498 2.991m6.78-4.338h5.685v1.15h-5.685zm16.409-1.134c-.214-.066-.542-.148-1.101-.148-1.627 0-2.498.92-2.498 2.728v2.678h2.481V155h-6.129v-1.167h2.334v-5.537h-2.087v-1.167h3.368v1.545c.46-1.216 1.611-1.66 2.547-1.66.575 0 .888.082 1.085.148zm6.254 6.655c-2.054 0-3.911-1.495-3.911-4.19 0-2.531 1.841-4.141 3.78-4.141 2.333 0 3.746 1.61 3.746 3.977 0 .164-.016.345-.033.46h-6.145v.115a2.555 2.555 0 0 0 2.563 2.563c1.331 0 2.087-.739 2.399-1.66l1.134.411c-.444 1.364-1.709 2.465-3.533 2.465m2.251-5.012c-.066-1.166-.92-2.152-2.366-2.152-1.315 0-2.333 1.018-2.416 2.152zm9.754 3.582c-.312.707-1.166 1.414-2.596 1.414-2.251 0-3.746-1.857-3.746-4.158 0-2.317 1.479-4.157 3.763-4.157 1.446 0 2.3.739 2.612 1.512v-1.282h1.282v10.993h-1.315zm-2.464.247c1.544 0 2.497-1.249 2.497-2.991s-.953-2.974-2.497-2.974c-1.529 0-2.547 1.232-2.547 2.974s1.018 2.991 2.547 2.991m11.989-.115c-.378.805-1.348 1.298-2.432 1.298-2.005 0-3.024-1.347-3.024-3.155v-4.946h1.315v4.732c0 1.134.542 2.17 2.004 2.17 1.331 0 2.071-.97 2.071-2.202v-4.7h1.314v6.228c0 .608.066 1.331.116 1.643h-1.266c-.065-.23-.098-.674-.098-1.068m8.029 1.298c-2.055 0-3.911-1.495-3.911-4.19 0-2.531 1.84-4.141 3.779-4.141 2.333 0 3.747 1.61 3.747 3.977 0 .164-.017.345-.033.46h-6.146v.115c0 1.479 1.2 2.563 2.564 2.563 1.331 0 2.086-.739 2.399-1.66l1.133.411c-.443 1.364-1.709 2.465-3.532 2.465m2.251-5.012c-.066-1.166-.92-2.152-2.367-2.152-1.314 0-2.333 1.018-2.415 2.152zm7.749 5.012c-2.218 0-3.335-1.43-3.549-2.317l1.199-.493c.231.822 1.069 1.627 2.383 1.627 1.052 0 1.66-.493 1.66-1.134 0-.575-.378-.92-1.249-1.101l-1.528-.312c-1.479-.296-2.136-1.15-2.136-2.169 0-1.331 1.232-2.432 2.974-2.432 1.758 0 2.892.904 3.253 2.153l-1.117.443c-.263-.756-.937-1.446-2.136-1.446-1.003 0-1.676.477-1.676 1.183 0 .51.312.904 1.101 1.052l1.495.296c1.561.312 2.333 1.084 2.333 2.267 0 1.101-.92 2.383-3.007 2.383m12.778-8.101v1.2h-3.007v4.19c0 .92.575 1.364 1.43 1.364.542 0 1.248-.099 1.577-.214v1.2c-.362.131-.92.262-1.725.262-1.627 0-2.597-.805-2.597-2.366v-4.436h-2.53v-1.2h1.298c.953 0 1.315-.493 1.315-1.364v-1.413h1.232v2.777zm5.301 6.622c0-.772.608-1.364 1.348-1.364a1.35 1.35 0 0 1 1.363 1.364c0 .772-.608 1.348-1.363 1.348-.74 0-1.348-.576-1.348-1.348m7.733-.871c0-1.38 1.035-2.103 2.432-2.3l2.268-.329c.591-.082.706-.345.706-.706 0-.838-.624-1.463-1.889-1.463-1.233 0-2.021.69-2.12 1.594l-1.249-.263c.164-1.462 1.561-2.514 3.336-2.514 2.267 0 3.221 1.249 3.221 2.777v3.845c0 .657.098 1.233.164 1.479h-1.282c-.049-.148-.148-.674-.148-1.183-.246.641-1.183 1.413-2.662 1.413-1.807 0-2.777-1.167-2.777-2.35m2.974 1.151c1.282 0 2.432-.74 2.432-2.317v-.559l-2.711.394c-.789.115-1.38.526-1.38 1.233 0 .673.493 1.249 1.659 1.249m6.813-6.902h1.282v1.315c.362-.806 1.249-1.545 2.728-1.545 2.35 0 3.648 1.84 3.648 4.157 0 2.35-1.413 4.174-3.714 4.174-1.397 0-2.268-.624-2.629-1.331v4.223h-1.315zm3.78 6.918c1.528 0 2.547-1.249 2.547-2.991s-1.019-2.974-2.547-2.974c-1.512 0-2.498 1.232-2.498 2.974s1.002 2.991 2.498 2.991m6.073-6.918h1.282v1.315c.361-.806 1.249-1.545 2.728-1.545 2.349 0 3.648 1.84 3.648 4.157 0 2.35-1.414 4.174-3.714 4.174-1.397 0-2.268-.624-2.629-1.331v4.223h-1.315zm3.78 6.918c1.528 0 2.547-1.249 2.547-2.991s-1.019-2.974-2.547-2.974c-1.512 0-2.498 1.232-2.498 2.974s1.002 2.991 2.498 2.991m13.336-5.472c-.214-.066-.542-.148-1.101-.148-1.627 0-2.498.92-2.498 2.728v2.678h2.482V155h-6.13v-1.167h2.334v-5.537h-2.087v-1.167h3.368v1.545c.461-1.216 1.611-1.66 2.547-1.66.576 0 .888.082 1.085.148zm6.139 6.655c-2.267 0-3.944-1.742-3.944-4.174 0-2.415 1.677-4.157 3.944-4.157s3.944 1.742 3.944 4.157c0 2.432-1.676 4.174-3.944 4.174m0-1.199c1.413 0 2.613-1.069 2.613-2.975 0-1.889-1.2-2.957-2.613-2.957s-2.613 1.068-2.613 2.957c0 1.906 1.2 2.975 2.613 2.975m9.097.969-3.385-7.871h1.479l2.678 6.573 2.695-6.573h1.43L305.581 155zm10.724.23c-2.054 0-3.911-1.495-3.911-4.19 0-2.531 1.84-4.141 3.779-4.141 2.334 0 3.747 1.61 3.747 3.977 0 .164-.017.345-.033.46h-6.146v.115c0 1.479 1.2 2.563 2.564 2.563 1.331 0 2.087-.739 2.399-1.66l1.134.411c-.444 1.364-1.709 2.465-3.533 2.465m2.251-5.012c-.066-1.166-.92-2.152-2.366-2.152-1.315 0-2.334 1.018-2.416 2.152zm9.738 3.484c-.378.821-1.249 1.528-2.695 1.528-2.235 0-3.664-1.84-3.664-4.174 0-2.284 1.511-4.157 3.73-4.157 1.495 0 2.3.707 2.596 1.413v-5.192h1.315v10.401c0 .789.049 1.315.082 1.479h-1.282a7 7 0 0 1-.082-1.134zm-2.498.329c1.545 0 2.498-1.249 2.498-2.975s-.937-2.957-2.498-2.957c-1.512 0-2.53 1.232-2.53 2.957 0 1.726 1.035 2.975 2.53 2.975m10.412-6.935c.969-.181 1.709-1.002 1.742-1.824-.05.033-.214.082-.411.082-.575 0-1.036-.394-1.036-1.068 0-.591.477-1.084 1.151-1.084.673 0 1.265.526 1.265 1.528 0 1.988-1.61 3.056-2.711 3.221zm-2.958 0c.969-.181 1.709-1.002 1.742-1.824-.05.033-.214.082-.411.082-.575 0-1.035-.394-1.035-1.068 0-.591.476-1.084 1.15-1.084s1.265.526 1.265 1.528c0 1.988-1.61 3.056-2.711 3.221zm-203.557 21.862c-.97.18-1.709 1.002-1.742 1.824.049-.033.213-.083.411-.083.575 0 1.035.395 1.035 1.069 0 .591-.477 1.084-1.15 1.084-.674 0-1.266-.526-1.266-1.528 0-1.988 1.611-3.057 2.712-3.221zm2.957 0c-.969.18-1.709 1.002-1.741 1.824.049-.033.213-.083.41-.083.575 0 1.036.395 1.036 1.069 0 .591-.477 1.084-1.151 1.084-.673 0-1.265-.526-1.265-1.528 0-1.988 1.61-3.057 2.711-3.221zm8.44 9.744c-.378.821-1.249 1.528-2.695 1.528-2.235 0-3.664-1.84-3.664-4.174 0-2.284 1.512-4.157 3.73-4.157 1.495 0 2.3.707 2.596 1.413v-5.192h1.315v10.401c0 .789.049 1.315.082 1.479h-1.282a7 7 0 0 1-.082-1.134zm-2.498.329c1.545 0 2.498-1.249 2.498-2.975s-.937-2.957-2.498-2.957c-1.511 0-2.53 1.232-2.53 2.957 0 1.726 1.035 2.975 2.53 2.975m6.616-1.151c0-1.38 1.035-2.103 2.432-2.3l2.268-.329c.591-.082.706-.345.706-.706 0-.838-.624-1.463-1.889-1.463-1.233 0-2.022.69-2.12 1.594l-1.249-.263c.164-1.462 1.561-2.514 3.336-2.514 2.267 0 3.22 1.249 3.22 2.777v3.845c0 .657.099 1.233.165 1.479h-1.282c-.049-.148-.148-.674-.148-1.183-.246.641-1.183 1.413-2.662 1.413-1.807 0-2.777-1.167-2.777-2.35m2.974 1.151c1.282 0 2.432-.74 2.432-2.317v-.559l-2.711.394c-.789.115-1.38.526-1.38 1.233 0 .673.493 1.249 1.659 1.249m13.55-6.902v1.2h-3.007v4.19c0 .92.575 1.364 1.43 1.364.542 0 1.249-.099 1.577-.214v1.2c-.361.131-.92.262-1.725.262-1.627 0-2.596-.805-2.596-2.366v-4.436h-2.531v-1.2h1.298c.953 0 1.315-.493 1.315-1.364v-1.413h1.232v2.777zm3.182 5.751c0-1.38 1.035-2.103 2.432-2.3l2.267-.329c.592-.082.707-.345.707-.706 0-.838-.625-1.463-1.89-1.463-1.232 0-2.021.69-2.12 1.594l-1.248-.263c.164-1.462 1.561-2.514 3.335-2.514 2.268 0 3.221 1.249 3.221 2.777v3.845c0 .657.099 1.233.164 1.479h-1.281c-.05-.148-.148-.674-.148-1.183-.247.641-1.183 1.413-2.662 1.413-1.808 0-2.777-1.167-2.777-2.35m2.974 1.151c1.282 0 2.432-.74 2.432-2.317v-.559l-2.711.394c-.789.115-1.381.526-1.381 1.233 0 .673.493 1.249 1.66 1.249m8.998-.28c0-.772.608-1.364 1.348-1.364a1.35 1.35 0 0 1 1.364 1.364c0 .772-.608 1.348-1.364 1.348-.74 0-1.348-.576-1.348-1.348m14.931-5.176c-.214-.066-.543-.148-1.101-.148-1.627 0-2.498.92-2.498 2.728v2.678h2.481V180h-6.129v-1.167h2.333v-5.537h-2.086v-1.167h3.368v1.545c.46-1.216 1.61-1.66 2.547-1.66.575 0 .887.082 1.085.148zm6.254 6.655c-2.054 0-3.911-1.495-3.911-4.19 0-2.531 1.84-4.141 3.779-4.141 2.334 0 3.747 1.61 3.747 3.977 0 .164-.017.345-.033.46h-6.146v.115c0 1.479 1.2 2.563 2.564 2.563 1.331 0 2.087-.739 2.399-1.66l1.134.411c-.444 1.364-1.709 2.465-3.533 2.465m2.251-5.012c-.066-1.166-.92-2.152-2.366-2.152-1.315 0-2.334 1.018-2.416 2.152zm9.754 3.582c-.312.707-1.166 1.414-2.596 1.414-2.251 0-3.747-1.857-3.747-4.158 0-2.317 1.479-4.157 3.763-4.157 1.446 0 2.301.739 2.613 1.512v-1.282h1.282v10.993h-1.315zm-2.465.247c1.545 0 2.498-1.249 2.498-2.991s-.953-2.974-2.498-2.974c-1.528 0-2.547 1.232-2.547 2.974s1.019 2.991 2.547 2.991m11.989-.115c-.377.805-1.347 1.298-2.431 1.298-2.005 0-3.024-1.347-3.024-3.155v-4.946h1.315v4.732c0 1.134.542 2.17 2.004 2.17 1.331 0 2.071-.97 2.071-2.202v-4.7h1.314v6.228c0 .608.066 1.331.115 1.643h-1.265c-.066-.23-.099-.674-.099-1.068m8.029 1.298c-2.054 0-3.91-1.495-3.91-4.19 0-2.531 1.84-4.141 3.779-4.141 2.333 0 3.746 1.61 3.746 3.977 0 .164-.016.345-.032.46h-6.146v.115a2.555 2.555 0 0 0 2.563 2.563c1.331 0 2.087-.739 2.399-1.66l1.134.411c-.443 1.364-1.709 2.465-3.533 2.465m2.252-5.012c-.066-1.166-.921-2.152-2.367-2.152-1.314 0-2.333 1.018-2.415 2.152zm7.749 5.012c-2.218 0-3.336-1.43-3.549-2.317l1.199-.493c.23.822 1.068 1.627 2.383 1.627 1.052 0 1.66-.493 1.66-1.134 0-.575-.378-.92-1.249-1.101l-1.528-.312c-1.479-.296-2.137-1.15-2.137-2.169 0-1.331 1.233-2.432 2.975-2.432 1.758 0 2.892.904 3.253 2.153l-1.117.443c-.263-.756-.937-1.446-2.136-1.446-1.003 0-1.676.477-1.676 1.183 0 .51.312.904 1.1 1.052l1.496.296c1.561.312 2.333 1.084 2.333 2.267 0 1.101-.92 2.383-3.007 2.383m12.778-8.101v1.2h-3.007v4.19c0 .92.575 1.364 1.429 1.364.543 0 1.249-.099 1.578-.214v1.2c-.362.131-.92.262-1.726.262-1.626 0-2.596-.805-2.596-2.366v-4.436h-2.53v-1.2h1.298c.953 0 1.314-.493 1.314-1.364v-1.413h1.233v2.777zm7.355 6.688h2.662V180h-6.704v-1.183h2.678v-9.284h-2.678v-1.183h6.704v1.183h-2.662zm11.414-.115c-.378.821-1.249 1.528-2.695 1.528-2.235 0-3.664-1.84-3.664-4.174 0-2.284 1.511-4.157 3.73-4.157 1.495 0 2.3.707 2.596 1.413v-5.192h1.315v10.401c0 .789.049 1.315.082 1.479h-1.282a7 7 0 0 1-.082-1.134zm-2.498.329c1.545 0 2.498-1.249 2.498-2.975s-.937-2.957-2.498-2.957c-1.512 0-2.53 1.232-2.53 2.957 0 1.726 1.035 2.975 2.53 2.975m10.412-6.935c.969-.181 1.709-1.002 1.741-1.824-.049.033-.213.082-.41.082-.575 0-1.036-.394-1.036-1.068 0-.591.477-1.084 1.151-1.084.673 0 1.265.526 1.265 1.528 0 1.988-1.61 3.056-2.711 3.221zm-2.958 0c.969-.181 1.709-1.002 1.742-1.824-.05.033-.214.082-.411.082-.575 0-1.035-.394-1.035-1.068 0-.591.476-1.084 1.15-1.084s1.265.526 1.265 1.528c0 1.988-1.61 3.056-2.711 3.221zM147.87 193.958c-.969.18-1.709 1.002-1.742 1.824.05-.033.214-.083.411-.083.575 0 1.035.395 1.035 1.069 0 .591-.476 1.084-1.15 1.084s-1.265-.526-1.265-1.528c0-1.988 1.61-3.057 2.711-3.221zm2.958 0c-.969.18-1.709 1.002-1.742 1.824.049-.033.214-.083.411-.083.575 0 1.035.395 1.035 1.069 0 .591-.476 1.084-1.15 1.084s-1.265-.526-1.265-1.528c0-1.988 1.61-3.057 2.711-3.221zm9.869 1.709c-1.396 1.232-4.108 3.96-4.634 9.333h-1.413c.51-5.85 3.895-8.84 4.503-9.399h-6.162v-1.249h7.706zm2.689 2.333a2.3 2.3 0 0 1-.05-.477c0-1.824 1.414-3.401 3.698-3.401 2.202 0 3.516 1.462 3.516 3.221 0 1.396-.871 2.497-2.087 3.27l-2.185 1.396c-.641.411-1.233.97-1.364 1.742h5.735V205h-7.411c.033-1.643.69-2.958 2.399-4.059l1.906-1.232c1.035-.674 1.627-1.413 1.627-2.35 0-1.052-.756-2.021-2.169-2.021-1.446 0-2.317 1.002-2.317 2.317 0 .181.016.378.049.509zm9.984-4.88h1.315v5.11c.509-.92 1.495-1.331 2.596-1.331 2.005 0 2.974 1.462 2.974 3.221V205h-1.315v-4.65c0-1.167-.492-2.219-2.021-2.219-1.265 0-2.234.937-2.234 2.482V205h-1.315zm13.517 3.976c.97-.181 1.709-1.002 1.742-1.824-.049.033-.214.082-.411.082-.575 0-1.035-.394-1.035-1.068 0-.591.477-1.084 1.15-1.084.674 0 1.265.526 1.265 1.528 0 1.988-1.61 3.056-2.711 3.221zm-2.958 0c.97-.181 1.709-1.002 1.742-1.824-.049.033-.213.082-.411.082-.575 0-1.035-.394-1.035-1.068 0-.591.477-1.084 1.15-1.084.674 0 1.266.526 1.266 1.528 0 1.988-1.611 3.056-2.712 3.221z"/><path fill="#636363" d="m24.296 280 7.904-11.65h1.38L25.676 280zm9.853 0 7.903-11.65h1.38L35.53 280zm20.987-7.871h1.282v1.15c.493-.936 1.479-1.38 2.563-1.38 2.054 0 3.04 1.397 3.04 3.139V280h-1.315v-4.7c0-1.133-.509-2.169-2.037-2.169-1.249 0-2.218.937-2.218 2.449V280h-1.315zm15.144 6.803c-.378.805-1.347 1.298-2.432 1.298-2.005 0-3.023-1.347-3.023-3.155v-4.946h1.314v4.732c0 1.134.542 2.17 2.005 2.17 1.33 0 2.07-.97 2.07-2.202v-4.7h1.315v6.228c0 .608.066 1.331.115 1.643h-1.266c-.065-.23-.098-.674-.098-1.068m4.233-.115h3.023v-9.514H74.94v-1.183h3.911v10.697h3.024V280h-7.362zm9.853 0h3.023v-9.514h-2.596v-1.183h3.91v10.697h3.024V280h-7.361zm20.034 0h3.024v-5.505h-2.679v-1.183h3.993v6.688h3.024V280H104.4zm2.383-9.449c0-.69.542-1.232 1.249-1.232.673 0 1.216.542 1.216 1.232 0 .691-.543 1.249-1.216 1.249a1.237 1.237 0 0 1-1.249-1.249M117.852 280h-1.315v-6.688h-2.859v-1.183h2.859v-1.298c0-1.808 1.249-2.728 2.974-2.728.641 0 1.266.099 1.726.263v1.183c-.526-.164-1.068-.23-1.676-.23-.97 0-1.709.427-1.709 1.66v1.15h3.385v1.183h-3.385zm22.647-7.871v1.2h-3.007v4.19c0 .92.575 1.364 1.429 1.364.542 0 1.249-.099 1.578-.214v1.2c-.362.131-.921.262-1.726.262-1.627 0-2.596-.805-2.596-2.366v-4.436h-2.531v-1.2h1.299c.953 0 1.314-.493 1.314-1.364v-1.413h1.233v2.777zm3.312 6.688h3.024v-5.505h-2.678v-1.183h3.993v6.688h3.023V280h-7.362zm2.383-9.449c0-.69.542-1.232 1.249-1.232.674 0 1.216.542 1.216 1.232 0 .691-.542 1.249-1.216 1.249a1.237 1.237 0 0 1-1.249-1.249m7.98 3.714c.279-.756.887-1.101 1.627-1.101.739 0 1.38.395 1.544 1.265.296-.788.937-1.265 1.873-1.265 1.003 0 1.972.477 1.972 2.35V280h-1.232v-5.472c0-1.035-.411-1.364-1.068-1.364-.658 0-1.2.46-1.2 1.594V280h-1.216v-5.423c0-1.018-.394-1.413-1.051-1.413-.674 0-1.216.411-1.216 1.611V280h-1.233v-7.871h1.2zm12.81 7.148c-2.054 0-3.911-1.495-3.911-4.19 0-2.531 1.841-4.141 3.78-4.141 2.333 0 3.746 1.61 3.746 3.977 0 .164-.016.345-.032.46h-6.146v.115a2.555 2.555 0 0 0 2.563 2.563c1.331 0 2.087-.739 2.399-1.66l1.134.411c-.443 1.364-1.709 2.465-3.533 2.465m2.252-5.012c-.066-1.166-.921-2.152-2.367-2.152-1.314 0-2.333 1.018-2.415 2.152zm9.737 3.484c-.378.821-1.248 1.528-2.695 1.528-2.234 0-3.664-1.84-3.664-4.174 0-2.284 1.512-4.157 3.73-4.157 1.496 0 2.301.707 2.596 1.413v-5.192h1.315v10.401c0 .789.049 1.315.082 1.479h-1.281a7 7 0 0 1-.083-1.134zm-2.497.329c1.544 0 2.497-1.249 2.497-2.975s-.936-2.957-2.497-2.957c-1.512 0-2.531 1.232-2.531 2.957 0 1.726 1.035 2.975 2.531 2.975m19.952 1.199c-2.268 0-3.944-1.742-3.944-4.174 0-2.415 1.676-4.157 3.944-4.157s3.944 1.742 3.944 4.157c0 2.432-1.677 4.174-3.944 4.174m0-1.199c1.413 0 2.613-1.069 2.613-2.975 0-1.889-1.2-2.957-2.613-2.957s-2.613 1.068-2.613 2.957c0 1.906 1.2 2.975 2.613 2.975m11.792-.099c-.378.805-1.348 1.298-2.432 1.298-2.005 0-3.024-1.347-3.024-3.155v-4.946h1.315v4.732c0 1.134.542 2.17 2.004 2.17 1.331 0 2.071-.97 2.071-2.202v-4.7h1.314v6.228c0 .608.066 1.331.116 1.643h-1.266c-.065-.23-.098-.674-.098-1.068m11.101-6.803v1.2h-3.007v4.19c0 .92.575 1.364 1.43 1.364.542 0 1.249-.099 1.577-.214v1.2c-.361.131-.92.262-1.725.262-1.627 0-2.596-.805-2.596-2.366v-4.436h-2.531v-1.2h1.298c.953 0 1.315-.493 1.315-1.364v-1.413h1.232v2.777zm5.186 6.671c0-.739.559-1.314 1.381-1.314.805 0 1.511.608 1.511 1.807 0 2.515-1.791 3.665-3.335 3.878v-.936c1.331-.247 2.185-1.233 2.185-2.268a1.2 1.2 0 0 1-.493.115c-.706 0-1.249-.509-1.249-1.282m21.3 1.43c-2.054 0-3.911-1.495-3.911-4.19 0-2.531 1.841-4.141 3.78-4.141 2.333 0 3.746 1.61 3.746 3.977 0 .164-.016.345-.033.46h-6.145v.115a2.555 2.555 0 0 0 2.563 2.563c1.331 0 2.087-.739 2.399-1.66l1.134.411c-.444 1.364-1.709 2.465-3.533 2.465m2.251-5.012c-.066-1.166-.92-2.152-2.366-2.152-1.315 0-2.333 1.018-2.416 2.152zm6.731 4.782-3.385-7.871h1.479l2.678 6.573 2.695-6.573h1.43L256.317 280zm10.724.23c-2.054 0-3.911-1.495-3.911-4.19 0-2.531 1.84-4.141 3.779-4.141 2.334 0 3.747 1.61 3.747 3.977 0 .164-.017.345-.033.46h-6.146v.115c0 1.479 1.2 2.563 2.564 2.563 1.331 0 2.087-.739 2.399-1.66l1.134.411c-.444 1.364-1.709 2.465-3.533 2.465m2.251-5.012c-.066-1.166-.92-2.152-2.366-2.152-1.315 0-2.334 1.018-2.416 2.152zm4.134-3.089h1.282v1.15c.493-.936 1.479-1.38 2.563-1.38 2.054 0 3.04 1.397 3.04 3.139V280h-1.314v-4.7c0-1.133-.51-2.169-2.038-2.169-1.249 0-2.218.937-2.218 2.449V280h-1.315zm16.393 0v1.2h-3.007v4.19c0 .92.575 1.364 1.43 1.364.542 0 1.249-.099 1.577-.214v1.2c-.361.131-.92.262-1.725.262-1.627 0-2.596-.805-2.596-2.366v-4.436h-2.531v-1.2h1.298c.953 0 1.315-.493 1.315-1.364v-1.413h1.232v2.777zm12.969 0h1.281v1.315c.362-.806 1.249-1.545 2.728-1.545 2.35 0 3.648 1.84 3.648 4.157 0 2.35-1.413 4.174-3.714 4.174-1.396 0-2.267-.624-2.629-1.331v4.223h-1.314zm3.779 6.918c1.528 0 2.547-1.249 2.547-2.991s-1.019-2.974-2.547-2.974c-1.512 0-2.498 1.232-2.498 2.974s1.003 2.991 2.498 2.991m6.139-1.167c0-1.38 1.035-2.103 2.432-2.3l2.268-.329c.591-.082.706-.345.706-.706 0-.838-.624-1.463-1.889-1.463-1.233 0-2.021.69-2.12 1.594l-1.249-.263c.164-1.462 1.561-2.514 3.336-2.514 2.267 0 3.221 1.249 3.221 2.777v3.845c0 .657.098 1.233.164 1.479h-1.282c-.049-.148-.148-.674-.148-1.183-.246.641-1.183 1.413-2.662 1.413-1.807 0-2.777-1.167-2.777-2.35m2.974 1.151c1.282 0 2.432-.74 2.432-2.317v-.559l-2.711.394c-.789.115-1.38.526-1.38 1.233 0 .673.493 1.249 1.659 1.249m13.025-6.902h1.446l-5.374 10.993h-1.462l2.153-4.322-3.533-6.671h1.528l2.695 5.258zm3.51 6.688h3.023v-9.514h-2.596v-1.183h3.911v10.697h3.023V280h-7.361zm13.533 1.413c-2.267 0-3.943-1.742-3.943-4.174 0-2.415 1.676-4.157 3.943-4.157s3.944 1.742 3.944 4.157c0 2.432-1.676 4.174-3.944 4.174m0-1.199c1.413 0 2.613-1.069 2.613-2.975 0-1.889-1.2-2.957-2.613-2.957s-2.612 1.068-2.612 2.957c0 1.906 1.199 2.975 2.612 2.975m6.37-1.151c0-1.38 1.035-2.103 2.432-2.3l2.267-.329c.592-.082.707-.345.707-.706 0-.838-.625-1.463-1.89-1.463-1.232 0-2.021.69-2.12 1.594l-1.249-.263c.165-1.462 1.562-2.514 3.336-2.514 2.268 0 3.221 1.249 3.221 2.777v3.845c0 .657.098 1.233.164 1.479h-1.282c-.049-.148-.147-.674-.147-1.183-.247.641-1.184 1.413-2.662 1.413-1.808 0-2.777-1.167-2.777-2.35m2.974 1.151c1.281 0 2.432-.74 2.432-2.317v-.559l-2.712.394c-.788.115-1.38.526-1.38 1.233 0 .673.493 1.249 1.66 1.249m12.613-.329c-.378.821-1.249 1.528-2.695 1.528-2.234 0-3.664-1.84-3.664-4.174 0-2.284 1.512-4.157 3.73-4.157 1.495 0 2.301.707 2.596 1.413v-5.192h1.315v10.401c0 .789.049 1.315.082 1.479h-1.282a7 7 0 0 1-.082-1.134zm-2.497.329c1.544 0 2.497-1.249 2.497-2.975s-.936-2.957-2.497-2.957c-1.512 0-2.531 1.232-2.531 2.957 0 1.726 1.035 2.975 2.531 2.975m16.6-.214h3.023v-5.505h-2.678v-1.183h3.993v6.688h3.023V280h-7.361zm2.382-9.449c0-.69.542-1.232 1.249-1.232.674 0 1.216.542 1.216 1.232 0 .691-.542 1.249-1.216 1.249a1.237 1.237 0 0 1-1.249-1.249M393.731 280h-1.315v-6.688h-2.859v-1.183h2.859v-1.298c0-1.808 1.249-2.728 2.975-2.728.64 0 1.265.099 1.725.263v1.183c-.526-.164-1.068-.23-1.676-.23-.97 0-1.709.427-1.709 1.66v1.15h3.385v1.183h-3.385zm15.976-2.12c0-1.38 1.035-2.103 2.432-2.3l2.267-.329c.592-.082.707-.345.707-.706 0-.838-.625-1.463-1.89-1.463-1.232 0-2.021.69-2.12 1.594l-1.249-.263c.165-1.462 1.562-2.514 3.336-2.514 2.268 0 3.221 1.249 3.221 2.777v3.845c0 .657.098 1.233.164 1.479h-1.282c-.049-.148-.147-.674-.147-1.183-.247.641-1.184 1.413-2.662 1.413-1.808 0-2.777-1.167-2.777-2.35m2.974 1.151c1.281 0 2.432-.74 2.432-2.317v-.559l-2.712.394c-.788.115-1.38.526-1.38 1.233 0 .673.493 1.249 1.66 1.249m6.813-6.902h1.281v1.315c.362-.806 1.249-1.545 2.728-1.545 2.35 0 3.648 1.84 3.648 4.157 0 2.35-1.413 4.174-3.714 4.174-1.396 0-2.267-.624-2.629-1.331v4.223h-1.314zm3.779 6.918c1.528 0 2.547-1.249 2.547-2.991s-1.019-2.974-2.547-2.974c-1.512 0-2.498 1.232-2.498 2.974s1.003 2.991 2.498 2.991m6.074-6.918h1.281v1.315c.362-.806 1.249-1.545 2.728-1.545 2.35 0 3.648 1.84 3.648 4.157 0 2.35-1.413 4.174-3.714 4.174-1.397 0-2.267-.624-2.629-1.331v4.223h-1.314zm3.779 6.918c1.528 0 2.547-1.249 2.547-2.991s-1.019-2.974-2.547-2.974c-1.512 0-2.498 1.232-2.498 2.974s1.003 2.991 2.498 2.991m13.336-5.472c-.213-.066-.542-.148-1.101-.148-1.626 0-2.497.92-2.497 2.728v2.678h2.481V280h-6.129v-1.167h2.333v-5.537h-2.087v-1.167h3.369v1.545c.46-1.216 1.61-1.66 2.547-1.66.575 0 .887.082 1.084.148zm6.14 6.655c-2.268 0-3.944-1.742-3.944-4.174 0-2.415 1.676-4.157 3.944-4.157s3.943 1.742 3.943 4.157c0 2.432-1.676 4.174-3.943 4.174m0-1.199c1.413 0 2.612-1.069 2.612-2.975 0-1.889-1.199-2.957-2.612-2.957s-2.613 1.068-2.613 2.957c0 1.906 1.199 2.975 2.613 2.975m9.096.969-3.385-7.871h1.479l2.679 6.573 2.695-6.573h1.429L463.227 280zm10.724.23c-2.054 0-3.911-1.495-3.911-4.19 0-2.531 1.841-4.141 3.78-4.141 2.333 0 3.746 1.61 3.746 3.977 0 .164-.016.345-.033.46h-6.145v.115a2.555 2.555 0 0 0 2.563 2.563c1.331 0 2.087-.739 2.399-1.66l1.134.411c-.444 1.364-1.709 2.465-3.533 2.465m2.251-5.012c-.065-1.166-.92-2.152-2.366-2.152-1.314 0-2.333 1.018-2.415 2.152zm9.738 3.484c-.378.821-1.249 1.528-2.695 1.528-2.234 0-3.664-1.84-3.664-4.174 0-2.284 1.512-4.157 3.73-4.157 1.495 0 2.301.707 2.596 1.413v-5.192h1.315v10.401c0 .789.049 1.315.082 1.479h-1.282a7.4 7.4 0 0 1-.082-1.134zm-2.497.329c1.544 0 2.497-1.249 2.497-2.975s-.936-2.957-2.497-2.957c-1.512 0-2.531 1.232-2.531 2.957 0 1.726 1.035 2.975 2.531 2.975"/><path fill="#fefefe" d="M28.544 28.201c-1.942 0-2.92-1.25-3.106-2.027l1.05-.431c.2.719.934 1.423 2.084 1.423.92 0 1.452-.431 1.452-.992 0-.503-.33-.805-1.092-.963l-1.337-.273c-1.294-.26-1.87-1.007-1.87-1.898 0-1.165 1.079-2.128 2.603-2.128 1.538 0 2.53.79 2.847 1.883l-.978.388c-.23-.661-.82-1.265-1.87-1.265-.876 0-1.466.417-1.466 1.035 0 .446.273.791.964.92l1.308.26c1.366.273 2.042.948 2.042 1.983 0 .964-.806 2.085-2.631 2.085m11.18-7.088v1.05h-2.631v3.666c0 .805.503 1.193 1.25 1.193.475 0 1.093-.086 1.381-.187v1.05c-.316.115-.805.23-1.51.23-1.423 0-2.271-.704-2.271-2.07v-3.883h-2.215v-1.05h1.136c.834 0 1.15-.43 1.15-1.192v-1.237h1.079v2.43zm5.933 7.088c-1.798 0-3.422-1.308-3.422-3.666 0-2.214 1.61-3.623 3.307-3.623 2.041 0 3.278 1.409 3.278 3.48 0 .143-.015.301-.029.402h-5.377v.1a2.236 2.236 0 0 0 2.242 2.243c1.165 0 1.827-.647 2.1-1.452l.992.36c-.388 1.193-1.495 2.156-3.091 2.156m1.97-4.385c-.058-1.02-.806-1.883-2.071-1.883-1.15 0-2.042.89-2.114 1.883zm3.444-2.703h1.122v1.15c.316-.704 1.093-1.351 2.387-1.351 2.056 0 3.192 1.61 3.192 3.637 0 2.056-1.237 3.652-3.25 3.652-1.222 0-1.984-.546-2.3-1.164v3.695h-1.15zm3.307 6.053c1.338 0 2.229-1.093 2.229-2.617s-.891-2.602-2.229-2.602c-1.322 0-2.185 1.078-2.185 2.602s.877 2.617 2.185 2.617m7.227-.259c0-.675.532-1.193 1.179-1.193.661 0 1.193.518 1.193 1.193 0 .676-.532 1.18-1.193 1.18a1.166 1.166 0 0 1-1.179-1.18m9.196-5.722h1.294l1.323 5.45.935-5.522h1.092L74.18 28H72.8l-1.38-5.593L70.097 28H68.73l-1.337-6.887h1.121l.978 5.521zm6.192 4.96c0-1.207.906-1.84 2.128-2.013l1.984-.287c.517-.072.618-.302.618-.618 0-.734-.546-1.28-1.653-1.28-1.079 0-1.769.604-1.855 1.395l-1.093-.23c.144-1.28 1.366-2.2 2.919-2.2 1.984 0 2.818 1.092 2.818 2.43v3.364c0 .575.086 1.078.144 1.294H81.88c-.043-.13-.13-.59-.13-1.035-.215.56-1.034 1.236-2.329 1.236-1.581 0-2.43-1.02-2.43-2.056m2.602 1.007c1.122 0 2.128-.647 2.128-2.028v-.488l-2.372.345c-.69.1-1.208.46-1.208 1.078 0 .59.431 1.093 1.452 1.093m6.134-.187h2.645v-4.817h-2.343v-1.035h3.494v5.852h2.645V28H85.73zm2.085-8.268a1.07 1.07 0 0 1 1.093-1.078c.589 0 1.063.474 1.063 1.078s-.474 1.093-1.064 1.093a1.083 1.083 0 0 1-1.092-1.093m12.259 2.416v1.05h-2.632v3.666c0 .805.504 1.193 1.251 1.193.475 0 1.093-.086 1.381-.187v1.05c-.317.115-.806.23-1.51.23-1.424 0-2.272-.704-2.272-2.07v-3.883h-2.214v-1.05h1.136c.834 0 1.15-.43 1.15-1.192v-1.237h1.078v2.43zm2.942-3.307h6.254v1.121h-5.061v3.552h4.687V23.6h-4.687V28h-1.193zM114.526 28.2c-1.984 0-3.451-1.524-3.451-3.652 0-2.113 1.467-3.637 3.451-3.637s3.45 1.524 3.45 3.637c0 2.128-1.466 3.652-3.45 3.652m0-1.05c1.236 0 2.286-.934 2.286-2.602 0-1.653-1.05-2.588-2.286-2.588-1.237 0-2.286.935-2.286 2.588 0 1.668 1.049 2.603 2.286 2.603m11.87-4.773a3.1 3.1 0 0 0-.963-.13c-1.423 0-2.185.806-2.185 2.387v2.344h2.171V28h-5.363v-1.02h2.041v-4.846h-1.826v-1.021h2.948v1.351c.402-1.063 1.409-1.452 2.228-1.452.504 0 .777.072.949.13zm2.64-4.572h5.953v1.121h-4.759v3.422h4.443v1.122h-4.443v3.407h4.759V28h-5.953zM139.728 28l-2.962-6.887h1.294l2.344 5.751 2.358-5.751h1.251L141.065 28zm9.383.201c-1.797 0-3.422-1.308-3.422-3.666 0-2.214 1.611-3.623 3.307-3.623 2.042 0 3.278 1.409 3.278 3.48 0 .143-.014.301-.028.402h-5.378v.1a2.237 2.237 0 0 0 2.243 2.243c1.165 0 1.826-.647 2.099-1.452l.993.36c-.389 1.193-1.496 2.156-3.092 2.156m1.97-4.385c-.057-1.02-.805-1.883-2.07-1.883-1.151 0-2.042.89-2.114 1.883zm3.618-2.703h1.121v1.006c.432-.82 1.294-1.207 2.243-1.207 1.797 0 2.66 1.222 2.66 2.746V28h-1.15v-4.112c0-.992-.446-1.898-1.783-1.898-1.093 0-1.941.82-1.941 2.142V28h-1.15zm14.343 0v1.05h-2.631v3.666c0 .805.503 1.193 1.251 1.193.475 0 1.093-.086 1.38-.187v1.05c-.316.115-.805.23-1.509.23-1.424 0-2.272-.704-2.272-2.07v-3.883h-2.214v-1.05h1.136c.834 0 1.15-.43 1.15-1.192v-1.237h1.078v2.43z"/><path stroke="#fff" d="M.5.5H577v316H.5zM0 47h577.5"/></svg>