<svg xmlns="http://www.w3.org/2000/svg" width="578" height="317" fill="none" viewBox="0 0 578 317"><path fill="#b392f0" d="M29.176 80.23c-2.152 0-3.993-1.627-3.993-4.174 0-2.58 1.906-4.157 3.977-4.157 2.136 0 3.286 1.232 3.615 2.498l-1.2.493c-.213-.822-.936-1.759-2.415-1.759-1.299 0-2.646.986-2.646 2.925 0 1.923 1.348 2.942 2.662 2.942 1.578 0 2.218-1.068 2.449-1.775l1.15.493c-.378 1.167-1.528 2.514-3.599 2.514m9.607 0c-2.268 0-3.944-1.742-3.944-4.174 0-2.415 1.676-4.157 3.944-4.157s3.943 1.742 3.943 4.157c0 2.432-1.676 4.174-3.943 4.174m0-1.2c1.413 0 2.612-1.068 2.612-2.974 0-1.89-1.2-2.957-2.613-2.957s-2.612 1.068-2.612 2.957c0 1.906 1.2 2.975 2.612 2.975m6.5-6.901h1.282v1.15c.493-.936 1.479-1.38 2.563-1.38 2.054 0 3.04 1.397 3.04 3.138V80h-1.314v-4.7c0-1.133-.51-2.169-2.038-2.169-1.249 0-2.218.937-2.218 2.449V80h-1.315zm13.468 8.101c-2.218 0-3.336-1.43-3.55-2.317l1.2-.493c.23.822 1.068 1.627 2.383 1.627 1.052 0 1.66-.493 1.66-1.134 0-.575-.378-.92-1.25-1.1l-1.528-.313c-1.478-.296-2.136-1.15-2.136-2.17 0-1.33 1.233-2.431 2.975-2.431 1.758 0 2.892.904 3.253 2.153l-1.117.443c-.263-.756-.937-1.446-2.136-1.446-1.003 0-1.677.477-1.677 1.183 0 .51.313.904 1.101 1.052l1.496.296c1.56.312 2.333 1.084 2.333 2.267 0 1.101-.92 2.383-3.007 2.383m12.778-8.101v1.2h-3.007v4.19c0 .92.575 1.364 1.43 1.364.542 0 1.248-.099 1.577-.214v1.2c-.362.131-.92.263-1.726.263-1.626 0-2.596-.806-2.596-2.367V73.33h-2.53v-1.2h1.298c.953 0 1.314-.493 1.314-1.364v-1.413h1.233v2.777zm101.71 5.751c0-1.38 1.035-2.103 2.431-2.3l2.268-.329c.592-.082.707-.345.707-.707 0-.837-.625-1.462-1.89-1.462-1.232 0-2.021.69-2.12 1.594l-1.249-.263c.165-1.462 1.561-2.514 3.336-2.514 2.268 0 3.221 1.249 3.221 2.777v3.845c0 .657.098 1.233.164 1.479h-1.282c-.049-.148-.147-.674-.147-1.183-.247.64-1.184 1.413-2.662 1.413-1.808 0-2.777-1.167-2.777-2.35m2.974 1.15c1.281 0 2.432-.739 2.432-2.316v-.56l-2.712.395c-.788.115-1.38.526-1.38 1.233 0 .673.493 1.249 1.66 1.249m9.655-6.819h1.479l1.512 6.228 1.068-6.31h1.249L189.73 80h-1.578l-1.577-6.392L185.063 80h-1.561l-1.528-7.871h1.282l1.117 6.31zm7.076 5.67c0-1.381 1.035-2.104 2.432-2.301l2.268-.329c.591-.082.706-.345.706-.707 0-.837-.624-1.462-1.889-1.462-1.233 0-2.021.69-2.12 1.594l-1.249-.263c.164-1.462 1.561-2.514 3.336-2.514 2.267 0 3.221 1.249 3.221 2.777v3.845c0 .657.098 1.233.164 1.479h-1.282c-.049-.148-.148-.674-.148-1.183-.246.64-1.183 1.413-2.662 1.413-1.807 0-2.777-1.167-2.777-2.35m2.974 1.15c1.282 0 2.432-.74 2.432-2.317v-.56l-2.711.395c-.789.115-1.38.526-1.38 1.233 0 .673.493 1.249 1.659 1.249m7.011-.214h3.023v-5.505h-2.678V72.13h3.993v6.688h3.023V80h-7.361zm2.382-9.449c0-.69.542-1.232 1.249-1.232.674 0 1.216.542 1.216 1.232s-.542 1.25-1.216 1.25a1.24 1.24 0 0 1-1.249-1.25m14.01 2.761v1.2h-3.007v4.19c0 .92.575 1.364 1.43 1.364.542 0 1.249-.099 1.577-.214v1.2c-.361.131-.92.263-1.725.263-1.627 0-2.596-.806-2.596-2.367V73.33h-2.531v-1.2h1.298c.953 0 1.315-.493 1.315-1.364v-1.413h1.232v2.777z"/><path fill="#fff" d="M153.27 73.131h7.493v1.101h-7.493zm0 3.172h7.493v1.117h-7.493zm188.913-1.512c0-3.714 1.725-6.162 3.681-7.74l.755.79c-1.971 1.692-3.253 3.86-3.253 6.95s1.282 5.258 3.253 6.95l-.755.79c-1.956-1.578-3.681-4.026-3.681-7.74M175.243 103.8c0-.739.559-1.314 1.381-1.314.805 0 1.511.608 1.511 1.807 0 2.515-1.791 3.665-3.335 3.878v-.936c1.331-.247 2.185-1.233 2.185-2.268a1.2 1.2 0 0 1-.493.115c-.706 0-1.249-.509-1.249-1.282M50.788 132.399c-1.693 0-2.613-.904-2.613-2.695v-2.087c0-1.331-.756-1.972-1.939-2.021v-1.643c1.183-.049 1.94-.707 1.94-2.021v-2.087c0-1.791.92-2.695 2.612-2.695h.805v1.068h-.64c-1.184 0-1.628.542-1.628 1.726v2.267c0 1.348-.755 2.416-2.284 2.564 1.529.131 2.284 1.216 2.284 2.563v2.268c0 1.183.477 1.725 1.627 1.725h.641v1.068zM273.772 153.8c0-.739.558-1.314 1.38-1.314.805 0 1.512.608 1.512 1.807 0 2.515-1.791 3.665-3.336 3.878v-.936c1.331-.247 2.185-1.233 2.185-2.268a1.2 1.2 0 0 1-.493.115c-.706 0-1.248-.509-1.248-1.282m-154.014 28.599c-1.693 0-2.613-.904-2.613-2.695v-2.087c0-1.331-.756-1.972-1.939-2.021v-1.643c1.183-.049 1.939-.707 1.939-2.021v-2.087c0-1.791.92-2.695 2.613-2.695h.805v1.068h-.641c-1.183 0-1.627.542-1.627 1.726v2.267c0 1.348-.756 2.416-2.284 2.564 1.528.131 2.284 1.216 2.284 2.563v2.268c0 1.183.477 1.725 1.627 1.725h.641v1.068zm271.574 0h-.805v-1.068h.641c1.15 0 1.626-.542 1.626-1.725v-2.268c0-1.347.756-2.432 2.284-2.563-1.528-.148-2.284-1.216-2.284-2.564v-2.267c0-1.184-.443-1.726-1.626-1.726h-.641v-1.068h.805c1.692 0 2.613.904 2.613 2.695v2.087c0 1.314.755 1.972 1.939 2.021v1.643c-1.184.049-1.939.69-1.939 2.021v2.087c0 1.791-.921 2.695-2.613 2.695m-344.85 25h-.804v-1.068h.64c1.15 0 1.627-.542 1.627-1.725v-2.268c0-1.347.756-2.432 2.284-2.563-1.528-.148-2.284-1.216-2.284-2.564v-2.267c0-1.184-.444-1.726-1.627-1.726h-.64v-1.068h.805c1.692 0 2.612.904 2.612 2.695v2.087c0 1.314.756 1.972 1.94 2.021v1.643c-1.184.049-1.94.69-1.94 2.021v2.087c0 1.791-.92 2.695-2.612 2.695m-15.515 17.392c0 3.714-1.725 6.162-3.68 7.74l-.756-.789c1.971-1.693 3.253-3.862 3.253-6.951s-1.282-5.258-3.253-6.951l.755-.788c1.956 1.577 3.681 4.025 3.681 7.739"/><path fill="#52b2fd" d="M91.76 73.575c-.213-.066-.542-.148-1.1-.148-1.627 0-2.498.92-2.498 2.728v2.678h2.48V80h-6.128v-1.167h2.333v-5.537H84.76v-1.167h3.369v1.545c.46-1.216 1.61-1.66 2.547-1.66.575 0 .887.082 1.084.148zm6.254 6.655c-2.053 0-3.91-1.495-3.91-4.19 0-2.53 1.84-4.141 3.779-4.141 2.333 0 3.747 1.61 3.747 3.977 0 .164-.017.345-.033.46h-6.146v.115c0 1.479 1.2 2.563 2.564 2.563 1.33 0 2.086-.74 2.399-1.66l1.133.411c-.443 1.364-1.709 2.465-3.532 2.465m2.252-5.012c-.066-1.166-.92-2.152-2.367-2.152-1.314 0-2.333 1.018-2.415 2.152zm7.749 5.012c-2.218 0-3.335-1.43-3.549-2.317l1.199-.493c.23.822 1.069 1.627 2.383 1.627 1.052 0 1.66-.493 1.66-1.134 0-.575-.378-.92-1.249-1.1l-1.528-.313c-1.479-.296-2.136-1.15-2.136-2.17 0-1.33 1.232-2.431 2.974-2.431 1.758 0 2.892.904 3.253 2.153l-1.117.443c-.263-.756-.937-1.446-2.136-1.446-1.003 0-1.676.477-1.676 1.183 0 .51.312.904 1.101 1.052l1.495.296c1.561.312 2.333 1.084 2.333 2.267 0 1.101-.92 2.383-3.007 2.383m11.529-1.298c-.378.805-1.347 1.298-2.432 1.298-2.005 0-3.023-1.347-3.023-3.155V72.13h1.314v4.733c0 1.133.543 2.169 2.005 2.169 1.331 0 2.07-.97 2.07-2.202v-4.7h1.315v6.228c0 .608.066 1.33.115 1.643h-1.265c-.066-.23-.099-.674-.099-1.068m4.233-.115h3.024v-9.514h-2.597V68.12h3.911v10.697h3.024V80h-7.362zM140.5 72.13v1.2h-3.007v4.19c0 .92.575 1.364 1.429 1.364.542 0 1.249-.099 1.578-.214v1.2c-.362.131-.921.263-1.726.263-1.627 0-2.596-.806-2.596-2.367V73.33h-2.531v-1.2h1.299c.953 0 1.314-.493 1.314-1.364v-1.413h1.233v2.777zm95.603 8.101c-2.218 0-3.336-1.43-3.549-2.317l1.199-.493c.23.822 1.068 1.627 2.383 1.627 1.052 0 1.66-.493 1.66-1.134 0-.575-.378-.92-1.249-1.1l-1.528-.313c-1.479-.296-2.137-1.15-2.137-2.17 0-1.33 1.233-2.431 2.975-2.431 1.758 0 2.892.904 3.253 2.153l-1.117.443c-.263-.756-.937-1.446-2.136-1.446-1.003 0-1.676.477-1.676 1.183 0 .51.312.904 1.1 1.052l1.496.296c1.561.312 2.333 1.084 2.333 2.267 0 1.101-.92 2.383-3.007 2.383m12.778-8.101v1.2h-3.007v4.19c0 .92.575 1.364 1.429 1.364.543 0 1.249-.099 1.578-.214v1.2c-.362.131-.92.263-1.726.263-1.626 0-2.596-.806-2.596-2.367V73.33h-2.53v-1.2h1.298c.953 0 1.314-.493 1.314-1.364v-1.413h1.233v2.777zm6.78 8.101c-2.054 0-3.911-1.495-3.911-4.19 0-2.53 1.84-4.141 3.779-4.141 2.334 0 3.747 1.61 3.747 3.977 0 .164-.017.345-.033.46h-6.146v.115c0 1.479 1.2 2.563 2.564 2.563 1.331 0 2.087-.74 2.399-1.66l1.134.411c-.444 1.364-1.709 2.465-3.533 2.465m2.251-5.012c-.066-1.166-.92-2.152-2.366-2.152-1.315 0-2.334 1.018-2.416 2.152zm3.937-3.089h1.282v1.315c.362-.806 1.249-1.545 2.728-1.545 2.35 0 3.648 1.84 3.648 4.157 0 2.35-1.413 4.174-3.714 4.174-1.397 0-2.268-.624-2.629-1.33v4.222h-1.315zm3.78 6.918c1.528 0 2.547-1.249 2.547-2.99 0-1.743-1.019-2.975-2.547-2.975-1.512 0-2.498 1.233-2.498 2.974s1.002 2.99 2.498 2.99m8.259-.296c0-.772.608-1.364 1.347-1.364a1.35 1.35 0 0 1 1.364 1.364c0 .772-.608 1.348-1.364 1.348a1.333 1.333 0 0 1-1.347-1.348M58.735 155H57.42v-6.688h-2.86v-1.183h2.86v-1.298c0-1.808 1.249-2.728 2.974-2.728.641 0 1.266.099 1.726.263v1.183c-.526-.164-1.069-.23-1.676-.23-.97 0-1.71.427-1.71 1.66v1.15h3.386v1.183h-3.385zm11.545-1.068c-.378.805-1.347 1.298-2.432 1.298-2.005 0-3.023-1.347-3.023-3.155v-4.946h1.314v4.732c0 1.134.542 2.17 2.005 2.17 1.33 0 2.07-.97 2.07-2.202v-4.7h1.315v6.228c0 .608.066 1.331.115 1.643h-1.266c-.065-.23-.098-.674-.098-1.068m4.562-6.803h1.281v1.15c.493-.936 1.48-1.38 2.564-1.38 2.054 0 3.04 1.397 3.04 3.139V155h-1.315v-4.7c0-1.133-.51-2.169-2.037-2.169-1.25 0-2.219.937-2.219 2.449V155h-1.314zm13.451 8.101c-2.153 0-3.993-1.627-3.993-4.174 0-2.58 1.906-4.157 3.977-4.157 2.136 0 3.286 1.232 3.615 2.498l-1.2.493c-.213-.822-.936-1.759-2.415-1.759-1.299 0-2.646.986-2.646 2.925 0 1.923 1.347 2.942 2.662 2.942 1.578 0 2.218-1.068 2.448-1.775l1.15.493c-.377 1.167-1.527 2.514-3.598 2.514m12.794-8.101v1.2H98.08v4.19c0 .92.575 1.364 1.43 1.364.542 0 1.249-.099 1.577-.214v1.2c-.361.131-.92.262-1.725.262-1.627 0-2.596-.805-2.596-2.366v-4.436h-2.53v-1.2h1.297c.953 0 1.315-.493 1.315-1.364v-1.413h1.232v2.777zm3.313 6.688h3.024v-5.505h-2.679v-1.183h3.993v6.688h3.024V155H104.4zm2.383-9.449c0-.69.542-1.232 1.249-1.232.673 0 1.216.542 1.216 1.232 0 .691-.543 1.249-1.216 1.249a1.237 1.237 0 0 1-1.249-1.249m10.822 10.862c-2.267 0-3.944-1.742-3.944-4.174 0-2.415 1.677-4.157 3.944-4.157s3.944 1.742 3.944 4.157c0 2.432-1.676 4.174-3.944 4.174m0-1.199c1.413 0 2.613-1.069 2.613-2.975 0-1.889-1.2-2.957-2.613-2.957s-2.613 1.068-2.613 2.957c0 1.906 1.2 2.975 2.613 2.975m6.501-6.902h1.282v1.15c.492-.936 1.478-1.38 2.563-1.38 2.054 0 3.04 1.397 3.04 3.139V155h-1.315v-4.7c0-1.133-.509-2.169-2.037-2.169-1.249 0-2.219.937-2.219 2.449V155h-1.314zm11.726 6.622c0-.772.608-1.364 1.347-1.364a1.35 1.35 0 0 1 1.364 1.364c0 .772-.608 1.348-1.364 1.348a1.333 1.333 0 0 1-1.347-1.348m0-5.521c0-.772.608-1.364 1.347-1.364a1.35 1.35 0 0 1 1.364 1.364c0 .772-.608 1.347-1.364 1.347a1.33 1.33 0 0 1-1.347-1.347m21.3 7c-2.055 0-3.911-1.495-3.911-4.19 0-2.531 1.84-4.141 3.779-4.141 2.333 0 3.747 1.61 3.747 3.977 0 .164-.017.345-.033.46h-6.146v.115c0 1.479 1.2 2.563 2.564 2.563 1.331 0 2.086-.739 2.399-1.66l1.133.411c-.443 1.364-1.709 2.465-3.532 2.465m2.251-5.012c-.066-1.166-.92-2.152-2.367-2.152-1.314 0-2.333 1.018-2.415 2.152zm4.134-3.089h1.282v1.15c.493-.936 1.479-1.38 2.563-1.38 2.054 0 3.04 1.397 3.04 3.139V155h-1.314v-4.7c0-1.133-.51-2.169-2.038-2.169-1.249 0-2.218.937-2.218 2.449V155h-1.315zm16.919 1.446c-.214-.066-.542-.148-1.101-.148-1.627 0-2.498.92-2.498 2.728v2.678h2.481V155h-6.129v-1.167h2.334v-5.537h-2.087v-1.167h3.368v1.545c.46-1.216 1.611-1.66 2.547-1.66.575 0 .888.082 1.085.148zm2.787 5.242h3.023v-5.505h-2.678v-1.183h3.993v6.688h3.023V155h-7.361zm2.382-9.449c0-.69.543-1.232 1.249-1.232.674 0 1.216.542 1.216 1.232 0 .691-.542 1.249-1.216 1.249a1.24 1.24 0 0 1-1.249-1.249m11.069 10.862c-2.152 0-3.993-1.627-3.993-4.174 0-2.58 1.906-4.157 3.977-4.157 2.136 0 3.286 1.232 3.615 2.498l-1.2.493c-.213-.822-.936-1.759-2.415-1.759-1.298 0-2.646.986-2.646 2.925 0 1.923 1.348 2.942 2.662 2.942 1.578 0 2.219-1.068 2.449-1.775l1.15.493c-.378 1.167-1.528 2.514-3.599 2.514m6.255-12.11h1.314v5.11c.509-.92 1.495-1.331 2.596-1.331 2.005 0 2.975 1.462 2.975 3.221V155h-1.315v-4.65c0-1.167-.493-2.219-2.021-2.219-1.265 0-2.235.937-2.235 2.482V155h-1.314zm10.181.23h1.38v10.352h5.982V155h-7.362zm12.991 11.88c-2.054 0-3.91-1.495-3.91-4.19 0-2.531 1.84-4.141 3.779-4.141 2.333 0 3.746 1.61 3.746 3.977 0 .164-.016.345-.032.46h-6.146v.115a2.555 2.555 0 0 0 2.563 2.563c1.331 0 2.087-.739 2.399-1.66l1.134.411c-.443 1.364-1.709 2.465-3.533 2.465m2.252-5.012c-.066-1.166-.921-2.152-2.367-2.152-1.314 0-2.333 1.018-2.415 2.152zm4.003 2.662c0-1.38 1.035-2.103 2.432-2.3l2.267-.329c.592-.082.707-.345.707-.706 0-.838-.625-1.463-1.89-1.463-1.232 0-2.021.69-2.12 1.594l-1.249-.263c.165-1.462 1.561-2.514 3.336-2.514 2.268 0 3.221 1.249 3.221 2.777v3.845c0 .657.098 1.233.164 1.479h-1.282c-.049-.148-.147-.674-.147-1.183-.247.641-1.184 1.413-2.662 1.413-1.808 0-2.777-1.167-2.777-2.35m2.974 1.151c1.281 0 2.432-.74 2.432-2.317v-.559l-2.712.394c-.788.115-1.38.526-1.38 1.233 0 .673.493 1.249 1.66 1.249m12.613-.329c-.378.821-1.249 1.528-2.695 1.528-2.234 0-3.664-1.84-3.664-4.174 0-2.284 1.512-4.157 3.73-4.157 1.495 0 2.301.707 2.596 1.413v-5.192h1.315v10.401c0 .789.049 1.315.082 1.479h-1.282a7 7 0 0 1-.082-1.134zm-2.497.329c1.544 0 2.497-1.249 2.497-2.975s-.936-2.957-2.497-2.957c-1.512 0-2.531 1.232-2.531 2.957 0 1.726 1.035 2.975 2.531 2.975m6.796-10.681h7.148v1.281h-5.784v4.059h5.357v1.282h-5.357V155h-1.364zm9.804 3.779h1.281v1.15c.493-.936 1.479-1.38 2.564-1.38 2.054 0 3.04 1.397 3.04 3.139V155h-1.315v-4.7c0-1.133-.509-2.169-2.038-2.169-1.248 0-2.218.937-2.218 2.449V155h-1.314zM60.739 178.702c-.378.821-1.248 1.528-2.694 1.528-2.235 0-3.665-1.84-3.665-4.174 0-2.284 1.512-4.157 3.73-4.157 1.495 0 2.3.707 2.596 1.413v-5.192h1.315v10.401c0 .789.05 1.315.082 1.479h-1.282a7 7 0 0 1-.082-1.134zm-2.497.329c1.544 0 2.497-1.249 2.497-2.975s-.936-2.957-2.497-2.957c-1.512 0-2.53 1.232-2.53 2.957 0 1.726 1.034 2.975 2.53 2.975m6.615-1.151c0-1.38 1.036-2.103 2.432-2.3l2.268-.329c.591-.082.706-.345.706-.706 0-.838-.624-1.463-1.89-1.463-1.232 0-2.02.69-2.119 1.594l-1.249-.263c.165-1.462 1.561-2.514 3.336-2.514 2.268 0 3.22 1.249 3.22 2.777v3.845c0 .657.1 1.233.165 1.479h-1.282c-.049-.148-.148-.674-.148-1.183-.246.641-1.183 1.413-2.662 1.413-1.807 0-2.777-1.167-2.777-2.35m2.975 1.151c1.281 0 2.432-.74 2.432-2.317v-.559l-2.712.394c-.789.115-1.38.526-1.38 1.233 0 .673.493 1.249 1.66 1.249m13.55-6.902v1.2h-3.007v4.19c0 .92.575 1.364 1.43 1.364.541 0 1.248-.099 1.577-.214v1.2c-.362.131-.92.262-1.726.262-1.627 0-2.596-.805-2.596-2.366v-4.436h-2.53v-1.2h1.298c.953 0 1.314-.493 1.314-1.364v-1.413h1.233v2.777zm3.181 5.751c0-1.38 1.035-2.103 2.432-2.3l2.268-.329c.591-.082.706-.345.706-.706 0-.838-.624-1.463-1.89-1.463-1.232 0-2.02.69-2.12 1.594l-1.248-.263c.164-1.462 1.561-2.514 3.336-2.514 2.267 0 3.22 1.249 3.22 2.777v3.845c0 .657.099 1.233.165 1.479H90.15c-.05-.148-.148-.674-.148-1.183-.246.641-1.183 1.413-2.662 1.413-1.808 0-2.777-1.167-2.777-2.35m2.974 1.151c1.282 0 2.432-.74 2.432-2.317v-.559l-2.711.394c-.789.115-1.38.526-1.38 1.233 0 .673.493 1.249 1.66 1.249m8.884-.28c0-.772.608-1.364 1.347-1.364a1.35 1.35 0 0 1 1.364 1.364c0 .772-.608 1.348-1.364 1.348-.74 0-1.347-.576-1.347-1.348m0-5.521c0-.772.608-1.364 1.347-1.364a1.35 1.35 0 0 1 1.364 1.364c0 .772-.608 1.347-1.364 1.347-.74 0-1.347-.575-1.347-1.347m37.209 5.587h3.024v-9.514h-2.597v-1.183h3.911v10.697h3.024V180h-7.362zm13.649 1.413c-2.054 0-3.911-1.495-3.911-4.19 0-2.531 1.84-4.141 3.779-4.141 2.334 0 3.747 1.61 3.747 3.977 0 .164-.017.345-.033.46h-6.146v.115c0 1.479 1.2 2.563 2.564 2.563 1.331 0 2.087-.739 2.399-1.66l1.134.411c-.444 1.364-1.709 2.465-3.533 2.465m2.251-5.012c-.066-1.166-.92-2.152-2.366-2.152-1.315 0-2.334 1.018-2.416 2.152zm4.003 2.662c0-1.38 1.035-2.103 2.432-2.3l2.267-.329c.592-.082.707-.345.707-.706 0-.838-.624-1.463-1.89-1.463-1.232 0-2.021.69-2.119 1.594l-1.249-.263c.164-1.462 1.561-2.514 3.335-2.514 2.268 0 3.221 1.249 3.221 2.777v3.845c0 .657.099 1.233.164 1.479h-1.281c-.05-.148-.148-.674-.148-1.183-.247.641-1.183 1.413-2.662 1.413-1.808 0-2.777-1.167-2.777-2.35m2.974 1.151c1.282 0 2.432-.74 2.432-2.317v-.559l-2.711.394c-.789.115-1.381.526-1.381 1.233 0 .673.493 1.249 1.66 1.249m12.614-.329c-.378.821-1.249 1.528-2.695 1.528-2.235 0-3.665-1.84-3.665-4.174 0-2.284 1.512-4.157 3.73-4.157 1.496 0 2.301.707 2.597 1.413v-5.192h1.314v10.401c0 .789.05 1.315.082 1.479h-1.281a7 7 0 0 1-.082-1.134zm-2.498.329c1.544 0 2.498-1.249 2.498-2.975s-.937-2.957-2.498-2.957c-1.512 0-2.531 1.232-2.531 2.957 0 1.726 1.036 2.975 2.531 2.975m10.789-.214h2.662V180h-6.704v-1.183h2.678v-9.284h-2.678v-1.183h6.704v1.183h-2.662zm11.414-.115c-.378.821-1.249 1.528-2.695 1.528-2.234 0-3.664-1.84-3.664-4.174 0-2.284 1.512-4.157 3.73-4.157 1.495 0 2.301.707 2.596 1.413v-5.192h1.315v10.401c0 .789.049 1.315.082 1.479h-1.282a7 7 0 0 1-.082-1.134zm-2.497.329c1.544 0 2.497-1.249 2.497-2.975s-.936-2.957-2.497-2.957c-1.512 0-2.531 1.232-2.531 2.957 0 1.726 1.035 2.975 2.531 2.975m8.62-.28c0-.772.608-1.364 1.347-1.364a1.35 1.35 0 0 1 1.364 1.364c0 .772-.608 1.348-1.364 1.348a1.333 1.333 0 0 1-1.347-1.348m0-5.521c0-.772.608-1.364 1.347-1.364a1.35 1.35 0 0 1 1.364 1.364c0 .772-.608 1.347-1.364 1.347a1.33 1.33 0 0 1-1.347-1.347m21.3 7c-2.055 0-3.911-1.495-3.911-4.19 0-2.531 1.84-4.141 3.779-4.141 2.333 0 3.747 1.61 3.747 3.977 0 .164-.017.345-.033.46h-6.146v.115c0 1.479 1.2 2.563 2.564 2.563 1.331 0 2.086-.739 2.399-1.66l1.133.411c-.443 1.364-1.709 2.465-3.532 2.465m2.251-5.012c-.066-1.166-.92-2.152-2.367-2.152-1.314 0-2.333 1.018-2.415 2.152zm6.73 4.782-3.385-7.871h1.479l2.679 6.573 2.695-6.573h1.429L226.759 180zm10.724.23c-2.054 0-3.911-1.495-3.911-4.19 0-2.531 1.841-4.141 3.78-4.141 2.333 0 3.746 1.61 3.746 3.977 0 .164-.016.345-.033.46h-6.145v.115a2.555 2.555 0 0 0 2.563 2.563c1.331 0 2.087-.739 2.399-1.66l1.134.411c-.444 1.364-1.709 2.465-3.533 2.465m2.251-5.012c-.065-1.166-.92-2.152-2.366-2.152-1.314 0-2.333 1.018-2.415 2.152zm4.135-3.089h1.282v1.15c.493-.936 1.478-1.38 2.563-1.38 2.054 0 3.04 1.397 3.04 3.139V180h-1.315v-4.7c0-1.133-.509-2.169-2.037-2.169-1.249 0-2.219.937-2.219 2.449V180h-1.314zm16.393 0v1.2h-3.007v4.19c0 .92.575 1.364 1.429 1.364.542 0 1.249-.099 1.578-.214v1.2c-.362.131-.921.262-1.726.262-1.626 0-2.596-.805-2.596-2.366v-4.436h-2.531v-1.2h1.299c.953 0 1.314-.493 1.314-1.364v-1.413h1.233v2.777zm5.301 6.622c0-.772.608-1.364 1.347-1.364a1.35 1.35 0 0 1 1.364 1.364c0 .772-.608 1.348-1.364 1.348a1.333 1.333 0 0 1-1.347-1.348m13.468-.049c-.378.821-1.249 1.528-2.695 1.528-2.235 0-3.665-1.84-3.665-4.174 0-2.284 1.512-4.157 3.731-4.157 1.495 0 2.3.707 2.596 1.413v-5.192h1.314v10.401c0 .789.05 1.315.083 1.479h-1.282a7 7 0 0 1-.082-1.134zm-2.498.329c1.545 0 2.498-1.249 2.498-2.975s-.937-2.957-2.498-2.957c-1.512 0-2.531 1.232-2.531 2.957 0 1.726 1.036 2.975 2.531 2.975m6.616-1.151c0-1.38 1.035-2.103 2.432-2.3l2.267-.329c.592-.082.707-.345.707-.706 0-.838-.625-1.463-1.89-1.463-1.232 0-2.021.69-2.12 1.594l-1.248-.263c.164-1.462 1.561-2.514 3.335-2.514 2.268 0 3.221 1.249 3.221 2.777v3.845c0 .657.099 1.233.164 1.479h-1.281c-.05-.148-.148-.674-.148-1.183-.247.641-1.183 1.413-2.662 1.413-1.808 0-2.777-1.167-2.777-2.35m2.974 1.151c1.282 0 2.432-.74 2.432-2.317v-.559l-2.711.394c-.789.115-1.381.526-1.381 1.233 0 .673.493 1.249 1.66 1.249m13.55-6.902v1.2h-3.007v4.19c0 .92.575 1.364 1.43 1.364.542 0 1.248-.099 1.577-.214v1.2c-.362.131-.92.262-1.725.262-1.627 0-2.597-.805-2.597-2.366v-4.436h-2.53v-1.2h1.298c.953 0 1.315-.493 1.315-1.364v-1.413h1.232v2.777zm3.181 5.751c0-1.38 1.036-2.103 2.432-2.3l2.268-.329c.592-.082.707-.345.707-.706 0-.838-.625-1.463-1.89-1.463-1.233 0-2.021.69-2.12 1.594l-1.249-.263c.165-1.462 1.561-2.514 3.336-2.514 2.268 0 3.221 1.249 3.221 2.777v3.845c0 .657.098 1.233.164 1.479h-1.282c-.049-.148-.148-.674-.148-1.183-.246.641-1.183 1.413-2.662 1.413-1.807 0-2.777-1.167-2.777-2.35m2.975 1.151c1.281 0 2.432-.74 2.432-2.317v-.559l-2.712.394c-.788.115-1.38.526-1.38 1.233 0 .673.493 1.249 1.66 1.249m8.998-.28c0-.772.608-1.364 1.347-1.364a1.35 1.35 0 0 1 1.364 1.364c0 .772-.608 1.348-1.364 1.348a1.333 1.333 0 0 1-1.347-1.348m7.536.066h3.023v-9.514h-2.596v-1.183h3.911v10.697h3.023V180h-7.361zm13.649 1.413c-2.054 0-3.911-1.495-3.911-4.19 0-2.531 1.84-4.141 3.779-4.141 2.333 0 3.747 1.61 3.747 3.977 0 .164-.017.345-.033.46h-6.146v.115c0 1.479 1.2 2.563 2.564 2.563 1.331 0 2.086-.739 2.399-1.66l1.133.411c-.443 1.364-1.709 2.465-3.532 2.465m2.251-5.012c-.066-1.166-.92-2.152-2.367-2.152-1.314 0-2.333 1.018-2.415 2.152zm4.003 2.662c0-1.38 1.035-2.103 2.432-2.3l2.267-.329c.592-.082.707-.345.707-.706 0-.838-.625-1.463-1.89-1.463-1.232 0-2.021.69-2.12 1.594l-1.248-.263c.164-1.462 1.561-2.514 3.335-2.514 2.268 0 3.221 1.249 3.221 2.777v3.845c0 .657.099 1.233.164 1.479h-1.281c-.05-.148-.148-.674-.148-1.183-.247.641-1.183 1.413-2.662 1.413-1.808 0-2.777-1.167-2.777-2.35m2.974 1.151c1.282 0 2.432-.74 2.432-2.317v-.559l-2.711.394c-.789.115-1.381.526-1.381 1.233 0 .673.493 1.249 1.66 1.249m12.613-.329c-.378.821-1.248 1.528-2.694 1.528-2.235 0-3.665-1.84-3.665-4.174 0-2.284 1.512-4.157 3.73-4.157 1.496 0 2.301.707 2.597 1.413v-5.192h1.314v10.401c0 .789.049 1.315.082 1.479h-1.281a7 7 0 0 1-.083-1.134zm-2.497.329c1.544 0 2.497-1.249 2.497-2.975s-.936-2.957-2.497-2.957c-1.512 0-2.531 1.232-2.531 2.957 0 1.726 1.035 2.975 2.531 2.975m10.789-.214h2.662V180h-6.704v-1.183h2.678v-9.284h-2.678v-1.183h6.704v1.183h-2.662zm11.414-.115c-.378.821-1.249 1.528-2.695 1.528-2.235 0-3.664-1.84-3.664-4.174 0-2.284 1.512-4.157 3.73-4.157 1.495 0 2.3.707 2.596 1.413v-5.192h1.315v10.401c0 .789.049 1.315.082 1.479h-1.282a7 7 0 0 1-.082-1.134zm-2.498.329c1.545 0 2.498-1.249 2.498-2.975s-.937-2.957-2.498-2.957c-1.511 0-2.53 1.232-2.53 2.957 0 1.726 1.035 2.975 2.53 2.975"/><path fill="#ce9178" d="M281.751 78.817h3.024v-5.505h-2.679V72.13h3.993v6.688h3.024V80h-7.362zm2.383-9.449c0-.69.542-1.232 1.249-1.232.673 0 1.216.542 1.216 1.232s-.543 1.25-1.216 1.25a1.24 1.24 0 0 1-1.249-1.25m7.47 2.761h1.282v1.15c.493-.936 1.479-1.38 2.563-1.38 2.054 0 3.04 1.397 3.04 3.138V80h-1.314v-4.7c0-1.133-.51-2.169-2.038-2.169-1.249 0-2.218.937-2.218 2.449V80h-1.315zM304.053 80l-3.385-7.871h1.479l2.678 6.573 2.695-6.573h1.43L305.581 80zm10.609.23c-2.268 0-3.944-1.742-3.944-4.174 0-2.415 1.676-4.157 3.944-4.157s3.944 1.742 3.944 4.157c0 2.432-1.677 4.174-3.944 4.174m0-1.2c1.413 0 2.613-1.068 2.613-2.974 0-1.89-1.2-2.957-2.613-2.957s-2.613 1.068-2.613 2.957c0 1.906 1.2 2.975 2.613 2.975m6.813.97V68.12h1.314v7.92l4.174-3.911h1.824l-3.566 3.303L328.869 80h-1.725l-2.909-3.648-1.446 1.347V80zm13.008.23c-2.054 0-3.911-1.495-3.911-4.19 0-2.53 1.84-4.141 3.779-4.141 2.333 0 3.747 1.61 3.747 3.977 0 .164-.017.345-.033.46h-6.146v.115c0 1.479 1.2 2.563 2.564 2.563 1.331 0 2.086-.74 2.399-1.66l1.133.411c-.443 1.364-1.709 2.465-3.532 2.465m2.251-5.012c-.066-1.166-.92-2.152-2.367-2.152-1.314 0-2.333 1.018-2.415 2.152z"/><path fill="#66bd8b" d="M49.342 93.958c-.97.18-1.71 1.002-1.742 1.824.05-.033.214-.083.41-.083.576 0 1.036.395 1.036 1.069 0 .591-.476 1.084-1.15 1.084s-1.265-.526-1.265-1.528c0-1.988 1.61-3.056 2.71-3.22zm2.958 0c-.97.18-1.71 1.002-1.742 1.824.05-.033.214-.083.41-.083.576 0 1.036.395 1.036 1.069 0 .591-.477 1.084-1.15 1.084-.674 0-1.266-.526-1.266-1.528 0-1.988 1.61-3.056 2.712-3.22zm6.303 11.272c-2.054 0-3.91-1.495-3.91-4.19 0-2.53 1.84-4.141 3.779-4.141 2.333 0 3.746 1.61 3.746 3.977 0 .164-.016.345-.033.46H56.04v.115c0 1.479 1.2 2.563 2.563 2.563 1.331 0 2.087-.739 2.4-1.66l1.133.411c-.444 1.364-1.709 2.465-3.533 2.465m2.251-5.012c-.065-1.166-.92-2.152-2.366-2.152-1.314 0-2.333 1.018-2.415 2.152zm4.135-3.089h1.281v1.15c.493-.936 1.48-1.38 2.564-1.38 2.054 0 3.04 1.397 3.04 3.139V105h-1.315v-4.7c0-1.133-.51-2.169-2.037-2.169-1.25 0-2.219.937-2.219 2.449V105H64.99zm16.918 1.446c-.213-.066-.542-.148-1.1-.148-1.627 0-2.498.92-2.498 2.728v2.678h2.481V105h-6.13v-1.167h2.334v-5.537h-2.087v-1.167h3.369v1.545c.46-1.216 1.61-1.66 2.547-1.66.575 0 .887.082 1.085.148zm2.788 5.242h3.023v-5.505H85.04V97.13h3.993v6.688h3.023V105h-7.361zm2.382-9.449c0-.69.542-1.232 1.249-1.232.674 0 1.216.542 1.216 1.232s-.542 1.25-1.216 1.25a1.24 1.24 0 0 1-1.249-1.25m11.069 10.862c-2.153 0-3.993-1.627-3.993-4.174 0-2.58 1.906-4.157 3.976-4.157 2.137 0 3.287 1.232 3.616 2.498l-1.2.493c-.214-.822-.937-1.759-2.416-1.759-1.298 0-2.645.986-2.645 2.925 0 1.923 1.347 2.942 2.662 2.942 1.577 0 2.218-1.068 2.448-1.775l1.151.493c-.378 1.167-1.529 2.514-3.6 2.514m6.254-12.11h1.315v5.11c.509-.92 1.495-1.331 2.596-1.331 2.005 0 2.974 1.462 2.974 3.221V105h-1.314v-4.65c0-1.167-.493-2.219-2.022-2.219-1.265 0-2.234.937-2.234 2.482V105H104.4zm10.362 6.589h5.686v1.15h-5.686zm9.015 4.108h3.024v-9.514h-2.597V93.12h3.911v10.697h3.024V105h-7.362zm13.649 1.413c-2.054 0-3.911-1.495-3.911-4.19 0-2.53 1.84-4.141 3.779-4.141 2.334 0 3.747 1.61 3.747 3.977 0 .164-.017.345-.033.46h-6.146v.115c0 1.479 1.2 2.563 2.564 2.563 1.331 0 2.087-.739 2.399-1.66l1.134.411c-.444 1.364-1.709 2.465-3.533 2.465m2.251-5.012c-.066-1.166-.92-2.152-2.366-2.152-1.315 0-2.334 1.018-2.416 2.152zm4.003 2.662c0-1.38 1.035-2.103 2.432-2.3l2.268-.329c.591-.082.706-.345.706-.707 0-.837-.624-1.462-1.889-1.462-1.233 0-2.022.69-2.12 1.594l-1.249-.263c.164-1.462 1.561-2.514 3.336-2.514 2.267 0 3.22 1.249 3.22 2.777v3.845c0 .657.099 1.233.165 1.479h-1.282c-.049-.148-.148-.674-.148-1.183-.246.641-1.183 1.413-2.662 1.413-1.807 0-2.777-1.167-2.777-2.35m2.974 1.151c1.282 0 2.432-.74 2.432-2.317v-.559l-2.711.394c-.789.115-1.38.526-1.38 1.233 0 .673.493 1.249 1.659 1.249m12.614-.329c-.378.821-1.249 1.528-2.695 1.528-2.235 0-3.665-1.84-3.665-4.174 0-2.284 1.512-4.157 3.731-4.157 1.495 0 2.3.707 2.596 1.413V93.12h1.314v10.401c0 .789.05 1.315.083 1.479h-1.282a7 7 0 0 1-.082-1.134zm-2.498.329c1.545 0 2.498-1.249 2.498-2.975s-.937-2.957-2.498-2.957c-1.512 0-2.531 1.232-2.531 2.957 0 1.726 1.036 2.975 2.531 2.975m10.412-6.935c.969-.18 1.708-1.002 1.741-1.824-.049.033-.213.082-.41.082-.576 0-1.036-.394-1.036-1.068 0-.591.477-1.084 1.151-1.084.673 0 1.265.526 1.265 1.528 0 1.988-1.611 3.056-2.711 3.22zm-2.958 0c.969-.18 1.709-1.002 1.742-1.824-.05.033-.214.082-.411.082-.575 0-1.035-.394-1.035-1.068 0-.591.476-1.084 1.15-1.084s1.265.526 1.265 1.528c0 1.988-1.61 3.056-2.711 3.22z"/><path fill="#636363" d="m24.296 255 7.904-11.65h1.38L25.676 255zm9.853 0 7.903-11.65h1.38L35.53 255zm20.856-11.65h4.37c2.153 0 3.5 1.479 3.5 3.418 0 1.955-1.347 3.401-3.5 3.401h-3.007V255h-1.364zm4.108 5.587c1.495 0 2.382-.871 2.382-2.153 0-1.331-.887-2.202-2.382-2.202h-2.745v4.355zm5.744 3.943c0-1.38 1.036-2.103 2.432-2.3l2.268-.329c.591-.082.706-.345.706-.706 0-.838-.624-1.463-1.89-1.463-1.232 0-2.02.69-2.119 1.594l-1.249-.263c.165-1.462 1.561-2.514 3.336-2.514 2.268 0 3.22 1.249 3.22 2.777v3.845c0 .657.1 1.233.165 1.479h-1.282c-.049-.148-.148-.674-.148-1.183-.246.641-1.183 1.413-2.662 1.413-1.807 0-2.777-1.167-2.777-2.35m2.975 1.151c1.281 0 2.432-.74 2.432-2.317v-.559l-2.712.394c-.789.115-1.38.526-1.38 1.233 0 .673.493 1.249 1.66 1.249m12.3-.099c-.377.805-1.347 1.298-2.431 1.298-2.005 0-3.024-1.347-3.024-3.155v-4.946h1.315v4.732c0 1.134.542 2.17 2.005 2.17 1.33 0 2.07-.97 2.07-2.202v-4.7h1.315v6.228c0 .608.065 1.331.115 1.643H80.23c-.065-.23-.098-.674-.098-1.068m8.177 1.298c-2.218 0-3.335-1.43-3.549-2.317l1.2-.493c.23.822 1.068 1.627 2.382 1.627 1.052 0 1.66-.493 1.66-1.134 0-.575-.378-.92-1.249-1.101l-1.528-.312c-1.479-.296-2.136-1.15-2.136-2.169 0-1.331 1.232-2.432 2.974-2.432 1.758 0 2.892.904 3.254 2.153l-1.118.443c-.263-.756-.936-1.446-2.136-1.446-1.002 0-1.676.477-1.676 1.183 0 .51.312.904 1.1 1.052l1.496.296c1.561.312 2.334 1.084 2.334 2.267 0 1.101-.92 2.383-3.007 2.383m9.706 0c-2.055 0-3.911-1.495-3.911-4.19 0-2.531 1.84-4.141 3.779-4.141 2.333 0 3.747 1.61 3.747 3.977 0 .164-.017.345-.033.46h-6.146v.115c0 1.479 1.2 2.563 2.564 2.563 1.33 0 2.086-.739 2.399-1.66l1.133.411c-.443 1.364-1.709 2.465-3.532 2.465m2.251-5.012c-.066-1.166-.92-2.152-2.367-2.152-1.314 0-2.333 1.018-2.415 2.152zm7.749 5.012c-2.218 0-3.335-1.43-3.549-2.317l1.199-.493c.23.822 1.069 1.627 2.383 1.627 1.052 0 1.66-.493 1.66-1.134 0-.575-.378-.92-1.249-1.101l-1.528-.312c-1.479-.296-2.136-1.15-2.136-2.169 0-1.331 1.232-2.432 2.974-2.432 1.758 0 2.892.904 3.253 2.153l-1.117.443c-.263-.756-.937-1.446-2.136-1.446-1.003 0-1.676.477-1.676 1.183 0 .51.312.904 1.101 1.052l1.495.296c1.561.312 2.333 1.084 2.333 2.267 0 1.101-.92 2.383-3.007 2.383m21.382-1.298c-.378.805-1.347 1.298-2.432 1.298-2.005 0-3.023-1.347-3.023-3.155v-4.946h1.314v4.732c0 1.134.542 2.17 2.005 2.17 1.331 0 2.07-.97 2.07-2.202v-4.7h1.315v6.228c0 .608.066 1.331.115 1.643h-1.265c-.066-.23-.099-.674-.099-1.068m4.562-6.803h1.281v1.15c.493-.936 1.479-1.38 2.564-1.38 2.054 0 3.04 1.397 3.04 3.139V255h-1.315v-4.7c0-1.133-.509-2.169-2.037-2.169-1.249 0-2.219.937-2.219 2.449V255h-1.314zm16.392 0v1.2h-3.007v4.19c0 .92.576 1.364 1.43 1.364.542 0 1.249-.099 1.577-.214v1.2c-.361.131-.92.262-1.725.262-1.627 0-2.596-.805-2.596-2.366v-4.436H143.5v-1.2h1.298c.953 0 1.315-.493 1.315-1.364v-1.413h1.232v2.777zm3.313 6.688h3.024v-5.505h-2.679v-1.183h3.993v6.688h3.024V255h-7.362zm2.383-9.449c0-.69.542-1.232 1.249-1.232.674 0 1.216.542 1.216 1.232 0 .691-.542 1.249-1.216 1.249a1.237 1.237 0 0 1-1.249-1.249m7.142 9.449h3.023v-9.514h-2.596v-1.183h3.911v10.697h3.023V255h-7.361zm23.501 1.413c-2.054 0-3.911-1.495-3.911-4.19 0-2.531 1.841-4.141 3.78-4.141 2.333 0 3.746 1.61 3.746 3.977 0 .164-.016.345-.033.46h-6.145v.115a2.555 2.555 0 0 0 2.563 2.563c1.331 0 2.087-.739 2.399-1.66l1.134.411c-.444 1.364-1.709 2.465-3.533 2.465m2.251-5.012c-.066-1.166-.92-2.152-2.366-2.152-1.315 0-2.333 1.018-2.416 2.152zm4.135-3.089h1.281v1.15c.493-.936 1.479-1.38 2.564-1.38 2.054 0 3.04 1.397 3.04 3.139V255h-1.315v-4.7c0-1.133-.509-2.169-2.037-2.169-1.249 0-2.219.937-2.219 2.449V255h-1.314zm16.918 1.446c-.213-.066-.542-.148-1.101-.148-1.626 0-2.497.92-2.497 2.728v2.678h2.481V255h-6.129v-1.167h2.333v-5.537h-2.087v-1.167h3.369v1.545c.46-1.216 1.61-1.66 2.547-1.66.575 0 .887.082 1.084.148zm2.787 5.242h3.024v-5.505h-2.679v-1.183h3.993v6.688h3.024V255h-7.362zm2.383-9.449c0-.69.542-1.232 1.249-1.232.674 0 1.216.542 1.216 1.232 0 .691-.542 1.249-1.216 1.249a1.237 1.237 0 0 1-1.249-1.249m11.069 10.862c-2.153 0-3.993-1.627-3.993-4.174 0-2.58 1.906-4.157 3.976-4.157 2.137 0 3.287 1.232 3.615 2.498l-1.199.493c-.214-.822-.937-1.759-2.416-1.759-1.298 0-2.645.986-2.645 2.925 0 1.923 1.347 2.942 2.662 2.942 1.577 0 2.218-1.068 2.448-1.775l1.15.493c-.378 1.167-1.528 2.514-3.598 2.514m6.254-12.11h1.315v5.11c.509-.92 1.495-1.331 2.596-1.331 2.005 0 2.974 1.462 2.974 3.221V255h-1.315v-4.65c0-1.167-.492-2.219-2.021-2.219-1.265 0-2.234.937-2.234 2.482V255h-1.315zm10.181.23h1.381v10.352h5.981V255h-7.362zm12.992 11.88c-2.054 0-3.911-1.495-3.911-4.19 0-2.531 1.84-4.141 3.779-4.141 2.334 0 3.747 1.61 3.747 3.977 0 .164-.017.345-.033.46h-6.146v.115c0 1.479 1.2 2.563 2.564 2.563 1.331 0 2.087-.739 2.399-1.66l1.134.411c-.444 1.364-1.709 2.465-3.533 2.465m2.251-5.012c-.066-1.166-.92-2.152-2.366-2.152-1.315 0-2.334 1.018-2.416 2.152zm4.003 2.662c0-1.38 1.035-2.103 2.432-2.3l2.268-.329c.591-.082.706-.345.706-.706 0-.838-.624-1.463-1.889-1.463-1.233 0-2.022.69-2.12 1.594l-1.249-.263c.164-1.462 1.561-2.514 3.336-2.514 2.267 0 3.22 1.249 3.22 2.777v3.845c0 .657.099 1.233.165 1.479h-1.282c-.049-.148-.148-.674-.148-1.183-.246.641-1.183 1.413-2.662 1.413-1.807 0-2.777-1.167-2.777-2.35m2.974 1.151c1.282 0 2.432-.74 2.432-2.317v-.559l-2.711.394c-.789.115-1.38.526-1.38 1.233 0 .673.493 1.249 1.659 1.249m12.614-.329c-.378.821-1.249 1.528-2.695 1.528-2.235 0-3.665-1.84-3.665-4.174 0-2.284 1.512-4.157 3.731-4.157 1.495 0 2.3.707 2.596 1.413v-5.192h1.314v10.401c0 .789.05 1.315.083 1.479h-1.282a7 7 0 0 1-.082-1.134zm-2.498.329c1.545 0 2.498-1.249 2.498-2.975s-.937-2.957-2.498-2.957c-1.512 0-2.531 1.232-2.531 2.957 0 1.726 1.036 2.975 2.531 2.975m6.796-10.681h7.148v1.281h-5.784v4.059h5.357v1.282h-5.357V255H281.8zm9.804 3.779h1.282v1.15c.493-.936 1.479-1.38 2.563-1.38 2.054 0 3.04 1.397 3.04 3.139V255h-1.314v-4.7c0-1.133-.51-2.169-2.038-2.169-1.249 0-2.218.937-2.218 2.449V255h-1.315zm23.304 8.101c-2.152 0-3.993-1.627-3.993-4.174 0-2.58 1.906-4.157 3.977-4.157 2.136 0 3.286 1.232 3.615 2.498l-1.2.493c-.213-.822-.936-1.759-2.415-1.759-1.298 0-2.646.986-2.646 2.925 0 1.923 1.348 2.942 2.662 2.942 1.578 0 2.219-1.068 2.449-1.775l1.15.493c-.378 1.167-1.528 2.514-3.599 2.514m9.607 0c-2.268 0-3.944-1.742-3.944-4.174 0-2.415 1.676-4.157 3.944-4.157s3.943 1.742 3.943 4.157c0 2.432-1.676 4.174-3.943 4.174m0-1.199c1.413 0 2.612-1.069 2.612-2.975 0-1.889-1.199-2.957-2.612-2.957s-2.613 1.068-2.613 2.957c0 1.906 1.2 2.975 2.613 2.975m7.01-5.949c.279-.756.887-1.101 1.627-1.101.739 0 1.38.395 1.544 1.265.296-.788.937-1.265 1.873-1.265 1.003 0 1.972.477 1.972 2.35V255h-1.232v-5.472c0-1.035-.411-1.364-1.068-1.364-.658 0-1.2.46-1.2 1.594V255h-1.216v-5.423c0-1.018-.394-1.413-1.051-1.413-.674 0-1.216.411-1.216 1.611V255h-1.233v-7.871h1.2zm9.146-.953h1.282v1.315c.361-.806 1.249-1.545 2.727-1.545 2.35 0 3.648 1.84 3.648 4.157 0 2.35-1.413 4.174-3.713 4.174-1.397 0-2.268-.624-2.629-1.331v4.223h-1.315zm3.779 6.918c1.529 0 2.547-1.249 2.547-2.991s-1.018-2.974-2.547-2.974c-1.511 0-2.497 1.232-2.497 2.974s1.002 2.991 2.497 2.991m5.942-.23h3.024v-9.514h-2.596v-1.183h3.91v10.697h3.024V255h-7.362zm13.649 1.413c-2.054 0-3.911-1.495-3.911-4.19 0-2.531 1.841-4.141 3.78-4.141 2.333 0 3.746 1.61 3.746 3.977 0 .164-.016.345-.033.46h-6.145v.115a2.555 2.555 0 0 0 2.563 2.563c1.331 0 2.087-.739 2.399-1.66l1.134.411c-.444 1.364-1.709 2.465-3.533 2.465m2.251-5.012c-.066-1.166-.92-2.152-2.366-2.152-1.315 0-2.333 1.018-2.416 2.152zm10.675-3.089v1.2h-3.007v4.19c0 .92.575 1.364 1.429 1.364.542 0 1.249-.099 1.578-.214v1.2c-.362.131-.921.262-1.726.262-1.626 0-2.596-.805-2.596-2.366v-4.436h-2.531v-1.2h1.299c.953 0 1.314-.493 1.314-1.364v-1.413h1.233v2.777zm6.78 8.101c-2.054 0-3.911-1.495-3.911-4.19 0-2.531 1.84-4.141 3.779-4.141 2.334 0 3.747 1.61 3.747 3.977 0 .164-.017.345-.033.46h-6.146v.115c0 1.479 1.2 2.563 2.564 2.563 1.331 0 2.087-.739 2.399-1.66l1.134.411c-.444 1.364-1.709 2.465-3.533 2.465m2.251-5.012c-.066-1.166-.92-2.152-2.366-2.152-1.315 0-2.334 1.018-2.416 2.152zm7.749 5.012c-2.218 0-3.335-1.43-3.549-2.317l1.2-.493c.23.822 1.068 1.627 2.382 1.627 1.052 0 1.66-.493 1.66-1.134 0-.575-.378-.92-1.249-1.101l-1.528-.312c-1.479-.296-2.136-1.15-2.136-2.169 0-1.331 1.232-2.432 2.974-2.432 1.758 0 2.892.904 3.253 2.153l-1.117.443c-.263-.756-.937-1.446-2.136-1.446-1.002 0-1.676.477-1.676 1.183 0 .51.312.904 1.101 1.052l1.495.296c1.561.312 2.333 1.084 2.333 2.267 0 1.101-.92 2.383-3.007 2.383M24.296 280l7.904-11.65h1.38L25.676 280zm9.853 0 7.903-11.65h1.38L35.53 280zm21.036-11.65h7.148v1.281H56.55v4.059h5.357v1.282H56.55V280h-1.364zm15.095 10.582c-.378.805-1.347 1.298-2.432 1.298-2.005 0-3.023-1.347-3.023-3.155v-4.946h1.314v4.732c0 1.134.542 2.17 2.005 2.17 1.33 0 2.07-.97 2.07-2.202v-4.7h1.315v6.228c0 .608.066 1.331.115 1.643h-1.266c-.065-.23-.098-.674-.098-1.068m4.233-.115h3.023v-9.514H74.94v-1.183h3.911v10.697h3.024V280h-7.362zm9.853 0h3.023v-9.514h-2.596v-1.183h3.91v10.697h3.024V280h-7.361zm16.195-6.688h1.446l-5.373 10.993h-1.462l2.152-4.322-3.533-6.671h1.529l2.695 5.258zm20.232 0v1.2h-3.007v4.19c0 .92.575 1.364 1.429 1.364.543 0 1.249-.099 1.578-.214v1.2c-.362.131-.92.262-1.725.262-1.627 0-2.597-.805-2.597-2.366v-4.436h-2.53v-1.2h1.298c.953 0 1.314-.493 1.314-1.364v-1.413h1.233v2.777zm9.327 0h1.446l-5.373 10.993h-1.463l2.153-4.322-3.533-6.671h1.528l2.695 5.258zm3.641 0h1.282v1.315c.362-.806 1.249-1.545 2.728-1.545 2.35 0 3.648 1.84 3.648 4.157 0 2.35-1.413 4.174-3.714 4.174-1.397 0-2.267-.624-2.629-1.331v4.223h-1.315zm3.78 6.918c1.528 0 2.547-1.249 2.547-2.991s-1.019-2.974-2.547-2.974c-1.512 0-2.498 1.232-2.498 2.974s1.003 2.991 2.498 2.991m9.738 1.183c-2.054 0-3.911-1.495-3.911-4.19 0-2.531 1.84-4.141 3.779-4.141 2.334 0 3.747 1.61 3.747 3.977 0 .164-.017.345-.033.46h-6.146v.115c0 1.479 1.2 2.563 2.564 2.563 1.331 0 2.087-.739 2.399-1.66l1.134.411c-.444 1.364-1.709 2.465-3.533 2.465m2.251-5.012c-.066-1.166-.92-2.152-2.366-2.152-1.315 0-2.334 1.018-2.416 2.152zm9.738 3.484c-.378.821-1.249 1.528-2.695 1.528-2.235 0-3.665-1.84-3.665-4.174 0-2.284 1.512-4.157 3.731-4.157 1.495 0 2.3.707 2.596 1.413v-5.192h1.314v10.401c0 .789.05 1.315.083 1.479h-1.282a7 7 0 0 1-.082-1.134zm-2.498.329c1.545 0 2.498-1.249 2.498-2.975s-.937-2.957-2.498-2.957c-1.512 0-2.531 1.232-2.531 2.957 0 1.726 1.036 2.975 2.531 2.975m8.62-.231c0-.739.559-1.314 1.381-1.314.805 0 1.511.608 1.511 1.807 0 2.515-1.791 3.665-3.335 3.878v-.936c1.331-.247 2.185-1.233 2.185-2.268a1.2 1.2 0 0 1-.493.115c-.706 0-1.249-.509-1.249-1.282m17.833.017h3.023v-5.505h-2.678v-1.183h3.993v6.688h3.023V280h-7.361zm2.382-9.449c0-.69.543-1.232 1.249-1.232.674 0 1.216.542 1.216 1.232 0 .691-.542 1.249-1.216 1.249a1.24 1.24 0 0 1-1.249-1.249m7.471 2.761h1.281v1.15c.493-.936 1.479-1.38 2.564-1.38 2.054 0 3.04 1.397 3.04 3.139V280h-1.315v-4.7c0-1.133-.509-2.169-2.037-2.169-1.249 0-2.219.937-2.219 2.449V280h-1.314zm15.456 6.573c-.378.821-1.249 1.528-2.695 1.528-2.235 0-3.664-1.84-3.664-4.174 0-2.284 1.511-4.157 3.73-4.157 1.495 0 2.3.707 2.596 1.413v-5.192h1.315v10.401c0 .789.049 1.315.082 1.479h-1.282a7 7 0 0 1-.082-1.134zm-2.498.329c1.545 0 2.498-1.249 2.498-2.975s-.937-2.957-2.498-2.957c-1.512 0-2.53 1.232-2.53 2.957 0 1.726 1.035 2.975 2.53 2.975m10.215 1.199c-2.055 0-3.911-1.495-3.911-4.19 0-2.531 1.84-4.141 3.779-4.141 2.333 0 3.747 1.61 3.747 3.977 0 .164-.017.345-.033.46h-6.146v.115c0 1.479 1.2 2.563 2.564 2.563 1.331 0 2.086-.739 2.399-1.66l1.133.411c-.443 1.364-1.709 2.465-3.532 2.465m2.251-5.012c-.066-1.166-.92-2.152-2.367-2.152-1.314 0-2.333 1.018-2.415 2.152zm3.937-3.089h1.282v1.315c.361-.806 1.249-1.545 2.727-1.545 2.35 0 3.648 1.84 3.648 4.157 0 2.35-1.413 4.174-3.713 4.174-1.397 0-2.268-.624-2.629-1.331v4.223h-1.315zm3.779 6.918c1.529 0 2.547-1.249 2.547-2.991s-1.018-2.974-2.547-2.974c-1.511 0-2.497 1.232-2.497 2.974s1.002 2.991 2.497 2.991m9.738 1.183c-2.054 0-3.911-1.495-3.911-4.19 0-2.531 1.841-4.141 3.78-4.141 2.333 0 3.746 1.61 3.746 3.977 0 .164-.016.345-.033.46h-6.145v.115a2.555 2.555 0 0 0 2.563 2.563c1.331 0 2.087-.739 2.399-1.66l1.134.411c-.444 1.364-1.709 2.465-3.533 2.465m2.251-5.012c-.065-1.166-.92-2.152-2.366-2.152-1.314 0-2.333 1.018-2.415 2.152zm4.135-3.089h1.282v1.15c.493-.936 1.478-1.38 2.563-1.38 2.054 0 3.04 1.397 3.04 3.139V280h-1.315v-4.7c0-1.133-.509-2.169-2.037-2.169-1.249 0-2.219.937-2.219 2.449V280h-1.314zm15.456 6.573c-.378.821-1.249 1.528-2.695 1.528-2.235 0-3.664-1.84-3.664-4.174 0-2.284 1.512-4.157 3.73-4.157 1.495 0 2.3.707 2.596 1.413v-5.192h1.315v10.401c0 .789.049 1.315.082 1.479h-1.282a7 7 0 0 1-.082-1.134zm-2.498.329c1.545 0 2.498-1.249 2.498-2.975s-.937-2.957-2.498-2.957c-1.511 0-2.53 1.232-2.53 2.957 0 1.726 1.035 2.975 2.53 2.975m10.215 1.199c-2.054 0-3.911-1.495-3.911-4.19 0-2.531 1.84-4.141 3.779-4.141 2.334 0 3.747 1.61 3.747 3.977 0 .164-.017.345-.033.46h-6.146v.115c0 1.479 1.2 2.563 2.564 2.563 1.331 0 2.087-.739 2.399-1.66l1.134.411c-.444 1.364-1.709 2.465-3.533 2.465m2.251-5.012c-.066-1.166-.92-2.152-2.366-2.152-1.315 0-2.334 1.018-2.416 2.152zm4.134-3.089h1.282v1.15c.493-.936 1.479-1.38 2.563-1.38 2.054 0 3.04 1.397 3.04 3.139V280h-1.314v-4.7c0-1.133-.51-2.169-2.038-2.169-1.249 0-2.218.937-2.218 2.449V280h-1.315zm16.393 0v1.2h-3.007v4.19c0 .92.575 1.364 1.43 1.364.542 0 1.249-.099 1.577-.214v1.2c-.361.131-.92.262-1.725.262-1.627 0-2.596-.805-2.596-2.366v-4.436h-2.531v-1.2h1.298c.953 0 1.315-.493 1.315-1.364v-1.413h1.232v2.777zm2.984 6.688h3.024v-9.514h-2.596v-1.183h3.91v10.697h3.024V280h-7.362zm16.196-6.688h1.446l-5.373 10.993h-1.463l2.153-4.322-3.533-6.671h1.528l2.695 5.258zm20.757 1.446c-.213-.066-.542-.148-1.101-.148-1.626 0-2.497.92-2.497 2.728v2.678h2.481V280h-6.129v-1.167h2.333v-5.537h-2.087v-1.167h3.369v1.545c.46-1.216 1.61-1.66 2.547-1.66.575 0 .887.082 1.084.148zm6.255 6.655c-2.054 0-3.911-1.495-3.911-4.19 0-2.531 1.84-4.141 3.779-4.141 2.333 0 3.747 1.61 3.747 3.977 0 .164-.017.345-.033.46h-6.146v.115c0 1.479 1.2 2.563 2.564 2.563 1.331 0 2.086-.739 2.399-1.66l1.133.411c-.443 1.364-1.709 2.465-3.532 2.465m2.251-5.012c-.066-1.166-.92-2.152-2.367-2.152-1.314 0-2.333 1.018-2.415 2.152zm10.674-3.089v1.2h-3.007v4.19c0 .92.575 1.364 1.43 1.364.542 0 1.249-.099 1.577-.214v1.2c-.361.131-.92.262-1.725.262-1.627 0-2.596-.805-2.596-2.366v-4.436h-2.531v-1.2h1.298c.953 0 1.315-.493 1.315-1.364v-1.413h1.232v2.777zm10.379 1.446c-.214-.066-.542-.148-1.101-.148-1.627 0-2.498.92-2.498 2.728v2.678h2.481V280h-6.129v-1.167h2.334v-5.537h-2.087v-1.167h3.368v1.545c.46-1.216 1.611-1.66 2.547-1.66.575 0 .888.082 1.085.148zm2.787 5.242h3.023v-5.505h-2.678v-1.183h3.993v6.688h3.023V280h-7.361zm2.383-9.449c0-.69.542-1.232 1.248-1.232.674 0 1.216.542 1.216 1.232 0 .691-.542 1.249-1.216 1.249a1.237 1.237 0 0 1-1.248-1.249m10.937 10.862c-2.054 0-3.911-1.495-3.911-4.19 0-2.531 1.84-4.141 3.779-4.141 2.334 0 3.747 1.61 3.747 3.977 0 .164-.017.345-.033.46h-6.146v.115c0 1.479 1.2 2.563 2.564 2.563 1.331 0 2.087-.739 2.399-1.66l1.134.411c-.444 1.364-1.709 2.465-3.533 2.465m2.251-5.012c-.066-1.166-.92-2.152-2.366-2.152-1.315 0-2.334 1.018-2.416 2.152zm9.738 3.484c-.378.821-1.249 1.528-2.695 1.528-2.235 0-3.664-1.84-3.664-4.174 0-2.284 1.511-4.157 3.73-4.157 1.495 0 2.3.707 2.596 1.413v-5.192h1.315v10.401c0 .789.049 1.315.082 1.479h-1.282a7 7 0 0 1-.082-1.134zm-2.498.329c1.545 0 2.498-1.249 2.498-2.975s-.937-2.957-2.498-2.957c-1.512 0-2.53 1.232-2.53 2.957 0 1.726 1.035 2.975 2.53 2.975"/><path fill="#fefefe" d="M28.544 28.201c-1.942 0-2.92-1.25-3.106-2.027l1.05-.431c.2.719.934 1.423 2.084 1.423.92 0 1.452-.431 1.452-.992 0-.503-.33-.805-1.092-.963l-1.337-.273c-1.294-.26-1.87-1.007-1.87-1.898 0-1.165 1.079-2.128 2.603-2.128 1.538 0 2.53.79 2.847 1.883l-.978.388c-.23-.661-.82-1.265-1.87-1.265-.876 0-1.466.417-1.466 1.035 0 .446.273.791.964.92l1.308.26c1.366.273 2.042.948 2.042 1.983 0 .964-.806 2.085-2.631 2.085m11.18-7.088v1.05h-2.631v3.666c0 .805.503 1.193 1.25 1.193.475 0 1.093-.086 1.381-.187v1.05c-.316.115-.805.23-1.51.23-1.423 0-2.271-.704-2.271-2.07v-3.883h-2.215v-1.05h1.136c.834 0 1.15-.43 1.15-1.192v-1.237h1.079v2.43zm5.933 7.088c-1.798 0-3.422-1.308-3.422-3.666 0-2.214 1.61-3.623 3.307-3.623 2.041 0 3.278 1.409 3.278 3.48 0 .143-.015.301-.029.402h-5.377v.1a2.236 2.236 0 0 0 2.242 2.243c1.165 0 1.827-.647 2.1-1.452l.992.36c-.388 1.193-1.495 2.156-3.091 2.156m1.97-4.385c-.058-1.02-.806-1.883-2.071-1.883-1.15 0-2.042.89-2.114 1.883zm3.444-2.703h1.122v1.15c.316-.704 1.093-1.351 2.387-1.351 2.056 0 3.192 1.61 3.192 3.637 0 2.056-1.237 3.652-3.25 3.652-1.222 0-1.984-.546-2.3-1.164v3.695h-1.15zm3.307 6.053c1.338 0 2.229-1.093 2.229-2.617s-.891-2.602-2.229-2.602c-1.322 0-2.185 1.078-2.185 2.602s.877 2.617 2.185 2.617m7.227-.259c0-.675.532-1.193 1.179-1.193.661 0 1.193.518 1.193 1.193 0 .676-.532 1.18-1.193 1.18a1.166 1.166 0 0 1-1.179-1.18m6.881.058h2.646v-4.817h-2.344v-1.035h3.494v5.852h2.646V28h-6.442zm2.085-8.268c0-.604.475-1.078 1.093-1.078.59 0 1.064.474 1.064 1.078s-.474 1.093-1.064 1.093a1.083 1.083 0 0 1-1.093-1.093m6.537 2.416h1.121v1.006c.431-.82 1.294-1.207 2.243-1.207 1.797 0 2.66 1.222 2.66 2.746V28h-1.15v-4.112c0-.992-.446-1.898-1.783-1.898-1.093 0-1.941.82-1.941 2.142V28h-1.15zM88 28l-2.962-6.887h1.294l2.343 5.751 2.358-5.751h1.251L89.338 28zm9.282.201c-1.984 0-3.45-1.524-3.45-3.652 0-2.113 1.466-3.637 3.45-3.637s3.451 1.524 3.451 3.637c0 2.128-1.467 3.652-3.45 3.652m0-1.05c1.237 0 2.286-.934 2.286-2.602 0-1.653-1.05-2.588-2.286-2.588s-2.286.935-2.286 2.588c0 1.668 1.05 2.603 2.286 2.603m5.962.849V17.605h1.15v6.93l3.652-3.422h1.596l-3.12 2.89L109.715 28h-1.51l-2.545-3.192-1.265 1.18V28zm11.381.201c-1.797 0-3.422-1.308-3.422-3.666 0-2.214 1.611-3.623 3.307-3.623 2.042 0 3.279 1.409 3.279 3.48 0 .143-.015.301-.029.402h-5.378v.1a2.237 2.237 0 0 0 2.243 2.243c1.165 0 1.826-.647 2.1-1.452l.992.36c-.389 1.193-1.496 2.156-3.092 2.156m1.97-4.385c-.057-1.02-.805-1.883-2.07-1.883-1.151 0-2.042.89-2.114 1.883z"/><path stroke="#fff" d="M.5.5H577v316H.5zM0 47h577.5"/></svg>