<svg xmlns="http://www.w3.org/2000/svg" width="578" height="265" fill="none" viewBox="0 0 578 265"><path fill="#b392f0" d="M29.176 80.23c-2.152 0-3.993-1.627-3.993-4.174 0-2.58 1.906-4.157 3.977-4.157 2.136 0 3.286 1.232 3.615 2.498l-1.2.493c-.213-.822-.936-1.759-2.415-1.759-1.299 0-2.646.986-2.646 2.925 0 1.923 1.348 2.942 2.662 2.942 1.578 0 2.218-1.068 2.449-1.775l1.15.493c-.378 1.167-1.528 2.514-3.599 2.514m9.607 0c-2.268 0-3.944-1.742-3.944-4.174 0-2.415 1.676-4.157 3.944-4.157s3.943 1.742 3.943 4.157c0 2.432-1.676 4.174-3.943 4.174m0-1.2c1.413 0 2.612-1.068 2.612-2.974 0-1.89-1.2-2.957-2.613-2.957s-2.612 1.068-2.612 2.957c0 1.906 1.2 2.975 2.612 2.975m6.5-6.901h1.282v1.15c.493-.936 1.479-1.38 2.563-1.38 2.054 0 3.04 1.397 3.04 3.138V80h-1.314v-4.7c0-1.133-.51-2.169-2.038-2.169-1.249 0-2.218.937-2.218 2.449V80h-1.315zm13.468 8.101c-2.218 0-3.336-1.43-3.55-2.317l1.2-.493c.23.822 1.068 1.627 2.383 1.627 1.052 0 1.66-.493 1.66-1.134 0-.575-.378-.92-1.25-1.1l-1.528-.313c-1.478-.296-2.136-1.15-2.136-2.17 0-1.33 1.233-2.431 2.975-2.431 1.758 0 2.892.904 3.253 2.153l-1.117.443c-.263-.756-.937-1.446-2.136-1.446-1.003 0-1.677.477-1.677 1.183 0 .51.313.904 1.101 1.052l1.496.296c1.56.312 2.333 1.084 2.333 2.267 0 1.101-.92 2.383-3.007 2.383m12.778-8.101v1.2h-3.007v4.19c0 .92.575 1.364 1.43 1.364.542 0 1.248-.099 1.577-.214v1.2c-.362.131-.92.263-1.726.263-1.626 0-2.596-.806-2.596-2.367V73.33h-2.53v-1.2h1.298c.953 0 1.314-.493 1.314-1.364v-1.413h1.233v2.777zm-26.376 30.75c0-1.38 1.035-2.103 2.432-2.3l2.267-.329c.592-.082.707-.345.707-.707 0-.837-.625-1.462-1.89-1.462-1.232 0-2.021.69-2.12 1.594l-1.248-.263c.164-1.462 1.56-2.514 3.335-2.514 2.268 0 3.221 1.249 3.221 2.777v3.845c0 .657.099 1.233.164 1.479h-1.28c-.05-.148-.148-.674-.148-1.183-.247.641-1.183 1.413-2.662 1.413-1.808 0-2.777-1.167-2.777-2.35m2.974 1.151c1.282 0 2.432-.74 2.432-2.317v-.559l-2.711.394c-.79.115-1.38.526-1.38 1.233 0 .673.492 1.249 1.659 1.249m9.656-6.82h1.478l1.512 6.228 1.068-6.31h1.25L61.642 105h-1.577l-1.578-6.392L56.976 105h-1.56l-1.529-7.871h1.282l1.117 6.31zm7.075 5.669c0-1.38 1.036-2.103 2.432-2.3l2.268-.329c.591-.082.706-.345.706-.707 0-.837-.624-1.462-1.89-1.462-1.232 0-2.02.69-2.119 1.594l-1.249-.263c.165-1.462 1.561-2.514 3.336-2.514 2.268 0 3.22 1.249 3.22 2.777v3.845c0 .657.1 1.233.165 1.479h-1.282c-.049-.148-.148-.674-.148-1.183-.246.641-1.183 1.413-2.662 1.413-1.807 0-2.777-1.167-2.777-2.35m2.975 1.151c1.281 0 2.432-.74 2.432-2.317v-.559l-2.712.394c-.789.115-1.38.526-1.38 1.233 0 .673.493 1.249 1.66 1.249m7.01-.214h3.023v-5.505h-2.678V97.13h3.993v6.688h3.023V105h-7.361zm2.382-9.449c0-.69.543-1.232 1.25-1.232.673 0 1.215.542 1.215 1.232s-.542 1.25-1.216 1.25a1.24 1.24 0 0 1-1.249-1.25m14.01 2.761v1.2h-3.007v4.19c0 .92.575 1.364 1.43 1.364.542 0 1.249-.099 1.578-.214v1.2c-.362.131-.92.262-1.726.262-1.627 0-2.596-.805-2.596-2.366v-4.436h-2.53v-1.2h1.297c.953 0 1.315-.493 1.315-1.364v-1.413h1.232v2.777z"/><path fill="#52b2fd" d="M98.146 80.23c-2.153 0-3.993-1.627-3.993-4.174 0-2.58 1.906-4.157 3.976-4.157 2.137 0 3.287 1.232 3.616 2.498l-1.2.493c-.214-.822-.937-1.759-2.416-1.759-1.298 0-2.645.986-2.645 2.925 0 1.923 1.347 2.942 2.662 2.942 1.577 0 2.218-1.068 2.448-1.775l1.151.493c-.378 1.167-1.529 2.514-3.6 2.514m5.926-1.413h3.023v-9.514h-2.596V68.12h3.911v10.697h3.023V80h-7.361zm13.648 1.413c-2.054 0-3.911-1.495-3.911-4.19 0-2.53 1.841-4.141 3.78-4.141 2.333 0 3.746 1.61 3.746 3.977 0 .164-.016.345-.033.46h-6.145v.115a2.555 2.555 0 0 0 2.563 2.563c1.331 0 2.087-.74 2.399-1.66l1.134.411c-.444 1.364-1.709 2.465-3.533 2.465m2.251-5.012c-.065-1.166-.92-2.152-2.366-2.152-1.314 0-2.333 1.018-2.415 2.152zm4.003 2.662c0-1.38 1.036-2.103 2.432-2.3l2.268-.329c.592-.082.707-.345.707-.707 0-.837-.625-1.462-1.89-1.462-1.233 0-2.021.69-2.12 1.594l-1.249-.263c.165-1.462 1.561-2.514 3.336-2.514 2.268 0 3.221 1.249 3.221 2.777v3.845c0 .657.098 1.233.164 1.479h-1.282c-.049-.148-.148-.674-.148-1.183-.246.64-1.183 1.413-2.662 1.413-1.807 0-2.777-1.167-2.777-2.35m2.975 1.15c1.281 0 2.432-.739 2.432-2.316v-.56l-2.712.395c-.789.115-1.38.526-1.38 1.233 0 .673.493 1.249 1.66 1.249m14.075-5.455c-.213-.066-.542-.148-1.1-.148-1.627 0-2.498.92-2.498 2.728v2.678h2.481V80h-6.129v-1.167h2.333v-5.537h-2.087v-1.167h3.369v1.545c.46-1.216 1.61-1.66 2.547-1.66.575 0 .887.082 1.084.148zm6.698 6.655c-1.396 0-2.3-.674-2.727-1.495V80h-1.282V68.12h1.314v5.192c.411-.706 1.249-1.413 2.695-1.413 2.367 0 3.648 1.857 3.648 4.157 0 2.35-1.331 4.174-3.648 4.174m-.197-1.2c1.545 0 2.514-1.232 2.514-2.974s-.953-2.957-2.514-2.957-2.53 1.215-2.53 2.957.986 2.975 2.53 2.975m6.139-.213h3.024v-5.505h-2.679V72.13h3.993v6.688h3.024V80h-7.362zm2.383-9.449c0-.69.542-1.232 1.249-1.232.674 0 1.216.542 1.216 1.232s-.542 1.25-1.216 1.25a1.24 1.24 0 0 1-1.249-1.25m14.01 2.761v1.2h-3.007v4.19c0 .92.575 1.364 1.43 1.364.542 0 1.248-.099 1.577-.214v1.2c-.361.131-.92.263-1.725.263-1.627 0-2.597-.806-2.597-2.367V73.33h-2.53v-1.2h1.298c.953 0 1.315-.493 1.315-1.364v-1.413h1.232v2.777zm5.186 6.671c0-.739.559-1.314 1.381-1.314.805 0 1.511.608 1.511 1.807 0 2.514-1.791 3.665-3.335 3.878v-.936c1.331-.247 2.185-1.233 2.185-2.268a1.2 1.2 0 0 1-.493.115c-.706 0-1.249-.51-1.249-1.281m17.504.017h3.024v-9.514h-2.597V68.12h3.911v10.697h3.024V80h-7.362zm10.182 0h3.023v-5.505h-2.678V72.13h3.993v6.688h3.023V80h-7.361zm2.382-9.449c0-.69.542-1.232 1.249-1.232.674 0 1.216.542 1.216 1.232s-.542 1.25-1.216 1.25a1.24 1.24 0 0 1-1.249-1.25m7.47 2.761h1.282v1.15c.493-.936 1.479-1.38 2.563-1.38 2.054 0 3.04 1.397 3.04 3.138V80h-1.314v-4.7c0-1.133-.51-2.169-2.038-2.169-1.249 0-2.218.937-2.218 2.449V80h-1.315zM222.946 80V68.12h1.315v7.92l4.174-3.911h1.824l-3.566 3.303L230.341 80h-1.726l-2.908-3.648-1.446 1.347V80zm13.008.23c-2.054 0-3.911-1.495-3.911-4.19 0-2.53 1.841-4.141 3.78-4.141 2.333 0 3.746 1.61 3.746 3.977 0 .164-.016.345-.033.46h-6.145v.115a2.555 2.555 0 0 0 2.563 2.563c1.331 0 2.087-.74 2.399-1.66l1.134.411c-.444 1.364-1.709 2.465-3.533 2.465m2.251-5.012c-.065-1.166-.92-2.152-2.366-2.152-1.314 0-2.333 1.018-2.415 2.152zm9.738 3.484c-.378.822-1.249 1.528-2.695 1.528-2.234 0-3.664-1.84-3.664-4.174 0-2.284 1.512-4.157 3.73-4.157 1.495 0 2.301.707 2.596 1.413V68.12h1.315v10.4c0 .789.049 1.315.082 1.479h-1.282a7 7 0 0 1-.082-1.134zm-2.497.329c1.544 0 2.497-1.25 2.497-2.975s-.936-2.957-2.497-2.957c-1.512 0-2.531 1.232-2.531 2.957 0 1.726 1.035 2.975 2.531 2.975m6.747-.214h3.023v-5.505h-2.678V72.13h3.993v6.688h3.023V80h-7.361zm2.382-9.449c0-.69.543-1.232 1.249-1.232.674 0 1.216.542 1.216 1.232s-.542 1.25-1.216 1.25a1.24 1.24 0 0 1-1.249-1.25m7.471 2.761h1.281v1.15c.493-.936 1.479-1.38 2.564-1.38 2.054 0 3.04 1.397 3.04 3.138V80h-1.315v-4.7c0-1.133-.509-2.169-2.038-2.169-1.248 0-2.218.937-2.218 2.449V80h-1.314zm11.726 6.671c0-.739.558-1.314 1.38-1.314.805 0 1.512.608 1.512 1.807 0 2.514-1.791 3.665-3.336 3.878v-.936c1.331-.247 2.185-1.233 2.185-2.268a1.2 1.2 0 0 1-.493.115c-.706 0-1.248-.51-1.248-1.281m21.431 1.43c-2.153 0-3.993-1.627-3.993-4.174 0-2.58 1.906-4.157 3.976-4.157 2.136 0 3.287 1.232 3.615 2.498l-1.199.493c-.214-.822-.937-1.759-2.416-1.759-1.298 0-2.645.986-2.645 2.925 0 1.923 1.347 2.942 2.662 2.942 1.577 0 2.218-1.068 2.448-1.775l1.15.493c-.378 1.167-1.528 2.514-3.598 2.514m13.32-6.655c-.214-.066-.543-.148-1.101-.148-1.627 0-2.498.92-2.498 2.728v2.678h2.481V80h-6.129v-1.167h2.333v-5.537h-2.086v-1.167h3.368v1.545c.46-1.216 1.61-1.66 2.547-1.66.575 0 .887.082 1.085.148zm3.296-.493c.279-.756.887-1.1 1.627-1.1.739 0 1.38.394 1.544 1.264.296-.788.937-1.265 1.874-1.265 1.002 0 1.972.477 1.972 2.35V80h-1.233v-5.472c0-1.035-.411-1.364-1.068-1.364s-1.199.46-1.199 1.594V80h-1.216v-5.423c0-1.018-.395-1.413-1.052-1.413-.674 0-1.216.411-1.216 1.61V80h-1.232v-7.871h1.199z"/><path fill="#fff" d="M86.403 67.15h4.371v1.068h-3.22v13.097h3.22v1.068h-4.37zm235.384 0h4.371v15.233h-4.371v-1.068h3.221V68.218h-3.221zm18.687 5.981h7.493v1.101h-7.493zm0 3.172h7.493v1.117h-7.493zM175.358 103.75c0-.772.608-1.364 1.348-1.364a1.35 1.35 0 0 1 1.364 1.364c0 .772-.608 1.348-1.364 1.348-.74 0-1.348-.576-1.348-1.348m38.738-3.96c0-3.714 1.725-6.162 3.681-7.74l.756.79c-1.972 1.692-3.254 3.86-3.254 6.95 0 3.089 1.282 5.258 3.254 6.951l-.756.789c-1.956-1.578-3.681-4.026-3.681-7.74m10.247-7.64h4.371v1.067h-3.221v13.097h3.221v1.068h-4.371zm29.723 36.649c0-.739.559-1.314 1.38-1.314.805 0 1.512.608 1.512 1.807 0 2.515-1.791 3.665-3.336 3.878v-.936c1.331-.247 2.186-1.233 2.186-2.268a1.2 1.2 0 0 1-.493.115c-.707 0-1.249-.509-1.249-1.282m21.431 1.2h-1.315v-6.688h-2.859v-1.183h2.859v-1.298c0-1.808 1.249-2.728 2.975-2.728.64 0 1.265.099 1.725.263v1.183c-.526-.164-1.068-.23-1.676-.23-.97 0-1.709.427-1.709 1.66v1.15h3.385v1.183h-3.385zm9.721.23c-2.054 0-3.91-1.495-3.91-4.19 0-2.531 1.84-4.141 3.779-4.141 2.333 0 3.746 1.61 3.746 3.977 0 .164-.016.345-.032.46h-6.146v.115a2.555 2.555 0 0 0 2.563 2.563c1.331 0 2.087-.739 2.399-1.66l1.134.411c-.443 1.364-1.709 2.465-3.533 2.465m2.252-5.012c-.066-1.166-.921-2.152-2.367-2.152-1.314 0-2.333 1.018-2.415 2.152zm10.674-3.089v1.2h-3.007v4.19c0 .92.575 1.364 1.43 1.364.542 0 1.248-.099 1.577-.214v1.2c-.362.131-.92.262-1.725.262-1.627 0-2.597-.805-2.597-2.366v-4.436h-2.53v-1.2h1.298c.953 0 1.315-.493 1.315-1.364v-1.413h1.232v2.777zm6.911 8.101c-2.152 0-3.993-1.627-3.993-4.174 0-2.58 1.907-4.157 3.977-4.157 2.136 0 3.286 1.232 3.615 2.498l-1.199.493c-.214-.822-.937-1.759-2.416-1.759-1.298 0-2.646.986-2.646 2.925 0 1.923 1.348 2.942 2.662 2.942 1.578 0 2.219-1.068 2.449-1.775l1.15.493c-.378 1.167-1.528 2.514-3.599 2.514m6.255-12.11h1.314v5.11c.51-.92 1.496-1.331 2.597-1.331 2.004 0 2.974 1.462 2.974 3.221V130h-1.315v-4.65c0-1.167-.493-2.219-2.021-2.219-1.265 0-2.235.937-2.235 2.482V130h-1.314zm13.533 0c2.892 0 3.73 2.415 3.845 3.598l-1.347.247c-.214-1.266-.838-2.547-2.547-2.547-1.725 0-2.958 1.528-2.958 4.749s1.233 4.765 2.925 4.765c1.758 0 2.35-1.43 2.514-2.629l1.315.213c-.099 1.184-.97 3.714-3.812 3.714-2.515 0-4.322-2.07-4.322-6.063 0-3.977 1.873-6.047 4.387-6.047m5.844 10.697h3.023v-9.514h-2.596v-1.183h3.911v10.697h3.023V130h-7.361zm13.648 1.413c-2.054 0-3.91-1.495-3.91-4.19 0-2.531 1.84-4.141 3.779-4.141 2.333 0 3.746 1.61 3.746 3.977 0 .164-.016.345-.032.46h-6.146v.115a2.555 2.555 0 0 0 2.563 2.563c1.331 0 2.087-.739 2.399-1.66l1.134.411c-.443 1.364-1.709 2.465-3.533 2.465m2.252-5.012c-.066-1.166-.921-2.152-2.367-2.152-1.314 0-2.333 1.018-2.415 2.152zm4.003 2.662c0-1.38 1.035-2.103 2.432-2.3l2.267-.329c.592-.082.707-.345.707-.706 0-.838-.625-1.463-1.89-1.463-1.232 0-2.021.69-2.12 1.594l-1.249-.263c.165-1.462 1.562-2.514 3.336-2.514 2.268 0 3.221 1.249 3.221 2.777v3.845c0 .657.098 1.233.164 1.479h-1.282c-.049-.148-.147-.674-.147-1.183-.247.641-1.184 1.413-2.662 1.413-1.808 0-2.777-1.167-2.777-2.35m2.974 1.151c1.281 0 2.432-.74 2.432-2.317v-.559l-2.712.394c-.788.115-1.38.526-1.38 1.233 0 .673.493 1.249 1.66 1.249m14.076-5.456c-.214-.066-.543-.148-1.101-.148-1.627 0-2.498.92-2.498 2.728v2.678h2.481V130h-6.129v-1.167h2.333v-5.537h-2.086v-1.167h3.368v1.545c.46-1.216 1.611-1.66 2.547-1.66.575 0 .887.082 1.085.148zm6.698 6.655c-1.397 0-2.301-.674-2.728-1.495V130h-1.282v-11.88h1.315v5.192c.41-.706 1.249-1.413 2.695-1.413 2.366 0 3.647 1.857 3.647 4.157 0 2.35-1.331 4.174-3.647 4.174m-.198-1.199c1.545 0 2.514-1.233 2.514-2.975s-.953-2.957-2.514-2.957-2.53 1.215-2.53 2.957.986 2.975 2.53 2.975m6.14-.214h3.023v-5.505h-2.678v-1.183h3.993v6.688h3.023V130h-7.361zm2.382-9.449c0-.69.542-1.232 1.249-1.232.674 0 1.216.542 1.216 1.232 0 .691-.542 1.249-1.216 1.249a1.237 1.237 0 0 1-1.249-1.249m14.01 2.761v1.2h-3.007v4.19c0 .92.575 1.364 1.43 1.364.542 0 1.249-.099 1.577-.214v1.2c-.361.131-.92.262-1.725.262-1.627 0-2.596-.805-2.596-2.366v-4.436h-2.531v-1.2h1.298c.953 0 1.315-.493 1.315-1.364v-1.413h1.232v2.777zm8.703 2.662c0 3.714-1.725 6.162-3.681 7.74l-.756-.789c1.972-1.693 3.254-3.862 3.254-6.951s-1.282-5.258-3.254-6.951l.756-.788c1.956 1.577 3.681 4.025 3.681 7.739m6.336 4.009c0-.739.559-1.314 1.381-1.314.805 0 1.511.608 1.511 1.807 0 2.515-1.791 3.665-3.335 3.878v-.936c1.331-.247 2.185-1.233 2.185-2.268a1.2 1.2 0 0 1-.493.115c-.706 0-1.249-.509-1.249-1.282m-157.645 25c0-.739.559-1.314 1.38-1.314.805 0 1.512.608 1.512 1.807 0 2.515-1.791 3.665-3.336 3.878v-.936c1.331-.247 2.186-1.233 2.186-2.268a1.2 1.2 0 0 1-.493.115c-.707 0-1.249-.509-1.249-1.282m21.431 1.2h-1.315v-6.688h-2.859v-1.183h2.859v-1.298c0-1.808 1.249-2.728 2.975-2.728.64 0 1.265.099 1.725.263v1.183c-.526-.164-1.068-.23-1.676-.23-.97 0-1.709.427-1.709 1.66v1.15h3.385v1.183h-3.385zm9.721.23c-2.054 0-3.91-1.495-3.91-4.19 0-2.531 1.84-4.141 3.779-4.141 2.333 0 3.746 1.61 3.746 3.977 0 .164-.016.345-.032.46h-6.146v.115a2.555 2.555 0 0 0 2.563 2.563c1.331 0 2.087-.739 2.399-1.66l1.134.411c-.443 1.364-1.709 2.465-3.533 2.465m2.252-5.012c-.066-1.166-.921-2.152-2.367-2.152-1.314 0-2.333 1.018-2.415 2.152zm10.674-3.089v1.2h-3.007v4.19c0 .92.575 1.364 1.43 1.364.542 0 1.248-.099 1.577-.214v1.2c-.362.131-.92.262-1.725.262-1.627 0-2.597-.805-2.597-2.366v-4.436h-2.53v-1.2h1.298c.953 0 1.315-.493 1.315-1.364v-1.413h1.232v2.777zm6.911 8.101c-2.152 0-3.993-1.627-3.993-4.174 0-2.58 1.907-4.157 3.977-4.157 2.136 0 3.286 1.232 3.615 2.498l-1.199.493c-.214-.822-.937-1.759-2.416-1.759-1.298 0-2.646.986-2.646 2.925 0 1.923 1.348 2.942 2.662 2.942 1.578 0 2.219-1.068 2.449-1.775l1.15.493c-.378 1.167-1.528 2.514-3.599 2.514m6.255-12.11h1.314v5.11c.51-.92 1.496-1.331 2.597-1.331 2.004 0 2.974 1.462 2.974 3.221V155h-1.315v-4.65c0-1.167-.493-2.219-2.021-2.219-1.265 0-2.235.937-2.235 2.482V155h-1.314zm10.181.23h1.38v10.352h5.982V155h-7.362zm9.524 10.467h3.024v-5.505h-2.679v-1.183h3.993v6.688h3.024V155h-7.362zm2.383-9.449c0-.69.542-1.232 1.249-1.232.674 0 1.216.542 1.216 1.232 0 .691-.542 1.249-1.216 1.249a1.237 1.237 0 0 1-1.249-1.249m7.47 2.761h1.282v1.15c.493-.936 1.479-1.38 2.563-1.38 2.054 0 3.04 1.397 3.04 3.139V155h-1.314v-4.7c0-1.133-.51-2.169-2.038-2.169-1.249 0-2.218.937-2.218 2.449V155h-1.315zM351.033 155v-11.88h1.315v7.92l4.174-3.911h1.824l-3.566 3.303 3.648 4.568h-1.726l-2.908-3.648-1.446 1.348v2.3zm13.008.23c-2.054 0-3.911-1.495-3.911-4.19 0-2.531 1.841-4.141 3.78-4.141 2.333 0 3.746 1.61 3.746 3.977 0 .164-.016.345-.033.46h-6.145v.115a2.555 2.555 0 0 0 2.563 2.563c1.331 0 2.087-.739 2.399-1.66l1.134.411c-.444 1.364-1.709 2.465-3.533 2.465m2.251-5.012c-.066-1.166-.92-2.152-2.366-2.152-1.315 0-2.333 1.018-2.416 2.152zm9.738 3.484c-.378.821-1.249 1.528-2.695 1.528-2.235 0-3.664-1.84-3.664-4.174 0-2.284 1.512-4.157 3.73-4.157 1.495 0 2.3.707 2.596 1.413v-5.192h1.315v10.401c0 .789.049 1.315.082 1.479h-1.282a7 7 0 0 1-.082-1.134zm-2.498.329c1.545 0 2.498-1.249 2.498-2.975s-.937-2.957-2.498-2.957c-1.511 0-2.53 1.232-2.53 2.957 0 1.726 1.035 2.975 2.53 2.975m10.79-.214h2.662V155h-6.704v-1.183h2.678v-9.284h-2.678v-1.183h6.704v1.183h-2.662zm5.81-6.688h1.282v1.15c.493-.936 1.479-1.38 2.563-1.38 2.054 0 3.04 1.397 3.04 3.139V155h-1.314v-4.7c0-1.133-.51-2.169-2.038-2.169-1.249 0-2.218.937-2.218 2.449V155h-1.315zm15.243 2.662c0 3.714-1.725 6.162-3.681 7.74l-.756-.789c1.972-1.693 3.254-3.862 3.254-6.951s-1.282-5.258-3.254-6.951l.756-.788c1.956 1.577 3.681 4.025 3.681 7.739m6.336 4.009c0-.739.559-1.314 1.381-1.314.805 0 1.511.608 1.511 1.807 0 2.515-1.791 3.665-3.335 3.878v-.936c1.331-.247 2.185-1.233 2.185-2.268a1.2 1.2 0 0 1-.493.115c-.706 0-1.249-.509-1.249-1.282m-206.909 25c0-.739.558-1.314 1.38-1.314.805 0 1.512.608 1.512 1.807 0 2.515-1.791 3.665-3.336 3.878v-.936c1.331-.247 2.186-1.233 2.186-2.268a1.2 1.2 0 0 1-.493.115c-.707 0-1.249-.509-1.249-1.282m21.431 1.2h-1.315v-6.688h-2.859v-1.183h2.859v-1.298c0-1.808 1.249-2.728 2.974-2.728.641 0 1.266.099 1.726.263v1.183c-.526-.164-1.068-.23-1.676-.23-.97 0-1.709.427-1.709 1.66v1.15h3.385v1.183h-3.385zm9.721.23c-2.054 0-3.911-1.495-3.911-4.19 0-2.531 1.841-4.141 3.78-4.141 2.333 0 3.746 1.61 3.746 3.977 0 .164-.016.345-.033.46h-6.145v.115a2.555 2.555 0 0 0 2.563 2.563c1.331 0 2.087-.739 2.399-1.66l1.134.411c-.444 1.364-1.709 2.465-3.533 2.465m2.251-5.012c-.065-1.166-.92-2.152-2.366-2.152-1.314 0-2.333 1.018-2.415 2.152zm10.675-3.089v1.2h-3.007v4.19c0 .92.575 1.364 1.429 1.364.543 0 1.249-.099 1.578-.214v1.2c-.362.131-.92.262-1.726.262-1.626 0-2.596-.805-2.596-2.366v-4.436h-2.53v-1.2h1.298c.953 0 1.314-.493 1.314-1.364v-1.413h1.233v2.777zm6.911 8.101c-2.152 0-3.993-1.627-3.993-4.174 0-2.58 1.906-4.157 3.977-4.157 2.136 0 3.286 1.232 3.615 2.498l-1.2.493c-.213-.822-.936-1.759-2.415-1.759-1.298 0-2.646.986-2.646 2.925 0 1.923 1.348 2.942 2.662 2.942 1.578 0 2.219-1.068 2.449-1.775l1.15.493c-.378 1.167-1.528 2.514-3.599 2.514m6.255-12.11h1.314v5.11c.509-.92 1.495-1.331 2.596-1.331 2.005 0 2.975 1.462 2.975 3.221V180h-1.315v-4.65c0-1.167-.493-2.219-2.021-2.219-1.265 0-2.235.937-2.235 2.482V180h-1.314zm13.533 0c2.892 0 3.73 2.415 3.845 3.598l-1.347.247c-.214-1.266-.838-2.547-2.547-2.547-1.726 0-2.958 1.528-2.958 4.749s1.232 4.765 2.925 4.765c1.758 0 2.35-1.43 2.514-2.629l1.315.213c-.099 1.184-.97 3.714-3.813 3.714-2.514 0-4.321-2.07-4.321-6.063 0-3.977 1.873-6.047 4.387-6.047m7.487 7V180h-1.364v-11.65h4.239c2.104 0 3.418 1.511 3.418 3.401 0 1.693-1.101 2.974-2.744 3.254L289.31 180h-1.561l-2.613-4.88zm2.662-1.249c1.364 0 2.251-.838 2.251-2.12 0-1.298-.887-2.153-2.251-2.153h-2.662v4.273zm13.221-5.521V180h-1.265v-10.204l-2.103 10.138h-1.299l-2.054-10.04V180h-1.265v-11.65h2.12l1.873 9.202 1.923-9.202zm7.898 6.441c0 3.714-1.726 6.162-3.681 7.74l-.756-.789c1.972-1.693 3.253-3.862 3.253-6.951s-1.281-5.258-3.253-6.951l.756-.788c1.955 1.577 3.681 4.025 3.681 7.739m6.336 4.009c0-.739.559-1.314 1.38-1.314.805 0 1.512.608 1.512 1.807 0 2.515-1.791 3.665-3.336 3.878v-.936c1.331-.247 2.186-1.233 2.186-2.268a1.2 1.2 0 0 1-.493.115c-.707 0-1.249-.509-1.249-1.282M26.202 192.15h4.37v15.233h-4.37v-1.068h3.22v-13.097h-3.22zm14.618 7.641c0 3.714-1.725 6.162-3.68 7.74l-.757-.789c1.972-1.693 3.254-3.862 3.254-6.951s-1.282-5.258-3.254-6.951l.756-.788c1.956 1.577 3.681 4.025 3.681 7.739"/><path fill="#9cdcfe" d="M104.269 93.35h4.371c2.152 0 3.5 1.479 3.5 3.418 0 1.955-1.348 3.401-3.5 3.401h-3.007V105h-1.364zm4.108 5.587c1.495 0 2.382-.871 2.382-2.153 0-1.331-.887-2.202-2.382-2.202h-2.744v4.355zm12.942-.362c-.214-.066-.542-.148-1.101-.148-1.627 0-2.498.92-2.498 2.728v2.678h2.481V105h-6.129v-1.167h2.334v-5.537h-2.087v-1.167h3.368v1.545c.46-1.216 1.611-1.66 2.547-1.66.575 0 .888.082 1.085.148zm6.139 6.655c-2.268 0-3.944-1.742-3.944-4.174 0-2.415 1.676-4.157 3.944-4.157s3.944 1.742 3.944 4.157c0 2.432-1.676 4.174-3.944 4.174m0-1.199c1.413 0 2.613-1.069 2.613-2.975 0-1.89-1.2-2.957-2.613-2.957s-2.613 1.068-2.613 2.957c0 1.906 1.2 2.975 2.613 2.975m7.01-5.949c.279-.756.887-1.1 1.627-1.1.739 0 1.38.394 1.544 1.264.296-.788.937-1.265 1.874-1.265 1.002 0 1.972.477 1.972 2.35V105h-1.233v-5.472c0-1.035-.411-1.364-1.068-1.364s-1.199.46-1.199 1.594V105h-1.216v-5.423c0-1.018-.395-1.413-1.052-1.413-.674 0-1.216.411-1.216 1.61V105h-1.232v-7.871h1.199zm9.343 5.735h3.024v-5.505h-2.678V97.13h3.993v6.688h3.023V105h-7.362zm2.383-9.449c0-.69.542-1.232 1.249-1.232.674 0 1.216.542 1.216 1.232s-.542 1.25-1.216 1.25a1.24 1.24 0 0 1-1.249-1.25m11.085 10.862c-2.218 0-3.335-1.43-3.549-2.317l1.2-.493c.23.822 1.068 1.627 2.382 1.627 1.052 0 1.66-.493 1.66-1.134 0-.575-.378-.92-1.249-1.101l-1.528-.312c-1.479-.296-2.136-1.15-2.136-2.17 0-1.33 1.232-2.431 2.974-2.431 1.758 0 2.892.904 3.253 2.153l-1.117.443c-.263-.756-.937-1.446-2.136-1.446-1.002 0-1.676.477-1.676 1.183 0 .51.312.904 1.101 1.052l1.495.296c1.561.312 2.333 1.084 2.333 2.267 0 1.101-.92 2.383-3.007 2.383m9.705 0c-2.054 0-3.911-1.495-3.911-4.19 0-2.53 1.841-4.141 3.78-4.141 2.333 0 3.746 1.61 3.746 3.977 0 .164-.016.345-.032.46h-6.146v.115a2.555 2.555 0 0 0 2.563 2.563c1.331 0 2.087-.739 2.399-1.66l1.134.411c-.443 1.364-1.709 2.465-3.533 2.465m2.252-5.012c-.066-1.166-.921-2.152-2.367-2.152-1.314 0-2.333 1.018-2.415 2.152zM68.604 130.23c-2.219 0-3.336-1.43-3.55-2.317l1.2-.493c.23.822 1.068 1.627 2.383 1.627 1.051 0 1.66-.493 1.66-1.134 0-.575-.379-.92-1.25-1.101l-1.528-.312c-1.479-.296-2.136-1.15-2.136-2.169 0-1.331 1.233-2.432 2.974-2.432 1.759 0 2.892.904 3.254 2.153l-1.117.443c-.263-.756-.937-1.446-2.137-1.446-1.002 0-1.676.477-1.676 1.183 0 .51.313.904 1.101 1.052l1.496.296c1.56.312 2.333 1.084 2.333 2.267 0 1.101-.92 2.383-3.007 2.383m12.778-8.101v1.2h-3.007v4.19c0 .92.575 1.364 1.43 1.364.541 0 1.248-.099 1.577-.214v1.2c-.362.131-.92.262-1.726.262-1.627 0-2.596-.805-2.596-2.366v-4.436h-2.53v-1.2h1.298c.953 0 1.314-.493 1.314-1.364v-1.413h1.233v2.777zm6.78 8.101c-2.054 0-3.911-1.495-3.911-4.19 0-2.531 1.84-4.141 3.78-4.141 2.333 0 3.746 1.61 3.746 3.977 0 .164-.017.345-.033.46h-6.146v.115c0 1.479 1.2 2.563 2.564 2.563 1.33 0 2.087-.739 2.399-1.66l1.134.411c-.444 1.364-1.71 2.465-3.533 2.465m2.25-5.012c-.065-1.166-.92-2.152-2.365-2.152-1.315 0-2.334 1.018-2.416 2.152zm3.938-3.089h1.282v1.315c.361-.806 1.249-1.545 2.728-1.545 2.349 0 3.647 1.84 3.647 4.157 0 2.35-1.413 4.174-3.713 4.174-1.397 0-2.268-.624-2.63-1.331v4.223H94.35zm3.78 6.918c1.528 0 2.546-1.249 2.546-2.991s-1.018-2.974-2.547-2.974c-1.511 0-2.497 1.232-2.497 2.974s1.002 2.991 2.497 2.991m8.258-.296c0-.772.608-1.364 1.348-1.364a1.35 1.35 0 0 1 1.364 1.364c0 .772-.608 1.348-1.364 1.348-.74 0-1.348-.576-1.348-1.348m38.738-3.96c0-3.714 1.725-6.162 3.681-7.739l.756.788c-1.972 1.693-3.254 3.862-3.254 6.951s1.282 5.258 3.254 6.951l-.756.789c-1.956-1.578-3.681-4.026-3.681-7.74M68.604 155.23c-2.219 0-3.336-1.43-3.55-2.317l1.2-.493c.23.822 1.068 1.627 2.383 1.627 1.051 0 1.66-.493 1.66-1.134 0-.575-.379-.92-1.25-1.101l-1.528-.312c-1.479-.296-2.136-1.15-2.136-2.169 0-1.331 1.233-2.432 2.974-2.432 1.759 0 2.892.904 3.254 2.153l-1.117.443c-.263-.756-.937-1.446-2.137-1.446-1.002 0-1.676.477-1.676 1.183 0 .51.313.904 1.101 1.052l1.496.296c1.56.312 2.333 1.084 2.333 2.267 0 1.101-.92 2.383-3.007 2.383m12.778-8.101v1.2h-3.007v4.19c0 .92.575 1.364 1.43 1.364.541 0 1.248-.099 1.577-.214v1.2c-.362.131-.92.262-1.726.262-1.627 0-2.596-.805-2.596-2.366v-4.436h-2.53v-1.2h1.298c.953 0 1.314-.493 1.314-1.364v-1.413h1.233v2.777zm6.78 8.101c-2.054 0-3.911-1.495-3.911-4.19 0-2.531 1.84-4.141 3.78-4.141 2.333 0 3.746 1.61 3.746 3.977 0 .164-.017.345-.033.46h-6.146v.115c0 1.479 1.2 2.563 2.564 2.563 1.33 0 2.087-.739 2.399-1.66l1.134.411c-.444 1.364-1.71 2.465-3.533 2.465m2.25-5.012c-.065-1.166-.92-2.152-2.365-2.152-1.315 0-2.334 1.018-2.416 2.152zm3.938-3.089h1.282v1.315c.361-.806 1.249-1.545 2.728-1.545 2.349 0 3.647 1.84 3.647 4.157 0 2.35-1.413 4.174-3.713 4.174-1.397 0-2.268-.624-2.63-1.331v4.223H94.35zm3.78 6.918c1.528 0 2.546-1.249 2.546-2.991s-1.018-2.974-2.547-2.974c-1.511 0-2.497 1.232-2.497 2.974s1.002 2.991 2.497 2.991m8.258-.296c0-.772.608-1.364 1.348-1.364a1.35 1.35 0 0 1 1.364 1.364c0 .772-.608 1.348-1.364 1.348-.74 0-1.348-.576-1.348-1.348m38.738-3.96c0-3.714 1.725-6.162 3.681-7.739l.756.788c-1.972 1.693-3.254 3.862-3.254 6.951s1.282 5.258 3.254 6.951l-.756.789c-1.956-1.578-3.681-4.026-3.681-7.74M68.604 180.23c-2.219 0-3.336-1.43-3.55-2.317l1.2-.493c.23.822 1.068 1.627 2.383 1.627 1.051 0 1.66-.493 1.66-1.134 0-.575-.379-.92-1.25-1.101l-1.528-.312c-1.479-.296-2.136-1.15-2.136-2.169 0-1.331 1.233-2.432 2.974-2.432 1.759 0 2.892.904 3.254 2.153l-1.117.443c-.263-.756-.937-1.446-2.137-1.446-1.002 0-1.676.477-1.676 1.183 0 .51.313.904 1.101 1.052l1.496.296c1.56.312 2.333 1.084 2.333 2.267 0 1.101-.92 2.383-3.007 2.383m12.778-8.101v1.2h-3.007v4.19c0 .92.575 1.364 1.43 1.364.541 0 1.248-.099 1.577-.214v1.2c-.362.131-.92.262-1.726.262-1.627 0-2.596-.805-2.596-2.366v-4.436h-2.53v-1.2h1.298c.953 0 1.314-.493 1.314-1.364v-1.413h1.233v2.777zm6.78 8.101c-2.054 0-3.911-1.495-3.911-4.19 0-2.531 1.84-4.141 3.78-4.141 2.333 0 3.746 1.61 3.746 3.977 0 .164-.017.345-.033.46h-6.146v.115c0 1.479 1.2 2.563 2.564 2.563 1.33 0 2.087-.739 2.399-1.66l1.134.411c-.444 1.364-1.71 2.465-3.533 2.465m2.25-5.012c-.065-1.166-.92-2.152-2.365-2.152-1.315 0-2.334 1.018-2.416 2.152zm3.938-3.089h1.282v1.315c.361-.806 1.249-1.545 2.728-1.545 2.349 0 3.647 1.84 3.647 4.157 0 2.35-1.413 4.174-3.713 4.174-1.397 0-2.268-.624-2.63-1.331v4.223H94.35zm3.78 6.918c1.528 0 2.546-1.249 2.546-2.991s-1.018-2.974-2.547-2.974c-1.511 0-2.497 1.232-2.497 2.974s1.002 2.991 2.497 2.991m8.258-.296c0-.772.608-1.364 1.348-1.364a1.35 1.35 0 0 1 1.364 1.364c0 .772-.608 1.348-1.364 1.348-.74 0-1.348-.576-1.348-1.348m38.738-3.96c0-3.714 1.725-6.162 3.681-7.739l.756.788c-1.972 1.693-3.254 3.862-3.254 6.951s1.282 5.258 3.254 6.951l-.756.789c-1.956-1.578-3.681-4.026-3.681-7.74"/><path fill="#fd8a72" d="M183.091 102.88c0-1.38 1.036-2.103 2.432-2.3l2.268-.329c.592-.082.707-.345.707-.707 0-.837-.625-1.462-1.89-1.462-1.233 0-2.021.69-2.12 1.594l-1.249-.263c.165-1.462 1.561-2.514 3.336-2.514 2.268 0 3.221 1.249 3.221 2.777v3.845c0 .657.098 1.233.164 1.479h-1.282c-.049-.148-.148-.674-.148-1.183-.246.641-1.183 1.413-2.662 1.413-1.807 0-2.777-1.167-2.777-2.35m2.975 1.151c1.281 0 2.432-.74 2.432-2.317v-.559l-2.712.394c-.788.115-1.38.526-1.38 1.233 0 .673.493 1.249 1.66 1.249m6.681-.214h3.024v-9.514h-2.597V93.12h3.911v10.697h3.024V105h-7.362zm9.853 0h3.023v-9.514h-2.596V93.12h3.911v10.697h3.023V105H202.6zm-81.281 19.758c-.214-.066-.542-.148-1.101-.148-1.627 0-2.498.92-2.498 2.728v2.678h2.481V130h-6.129v-1.167h2.334v-5.537h-2.087v-1.167h3.368v1.545c.46-1.216 1.611-1.66 2.547-1.66.575 0 .888.082 1.085.148zm8.078 5.357c-.378.805-1.347 1.298-2.432 1.298-2.005 0-3.023-1.347-3.023-3.155v-4.946h1.314v4.732c0 1.134.542 2.17 2.005 2.17 1.331 0 2.07-.97 2.07-2.202v-4.7h1.315v6.228c0 .608.066 1.331.115 1.643h-1.265c-.066-.23-.099-.674-.099-1.068m4.562-6.803h1.281v1.15c.493-.936 1.479-1.38 2.564-1.38 2.054 0 3.04 1.397 3.04 3.139V130h-1.315v-4.7c0-1.133-.509-2.169-2.037-2.169-1.249 0-2.219.937-2.219 2.449V130h-1.314zm-12.64 26.446c-.214-.066-.542-.148-1.101-.148-1.627 0-2.498.92-2.498 2.728v2.678h2.481V155h-6.129v-1.167h2.334v-5.537h-2.087v-1.167h3.368v1.545c.46-1.216 1.611-1.66 2.547-1.66.575 0 .888.082 1.085.148zm8.078 5.357c-.378.805-1.347 1.298-2.432 1.298-2.005 0-3.023-1.347-3.023-3.155v-4.946h1.314v4.732c0 1.134.542 2.17 2.005 2.17 1.331 0 2.07-.97 2.07-2.202v-4.7h1.315v6.228c0 .608.066 1.331.115 1.643h-1.265c-.066-.23-.099-.674-.099-1.068m4.562-6.803h1.281v1.15c.493-.936 1.479-1.38 2.564-1.38 2.054 0 3.04 1.397 3.04 3.139V155h-1.315v-4.7c0-1.133-.509-2.169-2.037-2.169-1.249 0-2.219.937-2.219 2.449V155h-1.314zm-12.64 26.446c-.214-.066-.542-.148-1.101-.148-1.627 0-2.498.92-2.498 2.728v2.678h2.481V180h-6.129v-1.167h2.334v-5.537h-2.087v-1.167h3.368v1.545c.46-1.216 1.611-1.66 2.547-1.66.575 0 .888.082 1.085.148zm8.078 5.357c-.378.805-1.347 1.298-2.432 1.298-2.005 0-3.023-1.347-3.023-3.155v-4.946h1.314v4.732c0 1.134.542 2.17 2.005 2.17 1.331 0 2.07-.97 2.07-2.202v-4.7h1.315v6.228c0 .608.066 1.331.115 1.643h-1.265c-.066-.23-.099-.674-.099-1.068m4.562-6.803h1.281v1.15c.493-.936 1.479-1.38 2.564-1.38 2.054 0 3.04 1.397 3.04 3.139V180h-1.315v-4.7c0-1.133-.509-2.169-2.037-2.169-1.249 0-2.219.937-2.219 2.449V180h-1.314z"/><path fill="#66bd8b" d="M157.723 118.958c-.969.18-1.709 1.002-1.742 1.824.05-.033.214-.083.411-.083.575 0 1.035.395 1.035 1.069 0 .591-.476 1.084-1.15 1.084s-1.265-.526-1.265-1.528c0-1.988 1.61-3.057 2.711-3.221zm2.958 0c-.97.18-1.709 1.002-1.742 1.824.049-.033.214-.083.411-.083.575 0 1.035.395 1.035 1.069 0 .591-.476 1.084-1.15 1.084s-1.265-.526-1.265-1.528c0-1.988 1.61-3.057 2.711-3.221zm6.435 11.272c-2.153 0-3.993-1.627-3.993-4.174 0-2.58 1.906-4.157 3.976-4.157 2.137 0 3.287 1.232 3.615 2.498l-1.199.493c-.214-.822-.937-1.759-2.416-1.759-1.298 0-2.645.986-2.645 2.925 0 1.923 1.347 2.942 2.662 2.942 1.577 0 2.218-1.068 2.448-1.775l1.15.493c-.378 1.167-1.528 2.514-3.598 2.514m5.925-1.413h3.024v-9.514h-2.596v-1.183h3.91v10.697h3.024V130h-7.362zm13.649 1.413c-2.054 0-3.911-1.495-3.911-4.19 0-2.531 1.841-4.141 3.78-4.141 2.333 0 3.746 1.61 3.746 3.977 0 .164-.016.345-.033.46h-6.145v.115a2.555 2.555 0 0 0 2.563 2.563c1.331 0 2.087-.739 2.399-1.66l1.134.411c-.444 1.364-1.709 2.465-3.533 2.465m2.251-5.012c-.066-1.166-.92-2.152-2.366-2.152-1.315 0-2.333 1.018-2.416 2.152zm4.003 2.662c0-1.38 1.035-2.103 2.432-2.3l2.268-.329c.591-.082.706-.345.706-.706 0-.838-.624-1.463-1.889-1.463-1.233 0-2.021.69-2.12 1.594l-1.249-.263c.164-1.462 1.561-2.514 3.336-2.514 2.267 0 3.221 1.249 3.221 2.777v3.845c0 .657.098 1.233.164 1.479h-1.282c-.049-.148-.148-.674-.148-1.183-.246.641-1.183 1.413-2.662 1.413-1.807 0-2.777-1.167-2.777-2.35m2.974 1.151c1.282 0 2.432-.74 2.432-2.317v-.559l-2.711.394c-.789.115-1.38.526-1.38 1.233 0 .673.493 1.249 1.659 1.249m14.076-5.456c-.213-.066-.542-.148-1.101-.148-1.626 0-2.497.92-2.497 2.728v2.678h2.481V130h-6.129v-1.167h2.333v-5.537h-2.087v-1.167h3.369v1.545c.46-1.216 1.61-1.66 2.547-1.66.575 0 .887.082 1.084.148zm6.698 6.655c-1.397 0-2.3-.674-2.728-1.495V130h-1.281v-11.88h1.314v5.192c.411-.706 1.249-1.413 2.695-1.413 2.366 0 3.648 1.857 3.648 4.157 0 2.35-1.331 4.174-3.648 4.174m-.197-1.199c1.545 0 2.514-1.233 2.514-2.975s-.953-2.957-2.514-2.957-2.531 1.215-2.531 2.957.986 2.975 2.531 2.975m6.139-.214h3.024v-5.505h-2.679v-1.183h3.993v6.688h3.024V130h-7.362zm2.383-9.449c0-.69.542-1.232 1.249-1.232.673 0 1.216.542 1.216 1.232 0 .691-.543 1.249-1.216 1.249a1.237 1.237 0 0 1-1.249-1.249m14.01 2.761v1.2h-3.007v4.19c0 .92.575 1.364 1.43 1.364.542 0 1.248-.099 1.577-.214v1.2c-.362.131-.92.262-1.725.262-1.627 0-2.597-.805-2.597-2.366v-4.436h-2.53v-1.2h1.298c.953 0 1.315-.493 1.315-1.364v-1.413h1.232v2.777zm6.977-.033c.97-.181 1.709-1.002 1.742-1.824-.049.033-.214.082-.411.082-.575 0-1.035-.394-1.035-1.068 0-.591.477-1.084 1.15-1.084.674 0 1.265.526 1.265 1.528 0 1.988-1.61 3.056-2.711 3.221zm-2.958 0c.97-.181 1.709-1.002 1.742-1.824-.049.033-.213.082-.411.082-.575 0-1.035-.394-1.035-1.068 0-.591.477-1.084 1.15-1.084.674 0 1.266.526 1.266 1.528 0 1.988-1.611 3.056-2.712 3.221zm-85.323 21.862c-.969.18-1.709 1.002-1.742 1.824.05-.033.214-.083.411-.083.575 0 1.035.395 1.035 1.069 0 .591-.476 1.084-1.15 1.084s-1.265-.526-1.265-1.528c0-1.988 1.61-3.057 2.711-3.221zm2.958 0c-.97.18-1.709 1.002-1.742 1.824.049-.033.214-.083.411-.083.575 0 1.035.395 1.035 1.069 0 .591-.476 1.084-1.15 1.084s-1.265-.526-1.265-1.528c0-1.988 1.61-3.057 2.711-3.221zm2.508 9.859h3.023v-9.514h-2.596v-1.183h3.911v10.697h3.023V155h-7.361zm10.181 0h3.024v-5.505h-2.679v-1.183h3.993v6.688h3.024V155h-7.362zm2.383-9.449c0-.69.542-1.232 1.248-1.232.674 0 1.216.542 1.216 1.232 0 .691-.542 1.249-1.216 1.249a1.237 1.237 0 0 1-1.248-1.249m7.47 2.761h1.282v1.15c.493-.936 1.478-1.38 2.563-1.38 2.054 0 3.04 1.397 3.04 3.139V155h-1.315v-4.7c0-1.133-.509-2.169-2.037-2.169-1.249 0-2.219.937-2.219 2.449V155h-1.314zM193.388 155v-11.88h1.314v7.92l4.174-3.911h1.824l-3.566 3.303 3.648 4.568h-1.725l-2.909-3.648-1.446 1.348v2.3zm13.008.23c-2.054 0-3.911-1.495-3.911-4.19 0-2.531 1.84-4.141 3.779-4.141 2.334 0 3.747 1.61 3.747 3.977 0 .164-.017.345-.033.46h-6.146v.115c0 1.479 1.2 2.563 2.564 2.563 1.331 0 2.087-.739 2.399-1.66l1.134.411c-.444 1.364-1.709 2.465-3.533 2.465m2.251-5.012c-.066-1.166-.92-2.152-2.366-2.152-1.315 0-2.334 1.018-2.416 2.152zm9.738 3.484c-.378.821-1.249 1.528-2.695 1.528-2.235 0-3.665-1.84-3.665-4.174 0-2.284 1.512-4.157 3.731-4.157 1.495 0 2.3.707 2.596 1.413v-5.192h1.314v10.401c0 .789.05 1.315.083 1.479h-1.282a7 7 0 0 1-.082-1.134zm-2.498.329c1.545 0 2.498-1.249 2.498-2.975s-.937-2.957-2.498-2.957c-1.512 0-2.531 1.232-2.531 2.957 0 1.726 1.036 2.975 2.531 2.975m6.747-.214h3.024v-5.505h-2.679v-1.183h3.993v6.688h3.024V155h-7.362zm2.383-9.449c0-.69.542-1.232 1.249-1.232.673 0 1.216.542 1.216 1.232 0 .691-.543 1.249-1.216 1.249a1.237 1.237 0 0 1-1.249-1.249m7.47 2.761h1.282v1.15c.493-.936 1.479-1.38 2.563-1.38 2.054 0 3.04 1.397 3.04 3.139V155h-1.315v-4.7c0-1.133-.509-2.169-2.037-2.169-1.249 0-2.218.937-2.218 2.449V155h-1.315zm13.517-.033c.97-.181 1.709-1.002 1.742-1.824-.049.033-.214.082-.411.082-.575 0-1.035-.394-1.035-1.068 0-.591.477-1.084 1.15-1.084.674 0 1.265.526 1.265 1.528 0 1.988-1.61 3.056-2.711 3.221zm-2.958 0c.97-.181 1.709-1.002 1.742-1.824-.049.033-.213.082-.411.082-.575 0-1.035-.394-1.035-1.068 0-.591.477-1.084 1.15-1.084.674 0 1.266.526 1.266 1.528 0 1.988-1.611 3.056-2.712 3.221zm-85.323 21.862c-.969.18-1.709 1.002-1.742 1.824.05-.033.214-.083.411-.083.575 0 1.035.395 1.035 1.069 0 .591-.476 1.084-1.15 1.084s-1.265-.526-1.265-1.528c0-1.988 1.61-3.057 2.711-3.221zm2.958 0c-.97.18-1.709 1.002-1.742 1.824.049-.033.214-.083.411-.083.575 0 1.035.395 1.035 1.069 0 .591-.476 1.084-1.15 1.084s-1.265-.526-1.265-1.528c0-1.988 1.61-3.057 2.711-3.221zm6.435 11.272c-2.153 0-3.993-1.627-3.993-4.174 0-2.58 1.906-4.157 3.976-4.157 2.137 0 3.287 1.232 3.615 2.498l-1.199.493c-.214-.822-.937-1.759-2.416-1.759-1.298 0-2.645.986-2.645 2.925 0 1.923 1.347 2.942 2.662 2.942 1.577 0 2.218-1.068 2.448-1.775l1.15.493c-.378 1.167-1.528 2.514-3.598 2.514m13.32-6.655c-.214-.066-.542-.148-1.101-.148-1.627 0-2.498.92-2.498 2.728v2.678h2.481V180h-6.129v-1.167h2.334v-5.537h-2.087v-1.167h3.368v1.545c.46-1.216 1.611-1.66 2.547-1.66.575 0 .888.082 1.085.148zm3.296-.493c.28-.756.888-1.101 1.627-1.101s1.38.395 1.545 1.265c.295-.788.936-1.265 1.873-1.265 1.002 0 1.972.477 1.972 2.35V180h-1.233v-5.472c0-1.035-.41-1.364-1.068-1.364-.657 0-1.199.46-1.199 1.594V180h-1.216v-5.423c0-1.018-.395-1.413-1.052-1.413-.674 0-1.216.411-1.216 1.611V180h-1.232v-7.871h1.199zm13.008-.986c.97-.181 1.709-1.002 1.742-1.824-.049.033-.214.082-.411.082-.575 0-1.035-.394-1.035-1.068 0-.591.476-1.084 1.15-1.084s1.265.526 1.265 1.528c0 1.988-1.61 3.056-2.711 3.221zm-2.958 0c.97-.181 1.709-1.002 1.742-1.824-.049.033-.214.082-.411.082-.575 0-1.035-.394-1.035-1.068 0-.591.477-1.084 1.15-1.084.674 0 1.266.526 1.266 1.528 0 1.988-1.611 3.056-2.712 3.221z"/><path fill="#636363" d="m24.296 230 7.904-11.65h1.38L25.676 230zm9.853 0 7.903-11.65h1.38L35.53 230zm27.543 0-1.051-3.369h-4.338L55.267 230h-1.446l3.681-11.65h1.956L63.155 230zm-3.22-10.434-1.758 5.734h3.516zm6.188 9.251h3.024v-9.514h-2.597v-1.183h3.911v10.697h3.024V230H64.66zm9.853 0h3.023v-9.514H74.94v-1.183h3.911v10.697h3.024V230h-7.362zm23.682-5.242c1.808 0 3.402 1.167 3.402 3.27 0 1.808-1.397 3.385-3.796 3.385-2.317 0-3.78-1.545-3.927-3.319l1.347-.263c.115 1.462 1.249 2.35 2.563 2.35 1.48 0 2.449-.904 2.449-2.12 0-1.413-.97-2.12-2.334-2.12-.345 0-.673.033-.969.115l-.64-1.15 3.302-3.122h-5.39v-1.249h7.165v1.232zm23.124 0c-.214-.066-.542-.148-1.101-.148-1.627 0-2.498.92-2.498 2.728v2.678h2.481V230h-6.129v-1.167h2.334v-5.537h-2.087v-1.167h3.368v1.545c.46-1.216 1.611-1.66 2.547-1.66.575 0 .888.082 1.085.148zm8.078 5.357c-.378.805-1.347 1.298-2.432 1.298-2.005 0-3.023-1.347-3.023-3.155v-4.946h1.314v4.732c0 1.134.542 2.17 2.005 2.17 1.331 0 2.07-.97 2.07-2.202v-4.7h1.315v6.228c0 .608.066 1.331.115 1.643h-1.265c-.066-.23-.099-.674-.099-1.068m4.562-6.803h1.281v1.15c.493-.936 1.479-1.38 2.564-1.38 2.054 0 3.04 1.397 3.04 3.139V230h-1.315v-4.7c0-1.133-.509-2.169-2.037-2.169-1.249 0-2.219.937-2.219 2.449V230h-1.314zm23.304 8.101c-2.153 0-3.993-1.627-3.993-4.174 0-2.58 1.906-4.157 3.977-4.157 2.136 0 3.286 1.232 3.615 2.498l-1.2.493c-.214-.822-.937-1.759-2.415-1.759-1.299 0-2.646.986-2.646 2.925 0 1.923 1.347 2.942 2.662 2.942 1.577 0 2.218-1.068 2.448-1.775l1.151.493c-.378 1.167-1.529 2.514-3.599 2.514m9.606 0c-2.267 0-3.943-1.742-3.943-4.174 0-2.415 1.676-4.157 3.943-4.157s3.944 1.742 3.944 4.157c0 2.432-1.676 4.174-3.944 4.174m0-1.199c1.413 0 2.613-1.069 2.613-2.975 0-1.889-1.2-2.957-2.613-2.957s-2.612 1.068-2.612 2.957c0 1.906 1.199 2.975 2.612 2.975m6.501-6.902h1.282v1.15c.493-.936 1.479-1.38 2.563-1.38 2.054 0 3.04 1.397 3.04 3.139V230h-1.315v-4.7c0-1.133-.509-2.169-2.037-2.169-1.249 0-2.218.937-2.218 2.449V230h-1.315zm13.451 8.101c-2.152 0-3.993-1.627-3.993-4.174 0-2.58 1.907-4.157 3.977-4.157 2.136 0 3.286 1.232 3.615 2.498l-1.199.493c-.214-.822-.937-1.759-2.416-1.759-1.298 0-2.646.986-2.646 2.925 0 1.923 1.348 2.942 2.662 2.942 1.578 0 2.219-1.068 2.449-1.775l1.15.493c-.378 1.167-1.528 2.514-3.599 2.514m11.546-1.298c-.378.805-1.348 1.298-2.432 1.298-2.005 0-3.024-1.347-3.024-3.155v-4.946h1.315v4.732c0 1.134.542 2.17 2.005 2.17 1.331 0 2.07-.97 2.07-2.202v-4.7h1.315v6.228c0 .608.065 1.331.115 1.643h-1.266c-.065-.23-.098-.674-.098-1.068m11.627-5.357c-.213-.066-.542-.148-1.101-.148-1.626 0-2.497.92-2.497 2.728v2.678h2.481V230h-6.129v-1.167h2.333v-5.537h-2.087v-1.167h3.369v1.545c.46-1.216 1.61-1.66 2.547-1.66.575 0 .887.082 1.084.148zm9.853 0c-.213-.066-.542-.148-1.101-.148-1.627 0-2.497.92-2.497 2.728v2.678h2.481V230h-6.129v-1.167h2.333v-5.537h-2.087v-1.167h3.369v1.545c.46-1.216 1.61-1.66 2.547-1.66.575 0 .887.082 1.084.148zm6.254 6.655c-2.054 0-3.91-1.495-3.91-4.19 0-2.531 1.84-4.141 3.779-4.141 2.333 0 3.746 1.61 3.746 3.977 0 .164-.016.345-.032.46h-6.146v.115a2.555 2.555 0 0 0 2.563 2.563c1.331 0 2.087-.739 2.399-1.66l1.134.411c-.443 1.364-1.709 2.465-3.533 2.465m2.252-5.012c-.066-1.166-.921-2.152-2.367-2.152-1.314 0-2.333 1.018-2.415 2.152zm4.134-3.089h1.282v1.15c.493-.936 1.479-1.38 2.563-1.38 2.054 0 3.04 1.397 3.04 3.139V230h-1.315v-4.7c0-1.133-.509-2.169-2.037-2.169-1.249 0-2.218.937-2.218 2.449V230h-1.315zm16.393 0v1.2h-3.007v4.19c0 .92.575 1.364 1.429 1.364.543 0 1.249-.099 1.578-.214v1.2c-.362.131-.92.262-1.726.262-1.626 0-2.596-.805-2.596-2.366v-4.436h-2.53v-1.2h1.298c.953 0 1.314-.493 1.314-1.364v-1.413h1.233v2.777zm2.984 6.688h3.024v-9.514h-2.597v-1.183h3.911v10.697h3.024V230h-7.362zm16.196-6.688h1.446l-5.374 10.993h-1.462l2.153-4.322-3.533-6.671h1.528l2.695 5.258zm5.712 6.671c0-.739.558-1.314 1.38-1.314.805 0 1.512.608 1.512 1.807 0 2.515-1.791 3.665-3.336 3.878v-.936c1.331-.247 2.185-1.233 2.185-2.268a1.2 1.2 0 0 1-.493.115c-.706 0-1.248-.509-1.248-1.282m21.299 1.43c-2.054 0-3.911-1.495-3.911-4.19 0-2.531 1.841-4.141 3.78-4.141 2.333 0 3.746 1.61 3.746 3.977 0 .164-.016.345-.033.46h-6.145v.115a2.555 2.555 0 0 0 2.563 2.563c1.331 0 2.087-.739 2.399-1.66l1.134.411c-.444 1.364-1.709 2.465-3.533 2.465m2.251-5.012c-.065-1.166-.92-2.152-2.366-2.152-1.314 0-2.333 1.018-2.415 2.152zm4.003 2.662c0-1.38 1.036-2.103 2.432-2.3l2.268-.329c.592-.082.707-.345.707-.706 0-.838-.625-1.463-1.89-1.463-1.233 0-2.021.69-2.12 1.594l-1.249-.263c.165-1.462 1.561-2.514 3.336-2.514 2.268 0 3.221 1.249 3.221 2.777v3.845c0 .657.098 1.233.164 1.479h-1.282c-.049-.148-.148-.674-.148-1.183-.246.641-1.183 1.413-2.662 1.413-1.807 0-2.777-1.167-2.777-2.35m2.975 1.151c1.281 0 2.432-.74 2.432-2.317v-.559l-2.712.394c-.788.115-1.38.526-1.38 1.233 0 .673.493 1.249 1.66 1.249m10.608 1.199c-2.152 0-3.993-1.627-3.993-4.174 0-2.58 1.906-4.157 3.977-4.157 2.136 0 3.286 1.232 3.615 2.498l-1.2.493c-.213-.822-.936-1.759-2.415-1.759-1.298 0-2.646.986-2.646 2.925 0 1.923 1.348 2.942 2.662 2.942 1.578 0 2.219-1.068 2.449-1.775l1.15.493c-.378 1.167-1.528 2.514-3.599 2.514m6.255-12.11h1.314v5.11c.509-.92 1.495-1.331 2.596-1.331 2.005 0 2.975 1.462 2.975 3.221V230h-1.315v-4.65c0-1.167-.493-2.219-2.021-2.219-1.265 0-2.235.937-2.235 2.482V230h-1.314zm25.309 10.582c-.378.821-1.249 1.528-2.695 1.528-2.235 0-3.665-1.84-3.665-4.174 0-2.284 1.512-4.157 3.73-4.157 1.496 0 2.301.707 2.597 1.413v-5.192h1.314v10.401c0 .789.05 1.315.082 1.479h-1.281a7 7 0 0 1-.082-1.134zm-2.498.329c1.544 0 2.498-1.249 2.498-2.975s-.937-2.957-2.498-2.957c-1.512 0-2.531 1.232-2.531 2.957 0 1.726 1.036 2.975 2.531 2.975m12.038-.099c-.378.805-1.347 1.298-2.432 1.298-2.004 0-3.023-1.347-3.023-3.155v-4.946h1.314v4.732c0 1.134.543 2.17 2.005 2.17 1.331 0 2.07-.97 2.07-2.202v-4.7h1.315v6.228c0 .608.066 1.331.115 1.643h-1.265c-.066-.23-.099-.674-.099-1.068m11.628-5.357c-.214-.066-.543-.148-1.101-.148-1.627 0-2.498.92-2.498 2.728v2.678h2.481V230h-6.129v-1.167h2.333v-5.537h-2.086v-1.167h3.368v1.545c.46-1.216 1.611-1.66 2.547-1.66.575 0 .887.082 1.085.148zm2.655 4.305c0-1.38 1.035-2.103 2.432-2.3l2.268-.329c.591-.082.706-.345.706-.706 0-.838-.624-1.463-1.889-1.463-1.233 0-2.021.69-2.12 1.594l-1.249-.263c.164-1.462 1.561-2.514 3.336-2.514 2.267 0 3.221 1.249 3.221 2.777v3.845c0 .657.098 1.233.164 1.479h-1.282c-.049-.148-.148-.674-.148-1.183-.246.641-1.183 1.413-2.662 1.413-1.807 0-2.777-1.167-2.777-2.35m2.974 1.151c1.282 0 2.432-.74 2.432-2.317v-.559l-2.711.394c-.789.115-1.38.526-1.38 1.233 0 .673.493 1.249 1.659 1.249m10.921 1.199c-1.396 0-2.3-.674-2.727-1.495V230h-1.282v-11.88h1.315v5.192c.41-.706 1.248-1.413 2.694-1.413 2.367 0 3.648 1.857 3.648 4.157 0 2.35-1.331 4.174-3.648 4.174m-.197-1.199c1.545 0 2.514-1.233 2.514-2.975s-.953-2.957-2.514-2.957-2.53 1.215-2.53 2.957.986 2.975 2.53 2.975m5.811-.214h3.023v-9.514h-2.596v-1.183h3.911v10.697h3.023V230h-7.361zm13.648 1.413c-2.054 0-3.91-1.495-3.91-4.19 0-2.531 1.84-4.141 3.779-4.141 2.333 0 3.746 1.61 3.746 3.977 0 .164-.016.345-.032.46h-6.146v.115c0 1.479 1.2 2.563 2.563 2.563 1.331 0 2.087-.739 2.399-1.66l1.134.411c-.443 1.364-1.709 2.465-3.533 2.465m2.252-5.012c-.066-1.166-.921-2.152-2.367-2.152-1.314 0-2.333 1.018-2.415 2.152z"/><path fill="#fefefe" d="M28.544 28.201c-1.942 0-2.92-1.25-3.106-2.027l1.05-.431c.2.719.934 1.423 2.084 1.423.92 0 1.452-.431 1.452-.992 0-.503-.33-.805-1.092-.963l-1.337-.273c-1.294-.26-1.87-1.007-1.87-1.898 0-1.165 1.079-2.128 2.603-2.128 1.538 0 2.53.79 2.847 1.883l-.978.388c-.23-.661-.82-1.265-1.87-1.265-.876 0-1.466.417-1.466 1.035 0 .446.273.791.964.92l1.308.26c1.366.273 2.042.948 2.042 1.983 0 .964-.806 2.085-2.631 2.085m11.18-7.088v1.05h-2.631v3.666c0 .805.503 1.193 1.25 1.193.475 0 1.093-.086 1.381-.187v1.05c-.316.115-.805.23-1.51.23-1.423 0-2.271-.704-2.271-2.07v-3.883h-2.215v-1.05h1.136c.834 0 1.15-.43 1.15-1.192v-1.237h1.079v2.43zm5.933 7.088c-1.798 0-3.422-1.308-3.422-3.666 0-2.214 1.61-3.623 3.307-3.623 2.041 0 3.278 1.409 3.278 3.48 0 .143-.015.301-.029.402h-5.377v.1a2.236 2.236 0 0 0 2.242 2.243c1.165 0 1.827-.647 2.1-1.452l.992.36c-.388 1.193-1.495 2.156-3.091 2.156m1.97-4.385c-.058-1.02-.806-1.883-2.071-1.883-1.15 0-2.042.89-2.114 1.883zm3.444-2.703h1.122v1.15c.316-.704 1.093-1.351 2.387-1.351 2.056 0 3.192 1.61 3.192 3.637 0 2.056-1.237 3.652-3.25 3.652-1.222 0-1.984-.546-2.3-1.164v3.695h-1.15zm3.307 6.053c1.338 0 2.229-1.093 2.229-2.617s-.891-2.602-2.229-2.602c-1.322 0-2.185 1.078-2.185 2.602s.877 2.617 2.185 2.617m7.227-.259c0-.675.532-1.193 1.179-1.193.661 0 1.193.518 1.193 1.193 0 .676-.532 1.18-1.193 1.18a1.166 1.166 0 0 1-1.179-1.18m13.064-4.529a3.1 3.1 0 0 0-.963-.13c-1.424 0-2.186.806-2.186 2.387v2.344h2.171V28h-5.363v-1.02h2.042v-4.846h-1.826v-1.021h2.948v1.351c.402-1.063 1.408-1.452 2.228-1.452.503 0 .776.072.949.13zm7.068 4.687c-.33.705-1.179 1.136-2.127 1.136-1.755 0-2.646-1.179-2.646-2.76v-4.328h1.15v4.14c0 .993.475 1.899 1.754 1.899 1.165 0 1.812-.849 1.812-1.927v-4.112h1.15v5.45c0 .531.058 1.164.1 1.437h-1.106c-.058-.201-.087-.59-.087-.935m3.992-5.952h1.121v1.006c.432-.82 1.294-1.207 2.243-1.207 1.798 0 2.66 1.222 2.66 2.746V28h-1.15v-4.112c0-.992-.446-1.898-1.783-1.898-1.092 0-1.94.82-1.94 2.142V28h-1.151z"/><path stroke="#fff" d="M.5.5H577V264H.5zM0 47h577.5"/></svg>