<svg xmlns="http://www.w3.org/2000/svg" width="578" height="292" fill="none" viewBox="0 0 578 292"><path fill="#636363" d="M24.296 80 32.2 68.35h1.38L25.676 80zm9.853 0 7.903-11.65h1.38L35.53 80zm20.182-1.38 6.59-8.989h-6.442V68.35h8.084v1.347l-6.605 9.021h6.687V80h-8.314zm14.125 1.61c-2.054 0-3.91-1.495-3.91-4.19 0-2.53 1.84-4.141 3.778-4.141 2.334 0 3.747 1.61 3.747 3.977 0 .164-.016.345-.033.46h-6.145v.115c0 1.479 1.2 2.563 2.563 2.563 1.331 0 2.087-.74 2.4-1.66l1.133.411c-.444 1.364-1.709 2.465-3.533 2.465m2.251-5.012c-.066-1.166-.92-2.152-2.366-2.152-1.315 0-2.333 1.018-2.416 2.152zm11.2-1.643c-.213-.066-.542-.148-1.1-.148-1.627 0-2.498.92-2.498 2.728v2.678h2.481V80h-6.13v-1.167h2.334v-5.537h-2.087v-1.167h3.369v1.545c.46-1.216 1.61-1.66 2.547-1.66.575 0 .887.082 1.085.148zm6.14 6.655c-2.268 0-3.944-1.742-3.944-4.174 0-2.415 1.676-4.157 3.944-4.157s3.943 1.742 3.943 4.157c0 2.432-1.676 4.174-3.943 4.174m0-1.2c1.413 0 2.612-1.068 2.612-2.974 0-1.89-1.2-2.957-2.612-2.957s-2.613 1.068-2.613 2.957c0 1.906 1.2 2.975 2.613 2.975m23.419-5.455c-.214-.066-.542-.148-1.101-.148-1.627 0-2.498.92-2.498 2.728v2.678h2.482V80h-6.13v-1.167h2.334v-5.537h-2.087v-1.167h3.368v1.545c.461-1.216 1.611-1.66 2.547-1.66.576 0 .888.082 1.085.148zm6.254 6.655c-2.054 0-3.911-1.495-3.911-4.19 0-2.53 1.841-4.141 3.78-4.141 2.333 0 3.746 1.61 3.746 3.977 0 .164-.016.345-.033.46h-6.145v.115a2.555 2.555 0 0 0 2.563 2.563c1.331 0 2.087-.74 2.399-1.66l1.134.411c-.444 1.364-1.709 2.465-3.533 2.465m2.251-5.012c-.065-1.166-.92-2.152-2.366-2.152-1.314 0-2.333 1.018-2.415 2.152zm10.675-3.089v1.2h-3.007v4.19c0 .92.575 1.364 1.429 1.364.543 0 1.249-.099 1.578-.214v1.2c-.362.131-.92.263-1.726.263-1.626 0-2.596-.806-2.596-2.367V73.33h-2.53v-1.2h1.298c.953 0 1.314-.493 1.314-1.364v-1.413h1.233v2.777zm10.378 1.446c-.213-.066-.542-.148-1.1-.148-1.627 0-2.498.92-2.498 2.728v2.678h2.481V80h-6.129v-1.167h2.333v-5.537h-2.087v-1.167h3.369v1.545c.46-1.216 1.61-1.66 2.547-1.66.575 0 .887.082 1.084.148zm2.787 5.242h3.024v-5.505h-2.678V72.13h3.993v6.688h3.023V80h-7.362zm2.383-9.449c0-.69.542-1.232 1.249-1.232.674 0 1.216.542 1.216 1.232s-.542 1.25-1.216 1.25a1.24 1.24 0 0 1-1.249-1.25m10.938 10.862c-2.055 0-3.911-1.495-3.911-4.19 0-2.53 1.84-4.141 3.779-4.141 2.333 0 3.747 1.61 3.747 3.977 0 .164-.017.345-.033.46h-6.146v.115c0 1.479 1.2 2.563 2.564 2.563 1.331 0 2.086-.74 2.399-1.66l1.133.411c-.443 1.364-1.709 2.465-3.532 2.465m2.251-5.012c-.066-1.166-.92-2.152-2.367-2.152-1.314 0-2.333 1.018-2.415 2.152zm7.749 5.012c-2.218 0-3.335-1.43-3.549-2.317l1.199-.493c.23.822 1.069 1.627 2.383 1.627 1.052 0 1.66-.493 1.66-1.134 0-.575-.378-.92-1.249-1.1l-1.528-.313c-1.479-.296-2.136-1.15-2.136-2.17 0-1.33 1.232-2.431 2.974-2.431 1.758 0 2.892.904 3.253 2.153l-1.117.443c-.263-.756-.937-1.446-2.136-1.446-1.003 0-1.676.477-1.676 1.183 0 .51.312.904 1.101 1.052l1.495.296c1.561.312 2.333 1.084 2.333 2.267 0 1.101-.92 2.383-3.007 2.383m15.335-5.521h8.216v1.15h-8.216zm26.065 3.993c-.378.822-1.249 1.528-2.695 1.528-2.235 0-3.664-1.84-3.664-4.174 0-2.284 1.511-4.157 3.73-4.157 1.495 0 2.3.707 2.596 1.413V68.12h1.315v10.4c0 .789.049 1.315.082 1.479h-1.282a7 7 0 0 1-.082-1.134zm-2.498.329c1.545 0 2.498-1.25 2.498-2.975s-.937-2.957-2.498-2.957c-1.512 0-2.53 1.232-2.53 2.957 0 1.726 1.035 2.975 2.53 2.975m10.099 1.199c-2.267 0-3.943-1.742-3.943-4.174 0-2.415 1.676-4.157 3.943-4.157s3.944 1.742 3.944 4.157c0 2.432-1.676 4.174-3.944 4.174m0-1.2c1.414 0 2.613-1.068 2.613-2.974 0-1.89-1.199-2.957-2.613-2.957s-2.612 1.068-2.612 2.957c0 1.906 1.199 2.975 2.612 2.975m11.792-.098c-.378.805-1.347 1.298-2.432 1.298-2.004 0-3.023-1.347-3.023-3.155V72.13h1.314v4.733c0 1.133.543 2.169 2.005 2.169 1.331 0 2.071-.97 2.071-2.202v-4.7h1.314v6.228c0 .608.066 1.33.115 1.643h-1.265c-.066-.23-.099-.674-.099-1.068m8.473 1.298c-1.397 0-2.301-.674-2.728-1.495V80h-1.282V68.12h1.315v5.192c.411-.706 1.249-1.413 2.695-1.413 2.366 0 3.648 1.857 3.648 4.157 0 2.35-1.331 4.174-3.648 4.174m-.197-1.2c1.544 0 2.514-1.232 2.514-2.974s-.953-2.957-2.514-2.957-2.531 1.215-2.531 2.957.986 2.975 2.531 2.975m5.81-.213h3.024v-9.514h-2.597V68.12h3.911v10.697h3.024V80h-7.362zm13.649 1.413c-2.054 0-3.911-1.495-3.911-4.19 0-2.53 1.84-4.141 3.779-4.141 2.334 0 3.747 1.61 3.747 3.977 0 .164-.017.345-.033.46h-6.146v.115c0 1.479 1.2 2.563 2.564 2.563 1.331 0 2.087-.74 2.399-1.66l1.134.411c-.444 1.364-1.709 2.465-3.533 2.465m2.251-5.012c-.066-1.166-.92-2.152-2.366-2.152-1.315 0-2.334 1.018-2.416 2.152zm4.644-.51h5.685v1.151h-5.685zm12.942 5.522c-2.153 0-3.993-1.627-3.993-4.174 0-2.58 1.906-4.157 3.977-4.157 2.136 0 3.286 1.232 3.615 2.498l-1.2.493c-.214-.822-.937-1.759-2.415-1.759-1.299 0-2.646.986-2.646 2.925 0 1.923 1.347 2.942 2.662 2.942 1.577 0 2.218-1.068 2.448-1.775l1.151.493c-.378 1.167-1.529 2.514-3.599 2.514m6.254-12.11h1.315v5.11c.509-.92 1.495-1.331 2.596-1.331 2.005 0 2.974 1.462 2.974 3.22V80h-1.314v-4.65c0-1.167-.493-2.219-2.021-2.219-1.266 0-2.235.937-2.235 2.482V80h-1.315zm9.722 9.76c0-1.38 1.035-2.103 2.432-2.3l2.267-.329c.592-.082.707-.345.707-.707 0-.837-.625-1.462-1.89-1.462-1.232 0-2.021.69-2.12 1.594l-1.249-.263c.165-1.462 1.562-2.514 3.336-2.514 2.268 0 3.221 1.249 3.221 2.777v3.845c0 .657.098 1.233.164 1.479h-1.282c-.049-.148-.147-.674-.147-1.183-.247.64-1.184 1.413-2.662 1.413-1.808 0-2.777-1.167-2.777-2.35m2.974 1.15c1.281 0 2.432-.739 2.432-2.316v-.56l-2.712.395c-.788.115-1.38.526-1.38 1.233 0 .673.493 1.249 1.66 1.249m14.076-5.455c-.214-.066-.543-.148-1.101-.148-1.627 0-2.498.92-2.498 2.728v2.678h2.481V80h-6.129v-1.167h2.333v-5.537h-2.086v-1.167h3.368v1.545c.46-1.216 1.61-1.66 2.547-1.66.575 0 .887.082 1.085.148zm3.559 6.639c.164.97 1.035 1.89 2.35 1.89 1.774 0 2.432-1.118 2.432-2.646v-1.315c-.345.772-1.2 1.413-2.498 1.413-2.087 0-3.549-1.643-3.549-3.812 0-2.185 1.446-3.845 3.582-3.845 1.314 0 2.169.575 2.481 1.347V72.13h1.298v7.444c0 1.807-.903 3.746-3.763 3.746-1.873 0-3.418-1.2-3.615-2.793zm4.847-4.437c0-1.627-.969-2.695-2.399-2.695-1.429 0-2.399 1.052-2.399 2.646s.97 2.645 2.399 2.645 2.399-1.051 2.399-2.596m4.234 3.04h3.023v-5.505h-2.678V72.13h3.993v6.688h3.023V80h-7.361zm2.382-9.449c0-.69.542-1.232 1.249-1.232.674 0 1.216.542 1.216 1.232s-.542 1.25-1.216 1.25a1.24 1.24 0 0 1-1.249-1.25m7.47 2.761h1.282v1.15c.493-.936 1.479-1.38 2.563-1.38 2.054 0 3.04 1.397 3.04 3.138V80h-1.314v-4.7c0-1.133-.51-2.169-2.038-2.169-1.249 0-2.218.937-2.218 2.449V80h-1.315zm10.625 8.085c.165.97 1.036 1.89 2.35 1.89 1.775 0 2.432-1.118 2.432-2.646v-1.315c-.345.772-1.199 1.413-2.497 1.413-2.087 0-3.55-1.643-3.55-3.812 0-2.185 1.446-3.845 3.582-3.845 1.315 0 2.169.575 2.482 1.347V72.13h1.298v7.444c0 1.807-.904 3.746-3.763 3.746-1.873 0-3.418-1.2-3.615-2.793zm4.848-4.437c0-1.627-.97-2.695-2.399-2.695s-2.399 1.052-2.399 2.646.969 2.645 2.399 2.645c1.429 0 2.399-1.051 2.399-2.596m14.086 3.04h3.023v-5.505h-2.678V72.13h3.993v6.688h3.023V80h-7.361zm2.383-9.449c0-.69.542-1.232 1.248-1.232.674 0 1.216.542 1.216 1.232s-.542 1.25-1.216 1.25a1.24 1.24 0 0 1-1.248-1.25m11.085 10.862c-2.219 0-3.336-1.43-3.55-2.317l1.2-.493c.23.822 1.068 1.627 2.383 1.627 1.051 0 1.659-.493 1.659-1.134 0-.575-.378-.92-1.249-1.1l-1.528-.313c-1.479-.296-2.136-1.15-2.136-2.17 0-1.33 1.232-2.431 2.974-2.431 1.759 0 2.892.904 3.254 2.153l-1.118.443c-.262-.756-.936-1.446-2.136-1.446-1.002 0-1.676.477-1.676 1.183 0 .51.312.904 1.101 1.052l1.495.296c1.562.312 2.334 1.084 2.334 2.267 0 1.101-.92 2.383-3.007 2.383m18.736-8.019h1.479l1.512 6.228 1.068-6.31h1.248L396.639 80h-1.577l-1.578-6.392L391.973 80h-1.561l-1.528-7.871h1.281l1.118 6.31zm10.559 8.019c-2.267 0-3.943-1.742-3.943-4.174 0-2.415 1.676-4.157 3.943-4.157s3.944 1.742 3.944 4.157c0 2.432-1.676 4.174-3.944 4.174m0-1.2c1.414 0 2.613-1.068 2.613-2.974 0-1.89-1.199-2.957-2.613-2.957s-2.612 1.068-2.612 2.957c0 1.906 1.199 2.975 2.612 2.975m13.567-5.455c-.214-.066-.542-.148-1.101-.148-1.627 0-2.498.92-2.498 2.728v2.678h2.481V80h-6.129v-1.167h2.334v-5.537h-2.087v-1.167h3.368v1.545c.46-1.216 1.611-1.66 2.547-1.66.575 0 .888.082 1.085.148zm6.402 6.655c-2.218 0-3.336-1.43-3.549-2.317l1.199-.493c.23.822 1.068 1.627 2.383 1.627 1.051 0 1.659-.493 1.659-1.134 0-.575-.377-.92-1.248-1.1l-1.529-.313c-1.478-.296-2.136-1.15-2.136-2.17 0-1.33 1.233-2.431 2.974-2.431 1.759 0 2.893.904 3.254 2.153l-1.117.443c-.263-.756-.937-1.446-2.137-1.446-1.002 0-1.676.477-1.676 1.183 0 .51.313.904 1.101 1.052l1.496.296c1.561.312 2.333 1.084 2.333 2.267 0 1.101-.92 2.383-3.007 2.383m9.705 0c-2.054 0-3.911-1.495-3.911-4.19 0-2.53 1.84-4.141 3.779-4.141 2.334 0 3.747 1.61 3.747 3.977 0 .164-.017.345-.033.46h-6.146v.115c0 1.479 1.2 2.563 2.564 2.563 1.331 0 2.087-.74 2.399-1.66l1.134.411c-.444 1.364-1.709 2.465-3.533 2.465m2.251-5.012c-.066-1.166-.92-2.152-2.366-2.152-1.315 0-2.334 1.018-2.416 2.152zM24.296 155l7.904-11.65h1.38L25.676 155zm9.853 0 7.903-11.65h1.38L35.53 155zm24.34.23c-2.268 0-3.846-1.199-3.846-3.582v-8.298h1.364v8.166c0 1.545.97 2.416 2.481 2.416 1.512 0 2.481-.871 2.481-2.416v-8.166h1.364v8.298c0 2.383-1.577 3.582-3.845 3.582m6.303-8.101h1.281v1.315c.362-.806 1.25-1.545 2.728-1.545 2.35 0 3.648 1.84 3.648 4.157 0 2.35-1.413 4.174-3.714 4.174-1.396 0-2.267-.624-2.629-1.331v4.223h-1.314zm3.779 6.918c1.528 0 2.547-1.249 2.547-2.991s-1.019-2.974-2.547-2.974c-1.512 0-2.498 1.232-2.498 2.974s1.003 2.991 2.498 2.991m22.664-6.918v1.2h-3.008v4.19c0 .92.575 1.364 1.43 1.364.542 0 1.249-.099 1.578-.214v1.2c-.362.131-.92.262-1.726.262-1.627 0-2.596-.805-2.596-2.366v-4.436h-2.53v-1.2h1.297c.953 0 1.315-.493 1.315-1.364v-1.413h1.232v2.777zm6.665 8.101c-2.268 0-3.944-1.742-3.944-4.174 0-2.415 1.676-4.157 3.944-4.157s3.943 1.742 3.943 4.157c0 2.432-1.676 4.174-3.943 4.174m0-1.199c1.413 0 2.612-1.069 2.612-2.975 0-1.889-1.2-2.957-2.612-2.957-1.414 0-2.613 1.068-2.613 2.957 0 1.906 1.2 2.975 2.612 2.975m19.327-.263v-6.376h-3.023v-.904c1.857 0 3.089-.854 3.155-2.136h1.216v9.416h2.727V155h-6.885v-1.232zm13.337-8.019c.739 1.068.953 2.481.953 3.927s-.214 2.859-.953 3.927c-.674.986-1.709 1.627-3.106 1.627s-2.432-.641-3.106-1.627c-.739-1.068-.953-2.481-.953-3.927s.214-2.859.953-3.927c.674-.986 1.709-1.627 3.106-1.627s2.432.641 3.106 1.627m-4.848.345c-.69.756-.969 1.972-.969 3.582 0 .969.098 1.808.328 2.481l4.273-5.899-.148-.164c-.427-.46-1.003-.723-1.742-.723-.772 0-1.315.263-1.742.723m3.484 7.164c.69-.756.969-1.972.969-3.582 0-.92-.098-1.725-.296-2.366l-4.239 5.866c.46.509 1.002.805 1.824.805.739 0 1.315-.263 1.742-.723m21.677-4.683c-.213-.066-.542-.148-1.101-.148-1.626 0-2.497.92-2.497 2.728v2.678h2.481V155h-6.129v-1.167h2.333v-5.537h-2.087v-1.167h3.369v1.545c.46-1.216 1.61-1.66 2.547-1.66.575 0 .887.082 1.084.148zm6.255 6.655c-2.055 0-3.911-1.495-3.911-4.19 0-2.531 1.84-4.141 3.779-4.141 2.333 0 3.747 1.61 3.747 3.977 0 .164-.017.345-.033.46h-6.146v.115c0 1.479 1.2 2.563 2.564 2.563 1.331 0 2.086-.739 2.399-1.66l1.133.411c-.443 1.364-1.709 2.465-3.532 2.465m2.251-5.012c-.066-1.166-.92-2.152-2.367-2.152-1.314 0-2.333 1.018-2.415 2.152zm10.674-3.089v1.2h-3.007v4.19c0 .92.575 1.364 1.43 1.364.542 0 1.248-.099 1.577-.214v1.2c-.361.131-.92.262-1.725.262-1.627 0-2.597-.805-2.597-2.366v-4.436h-2.53v-1.2h1.298c.953 0 1.315-.493 1.315-1.364v-1.413h1.232v2.777zm10.379 1.446c-.214-.066-.542-.148-1.101-.148-1.627 0-2.498.92-2.498 2.728v2.678h2.481V155h-6.129v-1.167h2.334v-5.537h-2.087v-1.167h3.368v1.545c.46-1.216 1.611-1.66 2.547-1.66.575 0 .888.082 1.085.148zm2.787 5.242h3.023v-5.505h-2.678v-1.183h3.993v6.688h3.023V155h-7.361zm2.382-9.449c0-.69.543-1.232 1.249-1.232.674 0 1.216.542 1.216 1.232 0 .691-.542 1.249-1.216 1.249a1.24 1.24 0 0 1-1.249-1.249m10.938 10.862c-2.054 0-3.911-1.495-3.911-4.19 0-2.531 1.84-4.141 3.779-4.141 2.334 0 3.747 1.61 3.747 3.977 0 .164-.017.345-.033.46h-6.146v.115c0 1.479 1.2 2.563 2.564 2.563 1.331 0 2.087-.739 2.399-1.66l1.134.411c-.444 1.364-1.709 2.465-3.533 2.465m2.251-5.012c-.066-1.166-.92-2.152-2.366-2.152-1.315 0-2.334 1.018-2.416 2.152zm7.75 5.012c-2.219 0-3.336-1.43-3.55-2.317l1.2-.493c.23.822 1.068 1.627 2.382 1.627 1.052 0 1.66-.493 1.66-1.134 0-.575-.378-.92-1.249-1.101l-1.528-.312c-1.479-.296-2.136-1.15-2.136-2.169 0-1.331 1.232-2.432 2.974-2.432 1.758 0 2.892.904 3.254 2.153l-1.118.443c-.263-.756-.936-1.446-2.136-1.446-1.002 0-1.676.477-1.676 1.183 0 .51.312.904 1.101 1.052l1.495.296c1.561.312 2.334 1.084 2.334 2.267 0 1.101-.921 2.383-3.007 2.383m18.736-8.019h1.479l1.511 6.228 1.068-6.31h1.249L229.141 155h-1.577l-1.578-6.392-1.511 6.392h-1.561l-1.529-7.871h1.282l1.117 6.31zm7.207 6.606h3.024v-5.505h-2.679v-1.183h3.993v6.688h3.024V155h-7.362zm2.383-9.449c0-.69.542-1.232 1.249-1.232.673 0 1.215.542 1.215 1.232 0 .691-.542 1.249-1.215 1.249a1.237 1.237 0 0 1-1.249-1.249m14.01 2.761v1.2h-3.007v4.19c0 .92.575 1.364 1.429 1.364.543 0 1.249-.099 1.578-.214v1.2c-.362.131-.92.262-1.726.262-1.626 0-2.596-.805-2.596-2.366v-4.436h-2.53v-1.2h1.298c.953 0 1.314-.493 1.314-1.364v-1.413h1.233v2.777zm3.313-4.009h1.314v5.11c.51-.92 1.496-1.331 2.597-1.331 2.004 0 2.974 1.462 2.974 3.221V155h-1.315v-4.65c0-1.167-.493-2.219-2.021-2.219-1.265 0-2.235.937-2.235 2.482V155h-1.314zm23.173 12.11c-2.054 0-3.911-1.495-3.911-4.19 0-2.531 1.84-4.141 3.779-4.141 2.333 0 3.747 1.61 3.747 3.977 0 .164-.017.345-.033.46H272.8v.115c0 1.479 1.2 2.563 2.564 2.563 1.331 0 2.086-.739 2.399-1.66l1.133.411c-.443 1.364-1.709 2.465-3.532 2.465m2.251-5.012c-.066-1.166-.92-2.152-2.367-2.152-1.314 0-2.333 1.018-2.415 2.152zm5.186 4.782h-1.611l3.123-3.993-3.007-3.878h1.626l2.186 2.876 2.202-2.876h1.577l-3.007 3.878 3.122 3.993h-1.61l-2.301-2.958zm8.604-7.871h1.282v1.315c.361-.806 1.248-1.545 2.727-1.545 2.35 0 3.648 1.84 3.648 4.157 0 2.35-1.413 4.174-3.713 4.174-1.397 0-2.268-.624-2.63-1.331v4.223h-1.314zm3.779 6.918c1.528 0 2.547-1.249 2.547-2.991s-1.019-2.974-2.547-2.974c-1.512 0-2.497 1.232-2.497 2.974s1.002 2.991 2.497 2.991m9.623 1.183c-2.268 0-3.944-1.742-3.944-4.174 0-2.415 1.676-4.157 3.944-4.157s3.944 1.742 3.944 4.157c0 2.432-1.676 4.174-3.944 4.174m0-1.199c1.413 0 2.613-1.069 2.613-2.975 0-1.889-1.2-2.957-2.613-2.957s-2.613 1.068-2.613 2.957c0 1.906 1.2 2.975 2.613 2.975m6.501-6.902h1.281v1.15c.493-.936 1.479-1.38 2.564-1.38 2.054 0 3.04 1.397 3.04 3.139V155h-1.315v-4.7c0-1.133-.509-2.169-2.037-2.169-1.249 0-2.219.937-2.219 2.449V155h-1.314zm13.32 8.101c-2.054 0-3.911-1.495-3.911-4.19 0-2.531 1.84-4.141 3.779-4.141 2.334 0 3.747 1.61 3.747 3.977 0 .164-.017.345-.033.46h-6.146v.115c0 1.479 1.2 2.563 2.564 2.563 1.331 0 2.087-.739 2.399-1.66l1.134.411c-.444 1.364-1.709 2.465-3.533 2.465m2.251-5.012c-.066-1.166-.92-2.152-2.366-2.152-1.315 0-2.334 1.018-2.416 2.152zm4.134-3.089h1.282v1.15c.493-.936 1.479-1.38 2.563-1.38 2.054 0 3.04 1.397 3.04 3.139V155h-1.314v-4.7c0-1.133-.51-2.169-2.038-2.169-1.249 0-2.218.937-2.218 2.449V155h-1.315zm16.393 0v1.2h-3.007v4.19c0 .92.575 1.364 1.43 1.364.542 0 1.249-.099 1.577-.214v1.2c-.361.131-.92.262-1.725.262-1.627 0-2.596-.805-2.596-2.366v-4.436h-2.531v-1.2h1.298c.953 0 1.315-.493 1.315-1.364v-1.413h1.232v2.777zm3.313 6.688h3.024v-5.505h-2.679v-1.183h3.993v6.688h3.024V155h-7.362zm2.383-9.449c0-.69.542-1.232 1.249-1.232.673 0 1.216.542 1.216 1.232 0 .691-.543 1.249-1.216 1.249a1.237 1.237 0 0 1-1.249-1.249m7.338 8.512c0-1.38 1.036-2.103 2.432-2.3l2.268-.329c.592-.082.707-.345.707-.706 0-.838-.625-1.463-1.89-1.463-1.233 0-2.021.69-2.12 1.594l-1.249-.263c.165-1.462 1.561-2.514 3.336-2.514 2.268 0 3.221 1.249 3.221 2.777v3.845c0 .657.098 1.233.164 1.479h-1.282c-.049-.148-.148-.674-.148-1.183-.246.641-1.183 1.413-2.662 1.413-1.807 0-2.777-1.167-2.777-2.35m2.975 1.151c1.281 0 2.432-.74 2.432-2.317v-.559l-2.712.394c-.788.115-1.38.526-1.38 1.233 0 .673.493 1.249 1.66 1.249m6.681-.214h3.024v-9.514h-2.597v-1.183h3.911v10.697h3.024V155h-7.362zm23.945 1.413c-1.397 0-2.3-.674-2.728-1.495V155h-1.281v-11.88h1.314v5.192c.411-.706 1.249-1.413 2.695-1.413 2.366 0 3.648 1.857 3.648 4.157 0 2.35-1.331 4.174-3.648 4.174m-.197-1.199c1.545 0 2.514-1.233 2.514-2.975s-.953-2.957-2.514-2.957-2.531 1.215-2.531 2.957.986 2.975 2.531 2.975m6.008-1.151c0-1.38 1.035-2.103 2.432-2.3l2.267-.329c.592-.082.707-.345.707-.706 0-.838-.625-1.463-1.89-1.463-1.232 0-2.021.69-2.12 1.594l-1.248-.263c.164-1.462 1.561-2.514 3.335-2.514 2.268 0 3.221 1.249 3.221 2.777v3.845c0 .657.099 1.233.164 1.479h-1.281c-.05-.148-.148-.674-.148-1.183-.247.641-1.183 1.413-2.662 1.413-1.808 0-2.777-1.167-2.777-2.35m2.974 1.151c1.282 0 2.432-.74 2.432-2.317v-.559l-2.711.394c-.789.115-1.381.526-1.381 1.233 0 .673.493 1.249 1.66 1.249m10.609 1.199c-2.153 0-3.993-1.627-3.993-4.174 0-2.58 1.906-4.157 3.976-4.157 2.136 0 3.287 1.232 3.615 2.498l-1.199.493c-.214-.822-.937-1.759-2.416-1.759-1.298 0-2.645.986-2.645 2.925 0 1.923 1.347 2.942 2.662 2.942 1.577 0 2.218-1.068 2.448-1.775l1.15.493c-.378 1.167-1.528 2.514-3.598 2.514m6.566-.23v-11.88h1.315v7.92l4.173-3.911h1.824l-3.565 3.303 3.648 4.568h-1.726l-2.908-3.648-1.446 1.348v2.3zm12.893.23c-2.268 0-3.944-1.742-3.944-4.174 0-2.415 1.676-4.157 3.944-4.157s3.944 1.742 3.944 4.157c0 2.432-1.677 4.174-3.944 4.174m0-1.199c1.413 0 2.613-1.069 2.613-2.975 0-1.889-1.2-2.957-2.613-2.957s-2.613 1.068-2.613 2.957c0 1.906 1.2 2.975 2.613 2.975m10.099.969h-1.314v-6.688h-2.86v-1.183h2.86v-1.298c0-1.808 1.248-2.728 2.974-2.728.641 0 1.265.099 1.725.263v1.183c-.526-.164-1.068-.23-1.676-.23-.969 0-1.709.427-1.709 1.66v1.15h3.385v1.183h-3.385zm9.853 0h-1.315v-6.688h-2.859v-1.183h2.859v-1.298c0-1.808 1.249-2.728 2.975-2.728.641 0 1.265.099 1.725.263v1.183c-.526-.164-1.068-.23-1.676-.23-.97 0-1.709.427-1.709 1.66v1.15h3.385v1.183h-3.385zm-428.55 75 7.904-11.65h1.38L25.676 230zm9.853 0 7.903-11.65h1.38L35.53 230zm24.668-11.88c2.892 0 3.73 2.415 3.845 3.598l-1.347.247c-.214-1.266-.839-2.547-2.547-2.547-1.726 0-2.958 1.528-2.958 4.749s1.232 4.765 2.925 4.765c1.758 0 2.35-1.43 2.514-2.629l1.314.213c-.098 1.184-.97 3.714-3.812 3.714-2.514 0-4.322-2.07-4.322-6.063 0-3.977 1.874-6.047 4.388-6.047m11.463 10.812c-.378.805-1.347 1.298-2.432 1.298-2.005 0-3.023-1.347-3.023-3.155v-4.946h1.314v4.732c0 1.134.542 2.17 2.005 2.17 1.33 0 2.07-.97 2.07-2.202v-4.7h1.315v6.228c0 .608.066 1.331.115 1.643h-1.266c-.065-.23-.098-.674-.098-1.068m8.177 1.298c-2.219 0-3.336-1.43-3.55-2.317l1.2-.493c.23.822 1.068 1.627 2.383 1.627 1.051 0 1.66-.493 1.66-1.134 0-.575-.379-.92-1.25-1.101l-1.528-.312c-1.479-.296-2.136-1.15-2.136-2.169 0-1.331 1.232-2.432 2.974-2.432 1.759 0 2.892.904 3.254 2.153l-1.118.443c-.263-.756-.936-1.446-2.136-1.446-1.002 0-1.676.477-1.676 1.183 0 .51.312.904 1.101 1.052l1.495.296c1.562.312 2.334 1.084 2.334 2.267 0 1.101-.92 2.383-3.007 2.383m12.778-8.101v1.2h-3.008v4.19c0 .92.575 1.364 1.43 1.364.542 0 1.249-.099 1.578-.214v1.2c-.362.131-.92.262-1.726.262-1.627 0-2.596-.805-2.596-2.366v-4.436h-2.53v-1.2h1.297c.953 0 1.315-.493 1.315-1.364v-1.413h1.232v2.777zm6.665 8.101c-2.268 0-3.944-1.742-3.944-4.174 0-2.415 1.676-4.157 3.944-4.157s3.943 1.742 3.943 4.157c0 2.432-1.676 4.174-3.943 4.174m0-1.199c1.413 0 2.612-1.069 2.612-2.975 0-1.889-1.2-2.957-2.612-2.957-1.414 0-2.613 1.068-2.613 2.957 0 1.906 1.2 2.975 2.612 2.975m7.01-5.949c.279-.756.887-1.101 1.626-1.101.74 0 1.381.395 1.545 1.265.296-.788.937-1.265 1.873-1.265 1.003 0 1.972.477 1.972 2.35V230h-1.232v-5.472c0-1.035-.411-1.364-1.068-1.364-.658 0-1.2.46-1.2 1.594V230h-1.216v-5.423c0-1.018-.394-1.413-1.052-1.413-.673 0-1.216.411-1.216 1.611V230h-1.232v-7.871h1.2zm23.107 7.148c-1.397 0-2.301-.674-2.728-1.495V230h-1.282v-11.88h1.315v5.192c.411-.706 1.249-1.413 2.695-1.413 2.366 0 3.648 1.857 3.648 4.157 0 2.35-1.331 4.174-3.648 4.174m-.198-1.199c1.545 0 2.515-1.233 2.515-2.975s-.953-2.957-2.515-2.957c-1.561 0-2.53 1.215-2.53 2.957s.986 2.975 2.53 2.975m6.008-1.151c0-1.38 1.035-2.103 2.432-2.3l2.268-.329c.591-.082.706-.345.706-.706 0-.838-.624-1.463-1.889-1.463-1.233 0-2.021.69-2.12 1.594l-1.249-.263c.164-1.462 1.561-2.514 3.336-2.514 2.267 0 3.22 1.249 3.22 2.777v3.845c0 .657.099 1.233.165 1.479h-1.282c-.049-.148-.148-.674-.148-1.183-.246.641-1.183 1.413-2.662 1.413-1.807 0-2.777-1.167-2.777-2.35m2.974 1.151c1.282 0 2.432-.74 2.432-2.317v-.559l-2.711.394c-.789.115-1.38.526-1.38 1.233 0 .673.493 1.249 1.659 1.249m10.609 1.199c-2.152 0-3.993-1.627-3.993-4.174 0-2.58 1.906-4.157 3.977-4.157 2.136 0 3.286 1.232 3.615 2.498l-1.2.493c-.213-.822-.936-1.759-2.415-1.759-1.298 0-2.646.986-2.646 2.925 0 1.923 1.348 2.942 2.662 2.942 1.578 0 2.218-1.068 2.449-1.775l1.15.493c-.378 1.167-1.528 2.514-3.599 2.514m6.567-.23v-11.88h1.314v7.92l4.174-3.911h1.824l-3.566 3.303L161.37 230h-1.725l-2.909-3.648-1.446 1.348v2.3zm12.892.23c-2.267 0-3.943-1.742-3.943-4.174 0-2.415 1.676-4.157 3.943-4.157s3.944 1.742 3.944 4.157c0 2.432-1.676 4.174-3.944 4.174m0-1.199c1.413 0 2.613-1.069 2.613-2.975 0-1.889-1.2-2.957-2.613-2.957s-2.612 1.068-2.612 2.957c0 1.906 1.199 2.975 2.612 2.975m10.1.969h-1.315v-6.688h-2.859v-1.183h2.859v-1.298c0-1.808 1.249-2.728 2.974-2.728.641 0 1.266.099 1.726.263v1.183c-.526-.164-1.068-.23-1.676-.23-.97 0-1.709.427-1.709 1.66v1.15h3.385v1.183h-3.385zm9.852 0h-1.314v-6.688h-2.859v-1.183h2.859v-1.298c0-1.808 1.249-2.728 2.974-2.728.641 0 1.265.099 1.725.263v1.183c-.525-.164-1.068-.23-1.676-.23-.969 0-1.709.427-1.709 1.66v1.15h3.385v1.183h-3.385zm18.704 0-3.385-7.871h1.479l2.678 6.573 2.695-6.573h1.43L207.053 230zm7.256-1.183h3.024v-5.505h-2.679v-1.183h3.993v6.688h3.024V230h-7.362zm2.383-9.449c0-.69.542-1.232 1.249-1.232.674 0 1.216.542 1.216 1.232 0 .691-.542 1.249-1.216 1.249a1.237 1.237 0 0 1-1.249-1.249m7.339 8.512c0-1.38 1.035-2.103 2.432-2.3l2.267-.329c.592-.082.707-.345.707-.706 0-.838-.625-1.463-1.89-1.463-1.232 0-2.021.69-2.12 1.594l-1.248-.263c.164-1.462 1.561-2.514 3.335-2.514 2.268 0 3.221 1.249 3.221 2.777v3.845c0 .657.099 1.233.164 1.479h-1.281c-.05-.148-.148-.674-.148-1.183-.247.641-1.183 1.413-2.662 1.413-1.808 0-2.777-1.167-2.777-2.35m2.974 1.151c1.282 0 2.432-.74 2.432-2.317v-.559l-2.711.394c-.789.115-1.381.526-1.381 1.233 0 .673.493 1.249 1.66 1.249m23.929-5.456c-.214-.066-.543-.148-1.101-.148-1.627 0-2.498.92-2.498 2.728v2.678h2.481V230h-6.129v-1.167h2.333v-5.537h-2.086v-1.167h3.368v1.545c.46-1.216 1.61-1.66 2.547-1.66.575 0 .887.082 1.085.148zm6.254 6.655c-2.054 0-3.911-1.495-3.911-4.19 0-2.531 1.84-4.141 3.779-4.141 2.334 0 3.747 1.61 3.747 3.977 0 .164-.017.345-.033.46h-6.146v.115c0 1.479 1.2 2.563 2.564 2.563 1.331 0 2.087-.739 2.399-1.66l1.134.411c-.444 1.364-1.709 2.465-3.533 2.465m2.251-5.012c-.066-1.166-.92-2.152-2.366-2.152-1.315 0-2.334 1.018-2.416 2.152zm10.674-3.089v1.2h-3.007v4.19c0 .92.576 1.364 1.43 1.364.542 0 1.249-.099 1.577-.214v1.2c-.361.131-.92.262-1.725.262-1.627 0-2.596-.805-2.596-2.366v-4.436h-2.531v-1.2h1.298c.954 0 1.315-.493 1.315-1.364v-1.413h1.232v2.777zm10.379 1.446c-.213-.066-.542-.148-1.101-.148-1.627 0-2.497.92-2.497 2.728v2.678h2.481V230h-6.129v-1.167h2.333v-5.537h-2.087v-1.167h3.369v1.545c.46-1.216 1.61-1.66 2.547-1.66.575 0 .887.082 1.084.148zm8.801-1.446h1.446l-5.373 10.993h-1.462l2.152-4.322-3.533-6.671h1.528l2.695 5.258zM298.16 230l-1.051-3.369h-4.338L291.735 230h-1.446l3.681-11.65h1.956l3.697 11.65zm-3.22-10.434-1.758 5.734h3.516zM305.055 230h-1.314v-6.688h-2.859v-1.183h2.859v-1.298c0-1.808 1.249-2.728 2.974-2.728.641 0 1.265.099 1.725.263v1.183c-.525-.164-1.068-.23-1.676-.23-.969 0-1.709.427-1.709 1.66v1.15h3.385v1.183h-3.385zm12.795-7.871v1.2h-3.007v4.19c0 .92.575 1.364 1.429 1.364.542 0 1.249-.099 1.578-.214v1.2c-.362.131-.921.262-1.726.262-1.626 0-2.596-.805-2.596-2.366v-4.436h-2.531v-1.2h1.299c.953 0 1.314-.493 1.314-1.364v-1.413h1.233v2.777zm6.78 8.101c-2.054 0-3.911-1.495-3.911-4.19 0-2.531 1.84-4.141 3.779-4.141 2.334 0 3.747 1.61 3.747 3.977 0 .164-.017.345-.033.46h-6.146v.115c0 1.479 1.2 2.563 2.564 2.563 1.331 0 2.087-.739 2.399-1.66l1.134.411c-.444 1.364-1.709 2.465-3.533 2.465m2.251-5.012c-.066-1.166-.92-2.152-2.366-2.152-1.315 0-2.334 1.018-2.416 2.152zm11.2-1.643c-.213-.066-.542-.148-1.101-.148-1.627 0-2.497.92-2.497 2.728v2.678h2.481V230h-6.129v-1.167h2.333v-5.537h-2.087v-1.167h3.369v1.545c.46-1.216 1.61-1.66 2.547-1.66.575 0 .887.082 1.084.148zm12.64 5.242h3.024v-5.505h-2.679v-1.183h3.993v6.688h3.024V230h-7.362zm2.383-9.449c0-.69.542-1.232 1.249-1.232.673 0 1.216.542 1.216 1.232 0 .691-.543 1.249-1.216 1.249a1.237 1.237 0 0 1-1.249-1.249m7.47 2.761h1.282v1.15c.493-.936 1.478-1.38 2.563-1.38 2.054 0 3.04 1.397 3.04 3.139V230h-1.315v-4.7c0-1.133-.509-2.169-2.037-2.169-1.249 0-2.219.937-2.219 2.449V230h-1.314zm23.173 8.101c-2.054 0-3.911-1.495-3.911-4.19 0-2.531 1.84-4.141 3.779-4.141 2.334 0 3.747 1.61 3.747 3.977 0 .164-.017.345-.033.46h-6.146v.115c0 1.479 1.2 2.563 2.564 2.563 1.331 0 2.087-.739 2.399-1.66l1.134.411c-.444 1.364-1.709 2.465-3.533 2.465m2.251-5.012c-.066-1.166-.92-2.152-2.366-2.152-1.315 0-2.334 1.018-2.416 2.152zm11.2-1.643c-.213-.066-.542-.148-1.101-.148-1.627 0-2.497.92-2.497 2.728v2.678h2.481V230h-6.129v-1.167h2.333v-5.537h-2.087v-1.167h3.369v1.545c.46-1.216 1.61-1.66 2.547-1.66.575 0 .887.082 1.084.148zm9.853 0c-.214-.066-.542-.148-1.101-.148-1.627 0-2.498.92-2.498 2.728v2.678h2.482V230h-6.13v-1.167h2.334v-5.537h-2.087v-1.167h3.369v1.545c.46-1.216 1.61-1.66 2.546-1.66.576 0 .888.082 1.085.148zm6.139 6.655c-2.267 0-3.944-1.742-3.944-4.174 0-2.415 1.677-4.157 3.944-4.157s3.944 1.742 3.944 4.157c0 2.432-1.676 4.174-3.944 4.174m0-1.199c1.413 0 2.613-1.069 2.613-2.975 0-1.889-1.2-2.957-2.613-2.957s-2.613 1.068-2.613 2.957c0 1.906 1.2 2.975 2.613 2.975m13.567-5.456c-.214-.066-.543-.148-1.101-.148-1.627 0-2.498.92-2.498 2.728v2.678h2.481V230h-6.129v-1.167h2.333v-5.537h-2.086v-1.167h3.368v1.545c.46-1.216 1.611-1.66 2.547-1.66.575 0 .887.082 1.085.148z"/><path fill="#fff" d="M31.082 107.399c-1.692 0-2.613-.904-2.613-2.695v-2.087c0-1.331-.755-1.972-1.939-2.021v-1.643c1.184-.05 1.94-.707 1.94-2.021v-2.087c0-1.791.92-2.695 2.612-2.695h.805v1.068h-.64c-1.184 0-1.627.542-1.627 1.726v2.267c0 1.348-.756 2.416-2.284 2.564 1.528.131 2.284 1.216 2.284 2.563v2.268c0 1.183.476 1.725 1.627 1.725h.64v1.068zm183.573-3.599c0-.739.558-1.314 1.38-1.314.805 0 1.512.608 1.512 1.807 0 2.515-1.791 3.665-3.336 3.878v-.936c1.331-.247 2.185-1.233 2.185-2.268a1.2 1.2 0 0 1-.493.115c-.706 0-1.248-.509-1.248-1.282m127.413 3.599h-.805v-1.068h.64c1.151 0 1.627-.542 1.627-1.725v-2.268c0-1.347.756-2.432 2.284-2.563-1.528-.148-2.284-1.216-2.284-2.564v-2.267c0-1.184-.443-1.726-1.627-1.726h-.64V92.15h.805c1.692 0 2.612.904 2.612 2.695v2.087c0 1.314.756 1.972 1.939 2.021v1.643c-1.183.049-1.939.69-1.939 2.021v2.087c0 1.791-.92 2.695-2.612 2.695m-310.986 75c-1.692 0-2.613-.904-2.613-2.695v-2.087c0-1.331-.755-1.972-1.939-2.021v-1.643c1.184-.049 1.94-.707 1.94-2.021v-2.087c0-1.791.92-2.695 2.612-2.695h.805v1.068h-.64c-1.184 0-1.627.542-1.627 1.726v2.267c0 1.348-.756 2.416-2.284 2.564 1.528.131 2.284 1.216 2.284 2.563v2.268c0 1.183.476 1.725 1.627 1.725h.64v1.068zm154.014-3.599c0-.739.559-1.314 1.38-1.314.806 0 1.512.608 1.512 1.807 0 2.515-1.791 3.665-3.336 3.878v-.936c1.331-.247 2.186-1.233 2.186-2.268a1.2 1.2 0 0 1-.493.115c-.707 0-1.249-.509-1.249-1.282m137.266 3.599h-.805v-1.068h.641c1.15 0 1.627-.542 1.627-1.725v-2.268c0-1.347.755-2.432 2.284-2.563-1.529-.148-2.284-1.216-2.284-2.564v-2.267c0-1.184-.444-1.726-1.627-1.726h-.641v-1.068h.805c1.693 0 2.613.904 2.613 2.695v2.087c0 1.314.756 1.972 1.939 2.021v1.643c-1.183.049-1.939.69-1.939 2.021v2.087c0 1.791-.92 2.695-2.613 2.695m-49.149 67.392c0-3.714 1.725-6.162 3.681-7.739l.756.788c-1.972 1.693-3.254 3.862-3.254 6.951s1.282 5.258 3.254 6.951l-.756.789c-1.956-1.578-3.681-4.026-3.681-7.74m59.676 4.009c0-.739.558-1.314 1.38-1.314.805 0 1.512.608 1.512 1.807 0 2.515-1.791 3.665-3.336 3.878v-.936c1.331-.247 2.185-1.233 2.185-2.268a1.2 1.2 0 0 1-.493.115c-.706 0-1.248-.509-1.248-1.282m72.486-4.009c0 3.714-1.725 6.162-3.681 7.74l-.756-.789c1.972-1.693 3.254-3.862 3.254-6.951s-1.282-5.258-3.254-6.951l.756-.788c1.956 1.577 3.681 4.025 3.681 7.739"/><path fill="#9cdcfe" d="M45.283 103.817h3.024v-5.505h-2.679V97.13h3.993v6.688h3.024V105h-7.362zm2.383-9.449c0-.69.542-1.232 1.249-1.232.673 0 1.216.542 1.216 1.232s-.543 1.25-1.216 1.25a1.24 1.24 0 0 1-1.25-1.25m13.073 9.334c-.378.821-1.248 1.528-2.694 1.528-2.235 0-3.665-1.84-3.665-4.174 0-2.284 1.512-4.157 3.73-4.157 1.495 0 2.3.707 2.596 1.413V93.12h1.315v10.401c0 .789.05 1.315.082 1.479H60.82a7 7 0 0 1-.082-1.134zm-2.497.329c1.544 0 2.497-1.249 2.497-2.975s-.936-2.957-2.497-2.957c-1.512 0-2.53 1.232-2.53 2.957 0 1.726 1.034 2.975 2.53 2.975m8.62-.28c0-.772.608-1.364 1.348-1.364a1.35 1.35 0 0 1 1.363 1.364c0 .772-.608 1.348-1.363 1.348-.74 0-1.348-.576-1.348-1.348m0-5.521c0-.772.608-1.364 1.348-1.364a1.35 1.35 0 0 1 1.363 1.364c0 .772-.608 1.347-1.363 1.347-.74 0-1.348-.575-1.348-1.347m172.691.345c-.214-.066-.542-.148-1.101-.148-1.627 0-2.498.92-2.498 2.728v2.678h2.481V105h-6.129v-1.167h2.334v-5.537h-2.087v-1.167h3.368v1.545c.46-1.216 1.611-1.66 2.547-1.66.575 0 .888.082 1.085.148zm6.254 6.655c-2.054 0-3.911-1.495-3.911-4.19 0-2.53 1.841-4.141 3.78-4.141 2.333 0 3.746 1.61 3.746 3.977 0 .164-.016.345-.033.46h-6.145v.115a2.555 2.555 0 0 0 2.563 2.563c1.331 0 2.087-.739 2.399-1.66l1.134.411c-.444 1.364-1.709 2.465-3.533 2.465m2.251-5.012c-.066-1.166-.92-2.152-2.366-2.152-1.315 0-2.333 1.018-2.416 2.152zm10.675-3.089v1.2h-3.007v4.19c0 .92.575 1.364 1.429 1.364.542 0 1.249-.099 1.578-.214v1.2c-.362.131-.921.262-1.726.262-1.626 0-2.596-.805-2.596-2.366v-4.436h-2.531v-1.2h1.299c.953 0 1.314-.493 1.314-1.364v-1.413h1.233v2.777zm10.378 1.446c-.213-.066-.542-.148-1.101-.148-1.626 0-2.497.92-2.497 2.728v2.678h2.481V105h-6.129v-1.167h2.333v-5.537h-2.087v-1.167h3.369v1.545c.46-1.216 1.61-1.66 2.547-1.66.575 0 .887.082 1.084.148zm2.787 5.242h3.024v-5.505h-2.679V97.13h3.993v6.688h3.024V105h-7.362zm2.383-9.449c0-.69.542-1.232 1.249-1.232.674 0 1.216.542 1.216 1.232s-.542 1.25-1.216 1.25a1.24 1.24 0 0 1-1.249-1.25m10.937 10.862c-2.054 0-3.91-1.495-3.91-4.19 0-2.53 1.84-4.141 3.779-4.141 2.333 0 3.746 1.61 3.746 3.977 0 .164-.016.345-.032.46h-6.146v.115a2.555 2.555 0 0 0 2.563 2.563c1.331 0 2.087-.739 2.399-1.66l1.134.411c-.443 1.364-1.709 2.465-3.533 2.465m2.252-5.012c-.066-1.166-.921-2.152-2.367-2.152-1.314 0-2.333 1.018-2.415 2.152zm7.749 5.012c-2.218 0-3.336-1.43-3.549-2.317l1.199-.493c.23.822 1.068 1.627 2.383 1.627 1.052 0 1.66-.493 1.66-1.134 0-.575-.378-.92-1.249-1.101l-1.528-.312c-1.479-.296-2.137-1.15-2.137-2.17 0-1.33 1.233-2.431 2.975-2.431 1.758 0 2.892.904 3.253 2.153l-1.117.443c-.263-.756-.937-1.446-2.136-1.446-1.003 0-1.676.477-1.676 1.183 0 .51.312.904 1.1 1.052l1.496.296c1.561.312 2.333 1.084 2.333 2.267 0 1.101-.92 2.383-3.007 2.383m8.111-1.479c0-.772.608-1.364 1.348-1.364a1.35 1.35 0 0 1 1.363 1.364c0 .772-.608 1.348-1.363 1.348-.74 0-1.348-.576-1.348-1.348m0-5.521c0-.772.608-1.364 1.348-1.364a1.35 1.35 0 0 1 1.363 1.364c0 .772-.608 1.347-1.363 1.347-.74 0-1.348-.575-1.348-1.347M45.283 178.817h3.024v-5.505h-2.679v-1.183h3.993v6.688h3.024V180h-7.362zm2.383-9.449c0-.69.542-1.232 1.249-1.232.673 0 1.216.542 1.216 1.232 0 .691-.543 1.249-1.216 1.249a1.24 1.24 0 0 1-1.25-1.249m13.073 9.334c-.378.821-1.248 1.528-2.694 1.528-2.235 0-3.665-1.84-3.665-4.174 0-2.284 1.512-4.157 3.73-4.157 1.495 0 2.3.707 2.596 1.413v-5.192h1.315v10.401c0 .789.05 1.315.082 1.479H60.82a7 7 0 0 1-.082-1.134zm-2.497.329c1.544 0 2.497-1.249 2.497-2.975s-.936-2.957-2.497-2.957c-1.512 0-2.53 1.232-2.53 2.957 0 1.726 1.034 2.975 2.53 2.975m8.62-.28c0-.772.608-1.364 1.348-1.364a1.35 1.35 0 0 1 1.363 1.364c0 .772-.608 1.348-1.363 1.348-.74 0-1.348-.576-1.348-1.348m0-5.521c0-.772.608-1.364 1.348-1.364a1.35 1.35 0 0 1 1.363 1.364c0 .772-.608 1.347-1.363 1.347-.74 0-1.348-.575-1.348-1.347m143.132.345c-.213-.066-.542-.148-1.101-.148-1.626 0-2.497.92-2.497 2.728v2.678h2.481V180h-6.129v-1.167h2.333v-5.537h-2.087v-1.167h3.369v1.545c.46-1.216 1.61-1.66 2.547-1.66.575 0 .887.082 1.084.148zm6.255 6.655c-2.055 0-3.911-1.495-3.911-4.19 0-2.531 1.84-4.141 3.779-4.141 2.333 0 3.747 1.61 3.747 3.977 0 .164-.017.345-.033.46h-6.146v.115c0 1.479 1.2 2.563 2.564 2.563 1.331 0 2.086-.739 2.399-1.66l1.133.411c-.443 1.364-1.709 2.465-3.532 2.465m2.251-5.012c-.066-1.166-.92-2.152-2.367-2.152-1.314 0-2.333 1.018-2.415 2.152zm10.674-3.089v1.2h-3.007v4.19c0 .92.575 1.364 1.43 1.364.542 0 1.249-.099 1.577-.214v1.2c-.361.131-.92.262-1.725.262-1.627 0-2.596-.805-2.596-2.366v-4.436h-2.531v-1.2h1.298c.953 0 1.315-.493 1.315-1.364v-1.413h1.232v2.777zm10.379 1.446c-.214-.066-.542-.148-1.101-.148-1.627 0-2.498.92-2.498 2.728v2.678h2.481V180h-6.129v-1.167h2.334v-5.537h-2.087v-1.167h3.368v1.545c.46-1.216 1.611-1.66 2.547-1.66.575 0 .888.082 1.085.148zm2.787 5.242h3.023v-5.505h-2.678v-1.183h3.993v6.688h3.023V180h-7.361zm2.382-9.449c0-.69.543-1.232 1.249-1.232.674 0 1.216.542 1.216 1.232 0 .691-.542 1.249-1.216 1.249a1.24 1.24 0 0 1-1.249-1.249m10.938 10.862c-2.054 0-3.911-1.495-3.911-4.19 0-2.531 1.84-4.141 3.779-4.141 2.334 0 3.747 1.61 3.747 3.977 0 .164-.017.345-.033.46h-6.146v.115c0 1.479 1.2 2.563 2.564 2.563 1.331 0 2.087-.739 2.399-1.66l1.134.411c-.444 1.364-1.709 2.465-3.533 2.465m2.251-5.012c-.066-1.166-.92-2.152-2.366-2.152-1.315 0-2.334 1.018-2.416 2.152zm7.75 5.012c-2.219 0-3.336-1.43-3.55-2.317l1.2-.493c.23.822 1.068 1.627 2.382 1.627 1.052 0 1.66-.493 1.66-1.134 0-.575-.378-.92-1.249-1.101l-1.528-.312c-1.479-.296-2.136-1.15-2.136-2.169 0-1.331 1.232-2.432 2.974-2.432 1.758 0 2.892.904 3.254 2.153l-1.118.443c-.263-.756-.936-1.446-2.136-1.446-1.002 0-1.676.477-1.676 1.183 0 .51.312.904 1.101 1.052l1.495.296c1.561.312 2.334 1.084 2.334 2.267 0 1.101-.921 2.383-3.007 2.383m8.111-1.479c0-.772.608-1.364 1.347-1.364a1.35 1.35 0 0 1 1.364 1.364c0 .772-.608 1.348-1.364 1.348a1.333 1.333 0 0 1-1.347-1.348m0-5.521c0-.772.608-1.364 1.347-1.364a1.35 1.35 0 0 1 1.364 1.364c0 .772-.608 1.347-1.364 1.347a1.33 1.33 0 0 1-1.347-1.347"/><path fill="#66bd8b" d="M88.753 93.958c-.97.18-1.709 1.002-1.742 1.824.05-.033.214-.083.411-.083.575 0 1.035.395 1.035 1.069 0 .591-.476 1.084-1.15 1.084s-1.265-.526-1.265-1.528c0-1.988 1.61-3.056 2.711-3.22zm2.958 0c-.97.18-1.709 1.002-1.742 1.824.05-.033.214-.083.411-.083.575 0 1.035.395 1.035 1.069 0 .591-.476 1.084-1.15 1.084S89 97.326 89 96.324c0-1.988 1.61-3.056 2.711-3.22zm6.435 11.272c-2.153 0-3.993-1.627-3.993-4.174 0-2.58 1.906-4.157 3.976-4.157 2.137 0 3.287 1.232 3.616 2.498l-1.2.493c-.214-.822-.937-1.759-2.416-1.759-1.298 0-2.645.986-2.645 2.925 0 1.923 1.347 2.942 2.662 2.942 1.577 0 2.218-1.068 2.448-1.775l1.151.493c-.378 1.167-1.529 2.514-3.6 2.514m6.254-12.11h1.315v5.11c.509-.92 1.495-1.331 2.596-1.331 2.005 0 2.974 1.462 2.974 3.221V105h-1.314v-4.65c0-1.167-.493-2.219-2.022-2.219-1.265 0-2.234.937-2.234 2.482V105H104.4zm9.722 9.76c0-1.38 1.035-2.103 2.431-2.3l2.268-.329c.592-.082.707-.345.707-.707 0-.837-.625-1.462-1.89-1.462-1.232 0-2.021.69-2.12 1.594l-1.249-.263c.165-1.462 1.561-2.514 3.336-2.514 2.268 0 3.221 1.249 3.221 2.777v3.845c0 .657.098 1.233.164 1.479h-1.282c-.049-.148-.147-.674-.147-1.183-.247.641-1.184 1.413-2.662 1.413-1.808 0-2.777-1.167-2.777-2.35m2.974 1.151c1.281 0 2.432-.74 2.432-2.317v-.559l-2.712.394c-.788.115-1.38.526-1.38 1.233 0 .673.493 1.249 1.66 1.249m14.076-5.456c-.214-.066-.543-.148-1.101-.148-1.627 0-2.498.92-2.498 2.728v2.678h2.481V105h-6.129v-1.167h2.333v-5.537h-2.086v-1.167h3.368v1.545c.46-1.216 1.61-1.66 2.547-1.66.575 0 .887.082 1.085.148zm3.559 6.639c.164.969 1.035 1.889 2.35 1.889 1.774 0 2.432-1.117 2.432-2.645v-1.315c-.345.772-1.2 1.413-2.498 1.413-2.087 0-3.549-1.643-3.549-3.812 0-2.185 1.446-3.845 3.582-3.845 1.314 0 2.169.575 2.481 1.347V97.13h1.298v7.444c0 1.807-.903 3.746-3.763 3.746-1.873 0-3.418-1.199-3.615-2.793zm4.847-4.437c0-1.627-.969-2.695-2.399-2.695-1.429 0-2.399 1.052-2.399 2.646s.97 2.645 2.399 2.645 2.399-1.051 2.399-2.596m7.701 4.453c-2.054 0-3.911-1.495-3.911-4.19 0-2.53 1.84-4.141 3.779-4.141 2.334 0 3.747 1.61 3.747 3.977 0 .164-.017.345-.033.46h-6.146v.115c0 1.479 1.2 2.563 2.564 2.563 1.331 0 2.087-.739 2.399-1.66l1.134.411c-.444 1.364-1.709 2.465-3.533 2.465m2.251-5.012c-.066-1.166-.92-2.152-2.366-2.152-1.315 0-2.334 1.018-2.416 2.152zm4.644-.51h5.685v1.151h-5.685zm12.942 5.522c-2.153 0-3.993-1.627-3.993-4.174 0-2.58 1.906-4.157 3.976-4.157 2.137 0 3.287 1.232 3.615 2.498l-1.199.493c-.214-.822-.937-1.759-2.416-1.759-1.298 0-2.645.986-2.645 2.925 0 1.923 1.347 2.942 2.662 2.942 1.577 0 2.218-1.068 2.448-1.775l1.15.493c-.378 1.167-1.528 2.514-3.598 2.514m6.123-2.35c0-1.38 1.035-2.103 2.431-2.3l2.268-.329c.592-.082.707-.345.707-.707 0-.837-.625-1.462-1.89-1.462-1.232 0-2.021.69-2.12 1.594l-1.249-.263c.165-1.462 1.561-2.514 3.336-2.514 2.268 0 3.221 1.249 3.221 2.777v3.845c0 .657.098 1.233.164 1.479h-1.282c-.049-.148-.147-.674-.147-1.183-.247.641-1.184 1.413-2.662 1.413-1.808 0-2.777-1.167-2.777-2.35m2.974 1.151c1.281 0 2.432-.74 2.432-2.317v-.559l-2.712.394c-.788.115-1.38.526-1.38 1.233 0 .673.493 1.249 1.66 1.249m14.076-5.456c-.214-.066-.543-.148-1.101-.148-1.627 0-2.498.92-2.498 2.728v2.678h2.481V105h-6.129v-1.167h2.333v-5.537h-2.086v-1.167h3.368v1.545c.46-1.216 1.61-1.66 2.547-1.66.575 0 .887.082 1.085.148zm8.39 5.127c-.378.821-1.249 1.528-2.695 1.528-2.235 0-3.664-1.84-3.664-4.174 0-2.284 1.512-4.157 3.73-4.157 1.495 0 2.3.707 2.596 1.413V93.12h1.315v10.401c0 .789.049 1.315.082 1.479h-1.282a7 7 0 0 1-.082-1.134zm-2.498.329c1.545 0 2.498-1.249 2.498-2.975s-.937-2.957-2.498-2.957c-1.511 0-2.53 1.232-2.53 2.957 0 1.726 1.035 2.975 2.53 2.975m10.412-6.935c.969-.18 1.709-1.002 1.742-1.824-.05.033-.214.082-.411.082-.575 0-1.035-.394-1.035-1.068 0-.591.476-1.084 1.15-1.084s1.265.526 1.265 1.528c0 1.988-1.61 3.056-2.711 3.22zm-2.958 0c.97-.18 1.709-1.002 1.742-1.824-.049.033-.214.082-.411.082-.575 0-1.035-.394-1.035-1.068 0-.591.476-1.084 1.15-1.084s1.265.526 1.265 1.528c0 1.988-1.61 3.056-2.711 3.22zM88.753 168.958c-.97.18-1.709 1.002-1.742 1.824.05-.033.214-.083.411-.083.575 0 1.035.395 1.035 1.069 0 .591-.476 1.084-1.15 1.084s-1.265-.526-1.265-1.528c0-1.988 1.61-3.057 2.711-3.221zm2.958 0c-.97.18-1.709 1.002-1.742 1.824.05-.033.214-.083.411-.083.575 0 1.035.395 1.035 1.069 0 .591-.476 1.084-1.15 1.084S89 172.326 89 171.324c0-1.988 1.61-3.057 2.711-3.221zm6.451 11.272c-2.218 0-3.335-1.43-3.549-2.317l1.2-.493c.23.822 1.068 1.627 2.382 1.627 1.052 0 1.66-.493 1.66-1.134 0-.575-.378-.92-1.249-1.101l-1.528-.312c-1.479-.296-2.136-1.15-2.136-2.169 0-1.331 1.232-2.432 2.974-2.432 1.758 0 2.892.904 3.253 2.153l-1.117.443c-.263-.756-.937-1.446-2.136-1.446-1.002 0-1.676.477-1.676 1.183 0 .51.312.904 1.1 1.052l1.496.296c1.561.312 2.333 1.084 2.333 2.267 0 1.101-.92 2.383-3.007 2.383m12.252-8.101h1.446l-5.373 10.993h-1.462l2.152-4.322-3.533-6.671h1.528l2.695 5.258zm3.839 0h1.282v1.15c.493-.936 1.479-1.38 2.563-1.38 2.054 0 3.04 1.397 3.04 3.139V180h-1.315v-4.7c0-1.133-.509-2.169-2.037-2.169-1.249 0-2.218.937-2.218 2.449V180h-1.315zm13.451 8.101c-2.152 0-3.993-1.627-3.993-4.174 0-2.58 1.907-4.157 3.977-4.157 2.136 0 3.286 1.232 3.615 2.498l-1.199.493c-.214-.822-.937-1.759-2.416-1.759-1.298 0-2.646.986-2.646 2.925 0 1.923 1.348 2.942 2.662 2.942 1.578 0 2.219-1.068 2.449-1.775l1.15.493c-.378 1.167-1.528 2.514-3.599 2.514m6.764-5.521h5.686v1.15h-5.686zm12.942 5.521c-2.152 0-3.993-1.627-3.993-4.174 0-2.58 1.906-4.157 3.977-4.157 2.136 0 3.286 1.232 3.615 2.498l-1.2.493c-.213-.822-.936-1.759-2.415-1.759-1.298 0-2.646.986-2.646 2.925 0 1.923 1.348 2.942 2.662 2.942 1.578 0 2.218-1.068 2.449-1.775l1.15.493c-.378 1.167-1.528 2.514-3.599 2.514m13.32-6.655c-.213-.066-.542-.148-1.101-.148-1.627 0-2.497.92-2.497 2.728v2.678h2.481V180h-6.129v-1.167h2.333v-5.537h-2.087v-1.167h3.369v1.545c.46-1.216 1.61-1.66 2.547-1.66.575 0 .887.082 1.084.148zm3.297-.493c.279-.756.887-1.101 1.626-1.101.74 0 1.381.395 1.545 1.265.296-.788.937-1.265 1.873-1.265 1.003 0 1.972.477 1.972 2.35V180h-1.232v-5.472c0-1.035-.411-1.364-1.068-1.364-.658 0-1.2.46-1.2 1.594V180h-1.216v-5.423c0-1.018-.394-1.413-1.052-1.413-.673 0-1.216.411-1.216 1.611V180h-1.232v-7.871h1.2zm13.007-.986c.97-.181 1.709-1.002 1.742-1.824-.049.033-.213.082-.411.082-.575 0-1.035-.394-1.035-1.068 0-.591.477-1.084 1.15-1.084.674 0 1.266.526 1.266 1.528 0 1.988-1.611 3.056-2.712 3.221zm-2.957 0c.969-.181 1.709-1.002 1.741-1.824-.049.033-.213.082-.41.082-.576 0-1.036-.394-1.036-1.068 0-.591.477-1.084 1.151-1.084.673 0 1.265.526 1.265 1.528 0 1.988-1.61 3.056-2.711 3.221zm111.733 71.862c-.97.18-1.709 1.002-1.742 1.824.049-.033.214-.083.411-.083.575 0 1.035.395 1.035 1.069 0 .591-.476 1.084-1.15 1.084s-1.265-.526-1.265-1.528c0-1.988 1.61-3.057 2.711-3.221zm2.958 0c-.97.18-1.709 1.002-1.742 1.824.049-.033.214-.083.411-.083.575 0 1.035.395 1.035 1.069 0 .591-.477 1.084-1.15 1.084-.674 0-1.266-.526-1.266-1.528 0-1.988 1.611-3.057 2.712-3.221zm3.345 4.124c.28-.756.888-1.101 1.627-1.101.74 0 1.38.395 1.545 1.265.296-.788.936-1.265 1.873-1.265 1.002 0 1.972.477 1.972 2.35V255h-1.232v-5.472c0-1.035-.411-1.364-1.069-1.364s-1.199.46-1.199 1.594V255h-1.216v-5.423c0-1.018-.394-1.413-1.052-1.413-.673 0-1.216.411-1.216 1.611V255h-1.232v-7.871h1.199zm12.959 7.148c-2.218 0-3.336-1.43-3.549-2.317l1.199-.493c.23.822 1.068 1.627 2.383 1.627 1.051 0 1.659-.493 1.659-1.134 0-.575-.378-.92-1.248-1.101l-1.529-.312c-1.479-.296-2.136-1.15-2.136-2.169 0-1.331 1.233-2.432 2.974-2.432 1.759 0 2.892.904 3.254 2.153l-1.117.443c-.263-.756-.937-1.446-2.137-1.446-1.002 0-1.676.477-1.676 1.183 0 .51.313.904 1.101 1.052l1.496.296c1.561.312 2.333 1.084 2.333 2.267 0 1.101-.92 2.383-3.007 2.383m7.01-.016c.164.969 1.035 1.889 2.35 1.889 1.774 0 2.432-1.117 2.432-2.645v-1.315c-.345.772-1.2 1.413-2.498 1.413-2.087 0-3.549-1.643-3.549-3.812 0-2.185 1.446-3.845 3.582-3.845 1.314 0 2.169.575 2.481 1.347v-1.117h1.298v7.444c0 1.807-.903 3.746-3.763 3.746-1.873 0-3.418-1.199-3.615-2.793zm4.847-4.437c0-1.627-.969-2.695-2.399-2.695-1.429 0-2.399 1.052-2.399 2.646s.97 2.645 2.399 2.645 2.399-1.051 2.399-2.596m7.898-3.681c.969-.181 1.709-1.002 1.742-1.824-.05.033-.214.082-.411.082-.575 0-1.035-.394-1.035-1.068 0-.591.476-1.084 1.15-1.084s1.265.526 1.265 1.528c0 1.988-1.61 3.056-2.711 3.221zm-2.958 0c.97-.181 1.709-1.002 1.742-1.824-.049.033-.214.082-.411.082-.575 0-1.035-.394-1.035-1.068 0-.591.476-1.084 1.15-1.084s1.265.526 1.265 1.528c0 1.988-1.61 3.056-2.711 3.221zm32.911-3.138c-.97.18-1.709 1.002-1.742 1.824.049-.033.214-.083.411-.083.575 0 1.035.395 1.035 1.069 0 .591-.477 1.084-1.15 1.084-.674 0-1.266-.526-1.266-1.528 0-1.988 1.611-3.057 2.712-3.221zm2.958 0c-.97.18-1.709 1.002-1.742 1.824.049-.033.213-.083.411-.083.575 0 1.035.395 1.035 1.069 0 .591-.477 1.084-1.15 1.084-.674 0-1.266-.526-1.266-1.528 0-1.988 1.611-3.057 2.712-3.221zm6.484 4.617c1.807 0 3.401 1.167 3.401 3.27 0 1.808-1.397 3.385-3.796 3.385-2.317 0-3.779-1.545-3.927-3.319l1.348-.263c.115 1.462 1.248 2.35 2.563 2.35 1.479 0 2.448-.904 2.448-2.12 0-1.413-.969-2.12-2.333-2.12-.345 0-.674.033-.969.115l-.641-1.15 3.303-3.122h-5.39v-1.249h7.164v1.232zm12.663-2.826c.739 1.068.953 2.481.953 3.927s-.214 2.859-.953 3.927c-.674.986-1.709 1.627-3.106 1.627s-2.432-.641-3.106-1.627c-.739-1.068-.953-2.481-.953-3.927s.214-2.859.953-3.927c.674-.986 1.709-1.627 3.106-1.627s2.432.641 3.106 1.627m-4.848.345c-.69.756-.969 1.972-.969 3.582 0 .969.098 1.808.328 2.481l4.273-5.899-.148-.164c-.428-.46-1.003-.723-1.742-.723-.772 0-1.315.263-1.742.723m3.484 7.164c.69-.756.969-1.972.969-3.582 0-.92-.098-1.725-.296-2.366l-4.239 5.866c.46.509 1.002.805 1.824.805.739 0 1.314-.263 1.742-.723m8.374 1.972c-2.219 0-3.336-1.43-3.55-2.317l1.2-.493c.23.822 1.068 1.627 2.382 1.627 1.052 0 1.66-.493 1.66-1.134 0-.575-.378-.92-1.249-1.101l-1.528-.312c-1.479-.296-2.136-1.15-2.136-2.169 0-1.331 1.232-2.432 2.974-2.432 1.758 0 2.892.904 3.254 2.153l-1.118.443c-.263-.756-.936-1.446-2.136-1.446-1.002 0-1.676.477-1.676 1.183 0 .51.312.904 1.101 1.052l1.495.296c1.561.312 2.334 1.084 2.334 2.267 0 1.101-.921 2.383-3.007 2.383m9.902-8.134c.969-.181 1.709-1.002 1.742-1.824-.05.033-.214.082-.411.082-.575 0-1.036-.394-1.036-1.068 0-.591.477-1.084 1.151-1.084.673 0 1.265.526 1.265 1.528 0 1.988-1.61 3.056-2.711 3.221zm-2.958 0c.969-.181 1.709-1.002 1.742-1.824-.05.033-.214.082-.411.082-.575 0-1.035-.394-1.035-1.068 0-.591.476-1.084 1.15-1.084s1.265.526 1.265 1.528c0 1.988-1.61 3.056-2.711 3.221z"/><path fill="#ffe39b" d="M327.62 95.749c.74 1.068.953 2.481.953 3.927s-.213 2.859-.953 3.927c-.673.986-1.709 1.627-3.105 1.627-1.397 0-2.432-.641-3.106-1.627-.739-1.068-.953-2.481-.953-3.927s.214-2.86.953-3.927c.674-.986 1.709-1.627 3.106-1.627s2.432.64 3.105 1.627m-4.847.345c-.69.756-.97 1.972-.97 3.582 0 .969.099 1.808.329 2.481l4.272-5.899-.148-.164c-.427-.46-1.002-.723-1.741-.723-.773 0-1.315.263-1.742.723m3.483 7.164c.691-.756.97-1.972.97-3.582 0-.92-.099-1.725-.296-2.366l-4.239 5.866c.46.509 1.002.805 1.824.805.739 0 1.314-.263 1.741-.723m-31.678 75.51v-6.376h-3.023v-.904c1.857 0 3.089-.854 3.155-2.136h1.216v9.416h2.727V180h-6.885v-1.232zm13.337-8.019c.739 1.068.953 2.481.953 3.927s-.214 2.859-.953 3.927c-.674.986-1.709 1.627-3.106 1.627s-2.432-.641-3.106-1.627c-.739-1.068-.953-2.481-.953-3.927s.214-2.859.953-3.927c.674-.986 1.709-1.627 3.106-1.627s2.432.641 3.106 1.627m-4.848.345c-.69.756-.969 1.972-.969 3.582 0 .969.098 1.808.328 2.481l4.273-5.899-.148-.164c-.427-.46-1.003-.723-1.742-.723-.772 0-1.315.263-1.742.723m3.484 7.164c.69-.756.969-1.972.969-3.582 0-.92-.098-1.725-.295-2.366l-4.24 5.866c.46.509 1.002.805 1.824.805.739 0 1.315-.263 1.742-.723"/><path fill="#b392f0" d="M32.118 247.129v1.2H29.11v4.19c0 .92.576 1.364 1.43 1.364.542 0 1.249-.099 1.578-.214v1.2c-.362.131-.92.262-1.726.262-1.627 0-2.596-.805-2.596-2.366v-4.436h-2.53v-1.2h1.297c.954 0 1.315-.493 1.315-1.364v-1.413h1.232v2.777zm3.312-4.009h1.315v5.11c.51-.92 1.495-1.331 2.596-1.331 2.005 0 2.974 1.462 2.974 3.221V255h-1.314v-4.65c0-1.167-.493-2.219-2.021-2.219-1.266 0-2.235.937-2.235 2.482V255H35.43zm16.919 5.455c-.214-.066-.542-.148-1.101-.148-1.627 0-2.498.92-2.498 2.728v2.678h2.482V255h-6.13v-1.167h2.334v-5.537h-2.087v-1.167h3.369v1.545c.46-1.216 1.61-1.66 2.546-1.66.576 0 .888.082 1.085.148zm6.14 6.655c-2.268 0-3.945-1.742-3.945-4.174 0-2.415 1.677-4.157 3.944-4.157s3.944 1.742 3.944 4.157c0 2.432-1.676 4.174-3.944 4.174m0-1.199c1.412 0 2.612-1.069 2.612-2.975 0-1.889-1.2-2.957-2.613-2.957s-2.613 1.068-2.613 2.957c0 1.906 1.2 2.975 2.613 2.975m9.145-6.82h1.48l1.511 6.228 1.068-6.31h1.249L71.496 255h-1.578l-1.577-6.392L66.829 255h-1.56l-1.529-7.871h1.282l1.117 6.31zm17.06-.082h1.282v1.15c.493-.936 1.48-1.38 2.564-1.38 2.054 0 3.04 1.397 3.04 3.139V255h-1.315v-4.7c0-1.133-.51-2.169-2.038-2.169-1.249 0-2.218.937-2.218 2.449V255h-1.314zm13.32 8.101c-2.053 0-3.91-1.495-3.91-4.19 0-2.531 1.84-4.141 3.779-4.141 2.333 0 3.747 1.61 3.747 3.977 0 .164-.017.345-.033.46h-6.146v.115c0 1.479 1.2 2.563 2.564 2.563 1.33 0 2.086-.739 2.399-1.66l1.133.411c-.443 1.364-1.709 2.465-3.532 2.465m2.252-5.012c-.066-1.166-.92-2.152-2.367-2.152-1.314 0-2.333 1.018-2.415 2.152zm6.78-3.007h1.479l1.511 6.228 1.068-6.31h1.249L110.907 255h-1.577l-1.578-6.392-1.511 6.392h-1.561l-1.529-7.871h1.282l1.117 6.31z"/><path fill="#fbada7" d="M125.42 250.12V255h-1.363v-11.65h4.239c2.103 0 3.418 1.511 3.418 3.401 0 1.693-1.101 2.974-2.744 3.254l2.695 4.995h-1.561l-2.613-4.88zm2.662-1.249c1.364 0 2.252-.838 2.252-2.12 0-1.298-.888-2.153-2.252-2.153h-2.662v4.273zm9.344 6.359c-2.054 0-3.911-1.495-3.911-4.19 0-2.531 1.84-4.141 3.779-4.141 2.334 0 3.747 1.61 3.747 3.977 0 .164-.017.345-.033.46h-6.146v.115c0 1.479 1.2 2.563 2.564 2.563 1.331 0 2.087-.739 2.399-1.66l1.134.411c-.444 1.364-1.709 2.465-3.533 2.465m2.251-5.012c-.066-1.166-.92-2.152-2.366-2.152-1.315 0-2.334 1.018-2.416 2.152zm10.674-3.089v1.2h-3.007v4.19c0 .92.576 1.364 1.43 1.364.542 0 1.249-.099 1.577-.214v1.2c-.361.131-.92.262-1.725.262-1.627 0-2.596-.805-2.596-2.366v-4.436h-2.531v-1.2h1.298c.953 0 1.315-.493 1.315-1.364v-1.413h1.232v2.777zm10.379 1.446c-.213-.066-.542-.148-1.101-.148-1.627 0-2.497.92-2.497 2.728v2.678h2.481V255h-6.129v-1.167h2.333v-5.537h-2.087v-1.167h3.369v1.545c.46-1.216 1.61-1.66 2.547-1.66.575 0 .887.082 1.084.148zm8.801-1.446h1.446l-5.373 10.993h-1.462l2.152-4.322-3.533-6.671h1.528l2.695 5.258zM179.926 255l-1.051-3.369h-4.338L173.501 255h-1.446l3.681-11.65h1.956l3.697 11.65zm-3.22-10.434-1.759 5.734h3.517zM186.821 255h-1.314v-6.688h-2.859v-1.183h2.859v-1.298c0-1.808 1.249-2.728 2.974-2.728.641 0 1.265.099 1.725.263v1.183c-.525-.164-1.068-.23-1.676-.23-.969 0-1.709.427-1.709 1.66v1.15h3.385v1.183h-3.385zm12.795-7.871v1.2h-3.007v4.19c0 .92.575 1.364 1.429 1.364.542 0 1.249-.099 1.578-.214v1.2c-.362.131-.921.262-1.726.262-1.627 0-2.596-.805-2.596-2.366v-4.436h-2.531v-1.2h1.299c.953 0 1.314-.493 1.314-1.364v-1.413h1.233v2.777zm6.78 8.101c-2.054 0-3.911-1.495-3.911-4.19 0-2.531 1.84-4.141 3.779-4.141 2.334 0 3.747 1.61 3.747 3.977 0 .164-.017.345-.033.46h-6.146v.115c0 1.479 1.2 2.563 2.564 2.563 1.331 0 2.087-.739 2.399-1.66l1.134.411c-.444 1.364-1.709 2.465-3.533 2.465m2.251-5.012c-.066-1.166-.92-2.152-2.366-2.152-1.315 0-2.334 1.018-2.416 2.152zm11.2-1.643c-.213-.066-.542-.148-1.101-.148-1.627 0-2.497.92-2.497 2.728v2.678h2.481V255h-6.129v-1.167h2.333v-5.537h-2.087v-1.167h3.369v1.545c.46-1.216 1.61-1.66 2.547-1.66.575 0 .887.082 1.084.148zm3.017-5.225h6.803v1.281h-5.439v3.911h5.078v1.282h-5.078v3.894h5.439V255h-6.803zm16.689 5.225c-.214-.066-.542-.148-1.101-.148-1.627 0-2.498.92-2.498 2.728v2.678h2.481V255h-6.129v-1.167h2.334v-5.537h-2.087v-1.167h3.368v1.545c.46-1.216 1.611-1.66 2.547-1.66.575 0 .888.082 1.085.148zm9.853 0c-.214-.066-.543-.148-1.101-.148-1.627 0-2.498.92-2.498 2.728v2.678h2.481V255h-6.129v-1.167h2.333v-5.537h-2.086v-1.167h3.368v1.545c.46-1.216 1.61-1.66 2.547-1.66.575 0 .887.082 1.085.148zm6.139 6.655c-2.268 0-3.944-1.742-3.944-4.174 0-2.415 1.676-4.157 3.944-4.157s3.944 1.742 3.944 4.157c0 2.432-1.677 4.174-3.944 4.174m0-1.199c1.413 0 2.613-1.069 2.613-2.975 0-1.889-1.2-2.957-2.613-2.957s-2.613 1.068-2.613 2.957c0 1.906 1.2 2.975 2.613 2.975m13.566-5.456c-.213-.066-.542-.148-1.101-.148-1.626 0-2.497.92-2.497 2.728v2.678h2.481V255h-6.129v-1.167h2.333v-5.537h-2.087v-1.167h3.369v1.545c.46-1.216 1.61-1.66 2.547-1.66.575 0 .887.082 1.084.148z"/><path fill="#fefefe" d="M28.601 17.605c2.53 0 3.264 2.113 3.364 3.148l-1.178.216c-.187-1.107-.734-2.229-2.23-2.229-1.509 0-2.587 1.338-2.587 4.156s1.078 4.17 2.56 4.17c1.537 0 2.055-1.251 2.199-2.301l1.15.187c-.086 1.035-.848 3.25-3.335 3.25-2.2 0-3.782-1.812-3.782-5.306 0-3.48 1.64-5.291 3.839-5.291m10.03 9.46c-.33.705-1.179 1.136-2.128 1.136-1.754 0-2.645-1.179-2.645-2.76v-4.328h1.15v4.14c0 .993.474 1.899 1.754 1.899 1.165 0 1.812-.849 1.812-1.927v-4.112h1.15v5.45c0 .531.058 1.164.1 1.437h-1.106c-.058-.201-.087-.59-.087-.935m7.155 1.136c-1.941 0-2.919-1.25-3.106-2.027l1.05-.431c.201.719.934 1.423 2.085 1.423.92 0 1.452-.431 1.452-.992 0-.503-.33-.805-1.093-.963l-1.337-.273c-1.294-.26-1.87-1.007-1.87-1.898 0-1.165 1.08-2.128 2.603-2.128 1.539 0 2.53.79 2.847 1.883l-.978.388c-.23-.661-.82-1.265-1.869-1.265-.877 0-1.466.417-1.466 1.035 0 .446.273.791.963.92l1.308.26c1.366.273 2.042.948 2.042 1.983 0 .964-.805 2.085-2.631 2.085m11.18-7.088v1.05h-2.63v3.666c0 .805.503 1.193 1.25 1.193.475 0 1.093-.086 1.38-.187v1.05c-.316.115-.805.23-1.51.23-1.423 0-2.271-.704-2.271-2.07v-3.883h-2.214v-1.05h1.136c.834 0 1.15-.43 1.15-1.192v-1.237h1.078v2.43zm5.832 7.088c-1.984 0-3.45-1.524-3.45-3.652 0-2.113 1.466-3.637 3.45-3.637s3.451 1.524 3.451 3.637c0 2.128-1.466 3.652-3.45 3.652m0-1.05c1.237 0 2.287-.934 2.287-2.602 0-1.653-1.05-2.588-2.287-2.588s-2.286.935-2.286 2.588c0 1.668 1.05 2.603 2.286 2.603m6.134-5.204c.245-.662.777-.963 1.424-.963s1.207.345 1.351 1.107c.259-.69.82-1.108 1.64-1.108.876 0 1.725.418 1.725 2.057V28h-1.079v-4.788c0-.906-.36-1.193-.934-1.193s-1.05.402-1.05 1.394V28h-1.064v-4.745c0-.891-.345-1.236-.92-1.236-.59 0-1.064.36-1.064 1.409V28h-1.078v-6.887h1.05zm22.98.431a3.1 3.1 0 0 0-.964-.13c-1.423 0-2.185.806-2.185 2.387v2.344h2.17V28h-5.362v-1.02h2.041v-4.846h-1.826v-1.021h2.948v1.351c.403-1.063 1.409-1.452 2.229-1.452.503 0 .776.072.949.13zm5.472 5.823c-1.797 0-3.422-1.308-3.422-3.666 0-2.214 1.61-3.623 3.307-3.623 2.042 0 3.278 1.409 3.278 3.48 0 .143-.014.301-.029.402h-5.377v.1a2.236 2.236 0 0 0 2.243 2.243c1.165 0 1.826-.647 2.1-1.452l.991.36c-.388 1.193-1.495 2.156-3.091 2.156m1.97-4.385c-.058-1.02-.805-1.883-2.07-1.883-1.151 0-2.042.89-2.114 1.883zm9.34-2.703v1.05h-2.631v3.666c0 .805.503 1.193 1.251 1.193.474 0 1.092-.086 1.38-.187v1.05c-.316.115-.805.23-1.51.23-1.423 0-2.272-.704-2.272-2.07v-3.883h-2.214v-1.05h1.136c.834 0 1.15-.43 1.15-1.192v-1.237h1.079v2.43zm9.081 1.265a3.1 3.1 0 0 0-.963-.13c-1.424 0-2.186.806-2.186 2.387v2.344h2.171V28h-5.363v-1.02h2.042v-4.846h-1.826v-1.021h2.948v1.351c.402-1.063 1.409-1.452 2.228-1.452.503 0 .777.072.949.13zm2.439 4.587h2.645v-4.817h-2.343v-1.035h3.494v5.852h2.645V28h-6.441zm2.085-8.268a1.07 1.07 0 0 1 1.092-1.078c.59 0 1.064.474 1.064 1.078s-.474 1.093-1.064 1.093a1.083 1.083 0 0 1-1.092-1.093m9.57 9.504c-1.797 0-3.422-1.308-3.422-3.666 0-2.214 1.61-3.623 3.307-3.623 2.041 0 3.278 1.409 3.278 3.48 0 .143-.014.301-.029.402h-5.377v.1a2.236 2.236 0 0 0 2.243 2.243c1.164 0 1.826-.647 2.099-1.452l.992.36c-.388 1.193-1.495 2.156-3.091 2.156m1.97-4.385c-.058-1.02-.806-1.883-2.071-1.883-1.15 0-2.042.89-2.113 1.883zm6.78 4.385c-1.941 0-2.918-1.25-3.105-2.027l1.049-.431c.202.719.935 1.423 2.085 1.423.92 0 1.452-.431 1.452-.992 0-.503-.33-.805-1.092-.963l-1.337-.273c-1.295-.26-1.87-1.007-1.87-1.898 0-1.165 1.079-2.128 2.603-2.128 1.538 0 2.53.79 2.847 1.883l-.978.388c-.23-.661-.82-1.265-1.869-1.265-.877 0-1.467.417-1.467 1.035 0 .446.273.791.964.92l1.308.26c1.366.273 2.042.948 2.042 1.983 0 .964-.806 2.085-2.632 2.085"/><path stroke="#fff" d="M.5.5H577v291H.5zM0 47h577.5"/></svg>