<svg preserveAspectRatio="none" width="100%" height="100%" overflow="visible" style="display: block;" viewBox="0 0 178 199.707" fill="none" xmlns="http://www.w3.org/2000/svg">
<g id="Icon">
<path id="Vector" d="M175.828 154.119H132.414V197.534H175.828V154.119Z" stroke="var(--stroke-0, white)" stroke-width="2" stroke-linecap="round" stroke-linejoin="round"/>
<path id="Vector_2" d="M110.707 132.412L89 154.119L132.415 197.534V154.119L110.707 132.412Z" stroke="var(--stroke-0, white)" stroke-width="2" stroke-linecap="round" stroke-linejoin="round"/>
<path id="Vector_3" d="M132.414 154.121H175.829L110.707 88.9986V132.413L132.414 154.121Z" stroke="var(--stroke-0, white)" stroke-width="2" stroke-linecap="round" stroke-linejoin="round"/>
<path id="Vector_4" d="M67.2943 132.412H23.8797V175.827H67.2943V132.412Z" stroke="var(--stroke-0, white)" stroke-width="2" stroke-linecap="round" stroke-linejoin="round"/>
<path id="Vector_5" d="M45.587 110.705L23.8797 132.413H67.2943L45.587 110.705Z" stroke="var(--stroke-0, white)" stroke-width="2" stroke-linecap="round" stroke-linejoin="round"/>
<path id="Vector_6" d="M67.2932 132.412V175.827L89.0005 154.119L110.708 132.412H67.2932Z" stroke="var(--stroke-0, white)" stroke-width="2" stroke-linecap="round" stroke-linejoin="round"/>
<path id="Vector_7" d="M45.5838 23.8783H2.16913V67.2929H45.5838V23.8783Z" stroke="var(--stroke-0, white)" stroke-width="2" stroke-linecap="round" stroke-linejoin="round"/>
<path id="Vector_8" d="M67.2938 89.0002V45.5856L45.5865 23.8783V67.2929L67.2938 89.0002Z" stroke="var(--stroke-0, white)" stroke-width="2" stroke-linecap="round" stroke-linejoin="round"/>
<path id="Vector_9" d="M110.708 132.413V88.9986H67.2932L110.708 132.413Z" stroke="var(--stroke-0, white)" stroke-width="2" stroke-linecap="round" stroke-linejoin="round"/>
<path id="Vector_10" d="M110.706 132.414L67.2911 88.9991L45.5838 67.2918H2.16913L45.5838 110.706L67.2911 132.414H110.706Z" stroke="var(--stroke-0, white)" stroke-width="2" stroke-linecap="round" stroke-linejoin="round"/>
<path id="Vector_11" d="M154.121 2.17152H110.707V45.5862H154.121V2.17152Z" stroke="var(--stroke-0, white)" stroke-width="2" stroke-linecap="round" stroke-linejoin="round"/>
<path id="Vector_12" d="M67.2932 88.9997H110.708L154.122 45.585H110.708L67.2932 88.9997Z" stroke="var(--stroke-0, white)" stroke-width="2" stroke-linecap="round" stroke-linejoin="round"/>
<path id="Vector_13" d="M110.708 45.5862V2.17152L67.2932 45.5862V89.0008L110.708 45.5862Z" stroke="var(--stroke-0, white)" stroke-width="2" stroke-linecap="round" stroke-linejoin="round"/>
</g>
</svg>
