<svg preserveAspectRatio="none" width="100%" height="100%" overflow="visible" style="display: block;" viewBox="0 0 338 136" fill="none" xmlns="http://www.w3.org/2000/svg">
<g id="Icon 2">
<path id="Vector" d="M308.936 133.589C323.648 133.589 335.574 121.642 335.574 106.904C335.574 92.1665 323.648 80.2191 308.936 80.2191C294.225 80.2191 282.299 92.1665 282.299 106.904C282.299 121.642 294.225 133.589 308.936 133.589Z" stroke="var(--stroke-0, white)" stroke-width="0.75" stroke-miterlimit="10"/>
<path id="Vector_2" d="M197.991 133.589C212.702 133.589 224.628 121.642 224.628 106.904C224.628 92.1665 212.702 80.2191 197.991 80.2191C183.279 80.2191 171.353 92.1665 171.353 106.904C171.353 121.642 183.279 133.589 197.991 133.589Z" stroke="var(--stroke-0, white)" stroke-width="0.75" stroke-miterlimit="10"/>
<path id="Vector_3" d="M87.0228 133.589C101.734 133.589 113.66 121.642 113.66 106.904C113.66 92.1665 101.734 80.2191 87.0228 80.2191C72.3113 80.2191 60.3853 92.1665 60.3853 106.904C60.3853 121.642 72.3113 133.589 87.0228 133.589Z" stroke="var(--stroke-0, white)" stroke-width="0.75" stroke-miterlimit="10"/>
<path id="Vector_4" d="M252.971 55.7728C267.682 55.7728 279.608 43.8255 279.608 29.0877C279.608 14.35 267.682 2.40266 252.971 2.40266C238.259 2.40266 226.334 14.35 226.334 29.0877C226.334 43.8255 238.259 55.7728 252.971 55.7728Z" stroke="var(--stroke-0, white)" stroke-width="0.75" stroke-miterlimit="10"/>
<path id="Vector_5" d="M141.018 55.7728C155.729 55.7728 167.655 43.8255 167.655 29.0877C167.655 14.35 155.729 2.40266 141.018 2.40266C126.306 2.40266 114.38 14.35 114.38 29.0877C114.38 43.8255 126.306 55.7728 141.018 55.7728Z" stroke="var(--stroke-0, white)" stroke-width="0.75" stroke-miterlimit="10"/>
<path id="Vector_6" d="M29.0398 55.7728C43.7513 55.7728 55.6773 43.8255 55.6773 29.0877C55.6773 14.35 43.7513 2.40266 29.0398 2.40266C14.3284 2.40266 2.40239 14.35 2.40239 29.0877C2.40239 43.8255 14.3284 55.7728 29.0398 55.7728Z" stroke="var(--stroke-0, white)" stroke-width="0.75" stroke-miterlimit="10"/>
<path id="Vector_7" d="M29.0385 29.0882C57.021 29.0882 57.0211 106.882 85.0276 106.882C113.01 106.882 113.01 29.0882 141.017 29.0882C168.999 29.0882 168.999 106.882 197.006 106.882C224.988 106.882 224.988 29.0882 252.995 29.0882C281.001 29.0882 280.977 106.882 308.984 106.882" stroke="var(--stroke-0, white)" stroke-width="0.75" stroke-miterlimit="10"/>
<path id="Vector_8" d="M308.936 133.589C323.648 133.589 335.574 121.642 335.574 106.904C335.574 92.1665 323.648 80.2191 308.936 80.2191C294.225 80.2191 282.299 92.1665 282.299 106.904C282.299 121.642 294.225 133.589 308.936 133.589Z" stroke="var(--stroke-0, white)" stroke-width="2" stroke-linecap="round" stroke-linejoin="round"/>
<path id="Vector_9" d="M197.991 133.589C212.702 133.589 224.628 121.642 224.628 106.904C224.628 92.1665 212.702 80.2191 197.991 80.2191C183.279 80.2191 171.353 92.1665 171.353 106.904C171.353 121.642 183.279 133.589 197.991 133.589Z" stroke="var(--stroke-0, white)" stroke-width="2" stroke-linecap="round" stroke-linejoin="round"/>
<path id="Vector_10" d="M87.0228 133.589C101.734 133.589 113.66 121.642 113.66 106.904C113.66 92.1665 101.734 80.2191 87.0228 80.2191C72.3113 80.2191 60.3853 92.1665 60.3853 106.904C60.3853 121.642 72.3113 133.589 87.0228 133.589Z" stroke="var(--stroke-0, white)" stroke-width="2" stroke-linecap="round" stroke-linejoin="round"/>
<path id="Vector_11" d="M252.971 55.7728C267.682 55.7728 279.608 43.8255 279.608 29.0877C279.608 14.35 267.682 2.40266 252.971 2.40266C238.259 2.40266 226.334 14.35 226.334 29.0877C226.334 43.8255 238.259 55.7728 252.971 55.7728Z" stroke="var(--stroke-0, white)" stroke-width="2" stroke-linecap="round" stroke-linejoin="round"/>
<path id="Vector_12" d="M141.018 55.7728C155.729 55.7728 167.655 43.8255 167.655 29.0877C167.655 14.35 155.729 2.40266 141.018 2.40266C126.306 2.40266 114.38 14.35 114.38 29.0877C114.38 43.8255 126.306 55.7728 141.018 55.7728Z" stroke="var(--stroke-0, white)" stroke-width="2" stroke-linecap="round" stroke-linejoin="round"/>
<path id="Vector_13" d="M29.0398 55.7728C43.7513 55.7728 55.6773 43.8255 55.6773 29.0877C55.6773 14.35 43.7513 2.40266 29.0398 2.40266C14.3284 2.40266 2.40239 14.35 2.40239 29.0877C2.40239 43.8255 14.3284 55.7728 29.0398 55.7728Z" stroke="var(--stroke-0, white)" stroke-width="2" stroke-linecap="round" stroke-linejoin="round"/>
<path id="Vector_14" d="M29.0385 29.0882C57.021 29.0882 57.0211 106.882 85.0276 106.882C113.01 106.882 113.01 29.0882 141.017 29.0882C168.999 29.0882 168.999 106.882 197.006 106.882C224.988 106.882 224.988 29.0882 252.995 29.0882C281.001 29.0882 280.977 106.882 308.984 106.882" stroke="var(--stroke-0, white)" stroke-width="2" stroke-linecap="round" stroke-linejoin="round"/>
</g>
</svg>
