<svg preserveAspectRatio="none" width="100%" height="100%" overflow="visible" style="display: block;" viewBox="0 0 233 280.638" fill="none" xmlns="http://www.w3.org/2000/svg">
<g id="Icon 1">
<path id="Vector" d="M214.157 242.771H18.8429C9.70383 242.771 2.29514 250.197 2.29514 259.357V261.749C2.29514 270.909 9.70383 278.334 18.8429 278.334H214.157C223.296 278.334 230.705 270.909 230.705 261.749V259.357C230.705 250.197 223.296 242.771 214.157 242.771Z" stroke="var(--stroke-0, white)" stroke-width="2" stroke-miterlimit="10"/>
<path id="Vector_2" d="M52.6729 220.715H180.327" stroke="var(--stroke-0, white)" stroke-width="2" stroke-miterlimit="10"/>
<path id="Vector_3" d="M52.6724 220.715L10.4423 244.868" stroke="var(--stroke-0, white)" stroke-width="2" stroke-miterlimit="10"/>
<path id="Vector_4" d="M180.325 220.715L222.555 244.868" stroke="var(--stroke-0, white)" stroke-width="2" stroke-miterlimit="10"/>
<path id="Vector_5" d="M192.055 193.181H40.945C33.872 193.181 28.1383 198.928 28.1383 206.017V207.857C28.1383 214.946 33.872 220.693 40.945 220.693H192.055C199.128 220.693 204.862 214.946 204.862 207.857V206.017C204.862 198.928 199.128 193.181 192.055 193.181Z" stroke="var(--stroke-0, white)" stroke-width="2" stroke-miterlimit="10"/>
<path id="Vector_6" d="M67.1093 176.111H165.891" stroke="var(--stroke-0, white)" stroke-width="2" stroke-miterlimit="10"/>
<path id="Vector_7" d="M67.1078 176.111L34.4483 194.812" stroke="var(--stroke-0, white)" stroke-width="2" stroke-miterlimit="10"/>
<path id="Vector_8" d="M165.891 176.111L198.55 194.812" stroke="var(--stroke-0, white)" stroke-width="2" stroke-miterlimit="10"/>
<path id="Vector_9" d="M177.183 154.027H55.8405C50.1619 154.027 45.5584 158.641 45.5584 164.333V165.828C45.5584 171.519 50.1619 176.133 55.8405 176.133H177.183C182.862 176.133 187.465 171.519 187.465 165.828V164.333C187.465 158.641 182.862 154.027 177.183 154.027Z" stroke="var(--stroke-0, white)" stroke-width="2" stroke-miterlimit="10"/>
<path id="Vector_10" d="M76.8406 140.319H156.16" stroke="var(--stroke-0, white)" stroke-width="2" stroke-miterlimit="10"/>
<path id="Vector_11" d="M76.8408 140.319L50.6076 155.317" stroke="var(--stroke-0, white)" stroke-width="2" stroke-miterlimit="10"/>
<path id="Vector_12" d="M156.159 140.319L182.393 155.317" stroke="var(--stroke-0, white)" stroke-width="2" stroke-miterlimit="10"/>
<path id="Vector_13" d="M18.8429 37.8636L214.157 37.8636C223.296 37.8636 230.705 30.4382 230.705 21.2784V18.8861C230.705 9.72634 223.296 2.30088 214.157 2.30088L18.8429 2.30088C9.70384 2.30088 2.29517 9.72634 2.29517 18.8861V21.2784C2.29517 30.4382 9.70384 37.8636 18.8429 37.8636Z" stroke="var(--stroke-0, white)" stroke-width="2" stroke-miterlimit="10"/>
<path id="Vector_14" d="M180.327 59.9203H52.6729" stroke="var(--stroke-0, white)" stroke-width="2" stroke-miterlimit="10"/>
<path id="Vector_15" d="M180.325 59.9211L222.555 35.7679" stroke="var(--stroke-0, white)" stroke-width="2" stroke-miterlimit="10"/>
<path id="Vector_16" d="M52.6724 59.9211L10.4423 35.7679" stroke="var(--stroke-0, white)" stroke-width="2" stroke-miterlimit="10"/>
<path id="Vector_17" d="M40.9448 87.4541L192.055 87.4541C199.128 87.4541 204.862 81.7074 204.862 74.6184V72.7781C204.862 65.6892 199.128 59.9424 192.055 59.9424L40.9448 59.9424C33.8718 59.9424 28.138 65.6892 28.138 72.7781V74.6184C28.138 81.7074 33.8718 87.4541 40.9448 87.4541Z" stroke="var(--stroke-0, white)" stroke-width="2" stroke-miterlimit="10"/>
<path id="Vector_18" d="M165.891 104.524H67.1093" stroke="var(--stroke-0, white)" stroke-width="2" stroke-miterlimit="10"/>
<path id="Vector_19" d="M165.891 104.524L198.55 85.8224" stroke="var(--stroke-0, white)" stroke-width="2" stroke-miterlimit="10"/>
<path id="Vector_20" d="M67.1078 104.524L34.4483 85.8224" stroke="var(--stroke-0, white)" stroke-width="2" stroke-miterlimit="10"/>
<path id="Vector_21" d="M55.8168 126.608L177.16 126.608C182.838 126.608 187.442 121.994 187.442 116.302V114.807C187.442 109.116 182.838 104.502 177.16 104.502L55.8168 104.502C50.1382 104.502 45.5347 109.116 45.5347 114.807V116.302C45.5347 121.994 50.1382 126.608 55.8168 126.608Z" stroke="var(--stroke-0, white)" stroke-width="2" stroke-miterlimit="10"/>
<path id="Vector_22" d="M156.16 140.319H76.8406" stroke="var(--stroke-0, white)" stroke-width="2" stroke-miterlimit="10"/>
<path id="Vector_23" d="M156.159 140.316L182.393 125.318" stroke="var(--stroke-0, white)" stroke-width="2" stroke-miterlimit="10"/>
<path id="Vector_24" d="M76.8408 140.316L50.6076 125.318" stroke="var(--stroke-0, white)" stroke-width="2" stroke-miterlimit="10"/>
</g>
</svg>
