<svg width="300" height="240" viewBox="0 0 300 240" fill="none" xmlns="http://www.w3.org/2000/svg">
<mask id="mask0_3612_798" style="mask-type:alpha" maskUnits="userSpaceOnUse" x="59" y="48" width="179" height="147">
<path d="M63.056 61.224C60.896 61.224 59.808 59.832 59.6 58.968L60.768 58.488C60.992 59.288 61.808 60.072 63.088 60.072C64.112 60.072 64.704 59.592 64.704 58.968C64.704 58.408 64.336 58.072 63.488 57.896L62 57.592C60.56 57.304 59.92 56.472 59.92 55.48C59.92 54.184 61.12 53.112 62.816 53.112C64.528 53.112 65.632 53.992 65.984 55.208L64.896 55.64C64.64 54.904 63.984 54.232 62.816 54.232C61.84 54.232 61.184 54.696 61.184 55.384C61.184 55.88 61.488 56.264 62.256 56.408L63.712 56.696C65.232 57 65.984 57.752 65.984 58.904C65.984 59.976 65.088 61.224 63.056 61.224ZM75.4978 53.336V54.504H72.5698V58.584C72.5698 59.48 73.1298 59.912 73.9618 59.912C74.4898 59.912 75.1778 59.816 75.4978 59.704V60.872C75.1458 61 74.6018 61.128 73.8178 61.128C72.2338 61.128 71.2898 60.344 71.2898 58.824V54.504H68.8258V53.336H70.0898C71.0178 53.336 71.3698 52.856 71.3698 52.008V50.632H72.5698V53.336H75.4978ZM82.0995 61.224C80.0995 61.224 78.2915 59.768 78.2915 57.144C78.2915 54.68 80.0835 53.112 81.9715 53.112C84.2435 53.112 85.6195 54.68 85.6195 56.984C85.6195 57.144 85.6035 57.32 85.5875 57.432H79.6035V57.544C79.6035 58.984 80.7715 60.04 82.0995 60.04C83.3955 60.04 84.1315 59.32 84.4355 58.424L85.5395 58.824C85.1075 60.152 83.8755 61.224 82.0995 61.224ZM84.2915 56.344C84.2275 55.208 83.3955 54.248 81.9875 54.248C80.7075 54.248 79.7155 55.24 79.6355 56.344H84.2915ZM88.1253 53.336H89.3733V54.616C89.7253 53.832 90.5893 53.112 92.0293 53.112C94.3173 53.112 95.5813 54.904 95.5813 57.16C95.5813 59.448 94.2053 61.224 91.9653 61.224C90.6053 61.224 89.7573 60.616 89.4053 59.928V64.04H88.1253V53.336ZM91.8053 60.072C93.2933 60.072 94.2853 58.856 94.2853 57.16C94.2853 55.464 93.2933 54.264 91.8053 54.264C90.3333 54.264 89.3733 55.464 89.3733 57.16C89.3733 58.856 90.3493 60.072 91.8053 60.072ZM99.847 59.784C99.847 59.032 100.439 58.456 101.159 58.456C101.895 58.456 102.487 59.032 102.487 59.784C102.487 60.536 101.895 61.096 101.159 61.096C100.439 61.096 99.847 60.536 99.847 59.784ZM114.385 54.744C114.177 54.68 113.857 54.6 113.313 54.6C111.729 54.6 110.881 55.496 110.881 57.256V59.864H113.297V61H107.329V59.864H109.601V54.472H107.569V53.336H110.849V54.84C111.297 53.656 112.417 53.224 113.329 53.224C113.889 53.224 114.193 53.304 114.385 53.368V54.744ZM122.251 59.96C121.883 60.744 120.939 61.224 119.883 61.224C117.931 61.224 116.939 59.912 116.939 58.152V53.336H118.219V57.944C118.219 59.048 118.747 60.056 120.171 60.056C121.467 60.056 122.187 59.112 122.187 57.912V53.336H123.467V59.4C123.467 59.992 123.531 60.696 123.579 61H122.347C122.283 60.776 122.251 60.344 122.251 59.96ZM126.692 53.336H127.94V54.456C128.42 53.544 129.38 53.112 130.436 53.112C132.436 53.112 133.396 54.472 133.396 56.168V61H132.116V56.424C132.116 55.32 131.62 54.312 130.132 54.312C128.916 54.312 127.972 55.224 127.972 56.696V61H126.692V53.336ZM137.566 55.928C137.566 52.312 139.246 49.928 141.15 48.392L141.886 49.16C139.966 50.808 138.718 52.92 138.718 55.928C138.718 58.936 139.966 61.048 141.886 62.696L141.15 63.464C139.246 61.928 137.566 59.544 137.566 55.928ZM151.128 55.928C151.128 59.544 149.448 61.928 147.544 63.464L146.808 62.696C148.728 61.048 149.976 58.936 149.976 55.928C149.976 52.92 148.728 50.808 146.808 49.16L147.544 48.392C149.448 49.928 151.128 52.312 151.128 55.928ZM63.056 87.224C60.896 87.224 59.808 85.832 59.6 84.968L60.768 84.488C60.992 85.288 61.808 86.072 63.088 86.072C64.112 86.072 64.704 85.592 64.704 84.968C64.704 84.408 64.336 84.072 63.488 83.896L62 83.592C60.56 83.304 59.92 82.472 59.92 81.48C59.92 80.184 61.12 79.112 62.816 79.112C64.528 79.112 65.632 79.992 65.984 81.208L64.896 81.64C64.64 80.904 63.984 80.232 62.816 80.232C61.84 80.232 61.184 80.696 61.184 81.384C61.184 81.88 61.488 82.264 62.256 82.408L63.712 82.696C65.232 83 65.984 83.752 65.984 84.904C65.984 85.976 65.088 87.224 63.056 87.224ZM75.4978 79.336V80.504H72.5698V84.584C72.5698 85.48 73.1298 85.912 73.9618 85.912C74.4898 85.912 75.1778 85.816 75.4978 85.704V86.872C75.1458 87 74.6018 87.128 73.8178 87.128C72.2338 87.128 71.2898 86.344 71.2898 84.824V80.504H68.8258V79.336H70.0898C71.0178 79.336 71.3698 78.856 71.3698 78.008V76.632H72.5698V79.336H75.4978ZM82.0995 87.224C80.0995 87.224 78.2915 85.768 78.2915 83.144C78.2915 80.68 80.0835 79.112 81.9715 79.112C84.2435 79.112 85.6195 80.68 85.6195 82.984C85.6195 83.144 85.6035 83.32 85.5875 83.432H79.6035V83.544C79.6035 84.984 80.7715 86.04 82.0995 86.04C83.3955 86.04 84.1315 85.32 84.4355 84.424L85.5395 84.824C85.1075 86.152 83.8755 87.224 82.0995 87.224ZM84.2915 82.344C84.2275 81.208 83.3955 80.248 81.9875 80.248C80.7075 80.248 79.7155 81.24 79.6355 82.344H84.2915ZM88.1253 79.336H89.3733V80.616C89.7253 79.832 90.5893 79.112 92.0293 79.112C94.3173 79.112 95.5813 80.904 95.5813 83.16C95.5813 85.448 94.2053 87.224 91.9653 87.224C90.6053 87.224 89.7573 86.616 89.4053 85.928V90.04H88.1253V79.336ZM91.8053 86.072C93.2933 86.072 94.2853 84.856 94.2853 83.16C94.2853 81.464 93.2933 80.264 91.8053 80.264C90.3333 80.264 89.3733 81.464 89.3733 83.16C89.3733 84.856 90.3493 86.072 91.8053 86.072ZM99.847 85.784C99.847 85.032 100.439 84.456 101.159 84.456C101.895 84.456 102.487 85.032 102.487 85.784C102.487 86.536 101.895 87.096 101.159 87.096C100.439 87.096 99.847 86.536 99.847 85.784ZM111.025 87.224C108.865 87.224 107.777 85.832 107.569 84.968L108.737 84.488C108.961 85.288 109.777 86.072 111.057 86.072C112.081 86.072 112.673 85.592 112.673 84.968C112.673 84.408 112.305 84.072 111.457 83.896L109.969 83.592C108.529 83.304 107.889 82.472 107.889 81.48C107.889 80.184 109.089 79.112 110.785 79.112C112.497 79.112 113.601 79.992 113.953 81.208L112.865 81.64C112.609 80.904 111.953 80.232 110.785 80.232C109.809 80.232 109.153 80.696 109.153 81.384C109.153 81.88 109.457 82.264 110.225 82.408L111.681 82.696C113.201 83 113.953 83.752 113.953 84.904C113.953 85.976 113.057 87.224 111.025 87.224ZM116.779 85.848H119.723V76.584H117.195V75.432H121.003V85.848H123.947V87H116.779V85.848ZM130.068 87.224C128.068 87.224 126.26 85.768 126.26 83.144C126.26 80.68 128.052 79.112 129.94 79.112C132.212 79.112 133.588 80.68 133.588 82.984C133.588 83.144 133.572 83.32 133.556 83.432H127.572V83.544C127.572 84.984 128.74 86.04 130.068 86.04C131.364 86.04 132.1 85.32 132.404 84.424L133.508 84.824C133.076 86.152 131.844 87.224 130.068 87.224ZM132.26 82.344C132.196 81.208 131.364 80.248 129.956 80.248C128.676 80.248 127.684 81.24 127.604 82.344H132.26ZM139.662 87.224C137.662 87.224 135.854 85.768 135.854 83.144C135.854 80.68 137.646 79.112 139.534 79.112C141.806 79.112 143.182 80.68 143.182 82.984C143.182 83.144 143.166 83.32 143.15 83.432H137.166V83.544C137.166 84.984 138.334 86.04 139.662 86.04C140.958 86.04 141.694 85.32 141.998 84.424L143.102 84.824C142.67 86.152 141.438 87.224 139.662 87.224ZM141.854 82.344C141.79 81.208 140.958 80.248 139.55 80.248C138.27 80.248 137.278 81.24 137.198 82.344H141.854ZM145.688 79.336H146.936V80.616C147.288 79.832 148.152 79.112 149.592 79.112C151.88 79.112 153.144 80.904 153.144 83.16C153.144 85.448 151.768 87.224 149.528 87.224C148.168 87.224 147.32 86.616 146.968 85.928V90.04H145.688V79.336ZM149.368 86.072C150.856 86.072 151.848 84.856 151.848 83.16C151.848 81.464 150.856 80.264 149.368 80.264C147.896 80.264 146.936 81.464 146.936 83.16C146.936 84.856 147.912 86.072 149.368 86.072ZM156.754 81.928C156.754 78.312 158.434 75.928 160.338 74.392L161.074 75.16C159.154 76.808 157.906 78.92 157.906 81.928C157.906 84.936 159.154 87.048 161.074 88.696L160.338 89.464C158.434 87.928 156.754 85.544 156.754 81.928ZM170.315 81.928C170.315 85.544 168.635 87.928 166.731 89.464L165.995 88.696C167.915 87.048 169.163 84.936 169.163 81.928C169.163 78.92 167.915 76.808 165.995 75.16L166.731 74.392C168.635 75.928 170.315 78.312 170.315 81.928ZM63.056 113.224C60.896 113.224 59.808 111.832 59.6 110.968L60.768 110.488C60.992 111.288 61.808 112.072 63.088 112.072C64.112 112.072 64.704 111.592 64.704 110.968C64.704 110.408 64.336 110.072 63.488 109.896L62 109.592C60.56 109.304 59.92 108.472 59.92 107.48C59.92 106.184 61.12 105.112 62.816 105.112C64.528 105.112 65.632 105.992 65.984 107.208L64.896 107.64C64.64 106.904 63.984 106.232 62.816 106.232C61.84 106.232 61.184 106.696 61.184 107.384C61.184 107.88 61.488 108.264 62.256 108.408L63.712 108.696C65.232 109 65.984 109.752 65.984 110.904C65.984 111.976 65.088 113.224 63.056 113.224ZM75.4978 105.336V106.504H72.5698V110.584C72.5698 111.48 73.1298 111.912 73.9618 111.912C74.4898 111.912 75.1778 111.816 75.4978 111.704V112.872C75.1458 113 74.6018 113.128 73.8178 113.128C72.2338 113.128 71.2898 112.344 71.2898 110.824V106.504H68.8258V105.336H70.0898C71.0178 105.336 71.3698 104.856 71.3698 104.008V102.632H72.5698V105.336H75.4978ZM82.0995 113.224C80.0995 113.224 78.2915 111.768 78.2915 109.144C78.2915 106.68 80.0835 105.112 81.9715 105.112C84.2435 105.112 85.6195 106.68 85.6195 108.984C85.6195 109.144 85.6035 109.32 85.5875 109.432H79.6035V109.544C79.6035 110.984 80.7715 112.04 82.0995 112.04C83.3955 112.04 84.1315 111.32 84.4355 110.424L85.5395 110.824C85.1075 112.152 83.8755 113.224 82.0995 113.224ZM84.2915 108.344C84.2275 107.208 83.3955 106.248 81.9875 106.248C80.7075 106.248 79.7155 107.24 79.6355 108.344H84.2915ZM88.1253 105.336H89.3733V106.616C89.7253 105.832 90.5893 105.112 92.0293 105.112C94.3173 105.112 95.5813 106.904 95.5813 109.16C95.5813 111.448 94.2053 113.224 91.9653 113.224C90.6053 113.224 89.7573 112.616 89.4053 111.928V116.04H88.1253V105.336ZM91.8053 112.072C93.2933 112.072 94.2853 110.856 94.2853 109.16C94.2853 107.464 93.2933 106.264 91.8053 106.264C90.3333 106.264 89.3733 107.464 89.3733 109.16C89.3733 110.856 90.3493 112.072 91.8053 112.072ZM99.847 111.784C99.847 111.032 100.439 110.456 101.159 110.456C101.895 110.456 102.487 111.032 102.487 111.784C102.487 112.536 101.895 113.096 101.159 113.096C100.439 113.096 99.847 112.536 99.847 111.784ZM111.025 113.224C108.865 113.224 107.777 111.832 107.569 110.968L108.737 110.488C108.961 111.288 109.777 112.072 111.057 112.072C112.081 112.072 112.673 111.592 112.673 110.968C112.673 110.408 112.305 110.072 111.457 109.896L109.969 109.592C108.529 109.304 107.889 108.472 107.889 107.48C107.889 106.184 109.089 105.112 110.785 105.112C112.497 105.112 113.601 105.992 113.953 107.208L112.865 107.64C112.609 106.904 111.953 106.232 110.785 106.232C109.809 106.232 109.153 106.696 109.153 107.384C109.153 107.88 109.457 108.264 110.225 108.408L111.681 108.696C113.201 109 113.953 109.752 113.953 110.904C113.953 111.976 113.057 113.224 111.025 113.224ZM116.779 111.848H119.723V102.584H117.195V101.432H121.003V111.848H123.947V113H116.779V111.848ZM130.068 113.224C128.068 113.224 126.26 111.768 126.26 109.144C126.26 106.68 128.052 105.112 129.94 105.112C132.212 105.112 133.588 106.68 133.588 108.984C133.588 109.144 133.572 109.32 133.556 109.432H127.572V109.544C127.572 110.984 128.74 112.04 130.068 112.04C131.364 112.04 132.1 111.32 132.404 110.424L133.508 110.824C133.076 112.152 131.844 113.224 130.068 113.224ZM132.26 108.344C132.196 107.208 131.364 106.248 129.956 106.248C128.676 106.248 127.684 107.24 127.604 108.344H132.26ZM139.662 113.224C137.662 113.224 135.854 111.768 135.854 109.144C135.854 106.68 137.646 105.112 139.534 105.112C141.806 105.112 143.182 106.68 143.182 108.984C143.182 109.144 143.166 109.32 143.15 109.432H137.166V109.544C137.166 110.984 138.334 112.04 139.662 112.04C140.958 112.04 141.694 111.32 141.998 110.424L143.102 110.824C142.67 112.152 141.438 113.224 139.662 113.224ZM141.854 108.344C141.79 107.208 140.958 106.248 139.55 106.248C138.27 106.248 137.278 107.24 137.198 108.344H141.854ZM145.688 105.336H146.936V106.616C147.288 105.832 148.152 105.112 149.592 105.112C151.88 105.112 153.144 106.904 153.144 109.16C153.144 111.448 151.768 113.224 149.528 113.224C148.168 113.224 147.32 112.616 146.968 111.928V116.04H145.688V105.336ZM149.368 112.072C150.856 112.072 151.848 110.856 151.848 109.16C151.848 107.464 150.856 106.264 149.368 106.264C147.896 106.264 146.936 107.464 146.936 109.16C146.936 110.856 147.912 112.072 149.368 112.072ZM158.738 113.224C156.53 113.224 154.993 112.056 154.993 109.736V101.656H156.322V109.608C156.322 111.112 157.266 111.96 158.738 111.96C160.21 111.96 161.154 111.112 161.154 109.608V101.656H162.482V109.736C162.482 112.056 160.946 113.224 158.738 113.224ZM165.067 105.336H166.315V106.456C166.795 105.544 167.755 105.112 168.811 105.112C170.811 105.112 171.771 106.472 171.771 108.168V113H170.491V108.424C170.491 107.32 169.995 106.312 168.507 106.312C167.291 106.312 166.347 107.224 166.347 108.696V113H165.067V105.336ZM181.029 105.336V106.504H178.101V110.584C178.101 111.48 178.661 111.912 179.493 111.912C180.021 111.912 180.709 111.816 181.029 111.704V112.872C180.677 113 180.133 113.128 179.349 113.128C177.765 113.128 176.821 112.344 176.821 110.824V106.504H174.357V105.336H175.621C176.549 105.336 176.901 104.856 176.901 104.008V102.632H178.101V105.336H181.029ZM184.255 111.848H187.199V106.488H184.591V105.336H188.479V111.848H191.423V113H184.255V111.848ZM186.575 102.648C186.575 101.976 187.103 101.448 187.791 101.448C188.447 101.448 188.975 101.976 188.975 102.648C188.975 103.32 188.447 103.864 187.791 103.864C187.103 103.864 186.575 103.32 186.575 102.648ZM193.529 111.848H196.473V102.584H193.945V101.432H197.753V111.848H200.697V113H193.529V111.848ZM204.722 107.928C204.722 104.312 206.402 101.928 208.306 100.392L209.042 101.16C207.122 102.808 205.874 104.92 205.874 107.928C205.874 110.936 207.122 113.048 209.042 114.696L208.306 115.464C206.402 113.928 204.722 111.544 204.722 107.928ZM218.284 107.928C218.284 111.544 216.604 113.928 214.7 115.464L213.964 114.696C215.884 113.048 217.132 110.936 217.132 107.928C217.132 104.92 215.884 102.808 213.964 101.16L214.7 100.392C216.604 101.928 218.284 104.312 218.284 107.928ZM63.056 139.224C60.896 139.224 59.808 137.832 59.6 136.968L60.768 136.488C60.992 137.288 61.808 138.072 63.088 138.072C64.112 138.072 64.704 137.592 64.704 136.968C64.704 136.408 64.336 136.072 63.488 135.896L62 135.592C60.56 135.304 59.92 134.472 59.92 133.48C59.92 132.184 61.12 131.112 62.816 131.112C64.528 131.112 65.632 131.992 65.984 133.208L64.896 133.64C64.64 132.904 63.984 132.232 62.816 132.232C61.84 132.232 61.184 132.696 61.184 133.384C61.184 133.88 61.488 134.264 62.256 134.408L63.712 134.696C65.232 135 65.984 135.752 65.984 136.904C65.984 137.976 65.088 139.224 63.056 139.224ZM75.4978 131.336V132.504H72.5698V136.584C72.5698 137.48 73.1298 137.912 73.9618 137.912C74.4898 137.912 75.1778 137.816 75.4978 137.704V138.872C75.1458 139 74.6018 139.128 73.8178 139.128C72.2338 139.128 71.2898 138.344 71.2898 136.824V132.504H68.8258V131.336H70.0898C71.0178 131.336 71.3698 130.856 71.3698 130.008V128.632H72.5698V131.336H75.4978ZM82.0995 139.224C80.0995 139.224 78.2915 137.768 78.2915 135.144C78.2915 132.68 80.0835 131.112 81.9715 131.112C84.2435 131.112 85.6195 132.68 85.6195 134.984C85.6195 135.144 85.6035 135.32 85.5875 135.432H79.6035V135.544C79.6035 136.984 80.7715 138.04 82.0995 138.04C83.3955 138.04 84.1315 137.32 84.4355 136.424L85.5395 136.824C85.1075 138.152 83.8755 139.224 82.0995 139.224ZM84.2915 134.344C84.2275 133.208 83.3955 132.248 81.9875 132.248C80.7075 132.248 79.7155 133.24 79.6355 134.344H84.2915ZM88.1253 131.336H89.3733V132.616C89.7253 131.832 90.5893 131.112 92.0293 131.112C94.3173 131.112 95.5813 132.904 95.5813 135.16C95.5813 137.448 94.2053 139.224 91.9653 139.224C90.6053 139.224 89.7573 138.616 89.4053 137.928V142.04H88.1253V131.336ZM91.8053 138.072C93.2933 138.072 94.2853 136.856 94.2853 135.16C94.2853 133.464 93.2933 132.264 91.8053 132.264C90.3333 132.264 89.3733 133.464 89.3733 135.16C89.3733 136.856 90.3493 138.072 91.8053 138.072ZM99.847 137.784C99.847 137.032 100.439 136.456 101.159 136.456C101.895 136.456 102.487 137.032 102.487 137.784C102.487 138.536 101.895 139.096 101.159 139.096C100.439 139.096 99.847 138.536 99.847 137.784ZM107.505 137.848H110.449V132.488H107.841V131.336H111.729V137.848H114.673V139H107.505V137.848ZM109.825 128.648C109.825 127.976 110.353 127.448 111.041 127.448C111.697 127.448 112.225 127.976 112.225 128.648C112.225 129.32 111.697 129.864 111.041 129.864C110.353 129.864 109.825 129.32 109.825 128.648ZM117.099 131.336H118.347V132.456C118.827 131.544 119.786 131.112 120.843 131.112C122.843 131.112 123.803 132.472 123.803 134.168V139H122.523V134.424C122.523 133.32 122.027 132.312 120.539 132.312C119.323 132.312 118.379 133.224 118.379 134.696V139H117.099V131.336ZM129.22 139L125.924 131.336H127.364L129.972 137.736L132.596 131.336H133.988L130.708 139H129.22ZM139.55 139.224C137.342 139.224 135.71 137.528 135.71 135.16C135.71 132.808 137.342 131.112 139.55 131.112C141.758 131.112 143.39 132.808 143.39 135.16C143.39 137.528 141.758 139.224 139.55 139.224ZM139.55 138.056C140.926 138.056 142.094 137.016 142.094 135.16C142.094 133.32 140.926 132.28 139.55 132.28C138.174 132.28 137.006 133.32 137.006 135.16C137.006 137.016 138.174 138.056 139.55 138.056ZM146.184 139V127.432H147.464V135.144L151.528 131.336H153.304L149.832 134.552L153.384 139H151.704L148.872 135.448L147.464 136.76V139H146.184ZM158.85 139.224C156.85 139.224 155.042 137.768 155.042 135.144C155.042 132.68 156.834 131.112 158.722 131.112C160.994 131.112 162.37 132.68 162.37 134.984C162.37 135.144 162.354 135.32 162.338 135.432H156.354V135.544C156.354 136.984 157.522 138.04 158.85 138.04C160.146 138.04 160.882 137.32 161.186 136.424L162.29 136.824C161.858 138.152 160.626 139.224 158.85 139.224ZM161.042 134.344C160.978 133.208 160.146 132.248 158.738 132.248C157.458 132.248 156.466 133.24 156.386 134.344H161.042ZM166.347 133.928C166.347 130.312 168.027 127.928 169.931 126.392L170.667 127.16C168.747 128.808 167.499 130.92 167.499 133.928C167.499 136.936 168.747 139.048 170.667 140.696L169.931 141.464C168.027 139.928 166.347 137.544 166.347 133.928ZM179.909 133.928C179.909 137.544 178.229 139.928 176.325 141.464L175.589 140.696C177.509 139.048 178.757 136.936 178.757 133.928C178.757 130.92 177.509 128.808 175.589 127.16L176.325 126.392C178.229 127.928 179.909 130.312 179.909 133.928ZM63.056 165.224C60.896 165.224 59.808 163.832 59.6 162.968L60.768 162.488C60.992 163.288 61.808 164.072 63.088 164.072C64.112 164.072 64.704 163.592 64.704 162.968C64.704 162.408 64.336 162.072 63.488 161.896L62 161.592C60.56 161.304 59.92 160.472 59.92 159.48C59.92 158.184 61.12 157.112 62.816 157.112C64.528 157.112 65.632 157.992 65.984 159.208L64.896 159.64C64.64 158.904 63.984 158.232 62.816 158.232C61.84 158.232 61.184 158.696 61.184 159.384C61.184 159.88 61.488 160.264 62.256 160.408L63.712 160.696C65.232 161 65.984 161.752 65.984 162.904C65.984 163.976 65.088 165.224 63.056 165.224ZM75.4978 157.336V158.504H72.5698V162.584C72.5698 163.48 73.1298 163.912 73.9618 163.912C74.4898 163.912 75.1778 163.816 75.4978 163.704V164.872C75.1458 165 74.6018 165.128 73.8178 165.128C72.2338 165.128 71.2898 164.344 71.2898 162.824V158.504H68.8258V157.336H70.0898C71.0178 157.336 71.3698 156.856 71.3698 156.008V154.632H72.5698V157.336H75.4978ZM82.0995 165.224C80.0995 165.224 78.2915 163.768 78.2915 161.144C78.2915 158.68 80.0835 157.112 81.9715 157.112C84.2435 157.112 85.6195 158.68 85.6195 160.984C85.6195 161.144 85.6035 161.32 85.5875 161.432H79.6035V161.544C79.6035 162.984 80.7715 164.04 82.0995 164.04C83.3955 164.04 84.1315 163.32 84.4355 162.424L85.5395 162.824C85.1075 164.152 83.8755 165.224 82.0995 165.224ZM84.2915 160.344C84.2275 159.208 83.3955 158.248 81.9875 158.248C80.7075 158.248 79.7155 159.24 79.6355 160.344H84.2915ZM88.1253 157.336H89.3733V158.616C89.7253 157.832 90.5893 157.112 92.0293 157.112C94.3173 157.112 95.5813 158.904 95.5813 161.16C95.5813 163.448 94.2053 165.224 91.9653 165.224C90.6053 165.224 89.7573 164.616 89.4053 163.928V168.04H88.1253V157.336ZM91.8053 164.072C93.2933 164.072 94.2853 162.856 94.2853 161.16C94.2853 159.464 93.2933 158.264 91.8053 158.264C90.3333 158.264 89.3733 159.464 89.3733 161.16C89.3733 162.856 90.3493 164.072 91.8053 164.072ZM99.847 163.784C99.847 163.032 100.439 162.456 101.159 162.456C101.895 162.456 102.487 163.032 102.487 163.784C102.487 164.536 101.895 165.096 101.159 165.096C100.439 165.096 99.847 164.536 99.847 163.784ZM110.081 157.416H111.521L112.993 163.48L114.033 157.336H115.249L113.841 165H112.305L110.769 158.776L109.297 165H107.777L106.289 157.336H107.537L108.625 163.48L110.081 157.416ZM116.971 162.936C116.971 161.592 117.979 160.888 119.339 160.696L121.547 160.376C122.123 160.296 122.235 160.04 122.235 159.688C122.235 158.872 121.627 158.264 120.395 158.264C119.195 158.264 118.427 158.936 118.331 159.816L117.115 159.56C117.275 158.136 118.635 157.112 120.363 157.112C122.571 157.112 123.499 158.328 123.499 159.816V163.56C123.499 164.2 123.595 164.76 123.659 165H122.411C122.363 164.856 122.267 164.344 122.267 163.848C122.027 164.472 121.115 165.224 119.674 165.224C117.914 165.224 116.971 164.088 116.971 162.936ZM119.867 164.056C121.115 164.056 122.235 163.336 122.235 161.8V161.256L119.595 161.64C118.827 161.752 118.251 162.152 118.251 162.84C118.251 163.496 118.731 164.056 119.867 164.056ZM126.692 163.848H129.636V158.488H127.028V157.336H130.916V163.848H133.86V165H126.692V163.848ZM129.012 154.648C129.012 153.976 129.54 153.448 130.228 153.448C130.884 153.448 131.412 153.976 131.412 154.648C131.412 155.32 130.884 155.864 130.228 155.864C129.54 155.864 129.012 155.32 129.012 154.648ZM142.654 157.336V158.504H139.726V162.584C139.726 163.48 140.286 163.912 141.118 163.912C141.646 163.912 142.334 163.816 142.654 163.704V164.872C142.302 165 141.758 165.128 140.974 165.128C139.39 165.128 138.446 164.344 138.446 162.824V158.504H135.982V157.336H137.246C138.174 157.336 138.526 156.856 138.526 156.008V154.632H139.726V157.336H142.654ZM145.928 153.656H152.888V154.904H147.256V158.856H152.472V160.104H147.256V165H145.928V153.656ZM158.738 165.224C156.53 165.224 154.898 163.528 154.898 161.16C154.898 158.808 156.53 157.112 158.738 157.112C160.946 157.112 162.578 158.808 162.578 161.16C162.578 163.528 160.946 165.224 158.738 165.224ZM158.738 164.056C160.114 164.056 161.282 163.016 161.282 161.16C161.282 159.32 160.114 158.28 158.738 158.28C157.362 158.28 156.194 159.32 156.194 161.16C156.194 163.016 157.362 164.056 158.738 164.056ZM171.947 158.744C171.739 158.68 171.419 158.6 170.875 158.6C169.291 158.6 168.443 159.496 168.443 161.256V163.864H170.859V165H164.891V163.864H167.163V158.472H165.131V157.336H168.411V158.84C168.859 157.656 169.979 157.224 170.891 157.224C171.451 157.224 171.755 157.304 171.947 157.368V158.744ZM174.885 153.656H181.509V154.904H176.213V158.712H181.157V159.96H176.213V163.752H181.509V165H174.885V153.656ZM186.783 165L183.487 157.336H184.927L187.535 163.736L190.159 157.336H191.551L188.271 165H186.783ZM197.225 165.224C195.225 165.224 193.417 163.768 193.417 161.144C193.417 158.68 195.209 157.112 197.097 157.112C199.369 157.112 200.745 158.68 200.745 160.984C200.745 161.144 200.729 161.32 200.713 161.432H194.729V161.544C194.729 162.984 195.897 164.04 197.225 164.04C198.521 164.04 199.257 163.32 199.561 162.424L200.665 162.824C200.233 164.152 199.001 165.224 197.225 165.224ZM199.417 160.344C199.353 159.208 198.521 158.248 197.113 158.248C195.833 158.248 194.841 159.24 194.761 160.344H199.417ZM203.442 157.336H204.69V158.456C205.17 157.544 206.13 157.112 207.186 157.112C209.186 157.112 210.146 158.472 210.146 160.168V165H208.866V160.424C208.866 159.32 208.37 158.312 206.882 158.312C205.666 158.312 204.722 159.224 204.722 160.696V165H203.442V157.336ZM219.404 157.336V158.504H216.476V162.584C216.476 163.48 217.036 163.912 217.868 163.912C218.396 163.912 219.084 163.816 219.404 163.704V164.872C219.052 165 218.508 165.128 217.724 165.128C216.14 165.128 215.196 164.344 215.196 162.824V158.504H212.732V157.336H213.996C214.924 157.336 215.276 156.856 215.276 156.008V154.632H216.476V157.336H219.404ZM223.91 159.928C223.91 156.312 225.59 153.928 227.494 152.392L228.23 153.16C226.31 154.808 225.062 156.92 225.062 159.928C225.062 162.936 226.31 165.048 228.23 166.696L227.494 167.464C225.59 165.928 223.91 163.544 223.91 159.928ZM237.472 159.928C237.472 163.544 235.792 165.928 233.888 167.464L233.152 166.696C235.072 165.048 236.32 162.936 236.32 159.928C236.32 156.92 235.072 154.808 233.152 153.16L233.888 152.392C235.792 153.928 237.472 156.312 237.472 159.928ZM63.056 191.224C60.896 191.224 59.808 189.832 59.6 188.968L60.768 188.488C60.992 189.288 61.808 190.072 63.088 190.072C64.112 190.072 64.704 189.592 64.704 188.968C64.704 188.408 64.336 188.072 63.488 187.896L62 187.592C60.56 187.304 59.92 186.472 59.92 185.48C59.92 184.184 61.12 183.112 62.816 183.112C64.528 183.112 65.632 183.992 65.984 185.208L64.896 185.64C64.64 184.904 63.984 184.232 62.816 184.232C61.84 184.232 61.184 184.696 61.184 185.384C61.184 185.88 61.488 186.264 62.256 186.408L63.712 186.696C65.232 187 65.984 187.752 65.984 188.904C65.984 189.976 65.088 191.224 63.056 191.224ZM75.4978 183.336V184.504H72.5698V188.584C72.5698 189.48 73.1298 189.912 73.9618 189.912C74.4898 189.912 75.1778 189.816 75.4978 189.704V190.872C75.1458 191 74.6018 191.128 73.8178 191.128C72.2338 191.128 71.2898 190.344 71.2898 188.824V184.504H68.8258V183.336H70.0898C71.0178 183.336 71.3698 182.856 71.3698 182.008V180.632H72.5698V183.336H75.4978ZM82.0995 191.224C80.0995 191.224 78.2915 189.768 78.2915 187.144C78.2915 184.68 80.0835 183.112 81.9715 183.112C84.2435 183.112 85.6195 184.68 85.6195 186.984C85.6195 187.144 85.6035 187.32 85.5875 187.432H79.6035V187.544C79.6035 188.984 80.7715 190.04 82.0995 190.04C83.3955 190.04 84.1315 189.32 84.4355 188.424L85.5395 188.824C85.1075 190.152 83.8755 191.224 82.0995 191.224ZM84.2915 186.344C84.2275 185.208 83.3955 184.248 81.9875 184.248C80.7075 184.248 79.7155 185.24 79.6355 186.344H84.2915ZM88.1253 183.336H89.3733V184.616C89.7253 183.832 90.5893 183.112 92.0293 183.112C94.3173 183.112 95.5813 184.904 95.5813 187.16C95.5813 189.448 94.2053 191.224 91.9653 191.224C90.6053 191.224 89.7573 190.616 89.4053 189.928V194.04H88.1253V183.336ZM91.8053 190.072C93.2933 190.072 94.2853 188.856 94.2853 187.16C94.2853 185.464 93.2933 184.264 91.8053 184.264C90.3333 184.264 89.3733 185.464 89.3733 187.16C89.3733 188.856 90.3493 190.072 91.8053 190.072ZM99.847 189.784C99.847 189.032 100.439 188.456 101.159 188.456C101.895 188.456 102.487 189.032 102.487 189.784C102.487 190.536 101.895 191.096 101.159 191.096C100.439 191.096 99.847 190.536 99.847 189.784ZM111.025 191.224C108.865 191.224 107.777 189.832 107.569 188.968L108.737 188.488C108.961 189.288 109.777 190.072 111.057 190.072C112.081 190.072 112.673 189.592 112.673 188.968C112.673 188.408 112.305 188.072 111.457 187.896L109.969 187.592C108.529 187.304 107.889 186.472 107.889 185.48C107.889 184.184 109.089 183.112 110.785 183.112C112.497 183.112 113.601 183.992 113.953 185.208L112.865 185.64C112.609 184.904 111.953 184.232 110.785 184.232C109.809 184.232 109.153 184.696 109.153 185.384C109.153 185.88 109.457 186.264 110.225 186.408L111.681 186.696C113.201 187 113.953 187.752 113.953 188.904C113.953 189.976 113.057 191.224 111.025 191.224ZM120.475 191.224C118.475 191.224 116.667 189.768 116.667 187.144C116.667 184.68 118.459 183.112 120.347 183.112C122.619 183.112 123.995 184.68 123.995 186.984C123.995 187.144 123.979 187.32 123.963 187.432H117.979V187.544C117.979 188.984 119.147 190.04 120.475 190.04C121.771 190.04 122.507 189.32 122.811 188.424L123.915 188.824C123.483 190.152 122.251 191.224 120.475 191.224ZM122.667 186.344C122.603 185.208 121.771 184.248 120.363 184.248C119.083 184.248 118.091 185.24 118.011 186.344H122.667ZM126.692 183.336H127.94V184.456C128.42 183.544 129.38 183.112 130.436 183.112C132.436 183.112 133.396 184.472 133.396 186.168V191H132.116V186.424C132.116 185.32 131.62 184.312 130.132 184.312C128.916 184.312 127.972 185.224 127.972 186.696V191H126.692V183.336ZM141.742 189.736C141.374 190.536 140.526 191.224 139.118 191.224C136.942 191.224 135.55 189.432 135.55 187.16C135.55 184.936 137.022 183.112 139.182 183.112C140.638 183.112 141.422 183.8 141.71 184.488V179.432H142.99V189.56C142.99 190.328 143.038 190.84 143.07 191H141.822C141.79 190.824 141.742 190.392 141.742 189.896V189.736ZM139.31 190.056C140.814 190.056 141.742 188.84 141.742 187.16C141.742 185.48 140.83 184.28 139.31 184.28C137.838 184.28 136.846 185.48 136.846 187.16C136.846 188.84 137.854 190.056 139.31 190.056ZM146.104 179.656H152.728V180.904H147.432V184.712H152.376V185.96H147.432V189.752H152.728V191H146.104V179.656ZM158.002 191L154.706 183.336H156.146L158.754 189.736L161.378 183.336H162.77L159.49 191H158.002ZM168.443 191.224C166.443 191.224 164.635 189.768 164.635 187.144C164.635 184.68 166.427 183.112 168.315 183.112C170.587 183.112 171.963 184.68 171.963 186.984C171.963 187.144 171.947 187.32 171.931 187.432H165.947V187.544C165.947 188.984 167.115 190.04 168.443 190.04C169.739 190.04 170.475 189.32 170.779 188.424L171.883 188.824C171.451 190.152 170.219 191.224 168.443 191.224ZM170.635 186.344C170.571 185.208 169.739 184.248 168.331 184.248C167.051 184.248 166.059 185.24 165.979 186.344H170.635ZM174.661 183.336H175.909V184.456C176.389 183.544 177.349 183.112 178.405 183.112C180.405 183.112 181.365 184.472 181.365 186.168V191H180.085V186.424C180.085 185.32 179.589 184.312 178.101 184.312C176.885 184.312 175.941 185.224 175.941 186.696V191H174.661V183.336ZM190.623 183.336V184.504H187.695V188.584C187.695 189.48 188.255 189.912 189.087 189.912C189.615 189.912 190.303 189.816 190.623 189.704V190.872C190.271 191 189.727 191.128 188.943 191.128C187.359 191.128 186.415 190.344 186.415 188.824V184.504H183.951V183.336H185.215C186.143 183.336 186.495 182.856 186.495 182.008V180.632H187.695V183.336H190.623ZM195.129 185.928C195.129 182.312 196.809 179.928 198.713 178.392L199.449 179.16C197.529 180.808 196.281 182.92 196.281 185.928C196.281 188.936 197.529 191.048 199.449 192.696L198.713 193.464C196.809 191.928 195.129 189.544 195.129 185.928ZM208.69 185.928C208.69 189.544 207.01 191.928 205.106 193.464L204.37 192.696C206.29 191.048 207.538 188.936 207.538 185.928C207.538 182.92 206.29 180.808 204.37 179.16L205.106 178.392C207.01 179.928 208.69 182.312 208.69 185.928Z" fill="white"/>
</mask>
<g mask="url(#mask0_3612_798)">
<mask id="mask1_3612_798" style="mask-type:alpha" maskUnits="userSpaceOnUse" x="0" y="0" width="300" height="240">
<rect width="300" height="240" fill="url(#paint0_radial_3612_798)"/>
</mask>
<g mask="url(#mask1_3612_798)">
<rect opacity="0.9" width="300" height="240" fill="url(#paint1_linear_3612_798)"/>
</g>
</g>
<defs>
<radialGradient id="paint0_radial_3612_798" cx="0" cy="0" r="1" gradientUnits="userSpaceOnUse" gradientTransform="translate(150 120) rotate(90) scale(120 150)">
<stop stop-color="white"/>
<stop offset="0.835" stop-color="white" stop-opacity="0.5"/>
<stop offset="1" stop-color="white" stop-opacity="0"/>
</radialGradient>
<linearGradient id="paint1_linear_3612_798" x1="0" y1="120" x2="300" y2="120" gradientUnits="userSpaceOnUse">
<stop stop-color="#14B8A6"/>
<stop offset="1" stop-color="#21AFFF"/>
</linearGradient>
</defs>
</svg>
