<svg width="100%" height="100%" overflow="visible" style="display: block;" viewBox="0 0 311.544 171.997" fill="none" xmlns="http://www.w3.org/2000/svg">
<g id="Group 1321322611">
<path id="Vector" d="M155.68 36.4892L135.509 16.3182" stroke="var(--stroke-0, white)" stroke-width="1.13998" stroke-linejoin="round"/>
<path id="Vector_2" d="M168.083 62.1407L109.864 3.91459" stroke="var(--stroke-0, white)" stroke-width="1.45835" stroke-linejoin="round"/>
<path id="Vector_3" d="M171.129 78.4276L93.5696 0.867681" stroke="var(--stroke-0, white)" stroke-width="1.75618" stroke-linejoin="round"/>
<path id="Vector_4" d="M171.269 91.8094L80.1892 0.729834" stroke="var(--stroke-0, white)" stroke-width="2.06428" stroke-linejoin="round"/>
<path id="Vector_5" d="M169.672 103.45L68.5461 2.3241" stroke="var(--stroke-0, white)" stroke-width="2.36211" stroke-linejoin="round"/>
<path id="Vector_6" d="M166.82 113.846L58.1504 5.17731" stroke="var(--stroke-0, white)" stroke-width="2.65994" stroke-linejoin="round"/>
<path id="Vector_7" d="M162.959 123.229L48.7708 9.03995" stroke="var(--stroke-0, white)" stroke-width="2.96805" stroke-linejoin="round"/>
<path id="Vector_8" d="M158.222 131.73L40.2655 13.7742" stroke="var(--stroke-0, white)" stroke-width="3.26588" stroke-linejoin="round"/>
<path id="Vector_9" d="M152.695 139.452L32.545 19.3018" stroke="var(--stroke-0, white)" stroke-width="3.56371" stroke-linejoin="round"/>
<path id="Vector_10" d="M146.438 146.438L25.5593 25.5595" stroke="var(--stroke-0, white)" stroke-width="3.86154" stroke-linejoin="round"/>
<path id="Vector_11" d="M139.454 152.694L19.3044 32.5436" stroke="var(--stroke-0, white)" stroke-width="3.56371" stroke-linejoin="round"/>
<path id="Vector_12" d="M131.733 158.221L13.7764 40.2651" stroke="var(--stroke-0, white)" stroke-width="3.26588" stroke-linejoin="round"/>
<path id="Vector_13" d="M123.23 162.957L9.04114 48.7688" stroke="var(--stroke-0, white)" stroke-width="2.96805" stroke-linejoin="round"/>
<path id="Vector_14" d="M113.849 166.817L5.18011 58.1479" stroke="var(--stroke-0, white)" stroke-width="2.65994" stroke-linejoin="round"/>
<path id="Vector_15" d="M103.454 169.67L2.32748 68.5439" stroke="var(--stroke-0, white)" stroke-width="2.36211" stroke-linejoin="round"/>
<path id="Vector_16" d="M0.729834 80.1876L91.8094 171.267" stroke="var(--stroke-0, white)" stroke-width="2.06428" stroke-linejoin="round"/>
<path id="Vector_17" d="M78.4295 171.127L0.869547 93.5672" stroke="var(--stroke-0, white)" stroke-width="1.75618" stroke-linejoin="round"/>
<path id="Vector_18" d="M62.142 168.082L3.9159 109.863" stroke="var(--stroke-0, white)" stroke-width="1.45835" stroke-linejoin="round"/>
<path id="Vector_19" d="M36.4904 155.68L16.3194 135.509" stroke="var(--stroke-0, white)" stroke-width="1.13998" stroke-linejoin="round"/>
<path id="Vector_20" d="M295.226 36.4892L275.055 16.3182" stroke="var(--stroke-0, white)" stroke-width="1.13998" stroke-linejoin="round"/>
<path id="Vector_21" d="M307.629 62.1407L249.403 3.91462" stroke="var(--stroke-0, white)" stroke-width="1.45835" stroke-linejoin="round"/>
<path id="Vector_22" d="M310.676 78.4276L233.116 0.867712" stroke="var(--stroke-0, white)" stroke-width="1.75618" stroke-linejoin="round"/>
<path id="Vector_23" d="M310.815 91.8095L219.735 0.729864" stroke="var(--stroke-0, white)" stroke-width="2.06428" stroke-linejoin="round"/>
<path id="Vector_24" d="M309.219 103.45L208.092 2.3241" stroke="var(--stroke-0, white)" stroke-width="2.36211" stroke-linejoin="round"/>
<path id="Vector_25" d="M306.366 113.846L197.697 5.17728" stroke="var(--stroke-0, white)" stroke-width="2.65994" stroke-linejoin="round"/>
<path id="Vector_26" d="M302.504 123.229L188.315 9.03995" stroke="var(--stroke-0, white)" stroke-width="2.96805" stroke-linejoin="round"/>
<path id="Vector_27" d="M297.768 131.73L179.812 13.7742" stroke="var(--stroke-0, white)" stroke-width="3.26588" stroke-linejoin="round"/>
<path id="Vector_28" d="M292.241 139.452L172.091 19.3018" stroke="var(--stroke-0, white)" stroke-width="3.56371" stroke-linejoin="round"/>
<path id="Vector_29" d="M285.977 146.438L165.106 25.5595" stroke="var(--stroke-0, white)" stroke-width="3.86154" stroke-linejoin="round"/>
<path id="Vector_30" d="M279.001 152.694L158.851 32.5435" stroke="var(--stroke-0, white)" stroke-width="3.56371" stroke-linejoin="round"/>
<path id="Vector_31" d="M271.279 158.221L153.323 40.2651" stroke="var(--stroke-0, white)" stroke-width="3.26588" stroke-linejoin="round"/>
<path id="Vector_32" d="M262.776 162.957L148.587 48.7688" stroke="var(--stroke-0, white)" stroke-width="2.96805" stroke-linejoin="round"/>
<path id="Vector_33" d="M253.395 166.817L144.726 58.1479" stroke="var(--stroke-0, white)" stroke-width="2.65994" stroke-linejoin="round"/>
<path id="Vector_34" d="M243 169.67L141.874 68.5439" stroke="var(--stroke-0, white)" stroke-width="2.36211" stroke-linejoin="round"/>
<path id="Vector_35" d="M140.276 80.1877L231.355 171.267" stroke="var(--stroke-0, white)" stroke-width="2.06428" stroke-linejoin="round"/>
<path id="Vector_36" d="M217.976 171.127L140.416 93.5672" stroke="var(--stroke-0, white)" stroke-width="1.75618" stroke-linejoin="round"/>
<path id="Vector_37" d="M201.68 168.082L143.462 109.863" stroke="var(--stroke-0, white)" stroke-width="1.45835" stroke-linejoin="round"/>
<path id="Vector_38" d="M176.037 155.68L155.866 135.509" stroke="var(--stroke-0, white)" stroke-width="1.13998" stroke-linejoin="round"/>
</g>
</svg>
