<svg width="347" height="172" viewBox="0 0 347 172" fill="none" xmlns="http://www.w3.org/2000/svg">
<g clip-path="url(#clip0_192_3420)">
<path opacity="0.6" d="M1.5 51H359.021" stroke="#353535" stroke-width="2"/>
<path opacity="0.6" d="M1.5 84H359.021" stroke="#353535" stroke-width="2"/>
<path opacity="0.6" d="M1.5 116H359.021" stroke="#353535" stroke-width="2"/>
<path opacity="0.6" d="M1.5 150H359.021" stroke="#353535" stroke-width="2"/>
<circle opacity="0.7" cx="46.5" cy="100" r="8" fill="#7C7C7C"/>
<circle cx="160.336" cy="67.8572" r="8" fill="#7C7C7C"/>
<circle opacity="0.5" cx="106.5" cy="134" r="8" fill="#7C7C7C"/>
<path d="M278.908 12.4577C279.487 11.4688 280.917 11.4688 281.496 12.4577L295.589 36.5093C296.175 37.5093 295.454 38.7676 294.295 38.7676H266.109C264.95 38.7676 264.228 37.5093 264.814 36.5093L278.908 12.4577Z" stroke="#A52015"/>
<path d="M284.434 25.2212L283.581 24.3687L280.201 27.7485L276.821 24.3687L275.969 25.2212L279.349 28.6011L275.969 31.981L276.821 32.8335L280.201 29.4536L283.581 32.8335L284.434 31.981L281.054 28.6011L284.434 25.2212Z" fill="#A52015"/>
<circle cx="200.5" cy="14" r="12" fill="#0F0F0F"/>
<circle cx="200.5" cy="27" r="8" fill="#8B1E16"/>
</g>
<defs>
<clipPath id="clip0_192_3420">
<rect width="346" height="172" fill="white" transform="translate(0.5)"/>
</clipPath>
</defs>
</svg>
