<svg width="348" height="263" viewBox="0 0 348 263" fill="none" xmlns="http://www.w3.org/2000/svg">
<g clip-path="url(#clip0_192_3227)">
<rect opacity="0.6" x="1.33203" y="47.5" width="271.596" height="1" rx="0.5" fill="#353535" stroke="#353535"/>
<rect opacity="0.6" x="1.33203" y="103.5" width="271.596" height="1" rx="0.5" fill="#353535" stroke="#353535"/>
<rect opacity="0.6" x="1.33203" y="161.5" width="271.596" height="1" rx="0.5" fill="#353535" stroke="#353535"/>
<rect opacity="0.6" x="1.33203" y="215.5" width="271.596" height="1" rx="0.5" fill="#353535" stroke="#353535"/>
<circle cx="17.832" cy="48" r="12" fill="#0F0F0F"/>
<circle cx="17.832" cy="48" r="8" fill="#636363"/>
<circle cx="25.832" cy="48" r="12" fill="#0F0F0F"/>
<circle cx="25.832" cy="48" r="8" fill="#636363"/>
<circle cx="33.832" cy="48" r="12" fill="#0F0F0F"/>
<circle cx="33.832" cy="48" r="8" fill="#636363"/>
<circle cx="42.832" cy="48" r="12" fill="#0F0F0F"/>
<circle cx="42.832" cy="48" r="8" fill="#636363"/>
<circle cx="50.832" cy="48" r="12" fill="#0F0F0F"/>
<circle cx="50.832" cy="48" r="8" fill="#636363"/>
<circle cx="58.832" cy="48" r="12" fill="#0F0F0F"/>
<circle cx="58.832" cy="48" r="8" fill="#636363"/>
<circle cx="66.832" cy="48" r="12" fill="#0F0F0F"/>
<circle cx="66.832" cy="48" r="8" fill="#636363"/>
<circle cx="74.832" cy="48" r="12" fill="#0F0F0F"/>
<circle cx="74.832" cy="48" r="8" fill="#636363"/>
<circle cx="82.832" cy="48" r="12" fill="#0F0F0F"/>
<circle cx="82.832" cy="48" r="8" fill="#636363"/>
<circle cx="90.832" cy="48" r="12" fill="#0F0F0F"/>
<circle cx="90.832" cy="48" r="8" fill="#636363"/>
<circle cx="98.832" cy="48" r="12" fill="#0F0F0F"/>
<circle opacity="0.6" cx="98.832" cy="48" r="8" fill="#CCCCCC"/>
<circle cx="19.832" cy="104" r="12" fill="#0F0F0F"/>
<circle opacity="0.6" cx="19.832" cy="104" r="8" fill="#2C9B63"/>
<circle cx="126.184" cy="104" r="12" fill="#0F0F0F"/>
<circle opacity="0.6" cx="126.184" cy="104" r="8" fill="#2C9B63"/>
<circle cx="235.832" cy="104" r="12" fill="#0F0F0F"/>
<circle opacity="0.6" cx="235.832" cy="104" r="8" fill="#2C9B63"/>
<circle cx="300.832" cy="124" r="12" fill="#0F0F0F"/>
<circle opacity="0.6" cx="325.555" cy="132.225" r="8" fill="#2C9B63"/>
<circle cx="18.832" cy="216" r="12" fill="#0F0F0F"/>
<circle cx="18.832" cy="216" r="8" fill="#7C7C7C"/>
<circle cx="98.832" cy="216" r="12" fill="#0F0F0F"/>
<circle cx="98.832" cy="216" r="8" fill="#7C7C7C"/>
<circle cx="18.832" cy="160" r="12" fill="#0F0F0F"/>
<circle cx="18.832" cy="160" r="8" fill="#4B4B4B"/>
<circle cx="235.832" cy="160" r="12" fill="#0F0F0F"/>
<circle cx="235.832" cy="160" r="8" fill="#4B4B4B"/>
</g>
<defs>
<clipPath id="clip0_192_3227">
<rect width="346.667" height="263" fill="white" transform="translate(0.832031)"/>
</clipPath>
</defs>
</svg>
