<svg width="331" height="150" viewBox="0 0 331 150" fill="none" xmlns="http://www.w3.org/2000/svg">
<rect opacity="0.6" x="17.1641" y="73" width="294" height="2" fill="#353535"/>
<rect opacity="0.6" x="252.664" y="53.5" width="71" height="41" rx="7.5" fill="#141414" stroke="#353535"/>
<circle cx="270.164" cy="75" r="12" fill="#141414"/>
<circle opacity="0.5" cx="270.164" cy="75" r="8" fill="#1365D6"/>
<circle cx="282.164" cy="75" r="12" fill="#141414"/>
<circle cx="282.164" cy="75" r="8" fill="#4B4B4B"/>
<circle cx="294.164" cy="75" r="12" fill="#141414"/>
<circle opacity="0.6" cx="294.164" cy="75" r="8" fill="#9B9B9B"/>
<circle cx="306.164" cy="75" r="12" fill="#141414"/>
<circle opacity="0.5" cx="306.164" cy="75" r="8" fill="#1365D6"/>
<rect opacity="0.6" x="134.664" y="53.5" width="71" height="41" rx="7.5" fill="#141414" stroke="#353535"/>
<circle cx="152.164" cy="75" r="12" fill="#141414"/>
<circle opacity="0.5" cx="152.164" cy="75" r="8" fill="#1365D6"/>
<circle cx="164.164" cy="75" r="12" fill="#141414"/>
<circle cx="164.164" cy="75" r="8" fill="#4B4B4B"/>
<circle cx="176.164" cy="75" r="12" fill="#141414"/>
<circle opacity="0.6" cx="176.164" cy="75" r="8" fill="#9B9B9B"/>
<circle cx="188.164" cy="75" r="12" fill="#141414"/>
<circle opacity="0.5" cx="188.164" cy="75" r="8" fill="#1365D6"/>
<rect opacity="0.6" x="7.66406" y="53.5" width="71" height="41" rx="7.5" fill="#141414" stroke="#353535"/>
<circle cx="25.1641" cy="75" r="12" fill="#141414"/>
<circle opacity="0.5" cx="25.1641" cy="75" r="8" fill="#1365D6"/>
<circle cx="37.1641" cy="75" r="12" fill="#141414"/>
<circle cx="37.1641" cy="75" r="8" fill="#4B4B4B"/>
<circle cx="49.1641" cy="75" r="12" fill="#141414"/>
<circle opacity="0.6" cx="49.1641" cy="75" r="8" fill="#9B9B9B"/>
<circle cx="61.1641" cy="75" r="12" fill="#141414"/>
<circle opacity="0.5" cx="61.1641" cy="75" r="8" fill="#1365D6"/>
</svg>
