<svg width="348" height="243" viewBox="0 0 348 243" fill="none" xmlns="http://www.w3.org/2000/svg">
<g clip-path="url(#clip0_288_6617)">
<path opacity="0.6" d="M291.822 208.385H374.24L429.004 221.964V265.054H-252.331C-223.948 151.805 -212.545 84.4069 -212.545 84.4069L-180.563 208.385H-132.854H-78.317C-78.317 208.385 -71.2257 206.448 -7.02307 208.385C59.2832 210.385 63.7394 208.385 63.7394 208.385L123.923 47.0774L164.306 175.419L221.432 208.385L251.672 77.7686L291.822 208.385Z" stroke="#4B4B4B"/>
<circle cx="124.578" cy="48.8368" r="5.08553" fill="#015430"/>
<circle cx="62.5308" cy="207.3" r="5.08553" fill="#015430"/>
<circle cx="164.804" cy="174.89" r="5.08553" fill="#015430"/>
<circle cx="221.953" cy="206.854" r="5.08553" fill="#015430"/>
<circle cx="251.332" cy="79.6185" r="5.08553" fill="#015430"/>
<circle cx="293.477" cy="206.3" r="5" fill="#015430"/>
</g>
<defs>
<clipPath id="clip0_288_6617">
<rect width="347" height="243" fill="white" transform="translate(0.164062)"/>
</clipPath>
</defs>
</svg>
