<svg width="348" height="259" viewBox="0 0 348 259" fill="none" xmlns="http://www.w3.org/2000/svg">
<path opacity="0.6" d="M43.8164 128.667L85.2902 128.667" stroke="#353535" stroke-width="2"/>
<path opacity="0.6" d="M104.809 128.667L146.282 128.667" stroke="#353535" stroke-width="2"/>
<path opacity="0.6" d="M161.598 128.667L196.095 128.667" stroke="#353535" stroke-width="2"/>
<path opacity="0.6" d="M216.395 128.667L249.598 128.667" stroke="#353535" stroke-width="2"/>
<circle opacity="0.3" cx="35.832" cy="128.925" r="8" transform="rotate(-90 35.832 128.925)" fill="#4B4B4B"/>
<path opacity="0.6" d="M153.016 212.64L197.401 212.64" stroke="#353535" stroke-width="2"/>
<path opacity="0.6" d="M153.262 212.182L153.262 46.478L197.813 46.478" stroke="#353535" stroke-width="2"/>
<path opacity="0.6" d="M217.168 212.64L260.076 212.64L260.076 137.095" stroke="#353535" stroke-width="2"/>
<path opacity="0.6" d="M217.012 45.7612L259.586 45.7612L259.586 118.01" stroke="#353535" stroke-width="2"/>
<circle opacity="0.4" cx="96.7266" cy="128.03" r="8" transform="rotate(-90 96.7266 128.03)" fill="#4B4B4B"/>
<circle opacity="0.7" cx="209.043" cy="211.833" r="8" transform="rotate(-90 209.043 211.833)" fill="#7C7C7C"/>
<circle opacity="0.7" cx="209.043" cy="45.7554" r="8" transform="rotate(-90 209.043 45.7554)" fill="#7C7C7C"/>
<path opacity="0.6" d="M259.832 128.667L303.238 128.667" stroke="#353535" stroke-width="2"/>
<ellipse cx="153.119" cy="127.605" rx="8" ry="8.05664" transform="rotate(-90 153.119 127.605)" fill="#0F0F0F"/>
<circle opacity="0.6" cx="153.285" cy="127.633" r="8" transform="rotate(-90 153.285 127.633)" fill="#7C7C7C"/>
<circle opacity="0.7" cx="209.039" cy="127.633" r="8" transform="rotate(-90 209.039 127.633)" fill="#7C7C7C"/>
<circle opacity="0.6" cx="259.836" cy="127.633" r="8" transform="rotate(-90 259.836 127.633)" fill="#2C9B63"/>
<circle opacity="0.7" cx="313.594" cy="128.057" r="8" transform="rotate(-90 313.594 128.057)" fill="#66BD8B"/>
<path d="M253.379 113.435L259.578 118.387L265.777 113.435" stroke="#353535" stroke-width="2"/>
<path d="M253.598 142.331L259.797 137.378L265.995 142.331" stroke="#353535" stroke-width="2"/>
<path d="M189.062 207.811L195.261 212.764L189.062 217.716" stroke="#353535" stroke-width="2"/>
<path d="M193.211 41.5471L199.409 46.5002L193.211 51.4526" stroke="#353535" stroke-width="2"/>
<path d="M137.406 123.276L143.605 128.229L137.406 133.182" stroke="#353535" stroke-width="2"/>
<path d="M80.3789 123.276L86.5773 128.229L80.3789 133.182" stroke="#353535" stroke-width="2"/>
<path d="M297.555 123.185L303.753 128.138L297.555 133.091" stroke="#353535" stroke-width="2"/>
<path d="M192.555 123.43L198.753 128.383L192.555 133.335" stroke="#353535" stroke-width="2"/>
<path d="M244.055 123.864L250.253 128.817L244.055 133.77" stroke="#353535" stroke-width="2"/>
</svg>
