<svg width="500" height="365" viewBox="0 0 500 365" fill="none" xmlns="http://www.w3.org/2000/svg">
<path d="M36 261.199C35.9994 260.602 35.8451 260.017 35.5526 259.5C35.26 258.984 34.8396 258.555 34.3333 258.257L22.6667 251.456C22.1599 251.157 21.5851 251 21 251C20.4149 251 19.8401 251.157 19.3333 251.456L7.66667 258.257C7.16044 258.555 6.73997 258.984 6.44744 259.5C6.1549 260.017 6.0006 260.602 6 261.199V274.801C6.0006 275.398 6.1549 275.983 6.44744 276.5C6.73997 277.016 7.16044 277.445 7.66667 277.743L19.3333 284.544C19.8401 284.843 20.4149 285 21 285C21.5851 285 22.1599 284.843 22.6667 284.544L34.3333 277.743C34.8396 277.445 35.26 277.016 35.5526 276.5C35.8451 275.983 35.9994 275.398 36 274.801V261.199Z" stroke="white" stroke-width="2" stroke-linecap="round" stroke-linejoin="round"/>
<path d="M16.6654 301L15.7414 298.624H11.9734L11.0734 301H9.81338L13.1974 292.492H14.5534L17.9374 301H16.6654ZM13.8454 293.716L12.3934 297.532H15.3214L13.8454 293.716ZM20.1686 303.28H19.0526V295.228H20.1446V296.128C20.4566 295.552 21.1406 295.096 22.0766 295.096C23.8046 295.096 24.7286 296.428 24.7286 298.108C24.7286 299.824 23.7326 301.156 22.0406 301.156C21.1526 301.156 20.4806 300.736 20.1686 300.22V303.28ZM23.5766 298.108C23.5766 296.956 22.9286 296.092 21.8726 296.092C20.8406 296.092 20.1566 296.956 20.1566 298.108C20.1566 299.296 20.8406 300.148 21.8726 300.148C22.9166 300.148 23.5766 299.296 23.5766 298.108ZM27.2936 303.28H26.1776V295.228H27.2696V296.128C27.5816 295.552 28.2656 295.096 29.2016 295.096C30.9296 295.096 31.8536 296.428 31.8536 298.108C31.8536 299.824 30.8576 301.156 29.1656 301.156C28.2776 301.156 27.6056 300.736 27.2936 300.22V303.28ZM30.7016 298.108C30.7016 296.956 30.0536 296.092 28.9976 296.092C27.9656 296.092 27.2816 296.956 27.2816 298.108C27.2816 299.296 27.9656 300.148 28.9976 300.148C30.0416 300.148 30.7016 299.296 30.7016 298.108Z" fill="white"/>
<path d="M6 259.1L20.5 266.3L35 259.1" stroke="white" stroke-width="2" stroke-linecap="round" stroke-linejoin="round"/>
<path d="M21 281.6V266.3" stroke="white" stroke-width="2" stroke-linecap="round" stroke-linejoin="round"/>
<path d="M90.5 8C90.5 3.85787 93.8579 0.5 98 0.5H339C343.142 0.5 346.5 3.85786 346.5 8V178C346.5 182.142 343.142 185.5 339 185.5H98C93.8579 185.5 90.5 182.142 90.5 178V8Z" stroke="#4B4B4B"/>
<path fill-rule="evenodd" clip-rule="evenodd" d="M182.187 24.5412C181.729 24.902 181.5 25.4071 181.5 26.0565C181.5 26.6988 181.729 27.2003 182.187 27.5611C182.645 27.9219 183.184 28.1023 183.804 28.1023C184.418 28.1023 184.951 27.9201 185.406 27.5557C185.86 27.1913 186.087 26.6916 186.087 26.0565C186.087 25.4071 185.86 24.902 185.406 24.5412C184.951 24.1804 184.418 24 183.804 24C183.184 24 182.645 24.1804 182.187 24.5412ZM185.839 29.0548H181.749V39.8246H185.839V29.0548ZM186.763 39.8246V28.8708H190.366L190.55 30.0722C190.99 29.5599 191.52 29.1847 192.14 28.9465C192.725 28.7228 193.309 28.611 193.893 28.611H194.001C194.485 28.6182 194.93 28.6741 195.337 28.7788C195.745 28.8834 196.133 29.0602 196.5 29.3091C196.868 29.5581 197.182 29.8756 197.442 30.2616C197.701 30.6477 197.907 31.1366 198.058 31.7283C198.21 32.32 198.286 32.9947 198.286 33.7524V39.8246H194.207V33.774C194.207 33.1462 194.059 32.6862 193.763 32.3939C193.468 32.1017 193.103 31.9556 192.67 31.9556C192.144 31.9556 191.699 32.1378 191.334 32.5022C190.97 32.8666 190.788 33.388 190.788 34.0663V39.8246H186.763ZM199.059 28.8708V39.8246H203.084V34.0663C203.084 33.388 203.266 32.8666 203.63 32.5022C203.994 32.1378 204.44 31.9556 204.966 31.9556C205.399 31.9556 205.763 32.1017 206.059 32.3939C206.355 32.6862 206.503 33.1462 206.503 33.774V39.8246H210.581V33.7524C210.581 32.9947 210.506 32.32 210.354 31.7283C210.203 31.1366 209.997 30.6477 209.737 30.2616C209.478 29.8756 209.164 29.5581 208.796 29.3091C208.428 29.0602 208.041 28.8834 207.633 28.7788C207.226 28.6741 206.78 28.6182 206.297 28.611H206.189C205.605 28.611 205.02 28.7228 204.436 28.9465C203.816 29.1847 203.286 29.5599 202.846 30.0722L202.662 28.8708H199.059ZM211.303 34.1478C211.303 33.0293 211.575 32.0407 212.12 31.182C212.664 30.3233 213.396 29.6685 214.316 29.2175C215.235 28.7665 216.262 28.541 217.394 28.541C218.159 28.541 218.912 28.6781 219.655 28.9523L220.545 27.8239C220.665 27.6706 220.761 27.5452 220.834 27.4478L222.72 27.9098L223.777 29.5585L222.36 31.2362C223.06 32.0155 223.409 32.9283 223.409 33.9746V34.1911C223.395 34.8838 223.215 35.5513 222.868 36.1936C222.522 36.8358 222.035 37.3805 221.408 37.828C221.877 38.0949 222.268 38.3944 222.582 38.7263C222.895 39.0582 223.117 39.3848 223.247 39.7059C223.377 40.027 223.462 40.2922 223.501 40.5014C223.541 40.7107 223.561 40.92 223.561 41.1292C223.561 41.8147 223.445 42.4353 223.215 42.9909C222.984 43.5466 222.672 44.0084 222.279 44.3764C221.886 44.7444 221.42 45.0529 220.883 45.3019C220.346 45.5508 219.785 45.7294 219.201 45.8377C218.616 45.9459 218 46 217.351 46C215.396 46 213.899 45.5201 212.861 44.5605C211.923 43.6945 211.454 42.5363 211.454 41.0859C211.454 40.9344 211.458 40.7792 211.465 40.6205H215.295V40.6963C215.295 41.0514 215.339 41.3536 215.426 41.603L215.446 41.6596C215.547 41.9483 215.701 42.1647 215.906 42.309C216.112 42.4534 216.33 42.5544 216.561 42.6121C216.792 42.6698 217.055 42.6987 217.351 42.6987C217.92 42.6987 218.4 42.5634 218.79 42.2928C219.179 42.0222 219.374 41.6344 219.374 41.1292C219.374 40.6891 219.217 40.3355 218.903 40.0685C218.602 39.8118 218.125 39.6785 217.473 39.6686L217.394 39.668C215.547 39.668 214.071 39.1701 212.963 38.1743C211.856 37.1785 211.303 35.8364 211.303 34.1478ZM215.874 35.6844C215.474 35.2911 215.273 34.7734 215.273 34.1312C215.273 33.424 215.472 32.8702 215.868 32.4697C216.265 32.0693 216.774 31.869 217.394 31.869C217.985 31.869 218.478 32.0891 218.871 32.5292C219.264 32.9694 219.46 33.5034 219.46 34.1312C219.46 34.824 219.262 35.3543 218.865 35.7223C218.469 36.0903 217.978 36.2744 217.394 36.2744C216.781 36.2744 216.274 36.0777 215.874 35.6844ZM224.001 34.3693C224.001 33.5972 224.118 32.8883 224.353 32.2424C224.587 31.5966 224.901 31.0536 225.294 30.6134C225.687 30.1732 226.145 29.7998 226.668 29.4931C227.191 29.1865 227.741 28.9628 228.318 28.8221C228.895 28.6814 229.486 28.611 230.092 28.611C231.066 28.611 231.951 28.7679 232.748 29.0818C233.545 29.3957 234.207 29.8485 234.734 30.4402C235.26 31.032 235.624 31.7536 235.826 32.6051C235.912 32.9658 235.955 33.3445 235.957 33.7411L235.956 33.8606C235.956 34.3729 235.895 34.9213 235.772 35.5058H228.123C228.26 35.9532 228.574 36.2978 229.064 36.5395C229.555 36.7813 230.056 36.9022 230.568 36.9022C231.65 36.9022 232.588 36.6063 233.381 36.0146L235.372 38.2551C234.73 38.854 233.978 39.3069 233.116 39.6135C232.254 39.9202 231.344 40.0735 230.384 40.0735C229.497 40.0735 228.677 39.9617 227.923 39.738C227.169 39.5143 226.497 39.177 225.905 38.7259C225.314 38.2749 224.848 37.6779 224.509 36.9346C224.17 36.1913 224.001 35.3363 224.001 34.3693ZM232.115 32.8864H228.145C228.195 32.5473 228.363 32.2623 228.648 32.0314C228.933 31.8004 229.263 31.6597 229.638 31.6092C229.811 31.5876 229.98 31.5768 230.146 31.5768C230.348 31.5768 230.547 31.5912 230.741 31.6201C231.109 31.6778 231.425 31.8203 231.688 32.0476C231.951 32.2749 232.094 32.5545 232.115 32.8864ZM235.974 38.6773L237.305 35.7007C237.817 36.0326 238.34 36.2942 238.874 36.4854C239.407 36.6766 239.824 36.7921 240.123 36.8318C240.423 36.8715 240.774 36.9022 241.178 36.9238C241.921 36.9238 242.293 36.747 242.293 36.3934C242.293 36.0542 241.907 35.8522 241.135 35.7873C240.681 35.7729 240.242 35.7259 239.82 35.6466C239.398 35.5672 238.978 35.4373 238.56 35.2569C238.142 35.0765 237.779 34.8546 237.473 34.5912C237.166 34.3278 236.917 33.9905 236.726 33.5792C236.535 33.1679 236.439 32.706 236.439 32.1937C236.439 31.5587 236.58 31.0031 236.861 30.5268C237.143 30.0506 237.525 29.6772 238.008 29.4066C238.491 29.136 239.025 28.9357 239.609 28.8058C240.194 28.6759 240.821 28.611 241.492 28.611C242.365 28.611 243.194 28.7301 243.98 28.9682C244.767 29.2063 245.43 29.531 245.971 29.9423L244.24 32.3777C243.962 32.2011 243.572 32.0502 243.07 31.9247L242.974 31.9015C242.455 31.7716 241.982 31.7066 241.557 31.7066H241.492C240.843 31.7066 240.518 31.887 240.518 32.2479C240.518 32.3777 240.581 32.4968 240.708 32.6051C240.825 32.706 241.017 32.7631 241.282 32.7761L241.34 32.7782C241.845 32.7926 242.314 32.8324 242.747 32.8973C243.18 32.9622 243.625 33.0776 244.083 33.2436C244.541 33.4096 244.932 33.6225 245.257 33.8823C245.582 34.142 245.847 34.4866 246.052 34.916C246.258 35.3453 246.361 35.8378 246.361 36.3934C246.361 36.9202 246.269 37.3947 246.085 37.8168C245.901 38.2389 245.65 38.5907 245.333 38.8721C245.015 39.1535 244.637 39.3898 244.197 39.581C243.757 39.7723 243.293 39.9093 242.806 39.9924C242.32 40.0753 241.806 40.1168 241.265 40.1168C240.291 40.1168 239.317 39.9887 238.344 39.7326C237.37 39.4764 236.58 39.1246 235.974 38.6773ZM246.552 28.9357V32.0638H248.305V35.8414C248.298 36.4331 248.359 36.9635 248.489 37.4325C248.633 37.9521 248.828 38.376 249.073 38.7043C249.319 39.0326 249.618 39.3032 249.971 39.5161C250.325 39.729 250.696 39.8787 251.086 39.9653C251.475 40.0519 251.897 40.0952 252.352 40.0952C253.592 40.0952 254.642 39.8499 255.5 39.3591L254.613 36.3393C254.223 36.5918 253.827 36.7181 253.423 36.7181C252.716 36.7181 252.352 36.3646 252.33 35.6574V32.0638H254.818V28.9357H252.352V25.7751L248.305 26.2189V28.9357H246.552Z" fill="#FEFEFE"/>
<path d="M107.698 69.9V84.3H122.098V86.1H105.898V69.9H107.698ZM121.462 72.8637L122.735 74.1363L117.598 79.2726L114.898 76.5735L111.035 80.4363L109.762 79.1637L114.898 74.0274L117.598 76.7265L121.462 72.8637Z" fill="#FEFEFE"/>
<path d="M135.776 77.74C135.776 79.96 137.264 81.1 138.848 81.1C140.432 81.1 141.92 79.96 141.92 77.74C141.92 75.52 140.432 74.392 138.848 74.392C137.264 74.392 135.776 75.52 135.776 77.74ZM134.576 77.74C134.576 74.896 136.712 73.312 138.848 73.312C140.984 73.312 143.12 74.896 143.12 77.74C143.12 80.584 140.984 82.18 138.848 82.18C136.712 82.18 134.576 80.584 134.576 77.74ZM145.661 82H144.545V73.312H145.661V77.044C145.937 76.528 146.609 76.06 147.569 76.06C149.321 76.06 150.221 77.404 150.221 79.084C150.221 80.8 149.249 82.156 147.533 82.156C146.681 82.156 146.021 81.784 145.661 81.16V82ZM149.069 79.084C149.069 77.836 148.409 77.056 147.365 77.056C146.369 77.056 145.649 77.836 145.649 79.084C145.649 80.332 146.369 81.148 147.365 81.148C148.397 81.148 149.069 80.332 149.069 79.084ZM151.214 80.5L152.234 80.14C152.306 80.74 152.762 81.22 153.578 81.22C154.214 81.22 154.562 80.86 154.562 80.452C154.562 80.092 154.298 79.816 153.818 79.708L152.834 79.492C151.934 79.3 151.394 78.688 151.394 77.872C151.394 76.888 152.318 76.048 153.446 76.048C155.03 76.048 155.522 77.08 155.642 77.596L154.646 77.968C154.598 77.668 154.358 77.008 153.446 77.008C152.87 77.008 152.486 77.38 152.486 77.776C152.486 78.124 152.702 78.376 153.146 78.472L154.082 78.676C155.126 78.904 155.678 79.54 155.678 80.392C155.678 81.208 154.994 82.18 153.566 82.18C151.982 82.18 151.31 81.16 151.214 80.5ZM157.947 78.52H161.103C161.079 77.692 160.539 77.044 159.519 77.044C158.571 77.044 157.995 77.776 157.947 78.52ZM161.271 80.02L162.243 80.356C161.919 81.376 160.995 82.18 159.651 82.18C158.103 82.18 156.747 81.052 156.747 79.096C156.747 77.284 158.055 76.048 159.507 76.048C161.283 76.048 162.279 77.272 162.279 79.072C162.279 79.216 162.267 79.36 162.255 79.432H157.911C157.935 80.464 158.679 81.184 159.651 81.184C160.587 81.184 161.055 80.668 161.271 80.02ZM166.897 76.168V77.368C166.729 77.344 166.561 77.332 166.405 77.332C165.457 77.332 164.821 77.836 164.821 79.108V82H163.693V76.228H164.797V77.236C165.217 76.348 165.937 76.132 166.525 76.132C166.681 76.132 166.837 76.156 166.897 76.168ZM173.189 76.228L170.885 82H169.745L167.405 76.228H168.677L170.321 80.68L171.977 76.228H173.189ZM173.821 80.452C173.821 79.42 174.577 78.844 175.573 78.7L177.133 78.472C177.481 78.424 177.577 78.244 177.577 78.04C177.577 77.476 177.205 77.008 176.329 77.008C175.537 77.008 175.093 77.5 175.021 78.172L173.941 77.92C174.061 76.816 175.057 76.048 176.305 76.048C178.033 76.048 178.705 77.032 178.705 78.16V81.052C178.705 81.556 178.753 81.856 178.777 82H177.673C177.649 81.856 177.613 81.64 177.613 81.22C177.361 81.628 176.785 82.18 175.753 82.18C174.577 82.18 173.821 81.364 173.821 80.452ZM175.909 81.232C176.833 81.232 177.577 80.788 177.577 79.528V79.264L175.813 79.528C175.333 79.6 174.973 79.876 174.973 80.392C174.973 80.824 175.333 81.232 175.909 81.232ZM181.602 82H180.486V73.312H181.602V77.044C181.878 76.528 182.55 76.06 183.51 76.06C185.262 76.06 186.162 77.404 186.162 79.084C186.162 80.8 185.19 82.156 183.474 82.156C182.622 82.156 181.962 81.784 181.602 81.16V82ZM185.01 79.084C185.01 77.836 184.35 77.056 183.306 77.056C182.31 77.056 181.59 77.836 181.59 79.084C181.59 80.332 182.31 81.148 183.306 81.148C184.338 81.148 185.01 80.332 185.01 79.084ZM188.727 82H187.611V76.228H188.727V82ZM187.359 74.044C187.359 73.588 187.719 73.228 188.163 73.228C188.619 73.228 188.979 73.588 188.979 74.044C188.979 74.488 188.619 74.848 188.163 74.848C187.719 74.848 187.359 74.488 187.359 74.044ZM191.681 82H190.553V73.312H191.681V82ZM194.622 82H193.506V76.228H194.622V82ZM193.254 74.044C193.254 73.588 193.614 73.228 194.058 73.228C194.514 73.228 194.874 73.588 194.874 74.044C194.874 74.488 194.514 74.848 194.058 74.848C193.614 74.848 193.254 74.488 193.254 74.044ZM198.019 74.404V76.228H199.267V77.248H198.019V80.248C198.019 80.776 198.235 81.04 198.823 81.04C198.967 81.04 199.171 81.016 199.267 80.992V81.952C199.171 81.988 198.883 82.06 198.499 82.06C197.515 82.06 196.891 81.46 196.891 80.416V77.248H195.787V76.228H196.099C196.723 76.228 196.987 75.844 196.987 75.34V74.404H198.019ZM202.215 84.412H200.979L202.419 81.364L199.935 76.228H201.231L203.031 80.212L204.759 76.228H205.971L202.215 84.412Z" fill="#FEFEFE"/>
<path d="M226.698 78.45C226.698 78.7317 227.113 79.2222 228.075 79.7037C229.321 80.3265 231.088 80.7 232.998 80.7C234.909 80.7 236.676 80.3265 237.921 79.7037C238.884 79.2222 239.298 78.7317 239.298 78.45V76.4961C237.813 77.4141 235.543 78 232.998 78C230.454 78 228.183 77.4132 226.698 76.4961V78.45ZM239.298 80.9961C237.813 81.9141 235.543 82.5 232.998 82.5C230.454 82.5 228.183 81.9132 226.698 80.9961V82.95C226.698 83.2317 227.113 83.7222 228.075 84.2037C229.321 84.8265 231.088 85.2 232.998 85.2C234.909 85.2 236.676 84.8265 237.921 84.2037C238.884 83.7222 239.298 83.2317 239.298 82.95V80.9961ZM224.898 82.95V73.95C224.898 71.7135 228.525 69.9 232.998 69.9C237.471 69.9 241.098 71.7135 241.098 73.95V82.95C241.098 85.1865 237.471 87 232.998 87C228.525 87 224.898 85.1865 224.898 82.95ZM232.998 76.2C234.909 76.2 236.676 75.8265 237.921 75.2037C238.884 74.7222 239.298 74.2317 239.298 73.95C239.298 73.6683 238.884 73.1778 237.921 72.6963C236.676 72.0735 234.909 71.7 232.998 71.7C231.088 71.7 229.321 72.0735 228.075 72.6963C227.113 73.1778 226.698 73.6683 226.698 73.95C226.698 74.2317 227.113 74.7222 228.075 75.2037C229.321 75.8265 231.088 76.2 232.998 76.2Z" fill="#FEFEFE"/>
<path d="M259.48 75.424L258.424 75.796C258.328 75.184 257.812 74.344 256.624 74.344C255.664 74.344 254.98 74.968 254.98 75.76C254.98 76.372 255.352 76.84 256.072 76.996L257.344 77.272C258.76 77.584 259.552 78.472 259.552 79.66C259.552 80.98 258.424 82.18 256.612 82.18C254.56 82.18 253.588 80.86 253.432 79.648L254.56 79.288C254.644 80.236 255.316 81.112 256.6 81.112C257.776 81.112 258.352 80.5 258.352 79.756C258.352 79.144 257.932 78.616 257.08 78.436L255.868 78.172C254.656 77.908 253.792 77.116 253.792 75.844C253.792 74.512 255.028 73.312 256.6 73.312C258.52 73.312 259.288 74.5 259.48 75.424ZM262.457 74.404V76.228H263.705V77.248H262.457V80.248C262.457 80.776 262.673 81.04 263.261 81.04C263.405 81.04 263.609 81.016 263.705 80.992V81.952C263.609 81.988 263.321 82.06 262.937 82.06C261.953 82.06 261.329 81.46 261.329 80.416V77.248H260.225V76.228H260.537C261.161 76.228 261.425 75.844 261.425 75.34V74.404H262.457ZM264.661 80.452C264.661 79.42 265.417 78.844 266.413 78.7L267.973 78.472C268.321 78.424 268.417 78.244 268.417 78.04C268.417 77.476 268.045 77.008 267.169 77.008C266.377 77.008 265.933 77.5 265.861 78.172L264.781 77.92C264.901 76.816 265.897 76.048 267.145 76.048C268.873 76.048 269.545 77.032 269.545 78.16V81.052C269.545 81.556 269.593 81.856 269.617 82H268.513C268.489 81.856 268.453 81.64 268.453 81.22C268.201 81.628 267.625 82.18 266.593 82.18C265.417 82.18 264.661 81.364 264.661 80.452ZM266.749 81.232C267.673 81.232 268.417 80.788 268.417 79.528V79.264L266.653 79.528C266.173 79.6 265.813 79.876 265.813 80.392C265.813 80.824 266.173 81.232 266.749 81.232ZM272.851 74.404V76.228H274.099V77.248H272.851V80.248C272.851 80.776 273.067 81.04 273.655 81.04C273.799 81.04 274.003 81.016 274.099 80.992V81.952C274.003 81.988 273.715 82.06 273.331 82.06C272.347 82.06 271.723 81.46 271.723 80.416V77.248H270.619V76.228H270.931C271.555 76.228 271.819 75.844 271.819 75.34V74.404H272.851ZM276.208 78.52H279.364C279.34 77.692 278.8 77.044 277.78 77.044C276.832 77.044 276.256 77.776 276.208 78.52ZM279.532 80.02L280.504 80.356C280.18 81.376 279.256 82.18 277.912 82.18C276.364 82.18 275.008 81.052 275.008 79.096C275.008 77.284 276.316 76.048 277.768 76.048C279.544 76.048 280.54 77.272 280.54 79.072C280.54 79.216 280.528 79.36 280.516 79.432H276.172C276.196 80.464 276.94 81.184 277.912 81.184C278.848 81.184 279.316 80.668 279.532 80.02ZM284.522 80.5L285.542 80.14C285.614 80.74 286.07 81.22 286.886 81.22C287.522 81.22 287.87 80.86 287.87 80.452C287.87 80.092 287.606 79.816 287.126 79.708L286.142 79.492C285.242 79.3 284.702 78.688 284.702 77.872C284.702 76.888 285.626 76.048 286.754 76.048C288.338 76.048 288.83 77.08 288.95 77.596L287.954 77.968C287.906 77.668 287.666 77.008 286.754 77.008C286.178 77.008 285.794 77.38 285.794 77.776C285.794 78.124 286.01 78.376 286.454 78.472L287.39 78.676C288.434 78.904 288.986 79.54 288.986 80.392C288.986 81.208 288.302 82.18 286.874 82.18C285.29 82.18 284.618 81.16 284.522 80.5ZM292.011 74.404V76.228H293.259V77.248H292.011V80.248C292.011 80.776 292.227 81.04 292.815 81.04C292.959 81.04 293.163 81.016 293.259 80.992V81.952C293.163 81.988 292.875 82.06 292.491 82.06C291.507 82.06 290.883 81.46 290.883 80.416V77.248H289.779V76.228H290.091C290.715 76.228 290.979 75.844 290.979 75.34V74.404H292.011ZM297.121 81.172C298.081 81.172 298.921 80.452 298.921 79.108C298.921 77.776 298.081 77.056 297.121 77.056C296.161 77.056 295.321 77.776 295.321 79.108C295.321 80.452 296.161 81.172 297.121 81.172ZM297.121 76.048C298.849 76.048 300.073 77.356 300.073 79.108C300.073 80.872 298.849 82.18 297.121 82.18C295.393 82.18 294.169 80.872 294.169 79.108C294.169 77.356 295.393 76.048 297.121 76.048ZM304.718 76.168V77.368C304.55 77.344 304.382 77.332 304.226 77.332C303.278 77.332 302.642 77.836 302.642 79.108V82H301.514V76.228H302.618V77.236C303.038 76.348 303.758 76.132 304.346 76.132C304.502 76.132 304.658 76.156 304.718 76.168ZM306.583 78.52H309.739C309.715 77.692 309.175 77.044 308.155 77.044C307.207 77.044 306.631 77.776 306.583 78.52ZM309.907 80.02L310.879 80.356C310.555 81.376 309.631 82.18 308.287 82.18C306.739 82.18 305.383 81.052 305.383 79.096C305.383 77.284 306.691 76.048 308.143 76.048C309.919 76.048 310.915 77.272 310.915 79.072C310.915 79.216 310.903 79.36 310.891 79.432H306.547C306.571 80.464 307.315 81.184 308.287 81.184C309.223 81.184 309.691 80.668 309.907 80.02Z" fill="#FEFEFE"/>
<path d="M114 108C116.061 108 117.881 109.04 118.962 110.625H117V112.125H121.5V107.625H120V109.5C118.632 107.679 116.454 106.5 114 106.5C109.858 106.5 106.5 109.858 106.5 114H108C108 110.686 110.686 108 114 108ZM120 114C120 117.314 117.314 120 114 120C111.939 120 110.119 118.96 109.038 117.375H111V115.875H106.5V120.375H108V118.5C109.368 120.321 111.546 121.5 114 121.5C118.142 121.5 121.5 118.142 121.5 114H120Z" fill="#FEFEFE"/>
<path d="M139.544 118L137.6 114.52H136.328V118H135.14V109.492H138.344C139.952 109.492 140.948 110.62 140.948 112.024C140.948 113.248 140.168 114.196 138.884 114.436L140.912 118H139.544ZM136.328 113.464H138.128C139.088 113.464 139.736 112.9 139.736 112.024C139.736 111.124 139.088 110.548 138.128 110.548H136.328V113.464ZM142.947 114.52H146.103C146.079 113.692 145.539 113.044 144.519 113.044C143.571 113.044 142.995 113.776 142.947 114.52ZM146.271 116.02L147.243 116.356C146.919 117.376 145.995 118.18 144.651 118.18C143.103 118.18 141.747 117.052 141.747 115.096C141.747 113.284 143.055 112.048 144.507 112.048C146.283 112.048 147.279 113.272 147.279 115.072C147.279 115.216 147.267 115.36 147.255 115.432H142.911C142.935 116.464 143.679 117.184 144.651 117.184C145.587 117.184 146.055 116.668 146.271 116.02ZM150.207 110.404V112.228H151.455V113.248H150.207V116.248C150.207 116.776 150.423 117.04 151.011 117.04C151.155 117.04 151.359 117.016 151.455 116.992V117.952C151.359 117.988 151.071 118.06 150.687 118.06C149.703 118.06 149.079 117.46 149.079 116.416V113.248H147.975V112.228H148.287C148.911 112.228 149.175 111.844 149.175 111.34V110.404H150.207ZM155.999 112.168V113.368C155.831 113.344 155.663 113.332 155.507 113.332C154.559 113.332 153.923 113.836 153.923 115.108V118H152.795V112.228H153.899V113.236C154.319 112.348 155.039 112.132 155.627 112.132C155.783 112.132 155.939 112.156 155.999 112.168ZM158.27 118H157.154V112.228H158.27V118ZM156.902 110.044C156.902 109.588 157.262 109.228 157.706 109.228C158.162 109.228 158.522 109.588 158.522 110.044C158.522 110.488 158.162 110.848 157.706 110.848C157.262 110.848 156.902 110.488 156.902 110.044ZM160.912 114.52H164.068C164.044 113.692 163.504 113.044 162.484 113.044C161.536 113.044 160.96 113.776 160.912 114.52ZM164.236 116.02L165.208 116.356C164.884 117.376 163.96 118.18 162.616 118.18C161.068 118.18 159.712 117.052 159.712 115.096C159.712 113.284 161.02 112.048 162.472 112.048C164.248 112.048 165.244 113.272 165.244 115.072C165.244 115.216 165.232 115.36 165.22 115.432H160.876C160.9 116.464 161.644 117.184 162.616 117.184C163.552 117.184 164.02 116.668 164.236 116.02ZM166.202 116.5L167.222 116.14C167.294 116.74 167.75 117.22 168.566 117.22C169.202 117.22 169.55 116.86 169.55 116.452C169.55 116.092 169.286 115.816 168.806 115.708L167.822 115.492C166.922 115.3 166.382 114.688 166.382 113.872C166.382 112.888 167.306 112.048 168.434 112.048C170.018 112.048 170.51 113.08 170.63 113.596L169.634 113.968C169.586 113.668 169.346 113.008 168.434 113.008C167.858 113.008 167.474 113.38 167.474 113.776C167.474 114.124 167.69 114.376 168.134 114.472L169.07 114.676C170.114 114.904 170.666 115.54 170.666 116.392C170.666 117.208 169.982 118.18 168.554 118.18C166.97 118.18 166.298 117.16 166.202 116.5Z" fill="#FEFEFE"/>
<path d="M233 123C228.029 123 224 118.971 224 114C224 109.029 228.029 105 233 105C237.971 105 242 109.029 242 114C242 118.971 237.971 123 233 123ZM233 121.2C234.91 121.2 236.741 120.441 238.091 119.091C239.441 117.741 240.2 115.91 240.2 114C240.2 112.09 239.441 110.259 238.091 108.909C236.741 107.559 234.91 106.8 233 106.8C231.09 106.8 229.259 107.559 227.909 108.909C226.559 110.259 225.8 112.09 225.8 114C225.8 115.91 226.559 117.741 227.909 119.091C229.259 120.441 231.09 121.2 233 121.2ZM233.9 114H237.5V115.8H232.1V109.5H233.9V114Z" fill="#FEFEFE"/>
<path d="M257.812 118.18C255.616 118.18 253.588 116.584 253.588 113.74C253.588 110.896 255.7 109.312 257.812 109.312C259.756 109.312 261.124 110.368 261.556 112.012L260.464 112.396C260.14 111.112 259.204 110.392 257.812 110.392C256.264 110.392 254.788 111.52 254.788 113.74C254.788 115.96 256.264 117.1 257.812 117.1C259.264 117.1 260.176 116.224 260.524 115.06L261.568 115.444C261.112 117.04 259.768 118.18 257.812 118.18ZM266.093 112.168V113.368C265.925 113.344 265.757 113.332 265.601 113.332C264.653 113.332 264.017 113.836 264.017 115.108V118H262.889V112.228H263.993V113.236C264.413 112.348 265.133 112.132 265.721 112.132C265.877 112.132 266.033 112.156 266.093 112.168ZM269.71 117.172C270.67 117.172 271.51 116.452 271.51 115.108C271.51 113.776 270.67 113.056 269.71 113.056C268.75 113.056 267.91 113.776 267.91 115.108C267.91 116.452 268.75 117.172 269.71 117.172ZM269.71 112.048C271.438 112.048 272.662 113.356 272.662 115.108C272.662 116.872 271.438 118.18 269.71 118.18C267.982 118.18 266.758 116.872 266.758 115.108C266.758 113.356 267.982 112.048 269.71 112.048ZM275.231 114.664V118H274.103V112.228H275.207V113.056C275.627 112.336 276.311 112.06 276.983 112.06C278.363 112.06 279.047 113.056 279.047 114.34V118H277.919V114.532C277.919 113.728 277.583 113.08 276.575 113.08C275.687 113.08 275.231 113.788 275.231 114.664ZM280.351 116.5L281.371 116.14C281.443 116.74 281.899 117.22 282.715 117.22C283.351 117.22 283.699 116.86 283.699 116.452C283.699 116.092 283.435 115.816 282.955 115.708L281.971 115.492C281.071 115.3 280.531 114.688 280.531 113.872C280.531 112.888 281.455 112.048 282.583 112.048C284.167 112.048 284.659 113.08 284.779 113.596L283.783 113.968C283.735 113.668 283.495 113.008 282.583 113.008C282.007 113.008 281.623 113.38 281.623 113.776C281.623 114.124 281.839 114.376 282.283 114.472L283.219 114.676C284.263 114.904 284.815 115.54 284.815 116.392C284.815 117.208 284.131 118.18 282.703 118.18C281.119 118.18 280.447 117.16 280.351 116.5Z" fill="#FEFEFE"/>
<path d="M115.5 155.25L108.75 155.25L108.75 153.75L114 153.75L114 146.121L111.038 149.084L109.977 148.023L114.75 143.25L119.523 148.023L118.462 149.084L115.5 146.121L115.5 155.25Z" fill="#FEFEFE"/>
<path d="M135.776 149.74C135.776 151.96 137.264 153.1 138.848 153.1C140.432 153.1 141.92 151.96 141.92 149.74C141.92 147.52 140.432 146.392 138.848 146.392C137.264 146.392 135.776 147.52 135.776 149.74ZM134.576 149.74C134.576 146.896 136.712 145.312 138.848 145.312C140.984 145.312 143.12 146.896 143.12 149.74C143.12 152.584 140.984 154.18 138.848 154.18C136.712 154.18 134.576 152.584 134.576 149.74ZM147.737 148.168V149.368C147.569 149.344 147.401 149.332 147.245 149.332C146.297 149.332 145.661 149.836 145.661 151.108V154H144.533V148.228H145.637V149.236C146.057 148.348 146.777 148.132 147.365 148.132C147.521 148.132 147.677 148.156 147.737 148.168ZM151.307 149.092C150.395 149.092 149.555 149.764 149.555 151.108C149.555 152.428 150.383 153.136 151.319 153.136C152.399 153.136 152.795 152.404 152.927 151.948L153.923 152.38C153.647 153.208 152.819 154.18 151.319 154.18C149.639 154.18 148.403 152.86 148.403 151.108C148.403 149.308 149.663 148.048 151.307 148.048C152.843 148.048 153.635 149.008 153.875 149.884L152.855 150.316C152.711 149.752 152.291 149.092 151.307 149.092ZM156.384 150.604V154H155.256V145.312H156.384V148.9C156.804 148.288 157.476 148.06 158.136 148.06C159.516 148.06 160.2 149.056 160.2 150.34V154H159.072V150.532C159.072 149.728 158.736 149.08 157.728 149.08C156.864 149.08 156.408 149.752 156.384 150.604ZM162.775 150.52H165.931C165.907 149.692 165.367 149.044 164.347 149.044C163.399 149.044 162.823 149.776 162.775 150.52ZM166.099 152.02L167.071 152.356C166.747 153.376 165.823 154.18 164.479 154.18C162.931 154.18 161.575 153.052 161.575 151.096C161.575 149.284 162.883 148.048 164.335 148.048C166.111 148.048 167.107 149.272 167.107 151.072C167.107 151.216 167.095 151.36 167.083 151.432H162.739C162.763 152.464 163.507 153.184 164.479 153.184C165.415 153.184 165.883 152.668 166.099 152.02ZM168.065 152.5L169.085 152.14C169.157 152.74 169.613 153.22 170.429 153.22C171.065 153.22 171.413 152.86 171.413 152.452C171.413 152.092 171.149 151.816 170.669 151.708L169.685 151.492C168.785 151.3 168.245 150.688 168.245 149.872C168.245 148.888 169.169 148.048 170.297 148.048C171.881 148.048 172.373 149.08 172.493 149.596L171.497 149.968C171.449 149.668 171.209 149.008 170.297 149.008C169.721 149.008 169.337 149.38 169.337 149.776C169.337 150.124 169.553 150.376 169.997 150.472L170.933 150.676C171.977 150.904 172.529 151.54 172.529 152.392C172.529 153.208 171.845 154.18 170.417 154.18C168.833 154.18 168.161 153.16 168.065 152.5ZM175.554 146.404V148.228H176.802V149.248H175.554V152.248C175.554 152.776 175.77 153.04 176.358 153.04C176.502 153.04 176.706 153.016 176.802 152.992V153.952C176.706 153.988 176.418 154.06 176.034 154.06C175.05 154.06 174.426 153.46 174.426 152.416V149.248H173.322V148.228H173.634C174.258 148.228 174.522 147.844 174.522 147.34V146.404H175.554ZM181.346 148.168V149.368C181.178 149.344 181.01 149.332 180.854 149.332C179.906 149.332 179.27 149.836 179.27 151.108V154H178.142V148.228H179.246V149.236C179.666 148.348 180.386 148.132 180.974 148.132C181.13 148.132 181.286 148.156 181.346 148.168ZM182.118 152.452C182.118 151.42 182.874 150.844 183.87 150.7L185.43 150.472C185.778 150.424 185.874 150.244 185.874 150.04C185.874 149.476 185.502 149.008 184.626 149.008C183.834 149.008 183.39 149.5 183.318 150.172L182.238 149.92C182.358 148.816 183.354 148.048 184.602 148.048C186.33 148.048 187.002 149.032 187.002 150.16V153.052C187.002 153.556 187.05 153.856 187.074 154H185.97C185.946 153.856 185.91 153.64 185.91 153.22C185.658 153.628 185.082 154.18 184.05 154.18C182.874 154.18 182.118 153.364 182.118 152.452ZM184.206 153.232C185.13 153.232 185.874 152.788 185.874 151.528V151.264L184.11 151.528C183.63 151.6 183.27 151.876 183.27 152.392C183.27 152.824 183.63 153.232 184.206 153.232ZM190.308 146.404V148.228H191.556V149.248H190.308V152.248C190.308 152.776 190.524 153.04 191.112 153.04C191.256 153.04 191.46 153.016 191.556 152.992V153.952C191.46 153.988 191.172 154.06 190.788 154.06C189.804 154.06 189.18 153.46 189.18 152.416V149.248H188.076V148.228H188.388C189.012 148.228 189.276 147.844 189.276 147.34V146.404H190.308ZM194.012 154H192.896V148.228H194.012V154ZM192.644 146.044C192.644 145.588 193.004 145.228 193.448 145.228C193.904 145.228 194.264 145.588 194.264 146.044C194.264 146.488 193.904 146.848 193.448 146.848C193.004 146.848 192.644 146.488 192.644 146.044ZM198.406 153.172C199.366 153.172 200.206 152.452 200.206 151.108C200.206 149.776 199.366 149.056 198.406 149.056C197.446 149.056 196.606 149.776 196.606 151.108C196.606 152.452 197.446 153.172 198.406 153.172ZM198.406 148.048C200.134 148.048 201.358 149.356 201.358 151.108C201.358 152.872 200.134 154.18 198.406 154.18C196.678 154.18 195.454 152.872 195.454 151.108C195.454 149.356 196.678 148.048 198.406 148.048ZM203.927 150.664V154H202.799V148.228H203.903V149.056C204.323 148.336 205.007 148.06 205.679 148.06C207.059 148.06 207.743 149.056 207.743 150.34V154H206.615V150.532C206.615 149.728 206.279 149.08 205.271 149.08C204.383 149.08 203.927 149.788 203.927 150.664Z" fill="#FEFEFE"/>
<path d="M237.5 141.9H241.1C241.339 141.9 241.568 141.995 241.736 142.164C241.905 142.332 242 142.561 242 142.8V157.2C242 157.439 241.905 157.668 241.736 157.836C241.568 158.005 241.339 158.1 241.1 158.1H224.9C224.661 158.1 224.432 158.005 224.264 157.836C224.095 157.668 224 157.439 224 157.2V142.8C224 142.561 224.095 142.332 224.264 142.164C224.432 141.995 224.661 141.9 224.9 141.9H228.5V140.1H230.3V141.9H235.7V140.1H237.5V141.9ZM235.7 143.7H230.3V145.5H228.5V143.7H225.8V147.3H240.2V143.7H237.5V145.5H235.7V143.7ZM240.2 149.1H225.8V156.3H240.2V149.1Z" fill="#FEFEFE"/>
<path d="M259.48 147.424L258.424 147.796C258.328 147.184 257.812 146.344 256.624 146.344C255.664 146.344 254.98 146.968 254.98 147.76C254.98 148.372 255.352 148.84 256.072 148.996L257.344 149.272C258.76 149.584 259.552 150.472 259.552 151.66C259.552 152.98 258.424 154.18 256.612 154.18C254.56 154.18 253.588 152.86 253.432 151.648L254.56 151.288C254.644 152.236 255.316 153.112 256.6 153.112C257.776 153.112 258.352 152.5 258.352 151.756C258.352 151.144 257.932 150.616 257.08 150.436L255.868 150.172C254.656 149.908 253.792 149.116 253.792 147.844C253.792 146.512 255.028 145.312 256.6 145.312C258.52 145.312 259.288 146.5 259.48 147.424ZM263.557 149.092C262.645 149.092 261.805 149.764 261.805 151.108C261.805 152.428 262.633 153.136 263.569 153.136C264.649 153.136 265.045 152.404 265.177 151.948L266.173 152.38C265.897 153.208 265.069 154.18 263.569 154.18C261.889 154.18 260.653 152.86 260.653 151.108C260.653 149.308 261.913 148.048 263.557 148.048C265.093 148.048 265.885 149.008 266.125 149.884L265.105 150.316C264.961 149.752 264.541 149.092 263.557 149.092ZM268.634 150.604V154H267.506V145.312H268.634V148.9C269.054 148.288 269.726 148.06 270.386 148.06C271.766 148.06 272.45 149.056 272.45 150.34V154H271.322V150.532C271.322 149.728 270.986 149.08 269.978 149.08C269.114 149.08 268.658 149.752 268.634 150.604ZM275.025 150.52H278.181C278.157 149.692 277.617 149.044 276.597 149.044C275.649 149.044 275.073 149.776 275.025 150.52ZM278.349 152.02L279.321 152.356C278.997 153.376 278.073 154.18 276.729 154.18C275.181 154.18 273.825 153.052 273.825 151.096C273.825 149.284 275.133 148.048 276.585 148.048C278.361 148.048 279.357 149.272 279.357 151.072C279.357 151.216 279.345 151.36 279.333 151.432H274.989C275.013 152.464 275.757 153.184 276.729 153.184C277.665 153.184 278.133 152.668 278.349 152.02ZM281.551 151.096C281.551 152.284 282.163 153.16 283.243 153.16C284.275 153.16 284.911 152.26 284.911 151.072C284.911 149.884 284.287 149.068 283.255 149.068C282.223 149.068 281.551 149.908 281.551 151.096ZM284.923 153.22V153.124C284.647 153.676 284.035 154.156 283.135 154.156C281.443 154.156 280.399 152.812 280.399 151.096C280.399 149.464 281.503 148.072 283.135 148.072C284.155 148.072 284.707 148.576 284.899 149.044V145.312H286.015V152.932C286.015 153.484 286.063 153.904 286.075 154H284.983C284.959 153.868 284.923 153.568 284.923 153.22ZM291.654 153.304C291.342 153.904 290.622 154.18 289.95 154.18C288.606 154.18 287.79 153.172 287.79 151.864V148.228H288.918V151.696C288.918 152.488 289.278 153.184 290.226 153.184C291.138 153.184 291.594 152.584 291.594 151.708V148.228H292.722V152.932C292.722 153.388 292.758 153.796 292.782 154H291.702C291.678 153.868 291.654 153.544 291.654 153.304ZM295.681 154H294.553V145.312H295.681V154ZM298.622 154H297.506V148.228H298.622V154ZM297.254 146.044C297.254 145.588 297.614 145.228 298.058 145.228C298.514 145.228 298.874 145.588 298.874 146.044C298.874 146.488 298.514 146.848 298.058 146.848C297.614 146.848 297.254 146.488 297.254 146.044ZM301.575 150.664V154H300.447V148.228H301.551V149.056C301.971 148.336 302.655 148.06 303.327 148.06C304.707 148.06 305.391 149.056 305.391 150.34V154H304.263V150.532C304.263 149.728 303.927 149.08 302.919 149.08C302.031 149.08 301.575 149.788 301.575 150.664ZM306.766 154.312L307.858 154.06C307.942 154.864 308.554 155.476 309.43 155.476C310.642 155.476 311.194 154.852 311.194 153.604V152.776C310.918 153.304 310.294 153.724 309.43 153.724C307.894 153.724 306.778 152.56 306.778 150.928C306.778 149.368 307.846 148.12 309.43 148.12C310.318 148.12 310.918 148.456 311.206 149.032V148.228H312.322V153.568C312.322 155.032 311.602 156.46 309.43 156.46C307.99 156.46 306.91 155.548 306.766 154.312ZM309.598 152.776C310.57 152.776 311.242 152.044 311.242 150.928C311.242 149.812 310.57 149.08 309.598 149.08C308.602 149.08 307.93 149.812 307.93 150.928C307.93 152.056 308.578 152.776 309.598 152.776Z" fill="#FEFEFE"/>
<path d="M371.5 201C371.5 196.858 374.858 193.5 379 193.5H492C496.142 193.5 499.5 196.858 499.5 201V357C499.5 361.142 496.142 364.5 492 364.5H379C374.858 364.5 371.5 361.142 371.5 357V201Z" stroke="#4B4B4B"/>
<path d="M391.358 227.8L387.886 222.074H389.874L392.254 226.232L394.648 222.074H396.538L393.038 227.8V232H391.358V227.8ZM399.256 230.754C400.264 230.754 401.16 230.012 401.16 228.584C401.16 227.17 400.264 226.442 399.256 226.442C398.262 226.442 397.352 227.17 397.352 228.584C397.352 229.998 398.262 230.754 399.256 230.754ZM399.256 224.972C401.3 224.972 402.798 226.498 402.798 228.584C402.798 230.684 401.3 232.21 399.256 232.21C397.226 232.21 395.728 230.684 395.728 228.584C395.728 226.498 397.226 224.972 399.256 224.972ZM408.817 231.244C408.481 231.86 407.683 232.196 406.885 232.196C405.261 232.196 404.309 230.992 404.309 229.48V225.182H405.933V229.186C405.933 230.026 406.325 230.74 407.305 230.74C408.243 230.74 408.733 230.11 408.733 229.214V225.182H410.357V230.754C410.357 231.314 410.399 231.748 410.427 232H408.873C408.845 231.846 408.817 231.524 408.817 231.244ZM416.367 225.14V226.792C416.185 226.764 416.003 226.75 415.835 226.75C414.575 226.75 414.001 227.478 414.001 228.752V232H412.377V225.182H413.959V226.274C414.281 225.532 415.037 225.098 415.933 225.098C416.129 225.098 416.297 225.126 416.367 225.14ZM422.69 232H421.01V222.074H427.184V223.656H422.69V226.442H426.722V227.996H422.69V232ZM432.839 231.244C432.503 231.86 431.705 232.196 430.907 232.196C429.283 232.196 428.331 230.992 428.331 229.48V225.182H429.955V229.186C429.955 230.026 430.347 230.74 431.327 230.74C432.265 230.74 432.755 230.11 432.755 229.214V225.182H434.379V230.754C434.379 231.314 434.421 231.748 434.449 232H432.895C432.867 231.846 432.839 231.524 432.839 231.244ZM438.023 228.066V232H436.399V225.182H437.981V226.092C438.429 225.308 439.241 224.986 439.997 224.986C441.663 224.986 442.461 226.19 442.461 227.688V232H440.837V227.968C440.837 227.128 440.459 226.456 439.437 226.456C438.513 226.456 438.023 227.17 438.023 228.066ZM447.476 226.47C446.482 226.47 445.6 227.212 445.6 228.584C445.6 229.956 446.482 230.726 447.504 230.726C448.568 230.726 449.058 229.984 449.212 229.466L450.64 229.984C450.318 231.048 449.296 232.21 447.504 232.21C445.502 232.21 443.976 230.656 443.976 228.584C443.976 226.484 445.502 224.972 447.462 224.972C449.296 224.972 450.304 226.12 450.584 227.212L449.128 227.744C448.974 227.142 448.512 226.47 447.476 226.47ZM454.236 223.096V225.182H455.65V226.624H454.236V229.788C454.236 230.39 454.502 230.642 455.104 230.642C455.328 230.642 455.594 230.6 455.664 230.586V231.93C455.566 231.972 455.258 232.084 454.67 232.084C453.41 232.084 452.626 231.328 452.626 230.054V226.624H451.366V225.182H451.716C452.444 225.182 452.766 224.72 452.766 224.118V223.096H454.236ZM458.817 232H457.207V225.182H458.817V232ZM456.955 222.788C456.955 222.2 457.431 221.724 458.005 221.724C458.593 221.724 459.069 222.2 459.069 222.788C459.069 223.376 458.593 223.838 458.005 223.838C457.431 223.838 456.955 223.376 456.955 222.788ZM463.924 230.754C464.932 230.754 465.828 230.012 465.828 228.584C465.828 227.17 464.932 226.442 463.924 226.442C462.93 226.442 462.02 227.17 462.02 228.584C462.02 229.998 462.93 230.754 463.924 230.754ZM463.924 224.972C465.968 224.972 467.466 226.498 467.466 228.584C467.466 230.684 465.968 232.21 463.924 232.21C461.894 232.21 460.396 230.684 460.396 228.584C460.396 226.498 461.894 224.972 463.924 224.972ZM470.671 228.066V232H469.047V225.182H470.629V226.092C471.077 225.308 471.889 224.986 472.645 224.986C474.311 224.986 475.109 226.19 475.109 227.688V232H473.485V227.968C473.485 227.128 473.107 226.456 472.085 226.456C471.161 226.456 470.671 227.17 470.671 228.066ZM476.583 230.152L477.997 229.76C478.053 230.376 478.515 230.922 479.383 230.922C480.055 230.922 480.405 230.558 480.405 230.138C480.405 229.774 480.153 229.494 479.607 229.382L478.599 229.158C477.395 228.892 476.765 228.108 476.765 227.17C476.765 225.98 477.857 224.972 479.271 224.972C481.175 224.972 481.791 226.204 481.903 226.876L480.531 227.268C480.475 226.876 480.181 226.246 479.271 226.246C478.697 226.246 478.291 226.61 478.291 227.03C478.291 227.394 478.557 227.66 478.977 227.744L480.013 227.954C481.301 228.234 481.973 229.018 481.973 230.026C481.973 231.062 481.133 232.21 479.397 232.21C477.423 232.21 476.667 230.922 476.583 230.152Z" fill="#FEFEFE"/>
<path d="M389.753 262.4C389.939 261.873 390.284 261.417 390.74 261.094C391.196 260.771 391.741 260.598 392.3 260.598C392.859 260.598 393.404 260.771 393.86 261.094C394.316 261.417 394.661 261.873 394.847 262.4H404V264.2H394.847C394.661 264.727 394.316 265.183 393.86 265.506C393.404 265.829 392.859 266.002 392.3 266.002C391.741 266.002 391.196 265.829 390.74 265.506C390.284 265.183 389.939 264.727 389.753 264.2H386V262.4H389.753ZM395.153 256.1C395.339 255.573 395.684 255.117 396.14 254.794C396.596 254.471 397.141 254.298 397.7 254.298C398.259 254.298 398.804 254.471 399.26 254.794C399.716 255.117 400.061 255.573 400.247 256.1H404V257.9H400.247C400.061 258.427 399.716 258.883 399.26 259.206C398.804 259.529 398.259 259.702 397.7 259.702C397.141 259.702 396.596 259.529 396.14 259.206C395.684 258.883 395.339 258.427 395.153 257.9H386V256.1H395.153ZM389.753 249.8C389.939 249.273 390.284 248.817 390.74 248.494C391.196 248.171 391.741 247.998 392.3 247.998C392.859 247.998 393.404 248.171 393.86 248.494C394.316 248.817 394.661 249.273 394.847 249.8H404V251.6H394.847C394.661 252.127 394.316 252.583 393.86 252.906C393.404 253.229 392.859 253.402 392.3 253.402C391.741 253.402 391.196 253.229 390.74 252.906C390.284 252.583 389.939 252.127 389.753 251.6H386V249.8H389.753ZM392.3 251.6C392.539 251.6 392.768 251.505 392.936 251.336C393.105 251.168 393.2 250.939 393.2 250.7C393.2 250.461 393.105 250.232 392.936 250.064C392.768 249.895 392.539 249.8 392.3 249.8C392.061 249.8 391.832 249.895 391.664 250.064C391.495 250.232 391.4 250.461 391.4 250.7C391.4 250.939 391.495 251.168 391.664 251.336C391.832 251.505 392.061 251.6 392.3 251.6ZM397.7 257.9C397.939 257.9 398.168 257.805 398.336 257.636C398.505 257.468 398.6 257.239 398.6 257C398.6 256.761 398.505 256.532 398.336 256.364C398.168 256.195 397.939 256.1 397.7 256.1C397.461 256.1 397.232 256.195 397.064 256.364C396.895 256.532 396.8 256.761 396.8 257C396.8 257.239 396.895 257.468 397.064 257.636C397.232 257.805 397.461 257.9 397.7 257.9ZM392.3 264.2C392.539 264.2 392.768 264.105 392.936 263.936C393.105 263.768 393.2 263.539 393.2 263.3C393.2 263.061 393.105 262.832 392.936 262.664C392.768 262.495 392.539 262.4 392.3 262.4C392.061 262.4 391.832 262.495 391.664 262.664C391.495 262.832 391.4 263.061 391.4 263.3C391.4 263.539 391.495 263.768 391.664 263.936C391.832 264.105 392.061 264.2 392.3 264.2Z" fill="#FEFEFE"/>
<path d="M419.812 261.18C417.616 261.18 415.588 259.584 415.588 256.74C415.588 253.896 417.7 252.312 419.812 252.312C421.756 252.312 423.124 253.368 423.556 255.012L422.464 255.396C422.14 254.112 421.204 253.392 419.812 253.392C418.264 253.392 416.788 254.52 416.788 256.74C416.788 258.96 418.264 260.1 419.812 260.1C421.264 260.1 422.176 259.224 422.524 258.06L423.568 258.444C423.112 260.04 421.768 261.18 419.812 261.18ZM427.457 260.172C428.417 260.172 429.257 259.452 429.257 258.108C429.257 256.776 428.417 256.056 427.457 256.056C426.497 256.056 425.657 256.776 425.657 258.108C425.657 259.452 426.497 260.172 427.457 260.172ZM427.457 255.048C429.185 255.048 430.409 256.356 430.409 258.108C430.409 259.872 429.185 261.18 427.457 261.18C425.729 261.18 424.505 259.872 424.505 258.108C424.505 256.356 425.729 255.048 427.457 255.048ZM432.978 257.664V261H431.85V255.228H432.954V256.056C433.374 255.336 434.058 255.06 434.73 255.06C436.11 255.06 436.794 256.056 436.794 257.34V261H435.666V257.532C435.666 256.728 435.33 256.08 434.322 256.08C433.434 256.08 432.978 256.788 432.978 257.664ZM441.073 256.092C440.161 256.092 439.321 256.764 439.321 258.108C439.321 259.428 440.149 260.136 441.085 260.136C442.165 260.136 442.561 259.404 442.693 258.948L443.689 259.38C443.413 260.208 442.585 261.18 441.085 261.18C439.405 261.18 438.169 259.86 438.169 258.108C438.169 256.308 439.429 255.048 441.073 255.048C442.609 255.048 443.401 256.008 443.641 256.884L442.621 257.316C442.477 256.752 442.057 256.092 441.073 256.092ZM448.825 260.304C448.513 260.904 447.793 261.18 447.121 261.18C445.777 261.18 444.961 260.172 444.961 258.864V255.228H446.089V258.696C446.089 259.488 446.449 260.184 447.397 260.184C448.309 260.184 448.765 259.584 448.765 258.708V255.228H449.893V259.932C449.893 260.388 449.929 260.796 449.953 261H448.873C448.849 260.868 448.825 260.544 448.825 260.304ZM454.929 255.168V256.368C454.761 256.344 454.593 256.332 454.437 256.332C453.489 256.332 452.853 256.836 452.853 258.108V261H451.725V255.228H452.829V256.236C453.249 255.348 453.969 255.132 454.557 255.132C454.713 255.132 454.869 255.156 454.929 255.168ZM459.288 255.168V256.368C459.12 256.344 458.952 256.332 458.796 256.332C457.848 256.332 457.212 256.836 457.212 258.108V261H456.084V255.228H457.188V256.236C457.608 255.348 458.328 255.132 458.916 255.132C459.072 255.132 459.228 255.156 459.288 255.168ZM461.154 257.52H464.31C464.286 256.692 463.746 256.044 462.726 256.044C461.778 256.044 461.202 256.776 461.154 257.52ZM464.478 259.02L465.45 259.356C465.126 260.376 464.202 261.18 462.858 261.18C461.31 261.18 459.954 260.052 459.954 258.096C459.954 256.284 461.262 255.048 462.714 255.048C464.49 255.048 465.486 256.272 465.486 258.072C465.486 258.216 465.474 258.36 465.462 258.432H461.118C461.142 259.464 461.886 260.184 462.858 260.184C463.794 260.184 464.262 259.668 464.478 259.02ZM468.028 257.664V261H466.9V255.228H468.004V256.056C468.424 255.336 469.108 255.06 469.78 255.06C471.16 255.06 471.844 256.056 471.844 257.34V261H470.716V257.532C470.716 256.728 470.38 256.08 469.372 256.08C468.484 256.08 468.028 256.788 468.028 257.664ZM476.123 256.092C475.211 256.092 474.371 256.764 474.371 258.108C474.371 259.428 475.199 260.136 476.135 260.136C477.215 260.136 477.611 259.404 477.743 258.948L478.739 259.38C478.463 260.208 477.635 261.18 476.135 261.18C474.455 261.18 473.219 259.86 473.219 258.108C473.219 256.308 474.479 255.048 476.123 255.048C477.659 255.048 478.451 256.008 478.691 256.884L477.671 257.316C477.527 256.752 477.107 256.092 476.123 256.092ZM481.528 263.412H480.292L481.732 260.364L479.248 255.228H480.544L482.344 259.212L484.072 255.228H485.284L481.528 263.412Z" fill="#FEFEFE"/>
<path d="M401.8 294.244C401.8 296.12 401.039 297.819 399.808 299.049L401.01 300.25C402.549 298.713 403.5 296.589 403.5 294.244C403.5 289.553 399.694 285.75 395 285.75C390.306 285.75 386.5 289.553 386.5 294.244C386.5 296.589 387.451 298.713 388.99 300.25L390.192 299.049C388.961 297.819 388.2 296.12 388.2 294.244C388.2 290.491 391.244 287.449 395 287.449C398.756 287.449 401.8 290.491 401.8 294.244ZM397.799 290.246L393.974 294.068L395.176 295.269L399.001 291.447L397.799 290.246Z" fill="#FEFEFE"/>
<path d="M422.08 289.584H419.236V297H418.06V289.584H415.216V288.492H422.08V289.584ZM423.931 293.604V297H422.803V288.312H423.931V291.9C424.351 291.288 425.023 291.06 425.683 291.06C427.063 291.06 427.747 292.056 427.747 293.34V297H426.619V293.532C426.619 292.728 426.283 292.08 425.275 292.08C424.411 292.08 423.955 292.752 423.931 293.604ZM432.71 291.168V292.368C432.542 292.344 432.374 292.332 432.218 292.332C431.27 292.332 430.634 292.836 430.634 294.108V297H429.506V291.228H430.61V292.236C431.03 291.348 431.75 291.132 432.338 291.132C432.494 291.132 432.65 291.156 432.71 291.168ZM436.328 296.172C437.288 296.172 438.128 295.452 438.128 294.108C438.128 292.776 437.288 292.056 436.328 292.056C435.368 292.056 434.528 292.776 434.528 294.108C434.528 295.452 435.368 296.172 436.328 296.172ZM436.328 291.048C438.056 291.048 439.28 292.356 439.28 294.108C439.28 295.872 438.056 297.18 436.328 297.18C434.6 297.18 433.376 295.872 433.376 294.108C433.376 292.356 434.6 291.048 436.328 291.048ZM442.199 289.404V291.228H443.447V292.248H442.199V295.248C442.199 295.776 442.415 296.04 443.003 296.04C443.147 296.04 443.351 296.016 443.447 295.992V296.952C443.351 296.988 443.063 297.06 442.679 297.06C441.695 297.06 441.071 296.46 441.071 295.416V292.248H439.967V291.228H440.279C440.903 291.228 441.167 290.844 441.167 290.34V289.404H442.199ZM446.359 289.404V291.228H447.607V292.248H446.359V295.248C446.359 295.776 446.575 296.04 447.163 296.04C447.307 296.04 447.511 296.016 447.607 295.992V296.952C447.511 296.988 447.223 297.06 446.839 297.06C445.855 297.06 445.231 296.46 445.231 295.416V292.248H444.127V291.228H444.439C445.063 291.228 445.327 290.844 445.327 290.34V289.404H446.359ZM450.075 297H448.947V288.312H450.075V297ZM452.716 293.52H455.872C455.848 292.692 455.308 292.044 454.288 292.044C453.34 292.044 452.764 292.776 452.716 293.52ZM456.04 295.02L457.012 295.356C456.688 296.376 455.764 297.18 454.42 297.18C452.872 297.18 451.516 296.052 451.516 294.096C451.516 292.284 452.824 291.048 454.276 291.048C456.052 291.048 457.048 292.272 457.048 294.072C457.048 294.216 457.036 294.36 457.024 294.432H452.68C452.704 295.464 453.448 296.184 454.42 296.184C455.356 296.184 455.824 295.668 456.04 295.02Z" fill="#FEFEFE"/>
<path d="M395.902 333.444V335.3H400.402V337.1H389.602V335.3H394.102V333.444C392.362 333.225 390.762 332.378 389.602 331.063C388.442 329.747 387.802 328.054 387.802 326.3V320.9H402.202V326.3C402.202 328.054 401.561 329.747 400.402 331.063C399.242 332.378 397.642 333.225 395.902 333.444ZM389.602 322.7V326.3C389.602 327.732 390.17 329.106 391.183 330.118C392.196 331.131 393.569 331.7 395.002 331.7C396.434 331.7 397.807 331.131 398.82 330.118C399.833 329.106 400.402 327.732 400.402 326.3V322.7H389.602ZM385.102 322.7H386.902V326.3H385.102V322.7ZM403.102 322.7H404.902V326.3H403.102V322.7Z" fill="#FEFEFE"/>
<path d="M417.316 328.464H419.02C420.04 328.464 420.664 327.9 420.664 327.024C420.664 326.124 420.04 325.548 419.02 325.548H417.316V328.464ZM419.236 329.52H417.316V333H416.14V324.492H419.236C420.808 324.492 421.864 325.584 421.864 327.012C421.864 328.452 420.808 329.52 419.236 329.52ZM426.229 327.168V328.368C426.061 328.344 425.893 328.332 425.737 328.332C424.789 328.332 424.153 328.836 424.153 330.108V333H423.025V327.228H424.129V328.236C424.549 327.348 425.269 327.132 425.857 327.132C426.013 327.132 426.169 327.156 426.229 327.168ZM428.501 333H427.385V327.228H428.501V333ZM427.133 325.044C427.133 324.588 427.493 324.228 427.937 324.228C428.393 324.228 428.753 324.588 428.753 325.044C428.753 325.488 428.393 325.848 427.937 325.848C427.493 325.848 427.133 325.488 427.133 325.044ZM432.894 332.172C433.854 332.172 434.694 331.452 434.694 330.108C434.694 328.776 433.854 328.056 432.894 328.056C431.934 328.056 431.094 328.776 431.094 330.108C431.094 331.452 431.934 332.172 432.894 332.172ZM432.894 327.048C434.622 327.048 435.846 328.356 435.846 330.108C435.846 331.872 434.622 333.18 432.894 333.18C431.166 333.18 429.942 331.872 429.942 330.108C429.942 328.356 431.166 327.048 432.894 327.048ZM440.491 327.168V328.368C440.323 328.344 440.155 328.332 439.999 328.332C439.051 328.332 438.415 328.836 438.415 330.108V333H437.287V327.228H438.391V328.236C438.811 327.348 439.531 327.132 440.119 327.132C440.275 327.132 440.431 327.156 440.491 327.168ZM442.762 333H441.646V327.228H442.762V333ZM441.394 325.044C441.394 324.588 441.754 324.228 442.198 324.228C442.654 324.228 443.014 324.588 443.014 325.044C443.014 325.488 442.654 325.848 442.198 325.848C441.754 325.848 441.394 325.488 441.394 325.044ZM446.16 325.404V327.228H447.408V328.248H446.16V331.248C446.16 331.776 446.376 332.04 446.964 332.04C447.108 332.04 447.312 332.016 447.408 331.992V332.952C447.312 332.988 447.024 333.06 446.64 333.06C445.656 333.06 445.032 332.46 445.032 331.416V328.248H443.928V327.228H444.24C444.864 327.228 445.128 326.844 445.128 326.34V325.404H446.16ZM450.356 335.412H449.12L450.56 332.364L448.076 327.228H449.372L451.172 331.212L452.9 327.228H454.112L450.356 335.412Z" fill="#FEFEFE"/>
<path d="M20.4141 240C20.4141 240.552 20.8618 241 21.4141 241C21.9663 241 22.4141 240.552 22.4141 240H20.4141ZM73.3927 134.076C73.7832 133.686 73.7832 133.052 73.3927 132.662L67.0287 126.298C66.6382 125.907 66.005 125.907 65.6145 126.298C65.224 126.689 65.224 127.322 65.6145 127.712L71.2713 133.369L65.6145 139.026C65.224 139.416 65.224 140.05 65.6145 140.44C66.005 140.831 66.6382 140.831 67.0287 140.44L73.3927 134.076ZM22.4141 240V153.369H20.4141V240H22.4141ZM41.4141 134.369H72.6855V132.369H41.4141V134.369ZM22.4141 153.369C22.4141 142.876 30.9207 134.369 41.4141 134.369V132.369C29.8161 132.369 20.4141 141.771 20.4141 153.369H22.4141Z" fill="#262626"/>
<path d="M347.496 132.662C347.105 133.052 347.105 133.686 347.496 134.076L353.86 140.44C354.251 140.831 354.884 140.831 355.274 140.44C355.665 140.05 355.665 139.416 355.274 139.026L349.617 133.369L355.274 127.712C355.665 127.322 355.665 126.689 355.274 126.298C354.884 125.907 354.251 125.907 353.86 126.298L347.496 132.662ZM434.791 185.306C435.181 185.697 435.815 185.697 436.205 185.306L442.569 178.943C442.96 178.552 442.96 177.919 442.569 177.528C442.179 177.138 441.545 177.138 441.155 177.528L435.498 183.185L429.841 177.528C429.451 177.138 428.817 177.138 428.427 177.528C428.036 177.919 428.036 178.552 428.427 178.943L434.791 185.306ZM348.203 134.369H415.498V132.369H348.203V134.369ZM434.498 153.369V184.599H436.498V153.369H434.498ZM415.498 134.369C425.991 134.369 434.498 142.876 434.498 153.369H436.498C436.498 141.771 427.096 132.369 415.498 132.369V134.369Z" fill="#262626"/>
</svg>
