<svg width="505" height="408" viewBox="0 0 505 408" fill="none" xmlns="http://www.w3.org/2000/svg">
<g clip-path="url(#clip0_295_2242)">
<path d="M84.0273 109.244C84.0273 107.035 85.8182 105.244 88.0273 105.244H225.624C227.833 105.244 229.624 107.035 229.624 109.244V124.385C229.624 126.594 227.833 128.385 225.624 128.385H88.0274C85.8182 128.385 84.0273 126.594 84.0273 124.385V109.244Z" fill="#050505"/>
<rect width="1" height="23" transform="translate(84.0273 106.244)" fill="#FEFEFE"/>
<rect width="1" height="23" transform="translate(114.195 106.244)" fill="#FEFEFE"/>
<rect width="1" height="23" transform="translate(144.359 106.244)" fill="#FEFEFE"/>
<rect width="1" height="23" transform="translate(174.527 106.244)" fill="#FEFEFE"/>
<rect width="1" height="23" transform="translate(204.695 106.244)" fill="#FEFEFE"/>
</g>
<path d="M85.0273 109.244C85.0273 107.587 86.3705 106.244 88.0273 106.244H225.624C227.281 106.244 228.624 107.587 228.624 109.244V124.385C228.624 126.042 227.281 127.385 225.624 127.385H88.0274C86.3705 127.385 85.0273 126.042 85.0273 124.385V109.244Z" stroke="#FEFEFE" stroke-width="2"/>
<g clip-path="url(#clip1_295_2242)">
<path d="M76.3164 101.53C76.3164 99.3209 78.1073 97.5301 80.3164 97.5301H217.913C220.122 97.5301 221.913 99.321 221.913 101.53V116.671C221.913 118.88 220.122 120.671 217.913 120.671H80.3164C78.1073 120.671 76.3164 118.88 76.3164 116.671V101.53Z" fill="#050505"/>
<rect width="1" height="23" transform="translate(76.3164 98.5301)" fill="#FEFEFE"/>
<rect width="1" height="23" transform="translate(106.484 98.5301)" fill="#FEFEFE"/>
<rect width="1" height="23" transform="translate(136.648 98.5301)" fill="#FEFEFE"/>
<rect width="1" height="23" transform="translate(166.816 98.5301)" fill="#FEFEFE"/>
<rect width="1" height="23" transform="translate(196.984 98.5301)" fill="#FEFEFE"/>
</g>
<path d="M77.3164 101.53C77.3164 99.8732 78.6596 98.5301 80.3164 98.5301H217.913C219.57 98.5301 220.913 99.8732 220.913 101.53V116.671C220.913 118.328 219.57 119.671 217.913 119.671H80.3164C78.6596 119.671 77.3164 118.328 77.3164 116.671V101.53Z" stroke="#FEFEFE" stroke-width="2"/>
<g clip-path="url(#clip2_295_2242)">
<path d="M68.6016 93.8163C68.6016 91.6072 70.3924 89.8163 72.6016 89.8163H210.198C212.407 89.8163 214.198 91.6072 214.198 93.8163V108.958C214.198 111.167 212.407 112.957 210.198 112.957H72.6016C70.3924 112.957 68.6016 111.167 68.6016 108.957V93.8163Z" fill="#050505"/>
<rect width="1" height="23" transform="translate(68.6016 90.8163)" fill="#FEFEFE"/>
<rect width="1" height="23" transform="translate(98.7695 90.8163)" fill="#FEFEFE"/>
<rect width="1" height="23" transform="translate(128.934 90.8163)" fill="#FEFEFE"/>
<rect width="1" height="23" transform="translate(159.102 90.8163)" fill="#FEFEFE"/>
<rect width="1" height="23" transform="translate(189.27 90.8163)" fill="#FEFEFE"/>
</g>
<path d="M69.6016 93.8163C69.6016 92.1595 70.9447 90.8163 72.6016 90.8163H210.198C211.855 90.8163 213.198 92.1595 213.198 93.8163V108.958C213.198 110.614 211.855 111.957 210.198 111.957H72.6016C70.9447 111.957 69.6016 110.614 69.6016 108.957V93.8163Z" stroke="#FEFEFE" stroke-width="2"/>
<path d="M129.924 139.982C129.924 137.138 132.06 135.554 134.196 135.554C136.332 135.554 138.468 137.138 138.468 139.982C138.468 141.326 137.988 142.382 137.268 143.126L138.264 144.242L137.46 144.95L136.428 143.81C135.756 144.218 134.976 144.422 134.196 144.422C132.06 144.422 129.924 142.826 129.924 139.982ZM131.124 139.982C131.124 142.202 132.612 143.342 134.196 143.342C134.724 143.342 135.228 143.222 135.684 142.97L134.208 141.314L135.024 140.606L136.512 142.286C136.968 141.734 137.268 140.966 137.268 139.982C137.268 137.762 135.78 136.634 134.196 136.634C132.612 136.634 131.124 137.762 131.124 139.982ZM143.755 143.546C143.443 144.146 142.723 144.422 142.051 144.422C140.707 144.422 139.891 143.414 139.891 142.106V138.47H141.019V141.938C141.019 142.73 141.379 143.426 142.327 143.426C143.239 143.426 143.695 142.826 143.695 141.95V138.47H144.823V143.174C144.823 143.63 144.859 144.038 144.883 144.242H143.803C143.779 144.11 143.755 143.786 143.755 143.546ZM147.47 140.762H150.626C150.602 139.934 150.062 139.286 149.042 139.286C148.094 139.286 147.518 140.018 147.47 140.762ZM150.794 142.262L151.766 142.598C151.442 143.618 150.518 144.422 149.174 144.422C147.626 144.422 146.27 143.294 146.27 141.338C146.27 139.526 147.578 138.29 149.03 138.29C150.806 138.29 151.802 139.514 151.802 141.314C151.802 141.458 151.79 141.602 151.778 141.674H147.434C147.458 142.706 148.202 143.426 149.174 143.426C150.11 143.426 150.578 142.91 150.794 142.262ZM157.021 143.546C156.709 144.146 155.989 144.422 155.317 144.422C153.973 144.422 153.157 143.414 153.157 142.106V138.47H154.285V141.938C154.285 142.73 154.645 143.426 155.593 143.426C156.505 143.426 156.961 142.826 156.961 141.95V138.47H158.089V143.174C158.089 143.63 158.125 144.038 158.149 144.242H157.069C157.045 144.11 157.021 143.786 157.021 143.546ZM160.736 140.762H163.892C163.868 139.934 163.328 139.286 162.308 139.286C161.36 139.286 160.784 140.018 160.736 140.762ZM164.06 142.262L165.032 142.598C164.708 143.618 163.784 144.422 162.44 144.422C160.892 144.422 159.536 143.294 159.536 141.338C159.536 139.526 160.844 138.29 162.296 138.29C164.072 138.29 165.068 139.514 165.068 141.314C165.068 141.458 165.056 141.602 165.044 141.674H160.7C160.724 142.706 161.468 143.426 162.44 143.426C163.376 143.426 163.844 142.91 164.06 142.262ZM166.026 142.742L167.046 142.382C167.118 142.982 167.574 143.462 168.39 143.462C169.026 143.462 169.374 143.102 169.374 142.694C169.374 142.334 169.11 142.058 168.63 141.95L167.646 141.734C166.746 141.542 166.206 140.93 166.206 140.114C166.206 139.13 167.13 138.29 168.258 138.29C169.842 138.29 170.334 139.322 170.454 139.838L169.458 140.21C169.41 139.91 169.17 139.25 168.258 139.25C167.682 139.25 167.298 139.622 167.298 140.018C167.298 140.366 167.514 140.618 167.958 140.714L168.894 140.918C169.938 141.146 170.49 141.782 170.49 142.634C170.49 143.45 169.806 144.422 168.378 144.422C166.794 144.422 166.122 143.402 166.026 142.742Z" fill="#FEFEFE"/>
<path d="M343.438 109.244C343.438 107.587 344.781 106.244 346.438 106.244H440.338C443.144 106.244 444.414 109.754 442.257 111.549L424.071 126.69C423.532 127.139 422.853 127.385 422.152 127.385H346.437C344.781 127.385 343.438 126.042 343.438 124.385V109.244Z" fill="#050505" stroke="#FEFEFE" stroke-width="2"/>
<path d="M335.727 101.53C335.727 99.8732 337.07 98.5301 338.727 98.5301H432.627C435.433 98.5301 436.703 102.04 434.546 103.836L416.36 118.977C415.821 119.426 415.142 119.671 414.441 119.671H338.727C337.07 119.671 335.727 118.328 335.727 116.671V101.53Z" fill="#050505" stroke="#FEFEFE" stroke-width="2"/>
<path d="M328.012 93.8163C328.012 92.1595 329.355 90.8163 331.012 90.8163H424.912C427.719 90.8163 428.988 94.3261 426.831 96.1219L408.645 111.263C408.106 111.712 407.427 111.957 406.726 111.957H331.012C329.355 111.957 328.012 110.614 328.012 108.957V93.8163Z" fill="#050505" stroke="#FEFEFE" stroke-width="2"/>
<path d="M368.66 142.466L370.496 135.734H371.708L369.284 144.242H368.072L365.852 137.342L363.656 144.242H362.48L360.02 135.734H361.232L363.104 142.394L365.24 135.734H366.476L368.66 142.466ZM374.931 143.414C375.891 143.414 376.731 142.694 376.731 141.35C376.731 140.018 375.891 139.298 374.931 139.298C373.971 139.298 373.131 140.018 373.131 141.35C373.131 142.694 373.971 143.414 374.931 143.414ZM374.931 138.29C376.659 138.29 377.883 139.598 377.883 141.35C377.883 143.114 376.659 144.422 374.931 144.422C373.203 144.422 371.979 143.114 371.979 141.35C371.979 139.598 373.203 138.29 374.931 138.29ZM382.528 138.41V139.61C382.36 139.586 382.192 139.574 382.036 139.574C381.088 139.574 380.452 140.078 380.452 141.35V144.242H379.324V138.47H380.428V139.478C380.848 138.59 381.568 138.374 382.156 138.374C382.312 138.374 382.468 138.398 382.528 138.41ZM388.856 138.47L386.396 140.906L388.904 144.242H387.488L385.604 141.698L384.8 142.502V144.242H383.684V135.554H384.8V141.026L387.296 138.47H388.856ZM390.5 140.762H393.656C393.632 139.934 393.092 139.286 392.072 139.286C391.124 139.286 390.548 140.018 390.5 140.762ZM393.824 142.262L394.796 142.598C394.472 143.618 393.548 144.422 392.204 144.422C390.656 144.422 389.3 143.294 389.3 141.338C389.3 139.526 390.608 138.29 392.06 138.29C393.836 138.29 394.832 139.514 394.832 141.314C394.832 141.458 394.82 141.602 394.808 141.674H390.464C390.488 142.706 391.232 143.426 392.204 143.426C393.14 143.426 393.608 142.91 393.824 142.262ZM399.45 138.41V139.61C399.282 139.586 399.114 139.574 398.958 139.574C398.01 139.574 397.374 140.078 397.374 141.35V144.242H396.246V138.47H397.35V139.478C397.77 138.59 398.49 138.374 399.078 138.374C399.234 138.374 399.39 138.398 399.45 138.41ZM400.15 142.742L401.17 142.382C401.242 142.982 401.698 143.462 402.514 143.462C403.15 143.462 403.498 143.102 403.498 142.694C403.498 142.334 403.234 142.058 402.754 141.95L401.77 141.734C400.87 141.542 400.33 140.93 400.33 140.114C400.33 139.13 401.254 138.29 402.382 138.29C403.966 138.29 404.458 139.322 404.578 139.838L403.582 140.21C403.534 139.91 403.294 139.25 402.382 139.25C401.806 139.25 401.422 139.622 401.422 140.018C401.422 140.366 401.638 140.618 402.082 140.714L403.018 140.918C404.062 141.146 404.614 141.782 404.614 142.634C404.614 143.45 403.93 144.422 402.502 144.422C400.918 144.422 400.246 143.402 400.15 142.742Z" fill="#FEFEFE"/>
<path d="M230.371 370.154L260.484 351.334L290.598 370.154L260.484 388.975L230.371 370.154Z" stroke="#FEFEFE" stroke-width="2"/>
<path d="M226.074 406.154H224.874V397.646H226.074V406.154ZM229.255 402.818V406.154H228.127V400.382H229.231V401.21C229.651 400.49 230.335 400.214 231.007 400.214C232.387 400.214 233.071 401.21 233.071 402.494V406.154H231.943V402.686C231.943 401.882 231.607 401.234 230.599 401.234C229.711 401.234 229.255 401.942 229.255 402.818ZM237.795 401.402H236.403V406.154H235.239V401.402H234.171V400.382H235.239V399.41C235.239 398.126 236.091 397.43 237.135 397.43C237.519 397.43 237.759 397.514 237.807 397.55V398.558C237.747 398.534 237.603 398.486 237.315 398.486C236.919 398.486 236.403 398.678 236.403 399.47V400.382H237.795V401.402ZM242.171 400.322V401.522C242.003 401.498 241.835 401.486 241.679 401.486C240.731 401.486 240.095 401.99 240.095 403.262V406.154H238.967V400.382H240.071V401.39C240.491 400.502 241.211 400.286 241.799 400.286C241.955 400.286 242.111 400.31 242.171 400.322ZM242.942 404.606C242.942 403.574 243.698 402.998 244.694 402.854L246.254 402.626C246.602 402.578 246.698 402.398 246.698 402.194C246.698 401.63 246.326 401.162 245.45 401.162C244.658 401.162 244.214 401.654 244.142 402.326L243.062 402.074C243.182 400.97 244.178 400.202 245.426 400.202C247.154 400.202 247.826 401.186 247.826 402.314V405.206C247.826 405.71 247.874 406.01 247.898 406.154H246.794C246.77 406.01 246.734 405.794 246.734 405.374C246.482 405.782 245.906 406.334 244.874 406.334C243.698 406.334 242.942 405.518 242.942 404.606ZM245.03 405.386C245.954 405.386 246.698 404.942 246.698 403.682V403.418L244.934 403.682C244.454 403.754 244.094 404.03 244.094 404.546C244.094 404.978 244.454 405.386 245.03 405.386ZM252.751 403.202H249.499V402.218H252.751V403.202ZM254.087 404.606C254.087 403.574 254.843 402.998 255.839 402.854L257.399 402.626C257.747 402.578 257.843 402.398 257.843 402.194C257.843 401.63 257.471 401.162 256.595 401.162C255.803 401.162 255.359 401.654 255.287 402.326L254.207 402.074C254.327 400.97 255.323 400.202 256.571 400.202C258.299 400.202 258.971 401.186 258.971 402.314V405.206C258.971 405.71 259.019 406.01 259.043 406.154H257.939C257.915 406.01 257.879 405.794 257.879 405.374C257.627 405.782 257.051 406.334 256.019 406.334C254.843 406.334 254.087 405.518 254.087 404.606ZM256.175 405.386C257.099 405.386 257.843 404.942 257.843 403.682V403.418L256.079 403.682C255.599 403.754 255.239 404.03 255.239 404.546C255.239 404.978 255.599 405.386 256.175 405.386ZM260.296 404.654L261.316 404.294C261.388 404.894 261.844 405.374 262.66 405.374C263.296 405.374 263.644 405.014 263.644 404.606C263.644 404.246 263.38 403.97 262.9 403.862L261.916 403.646C261.016 403.454 260.476 402.842 260.476 402.026C260.476 401.042 261.4 400.202 262.528 400.202C264.112 400.202 264.604 401.234 264.724 401.75L263.728 402.122C263.68 401.822 263.44 401.162 262.528 401.162C261.952 401.162 261.568 401.534 261.568 401.93C261.568 402.278 261.784 402.53 262.228 402.626L263.164 402.83C264.208 403.058 264.76 403.694 264.76 404.546C264.76 405.362 264.076 406.334 262.648 406.334C261.064 406.334 260.392 405.314 260.296 404.654ZM269.357 403.202H266.105V402.218H269.357V403.202ZM273.596 401.246C272.684 401.246 271.844 401.918 271.844 403.262C271.844 404.582 272.672 405.29 273.608 405.29C274.688 405.29 275.084 404.558 275.216 404.102L276.212 404.534C275.936 405.362 275.108 406.334 273.608 406.334C271.928 406.334 270.692 405.014 270.692 403.262C270.692 401.462 271.952 400.202 273.596 400.202C275.132 400.202 275.924 401.162 276.164 402.038L275.144 402.47C275 401.906 274.58 401.246 273.596 401.246ZM280.113 405.326C281.073 405.326 281.913 404.606 281.913 403.262C281.913 401.93 281.073 401.21 280.113 401.21C279.153 401.21 278.313 401.93 278.313 403.262C278.313 404.606 279.153 405.326 280.113 405.326ZM280.113 400.202C281.841 400.202 283.065 401.51 283.065 403.262C283.065 405.026 281.841 406.334 280.113 406.334C278.385 406.334 277.161 405.026 277.161 403.262C277.161 401.51 278.385 400.202 280.113 400.202ZM285.286 403.25C285.286 404.438 285.898 405.314 286.978 405.314C288.01 405.314 288.646 404.414 288.646 403.226C288.646 402.038 288.022 401.222 286.99 401.222C285.958 401.222 285.286 402.062 285.286 403.25ZM288.658 405.374V405.278C288.382 405.83 287.77 406.31 286.87 406.31C285.178 406.31 284.134 404.966 284.134 403.25C284.134 401.618 285.238 400.226 286.87 400.226C287.89 400.226 288.442 400.73 288.634 401.198V397.466H289.75V405.086C289.75 405.638 289.798 406.058 289.81 406.154H288.718C288.694 406.022 288.658 405.722 288.658 405.374ZM292.4 402.674H295.556C295.532 401.846 294.992 401.198 293.972 401.198C293.024 401.198 292.448 401.93 292.4 402.674ZM295.724 404.174L296.696 404.51C296.372 405.53 295.448 406.334 294.104 406.334C292.556 406.334 291.2 405.206 291.2 403.25C291.2 401.438 292.508 400.202 293.96 400.202C295.736 400.202 296.732 401.426 296.732 403.226C296.732 403.37 296.72 403.514 296.708 403.586H292.364C292.388 404.618 293.132 405.338 294.104 405.338C295.04 405.338 295.508 404.822 295.724 404.174Z" fill="#FEFEFE"/>
<path d="M272.713 370.154L267.622 375.246L266.349 373.973L270.168 370.154L266.349 366.336L267.622 365.063L272.713 370.154ZM253.658 370.154L257.477 373.973L256.205 375.246L251.113 370.154L256.205 365.063L257.476 366.336L253.658 370.154ZM259.922 378.254H258.007L263.904 362.054H265.819L259.922 378.254Z" fill="#FEFEFE"/>
<rect x="17.2109" y="200.737" width="30" height="30" rx="3" stroke="#FEFEFE" stroke-width="2"/>
<path d="M32.2109 224.737C27.2402 224.737 23.2109 220.708 23.2109 215.737C23.2109 210.766 27.2402 206.737 32.2109 206.737C37.1816 206.737 41.2109 210.766 41.2109 215.737C41.2109 220.708 37.1816 224.737 32.2109 224.737ZM32.2109 222.937C34.1205 222.937 35.9518 222.178 37.3021 220.828C38.6524 219.478 39.4109 217.646 39.4109 215.737C39.4109 213.827 38.6524 211.996 37.3021 210.646C35.9518 209.295 34.1205 208.537 32.2109 208.537C30.3014 208.537 28.47 209.295 27.1198 210.646C25.7695 211.996 25.0109 213.827 25.0109 215.737C25.0109 217.646 25.7695 219.478 27.1198 220.828C28.47 222.178 30.3014 222.937 32.2109 222.937ZM33.1109 215.737H36.7109V217.537H31.3109V211.237H33.1109V215.737Z" fill="#FEFEFE"/>
<rect x="57.2109" y="200.737" width="30" height="30" rx="3" stroke="#FEFEFE" stroke-width="2"/>
<path d="M72.2109 224.737C67.2402 224.737 63.2109 220.708 63.2109 215.737C63.2109 210.766 67.2402 206.737 72.2109 206.737C77.1816 206.737 81.2109 210.766 81.2109 215.737C81.2109 220.708 77.1816 224.737 72.2109 224.737ZM72.2109 222.937C74.1205 222.937 75.9518 222.178 77.3021 220.828C78.6524 219.478 79.4109 217.646 79.4109 215.737C79.4109 213.827 78.6524 211.996 77.3021 210.646C75.9518 209.295 74.1205 208.537 72.2109 208.537C70.3014 208.537 68.47 209.295 67.1198 210.646C65.7695 211.996 65.0109 213.827 65.0109 215.737C65.0109 217.646 65.7695 219.478 67.1198 220.828C68.47 222.178 70.3014 222.937 72.2109 222.937ZM73.1109 215.737H76.7109V217.537H71.3109V211.237H73.1109V215.737Z" fill="#FEFEFE"/>
<rect x="17.2109" y="240.737" width="30" height="30" rx="3" stroke="#FEFEFE" stroke-width="2"/>
<path d="M32.2109 264.737C27.2402 264.737 23.2109 260.708 23.2109 255.737C23.2109 250.766 27.2402 246.737 32.2109 246.737C37.1816 246.737 41.2109 250.766 41.2109 255.737C41.2109 260.708 37.1816 264.737 32.2109 264.737ZM32.2109 262.937C34.1205 262.937 35.9518 262.178 37.3021 260.828C38.6524 259.478 39.4109 257.646 39.4109 255.737C39.4109 253.827 38.6524 251.996 37.3021 250.646C35.9518 249.295 34.1205 248.537 32.2109 248.537C30.3014 248.537 28.47 249.295 27.1198 250.646C25.7695 251.996 25.0109 253.827 25.0109 255.737C25.0109 257.646 25.7695 259.478 27.1198 260.828C28.47 262.178 30.3014 262.937 32.2109 262.937ZM33.1109 255.737H36.7109V257.537H31.3109V251.237H33.1109V255.737Z" fill="#FEFEFE"/>
<rect x="57.2109" y="240.737" width="30" height="30" rx="3" stroke="#FEFEFE" stroke-width="2"/>
<path d="M72.2109 264.737C67.2402 264.737 63.2109 260.708 63.2109 255.737C63.2109 250.766 67.2402 246.737 72.2109 246.737C77.1816 246.737 81.2109 250.766 81.2109 255.737C81.2109 260.708 77.1816 264.737 72.2109 264.737ZM72.2109 262.937C74.1205 262.937 75.9518 262.178 77.3021 260.828C78.6524 259.478 79.4109 257.646 79.4109 255.737C79.4109 253.827 78.6524 251.996 77.3021 250.646C75.9518 249.295 74.1205 248.537 72.2109 248.537C70.3014 248.537 68.47 249.295 67.1198 250.646C65.7695 251.996 65.0109 253.827 65.0109 255.737C65.0109 257.646 65.7695 259.478 67.1198 260.828C68.47 262.178 70.3014 262.937 72.2109 262.937ZM73.1109 255.737H76.7109V257.537H71.3109V251.237H73.1109V255.737Z" fill="#FEFEFE"/>
<path d="M40.846 287.917C38.65 287.917 36.622 286.321 36.622 283.477C36.622 280.633 38.734 279.049 40.846 279.049C42.79 279.049 44.158 280.105 44.59 281.749L43.498 282.133C43.174 280.849 42.238 280.129 40.846 280.129C39.298 280.129 37.822 281.257 37.822 283.477C37.822 285.697 39.298 286.837 40.846 286.837C42.298 286.837 43.21 285.961 43.558 284.797L44.602 285.181C44.146 286.777 42.802 287.917 40.846 287.917ZM49.1266 281.905V283.105C48.9586 283.081 48.7906 283.069 48.6346 283.069C47.6866 283.069 47.0506 283.573 47.0506 284.845V287.737H45.9226V281.965H47.0266V282.973C47.4466 282.085 48.1666 281.869 48.7546 281.869C48.9106 281.869 49.0666 281.893 49.1266 281.905ZM52.7445 286.909C53.7045 286.909 54.5445 286.189 54.5445 284.845C54.5445 283.513 53.7045 282.793 52.7445 282.793C51.7845 282.793 50.9445 283.513 50.9445 284.845C50.9445 286.189 51.7845 286.909 52.7445 286.909ZM52.7445 281.785C54.4725 281.785 55.6965 283.093 55.6965 284.845C55.6965 286.609 54.4725 287.917 52.7445 287.917C51.0165 287.917 49.7925 286.609 49.7925 284.845C49.7925 283.093 51.0165 281.785 52.7445 281.785ZM58.2654 284.401V287.737H57.1374V281.965H58.2414V282.793C58.6614 282.073 59.3454 281.797 60.0174 281.797C61.3974 281.797 62.0814 282.793 62.0814 284.077V287.737H60.9534V284.269C60.9534 283.465 60.6174 282.817 59.6094 282.817C58.7214 282.817 58.2654 283.525 58.2654 284.401ZM63.3845 286.237L64.4045 285.877C64.4765 286.477 64.9325 286.957 65.7485 286.957C66.3845 286.957 66.7325 286.597 66.7325 286.189C66.7325 285.829 66.4685 285.553 65.9885 285.445L65.0045 285.229C64.1045 285.037 63.5645 284.425 63.5645 283.609C63.5645 282.625 64.4885 281.785 65.6165 281.785C67.2005 281.785 67.6925 282.817 67.8125 283.333L66.8165 283.705C66.7685 283.405 66.5285 282.745 65.6165 282.745C65.0405 282.745 64.6565 283.117 64.6565 283.513C64.6565 283.861 64.8725 284.113 65.3165 284.209L66.2525 284.413C67.2965 284.641 67.8485 285.277 67.8485 286.129C67.8485 286.945 67.1645 287.917 65.7365 287.917C64.1525 287.917 63.4805 286.897 63.3845 286.237Z" fill="#FEFEFE"/>
<path d="M260.48 225.343C276.497 225.343 289.48 221.985 289.48 217.843C289.48 213.701 276.497 210.343 260.48 210.343C244.464 210.343 231.48 213.701 231.48 217.843C231.48 221.985 244.464 225.343 260.48 225.343Z" stroke="#FEFEFE" stroke-width="2" stroke-linecap="round" stroke-linejoin="round"/>
<path d="M231.48 217.343V252.755C231.48 254.767 234.536 256.698 239.974 258.121C245.413 259.544 252.789 260.343 260.48 260.343C268.172 260.343 275.548 259.544 280.987 258.121C286.425 256.698 289.48 254.767 289.48 252.755V217.343" stroke="#FEFEFE" stroke-width="2" stroke-linecap="round" stroke-linejoin="round"/>
<path d="M231.48 234.343C231.48 236.73 234.536 239.019 239.974 240.707C245.413 242.395 252.789 243.343 260.48 243.343C268.172 243.343 275.548 242.395 280.987 240.707C286.425 239.019 289.48 236.73 289.48 234.343" stroke="#FEFEFE" stroke-width="2" stroke-linecap="round" stroke-linejoin="round"/>
<path d="M235.769 273.811V273.259L236.945 272.995V273.799C236.945 274.927 237.557 275.431 238.409 275.431C239.273 275.431 239.801 274.867 239.801 273.883V267.835H240.977V273.799C240.977 275.287 240.005 276.523 238.421 276.523C236.753 276.523 235.769 275.443 235.769 273.811ZM245.382 275.515C246.342 275.515 247.182 274.795 247.182 273.451C247.182 272.119 246.342 271.399 245.382 271.399C244.422 271.399 243.582 272.119 243.582 273.451C243.582 274.795 244.422 275.515 245.382 275.515ZM245.382 270.391C247.11 270.391 248.334 271.699 248.334 273.451C248.334 275.215 247.11 276.523 245.382 276.523C243.654 276.523 242.43 275.215 242.43 273.451C242.43 271.699 243.654 270.391 245.382 270.391ZM250.891 276.343H249.775V267.655H250.891V271.387C251.167 270.871 251.839 270.403 252.799 270.403C254.551 270.403 255.451 271.747 255.451 273.427C255.451 275.143 254.479 276.499 252.763 276.499C251.911 276.499 251.251 276.127 250.891 275.503V276.343ZM254.299 273.427C254.299 272.179 253.639 271.399 252.595 271.399C251.599 271.399 250.879 272.179 250.879 273.427C250.879 274.675 251.599 275.491 252.595 275.491C253.627 275.491 254.299 274.675 254.299 273.427ZM259.467 274.843L260.487 274.483C260.559 275.083 261.015 275.563 261.831 275.563C262.467 275.563 262.815 275.203 262.815 274.795C262.815 274.435 262.551 274.159 262.071 274.051L261.087 273.835C260.187 273.643 259.647 273.031 259.647 272.215C259.647 271.231 260.571 270.391 261.699 270.391C263.283 270.391 263.775 271.423 263.895 271.939L262.899 272.311C262.851 272.011 262.611 271.351 261.699 271.351C261.123 271.351 260.739 271.723 260.739 272.119C260.739 272.467 260.955 272.719 261.399 272.815L262.335 273.019C263.379 273.247 263.931 273.883 263.931 274.735C263.931 275.551 263.247 276.523 261.819 276.523C260.235 276.523 259.563 275.503 259.467 274.843ZM266.956 268.747V270.571H268.204V271.591H266.956V274.591C266.956 275.119 267.172 275.383 267.76 275.383C267.904 275.383 268.108 275.359 268.204 275.335V276.295C268.108 276.331 267.82 276.403 267.436 276.403C266.452 276.403 265.828 275.803 265.828 274.759V271.591H264.724V270.571H265.036C265.66 270.571 265.924 270.187 265.924 269.683V268.747H266.956ZM269.16 274.795C269.16 273.763 269.916 273.187 270.912 273.043L272.472 272.815C272.82 272.767 272.916 272.587 272.916 272.383C272.916 271.819 272.544 271.351 271.668 271.351C270.876 271.351 270.432 271.843 270.36 272.515L269.28 272.263C269.4 271.159 270.396 270.391 271.644 270.391C273.372 270.391 274.044 271.375 274.044 272.503V275.395C274.044 275.899 274.092 276.199 274.116 276.343H273.012C272.988 276.199 272.952 275.983 272.952 275.563C272.7 275.971 272.124 276.523 271.092 276.523C269.916 276.523 269.16 275.707 269.16 274.795ZM271.248 275.575C272.172 275.575 272.916 275.131 272.916 273.871V273.607L271.152 273.871C270.672 273.943 270.312 274.219 270.312 274.735C270.312 275.167 270.672 275.575 271.248 275.575ZM277.351 268.747V270.571H278.599V271.591H277.351V274.591C277.351 275.119 277.567 275.383 278.155 275.383C278.299 275.383 278.503 275.359 278.599 275.335V276.295C278.503 276.331 278.215 276.403 277.831 276.403C276.847 276.403 276.223 275.803 276.223 274.759V271.591H275.119V270.571H275.431C276.055 270.571 276.319 270.187 276.319 269.683V268.747H277.351ZM280.708 272.863H283.864C283.84 272.035 283.3 271.387 282.28 271.387C281.332 271.387 280.756 272.119 280.708 272.863ZM284.032 274.363L285.004 274.699C284.68 275.719 283.756 276.523 282.412 276.523C280.864 276.523 279.508 275.395 279.508 273.439C279.508 271.627 280.816 270.391 282.268 270.391C284.044 270.391 285.04 271.615 285.04 273.415C285.04 273.559 285.028 273.703 285.016 273.775H280.672C280.696 274.807 281.44 275.527 282.412 275.527C283.348 275.527 283.816 275.011 284.032 274.363Z" fill="#FEFEFE"/>
<rect x="435.039" y="209.415" width="66.4592" height="47" rx="3" stroke="#FEFEFE" stroke-width="2"/>
<path d="M443.039 247.415L457.849 232.765C459.408 231.223 461.917 231.223 463.475 232.765L467.685 236.929C469.244 238.471 471.753 238.471 473.311 236.929L493.039 217.415" stroke="#FEFEFE" stroke-width="2" stroke-linecap="round"/>
<path d="M433.969 274.155C433.969 276.375 435.457 277.515 437.041 277.515C438.625 277.515 440.113 276.375 440.113 274.155C440.113 271.935 438.625 270.807 437.041 270.807C435.457 270.807 433.969 271.935 433.969 274.155ZM432.769 274.155C432.769 271.311 434.905 269.727 437.041 269.727C439.177 269.727 441.313 271.311 441.313 274.155C441.313 276.999 439.177 278.595 437.041 278.595C434.905 278.595 432.769 276.999 432.769 274.155ZM443.854 278.415H442.738V269.727H443.854V273.459C444.13 272.943 444.802 272.475 445.762 272.475C447.514 272.475 448.414 273.819 448.414 275.499C448.414 277.215 447.442 278.571 445.726 278.571C444.874 278.571 444.214 278.199 443.854 277.575V278.415ZM447.262 275.499C447.262 274.251 446.602 273.471 445.558 273.471C444.562 273.471 443.842 274.251 443.842 275.499C443.842 276.747 444.562 277.563 445.558 277.563C446.59 277.563 447.262 276.747 447.262 275.499ZM449.407 276.915L450.427 276.555C450.499 277.155 450.955 277.635 451.771 277.635C452.407 277.635 452.755 277.275 452.755 276.867C452.755 276.507 452.491 276.231 452.011 276.123L451.027 275.907C450.127 275.715 449.587 275.103 449.587 274.287C449.587 273.303 450.511 272.463 451.639 272.463C453.223 272.463 453.715 273.495 453.835 274.011L452.839 274.383C452.791 274.083 452.551 273.423 451.639 273.423C451.063 273.423 450.679 273.795 450.679 274.191C450.679 274.539 450.895 274.791 451.339 274.887L452.275 275.091C453.319 275.319 453.871 275.955 453.871 276.807C453.871 277.623 453.187 278.595 451.759 278.595C450.175 278.595 449.503 277.575 449.407 276.915ZM456.14 274.935H459.296C459.272 274.107 458.732 273.459 457.712 273.459C456.764 273.459 456.188 274.191 456.14 274.935ZM459.464 276.435L460.436 276.771C460.112 277.791 459.188 278.595 457.844 278.595C456.296 278.595 454.94 277.467 454.94 275.511C454.94 273.699 456.248 272.463 457.7 272.463C459.476 272.463 460.472 273.687 460.472 275.487C460.472 275.631 460.46 275.775 460.448 275.847H456.104C456.128 276.879 456.872 277.599 457.844 277.599C458.78 277.599 459.248 277.083 459.464 276.435ZM465.091 272.583V273.783C464.923 273.759 464.755 273.747 464.599 273.747C463.651 273.747 463.015 274.251 463.015 275.523V278.415H461.887V272.643H462.991V273.651C463.411 272.763 464.131 272.547 464.719 272.547C464.875 272.547 465.031 272.571 465.091 272.583ZM471.382 272.643L469.078 278.415H467.938L465.598 272.643H466.87L468.514 277.095L470.17 272.643H471.382ZM472.014 276.867C472.014 275.835 472.77 275.259 473.766 275.115L475.326 274.887C475.674 274.839 475.77 274.659 475.77 274.455C475.77 273.891 475.398 273.423 474.522 273.423C473.73 273.423 473.286 273.915 473.214 274.587L472.134 274.335C472.254 273.231 473.25 272.463 474.498 272.463C476.226 272.463 476.898 273.447 476.898 274.575V277.467C476.898 277.971 476.946 278.271 476.97 278.415H475.866C475.842 278.271 475.806 278.055 475.806 277.635C475.554 278.043 474.978 278.595 473.946 278.595C472.77 278.595 472.014 277.779 472.014 276.867ZM474.102 277.647C475.026 277.647 475.77 277.203 475.77 275.943V275.679L474.006 275.943C473.526 276.015 473.166 276.291 473.166 276.807C473.166 277.239 473.526 277.647 474.102 277.647ZM479.796 278.415H478.68V269.727H479.796V273.459C480.072 272.943 480.744 272.475 481.704 272.475C483.456 272.475 484.356 273.819 484.356 275.499C484.356 277.215 483.384 278.571 481.668 278.571C480.816 278.571 480.156 278.199 479.796 277.575V278.415ZM483.204 275.499C483.204 274.251 482.544 273.471 481.5 273.471C480.504 273.471 479.784 274.251 479.784 275.499C479.784 276.747 480.504 277.563 481.5 277.563C482.532 277.563 483.204 276.747 483.204 275.499ZM486.921 278.415H485.805V272.643H486.921V278.415ZM485.553 270.459C485.553 270.003 485.913 269.643 486.357 269.643C486.813 269.643 487.173 270.003 487.173 270.459C487.173 270.903 486.813 271.263 486.357 271.263C485.913 271.263 485.553 270.903 485.553 270.459ZM489.874 278.415H488.746V269.727H489.874V278.415ZM492.815 278.415H491.699V272.643H492.815V278.415ZM491.447 270.459C491.447 270.003 491.807 269.643 492.251 269.643C492.707 269.643 493.067 270.003 493.067 270.459C493.067 270.903 492.707 271.263 492.251 271.263C491.807 271.263 491.447 270.903 491.447 270.459ZM496.213 270.819V272.643H497.461V273.663H496.213V276.663C496.213 277.191 496.429 277.455 497.017 277.455C497.161 277.455 497.365 277.431 497.461 277.407V278.367C497.365 278.403 497.077 278.475 496.693 278.475C495.709 278.475 495.085 277.875 495.085 276.831V273.663H493.981V272.643H494.293C494.917 272.643 495.181 272.259 495.181 271.755V270.819H496.213ZM500.409 280.827H499.173L500.613 277.779L498.129 272.643H499.425L501.225 276.627L502.953 272.643H504.165L500.409 280.827Z" fill="#FEFEFE"/>
<path d="M113.176 11.8566C113.175 11.2603 113.021 10.6746 112.728 10.1583C112.436 9.64195 112.015 9.2132 111.509 8.91502L99.8424 2.11363C99.3357 1.81515 98.7609 1.65802 98.1758 1.65802C97.5907 1.65802 97.0158 1.81515 96.5091 2.11363L84.8424 8.91502C84.3362 9.2132 83.9157 9.64195 83.6232 10.1583C83.3307 10.6746 83.1764 11.2603 83.1758 11.8566V25.4594C83.1764 26.0558 83.3307 26.6415 83.6232 27.1578C83.9157 27.6741 84.3362 28.1028 84.8424 28.401L96.5091 35.2024C97.0158 35.5009 97.5907 35.658 98.1758 35.658C98.7609 35.658 99.3357 35.5009 99.8424 35.2024L111.509 28.401C112.015 28.1028 112.436 27.6741 112.728 27.1578C113.021 26.6415 113.175 26.0558 113.176 25.4594V11.8566Z" stroke="white" stroke-width="2" stroke-linecap="round" stroke-linejoin="round"/>
<path d="M93.8397 51.658L92.9157 49.282H89.1477L88.2477 51.658H86.9877L90.3717 43.15H91.7277L95.1117 51.658H93.8397ZM91.0197 44.374L89.5677 48.19H92.4957L91.0197 44.374ZM97.3429 53.938H96.2269V45.886H97.3189V46.786C97.6309 46.21 98.3149 45.754 99.2509 45.754C100.979 45.754 101.903 47.086 101.903 48.766C101.903 50.482 100.907 51.814 99.2149 51.814C98.3269 51.814 97.6549 51.394 97.3429 50.878V53.938ZM100.751 48.766C100.751 47.614 100.103 46.75 99.0469 46.75C98.0149 46.75 97.3309 47.614 97.3309 48.766C97.3309 49.954 98.0149 50.806 99.0469 50.806C100.091 50.806 100.751 49.954 100.751 48.766ZM104.468 53.938H103.352V45.886H104.444V46.786C104.756 46.21 105.44 45.754 106.376 45.754C108.104 45.754 109.028 47.086 109.028 48.766C109.028 50.482 108.032 51.814 106.34 51.814C105.452 51.814 104.78 51.394 104.468 50.878V53.938ZM107.876 48.766C107.876 47.614 107.228 46.75 106.172 46.75C105.14 46.75 104.456 47.614 104.456 48.766C104.456 49.954 105.14 50.806 106.172 50.806C107.216 50.806 107.876 49.954 107.876 48.766Z" fill="white"/>
<path d="M83.7109 9.46777L97.692 16.4101L111.673 9.46777" stroke="white" stroke-width="2" stroke-linecap="round" stroke-linejoin="round"/>
<path d="M98.1719 31.1634V16.4109" stroke="white" stroke-width="2" stroke-linecap="round" stroke-linejoin="round"/>
<path d="M98.6914 57.9976C98.6914 57.4453 98.2437 56.9976 97.6914 56.9976C97.1391 56.9976 96.6914 57.4453 96.6914 57.9976L98.6914 57.9976ZM96.9843 78.9532C97.3748 79.3437 98.008 79.3437 98.3985 78.9532L104.762 72.5892C105.153 72.1987 105.153 71.5655 104.762 71.175C104.372 70.7845 103.739 70.7845 103.348 71.175L97.6914 76.8319L92.0346 71.175C91.644 70.7845 91.0109 70.7845 90.6203 71.175C90.2298 71.5655 90.2298 72.1987 90.6203 72.5892L96.9843 78.9532ZM96.6914 57.9976L96.6914 78.2461L98.6914 78.2461L98.6914 57.9976L96.6914 57.9976Z" fill="#292929"/>
<path d="M180.121 81.7543C180.121 82.3066 180.569 82.7543 181.121 82.7543C181.673 82.7543 182.121 82.3066 182.121 81.7543H180.121ZM467.561 197.551C467.951 197.942 468.584 197.942 468.975 197.551L475.339 191.187C475.729 190.797 475.729 190.164 475.339 189.773C474.948 189.383 474.315 189.383 473.925 189.773L468.268 195.43L462.611 189.773C462.22 189.383 461.587 189.383 461.197 189.773C460.806 190.164 460.806 190.797 461.197 191.187L467.561 197.551ZM199.835 64.0405H448.268V62.0405H199.835V64.0405ZM467.268 83.0405V196.844H469.268V83.0405H467.268ZM448.268 64.0405C458.761 64.0405 467.268 72.5471 467.268 83.0405H469.268C469.268 71.4425 459.866 62.0405 448.268 62.0405V64.0405ZM182.121 81.7543C182.121 71.9713 190.052 64.0405 199.835 64.0405V62.0405C188.947 62.0405 180.121 70.8667 180.121 81.7543H182.121Z" fill="#292929"/>
<path d="M241.199 117.743C240.647 117.743 240.199 118.191 240.199 118.743C240.199 119.295 240.647 119.743 241.199 119.743V117.743ZM316.151 119.45C316.541 119.059 316.541 118.426 316.151 118.036L309.787 111.672C309.396 111.281 308.763 111.281 308.373 111.672C307.982 112.062 307.982 112.695 308.373 113.086L314.03 118.743L308.373 124.4C307.982 124.79 307.982 125.423 308.373 125.814C308.763 126.204 309.396 126.204 309.787 125.814L316.151 119.45ZM241.199 119.743H315.444V117.743H241.199V119.743Z" fill="#292929"/>
<path d="M390.203 148.375C390.203 147.823 389.755 147.375 389.203 147.375C388.651 147.375 388.203 147.823 388.203 148.375H390.203ZM467.562 197.021C467.952 197.412 468.585 197.412 468.976 197.021L475.34 190.657C475.73 190.267 475.73 189.634 475.34 189.243C474.949 188.853 474.316 188.853 473.926 189.243L468.269 194.9L462.612 189.243C462.221 188.853 461.588 188.853 461.198 189.243C460.807 189.634 460.807 190.267 461.198 190.657L467.562 197.021ZM388.203 148.375V152.345H390.203V148.375H388.203ZM409.203 173.345H448.269V171.345H409.203V173.345ZM467.269 192.345V196.314H469.269V192.345H467.269ZM448.269 173.345C458.762 173.345 467.269 181.851 467.269 192.345H469.269C469.269 180.747 459.867 171.345 448.269 171.345V173.345ZM388.203 152.345C388.203 163.943 397.605 173.345 409.203 173.345V171.345C398.71 171.345 390.203 162.838 390.203 152.345H388.203Z" fill="#292929"/>
<path d="M300.016 243.091C299.463 243.091 299.016 243.538 299.016 244.091C299.016 244.643 299.463 245.091 300.016 245.091V243.091ZM423.178 244.798C423.569 244.407 423.569 243.774 423.178 243.384L416.814 237.02C416.424 236.629 415.79 236.629 415.4 237.02C415.009 237.41 415.009 238.043 415.4 238.434L421.057 244.091L415.4 249.748C415.009 250.138 415.009 250.771 415.4 251.162C415.79 251.552 416.424 251.552 416.814 251.162L423.178 244.798ZM300.016 245.091H422.471V243.091H300.016V245.091Z" fill="#292929"/>
<path d="M390.207 148.375C390.207 147.823 389.759 147.375 389.207 147.375C388.655 147.375 388.207 147.823 388.207 148.375H390.207ZM259.777 199.48C260.168 199.87 260.801 199.87 261.191 199.48L267.555 193.116C267.946 192.725 267.946 192.092 267.555 191.702C267.165 191.311 266.532 191.311 266.141 191.702L260.484 197.358L254.828 191.702C254.437 191.311 253.804 191.311 253.413 191.702C253.023 192.092 253.023 192.725 253.413 193.116L259.777 199.48ZM388.207 148.375V153.574H390.207V148.375H388.207ZM369.207 172.574H280.484V174.574H369.207V172.574ZM259.484 193.574V198.773H261.484V193.574H259.484ZM280.484 172.574C268.886 172.574 259.484 181.976 259.484 193.574H261.484C261.484 183.08 269.991 174.574 280.484 174.574V172.574ZM388.207 153.574C388.207 164.067 379.7 172.574 369.207 172.574V174.574C380.805 174.574 390.207 165.172 390.207 153.574H388.207Z" fill="#292929"/>
<path d="M220.951 245.091C221.504 245.091 221.951 244.643 221.951 244.091C221.951 243.538 221.504 243.091 220.951 243.091V245.091ZM97.789 243.384C97.3985 243.774 97.3985 244.407 97.789 244.798L104.153 251.162C104.543 251.552 105.177 251.552 105.567 251.162C105.958 250.771 105.958 250.138 105.567 249.748L99.9103 244.091L105.567 238.434C105.958 238.043 105.958 237.41 105.567 237.02C105.177 236.629 104.543 236.629 104.153 237.02L97.789 243.384ZM220.951 243.091H98.4961V245.091H220.951V243.091Z" fill="#292929"/>
<path d="M51.2109 194.785C51.2109 195.337 51.6587 195.785 52.2109 195.785C52.7632 195.785 53.2109 195.337 53.2109 194.785H51.2109ZM149.822 150.377C149.431 149.986 148.798 149.986 148.407 150.377L142.043 156.741C141.653 157.131 141.653 157.765 142.043 158.155C142.434 158.546 143.067 158.546 143.458 158.155L149.115 152.498L154.771 158.155C155.162 158.546 155.795 158.546 156.186 158.155C156.576 157.765 156.576 157.131 156.186 156.741L149.822 150.377ZM53.2109 194.785V192.934H51.2109V194.785H53.2109ZM72.2109 173.934H129.115V171.934H72.2109V173.934ZM150.115 152.934V151.084H148.115V152.934H150.115ZM129.115 173.934C140.712 173.934 150.115 164.532 150.115 152.934H148.115C148.115 163.428 139.608 171.934 129.115 171.934V173.934ZM53.2109 192.934C53.2109 182.441 61.7175 173.934 72.2109 173.934V171.934C60.613 171.934 51.2109 181.336 51.2109 192.934H53.2109Z" fill="#292929"/>
<path d="M310.625 378.081C310.073 378.081 309.625 378.529 309.625 379.081C309.625 379.633 310.073 380.081 310.625 380.081V378.081ZM366.274 148.062C365.884 147.672 365.251 147.672 364.86 148.062L358.496 154.426C358.106 154.817 358.106 155.45 358.496 155.84C358.887 156.231 359.52 156.231 359.91 155.84L365.567 150.183L371.224 155.84C371.615 156.231 372.248 156.231 372.638 155.84C373.029 155.45 373.029 154.817 372.638 154.426L366.274 148.062ZM310.625 380.081H345.567V378.081H310.625V380.081ZM366.567 359.081V148.769H364.567V359.081H366.567ZM345.567 380.081C357.165 380.081 366.567 370.679 366.567 359.081H364.567C364.567 369.574 356.061 378.081 345.567 378.081V380.081Z" fill="#292929"/>
<path d="M310.621 378.081C310.069 378.081 309.621 378.528 309.621 379.081C309.621 379.633 310.069 380.081 310.621 380.081V378.081ZM468.977 290.63C468.587 290.24 467.954 290.24 467.563 290.63L461.199 296.994C460.809 297.385 460.809 298.018 461.199 298.408C461.59 298.799 462.223 298.799 462.613 298.408L468.27 292.751L473.927 298.408C474.318 298.799 474.951 298.799 475.341 298.408C475.732 298.018 475.732 297.385 475.341 296.994L468.977 290.63ZM310.621 380.081H448.27V378.081H310.621V380.081ZM469.27 359.081V291.337H467.27V359.081H469.27ZM448.27 380.081C459.868 380.081 469.27 370.679 469.27 359.081H467.27C467.27 369.574 458.764 378.081 448.27 378.081V380.081Z" fill="#292929"/>
<path d="M210.342 380.081C210.894 380.081 211.342 379.633 211.342 379.081C211.342 378.528 210.894 378.081 210.342 378.081V380.081ZM52.918 294.381C52.5275 293.991 51.8944 293.991 51.5038 294.381L45.1399 300.745C44.7493 301.136 44.7493 301.769 45.1399 302.159C45.5304 302.55 46.1636 302.55 46.5541 302.159L52.2109 296.502L57.8678 302.159C58.2583 302.55 58.8915 302.55 59.282 302.159C59.6725 301.769 59.6725 301.136 59.282 300.745L52.918 294.381ZM210.342 378.081H72.2109V380.081H210.342V378.081ZM53.2109 359.081V295.088H51.2109V359.081H53.2109ZM72.2109 378.081C61.7175 378.081 53.2109 369.574 53.2109 359.081H51.2109C51.2109 370.679 60.6129 380.081 72.2109 380.081V378.081Z" fill="#292929"/>
<path d="M70.8008 300.015C70.8008 299.463 70.3531 299.015 69.8008 299.015C69.2485 299.015 68.8008 299.463 68.8008 300.015H70.8008ZM468.979 290.63C468.589 290.24 467.955 290.24 467.565 290.63L461.201 296.994C460.81 297.385 460.81 298.018 461.201 298.408C461.591 298.799 462.225 298.799 462.615 298.408L468.272 292.751L473.929 298.408C474.319 298.799 474.952 298.799 475.343 298.408C475.734 298.018 475.734 297.385 475.343 296.994L468.979 290.63ZM89.0851 320.299H448.272V318.299H89.0851V320.299ZM469.272 299.299V291.337H467.272V299.299H469.272ZM448.272 320.299C459.87 320.299 469.272 310.897 469.272 299.299H467.272C467.272 309.793 458.765 318.299 448.272 318.299V320.299ZM68.8008 300.015C68.8008 311.218 77.8824 320.299 89.0851 320.299V318.299C78.9869 318.299 70.8008 310.113 70.8008 300.015H68.8008Z" fill="#292929"/>
<path d="M388.203 78.2461C388.203 78.7984 388.651 79.2461 389.203 79.2461C389.756 79.2461 390.203 78.7984 390.203 78.2461H388.203ZM144.949 78.9532C145.34 79.3437 145.973 79.3437 146.363 78.9532L152.727 72.5892C153.118 72.1987 153.118 71.5656 152.727 71.175C152.337 70.7845 151.704 70.7845 151.313 71.175L145.656 76.8319L139.999 71.175C139.609 70.7845 138.976 70.7845 138.585 71.175C138.195 71.5656 138.195 72.1987 138.585 72.5892L144.949 78.9532ZM390.203 78.2461V53.8351H388.203V78.2461H390.203ZM369.203 32.8351H165.656V34.8351H369.203V32.8351ZM144.656 53.8351V78.2461H146.656V53.8351H144.656ZM165.656 32.8351C154.058 32.8351 144.656 42.2372 144.656 53.8351H146.656C146.656 43.3417 155.163 34.8351 165.656 34.8351V32.8351ZM390.203 53.8351C390.203 42.2371 380.801 32.8351 369.203 32.8351V34.8351C379.697 34.8351 388.203 43.3417 388.203 53.8351H390.203Z" fill="#292929"/>
<path d="M210.345 380.081C210.897 380.081 211.345 379.633 211.345 379.081C211.345 378.529 210.897 378.081 210.345 378.081V380.081ZM149.824 151.071C149.434 150.68 148.801 150.68 148.41 151.071L142.046 157.435C141.656 157.825 141.656 158.458 142.046 158.849C142.437 159.239 143.07 159.239 143.46 158.849L149.117 153.192L154.774 158.849C155.165 159.239 155.798 159.239 156.188 158.849C156.579 158.458 156.579 157.825 156.188 157.435L149.824 151.071ZM210.345 378.081H169.117V380.081H210.345V378.081ZM150.117 359.081V151.778H148.117V359.081H150.117ZM169.117 378.081C158.624 378.081 150.117 369.574 150.117 359.081H148.117C148.117 370.679 157.519 380.081 169.117 380.081V378.081Z" fill="#292929"/>
<rect width="184.165" height="11.5706" transform="translate(174.184 26.1782)" fill="#050505"/>
<path d="M176.31 37.7865L174.366 34.3065H173.094V37.7865H171.906V29.2785H175.11C176.718 29.2785 177.714 30.4065 177.714 31.8105C177.714 33.0345 176.934 33.9825 175.65 34.2225L177.678 37.7865H176.31ZM173.094 33.2505H174.894C175.854 33.2505 176.502 32.6865 176.502 31.8105C176.502 30.9105 175.854 30.3345 174.894 30.3345H173.094V33.2505ZM184.625 37.7865H179.453V29.2785H184.625V30.3705H180.629V32.9865H184.253V34.0905H180.629V36.6945H184.625V37.7865ZM192.353 30.3705H189.509V37.7865H188.333V30.3705H185.489V29.2785H192.353V30.3705ZM198.118 37.7865L196.174 34.3065H194.902V37.7865H193.714V29.2785H196.918C198.526 29.2785 199.522 30.4065 199.522 31.8105C199.522 33.0345 198.742 33.9825 197.458 34.2225L199.486 37.7865H198.118ZM194.902 33.2505H196.702C197.662 33.2505 198.31 32.6865 198.31 31.8105C198.31 30.9105 197.662 30.3345 196.702 30.3345H194.902V33.2505ZM202.461 37.7865H201.261V29.2785H202.461V37.7865ZM209.914 37.7865H204.742V29.2785H209.914V30.3705H205.918V32.9865H209.542V34.0905H205.918V36.6945H209.914V37.7865ZM217.043 31.2105L215.987 31.5825C215.891 30.9705 215.375 30.1305 214.187 30.1305C213.227 30.1305 212.543 30.7545 212.543 31.5465C212.543 32.1585 212.915 32.6265 213.635 32.7825L214.907 33.0585C216.323 33.3705 217.115 34.2585 217.115 35.4465C217.115 36.7665 215.987 37.9665 214.175 37.9665C212.123 37.9665 211.151 36.6465 210.995 35.4345L212.123 35.0745C212.207 36.0225 212.879 36.8985 214.163 36.8985C215.339 36.8985 215.915 36.2865 215.915 35.5425C215.915 34.9305 215.495 34.4025 214.643 34.2225L213.431 33.9585C212.219 33.6945 211.354 32.9025 211.354 31.6305C211.354 30.2985 212.591 29.0985 214.163 29.0985C216.083 29.0985 216.851 30.2865 217.043 31.2105ZM227.239 37.7865L226.159 36.6585C225.463 37.4385 224.719 37.9305 223.771 37.9305C222.163 37.9305 221.311 36.8505 221.311 35.7585C221.311 34.6545 221.911 34.0545 222.811 33.3825L222.931 33.2865L222.775 33.1185C222.379 32.6985 221.755 32.0505 221.755 31.2225C221.755 29.8425 222.895 29.0985 223.951 29.0985C225.235 29.0985 226.207 29.9025 226.207 31.1745C226.207 32.0145 225.607 32.6145 225.007 33.0585L224.575 33.3825L226.159 35.0265L228.055 32.9145V34.4625L226.903 35.7945L228.835 37.7865H227.239ZM223.783 36.8505C224.431 36.8505 224.899 36.4305 225.367 35.9145L225.403 35.8665L223.675 34.0545L223.243 34.3785C222.835 34.6905 222.523 35.0745 222.523 35.6625C222.523 36.2385 223.003 36.8505 223.783 36.8505ZM222.919 31.1505C222.919 31.6305 223.291 32.0505 223.567 32.3385L223.831 32.6265L224.407 32.1945C224.911 31.8225 225.043 31.4985 225.043 31.1385C225.043 30.5745 224.587 30.1065 223.963 30.1065C223.471 30.1065 222.919 30.4785 222.919 31.1505ZM234.324 36.7425H236.064C237.636 36.7425 238.956 35.6865 238.956 33.5505C238.956 31.4025 237.66 30.3225 236.088 30.3225H234.324V36.7425ZM236.1 37.7865H233.148V29.2785H236.124C238.284 29.2785 240.168 30.7545 240.168 33.5505C240.168 36.3345 238.26 37.7865 236.1 37.7865ZM247.085 37.7865H241.913V29.2785H247.085V30.3705H243.089V32.9865H246.713V34.0905H243.089V36.6945H247.085V37.7865ZM254.79 37.7865L253.866 35.4105H250.098L249.198 37.7865H247.938L251.322 29.2785H252.678L256.062 37.7865H254.79ZM251.97 30.5025L250.518 34.3185H253.446L251.97 30.5025ZM258.582 36.7425H260.322C261.894 36.7425 263.214 35.6865 263.214 33.5505C263.214 31.4025 261.918 30.3225 260.346 30.3225H258.582V36.7425ZM260.358 37.7865H257.406V29.2785H260.382C262.542 29.2785 264.426 30.7545 264.426 33.5505C264.426 36.3345 262.518 37.7865 260.358 37.7865ZM274.391 37.7865H269.195V29.2785H270.371V36.6825H274.391V37.7865ZM280.929 37.7865H275.757V29.2785H280.929V30.3705H276.933V32.9865H280.557V34.0905H276.933V36.6945H280.929V37.7865ZM288.658 30.3705H285.814V37.7865H284.638V30.3705H281.794V29.2785H288.658V30.3705ZM295.959 30.3705H293.115V37.7865H291.939V30.3705H289.095V29.2785H295.959V30.3705ZM302.492 37.7865H297.32V29.2785H302.492V30.3705H298.496V32.9865H302.12V34.0905H298.496V36.6945H302.492V37.7865ZM308.685 37.7865L306.741 34.3065H305.469V37.7865H304.281V29.2785H307.485C309.093 29.2785 310.089 30.4065 310.089 31.8105C310.089 33.0345 309.309 33.9825 308.025 34.2225L310.053 37.7865H308.685ZM305.469 33.2505H307.269C308.229 33.2505 308.877 32.6865 308.877 31.8105C308.877 30.9105 308.229 30.3345 307.269 30.3345H305.469V33.2505ZM314.287 33.5265C314.287 30.6825 316.423 29.0985 318.559 29.0985C320.695 29.0985 322.831 30.6825 322.831 33.5265C322.831 34.8705 322.351 35.9265 321.631 36.6705L322.627 37.7865L321.823 38.4945L320.791 37.3545C320.119 37.7625 319.339 37.9665 318.559 37.9665C316.423 37.9665 314.287 36.3705 314.287 33.5265ZM315.487 33.5265C315.487 35.7465 316.975 36.8865 318.559 36.8865C319.087 36.8865 319.591 36.7665 320.047 36.5145L318.571 34.8585L319.387 34.1505L320.875 35.8305C321.331 35.2785 321.631 34.5105 321.631 33.5265C321.631 31.3065 320.143 30.1785 318.559 30.1785C316.975 30.1785 315.487 31.3065 315.487 33.5265ZM327.518 37.9665C325.79 37.9665 324.458 36.8865 324.458 34.8825V29.2785H325.622V34.8465C325.622 36.1425 326.33 36.8745 327.518 36.8745C328.718 36.8745 329.402 36.1425 329.402 34.8465V29.2785H330.578V34.8825C330.578 36.8865 329.246 37.9665 327.518 37.9665ZM337.941 37.7865H332.769V29.2785H337.941V30.3705H333.945V32.9865H337.569V34.0905H333.945V36.6945H337.941V37.7865ZM342.706 37.9665C340.978 37.9665 339.646 36.8865 339.646 34.8825V29.2785H340.81V34.8465C340.81 36.1425 341.518 36.8745 342.706 36.8745C343.906 36.8745 344.59 36.1425 344.59 34.8465V29.2785H345.766V34.8825C345.766 36.8865 344.434 37.9665 342.706 37.9665ZM353.128 37.7865H347.956V29.2785H353.128V30.3705H349.132V32.9865H352.756V34.0905H349.132V36.6945H353.128V37.7865ZM360.257 31.2105L359.201 31.5825C359.105 30.9705 358.589 30.1305 357.401 30.1305C356.441 30.1305 355.757 30.7545 355.757 31.5465C355.757 32.1585 356.129 32.6265 356.849 32.7825L358.121 33.0585C359.537 33.3705 360.329 34.2585 360.329 35.4465C360.329 36.7665 359.201 37.9665 357.389 37.9665C355.337 37.9665 354.365 36.6465 354.209 35.4345L355.337 35.0745C355.421 36.0225 356.093 36.8985 357.377 36.8985C358.553 36.8985 359.129 36.2865 359.129 35.5425C359.129 34.9305 358.709 34.4025 357.857 34.2225L356.645 33.9585C355.433 33.6945 354.569 32.9025 354.569 31.6305C354.569 30.2985 355.805 29.0985 357.377 29.0985C359.297 29.0985 360.065 30.2865 360.257 31.2105Z" fill="white"/>
<defs>
<clipPath id="clip0_295_2242">
<path d="M84.0273 109.244C84.0273 107.035 85.8182 105.244 88.0273 105.244H225.624C227.833 105.244 229.624 107.035 229.624 109.244V124.385C229.624 126.594 227.833 128.385 225.624 128.385H88.0274C85.8182 128.385 84.0273 126.594 84.0273 124.385V109.244Z" fill="white"/>
</clipPath>
<clipPath id="clip1_295_2242">
<path d="M76.3164 101.53C76.3164 99.3209 78.1073 97.5301 80.3164 97.5301H217.913C220.122 97.5301 221.913 99.321 221.913 101.53V116.671C221.913 118.88 220.122 120.671 217.913 120.671H80.3164C78.1073 120.671 76.3164 118.88 76.3164 116.671V101.53Z" fill="white"/>
</clipPath>
<clipPath id="clip2_295_2242">
<path d="M68.6016 93.8163C68.6016 91.6072 70.3924 89.8163 72.6016 89.8163H210.198C212.407 89.8163 214.198 91.6072 214.198 93.8163V108.958C214.198 111.167 212.407 112.957 210.198 112.957H72.6016C70.3924 112.957 68.6016 111.167 68.6016 108.957V93.8163Z" fill="white"/>
</clipPath>
</defs>
</svg>
