<svg xmlns="http://www.w3.org/2000/svg" width="1440" height="355" fill="none"><g fill="white" clip-path="url(#a)"><path d="M682.263 100.409c0-75.526-60.111-95.119-128.527-95.119H412.742v198.662h117.863l80.209 145.678h80.564l-89.476-157.707c27.528-5.913 80.361-27.393 80.361-91.514zm-199.016 42.034v-77.21h66.665c29.533 0 62.351 6.081 62.351 36.861 0 30.78-20.857 40.349-62.351 40.349h-66.665z"/><path d="M412.742 349.613h70.505v-90.57c0-19.476-15.786-35.245-35.244-35.245-19.476 0-35.245 15.786-35.245 35.245v90.57h-.016zm733.748 0h70.5v-90.57c0-19.476-15.78-35.245-35.24-35.245-19.48 0-35.25 15.786-35.25 35.245v90.57h-.01zM1440 5.273h-70.51V86.73c0 19.476 15.79 35.245 35.25 35.245 19.47 0 35.24-15.786 35.24-35.245V5.273h.02z"/><path d="M1216.99 142.426V5.273h-70.5v198.073h223v146.267H1440v-207.17l-223.01-.017zM-.79 349.613h70.017l7.986-21.648c7.918-21.413-7.919-44.174-30.747-44.174-13.68 0-25.927 8.508-30.712 21.329L-.79 349.613zM167.463 0c-23.047 0-43.685 14.32-51.738 35.918l-84.59 228.027 202.1-.05 32.043 85.735h71.466L219.184 35.85C211.097 14.287 190.493 0 167.463 0zm-44.46 203.935 43.483-120.49 44.207 120.49h-87.69zm732.146-110.18c16.46-21.261 38.125-31.892 64.98-31.892 18.532 0 34.368 5.442 47.475 16.308s22.053 26.063 26.855 45.555l66.171-22.053c-10.54-32.296-27.98-57.314-52.27-75.054C984.064 8.879 954.649 0 920.112 0c-23.333 0-45.167 4.549-65.468 13.663-20.301 9.114-37.805 22.137-52.513 39.086-13.747 16.308-24.294 35.092-31.656 56.354a193.577 193.577 0 0 0-4.397 14.572c-5.728 22.07 11.203 43.534 33.998 43.534 16.443 0 30.662-11.457 34.199-27.512 3.926-17.757 10.867-33.071 20.84-45.96l.034.018zm112.472 182.96c-13.107 10.867-28.943 16.308-47.475 16.308-26.855 0-48.52-10.63-64.98-31.891-14.809-19.122-22.929-43.618-24.428-73.454h-71.011c.893 20.486 4.464 39.86 10.782 58.106 7.345 21.261 17.908 40.046 31.656 56.354 14.707 16.948 32.212 29.971 52.513 39.085 20.3 9.115 42.118 13.663 65.468 13.663 34.537 0 63.935-8.878 88.244-26.618 24.3-17.74 41.73-42.758 52.28-75.054l-66.177-22.053c-4.802 19.509-13.748 34.688-26.855 45.554h-.017z"/></g><defs><clipPath id="a"><path fill="#fff" d="M0 0h1440v355H0z"/></clipPath></defs></svg>