<svg width="640" height="127" viewBox="0 0 640 127" fill="none" xmlns="http://www.w3.org/2000/svg">
<path d="M6.66119 125.778H25.9746C30.941 112.574 43.6723 103.114 58.6107 103.114C73.5492 103.114 86.2802 112.574 91.2466 125.778H110.56H117.418L74.9682 7.6107C73.8252 4.49688 70.869 2.40784 67.5581 2.40784H49.8604C46.5495 2.40784 43.5541 4.49688 42.4505 7.6107L-3.05176e-05 125.778H6.66119ZM40.7948 82.5L58.6107 30.9446L73.7069 74.5775L76.4266 82.5L78.476 88.4516C72.3272 85.9684 65.6267 84.5889 58.6107 84.5889C51.5948 84.5889 44.9334 85.9684 38.7846 88.4516L40.8343 82.5392L40.7948 82.5Z" fill="white"/>
<path d="M276.737 118.88C267.08 113.48 259.433 105.952 253.797 96.3741C248.161 86.7962 245.323 75.9175 245.323 63.8169C245.323 51.7164 248.161 41.0349 253.797 31.4176C259.433 21.8396 267.08 14.3112 276.737 8.91126C286.394 3.51134 296.996 0.791687 308.505 0.791687C320.015 0.791687 330.775 3.51134 340.353 8.91126C349.931 14.3112 357.538 21.8396 363.135 31.4176C368.732 40.9955 371.531 51.7952 371.531 63.8169C371.531 75.8386 368.732 86.7962 363.135 96.3741C357.538 105.952 349.931 113.48 340.274 118.88C330.618 124.28 320.015 127 308.505 127C296.996 127 286.394 124.28 276.737 118.88ZM328.095 99.8821C333.732 96.5318 338.146 91.7231 341.339 85.4954C344.531 79.2678 346.108 72.0155 346.108 63.7777C346.108 55.5399 344.531 48.3267 341.339 42.1384C338.146 35.9502 333.732 31.2204 328.095 27.9095C322.459 24.5986 315.915 22.9826 308.505 22.9826C301.095 22.9826 294.513 24.638 288.837 27.9095C283.161 31.181 278.668 35.9502 275.515 42.1384C272.322 48.3267 270.746 55.5399 270.746 63.7777C270.746 72.0155 272.322 79.2678 275.515 85.4954C278.707 91.7231 283.122 96.5318 288.837 99.8821C294.552 103.232 301.095 104.927 308.505 104.927C315.915 104.927 322.459 103.232 328.095 99.8821Z" fill="white"/>
<path d="M393.877 31.3781C399.355 21.8001 406.805 14.3112 416.304 8.9507C425.764 3.5902 436.406 0.910034 448.152 0.910034C461.908 0.910034 473.969 4.45743 484.335 11.5128C494.701 18.5682 501.914 28.3432 506.053 40.8379H486.306C481.536 40.8379 476.964 38.7881 474.087 35.0042C471.762 31.9298 468.963 29.4861 465.731 27.5941C460.607 24.638 454.695 23.1796 447.994 23.1796C440.82 23.1796 434.435 24.8352 428.838 28.2249C423.241 31.5752 418.906 36.305 415.792 42.4538C412.678 48.6026 411.101 55.7369 411.101 63.9747C411.101 72.2126 412.678 79.2679 415.792 85.4167C418.906 91.5655 423.281 96.3742 428.838 99.7246C434.396 103.075 440.82 104.77 447.994 104.77C454.695 104.77 460.607 103.272 465.731 100.276C468.963 98.3843 471.762 95.9013 474.087 92.8269C476.964 89.043 481.576 86.9538 486.345 86.9538H506.092C501.954 99.5667 494.78 109.342 484.453 116.358C474.166 123.374 462.065 126.882 448.152 126.882C436.367 126.882 425.764 124.201 416.304 118.841C406.844 113.48 399.355 106.031 393.877 96.4925C388.398 86.9539 385.678 76.1147 385.678 64.0142C385.678 51.9136 388.398 41.0349 393.877 31.457V31.3781Z" fill="white"/>
<path d="M528.365 125.779H547.679C552.645 112.574 565.376 103.115 580.315 103.115C595.253 103.115 607.984 112.574 612.95 125.779H632.264H639.122L596.672 7.61119C595.529 4.49737 592.573 2.40833 589.262 2.40833H571.564C568.253 2.40833 565.258 4.49737 564.154 7.61119L521.704 125.779H528.365ZM562.499 82.5005L580.315 30.9451L595.411 74.578L598.13 82.5005L600.18 88.452C594.031 85.9689 587.331 84.5894 580.315 84.5894C573.299 84.5894 566.638 85.9689 560.489 88.452L562.538 82.5397L562.499 82.5005Z" fill="white"/>
<path d="M235.072 2.52576L191.794 120.575C190.651 123.689 187.695 125.738 184.384 125.738H165.386C162.075 125.738 159.119 123.689 157.976 120.575L114.697 2.52576H135.548C138.899 2.52576 141.894 4.65433 142.998 7.84699L175.042 100.512L206.93 7.84699C208.033 4.65433 211.029 2.52576 214.379 2.52576H235.072Z" fill="white"/>
</svg>
