<svg width="275" height="39" viewBox="0 0 275 39" fill="none" xmlns="http://www.w3.org/2000/svg">
<g clip-path="url(#clip0_143_453)">
<path d="M79.3491 20.3622C82.6464 20.9869 84.0612 23.0051 84.0612 26.9814V28.9636C84.0612 33.6366 81.9332 35.7509 77.1391 35.7509H54.5956C53.9525 35.7509 53.6719 35.4146 53.6719 34.8379V6.17483C53.6719 5.59821 53.9525 5.26184 54.5956 5.26184H76.6597C81.4537 5.26184 83.6286 7.41217 83.6286 12.0492V13.7911C83.6286 17.5992 82.2956 19.6174 79.3608 20.3262V20.3622H79.3491ZM60.5589 17.6353H73.6781C76.0985 17.6353 76.7767 16.9746 76.7767 14.8603V13.8271C76.7767 11.6408 76.0868 11.0521 73.6781 11.0521H60.5589V17.6713V17.6353ZM60.5589 23.2093V30.0688H74.0873C76.5428 30.0688 77.1859 29.4441 77.1859 27.2938V25.9723C77.1859 23.7859 76.5428 23.1973 74.0873 23.1973H60.5589V23.2093Z" fill="white"/>
<path d="M133.132 5.26184C133.775 5.26184 134.056 5.59821 134.056 6.17483V10.0671C134.056 10.6437 133.775 10.98 133.132 10.98H114.903V17.5992H129.835C130.443 17.5992 130.759 17.8875 130.759 18.5122V22.2723C130.759 22.8489 130.431 23.1853 129.835 23.1853H114.903V30.0447H133.132C133.775 30.0447 134.056 30.3811 134.056 30.9577V34.85C134.056 35.4266 133.775 35.7629 133.132 35.7629H109.022C108.379 35.7629 108.051 35.4266 108.051 34.85V29.9246H97.1772L94.2774 35.0061C93.95 35.6308 93.5174 35.7509 92.8275 35.7509H87.2735C86.7473 35.7509 86.6304 35.2584 86.8759 34.8379L103.585 6.01866C103.912 5.44204 104.345 5.27385 105.035 5.27385H133.132V5.26184ZM108.051 24.3265V10.6797L100.287 24.3265H108.051Z" fill="white"/>
<path d="M170.2 12.0851V18.0796C170.2 22.7887 168.072 25.1913 163.231 25.1913H162.108L171.123 34.8738C171.521 35.2102 171.287 35.7868 170.843 35.7868H164.447C163.64 35.7868 163.324 35.6186 162.88 35.0781L154.508 25.4796H146.943V34.8618C146.943 35.4384 146.545 35.7748 145.972 35.7748H141.026C140.383 35.7748 140.103 35.4384 140.103 34.8618V6.21072C140.103 5.63409 140.383 5.29773 141.026 5.29773H163.324C168.153 5.29773 170.293 7.44806 170.293 12.0851H170.211H170.2ZM146.896 19.7855H159.852C162.833 19.7855 163.313 19.2449 163.313 16.7221V14.0312C163.313 11.5085 162.786 10.9679 159.852 10.9679H146.896V19.7734V19.7855Z" fill="white"/>
<path d="M180.665 26.729C181.273 26.729 181.636 27.0174 181.636 27.642V28.0985C181.636 29.468 182.197 30.0807 183.647 30.0807H195.889C198.146 30.0807 198.707 29.5041 198.707 27.6781V25.5638C198.707 23.7498 198.146 23.1612 195.889 23.1612H182.279C177.485 23.1612 175.357 21.0108 175.357 16.3738V12.0731C175.357 7.40006 177.485 5.28577 182.279 5.28577H198.064C203.174 5.28577 204.986 7.0637 204.986 12.0731V13.4426C204.986 14.0673 204.659 14.3556 204.062 14.3556H199.268C198.625 14.3556 198.344 14.0673 198.344 13.4426V12.9861C198.344 11.6166 197.736 11.004 196.251 11.004H185.062C182.805 11.004 182.244 11.5806 182.244 13.4066V15.1845C182.244 17.0465 182.805 17.6232 185.062 17.6232H198.625C203.454 17.6232 205.594 19.7375 205.594 24.4105V28.9995C205.594 33.6726 203.466 35.7869 198.625 35.7869H181.916C176.807 35.7869 174.994 34.0089 174.994 28.9995V27.63C174.994 27.0053 175.322 26.717 175.918 26.717H180.712H180.677L180.665 26.729Z" fill="white"/>
<path d="M220.442 26.729H217.297V34.958C217.297 35.4986 217.051 35.7869 216.455 35.7869H211.941C211.333 35.7869 211.053 35.4986 211.053 34.958V4.36076C211.053 3.82017 211.333 3.53186 211.941 3.53186H216.455C217.063 3.53186 217.297 3.82017 217.297 4.36076V21.8157H220.641L227.762 13.4666C228.159 13.0101 228.451 12.842 229.048 12.842H234.403C234.847 12.842 235.046 13.3345 234.684 13.6709L225.587 24.1703L234.882 34.9219C235.21 35.2583 235.046 35.7508 234.602 35.7508H228.931C228.323 35.7508 228.007 35.6307 227.598 35.1262L220.43 26.693V26.729H220.442Z" fill="white"/>
<path d="M239.233 4.93742C239.233 4.36079 239.514 4.10852 240.122 4.10852H244.635C245.243 4.10852 245.477 4.36079 245.477 4.93742V8.49328C245.477 9.06991 245.232 9.32218 244.635 9.32218H240.122C239.514 9.32218 239.233 9.06991 239.233 8.49328V4.93742ZM239.233 13.7069C239.233 13.1664 239.514 12.878 240.122 12.878H244.635C245.243 12.878 245.477 13.1664 245.477 13.7069V34.97C245.477 35.5106 245.232 35.7989 244.635 35.7989H240.122C239.514 35.7989 239.233 35.5106 239.233 34.97V13.7069Z" fill="white"/>
<path d="M268.536 20.7345C268.536 18.4641 268.091 18.0436 265.437 18.0436H262.257C259.439 18.0436 258.351 19.1969 258.351 21.5995V34.9219C258.351 35.4625 258.106 35.7508 257.509 35.7508H252.996C252.388 35.7508 252.107 35.4625 252.107 34.9219V13.6589C252.107 13.1183 252.388 12.83 252.996 12.83H256.785C257.393 12.83 257.673 13.1183 257.673 13.6589V16.8063C258.398 14.1994 260.456 12.842 263.835 12.842H268.466C272.897 12.842 274.791 14.74 274.791 19.0887V34.9339C274.791 35.4745 274.511 35.7628 273.949 35.7628H269.436C268.875 35.7628 268.547 35.4745 268.547 34.9339V20.7465L268.536 20.7345Z" fill="white"/>
<path fill-rule="evenodd" clip-rule="evenodd" d="M43.2753 3.94028C42.4685 2.49871 41.5097 1.18929 40.4106 0C37.9317 0.852926 35.3359 1.40553 32.7051 1.64579C33.4534 2.07826 34.7396 2.93118 35.7803 3.62794C36.704 4.2406 37.8382 3.84417 38.9724 3.47177C39.4518 3.3156 39.9546 3.1354 40.4106 3.0393C40.4106 3.0393 40.3755 3.37566 40.317 3.71203C40.2586 4.10846 40.2001 4.54093 40.2235 4.54093C40.2235 4.54093 43.4741 7.72438 43.6611 15.665C44.62 12.8179 45.0292 9.85069 44.9123 6.85944C44.7018 6.48704 44.0821 5.27372 43.2402 3.92826H43.2753V3.94028ZM1.69602 3.94028C1.09969 4.92535 0.561827 5.8984 0.0239621 6.88347C-0.092965 9.87472 0.327973 12.8419 1.27508 15.689C1.45047 7.77244 4.71274 4.56495 4.71274 4.56495C4.71274 4.56495 4.67766 4.26463 4.6192 3.92826C4.56073 3.53183 4.50227 3.07534 4.52565 3.07534C5.00506 3.17144 5.48446 3.3156 5.98724 3.50781C7.12144 3.90424 8.29071 4.27664 9.17935 3.66398C10.22 2.95521 11.5413 2.13832 12.2545 1.68183C9.62367 1.44156 7.06297 0.888965 4.54904 0.0360391C3.44993 1.22533 2.45605 2.57079 1.68433 3.97632L1.69602 3.94028ZM15.8091 35.6187L22.4038 37.6729L29.0336 35.6187L22.4389 33.6966L15.8091 35.6187ZM19.6677 23.9059L22.357 26.1644L25.0464 23.9059L22.357 24.1822L19.6677 23.9059ZM34.8916 22.5965C36.8911 27.1254 36.5052 33.3842 33.2196 38.742C48.2681 32.0147 42.866 18.2238 42.866 18.2238C39.2881 14.8361 36.3532 10.7997 34.2719 6.29483C30.7524 3.84417 26.087 3.72404 22.4506 6.01853C20.0653 4.49288 17.2005 4.03638 14.4528 4.67307C13.1081 4.9734 11.7985 5.526 10.6292 6.25879C8.53625 10.7517 5.61308 14.7881 2.03511 18.1877C1.38032 20.0498 1.07631 22.0079 1.11138 24.0021C1.11138 28.591 2.95883 34.8498 11.6816 38.742V38.682L11.2957 38.0693C8.48948 33.3962 8.01008 27.642 9.98615 22.5725C8.43102 24.9271 7.60084 27.7141 7.60084 30.5492C7.60084 31.0417 7.60084 31.5222 7.5073 32.0147C4.73612 27.3657 3.02899 23.5816 4.43211 20.278L6.73558 16.1215C9.98615 9.29809 13.6577 11.1361 17.6683 13.1303C18.2997 13.4306 18.9194 13.7429 19.5508 14.0192C18.6271 15.0884 17.8203 16.2536 17.1304 17.479C15.9962 20.0738 15.3999 22.9209 15.3648 25.768V25.828L13.2133 29.6482C13.5407 31.0897 14.0786 32.4592 14.7919 33.7446C15.3297 34.5375 21.8659 32.5553 21.8659 32.5553C21.8659 31.8225 21.3281 31.2099 20.6148 31.0897L18.8492 30.8134L18.7557 30.7173C17.68 29.7443 16.8147 28.579 16.1833 27.2576L16.1248 27.0774L16.1833 26.8972C16.8965 25.0952 17.9723 23.4374 19.352 22.068L19.5625 21.8878L20.8487 22.2602C21.8893 22.5605 23.0001 22.5605 24.0408 22.2602L25.327 21.8878L25.5374 22.068C26.9055 23.4495 27.9812 25.0952 28.7062 26.8972L28.7646 27.0774L28.7062 27.2576C28.0748 28.567 27.2095 29.7323 26.1338 30.7173L26.0402 30.8134L24.2746 31.0897C23.5614 31.2099 23.0235 31.8225 23.0235 32.5553C23.0235 32.5553 29.5948 34.5375 30.0976 33.7446C30.8109 32.4592 31.3487 31.0897 31.6761 29.6482L29.5597 25.828V25.768C29.5247 22.9209 28.9283 20.1098 27.7708 17.479C27.0575 16.2296 26.2156 15.0644 25.2919 13.9592C26.2741 12.6738 26.7301 11.052 26.543 9.43024C25.5608 8.24094 24.3916 7.19581 23.082 6.37892C22.9651 6.28282 22.8481 6.22275 22.6961 6.13866C26.2741 4.55294 30.425 4.82924 33.7691 6.84743C36.0141 13.3945 41.7669 19.0166 41.7669 19.0166C42.7257 23.3533 42.4802 26.7771 41.4629 29.1316C40.6327 31.0897 37.2886 35.9791 37.3705 30.5732C37.3705 27.7261 36.5637 24.9511 34.9852 22.5965L34.8916 22.6326V22.5965ZM28.7413 16.602C28.7413 16.602 28.5892 17.6111 29.8404 17.6111C31.0915 17.6111 31.1499 15.9653 30.8226 15.7131L28.7296 16.602H28.7413ZM13.9032 15.7131C13.5758 15.9533 13.6694 17.6111 14.8854 17.6111C16.1014 17.6111 15.9845 16.602 15.9845 16.602L13.8915 15.7131H13.9032Z" fill="white"/>
</g>
<defs>
<clipPath id="clip0_143_453">
<rect width="274.779" height="38.73" fill="white"/>
</clipPath>
</defs>
</svg>
