<svg width="532" height="100" viewBox="0 0 532 100" fill="none" xmlns="http://www.w3.org/2000/svg">
<g clip-path="url(#clip0_2371_607)">
<g clip-path="url(#clip1_2371_607)">
<mask id="mask0_2371_607" style="mask-type:luminance" maskUnits="userSpaceOnUse" x="0" y="0" width="100" height="100">
<path d="M100 0H0V100H100V0Z" fill="white"/>
</mask>
<g mask="url(#mask0_2371_607)">
<path d="M97.8916 39.0448C82.6177 33.1997 95.2199 10.8169 74.212 11.3849C48.5413 12.0793 8.31528 52.4518 12.4236 78.6851C14.4652 91.6755 24.6096 86.2218 29.3732 88.1154C32.5364 89.3652 36.2792 95.0083 40.3245 95.9047C22.4293 106.193 -0.556809 96.397 0.0102913 74.3423C0.829435 41.86 47.7474 -5.25386 81.1937 0.477571C99.8702 3.68414 102.189 23.5422 97.8916 39.0448Z" fill="white"/>
<path d="M24.812 57.7541L39.6073 71.7166C49.0337 80.1875 74.0615 94.9706 85.4035 84.9469C98.7745 73.1306 70.4955 32.3162 57.4774 25.802L68.9074 20.6639C86.7143 33.6796 113.783 75.9836 91.7299 94.4025C77.5019 106.282 54.566 96.2204 41.0816 87.3707C30.8108 80.6294 15.9652 70.9591 24.812 57.7415V57.7541Z" fill="white"/>
<path d="M40.3368 4.75723C35.548 4.88347 31.805 11.1199 28.289 12.2182C25.1637 13.1903 20.8409 10.5266 16.1403 14.0487C11.049 17.8613 12.7886 36.0655 3.02184 40.5976C-2.98942 22.9362 0.753054 1.8789 22.4667 0.0736228C24.1428 -0.0652445 42.7817 1.17195 40.3368 4.74463V4.75723Z" fill="white"/>
<path d="M76.1028 57.754C84.1178 71.0348 69.5874 86.2092 57.4893 74.1025L76.1028 57.754Z" fill="white"/>
</g>
</g>
<path d="M144.591 73.5V26.9545H162.409C165.773 26.9545 168.568 27.4848 170.795 28.5455C173.038 29.5909 174.712 31.0227 175.818 32.8409C176.939 34.6591 177.5 36.7197 177.5 39.0227C177.5 40.9167 177.136 42.5379 176.409 43.8864C175.682 45.2197 174.705 46.303 173.477 47.1364C172.25 47.9697 170.879 48.5682 169.364 48.9318V49.3864C171.015 49.4773 172.598 49.9848 174.114 50.9091C175.644 51.8182 176.894 53.1061 177.864 54.7727C178.833 56.4394 179.318 58.4545 179.318 60.8182C179.318 63.2273 178.735 65.3939 177.568 67.3182C176.402 69.2273 174.644 70.7348 172.295 71.8409C169.947 72.947 166.992 73.5 163.432 73.5H144.591ZM153.023 66.4545H162.091C165.152 66.4545 167.356 65.8712 168.705 64.7045C170.068 63.5227 170.75 62.0076 170.75 60.1591C170.75 58.7803 170.409 57.5379 169.727 56.4318C169.045 55.3106 168.076 54.4318 166.818 53.7955C165.561 53.1439 164.061 52.8182 162.318 52.8182H153.023V66.4545ZM153.023 46.75H161.364C162.818 46.75 164.129 46.4848 165.295 45.9545C166.462 45.4091 167.379 44.6439 168.045 43.6591C168.727 42.6591 169.068 41.4773 169.068 40.1136C169.068 38.3106 168.432 36.8258 167.159 35.6591C165.902 34.4924 164.03 33.9091 161.545 33.9091H153.023V46.75ZM186.29 73.5V38.5909H194.267V44.4091H194.631C195.267 42.3939 196.358 40.8409 197.903 39.75C199.464 38.6439 201.244 38.0909 203.244 38.0909C203.699 38.0909 204.206 38.1136 204.767 38.1591C205.343 38.1894 205.82 38.2424 206.199 38.3182V45.8864C205.85 45.7652 205.297 45.6591 204.54 45.5682C203.797 45.4621 203.078 45.4091 202.381 45.4091C200.881 45.4091 199.532 45.7348 198.335 46.3864C197.153 47.0227 196.222 47.9091 195.54 49.0455C194.858 50.1818 194.517 51.4924 194.517 52.9773V73.5H186.29ZM225.455 74.1818C222.045 74.1818 219.091 73.4318 216.591 71.9318C214.091 70.4318 212.152 68.3333 210.773 65.6364C209.409 62.9394 208.727 59.7879 208.727 56.1818C208.727 52.5758 209.409 49.4167 210.773 46.7045C212.152 43.9924 214.091 41.8864 216.591 40.3864C219.091 38.8864 222.045 38.1364 225.455 38.1364C228.864 38.1364 231.818 38.8864 234.318 40.3864C236.818 41.8864 238.75 43.9924 240.114 46.7045C241.492 49.4167 242.182 52.5758 242.182 56.1818C242.182 59.7879 241.492 62.9394 240.114 65.6364C238.75 68.3333 236.818 70.4318 234.318 71.9318C231.818 73.4318 228.864 74.1818 225.455 74.1818ZM225.5 67.5909C227.348 67.5909 228.894 67.0833 230.136 66.0682C231.379 65.0379 232.303 63.6591 232.909 61.9318C233.53 60.2045 233.841 58.2803 233.841 56.1591C233.841 54.0227 233.53 52.0909 232.909 50.3636C232.303 48.6212 231.379 47.2348 230.136 46.2045C228.894 45.1742 227.348 44.6591 225.5 44.6591C223.606 44.6591 222.03 45.1742 220.773 46.2045C219.53 47.2348 218.598 48.6212 217.977 50.3636C217.371 52.0909 217.068 54.0227 217.068 56.1591C217.068 58.2803 217.371 60.2045 217.977 61.9318C218.598 63.6591 219.53 65.0379 220.773 66.0682C222.03 67.0833 223.606 67.5909 225.5 67.5909ZM255.369 73.5L245.506 38.5909H253.892L260.028 63.1364H260.347L266.619 38.5909H274.915L281.188 63H281.528L287.574 38.5909H295.983L286.097 73.5H277.528L270.983 49.9091H270.506L263.96 73.5H255.369ZM329.318 47.8182L321.818 48.6364C321.606 47.8788 321.235 47.1667 320.705 46.5C320.189 45.8333 319.492 45.2955 318.614 44.8864C317.735 44.4773 316.659 44.2727 315.386 44.2727C313.674 44.2727 312.235 44.6439 311.068 45.3864C309.917 46.1288 309.348 47.0909 309.364 48.2727C309.348 49.2879 309.72 50.1136 310.477 50.75C311.25 51.3864 312.523 51.9091 314.295 52.3182L320.25 53.5909C323.553 54.303 326.008 55.4318 327.614 56.9773C329.235 58.5227 330.053 60.5455 330.068 63.0455C330.053 65.2424 329.409 67.1818 328.136 68.8636C326.879 70.5303 325.129 71.8333 322.886 72.7727C320.644 73.7121 318.068 74.1818 315.159 74.1818C310.886 74.1818 307.447 73.2879 304.841 71.5C302.235 69.697 300.682 67.1894 300.182 63.9773L308.205 63.2045C308.568 64.7803 309.341 65.9697 310.523 66.7727C311.705 67.5758 313.242 67.9773 315.136 67.9773C317.091 67.9773 318.659 67.5758 319.841 66.7727C321.038 65.9697 321.636 64.9773 321.636 63.7955C321.636 62.7955 321.25 61.9697 320.477 61.3182C319.72 60.6667 318.538 60.1667 316.932 59.8182L310.977 58.5682C307.629 57.8712 305.152 56.697 303.545 55.0455C301.939 53.3788 301.144 51.2727 301.159 48.7273C301.144 46.5758 301.727 44.7121 302.909 43.1364C304.106 41.5455 305.765 40.3182 307.886 39.4545C310.023 38.5758 312.485 38.1364 315.273 38.1364C319.364 38.1364 322.583 39.0076 324.932 40.75C327.295 42.4924 328.758 44.8485 329.318 47.8182ZM352.307 74.1818C348.807 74.1818 345.784 73.4545 343.239 72C340.708 70.5303 338.761 68.4545 337.398 65.7727C336.034 63.0758 335.352 59.9015 335.352 56.25C335.352 52.6591 336.034 49.5076 337.398 46.7955C338.777 44.0682 340.701 41.947 343.17 40.4318C345.64 38.9015 348.542 38.1364 351.875 38.1364C354.027 38.1364 356.057 38.4848 357.966 39.1818C359.89 39.8636 361.587 40.9242 363.057 42.3636C364.542 43.803 365.708 45.6364 366.557 47.8636C367.405 50.0758 367.83 52.7121 367.83 55.7727V58.2955H339.216V52.75H359.943C359.928 51.1742 359.587 49.7727 358.92 48.5455C358.254 47.303 357.322 46.3258 356.125 45.6136C354.943 44.9015 353.564 44.5455 351.989 44.5455C350.307 44.5455 348.83 44.9545 347.557 45.7727C346.284 46.5758 345.292 47.6364 344.58 48.9545C343.883 50.2576 343.527 51.6894 343.511 53.25V58.0909C343.511 60.1212 343.883 61.8636 344.625 63.3182C345.367 64.7576 346.405 65.8636 347.739 66.6364C349.072 67.3939 350.633 67.7727 352.42 67.7727C353.617 67.7727 354.701 67.6061 355.67 67.2727C356.64 66.9242 357.481 66.4167 358.193 65.75C358.905 65.0833 359.443 64.2576 359.807 63.2727L367.489 64.1364C367.004 66.1667 366.08 67.9394 364.716 69.4545C363.367 70.9545 361.64 72.1212 359.534 72.9545C357.428 73.7727 355.019 74.1818 352.307 74.1818ZM374.79 73.5V38.5909H382.767V44.4091H383.131C383.767 42.3939 384.858 40.8409 386.403 39.75C387.964 38.6439 389.744 38.0909 391.744 38.0909C392.199 38.0909 392.706 38.1136 393.267 38.1591C393.843 38.1894 394.32 38.2424 394.699 38.3182V45.8864C394.35 45.7652 393.797 45.6591 393.04 45.5682C392.297 45.4621 391.578 45.4091 390.881 45.4091C389.381 45.4091 388.032 45.7348 386.835 46.3864C385.653 47.0227 384.722 47.9091 384.04 49.0455C383.358 50.1818 383.017 51.4924 383.017 52.9773V73.5H374.79ZM445.744 26.9545H454.176V57.3636C454.176 60.697 453.388 63.6288 451.812 66.1591C450.252 68.6894 448.055 70.6667 445.222 72.0909C442.388 73.5 439.078 74.2045 435.29 74.2045C431.487 74.2045 428.169 73.5 425.335 72.0909C422.502 70.6667 420.305 68.6894 418.744 66.1591C417.184 63.6288 416.403 60.697 416.403 57.3636V26.9545H424.835V56.6591C424.835 58.5985 425.259 60.3258 426.108 61.8409C426.972 63.3561 428.184 64.5455 429.744 65.4091C431.305 66.2576 433.153 66.6818 435.29 66.6818C437.426 66.6818 439.275 66.2576 440.835 65.4091C442.411 64.5455 443.623 63.3561 444.472 61.8409C445.32 60.3258 445.744 58.5985 445.744 56.6591V26.9545ZM490.568 47.8182L483.068 48.6364C482.856 47.8788 482.485 47.1667 481.955 46.5C481.439 45.8333 480.742 45.2955 479.864 44.8864C478.985 44.4773 477.909 44.2727 476.636 44.2727C474.924 44.2727 473.485 44.6439 472.318 45.3864C471.167 46.1288 470.598 47.0909 470.614 48.2727C470.598 49.2879 470.97 50.1136 471.727 50.75C472.5 51.3864 473.773 51.9091 475.545 52.3182L481.5 53.5909C484.803 54.303 487.258 55.4318 488.864 56.9773C490.485 58.5227 491.303 60.5455 491.318 63.0455C491.303 65.2424 490.659 67.1818 489.386 68.8636C488.129 70.5303 486.379 71.8333 484.136 72.7727C481.894 73.7121 479.318 74.1818 476.409 74.1818C472.136 74.1818 468.697 73.2879 466.091 71.5C463.485 69.697 461.932 67.1894 461.432 63.9773L469.455 63.2045C469.818 64.7803 470.591 65.9697 471.773 66.7727C472.955 67.5758 474.492 67.9773 476.386 67.9773C478.341 67.9773 479.909 67.5758 481.091 66.7727C482.288 65.9697 482.886 64.9773 482.886 63.7955C482.886 62.7955 482.5 61.9697 481.727 61.3182C480.97 60.6667 479.788 60.1667 478.182 59.8182L472.227 58.5682C468.879 57.8712 466.402 56.697 464.795 55.0455C463.189 53.3788 462.394 51.2727 462.409 48.7273C462.394 46.5758 462.977 44.7121 464.159 43.1364C465.356 41.5455 467.015 40.3182 469.136 39.4545C471.273 38.5758 473.735 38.1364 476.523 38.1364C480.614 38.1364 483.833 39.0076 486.182 40.75C488.545 42.4924 490.008 44.8485 490.568 47.8182ZM513.557 74.1818C510.057 74.1818 507.034 73.4545 504.489 72C501.958 70.5303 500.011 68.4545 498.648 65.7727C497.284 63.0758 496.602 59.9015 496.602 56.25C496.602 52.6591 497.284 49.5076 498.648 46.7955C500.027 44.0682 501.951 41.947 504.42 40.4318C506.89 38.9015 509.792 38.1364 513.125 38.1364C515.277 38.1364 517.307 38.4848 519.216 39.1818C521.14 39.8636 522.837 40.9242 524.307 42.3636C525.792 43.803 526.958 45.6364 527.807 47.8636C528.655 50.0758 529.08 52.7121 529.08 55.7727V58.2955H500.466V52.75H521.193C521.178 51.1742 520.837 49.7727 520.17 48.5455C519.504 47.303 518.572 46.3258 517.375 45.6136C516.193 44.9015 514.814 44.5455 513.239 44.5455C511.557 44.5455 510.08 44.9545 508.807 45.7727C507.534 46.5758 506.542 47.6364 505.83 48.9545C505.133 50.2576 504.777 51.6894 504.761 53.25V58.0909C504.761 60.1212 505.133 61.8636 505.875 63.3182C506.617 64.7576 507.655 65.8636 508.989 66.6364C510.322 67.3939 511.883 67.7727 513.67 67.7727C514.867 67.7727 515.951 67.6061 516.92 67.2727C517.89 66.9242 518.731 66.4167 519.443 65.75C520.155 65.0833 520.693 64.2576 521.057 63.2727L528.739 64.1364C528.254 66.1667 527.33 67.9394 525.966 69.4545C524.617 70.9545 522.89 72.1212 520.784 72.9545C518.678 73.7727 516.269 74.1818 513.557 74.1818Z" fill="white"/>
</g>
<defs>
<clipPath id="clip0_2371_607">
<rect width="532" height="100" fill="white"/>
</clipPath>
<clipPath id="clip1_2371_607">
<rect width="100" height="100" fill="white"/>
</clipPath>
</defs>
</svg>
