<?xml version="1.0" encoding="UTF-8"?><svg id="Layer_1" xmlns="http://www.w3.org/2000/svg" viewBox="0 0 177.18 57.41"><defs><style>.cls-1,.cls-2{fill:#f6f6fa;}.cls-2{fill-rule:evenodd;}</style></defs><path class="cls-1" d="M57.15,40.7c3.57,0,6.69-1.78,7.92-5.38,.24-.72-.1-1.2-.79-1.2h-1.34c-.62,0-1.03,.27-1.3,.86-1.06,2.09-2.54,2.84-4.39,2.84-3.29,0-5.31-2.3-5.31-6.14s2.09-6.14,5.24-6.14c1.92,0,3.5,.82,4.49,2.78,.31,.58,.68,.86,1.3,.86h1.34c.68,0,1.03-.45,.79-1.1-1.44-3.91-4.66-5.42-7.95-5.42-4.97,0-8.67,3.67-8.67,9.02s3.53,9.02,8.67,9.02Zm89.71-10.59c.44-2.91,2.43-4.73,5.14-4.73s4.73,1.85,4.97,4.73h-10.11Zm5.28,10.59c3.15,0,6.31-1.47,7.85-4.8,.38-.79,.03-1.34-.65-1.34h-1.27c-.62,0-.99,.27-1.3,.82-1.03,1.82-2.81,2.57-4.63,2.57-3.12,0-5.14-2.13-5.38-5.59h12.58c.68,0,1.13-.38,1.13-1.1-.14-5.38-3.63-8.6-8.47-8.6s-8.67,3.5-8.67,9.02,3.74,9.02,8.81,9.02h0Zm-19.95-8.57h1.13c.68,0,1.06-.38,1.17-1.1,.65-4.63,3.36-5.25,6.25-5.11,.62,.03,1.12-.45,1.12-1.06v-1.06c0-.68-.34-1.1-1.03-1.13-2.55-.1-4.83,.78-6.14,3.26-.07,.14-.28,.1-.29-.05l-.21-1.87c-.07-.68-.44-1.03-1.13-1.03h-5.17c-.61,0-1.1,.49-1.1,1.1v.58c0,.6,.49,1.1,1.1,1.1h2.13c.6,0,1.1,.49,1.1,1.1v4.18c0,.6,.49,1.1,1.1,1.1h0Zm-4.63,8.23h10.73c.68,0,1.1-.41,1.1-1.1v-.58c0-.68-.41-1.1-1.1-1.1h-2.74c-.68,0-1.1-.41-1.1-1.1v-1.89c0-.68-.41-1.1-1.1-1.1h-1.17c-.68,0-1.1,.41-1.1,1.1v1.89c0,.68-.41,1.1-1.1,1.1h-2.43c-.68,0-1.1,.41-1.1,1.1v.58c0,.68,.41,1.1,1.1,1.1h0Zm-16.56-10.25c.44-2.91,2.43-4.73,5.14-4.73s4.73,1.85,4.97,4.73h-10.11Zm5.28,10.59c3.15,0,6.31-1.47,7.85-4.8,.38-.79,.03-1.34-.65-1.34h-1.27c-.62,0-.99,.27-1.3,.82-1.03,1.82-2.81,2.57-4.63,2.57-3.12,0-5.14-2.13-5.38-5.59h12.58c.68,0,1.13-.38,1.13-1.1-.14-5.38-3.63-8.6-8.47-8.6s-8.67,3.5-8.67,9.02,3.74,9.02,8.81,9.02h0Zm-39.66,0c5.14,0,8.81-3.8,8.81-9.02s-3.67-9.02-8.81-9.02-8.81,3.87-8.81,9.02c0,1.2,.21,2.54,.82,4.01,.31,.72,.89,.82,1.51,.38l.99-.72c.52-.38,.65-.82,.48-1.47-.27-.86-.34-1.61-.34-2.26,0-3.6,2.16-6.07,5.35-6.07s5.35,2.43,5.35,6.14-2.13,6.14-5.28,6.14c-1.1,0-2.13-.21-3.36-1.13-.52-.41-.99-.48-1.54-.07l-.75,.55c-.62,.44-.68,1.06-.1,1.54,1.78,1.44,3.84,1.99,5.69,1.99h0Zm13.16-.34h1.13c.6,0,1.1-.49,1.1-1.1v-8.19c0-3.46,1.85-5.52,4.73-5.52,2.6,0,4.11,1.71,4.11,4.87v8.84c0,.6,.49,1.1,1.1,1.1h1.17c.6,0,1.1-.49,1.1-1.1v-9.39c0-4.63-2.37-7.2-6.38-7.2-2.73,0-4.34,1.12-5.55,2.67-.09,.12-.28,.05-.28-.09v-7.45c0-.61-.5-1.1-1.1-1.1h-1.13c-.6,0-1.1,.49-1.1,1.1v21.46c0,.6,.49,1.1,1.1,1.1Z"/><g><path class="cls-2" d="M24.4,30.99c.65,0,1.93-.04,3.71-.77,2.07-.85,6.19-2.4,9.16-3.99,2.08-1.11,2.99-2.58,2.99-4.56,0-2.75-2.23-4.97-4.97-4.97h-11.51c-3.95,0-7.14,3.2-7.14,7.14s3,7.14,7.78,7.14Z"/><path class="cls-2" d="M26.35,35.91c0-1.93,1.16-3.68,2.95-4.42l3.62-1.5c3.67-1.52,7.7,1.17,7.7,5.14,0,3.08-2.49,5.57-5.57,5.57h-3.92c-2.64,0-4.78-2.14-4.78-4.79Z"/><path class="cls-1" d="M20.74,31.93h0c-2.27,0-4.12,1.84-4.12,4.12v.53c0,2.27,1.84,4.12,4.12,4.12h0c2.27,0,4.12-1.84,4.12-4.12v-.53c0-2.27-1.84-4.12-4.12-4.12Z"/></g></svg>