<svg width="700" height="149" viewBox="0 0 700 149" fill="none" xmlns="http://www.w3.org/2000/svg">
<path d="M54.0898 20.62C59.0898 25.61 60.9998 32.92 59.0898 39.72C65.2398 36.02 72.2898 34.07 79.4698 34.08H79.6198C90.1698 34.11 100.27 38.35 107.69 45.85C113.64 52.1 123.52 52.34 129.77 46.4C136.02 40.45 136.26 30.57 130.32 24.32C130.17 24.16 130.02 24.01 129.86 23.86C116.61 10.46 98.5598 2.91002 79.7098 2.86002H79.4398C65.3298 2.83002 51.5398 7.03002 39.8398 14.91H40.2798C45.4598 14.9 50.4298 16.96 54.0898 20.63V20.62Z" fill="white"/>
<path d="M118.49 97.54C114.37 97.54 110.41 99.17 107.49 102.07C100.05 109.47 89.9796 113.63 79.4896 113.62H79.3396C72.1396 113.61 65.0896 111.63 58.9396 107.89C59.4096 109.59 59.6396 111.35 59.6396 113.11C59.6396 123.9 50.8996 132.64 40.1096 132.64H39.5996C51.2896 140.6 65.0896 144.87 79.2296 144.89H79.4996C98.2396 144.92 116.23 137.5 129.5 124.27C135.62 118.19 135.67 108.31 129.59 102.18C126.66 99.22 122.66 97.56 118.5 97.56V97.54H118.49Z" fill="white"/>
<path d="M26.2797 99.29C29.9297 95.61 34.9097 93.55 40.0897 93.57C41.8797 93.57 43.6597 93.81 45.3797 94.29C37.7897 81.67 37.8197 65.88 45.4597 53.29C35.0497 56.15 24.2997 50.02 21.4497 39.62C20.9897 37.93 20.7497 36.19 20.7497 34.43V33.9C4.4197 57.9 4.3397 89.43 20.5597 113.51V113.1C20.5397 107.92 22.5997 102.94 26.2797 99.29Z" fill="white"/>
<path d="M40.2795 18.37C35.8395 18.37 32.7295 20.21 28.9595 23.98C25.3695 27.56 24.2395 30.7 24.2295 34.43C24.2295 43.29 31.4295 50.48 40.2895 50.47C49.1495 50.47 56.3395 43.27 56.3295 34.41C56.3295 25.55 49.1395 18.37 40.2795 18.37Z" fill="white"/>
<path d="M24 113.12C24 117.55 25.84 120.67 29.6 124.43C33.19 128.02 36.32 129.16 40.05 129.17C48.89 129.14 56.03 121.96 56 113.12C55.97 104.28 48.79 97.14 39.95 97.17C31.13 97.2 24 104.35 24 113.17V113.12Z" fill="white"/>
<path fill-rule="evenodd" clip-rule="evenodd" d="M197.57 87.79C202.04 84.41 202.64 86.3 206.41 90.08C208.3 91.97 213.47 95.25 210.09 98.03C203.03 103.79 196.67 106.38 187.63 106.38C167.26 106.28 152.85 91.08 154.04 70.9C154.54 61.86 158.11 53.31 165.17 47.45C171.63 41.98 179.68 39.6 188.13 39.8C192.4 39.9 196.18 40.5 200.15 42.19C202.73 43.18 205.22 44.38 207.4 46.07C211.87 49.55 209.79 51.54 206.31 55.01C205.51 55.81 204.72 56.6 204.02 57.4C202.23 59.19 201.04 60.48 198.65 58.79C194.08 55.61 188.31 53.92 182.85 55.31C165.26 59.78 166.06 91.09 187.62 91.19C191 91.29 194.78 89.9 197.56 87.81L197.57 87.79ZM686.5 106.77C683.52 106.77 681.13 104.38 681.13 101.4L681.43 32.03C681.43 29.05 683.82 26.66 686.8 26.66H692.56C695.54 26.66 697.93 29.05 697.93 32.03L697.63 101.4C697.63 104.38 695.24 106.77 692.26 106.77H686.5ZM656.29 98.72C650.03 104.58 644.07 107.66 635.22 107.66C617.33 107.56 608.79 92.75 608.79 76.16L608.89 47.94C608.89 44.96 611.28 42.57 614.26 42.57H620.02C623 42.57 625.39 44.96 625.39 47.94L625.29 76.16C625.29 85.4 630.26 92.66 640 92.66C649.74 92.66 655.7 84.51 655.8 75.37V65.33C655.7 64.93 655.7 64.53 655.7 64.14L655.8 48.14C655.8 45.16 658.19 42.77 661.17 42.77H666.93C669.91 42.77 672.3 45.16 672.3 48.14L672.1 101.41C672.1 104.29 669.72 106.68 666.73 106.68H661.86C658.88 106.68 656.79 104.2 656.59 101.41L656.29 98.73V98.72ZM587.72 42.77H598.85C601.83 42.77 604.12 45.25 604.12 48.24V51.92C604.12 54.8 601.74 57.29 598.75 57.29H587.62L587.42 101.12C587.42 104.1 585.03 106.49 582.05 106.49H576.29C573.31 106.49 570.92 104.1 570.92 101.12L571.12 40.5C571.12 27.28 578.67 16.85 592.19 15.66C592.59 15.66 592.89 15.56 593.28 15.56C594.07 15.46 594.87 15.56 595.66 15.56H600.83C603.81 15.56 606.1 18.04 606.1 21.03V24.41C606.1 27.29 603.71 29.78 600.73 29.78H596.56C590.2 29.78 587.52 34.65 587.42 40.61L587.72 42.8V42.77ZM547.77 42.57H559.99C562.87 42.57 565.26 44.96 565.26 47.94V51.62C565.26 54.5 562.87 56.89 559.89 56.89H547.67L547.57 83.72C547.57 88.89 550.05 91.87 555.22 91.87H557.7C560.58 91.87 562.97 94.26 562.97 97.24V100.92C562.97 103.8 560.59 106.19 557.6 106.19H552.93C552.04 106.19 551.24 106.19 550.35 106.09C537.13 105.2 531.27 96.65 531.27 83.73C531.37 66.34 531.37 49.05 531.47 31.66C531.47 28.78 533.86 26.39 536.84 26.39H542.5C545.38 26.39 547.77 28.78 547.77 31.76V42.59V42.57ZM370.98 41.87H383.2C386.08 41.87 388.47 44.26 388.47 47.24V50.92C388.47 53.8 386.08 56.19 383.1 56.19H370.88V83.02C370.88 88.19 373.36 91.17 378.53 91.17H381.01C383.89 91.17 386.28 93.56 386.28 96.54V100.22C386.28 103.1 383.89 105.49 380.91 105.49H377.23C362.82 105.39 354.47 99.23 354.47 83.03C354.57 65.64 354.57 48.35 354.67 30.96C354.67 28.08 357.06 25.69 360.04 25.69H365.7C368.58 25.69 370.97 28.08 370.97 31.06V41.89L370.98 41.87ZM299.23 49.42C305.09 43.95 311.45 40.48 319.7 40.48C337.59 40.58 346.83 55.19 346.73 71.98L346.63 100.2C346.63 103.18 344.24 105.57 341.26 105.57H335.5C332.52 105.57 330.13 103.18 330.13 100.2L330.23 72.18C330.23 62.94 325.26 55.68 315.52 55.68C305.78 55.68 299.82 63.73 299.72 72.87L299.62 100.2C299.62 103.08 297.23 105.47 294.25 105.47H288.59C285.71 105.47 283.32 103.08 283.32 100.1C283.42 83.11 283.42 66.01 283.52 49.02V46.73C283.52 43.85 285.91 41.46 288.89 41.46H293.76C296.74 41.46 298.83 43.94 299.03 46.73L299.23 49.41V49.42ZM476.32 50.12C482.18 44.65 488.54 41.18 496.79 41.18C514.68 41.28 523.92 55.89 523.82 72.68L523.72 100.9C523.72 103.88 521.33 106.27 518.35 106.27H512.59C509.61 106.27 507.22 103.88 507.22 100.9L507.32 72.88C507.32 63.64 502.35 56.38 492.61 56.38C482.87 56.38 476.91 64.43 476.81 73.57L476.71 100.9C476.71 103.78 474.32 106.17 471.34 106.17H465.68C462.8 106.17 460.41 103.78 460.41 100.8L460.61 47.43C460.61 44.55 463 42.16 465.98 42.16H470.85C473.83 42.16 475.92 44.64 476.12 47.43L476.32 50.11V50.12ZM245.17 39.98C225.79 39.88 212.08 53.89 211.98 73.17C211.88 92.65 225.4 106.46 244.97 106.56C264.55 106.66 278.26 92.95 278.36 73.37C278.46 54.19 264.45 40.08 245.17 39.98ZM406.06 79.83C407.45 88.77 416 92.45 424.35 92.55C428.33 92.55 432.9 91.56 436.47 89.87C437.07 89.57 437.66 89.37 438.26 88.98C440.25 87.89 442.04 87.19 443.83 88.98C444.82 89.97 445.72 90.97 446.71 91.86C447.6 92.75 448.5 93.65 449.29 94.74C451.97 98.12 450.09 98.91 447 101C440.44 105.37 431.89 107.56 424.04 107.56C402.97 107.46 389.06 94.64 389.06 73.37C389.16 53.3 403.07 39.98 423.15 40.08C443.62 40.18 455.25 52.2 455.55 72.68C455.65 78.25 455.85 80.03 450.08 80.03L406.06 79.83ZM245.17 54.99C255.21 54.99 261.87 63.74 261.87 73.37C261.87 83 255.61 91.46 245.08 91.46C234.55 91.46 228.38 83.31 228.38 73.27C228.48 63.33 234.74 54.98 245.17 54.98V54.99ZM406.46 66.02L439.45 66.12C438.26 57.87 431.4 54.59 423.55 54.59C415.7 54.59 408.94 58.27 406.46 66.02Z" fill="white"/>
</svg>
