<svg width="140" height="48" viewBox="0 0 140 48" fill="none" xmlns="http://www.w3.org/2000/svg">
<rect width="140" height="48" fill="#020202"/>
<path d="M34.296 29.032C34.2853 29.8107 34.072 30.5893 33.656 31.368C33.24 32.136 32.6427 32.84 31.864 33.48C31.096 34.12 30.1627 34.632 29.064 35.016C27.976 35.4 26.744 35.592 25.368 35.592C23.0747 35.592 21.096 35.096 19.432 34.104C17.768 33.112 16.4827 31.7413 15.576 29.992C14.68 28.2427 14.232 26.232 14.232 23.96C14.232 22.232 14.4987 20.648 15.032 19.208C15.5653 17.7573 16.3173 16.4987 17.288 15.432C18.2693 14.3547 19.416 13.5227 20.728 12.936C22.04 12.3493 23.4693 12.056 25.016 12.056C26.0827 12.056 26.9467 12.1627 27.608 12.376C28.28 12.5893 28.808 12.8027 29.192 13.016C29.576 13.2293 29.8747 13.336 30.088 13.336C30.344 13.336 30.5467 13.24 30.696 13.048C30.8453 12.856 30.9947 12.6693 31.144 12.488C31.304 12.296 31.5067 12.2 31.752 12.2C31.9333 12.2 32.0827 12.2587 32.2 12.376C32.3173 12.4827 32.4133 12.6693 32.488 12.936L34.168 18.536C34.2427 18.7707 34.2213 18.9787 34.104 19.16C33.9973 19.3307 33.8267 19.4427 33.592 19.496C33.3573 19.5387 33.144 19.5173 32.952 19.432C32.7707 19.336 32.6267 19.1653 32.52 18.92C31.944 17.6187 31.304 16.584 30.6 15.816C29.896 15.048 29.1387 14.4987 28.328 14.168C27.5173 13.8267 26.6427 13.656 25.704 13.656C24.744 13.656 23.864 13.8747 23.064 14.312C22.2747 14.7387 21.592 15.3573 21.016 16.168C20.44 16.968 19.992 17.9333 19.672 19.064C19.352 20.1947 19.192 21.464 19.192 22.872C19.192 25.0587 19.5227 26.904 20.184 28.408C20.856 29.912 21.768 31.048 22.92 31.816C24.0827 32.584 25.4053 32.968 26.888 32.968C28.328 32.968 29.5707 32.6213 30.616 31.928C31.672 31.224 32.4773 30.2373 33.032 28.968C33.1493 28.7333 33.272 28.5787 33.4 28.504C33.5387 28.4293 33.6933 28.4027 33.864 28.424C34.0133 28.4453 34.12 28.5093 34.184 28.616C34.2587 28.7227 34.296 28.8613 34.296 29.032ZM44.7685 19.592C46.3898 19.592 47.8138 19.928 49.0405 20.6C50.2778 21.272 51.2378 22.2053 51.9205 23.4C52.6138 24.584 52.9605 25.96 52.9605 27.528C52.9605 29.0213 52.6032 30.3653 51.8885 31.56C51.1845 32.744 50.2032 33.6773 48.9445 34.36C47.6965 35.0427 46.2512 35.384 44.6085 35.384C42.9872 35.384 41.5578 35.048 40.3205 34.376C39.0938 33.704 38.1338 32.7707 37.4405 31.576C36.7472 30.3813 36.4005 29.0107 36.4005 27.464C36.4005 25.9493 36.7525 24.6 37.4565 23.416C38.1712 22.232 39.1525 21.2987 40.4005 20.616C41.6592 19.9333 43.1152 19.592 44.7685 19.592ZM45.8725 33.848C46.5872 33.7413 47.1632 33.4107 47.6005 32.856C48.0485 32.2907 48.3312 31.5173 48.4485 30.536C48.5658 29.544 48.5018 28.3493 48.2565 26.952C48.0218 25.5547 47.6698 24.408 47.2005 23.512C46.7418 22.6053 46.1978 21.9493 45.5685 21.544C44.9392 21.1387 44.2512 21 43.5045 21.128C42.7792 21.2347 42.1978 21.5707 41.7605 22.136C41.3232 22.6907 41.0458 23.464 40.9285 24.456C40.8112 25.4373 40.8752 26.632 41.1205 28.04C41.3552 29.416 41.7018 30.5573 42.1605 31.464C42.6298 32.3707 43.1792 33.0267 43.8085 33.432C44.4378 33.8267 45.1258 33.9653 45.8725 33.848ZM61.4385 20.6V32.6C61.4385 32.9093 61.4812 33.1387 61.5665 33.288C61.6625 33.4267 61.8012 33.528 61.9825 33.592L62.6065 33.768C62.9158 33.896 63.0705 34.0933 63.0705 34.36C63.0705 34.7867 62.7985 35 62.2545 35H56.0465C55.7692 35 55.5665 34.9467 55.4385 34.84C55.3105 34.7333 55.2465 34.584 55.2465 34.392C55.2465 34.2427 55.2892 34.12 55.3745 34.024C55.4705 33.9173 55.6092 33.832 55.7905 33.768L56.4465 33.592C56.6385 33.5387 56.7772 33.4427 56.8625 33.304C56.9585 33.1547 57.0065 32.92 57.0065 32.6V23.192C57.0065 22.936 56.9638 22.7547 56.8785 22.648C56.8038 22.5307 56.6812 22.4613 56.5105 22.44L55.6465 22.376C55.4652 22.3333 55.3318 22.2693 55.2465 22.184C55.1718 22.0987 55.1345 21.9867 55.1345 21.848C55.1345 21.6773 55.1825 21.544 55.2785 21.448C55.3852 21.352 55.5665 21.256 55.8225 21.16L58.9585 20.056C59.3318 19.9173 59.6305 19.816 59.8545 19.752C60.0892 19.688 60.3025 19.656 60.4945 19.656C60.8038 19.656 61.0385 19.7467 61.1985 19.928C61.3585 20.0987 61.4385 20.3227 61.4385 20.6ZM60.9585 24.12L60.2865 23.432L60.9105 22.872C62.2225 21.6987 63.3478 20.8613 64.2865 20.36C65.2252 19.848 66.1158 19.592 66.9585 19.592C68.2492 19.592 69.2465 20.0187 69.9505 20.872C70.6652 21.7253 71.0972 22.872 71.2465 24.312L72.1745 32.552C72.2065 32.8827 72.2652 33.128 72.3505 33.288C72.4358 33.4373 72.5745 33.544 72.7665 33.608L73.3585 33.768C73.5505 33.832 73.6892 33.9173 73.7745 34.024C73.8598 34.12 73.9025 34.2427 73.9025 34.392C73.9025 34.584 73.8385 34.7333 73.7105 34.84C73.5825 34.9467 73.3798 35 73.1025 35H66.8305C66.2865 35 66.0145 34.7867 66.0145 34.36C66.0145 34.0933 66.1692 33.896 66.4785 33.768L67.1185 33.592C67.3212 33.528 67.4758 33.4213 67.5825 33.272C67.6892 33.112 67.7265 32.872 67.6945 32.552L66.8305 24.952C66.7238 24.024 66.4892 23.3307 66.1265 22.872C65.7745 22.4133 65.2412 22.184 64.5265 22.184C64.0892 22.184 63.6252 22.3013 63.1345 22.536C62.6545 22.7707 62.1425 23.1173 61.5985 23.576L60.9585 24.12ZM83.6778 35.112H82.0618C81.7631 35.112 81.5018 35.0373 81.2778 34.888C81.0644 34.728 80.8938 34.488 80.7658 34.168L76.0458 22.392C75.8858 21.9973 75.7471 21.736 75.6298 21.608C75.5231 21.4693 75.3898 21.3787 75.2298 21.336L74.7018 21.192C74.5098 21.128 74.3764 21.048 74.3018 20.952C74.2271 20.856 74.1898 20.728 74.1898 20.568C74.1898 20.376 74.2591 20.2267 74.3978 20.12C74.5364 20.0133 74.7231 19.96 74.9578 19.96H82.1258C82.6484 19.96 82.9097 20.1627 82.9097 20.568C82.9097 20.728 82.8618 20.856 82.7658 20.952C82.6804 21.048 82.5258 21.1227 82.3018 21.176L81.6938 21.304C81.1924 21.4107 80.8938 21.5867 80.7978 21.832C80.7018 22.0667 80.7711 22.488 81.0058 23.096L84.7498 32.824L83.7738 33.48L87.6458 23.144C87.8804 22.5253 87.9444 22.088 87.8378 21.832C87.7418 21.576 87.4484 21.4 86.9578 21.304L86.3498 21.176C86.1364 21.1227 85.9818 21.048 85.8858 20.952C85.7898 20.856 85.7418 20.728 85.7418 20.568C85.7418 20.376 85.8111 20.2267 85.9498 20.12C86.0884 20.0133 86.2751 19.96 86.5098 19.96H90.8458C91.0804 19.96 91.2671 20.0133 91.4058 20.12C91.5444 20.2267 91.6138 20.376 91.6138 20.568C91.6138 20.7067 91.5711 20.8293 91.4858 20.936C91.4111 21.0427 91.2618 21.1227 91.0378 21.176L90.5417 21.288C90.3284 21.3413 90.1364 21.496 89.9658 21.752C89.8058 21.9973 89.6084 22.424 89.3738 23.032L84.9738 34.248C84.8458 34.5893 84.6644 34.8187 84.4298 34.936C84.2058 35.0533 83.9551 35.112 83.6778 35.112ZM107.009 25.656C107.009 26.1787 106.859 26.584 106.561 26.872C106.262 27.1493 105.83 27.288 105.265 27.288H95.2805V26.152H101.809C102.31 26.152 102.561 25.9227 102.561 25.464C102.561 24.0027 102.305 22.8987 101.793 22.152C101.281 21.4053 100.603 21.032 99.7605 21.032C99.0992 21.032 98.5125 21.2347 98.0005 21.64C97.4992 22.0453 97.1045 22.632 96.8165 23.4C96.5392 24.1573 96.4005 25.08 96.4005 26.168C96.4005 28.248 96.8805 29.8053 97.8405 30.84C98.8112 31.8747 100.091 32.392 101.681 32.392C102.641 32.392 103.478 32.1947 104.193 31.8C104.907 31.4053 105.446 30.8453 105.809 30.12C105.979 29.928 106.118 29.8 106.225 29.736C106.331 29.6613 106.438 29.624 106.545 29.624C106.694 29.624 106.806 29.6933 106.881 29.832C106.955 29.9707 106.987 30.136 106.977 30.328C106.934 31.2453 106.614 32.088 106.017 32.856C105.43 33.624 104.635 34.2373 103.633 34.696C102.63 35.1547 101.483 35.384 100.193 35.384C98.6672 35.384 97.3178 35.0693 96.1445 34.44C94.9712 33.8107 94.0485 32.9307 93.3765 31.8C92.7152 30.6587 92.3845 29.3253 92.3845 27.8C92.3845 26.1893 92.6992 24.7707 93.3285 23.544C93.9685 22.3067 94.8858 21.3413 96.0805 20.648C97.2752 19.944 98.6938 19.592 100.337 19.592C101.734 19.592 102.929 19.8533 103.921 20.376C104.923 20.888 105.686 21.6027 106.209 22.52C106.742 23.4267 107.009 24.472 107.009 25.656ZM117.519 19.592C119.14 19.592 120.564 19.928 121.791 20.6C123.028 21.272 123.988 22.2053 124.671 23.4C125.364 24.584 125.711 25.96 125.711 27.528C125.711 29.0213 125.353 30.3653 124.639 31.56C123.935 32.744 122.953 33.6773 121.695 34.36C120.447 35.0427 119.001 35.384 117.359 35.384C115.737 35.384 114.308 35.048 113.071 34.376C111.844 33.704 110.884 32.7707 110.191 31.576C109.497 30.3813 109.151 29.0107 109.151 27.464C109.151 25.9493 109.503 24.6 110.207 23.416C110.921 22.232 111.903 21.2987 113.151 20.616C114.409 19.9333 115.865 19.592 117.519 19.592ZM118.623 33.848C119.337 33.7413 119.913 33.4107 120.351 32.856C120.799 32.2907 121.081 31.5173 121.199 30.536C121.316 29.544 121.252 28.3493 121.007 26.952C120.772 25.5547 120.42 24.408 119.951 23.512C119.492 22.6053 118.948 21.9493 118.319 21.544C117.689 21.1387 117.001 21 116.255 21.128C115.529 21.2347 114.948 21.5707 114.511 22.136C114.073 22.6907 113.796 23.464 113.679 24.456C113.561 25.4373 113.625 26.632 113.871 28.04C114.105 29.416 114.452 30.5573 114.911 31.464C115.38 32.3707 115.929 33.0267 116.559 33.432C117.188 33.8267 117.876 33.9653 118.623 33.848Z" fill="white"/>
</svg>
