<svg width="104" height="34" viewBox="0 0 104 34" fill="none" xmlns="http://www.w3.org/2000/svg">
  <g clip-path="url(#clip0_0_178)">
    <path
      d="M1.09766 24.4775C1.09766 25.2041 1.6876 25.7941 2.4142 25.7941H9.52021C13.3765 25.7941 16.5629 28.7171 16.9795 32.4668C17.0228 32.8567 17.3495 33.1534 17.7428 33.1534H23.8855C24.3088 33.1534 24.6521 32.8101 24.6521 32.3868C24.6521 27.2939 20.5225 23.1643 15.4297 23.1643H2.4142C1.6876 23.1643 1.09766 23.7543 1.09766 24.4809V24.4775Z"
      fill="#ffffff"></path>
    <path
      d="M3.47634 28.8005C6.23276 28.8005 8.58587 30.5504 9.48579 32.9935C9.51912 33.0868 9.60911 33.1501 9.7091 33.1501H15.3752C15.5119 33.1501 15.6186 33.0335 15.6119 32.8968C15.4052 29.7171 12.7522 27.1907 9.51912 27.1907H0.803259C0.359967 27.1907 0 27.5506 0 27.9939C0 28.4372 0.359967 28.7972 0.803259 28.7972H3.47634V28.8005Z"
      fill="#ffffff"></path>
    <path
      d="M3.68074 33.15C4.56799 33.15 5.28725 32.4308 5.28725 31.5435C5.28725 30.6563 4.56799 29.937 3.68074 29.937C2.79348 29.937 2.07422 30.6563 2.07422 31.5435C2.07422 32.4308 2.79348 33.15 3.68074 33.15Z"
      fill="#ffffff"></path>
    <path
      d="M22.1247 3.74943C21.4947 3.38613 20.6881 3.60278 20.3248 4.23272L16.7718 10.3855C14.842 13.7252 10.7191 15.0217 7.26271 13.5085C6.90274 13.3519 6.48278 13.4852 6.28613 13.8252L3.21308 19.1447C2.99977 19.5113 3.12642 19.9813 3.49306 20.1946C7.90598 22.741 13.5455 21.2311 16.0919 16.8182L22.598 5.54593C22.9613 4.91599 22.7446 4.1094 22.1147 3.7461L22.1247 3.74943Z"
      fill="#ffffff"></path>
    <path
      d="M17.1923 3.64614C15.8157 6.03258 13.1226 7.19581 10.5562 6.75585C10.4562 6.73918 10.3596 6.78251 10.3096 6.86917L7.4765 11.7754C7.40984 11.892 7.45317 12.0454 7.5765 12.1054C10.4329 13.5186 13.9492 12.482 15.5624 9.68225L19.9187 2.13294C20.142 1.74965 20.0087 1.25636 19.6254 1.03638C19.2421 0.813067 18.7488 0.946388 18.5288 1.32969L17.1923 3.6428V3.64614Z"
      fill="#ffffff"></path>
    <path
      d="M14.7159 4.05947C15.6032 4.05947 16.3224 3.34021 16.3224 2.45295C16.3224 1.5657 15.6032 0.846436 14.7159 0.846436C13.8286 0.846436 13.1094 1.5657 13.1094 2.45295C13.1094 3.34021 13.8286 4.05947 14.7159 4.05947Z"
      fill="#ffffff"></path>
    <path
      d="M29.5627 32.3269C30.1926 31.9636 30.4092 31.157 30.0459 30.527L26.4929 24.3743C24.5631 21.0346 25.503 16.8116 28.5427 14.5785C28.8594 14.3452 28.9527 13.9152 28.7561 13.5753L25.683 8.25575C25.4697 7.88912 24.9997 7.76246 24.6331 7.97578C20.2202 10.5222 18.7103 16.165 21.2568 20.5746L27.7628 31.8469C28.1261 32.4768 28.9327 32.6935 29.5627 32.3302V32.3269Z"
      fill="#ffffff"></path>
    <path
      d="M32.1199 28.104C30.7434 25.7176 31.08 22.8045 32.7465 20.8014C32.8098 20.7247 32.8198 20.618 32.7698 20.5314L29.9368 15.6252C29.8701 15.5085 29.7135 15.4719 29.6001 15.5452C26.947 17.315 26.0871 20.8747 27.7036 23.6744L32.0599 31.2237C32.2832 31.607 32.7732 31.7403 33.1565 31.517C33.5398 31.2937 33.6731 30.8038 33.4498 30.4205L32.1132 28.1074L32.1199 28.104Z"
      fill="#ffffff"></path>
    <path
      d="M34.3917 28.1605C35.2789 28.1605 35.9982 27.4413 35.9982 26.554C35.9982 25.6668 35.2789 24.9475 34.3917 24.9475C33.5044 24.9475 32.7852 25.6668 32.7852 26.554C32.7852 27.4413 33.5044 28.1605 34.3917 28.1605Z"
      fill="#ffffff"></path>
  </g>
  <path
    d="M51.85 10.364C53.182 10.364 54.346 10.628 55.342 11.156C56.338 11.684 57.106 12.428 57.646 13.388C58.198 14.336 58.474 15.434 58.474 16.682C58.474 17.918 58.198 19.016 57.646 19.976C57.106 20.936 56.332 21.68 55.324 22.208C54.328 22.736 53.17 23 51.85 23H47.116V10.364H51.85ZM51.652 20.336C52.816 20.336 53.722 20.018 54.37 19.382C55.018 18.746 55.342 17.846 55.342 16.682C55.342 15.518 55.018 14.612 54.37 13.964C53.722 13.316 52.816 12.992 51.652 12.992H50.194V20.336H51.652ZM59.2221 17.96C59.2221 16.928 59.4141 16.022 59.7981 15.242C60.1941 14.462 60.7281 13.862 61.4001 13.442C62.0721 13.022 62.8221 12.812 63.6501 12.812C64.3581 12.812 64.9761 12.956 65.5041 13.244C66.0441 13.532 66.4581 13.91 66.7461 14.378V12.956H69.8241V23H66.7461V21.578C66.4461 22.046 66.0261 22.424 65.4861 22.712C64.9581 23 64.3401 23.144 63.6321 23.144C62.8161 23.144 62.0721 22.934 61.4001 22.514C60.7281 22.082 60.1941 21.476 59.7981 20.696C59.4141 19.904 59.2221 18.992 59.2221 17.96ZM66.7461 17.978C66.7461 17.21 66.5301 16.604 66.0981 16.16C65.6781 15.716 65.1621 15.494 64.5501 15.494C63.9381 15.494 63.4161 15.716 62.9841 16.16C62.5641 16.592 62.3541 17.192 62.3541 17.96C62.3541 18.728 62.5641 19.34 62.9841 19.796C63.4161 20.24 63.9381 20.462 64.5501 20.462C65.1621 20.462 65.6781 20.24 66.0981 19.796C66.5301 19.352 66.7461 18.746 66.7461 17.978ZM81.9509 12.956L75.6509 27.77H72.3389L74.6429 22.658L70.5569 12.956H73.9949L76.3169 19.238L78.6209 12.956H81.9509ZM84.144 23.144C83.604 23.144 83.16 22.988 82.812 22.676C82.476 22.352 82.308 21.956 82.308 21.488C82.308 21.008 82.476 20.606 82.812 20.282C83.16 19.958 83.604 19.796 84.144 19.796C84.672 19.796 85.104 19.958 85.44 20.282C85.788 20.606 85.962 21.008 85.962 21.488C85.962 21.956 85.788 22.352 85.44 22.676C85.104 22.988 84.672 23.144 84.144 23.144ZM86.812 17.96C86.812 16.928 87.004 16.022 87.388 15.242C87.784 14.462 88.318 13.862 88.99 13.442C89.662 13.022 90.412 12.812 91.24 12.812C91.948 12.812 92.566 12.956 93.094 13.244C93.634 13.532 94.048 13.91 94.336 14.378V12.956H97.414V23H94.336V21.578C94.036 22.046 93.616 22.424 93.076 22.712C92.548 23 91.93 23.144 91.222 23.144C90.406 23.144 89.662 22.934 88.99 22.514C88.318 22.082 87.784 21.476 87.388 20.696C87.004 19.904 86.812 18.992 86.812 17.96ZM94.336 17.978C94.336 17.21 94.12 16.604 93.688 16.16C93.268 15.716 92.752 15.494 92.14 15.494C91.528 15.494 91.006 15.716 90.574 16.16C90.154 16.592 89.944 17.192 89.944 17.96C89.944 18.728 90.154 19.34 90.574 19.796C91.006 20.24 91.528 20.462 92.14 20.462C92.752 20.462 93.268 20.24 93.688 19.796C94.12 19.352 94.336 18.746 94.336 17.978ZM100.829 11.912C100.289 11.912 99.8448 11.756 99.4968 11.444C99.1608 11.12 98.9928 10.724 98.9928 10.256C98.9928 9.776 99.1608 9.38 99.4968 9.068C99.8448 8.744 100.289 8.582 100.829 8.582C101.357 8.582 101.789 8.744 102.125 9.068C102.473 9.38 102.647 9.776 102.647 10.256C102.647 10.724 102.473 11.12 102.125 11.444C101.789 11.756 101.357 11.912 100.829 11.912ZM102.359 12.956V23H99.2808V12.956H102.359Z"
    fill="#ffffff"></path>
  <defs>
    <clipPath id="clip0_0_178">
      <rect width="36" height="32.307" fill="white" transform="translate(0 0.846436)"></rect>
    </clipPath>
  </defs>
</svg>