<svg width="96" height="96.58181818181818" viewBox="0 -8 165 166" fill="none" xmlns="http://www.w3.org/2000/svg"><path d="M23.0856 16.5531C24.0335 10.5681 28.5894 5.75762 34.5583 4.71267C93.7623 -5.65191 141.633 3.79828 151.427 31.3009C164.219 67.2231 107.209 120.339 24.0909 149.939C16.2564 152.729 8.46866 155.21 0.779297 157.386L0.929136 156.44C1.32815 153.922 3.01571 151.799 5.36742 150.814C8.26826 149.598 11.1868 148.339 14.117 147.034C74.8045 120.014 117.917 84.4438 110.412 67.586C104.034 53.2648 63.1757 57.0581 13.8144 75.0907L23.0856 16.5531Z" stroke="#fff" stroke-width="1.5" fill="none" style="filter: drop-shadow(rgb(255, 255, 255) 0px 0px 3px); opacity: 0; transition: opacity 0.5s ease-in-out; stroke-dasharray: 666.34; stroke-dashoffset: 666.34; animation: 1.5s ease-in-out 0s 1 normal forwards running drawLine;"></path><path d="M23.0856 16.5531C24.0335 10.5681 28.5894 5.75762 34.5583 4.71267C93.7623 -5.65191 141.633 3.79828 151.427 31.3009C164.219 67.2231 107.209 120.339 24.0909 149.939C16.2564 152.729 8.46866 155.21 0.779297 157.386L0.929136 156.44C1.32815 153.922 3.01571 151.799 5.36742 150.814C8.26826 149.598 11.1868 148.339 14.117 147.034C74.8045 120.014 117.917 84.4438 110.412 67.586C104.034 53.2648 63.1757 57.0581 13.8144 75.0907L23.0856 16.5531Z" stroke="#fff" stroke-width="1.5" style="fill: rgb(255, 255, 255); opacity: 1; transition: 1.5s ease-in-out;"></path></svg>