<svg width="538" height="100" viewBox="0 0 538 100" fill="none" xmlns="http://www.w3.org/2000/svg">
<path d="M40.0285 12.775C38.8231 13.8708 37.4883 15.1583 35.9617 16.6625C34.994 17.4208 33.8011 17.85 32.5623 17.875L27.4443 17.9708L28.9376 16.4833C37.9722 7.45415 42.4936 2.94165 48.1079 2.94165C53.7222 2.94165 58.2436 7.45415 67.2824 16.4833L68.7673 17.9708L63.8287 17.875C62.4356 17.85 61.1008 17.3125 60.0789 16.3708L57.1174 13.6333C56.8338 13.3708 56.5585 13.1166 56.2916 12.8708L56.1331 12.725H56.1289C55.1195 11.8083 54.1977 11.025 53.3259 10.3625C50.8191 8.44998 49.3592 8.02082 48.1079 8.02082C46.8607 8.02082 45.4009 8.44998 42.8899 10.3625C42.0098 11.0333 41.0754 11.825 40.0494 12.7583L40.0285 12.775Z" fill="white" fill-opacity="0.941176"/>
<path d="M85.2763 41.8249C85.0302 41.5583 84.7758 41.2833 84.5172 41.0041L81.7726 38.0416C80.8299 37.0208 80.2919 35.6874 80.2668 34.2999L80.1709 29.3583L81.66 30.8458C90.6987 39.8749 95.216 44.3916 95.216 49.9999C95.216 55.6083 90.6987 60.1249 81.66 69.1499L80.1709 70.6416L80.2668 65.6999C80.2919 64.3083 80.8299 62.9791 81.7726 61.9583L84.513 58.9958C84.7758 58.7166 85.0302 58.4416 85.2763 58.1749L85.4223 58.0166C86.3399 57.0083 87.1241 56.0833 87.7873 55.2124C89.7018 52.7083 90.1314 51.2499 90.1314 49.9999C90.1314 48.7499 89.7018 47.2916 87.7873 44.7874C87.1241 43.9166 86.3399 42.9958 85.4223 41.9874L85.2763 41.8249Z" fill="white" fill-opacity="0.941176"/>
<path d="M56.2373 87.1792C56.5377 86.9042 56.8463 86.6167 57.1675 86.3167L60.0789 83.6292C61.1008 82.6875 62.4356 82.15 63.8287 82.1209L68.7714 82.0292L67.2824 83.5167C58.2436 92.5459 53.7222 97.0584 48.1079 97.0584C42.4936 97.0584 37.9722 92.5459 28.9376 83.5167L27.4443 82.025L32.3996 82.1209C33.7886 82.15 35.115 82.6792 36.1369 83.6167L38.1348 85.4542C39.9576 87.2 41.4926 88.5709 42.8899 89.6375C45.4009 91.5459 46.8607 91.9792 48.1079 91.9792C49.3592 91.9792 50.8191 91.5459 53.3259 89.6375C54.206 88.9667 55.1403 88.175 56.1664 87.2417L56.2373 87.1792Z" fill="white" fill-opacity="0.941176"/>
<path d="M10.8521 58.0749C11.1524 58.4083 11.4694 58.7499 11.8031 59.1041L14.4434 61.9583C15.3902 62.9791 15.9283 64.3124 15.9533 65.6999L16.0493 70.6416L14.556 69.1499C5.51729 60.1249 1 55.6083 1 49.9999C1 44.3916 5.51729 39.8749 14.556 30.8458L16.0451 29.3583L15.9533 34.2958C15.9241 35.6874 15.3902 37.0208 14.4434 38.0416L11.7197 40.9833C11.4486 41.2708 11.19 41.5541 10.9397 41.8291L10.7937 41.9833C9.87607 42.9916 9.09191 43.9166 8.43287 44.7874C6.51835 47.2916 6.08455 48.7499 6.08455 49.9999C6.08455 51.2499 6.51835 52.7083 8.43287 55.2124C9.10025 56.0916 9.89692 57.0249 10.8271 58.0499L10.8521 58.0749Z" fill="white" fill-opacity="0.941176"/>
<path d="M10.8271 41.9458L14.4435 38.0416C15.2819 37.1375 15.7991 35.9875 15.9242 34.7708C15.9409 32.7625 15.9701 31.0125 16.0452 29.4625L16.0493 29.25L16.0535 29.2458C16.1203 27.9083 16.2204 26.725 16.3622 25.6583C16.7835 22.5333 17.5092 21.1958 18.3935 20.3166C19.2778 19.4333 20.6167 18.7083 23.745 18.2875C24.8295 18.1416 26.0391 18.0416 27.4072 17.975L27.4823 17.9708C29.0882 17.8958 30.9109 17.8625 33.0173 17.8458C34.2853 17.7208 35.4783 17.1708 36.4001 16.2791L40.0498 12.7583H37.9434C25.159 12.7583 18.7689 12.7583 14.798 16.725C10.8271 20.6916 10.8271 27.075 10.8271 39.8416V41.9458Z" fill="white" fill-opacity="0.941176"/>
<path d="M10.8271 58.05V60.1584C10.8271 72.925 10.8271 79.3084 14.798 83.2751C18.7689 87.2417 25.159 87.2417 37.9434 87.2417H58.2774C71.0576 87.2417 77.4477 87.2417 81.4186 83.2751C85.3895 79.3084 85.3895 72.925 85.3895 60.1584V58.05L81.7731 61.9584C80.9389 62.8625 80.4217 64.0084 80.2966 65.2209C80.2799 67.275 80.2465 69.0584 80.1715 70.6292L80.1673 70.675C80.1005 72.0417 80.0046 73.2542 79.8544 74.3417C79.4373 77.4667 78.7074 78.8042 77.8273 79.6834C76.943 80.5667 75.6041 81.2917 72.4758 81.7126C71.408 81.8542 70.2234 81.9542 68.8845 82.0209L68.8803 82.0251L68.6926 82.0292C67.1368 82.1042 65.3766 82.1375 63.3536 82.15C62.1357 82.2792 60.9845 82.7917 60.0793 83.6292L56.1669 87.2417H40.0831L36.1373 83.6167C35.2322 82.7876 34.0893 82.2792 32.8797 82.15C30.8317 82.1375 29.0506 82.1042 27.4781 82.0292L27.4114 82.0251C26.0433 81.9584 24.8295 81.8584 23.745 81.7126C20.6167 81.2917 19.2778 80.5667 18.3935 79.6834C17.5092 78.8042 16.7835 77.4667 16.3622 74.3417C16.2162 73.2542 16.1161 72.0459 16.0493 70.6792L16.0452 70.5834C15.9743 69.0251 15.9409 67.2542 15.9242 65.225C15.7991 64.0084 15.2819 62.8625 14.4435 61.9584L10.8271 58.05Z" fill="white" fill-opacity="0.941176"/>
<path d="M80.2965 34.7791C80.4216 35.9916 80.9388 37.1375 81.773 38.0416L85.3894 41.95V39.8416C85.3894 27.075 85.3894 20.6916 81.4185 16.725C77.4476 12.7583 71.0575 12.7583 58.2773 12.7583H56.1709L60.0792 16.3708C60.9843 17.2083 62.1397 17.725 63.3577 17.85C65.3556 17.8625 67.0991 17.8958 68.6424 17.9666L68.9511 17.975L68.9594 17.9833C70.2692 18.05 71.4287 18.1458 72.4757 18.2875C75.604 18.7083 76.9429 19.4333 77.8272 20.3166C78.7073 21.1958 79.4372 22.5333 79.8543 25.6583C80.0003 26.7458 80.1004 27.9541 80.1671 29.3208L80.1713 29.3708C80.2464 30.9416 80.2798 32.725 80.2965 34.7791Z" fill="white" fill-opacity="0.941176"/>
<path d="M44.2499 27.5042L40.8213 30.4126C40.2081 30.9292 39.4407 31.2334 38.6398 31.2709L32.9004 31.5376L35.8911 28.5459C41.668 22.7792 44.5586 19.8917 48.1457 19.8917C51.737 19.8917 54.6234 22.7792 60.4004 28.5459L63.3743 31.5209L57.5557 31.2667C56.7381 31.2334 55.9582 30.9209 55.3408 30.3917L52.7506 28.1584C51.8413 27.3042 51.0738 26.6292 50.3689 26.0917C48.9299 24.9959 48.3835 24.9709 48.1457 24.9709C47.9121 24.9709 47.3657 24.9959 45.9225 26.0917C45.9017 26.1126 45.8766 26.1292 45.8558 26.1459L45.8182 26.1751C45.3344 26.5501 44.8172 26.9876 44.2499 27.5042Z" fill="white" fill-opacity="0.941176"/>
<path d="M71.8541 47.5042C70.8781 46.2667 69.4683 44.8042 67.4369 42.7584C67.1033 42.2292 66.9114 41.6167 66.8864 40.9834L66.6319 34.775L69.5892 37.7292C75.3662 43.5 78.2526 46.3834 78.2526 49.9667C78.2526 53.5542 75.3662 56.4375 69.5892 62.2084L66.6152 65.1792L66.903 59.2459C66.9448 58.4209 67.2618 57.6334 67.8123 57.0167L69.9855 54.5625C70.6695 53.8334 71.241 53.1959 71.7165 52.6084L71.9876 52.3042V52.2667C72.0043 52.2417 72.0251 52.2167 72.046 52.1875C73.1472 50.75 73.1722 50.2042 73.1722 49.9667C73.1722 49.7334 73.1472 49.1875 72.046 47.75C72.0251 47.7209 72.0043 47.6959 71.9876 47.6709V47.6375L71.8541 47.5042Z" fill="white" fill-opacity="0.941176"/>
<path d="M24.3203 47.6625L28.2828 43.3583C28.8459 42.7458 29.1796 41.9625 29.2339 41.1375L29.4549 37.7541C29.4883 36.6875 29.5425 35.7833 29.6343 34.9916L29.6468 34.7541L29.6635 34.7375C29.6676 34.7125 29.6718 34.6833 29.676 34.6583C29.9179 32.8625 30.285 32.4583 30.4518 32.2916C30.6187 32.125 31.0232 31.7583 32.8168 31.5166C33.3966 31.4375 34.0348 31.3833 34.7605 31.3458L39.6282 30.8625C40.4082 30.7875 41.1465 30.4583 41.7263 29.9291L45.8389 26.1666H41.647C33.48 26.1666 29.3965 26.1666 26.8563 28.7C24.6957 30.8625 24.3745 34.1416 24.3287 40.1125C24.3203 41.15 24.3203 42.2708 24.3203 43.475V47.6541V47.6625Z" fill="white" fill-opacity="0.941176"/>
<path d="M24.3203 52.2749V52.2874V56.4583C24.3203 57.6666 24.3203 58.7874 24.3287 59.8249C24.3745 65.7958 24.6957 69.075 26.8563 71.2333C29.0211 73.3958 32.3038 73.7166 38.2809 73.7624C39.3195 73.7708 40.4374 73.7708 41.647 73.7708H45.8223H50.4647H54.6441C55.8537 73.7708 56.9757 73.7708 58.0102 73.7624C63.9873 73.7166 67.2741 73.3958 69.4348 71.2333C71.975 68.7 71.975 64.6208 71.975 56.4583V52.2625L67.7497 56.8374C67.3284 57.2958 67.0322 57.85 66.8862 58.4458C66.8779 61.4125 66.8404 63.4749 66.6485 65.0624L66.6443 65.1499L66.636 65.1583C66.6276 65.1999 66.6235 65.2416 66.6193 65.2791C66.3774 67.0749 66.0103 67.4791 65.8435 67.6458C65.6724 67.8125 65.272 68.1791 63.4743 68.4208C63.4326 68.4249 63.395 68.4333 63.3533 68.4374L63.3408 68.4458L63.199 68.4541C62.2939 68.5625 61.2386 68.6208 59.9497 68.6541L57.055 68.8291C56.2291 68.8791 55.4449 69.2083 54.836 69.7666L50.4188 73.7708H45.8014L41.3884 69.6458C40.8086 69.1041 40.0662 68.7708 39.2778 68.6875C38.9358 68.6875 38.6104 68.6874 38.2934 68.6833C35.9118 68.6624 34.1891 68.6041 32.8168 68.4208C31.0232 68.1791 30.6186 67.8125 30.4518 67.6458C30.285 67.4791 29.9179 67.0749 29.676 65.2791C29.6718 65.2541 29.6676 65.2249 29.6635 65.1999L29.6468 65.1833V65.1499L29.6426 65.0166C29.4799 63.6625 29.4257 61.9708 29.409 59.6749L29.384 59.0833C29.3798 58.925 29.3632 58.7708 29.334 58.6166C29.2172 57.9416 28.9085 57.3124 28.4413 56.7999L24.3203 52.2749Z" fill="white" fill-opacity="0.941176"/>
<path d="M66.8447 37.9666L67.0824 41.1916C67.145 42.0083 67.4787 42.775 68.0293 43.3791L71.9751 47.675V43.475C71.9751 35.3166 71.9751 31.2375 69.4349 28.7C66.8989 26.1666 62.8154 26.1666 54.6443 26.1666H50.4189L54.6526 30.0208C55.2449 30.5583 55.9999 30.8875 56.8007 30.9541L61.7101 31.3541C62.1814 31.3833 62.611 31.4166 63.0156 31.4625L63.3785 31.4916L63.3952 31.5041C63.4202 31.5083 63.4494 31.5125 63.4744 31.5166C65.2722 31.7583 65.6726 32.125 65.8436 32.2916C66.0105 32.4583 66.3775 32.8625 66.6194 34.6583C66.7404 35.5708 66.8071 36.6458 66.8447 37.9666Z" fill="white" fill-opacity="0.941176"/>
<path d="M29.6638 65.1663L29.6475 65.15V65.1825L29.6638 65.1987V65.1663Z" fill="white" fill-opacity="0.941176"/>
<path d="M32.9385 68.4375L38.2941 68.6833C35.9792 68.6667 34.2857 68.6083 32.9385 68.4375Z" fill="white" fill-opacity="0.941176"/>
<path d="M29.4341 59.325C29.4257 59.0875 29.3924 58.8459 29.334 58.6167C29.3632 58.7709 29.3799 58.925 29.384 59.0834L29.4091 59.675C29.4257 61.9709 29.48 63.6625 29.6426 65.0167L29.6468 65.15L29.6635 65.1667L29.4341 59.325Z" fill="white" fill-opacity="0.941176"/>
<path d="M18.0391 49.9667C18.0391 53.025 20.1371 55.5709 24.3291 59.825C24.3207 58.7875 24.3207 57.6667 24.3207 56.4584V52.2875L24.3124 52.2792V52.275C24.2873 52.2459 24.2665 52.2167 24.2456 52.1875C23.1486 50.75 23.1236 50.2042 23.1236 49.9667C23.1236 49.7334 23.1486 49.1875 24.2456 47.75C24.2707 47.7167 24.2957 47.6834 24.3207 47.6542V43.475C24.3207 42.2709 24.3207 41.15 24.3291 40.1125C20.1371 44.3667 18.0391 46.9125 18.0391 49.9667Z" fill="white" fill-opacity="0.941176"/>
<path d="M45.9227 73.8416C45.9018 73.8291 45.8851 73.8125 45.8643 73.7958H45.8518L45.8226 73.7708H41.6473C40.4377 73.7708 39.3199 73.7708 38.2812 73.7625C42.5399 77.95 45.0885 80.0458 48.1459 80.0458C51.2033 80.0458 53.7518 77.95 58.0105 73.7625C56.9761 73.7708 55.854 73.7708 54.6444 73.7708H50.465C50.4316 73.7958 50.4024 73.8208 50.3691 73.8416C48.93 74.9416 48.3836 74.9666 48.1459 74.9666C47.9123 74.9666 47.3659 74.9416 45.9227 73.8416Z" fill="white" fill-opacity="0.941176"/>
<path d="M143.844 76.5H126.099V24.1364H144.202C149.4 24.1364 153.866 25.1847 157.599 27.2812C161.349 29.3608 164.23 32.3523 166.241 36.2557C168.253 40.1591 169.258 44.8295 169.258 50.267C169.258 55.7216 168.244 60.4091 166.216 64.3295C164.204 68.25 161.298 71.2585 157.497 73.3551C153.713 75.4517 149.162 76.5 143.844 76.5ZM135.585 68.2926H143.383C147.031 68.2926 150.074 67.6278 152.511 66.2983C154.949 64.9517 156.781 62.9489 158.008 60.2898C159.236 57.6136 159.849 54.2727 159.849 50.267C159.849 46.2614 159.236 42.9375 158.008 40.2955C156.781 37.6364 154.966 35.6506 152.562 34.3381C150.176 33.0085 147.21 32.3438 143.665 32.3438H135.585V68.2926ZM194.993 77.267C191.158 77.267 187.834 76.4233 185.021 74.7358C182.209 73.0483 180.027 70.6875 178.476 67.6534C176.942 64.6193 176.175 61.0739 176.175 57.017C176.175 52.9602 176.942 49.4062 178.476 46.3551C180.027 43.304 182.209 40.9347 185.021 39.2472C187.834 37.5597 191.158 36.7159 194.993 36.7159C198.828 36.7159 202.152 37.5597 204.964 39.2472C207.777 40.9347 209.95 43.304 211.484 46.3551C213.035 49.4062 213.811 52.9602 213.811 57.017C213.811 61.0739 213.035 64.6193 211.484 67.6534C209.95 70.6875 207.777 73.0483 204.964 74.7358C202.152 76.4233 198.828 77.267 194.993 77.267ZM195.044 69.8523C197.123 69.8523 198.862 69.2812 200.26 68.1392C201.658 66.9801 202.697 65.429 203.379 63.4858C204.078 61.5426 204.427 59.3778 204.427 56.9915C204.427 54.5881 204.078 52.4148 203.379 50.4716C202.697 48.5114 201.658 46.9517 200.26 45.7926C198.862 44.6335 197.123 44.054 195.044 44.054C192.913 44.054 191.141 44.6335 189.726 45.7926C188.328 46.9517 187.28 48.5114 186.581 50.4716C185.899 52.4148 185.558 54.5881 185.558 56.9915C185.558 59.3778 185.899 61.5426 186.581 63.4858C187.28 65.429 188.328 66.9801 189.726 68.1392C191.141 69.2812 192.913 69.8523 195.044 69.8523ZM238.797 77.267C234.877 77.267 231.511 76.4062 228.698 74.6847C225.903 72.9631 223.746 70.5852 222.229 67.5511C220.729 64.5 219.979 60.9886 219.979 57.017C219.979 53.0284 220.746 49.5085 222.28 46.4574C223.815 43.3892 225.979 41.0028 228.775 39.2983C231.587 37.5767 234.911 36.7159 238.746 36.7159C241.934 36.7159 244.755 37.304 247.209 38.4801C249.681 39.6392 251.65 41.2841 253.116 43.4148C254.582 45.5284 255.417 48 255.621 50.8295H246.775C246.417 48.9375 245.565 47.3608 244.218 46.0994C242.888 44.821 241.107 44.1818 238.874 44.1818C236.982 44.1818 235.32 44.6932 233.888 45.7159C232.457 46.7216 231.34 48.1705 230.539 50.0625C229.755 51.9545 229.363 54.2216 229.363 56.8636C229.363 59.5398 229.755 61.8409 230.539 63.767C231.323 65.6761 232.422 67.1506 233.837 68.1903C235.269 69.2131 236.948 69.7244 238.874 69.7244C240.238 69.7244 241.457 69.4687 242.53 68.9574C243.621 68.429 244.533 67.6705 245.266 66.6818C245.999 65.6932 246.502 64.4915 246.775 63.0767H255.621C255.4 65.8551 254.582 68.3182 253.167 70.4659C251.752 72.5966 249.826 74.267 247.388 75.4773C244.951 76.6705 242.087 77.267 238.797 77.267ZM288.253 59.983V37.2273H297.508V76.5H288.534V69.5199H288.125C287.239 71.7187 285.781 73.517 283.753 74.9148C281.741 76.3125 279.261 77.0114 276.312 77.0114C273.739 77.0114 271.463 76.4403 269.486 75.2983C267.525 74.1392 265.991 72.4602 264.883 70.2614C263.775 68.0455 263.222 65.3693 263.222 62.233V37.2273H272.477V60.8011C272.477 63.2898 273.159 65.267 274.523 66.733C275.886 68.1989 277.676 68.9318 279.892 68.9318C281.256 68.9318 282.577 68.5994 283.855 67.9347C285.133 67.2699 286.182 66.2812 287 64.9688C287.835 63.6392 288.253 61.9773 288.253 59.983ZM307.026 76.5V37.2273H315.873V43.9006H316.333C317.151 41.6506 318.506 39.8949 320.398 38.6335C322.29 37.3551 324.549 36.7159 327.174 36.7159C329.833 36.7159 332.074 37.3636 333.898 38.6591C335.739 39.9375 337.035 41.6847 337.785 43.9006H338.194C339.063 41.7187 340.529 39.9801 342.592 38.6847C344.671 37.3722 347.134 36.7159 349.981 36.7159C353.594 36.7159 356.543 37.858 358.827 40.142C361.111 42.4261 362.253 45.7585 362.253 50.1392V76.5H352.972V51.571C352.972 49.1335 352.324 47.3523 351.029 46.2273C349.734 45.0852 348.148 44.5142 346.273 44.5142C344.04 44.5142 342.293 45.2131 341.032 46.6108C339.788 47.9915 339.165 49.7898 339.165 52.0057V76.5H330.089V51.1875C330.089 49.1591 329.475 47.5398 328.248 46.3295C327.038 45.1193 325.452 44.5142 323.492 44.5142C322.163 44.5142 320.952 44.8551 319.861 45.5369C318.771 46.2017 317.901 47.1477 317.253 48.375C316.606 49.5852 316.282 51 316.282 52.6193V76.5H307.026ZM389.03 77.267C385.092 77.267 381.692 76.4489 378.828 74.8125C375.981 73.1591 373.791 70.8239 372.257 67.8068C370.723 64.7727 369.956 61.2017 369.956 57.0938C369.956 53.054 370.723 49.5085 372.257 46.4574C373.808 43.3892 375.973 41.0028 378.751 39.2983C381.53 37.5767 384.794 36.7159 388.544 36.7159C390.964 36.7159 393.248 37.108 395.396 37.892C397.561 38.6591 399.47 39.8523 401.123 41.4716C402.794 43.0909 404.106 45.1534 405.061 47.6591C406.016 50.1477 406.493 53.1136 406.493 56.5568V59.3949H374.302V53.1562H397.621C397.604 51.3835 397.22 49.8068 396.47 48.4261C395.72 47.0284 394.672 45.929 393.325 45.1278C391.996 44.3267 390.445 43.9261 388.672 43.9261C386.78 43.9261 385.118 44.3864 383.686 45.3068C382.254 46.2102 381.138 47.4034 380.337 48.8864C379.552 50.3523 379.152 51.9631 379.135 53.7188V59.1648C379.135 61.4489 379.552 63.4091 380.388 65.0455C381.223 66.6648 382.391 67.9091 383.891 68.7784C385.391 69.6307 387.146 70.0568 389.158 70.0568C390.504 70.0568 391.723 69.8693 392.814 69.4943C393.905 69.1023 394.851 68.5312 395.652 67.7812C396.453 67.0312 397.058 66.1023 397.467 64.9943L406.109 65.9659C405.564 68.25 404.524 70.2443 402.99 71.9489C401.473 73.6364 399.53 74.9489 397.16 75.8864C394.791 76.8068 392.081 77.267 389.03 77.267ZM423.579 53.4886V76.5H414.323V37.2273H423.17V43.9006H423.63C424.533 41.7017 425.974 39.9545 427.951 38.6591C429.945 37.3636 432.408 36.7159 435.34 36.7159C438.05 36.7159 440.411 37.2955 442.422 38.4545C444.451 39.6136 446.019 41.2926 447.127 43.4915C448.252 45.6903 448.806 48.358 448.789 51.4943V76.5H439.533V52.9261C439.533 50.3011 438.851 48.2472 437.488 46.7642C436.141 45.2812 434.275 44.5398 431.888 44.5398C430.269 44.5398 428.829 44.8977 427.567 45.6136C426.323 46.3125 425.343 47.3267 424.627 48.6562C423.928 49.9858 423.579 51.5966 423.579 53.4886ZM489.238 47.608L480.8 48.5284C480.562 47.6761 480.144 46.875 479.547 46.125C478.968 45.375 478.184 44.7699 477.195 44.3097C476.207 43.8494 474.996 43.6193 473.565 43.6193C471.638 43.6193 470.019 44.0369 468.707 44.8722C467.411 45.7074 466.772 46.7898 466.789 48.1193C466.772 49.2614 467.19 50.1903 468.042 50.9062C468.911 51.6222 470.343 52.2102 472.337 52.6705L479.036 54.1023C482.752 54.9034 485.513 56.1733 487.32 57.9119C489.144 59.6506 490.065 61.9261 490.082 64.7386C490.065 67.2102 489.34 69.392 487.908 71.2841C486.494 73.1591 484.525 74.625 482.002 75.6818C479.479 76.7386 476.582 77.267 473.309 77.267C468.502 77.267 464.633 76.2614 461.701 74.25C458.769 72.2216 457.022 69.4006 456.459 65.7869L465.485 64.9176C465.894 66.6903 466.763 68.0284 468.093 68.9318C469.422 69.8352 471.153 70.2869 473.283 70.2869C475.482 70.2869 477.246 69.8352 478.576 68.9318C479.922 68.0284 480.596 66.9119 480.596 65.5824C480.596 64.4574 480.161 63.5284 479.292 62.7955C478.44 62.0625 477.11 61.5 475.303 61.108L468.604 59.7017C464.837 58.9176 462.05 57.5966 460.244 55.7386C458.437 53.8636 457.542 51.4943 457.559 48.6307C457.542 46.2102 458.198 44.1136 459.528 42.3409C460.874 40.5511 462.741 39.1705 465.127 38.1989C467.53 37.2102 470.3 36.7159 473.437 36.7159C478.039 36.7159 481.661 37.696 484.303 39.6562C486.962 41.6165 488.607 44.267 489.238 47.608ZM514.844 77.267C511.009 77.267 507.685 76.4233 504.873 74.7358C502.06 73.0483 499.878 70.6875 498.327 67.6534C496.793 64.6193 496.026 61.0739 496.026 57.017C496.026 52.9602 496.793 49.4062 498.327 46.3551C499.878 43.304 502.06 40.9347 504.873 39.2472C507.685 37.5597 511.009 36.7159 514.844 36.7159C518.68 36.7159 522.003 37.5597 524.816 39.2472C527.628 40.9347 529.802 43.304 531.336 46.3551C532.887 49.4062 533.663 52.9602 533.663 57.017C533.663 61.0739 532.887 64.6193 531.336 67.6534C529.802 70.6875 527.628 73.0483 524.816 74.7358C522.003 76.4233 518.68 77.267 514.844 77.267ZM514.896 69.8523C516.975 69.8523 518.714 69.2812 520.111 68.1392C521.509 66.9801 522.549 65.429 523.231 63.4858C523.93 61.5426 524.279 59.3778 524.279 56.9915C524.279 54.5881 523.93 52.4148 523.231 50.4716C522.549 48.5114 521.509 46.9517 520.111 45.7926C518.714 44.6335 516.975 44.054 514.896 44.054C512.765 44.054 510.992 44.6335 509.577 45.7926C508.18 46.9517 507.131 48.5114 506.432 50.4716C505.751 52.4148 505.41 54.5881 505.41 56.9915C505.41 59.3778 505.751 61.5426 506.432 63.4858C507.131 65.429 508.18 66.9801 509.577 68.1392C510.992 69.2812 512.765 69.8523 514.896 69.8523Z" fill="white"/>
</svg>
