<svg width="57" height="20" viewBox="0 0 57 20" fill="none" xmlns="http://www.w3.org/2000/svg">
<path d="M25 12.1024C25 14.7281 26.7446 16.7195 29.7228 16.7195C31.4145 16.7195 32.5071 16.1556 33.2296 15.5564L32.2604 13.6356C31.6436 14.1642 30.8154 14.5343 29.758 14.5343C28.7359 14.5343 27.6786 14.0233 27.3966 12.8426L27.379 12.8073H33.864V12.1729C33.864 9.33571 32.2075 7.48536 29.5113 7.48536C26.7446 7.48536 25 9.49431 25 12.1024ZM31.3264 11.1156H27.3614C27.5905 10.0406 28.3306 9.45906 29.4408 9.45906C30.5687 9.45906 31.2207 10.164 31.3264 11.1156Z" fill="white"/>
<path d="M37.1707 4.17236H34.8269V16.508H37.1707V4.17236Z" fill="white"/>
<path d="M40.9956 4.17236H38.6694V16.508H40.9956V15.2744C41.6652 16.226 42.7049 16.7195 43.9209 16.7195C46.2999 16.7195 47.9388 14.8515 47.9388 12.1024C47.9388 9.37095 46.3175 7.48536 43.9561 7.48536C42.7402 7.48536 41.6828 8.01403 40.9956 8.96564V4.17236ZM45.5421 12.1024C45.5421 13.4946 44.5905 14.4462 43.2336 14.4462C41.8767 14.4462 40.9251 13.5122 40.9251 12.1024C40.9251 10.6926 41.8767 9.75864 43.2336 9.75864C44.5905 9.75864 45.5421 10.7103 45.5421 12.1024Z" fill="white"/>
<path d="M48.6318 9.49431L50.3588 10.7279C50.6408 10.0054 51.4338 9.58242 52.5616 9.58242C53.5485 9.58242 54.0947 9.91725 54.0947 10.4812V10.6221C54.0947 10.8336 53.9538 10.9393 53.6366 10.9746L51.2223 11.1861C49.5129 11.3447 48.4027 12.4196 48.4027 13.9528C48.4027 15.574 49.6363 16.7195 51.3809 16.7195C52.5616 16.7195 53.5308 16.1908 54.0947 15.3273V16.5256H56.4209V11.0803C56.4209 8.66606 55.1697 7.48536 52.5616 7.48536C50.5703 7.48536 49.1781 8.20788 48.6318 9.49431ZM54.0947 12.5958V12.9483C54.0947 13.988 53.2313 14.7986 52.0682 14.7986C51.2928 14.7986 50.817 14.4286 50.817 13.8294C50.817 13.3007 51.2223 12.9483 51.9096 12.8602L54.0947 12.5958Z" fill="white"/>
<g clip-path="url(#clip0_736_11448)">
<rect width="21" height="21" transform="translate(-0.398438 -0.398438)" fill="white" fill-opacity="0.16"/>
<path fill-rule="evenodd" clip-rule="evenodd" d="M10 15.5003C13.0376 15.5003 15.5 13.0378 15.5 10.0001C15.5 6.9625 13.0376 4.5 10 4.5C6.96243 4.5 4.5 6.9625 4.5 10.0001C4.5 13.0378 6.96243 15.5003 10 15.5003ZM10.0018 6.91669C8.434 6.91669 7.13696 8.07723 6.92123 9.58695C6.80332 10.4121 13.1998 10.4084 13.0824 9.58695C12.8667 8.07723 11.5696 6.91669 10.0018 6.91669Z" fill="white"/>
</g>
<defs>
<clipPath id="clip0_736_11448">
<rect width="20" height="20.0005" rx="10" fill="white"/>
</clipPath>
</defs>
</svg>
