<svg width="150" height="33" fill="none" xmlns="http://www.w3.org/2000/svg">
  <path
    d="M14.098 17.28c1.56.902 2.34 1.353 3.197 1.354.857 0 1.638-.449 3.2-1.348l9.935-5.718a1.449 1.449 0 0 0 0-2.512l-9.939-5.72c-1.56-.898-2.34-1.347-3.196-1.346-.856 0-1.636.45-3.195 1.349L5.56 8.262a9.604 9.604 0 0 0-4.878 8.286v.315a9.604 9.604 0 0 0 4.868 8.281l5.341 3.087c3.125 1.807 4.688 2.71 6.404 2.71 1.716.002 3.28-.9 6.406-2.705l5.644-3.258c1.563-.902 2.344-1.353 2.773-2.096.429-.743.429-1.645.429-3.45v-3.495a1.38 1.38 0 0 0-2.068-1.196l-11.588 6.67c-.78.448-1.169.673-1.596.673-.428 0-.817-.224-1.597-.672l-7.84-4.506c-.394-.227-.591-.34-.75-.36a.8.8 0 0 0-.843.49c-.06.148-.059.375-.056.83.002.334.002.501.034.655.07.343.25.654.513.885.118.103.263.187.553.354l8.385 4.846c.781.451 1.172.677 1.6.677.43 0 .82-.225 1.602-.676l10.278-5.933c.267-.154.4-.23.5-.173.1.058.1.212.1.52v1.584c0 .451 0 .677-.107.862-.107.186-.302.299-.693.524L20.5 26.883c-1.564.902-2.346 1.354-3.204 1.353-.858 0-1.64-.452-3.202-1.356l-7.927-4.584-.056-.033a5.452 5.452 0 0 1-2.696-4.673v-1.521c0-1.063.566-2.046 1.486-2.58a2.627 2.627 0 0 1 2.633-.002l6.565 3.794Zm39.789 6.93c-1.705 0-3.173-.312-4.407-.935-1.233-.638-2.182-1.518-2.848-2.64-.651-1.137-.977-2.44-.977-3.908 0-1.456.333-2.744.998-3.867.665-1.136 1.615-2.023 2.848-2.66 1.233-.638 2.702-.957 4.407-.957 1.552 0 2.862.229 3.929.686 1.08.457 1.905 1.081 2.473 1.871a4.88 4.88 0 0 1 .977 2.64h-3.014a2.653 2.653 0 0 0-.312-.894c-.152-.319-.395-.61-.727-.873-.319-.263-.742-.478-1.268-.644-.513-.167-1.144-.25-1.892-.25h-.332c-1.04 0-1.954.194-2.744.582a4.248 4.248 0 0 0-1.809 1.684c-.43.735-.644 1.628-.644 2.682 0 1.039.215 1.933.644 2.681a4.381 4.381 0 0 0 1.83 1.684c.79.388 1.697.582 2.723.582h.332c1.012 0 1.864-.132 2.557-.395.693-.277 1.22-.617 1.58-1.018.36-.402.54-.797.54-1.185v-.167h-4.78v-2.536h5.55c.637 0 1.122.174 1.455.52.346.346.52.838.52 1.476v5.633H58.75v-1.621c-.18.235-.478.499-.893.79-.402.277-.929.52-1.58.727-.652.208-1.448.312-2.39.312Zm9.837-.208V9.451h2.869v14.551h-2.87Zm10.173 0V11.987h-5.862V9.451h14.593v2.536h-5.862v12.015h-2.869Zm10.17 0V9.451h8.273c.873 0 1.656.16 2.349.478.693.305 1.24.742 1.642 1.31.402.568.603 1.254.603 2.058 0 .831-.229 1.531-.686 2.1-.458.567-.998.97-1.622 1.205.5.11.95.319 1.352.623.401.305.72.693.956 1.165.235.47.353 1.025.353 1.663 0 .803-.215 1.503-.644 2.1-.416.581-.977 1.039-1.684 1.371-.707.319-1.497.478-2.37.478h-8.523Zm2.868-2.536h5.238c.693 0 1.234-.16 1.622-.478.402-.333.603-.776.603-1.33 0-.596-.201-1.04-.603-1.33-.388-.292-.929-.437-1.622-.437h-5.238v3.575Zm0-6.111h5.093c.637 0 1.13-.146 1.476-.437.36-.29.54-.727.54-1.31 0-.485-.18-.873-.54-1.164-.347-.305-.839-.457-1.476-.457h-5.093v3.368Zm19.838 8.855c-1.566 0-2.973-.298-4.22-.894-1.247-.61-2.231-1.469-2.952-2.577-.72-1.123-1.08-2.46-1.08-4.012 0-1.553.36-2.883 1.08-3.992.721-1.122 1.705-1.981 2.952-2.577 1.247-.61 2.654-.915 4.22-.915 1.58 0 2.986.305 4.22.915 1.247.596 2.224 1.455 2.931 2.577.72 1.11 1.081 2.44 1.081 3.992s-.361 2.89-1.081 4.012c-.707 1.108-1.684 1.967-2.931 2.577-1.234.596-2.64.894-4.22.894Zm-.167-2.536h.333c.942 0 1.802-.194 2.578-.582a4.63 4.63 0 0 0 1.891-1.684c.472-.748.707-1.642.707-2.681 0-1.054-.235-1.947-.707-2.682a4.626 4.626 0 0 0-1.891-1.684c-.776-.388-1.636-.582-2.578-.582h-.333c-.928 0-1.787.194-2.577.582a4.78 4.78 0 0 0-1.913 1.684c-.471.735-.706 1.628-.706 2.682 0 1.039.235 1.933.706 2.681a4.777 4.777 0 0 0 1.913 1.684c.79.388 1.649.582 2.577.582Zm17.727 2.536c-1.566 0-2.972-.298-4.22-.894-1.247-.61-2.231-1.469-2.951-2.577-.721-1.123-1.081-2.46-1.081-4.012 0-1.553.36-2.883 1.081-3.992.72-1.122 1.704-1.981 2.951-2.577 1.248-.61 2.654-.915 4.22-.915 1.58 0 2.987.305 4.22.915 1.247.596 2.224 1.455 2.931 2.577.721 1.11 1.081 2.44 1.081 3.992s-.36 2.89-1.081 4.012c-.707 1.108-1.684 1.967-2.931 2.577-1.233.596-2.64.894-4.22.894Zm-.166-2.536h.332c.943 0 1.802-.194 2.578-.582a4.63 4.63 0 0 0 1.892-1.684c.471-.748.707-1.642.707-2.681 0-1.054-.236-1.947-.707-2.682a4.629 4.629 0 0 0-1.892-1.684c-.776-.388-1.635-.582-2.578-.582h-.332c-.929 0-1.788.194-2.578.582-.79.388-1.427.95-1.912 1.684-.471.735-.707 1.628-.707 2.682 0 1.039.236 1.933.707 2.681a4.774 4.774 0 0 0 1.912 1.684c.79.388 1.649.582 2.578.582Zm12.675-1.996-.831-2.619 8.897-7.608h3.97l-12.036 10.227Zm-2.307 4.324V9.451h2.869v14.551h-2.869Zm10.892 0-6.568-7.234 2.494-1.393 7.858 8.627h-3.784Z"
    fill="#ffffff"></path>
</svg>