<svg width="100%" height="100%" viewBox="0 0 125 32" fill="none" xmlns="http://www.w3.org/2000/svg">
<path d="M28.7169 2.05797C23.6933 12.0636 24.1965 20.4358 29.0519 29.9382C29.2619 30.3565 29.0936 30.6499 28.6335 30.6499H18.5088C18.3609 30.6644 18.2125 30.6262 18.0899 30.542C17.9674 30.4578 17.8784 30.3331 17.8388 30.1898C16.0744 25.5428 14.986 21.0641 14.986 16.5825C14.986 16.2058 14.7776 15.9973 14.4009 15.9973H10.9674C9.58569 15.9973 9.12561 16.4574 9.12561 17.8391C9.12561 21.146 9.50231 25.6247 10.8007 29.9784C10.9257 30.3982 10.7158 30.6484 10.2974 30.6484H0.628301C0.251602 30.6484 0.0416653 30.4399 0.0416653 30.0632L-0.00598145 1.9329C-0.00598145 1.51451 0.203956 1.34626 0.579166 1.34626H10.9198C11.3382 1.34626 11.5481 1.59789 11.4215 2.01628C10.3793 5.53313 9.57974 9.71851 9.41298 11.6943C9.28791 13.1177 9.71076 13.7029 11.0508 13.7029H14.6093C14.7642 13.712 14.9165 13.6603 15.0339 13.5588C15.1512 13.4573 15.2244 13.314 15.2377 13.1594C15.6561 9.72595 16.6611 5.62396 18.0845 1.81528C18.1241 1.67185 18.213 1.54695 18.3355 1.46254C18.458 1.37813 18.6064 1.33959 18.7545 1.35371H28.2985C28.7169 1.34626 28.9269 1.63958 28.7169 2.05797ZM60.5323 14.9938C60.5323 23.9527 54.797 31.445 43.9546 31.445C42.0637 31.457 40.1892 31.0941 38.4394 30.3774C36.6896 29.6606 35.0992 28.6042 33.7602 27.2691C32.4211 25.934 31.3599 24.3468 30.6379 22.5992C29.9159 20.8515 29.5474 18.9781 29.5537 17.0872C29.5537 8.17003 35.2891 0.677734 46.1314 0.677734C54.0853 0.677734 60.5323 7.03992 60.5323 14.9938ZM49.1882 15.9988C46.4664 8.17002 43.1595 3.77768 40.8576 3.77768C38.5558 3.77768 38.1359 8.173 40.8576 16.0018C43.6196 23.9527 46.9697 28.345 49.3133 28.345C51.5735 28.345 51.9576 23.9527 49.1882 15.9988ZM102.73 1.76614C102.73 10.6402 99.9666 18.7608 94.1896 29.1431C93.5612 30.2732 93.0178 30.6499 92.3478 30.6499H84.3939C84.2738 30.6528 84.1567 30.612 84.0644 30.535C83.9721 30.458 83.9109 30.3502 83.8921 30.2315C83.3889 24.1611 83.0956 19.5112 81.8404 14.4071C81.6736 13.6954 81.3386 13.6954 81.1287 14.3655C78.9519 21.4825 77.2351 25.2495 74.8499 29.1431C74.2632 30.1064 73.3833 30.6499 72.6299 30.6499H61.9096C61.4063 30.6499 61.1979 30.2315 61.4495 29.8131C66.4717 20.7708 65.8448 11.1851 60.9463 1.84952C60.7795 1.55174 60.9046 1.34626 61.2813 1.34626H71.872C71.9759 1.33954 72.0789 1.36934 72.1632 1.43051C72.2475 1.49169 72.3078 1.58038 72.3336 1.68127C74.7159 8.88173 75.1372 16.6256 73.7138 24.7061C73.5887 25.4178 74.092 25.5845 74.427 24.8728C79.1916 14.7005 80.7058 8.96511 78.6541 1.80783C78.5707 1.51005 78.7792 1.34626 79.1142 1.34626H88.1147C88.2278 1.34555 88.3388 1.37656 88.4351 1.43578C88.5315 1.495 88.6093 1.58005 88.6597 1.68127C91.5065 8.6301 92.5949 15.6638 93.4734 24.7478C93.5568 25.5428 94.1017 25.5011 94.395 24.8311C96.8637 19.1806 97.5337 11.8953 94.73 2.56123C94.4784 1.72296 94.8551 1.34626 95.8184 1.34626H102.181C102.478 1.34626 102.73 1.47282 102.73 1.76614ZM111.311 28.473C117.591 27.7613 120.989 25.4178 123.828 16.8773C124.037 16.2504 125 16.2504 125 16.919V30.1481C125.003 30.2147 124.992 30.2812 124.967 30.3433C124.943 30.4054 124.906 30.4618 124.859 30.509C124.812 30.5561 124.755 30.593 124.693 30.6172C124.631 30.6415 124.565 30.6526 124.498 30.6499H100.93C100.51 30.6499 100.26 30.2732 100.51 29.7297C105.619 18.6774 107.955 10.6402 107.955 1.84952C107.949 1.78189 107.957 1.71372 107.98 1.64986C108.004 1.58599 108.04 1.528 108.088 1.47997C108.136 1.43195 108.194 1.39508 108.258 1.37197C108.322 1.34886 108.39 1.34009 108.458 1.34626H117.415C117.75 1.34626 117.919 1.5562 117.919 1.9329C117.919 12.2303 115.657 19.5157 110.968 27.9296C110.77 28.3063 110.934 28.5147 111.311 28.473Z" fill="white"></path>
</svg>