<svg width="700" height="84" viewBox="0 0 700 84" fill="none" xmlns="http://www.w3.org/2000/svg">
<path d="M74.2925 79.579H59.2275V35.6448L41.9443 60.8757H36.1144L18.8311 35.6448V79.579H3.9726V5.3364H16.3547L39.1067 39.0642L61.9104 5.3364H74.2925V79.579ZM163.677 79.579H107.648V5.3364H163.212V20.102H122.713V34.8158H159.136V49.5813H122.713V64.8136H163.677V79.579ZM229.483 80.667C222.123 80.667 215.656 79.0436 210.085 75.7968C204.513 72.5155 200.162 68.0082 197.032 62.2746C193.902 56.5064 192.337 49.8925 192.337 42.4318C192.337 32.2081 195.656 23.3833 202.294 15.9573C209.345 8.15137 218.219 4.24841 228.916 4.24841C238.89 4.24841 247.747 7.4433 255.485 13.8331L259.561 17.2007L249.604 28.7024L245.683 25.2829C240.902 21.0346 235.227 18.9104 228.658 18.9104C222.57 18.9104 217.548 21.1555 213.593 25.6456C209.569 30.1358 207.557 35.7311 207.557 42.4318C207.557 49.6162 209.534 55.3667 213.49 59.6843C217.445 63.9674 222.828 66.1085 229.638 66.1085C235.382 66.1085 240.421 64.5545 244.754 61.4456V50.8249H223.499V36.0593H259.613V68.2328L257.91 69.7872C249.724 77.0404 240.249 80.667 229.483 80.667ZM365.507 79.579H348.946L342.651 64.8136H307.724L301.429 79.579H284.868L316.958 4.87011H333.416L365.507 79.579ZM336.357 50.1516L325.161 23.9359L314.018 50.1516H336.357ZM480.715 80.5114C469.947 80.5114 460.248 76.6602 451.615 68.9583L447.85 65.5386L457.756 54.089L461.674 57.7156C467.455 63.1035 473.887 65.7977 480.97 65.7977C484.035 65.7977 486.61 65.1416 488.71 63.829C490.841 62.4819 491.911 60.5822 491.911 58.1298C491.911 56.1611 491.36 54.7623 490.26 53.9334C488.675 52.4483 484.598 51.015 478.03 49.6334C469.189 47.8372 462.709 45.0568 458.579 41.292C454.489 37.5272 452.442 32.5535 452.442 26.3709C452.442 22.3643 453.525 18.7032 455.691 15.3874C457.892 12.0716 460.904 9.41208 464.721 7.40877C468.573 5.4055 473.028 4.40384 478.082 4.40384C487.367 4.40384 495.71 7.37424 503.106 13.315L507.13 16.579L497.533 28.5469L493.509 25.0239C489.001 21.0519 483.792 19.0658 477.875 19.0658C474.851 19.0658 472.355 19.7221 470.396 21.0346C468.467 22.3471 467.508 24.0395 467.508 26.1119C467.508 27.4589 467.697 28.4433 468.076 29.065C468.45 29.6867 468.864 30.153 469.313 30.4638C470.893 32.0182 475.106 33.5379 481.952 35.0231C490.379 36.7155 496.657 39.4269 500.782 43.1571C504.911 46.853 506.972 51.7573 506.972 57.8707C506.972 64.4678 504.379 69.9942 499.184 74.4497C494.231 78.491 488.076 80.5114 480.715 80.5114ZM596.515 79.579H540.484V5.3364H596.048V20.102H555.549V34.8158H591.971V49.5813H555.549V64.8136H596.515V79.579ZM662.218 80.667C651.383 80.667 642.389 76.7986 635.235 69.0618C628.525 61.7047 625.175 52.8281 625.175 42.4318C625.175 32.139 628.56 23.2796 635.336 15.8537C642.56 8.11684 651.59 4.24841 662.425 4.24841C673.255 4.24841 682.236 8.11684 689.355 15.8537C696.095 23.2106 699.467 32.07 699.467 42.4318C699.467 52.7591 696.077 61.6357 689.302 69.0618C682.077 76.7986 673.052 80.667 662.218 80.667ZM662.425 66.005C665.621 66.005 668.491 65.4524 671.04 64.3471C673.585 63.2074 675.905 61.515 678.005 59.2696C682.165 54.8485 684.248 49.236 684.248 42.4318C684.248 35.8002 682.13 30.2221 677.899 25.6974C673.774 21.1727 668.544 18.9104 662.218 18.9104C655.922 18.9104 650.745 21.1555 646.686 25.6456C642.49 30.0667 640.394 35.6621 640.394 42.4318C640.394 49.167 642.508 54.7451 646.738 59.1661C650.868 63.7255 656.094 66.005 662.425 66.005Z" fill="white" fill-opacity="0.85"/>
</svg>
