<svg width="337" height="112" viewBox="0 0 337 112" fill="none" xmlns="http://www.w3.org/2000/svg"
  class="size-16" aria-hidden="true">
  <path fill-rule="evenodd" clip-rule="evenodd"
    d="M174 111.5H135.5C123.074 111.5 113 101.426 113 89V46.5C113 45.3954 112.105 44.5 111 44.5H93C91.8954 44.5 91 43.6046 91 42.5V24.5C91 23.3954 91.8954 22.5 93 22.5H111C112.105 22.5 113 21.6046 113 20.5V2C113 0.895431 113.895 0 115 0H133.5C134.605 0 135.5 0.89543 135.5 2V20.5C135.5 21.6046 136.395 22.5 137.5 22.5H160H178C179.105 22.5 180 21.6046 180 20.5V2C180 0.895431 180.895 0 182 0H200.5C201.605 0 202.5 0.89543 202.5 2V20.5C202.5 21.6046 203.395 22.5 204.5 22.5H241C242.105 22.5 243 23.3954 243 24.5V43.5C243 44.6046 242.105 45.5 241 45.5H204.5C203.395 45.5 202.5 46.3954 202.5 47.5V81C202.5 85.4183 206.082 89 210.5 89H241C242.105 89 243 89.8954 243 91V109.5C243 110.605 242.105 111.5 241 111.5H202.5C190.074 111.5 180 101.426 180 89V47.5C180 46.3954 179.105 45.5 178 45.5H160H137.5C136.395 45.5 135.5 46.3954 135.5 47.5V81C135.5 85.4183 139.082 89 143.5 89H174C175.105 89 176 89.8954 176 91V109.5C176 110.605 175.105 111.5 174 111.5ZM0 84V51C0 35.536 12.536 23 28 23H61C76.464 23 89 35.536 89 51V84C89 99.464 76.464 112 61 112H28C12.536 112 0 99.464 0 84ZM58 45C62.4183 45 66 48.5817 66 53V81C66 85.4183 62.4183 89 58 89H30C25.5817 89 22 85.4183 22 81L22 53C22 48.5817 25.5817 45 30 45H58ZM248 84V51C248 35.536 260.536 23 276 23H309C324.464 23 337 35.536 337 51V84C337 99.464 324.464 112 309 112H276C260.536 112 248 99.464 248 84ZM306 45C310.418 45 314 48.5817 314 53V81C314 85.4183 310.418 89 306 89H278C273.582 89 270 85.4183 270 81V53C270 48.5817 273.582 45 278 45H306Z"
    fill="#ffffff"></path>
</svg>