<svg width="1742" height="207" viewBox="0 0 1742 207" fill="none" xmlns="http://www.w3.org/2000/svg">
<mask id="mask0_1798_422" style="mask-type:alpha" maskUnits="userSpaceOnUse" x="24" y="1" width="1718" height="206">
<path d="M611.934 93.668C592.576 88.9626 587.344 86.8714 587.344 79.029C587.344 73.8008 591.53 68.0498 604.609 68.0498C615.596 68.0498 624.49 72.7552 632.338 80.5975L650.126 63.3444C638.616 51.3195 624.49 44 605.656 44C581.589 44 562.232 57.5934 562.232 79.5519C562.232 103.602 577.927 110.921 600.424 115.627C623.444 120.855 627.629 124.515 627.629 132.357C627.629 141.768 620.828 145.427 606.179 145.427C594.669 145.427 583.682 141.245 574.788 131.311L557 146.996C566.417 160.589 584.205 168.954 604.086 168.954C637.57 168.954 651.695 153.27 651.695 130.266C652.742 104.647 631.291 97.8506 611.934 93.668ZM724.417 44.5228C690.934 44.5228 671.576 70.1411 671.576 107.261C671.576 144.382 691.457 170 724.417 170C757.378 170 777.258 144.382 777.258 107.261C777.258 70.1411 757.378 44.5228 724.417 44.5228ZM724.417 145.427C704.536 145.427 696.689 128.697 696.689 106.739C696.689 84.7801 705.06 68.0498 724.417 68.0498C744.298 68.0498 752.146 84.7801 752.146 106.739C752.146 128.697 743.775 145.427 724.417 145.427ZM875.616 114.581C875.616 133.925 866.199 145.95 850.503 145.95C834.808 145.95 825.391 133.402 825.391 114.058V46.0913H800.801V114.581C800.801 150.133 820.682 170 849.98 170C880.848 170 899.159 149.61 899.159 114.581V46.6141H874.57V114.581H875.616ZM1004.84 97.8506C1004.84 104.647 1005.36 119.809 1005.36 124.514C1003.79 121.378 999.609 115.104 996.993 110.921L953.57 46.6141H930.026V168.432H954.093V114.581C954.093 107.784 953.57 92.6224 953.57 87.917C955.139 91.0539 959.325 97.3278 961.94 101.51L1006.41 167.909H1028.38V46.0913H1004.32V97.8506H1004.84ZM1098.49 46.0913H1060.3V167.909H1096.4C1127.79 167.909 1158.66 149.61 1158.66 107.261C1158.66 62.2988 1133.02 46.0913 1098.49 46.0913ZM1096.4 144.382H1084.36V70.1411H1097.44C1123.08 70.1411 1134.07 82.6888 1134.07 107.261C1134.07 129.22 1122.03 144.382 1096.4 144.382ZM1233.99 68.5726C1244.98 68.5726 1251.78 73.278 1256.49 81.6431L1278.99 71.1867C1271.14 55.5021 1257.54 44 1234.52 44C1202.6 44 1180.63 69.6183 1180.63 106.739C1180.63 144.905 1202.08 169.477 1233.99 169.477C1255.97 169.477 1270.62 159.021 1278.99 141.768L1258.58 129.743C1252.3 140.722 1245.5 145.427 1234.52 145.427C1216.21 145.427 1205.74 128.697 1205.74 106.739C1205.74 84.2573 1216.21 68.5726 1233.99 68.5726ZM1324.5 46.0913H1299.91V167.909H1373.16V143.859H1324.5V46.0913ZM1437.51 44.5228C1404.03 44.5228 1384.67 70.1411 1384.67 107.261C1384.67 144.382 1404.55 170 1437.51 170C1470.99 170 1490.35 144.382 1490.35 107.261C1490.35 70.1411 1470.99 44.5228 1437.51 44.5228ZM1437.51 145.427C1417.63 145.427 1409.78 128.697 1409.78 106.739C1409.78 84.7801 1418.15 68.0498 1437.51 68.0498C1457.39 68.0498 1465.24 84.7801 1465.24 106.739C1465.24 128.697 1457.39 145.427 1437.51 145.427ZM1588.71 114.581C1588.71 133.925 1579.29 145.95 1563.6 145.95C1547.9 145.95 1538.48 133.402 1538.48 114.058V46.0913H1513.89V114.581C1513.89 150.133 1533.77 170 1563.07 170C1593.94 170 1612.25 149.61 1612.25 114.581V46.6141H1587.66V114.581H1588.71ZM1681.83 46.0913H1643.64V167.909H1679.74C1711.13 167.909 1742 149.61 1742 107.261C1742 62.2988 1716.36 46.0913 1681.83 46.0913ZM1679.74 144.382H1668.23V70.1411H1681.31C1706.95 70.1411 1717.41 82.6888 1717.41 107.261C1717.41 129.22 1705.38 144.382 1679.74 144.382Z" fill="#F04923"/>
<path d="M224.601 33.0541C221.774 33.0541 219.23 34.9406 219.23 37.5347C219.23 37.5347 213.577 119.142 213.577 137.287C213.577 158.523 219.23 201.666 219.23 201.666C219.513 204.26 221.774 206.146 224.601 206.146C227.428 206.146 229.972 204.26 229.972 201.666C229.972 201.666 236.473 154.973 236.473 137.287C236.473 119.6 229.972 37.5347 229.972 37.5347C229.972 35.1765 227.428 33.0541 224.601 33.0541Z" fill="white"/>
<path d="M192.513 54.1182C189.695 54.1182 187.159 55.7752 187.159 58.0536C187.159 58.0536 181.523 122.896 181.523 138.833C181.523 157.485 187.159 202.211 187.159 202.211C187.441 204.489 189.695 206.146 192.513 206.146C195.331 206.146 197.867 204.489 197.867 202.211C197.867 202.211 203.503 154.367 203.503 138.833C203.503 123.298 197.867 58.0536 197.867 58.0536C197.867 55.9823 195.331 54.1182 192.513 54.1182Z" fill="white"/>
<path d="M159.121 45.8757C156.303 45.8757 154.048 47.6226 154.048 50.0244C154.048 50.0244 148.553 121.116 148.553 137.917C148.553 157.58 153.766 201.998 153.766 201.998C154.048 204.399 156.303 206.146 159.121 206.146C161.938 206.146 164.475 204.399 164.475 201.998C164.475 201.998 170.533 154.293 170.533 137.917C170.533 121.54 164.193 50.0244 164.193 50.0244C164.193 47.8409 161.938 45.8757 159.121 45.8757Z" fill="white"/>
<path d="M127.982 57.7816C125.164 57.7816 122.91 59.3886 122.91 61.5984C122.91 61.5984 117.415 121.545 117.415 137.001C117.415 155.091 122.628 201.414 122.628 201.414C122.91 203.623 125.164 205.23 127.982 205.23C130.8 205.23 133.336 203.623 133.336 201.414C133.336 201.414 139.395 152.067 139.395 137.001C139.395 121.935 133.055 61.5984 133.055 61.5984C133.055 59.5895 130.8 57.7816 127.982 57.7816Z" fill="white"/>
<path d="M95.7869 205.688C98.4873 205.688 100.472 203.741 100.472 202.025C100.472 202.025 106.309 149.365 106.425 137.917C106.541 126.469 100.472 94.8727 100.472 94.8727C100.202 93.1571 98.4873 91.2094 95.7869 91.2094C93.0864 91.2094 90.856 93.1571 90.856 94.8727C90.856 94.8727 85.3608 126.54 85.3608 137.917C85.3608 149.294 90.8558 202.025 90.8558 202.025C90.8558 203.585 93.0864 205.688 95.7869 205.688Z" fill="white"/>
<path d="M63.2748 199.278C65.9752 199.278 68.418 197.33 68.418 195.614C68.418 195.614 74.255 142.954 74.3708 131.506C74.4865 120.058 68.418 87.762 68.418 87.762C68.148 86.0463 65.9752 84.7986 63.2748 84.7986C60.5744 84.7986 58.8018 86.0463 58.8018 87.762C58.8018 87.762 53.3067 120.129 53.3067 131.506C53.3067 142.883 58.8018 195.614 58.8018 195.614C58.8018 197.174 60.5744 199.278 63.2748 199.278Z" fill="white"/>
<path d="M33.3025 183.708C35.8226 183.708 37.2795 181.738 37.2795 180.503C37.2795 180.503 43.1226 143.155 43.2306 134.913C43.3386 126.67 36.8216 103.573 36.8216 103.573C36.5695 102.338 35.8227 101.284 33.3025 101.284C30.7823 101.284 29.4948 102.338 29.4948 103.573C29.4948 103.573 23.9998 126.722 23.9998 134.913C23.9998 143.104 29.037 180.503 29.037 180.503C29.037 181.626 30.7823 183.708 33.3025 183.708Z" fill="white"/>
<path d="M419.639 80.2194C411.5 80.2194 410.023 80.2194 402.239 82.0511C393.08 39.007 354.559 1 299.665 1C286.226 1 273.205 3.78373 261.658 8.32665C254.79 11.0291 247.921 16.5691 247.921 22.98V192.867C247.921 196.463 252.958 204.241 257.334 204.241H422.582C455.519 204.241 481 174.974 481 142.038C481 107.236 452.576 80.2194 419.639 80.2194Z" fill="white"/>
</mask>
<g mask="url(#mask0_1798_422)">
<rect x="-83" y="-64" width="2010" height="379" fill="white"/>
</g>
</svg>
