<svg width="253" height="57" viewBox="0 0 253 57" fill="none" xmlns="http://www.w3.org/2000/svg">
<g clip-path="url(#clip0_91_471)">
<path opacity="0.399994" fill-rule="evenodd" clip-rule="evenodd" d="M13.2285 19.3288C14.2934 17.5343 15.6728 15.9466 17.3019 14.6454C17.8144 15.0767 18.318 15.5272 18.8128 15.988C17.3684 17.0912 16.1307 18.4426 15.1574 19.9816C14.5208 19.7453 13.8784 19.5282 13.2285 19.3288ZM31.9192 11.3518C33.9396 11.8259 35.8567 12.6663 37.5773 13.8301C37.3248 14.4534 37.0516 15.0723 36.7636 15.6867C35.2896 14.6366 33.6398 13.8612 31.8926 13.3959C31.9207 12.7018 31.9295 12.0209 31.9192 11.3518ZM41.0186 16.9022C42.3641 18.4722 43.4172 20.2711 44.1246 22.2162C43.5545 22.5707 42.9711 22.9074 42.3774 23.2324C41.7999 21.5265 40.9256 19.9373 39.7942 18.5372C40.2255 17.9936 40.6346 17.4472 41.0186 16.9022ZM45.1053 26.7135C45.2737 28.7665 45.0758 30.8327 44.5175 32.8147C43.8484 32.7645 43.1794 32.6936 42.5103 32.605C43.0332 30.8918 43.2518 29.1002 43.1543 27.3117C43.8248 27.1256 44.4732 26.9262 45.1053 26.7135ZM42.6935 37.0255C41.633 38.7816 40.2698 40.3353 38.6673 41.6129C38.1563 41.1757 37.6556 40.7252 37.1682 40.2615C38.5876 39.1804 39.806 37.8585 40.769 36.355C41.4159 36.6016 42.0584 36.8232 42.6935 37.0226V37.0255ZM34.749 43.9627C32.8644 44.7721 30.8514 45.2329 28.8058 45.3274C28.6478 44.6746 28.5075 44.0159 28.3834 43.3498C30.1646 43.3069 31.9251 42.948 33.5822 42.2908C33.9618 42.8683 34.3517 43.428 34.749 43.9627ZM24.2509 44.9345C22.2437 44.487 20.3341 43.6806 18.6134 42.5507C18.8675 41.9304 19.1407 41.3131 19.4287 40.7016C20.8864 41.703 22.5229 42.4547 24.2864 42.8978C24.2539 43.589 24.2435 44.2684 24.2494 44.9375L24.2509 44.9345ZM15.1411 39.5452C13.7705 37.9944 12.6909 36.2073 11.9539 34.2725C12.5196 33.918 13.1015 33.5783 13.6937 33.2519C14.3052 34.9681 15.2165 36.544 16.3611 37.9131C15.9328 38.4537 15.5237 38.9987 15.1426 39.5437L15.1411 39.5452ZM10.9023 29.7722C10.7088 27.6986 10.8846 25.6088 11.4237 23.5986C12.0927 23.6429 12.7618 23.7094 13.4308 23.7936C12.9183 25.5349 12.7204 27.3545 12.846 29.1652C12.1813 29.3513 11.533 29.5566 10.9023 29.7722ZM22.4535 13.935C24.1416 13.2704 25.9361 12.9174 27.7513 12.8908C27.6257 12.2277 27.481 11.5675 27.32 10.9117C25.1814 10.9929 23.1432 11.4715 21.2749 12.2675C21.6751 12.8022 22.0695 13.359 22.4535 13.935Z" fill="white"/>
<path fill-rule="evenodd" clip-rule="evenodd" d="M1.93202 18.1185C2.63799 18.0313 3.37647 17.9767 4.13709 17.9619C5.3659 15.0642 7.10722 12.416 9.27832 10.143C8.44385 9.94214 7.57984 9.89487 6.72764 10.0071C4.68356 12.419 3.06188 15.1616 1.93202 18.1185ZM29.5936 0.185465C32.8414 0.370082 35.9415 1.11151 38.7965 2.31817C39.0992 2.97688 39.3296 3.77 39.4109 4.78761C36.5943 3.39634 33.5474 2.5338 30.4207 2.24285C30.18 1.54278 29.9038 0.855996 29.5936 0.185465ZM45.71 6.51711C48.1632 8.54643 50.2546 10.979 51.8955 13.7113C51.7064 14.5339 51.377 15.3197 50.9207 16.0301C49.46 13.2475 47.5089 10.753 45.1636 8.66754C45.3881 7.93645 45.5727 7.21866 45.71 6.51711ZM54.9896 21.1152C55.7842 24.2079 56.0457 27.4129 55.7636 30.5942C55.226 31.0565 54.5436 31.4892 53.6205 31.8555C54.0651 28.7495 53.9528 25.5888 53.2853 22.5242C53.8952 22.0693 54.4639 21.5982 54.9896 21.1152ZM53.9469 38.3452C52.7831 41.3138 51.1215 44.061 49.0331 46.4669C48.2061 46.5186 47.376 46.4314 46.5755 46.2084C48.7496 43.9635 50.4997 41.3419 51.7463 38.4722C52.5069 38.4663 53.2409 38.4235 53.9469 38.3452ZM43.0604 51.6554C40.3975 53.3775 37.4584 54.6285 34.373 55.3551C33.6685 54.9135 33.0438 54.3538 32.5239 53.7024C35.5915 53.1589 38.535 52.0615 41.2113 50.4635C41.8271 50.9036 42.446 51.3009 43.0604 51.6554ZM26.4862 56.0537C23.3314 55.8868 20.2284 55.1823 17.3099 53.9683C16.985 53.1958 16.7945 52.3732 16.7487 51.5357C19.5534 52.8931 22.5811 53.7275 25.6842 53.9993C25.9264 54.72 26.1937 55.4053 26.4862 56.0537ZM10.4643 49.8816C8.01406 47.8921 5.91385 45.5024 4.25525 42.8129C4.39703 42.1114 4.67617 41.3434 5.20049 40.4808C6.68777 43.2324 8.65653 45.6915 11.0108 47.7444C10.7878 48.4711 10.6046 49.1845 10.4643 49.8816ZM1.06062 35.4223C0.239443 32.3695 -0.0603763 29.197 0.175934 26.0437C0.799203 25.4618 1.52143 24.9981 2.31011 24.6746C1.89952 27.7851 2.05017 30.9457 2.7532 34.003C2.14617 34.4623 1.58051 34.9364 1.06062 35.4223ZM14.7149 5.79489C17.4104 4.17764 20.379 3.06845 23.4717 2.52199C22.9164 1.86475 22.2473 1.31533 21.4941 0.900306C18.3718 1.64616 15.4549 2.92076 12.8392 4.6222C13.461 4.9678 14.0902 5.35919 14.7164 5.79489H14.7149Z" fill="white"/>
<path opacity="0.800003" fill-rule="evenodd" clip-rule="evenodd" d="M6.07507 18.0003C6.75889 18.0372 7.46192 18.1066 8.17823 18.2056C9.40114 15.7524 11.0642 13.5488 13.0861 11.7011C12.3979 11.3171 11.7642 11.0114 11.1794 10.7677C9.04963 12.8428 7.31865 15.2945 6.07507 18.0003ZM30.9837 4.10521C33.9952 4.48035 36.8338 5.41082 39.3934 6.79471C39.3387 7.42832 39.2398 8.12839 39.0877 8.90231C36.7275 7.5258 34.1325 6.60271 31.4356 6.17883C31.3071 5.46547 31.1565 4.77278 30.9822 4.10668L30.9837 4.10521ZM44.5213 10.5018C46.6747 12.5371 48.4382 14.9519 49.7231 17.6251C49.3051 18.1022 48.8118 18.6058 48.2358 19.1375C47.134 16.6444 45.5847 14.3759 43.6647 12.444C43.9808 11.7912 44.2673 11.1443 44.5198 10.5048L44.5213 10.5018ZM51.686 23.6215C52.231 26.5296 52.2428 29.5115 51.7214 32.4241C51.1026 32.56 50.4084 32.6737 49.6315 32.7608C50.1957 30.1038 50.2711 27.367 49.8546 24.6834C50.4941 24.3437 51.104 23.9893 51.686 23.6215ZM49.8132 38.4116C48.5608 41.0804 46.8313 43.4982 44.7133 45.5452C44.0679 45.2572 43.4387 44.9367 42.8273 44.5837C44.83 42.7671 46.4857 40.5989 47.713 38.1871C48.4293 38.2905 49.1294 38.3658 49.8132 38.4116ZM39.6858 49.2745C37.1189 50.7086 34.3112 51.6553 31.4017 52.0689C31.0472 51.4574 30.7252 50.8282 30.4357 50.1828C33.1179 49.8874 35.7247 49.0987 38.1232 47.8566C38.6387 48.3603 39.1615 48.8344 39.6858 49.2745ZM25.1453 52.1412C22.2239 51.7986 19.3897 50.9183 16.7873 49.5448C16.8449 48.9141 16.9468 48.2185 17.1034 47.4505C19.4547 48.7871 22.0319 49.6762 24.7067 50.075C24.8263 50.7692 24.9725 51.4589 25.1453 52.1412ZM11.6564 45.9159C9.4868 43.9117 7.69971 41.5265 6.38523 38.8783C6.80025 38.4013 7.28764 37.8961 7.86217 37.36C8.99351 39.8339 10.5694 42.0774 12.5086 43.9811C12.1926 44.6325 11.909 45.2779 11.6564 45.9159ZM4.3441 32.8967C3.76218 29.9856 3.7164 26.9904 4.21117 24.0616C4.8241 23.9154 5.51531 23.7914 6.29661 23.6968C5.75605 26.376 5.71322 29.132 6.16664 31.8289C5.53008 32.17 4.9201 32.526 4.3441 32.8967ZM17.8463 8.37652C20.2773 7.11669 22.9211 6.32209 25.6416 6.03557C25.3447 5.39014 25.0124 4.76096 24.6461 4.15246C21.6406 4.56896 18.8093 5.54375 16.263 6.96752C16.7962 7.40469 17.3235 7.87436 17.8463 8.37652Z" fill="white"/>
<path opacity="0.600006" fill-rule="evenodd" clip-rule="evenodd" d="M9.82814 18.4742C11.0141 16.2307 12.6018 14.225 14.513 12.5576C15.0801 12.9268 15.637 13.3241 16.1864 13.7465C14.4347 15.1954 12.9637 16.9515 11.8412 18.9306C11.1751 18.7578 10.5046 18.6057 9.82814 18.4742ZM31.6839 7.83727C34.1711 8.2907 36.5519 9.20345 38.7053 10.5283C38.5281 11.1811 38.3213 11.8383 38.0894 12.4926C36.1915 11.2549 34.0825 10.3761 31.8685 9.90352C31.8301 9.21378 31.7681 8.52405 31.6839 7.83727ZM42.8909 13.9311C44.6234 15.7611 46.0058 17.8938 46.9717 20.2244C46.443 20.6453 45.8891 21.0515 45.3161 21.4414C44.5082 19.3338 43.3252 17.3916 41.8231 15.7079C42.2071 15.1156 42.5616 14.5219 42.8909 13.9311ZM48.3556 25.4217C48.6806 27.9133 48.5521 30.4433 47.9775 32.8877C47.3026 32.9157 46.6202 32.9157 45.9275 32.8936C46.5021 30.721 46.6778 28.4628 46.4504 26.2281C47.1091 25.9741 47.7427 25.7038 48.3556 25.4217ZM46.0738 37.8989C44.8848 40.1025 43.3074 42.0713 41.4184 43.7092C40.8513 43.3296 40.2989 42.9279 39.7613 42.507C41.4864 41.0847 42.9441 39.3626 44.0622 37.4234C44.7401 37.6065 45.4121 37.7645 46.0708 37.8989H46.0738ZM36.964 46.6587C34.7707 47.728 32.3545 48.4207 29.8067 48.6437C29.5704 48.0101 29.3607 47.3587 29.1672 46.6956C31.3974 46.5568 33.5833 46.0132 35.62 45.0916C36.0601 45.6381 36.5106 46.1595 36.964 46.6587ZM24.472 48.4221C22.004 47.9953 19.6365 47.1165 17.4876 45.8301C17.6663 45.1817 17.876 44.5289 18.1079 43.8776C20.0043 45.0769 22.1015 45.9202 24.2992 46.3648C24.3361 47.0663 24.3937 47.7531 24.472 48.4221ZM13.2798 42.5026C11.5399 40.7125 10.1206 38.6049 9.11921 36.2728C9.64353 35.8504 10.1944 35.4428 10.7616 35.0514C11.6019 37.1472 12.8145 39.0731 14.3417 40.7332C13.9621 41.324 13.6091 41.9147 13.2827 42.504L13.2798 42.5026ZM7.65704 31.0814C7.29667 28.5735 7.3971 26.0214 7.95243 23.5519C8.62591 23.518 9.30974 23.5106 9.99799 23.5268C9.44266 25.7275 9.29201 28.0123 9.55491 30.2676C8.90062 30.5231 8.26702 30.7948 7.65852 31.0814H7.65704ZM20.3838 11.1279C22.4545 10.193 24.6788 9.64948 26.9459 9.52542C26.7524 8.8667 26.5338 8.21685 26.2916 7.57438C23.766 7.77967 21.301 8.45611 19.0221 9.56677C19.4814 10.0601 19.9378 10.5814 20.3838 11.1279Z" fill="white"/>
<path d="M239.984 12.6815H244.972V37.8367C244.972 39.358 245.58 40.0551 247.184 40.0551H250.177V44.0148H246.013C242.152 44.0148 239.984 42.6663 239.984 38.4009V12.6815ZM226.992 12.6815H231.979V37.8367C231.979 39.358 232.588 40.0551 234.192 40.0551H237.184V44.0148H233.021C229.161 44.0148 226.992 42.6663 226.992 38.4009V12.6815ZM218.022 12.6815H223.01V17.5997H218.022V12.6815ZM218.022 21.3865H223.01V44.0162H218.022V21.3865ZM208.997 30.1758C208.997 27.3475 207.653 25.2576 204.92 25.2576C203.053 25.2576 199.888 26.3904 199.888 31.5243V44.0148H194.855V30.1758C194.855 27.3475 193.554 25.2576 190.821 25.2576C188.957 25.2576 185.745 26.3904 185.745 31.5243V44.0148H180.757V21.3865H185.574V24.6048C186.916 22.4736 189.045 20.8637 192.297 20.8637C195.551 20.8637 197.847 22.5164 199.018 25.1276C200.495 22.735 202.923 20.8637 206.394 20.8637C211.252 20.8637 213.984 24.6048 213.984 29.6116V44.0148H208.997V30.1758ZM159.519 32.6999C159.519 37.1839 161.472 40.2722 165.678 40.2722C169.841 40.2722 171.794 37.1839 171.794 32.6999C171.794 28.2174 169.841 25.1276 165.678 25.1276C161.469 25.1276 159.519 28.2174 159.519 32.6999ZM176.696 44.0148H171.883V40.8393C170.32 43.1448 167.933 44.5376 164.637 44.5376C157.999 44.5376 154.399 39.4466 154.399 32.6999C154.399 25.9547 157.999 20.8637 164.637 20.8637C167.803 20.8637 170.146 22.1693 171.707 24.3006V12.6815H176.694L176.696 44.0148ZM146.358 30.1758C146.358 27.3475 145.013 25.2576 141.803 25.2576C139.938 25.2576 136.294 26.3904 136.294 31.5243V44.0148H131.307V21.3865H136.121V24.562C137.683 22.4307 140.025 20.8637 143.279 20.8637C148.613 20.8637 151.303 24.6048 151.303 29.6116V44.0148H146.358V30.1758ZM122.337 12.6815H127.325V17.5997H122.337V12.6815ZM122.337 21.3865H127.325V44.0162H122.337V21.3865ZM105.278 44.0148L99.1181 19.5138L92.9593 44.0148H87.0161L78.082 12.6815H83.6767L90.1841 37.2267L96.3429 12.6815H101.938L108.096 37.2696L114.561 12.6815H120.198L111.264 44.0148H105.278Z" fill="white"/>
</g>
<defs>
<clipPath id="clip0_91_471">
<rect width="253" height="56.1238" fill="white" transform="matrix(1 0 0 -1 0 56.1238)"/>
</clipPath>
</defs>
</svg>
