<svg width="555" height="431" viewBox="0 0 555 431" fill="none" xmlns="http://www.w3.org/2000/svg">
<path d="M25.1506 24.8677H24.1367V19.7092H21.9313V18.7966H24.1367V17.7953C24.1367 16.4012 25.0999 15.6914 26.4308 15.6914C26.9251 15.6914 27.4067 15.7674 27.7616 15.8942V16.8067C27.356 16.68 26.9377 16.6293 26.4688 16.6293C25.721 16.6293 25.1506 16.9588 25.1506 17.9094V18.7966H27.7616V19.7092H25.1506V24.8677ZM29.7212 23.9551H32.0533V16.6166H30.0507V15.7041H33.0672V23.9551H35.3993V24.8677H29.7212V23.9551ZM40.1599 25.0451C38.4109 25.0451 37.1181 23.7016 37.1181 21.8258C37.1181 19.9627 38.4109 18.6192 40.1599 18.6192C41.909 18.6192 43.2018 19.9627 43.2018 21.8258C43.2018 23.7016 41.909 25.0451 40.1599 25.0451ZM40.1599 24.1199C41.2499 24.1199 42.1752 23.296 42.1752 21.8258C42.1752 20.3683 41.2499 19.5444 40.1599 19.5444C39.0699 19.5444 38.1447 20.3683 38.1447 21.8258C38.1447 23.296 39.0699 24.1199 40.1599 24.1199ZM47.2146 18.86H48.3553L49.5214 23.6636L50.3452 18.7966H51.3085L50.1931 24.8677H48.9764L47.7596 19.9373L46.5936 24.8677H45.3895L44.2108 18.7966H45.1994L46.0613 23.6636L47.2146 18.86ZM63.1491 25.0451C61.4888 25.0451 60.0693 23.7904 60.0693 21.8258C60.0693 19.8359 61.5395 18.6192 63.1365 18.6192C64.7841 18.6192 65.6714 19.5698 65.9248 20.5457L64.9996 20.9259C64.8348 20.2922 64.2772 19.5698 63.1365 19.5698C62.1352 19.5698 61.0959 20.3302 61.0959 21.8258C61.0959 23.3087 62.1352 24.0945 63.1491 24.0945C64.3659 24.0945 64.8602 23.2707 65.0376 22.7257L65.9248 23.1059C65.6333 24.0058 64.7461 25.0451 63.1491 25.0451ZM70.5587 25.0451C68.8097 25.0451 67.5169 23.7016 67.5169 21.8258C67.5169 19.9627 68.8097 18.6192 70.5587 18.6192C72.3078 18.6192 73.6006 19.9627 73.6006 21.8258C73.6006 23.7016 72.3078 25.0451 70.5587 25.0451ZM70.5587 24.1199C71.6487 24.1199 72.574 23.296 72.574 21.8258C72.574 20.3683 71.6487 19.5444 70.5587 19.5444C69.4687 19.5444 68.5435 20.3683 68.5435 21.8258C68.5435 23.296 69.4687 24.1199 70.5587 24.1199ZM75.5728 18.7966H76.5615V19.6838C76.9417 18.9614 77.7021 18.6192 78.5387 18.6192C80.123 18.6192 80.8834 19.6965 80.8834 21.04V24.8677H79.8695V21.2428C79.8695 20.3683 79.4766 19.5698 78.2978 19.5698C77.3346 19.5698 76.5868 20.2922 76.5868 21.4583V24.8677H75.5728V18.7966ZM88.217 18.7966V19.7219H85.8975V22.9538C85.8975 23.6636 86.3412 24.0058 87.0002 24.0058C87.4185 24.0058 87.9635 23.9298 88.217 23.841V24.7663C87.9381 24.8677 87.5072 24.9691 86.8862 24.9691C85.6314 24.9691 84.8836 24.348 84.8836 23.144V19.7219H82.9317V18.7966H83.933C84.6681 18.7966 84.947 18.4164 84.947 17.7447V16.6547H85.8975V18.7966H88.217ZM96.2222 19.912C96.0575 19.8613 95.804 19.7979 95.3731 19.7979C94.1183 19.7979 93.4466 20.5077 93.4466 21.9019V23.9678H95.3604V24.8677H90.6328V23.9678H92.4326V19.6965H90.8229V18.7966H93.4212V19.988C93.7761 19.0501 94.6633 18.7079 95.3857 18.7079C95.8293 18.7079 96.0702 18.7713 96.2222 18.822V19.912ZM100.958 25.0451C99.2085 25.0451 97.9157 23.7016 97.9157 21.8258C97.9157 19.9627 99.2085 18.6192 100.958 18.6192C102.707 18.6192 103.999 19.9627 103.999 21.8258C103.999 23.7016 102.707 25.0451 100.958 25.0451ZM100.958 24.1199C102.048 24.1199 102.973 23.296 102.973 21.8258C102.973 20.3683 102.048 19.5444 100.958 19.5444C99.8675 19.5444 98.9423 20.3683 98.9423 21.8258C98.9423 23.296 99.8675 24.1199 100.958 24.1199ZM105.718 23.9551H108.05V16.6166H106.048V15.7041H109.064V23.9551H111.396V24.8677H105.718V23.9551ZM121.564 20.7865H125.949V21.6737H121.564V20.7865ZM139.159 25.0451C137.448 25.0451 136.586 23.9424 136.421 23.258L137.346 22.8778C137.524 23.5115 138.17 24.1326 139.184 24.1326C139.995 24.1326 140.464 23.7523 140.464 23.258C140.464 22.8144 140.173 22.5483 139.501 22.4088L138.322 22.168C137.182 21.9399 136.675 21.2808 136.675 20.495C136.675 19.4684 137.625 18.6192 138.969 18.6192C140.325 18.6192 141.199 19.3163 141.478 20.2795L140.616 20.6217C140.414 20.0387 139.894 19.5064 138.969 19.5064C138.196 19.5064 137.676 19.874 137.676 20.419C137.676 20.8119 137.917 21.116 138.525 21.2301L139.678 21.4583C140.883 21.6991 141.478 22.2948 141.478 23.2073C141.478 24.0565 140.768 25.0451 139.159 25.0451ZM148.609 18.7966H149.724L145.58 27.2758H144.452L146.112 23.9424L143.387 18.7966H144.566L146.644 22.8524L148.609 18.7966ZM151.57 18.7966H152.558V19.6838C152.939 18.9614 153.699 18.6192 154.536 18.6192C156.12 18.6192 156.88 19.6965 156.88 21.04V24.8677H155.866V21.2428C155.866 20.3683 155.474 19.5698 154.295 19.5698C153.332 19.5698 152.584 20.2922 152.584 21.4583V24.8677H151.57V18.7966ZM161.945 25.0451C160.285 25.0451 158.865 23.7904 158.865 21.8258C158.865 19.8359 160.336 18.6192 161.933 18.6192C163.58 18.6192 164.467 19.5698 164.721 20.5457L163.796 20.9259C163.631 20.2922 163.073 19.5698 161.933 19.5698C160.931 19.5698 159.892 20.3302 159.892 21.8258C159.892 23.3087 160.931 24.0945 161.945 24.0945C163.162 24.0945 163.656 23.2707 163.834 22.7257L164.721 23.1059C164.429 24.0058 163.542 25.0451 161.945 25.0451ZM167.162 20.7865H171.548V21.6737H167.162V20.7865ZM174.268 23.2327C174.268 22.168 175.066 21.6104 176.143 21.4583L177.892 21.2048C178.349 21.1414 178.437 20.9386 178.437 20.6598C178.437 20.0134 177.956 19.5317 176.98 19.5317C176.029 19.5317 175.421 20.0641 175.345 20.7612L174.382 20.5584C174.508 19.4304 175.586 18.6192 176.955 18.6192C178.704 18.6192 179.439 19.5824 179.439 20.7612V23.727C179.439 24.234 179.515 24.6776 179.565 24.8677H178.577C178.539 24.7536 178.463 24.348 178.463 23.9551C178.273 24.4494 177.55 25.0451 176.41 25.0451C175.015 25.0451 174.268 24.1452 174.268 23.2327ZM176.562 24.1199C177.55 24.1199 178.437 23.5495 178.437 22.3328V21.9019L176.346 22.206C175.738 22.2948 175.282 22.6116 175.282 23.1566C175.282 23.6763 175.662 24.1199 176.562 24.1199ZM184.744 25.0451C183.084 25.0451 181.664 23.7904 181.664 21.8258C181.664 19.8359 183.135 18.6192 184.732 18.6192C186.379 18.6192 187.267 19.5698 187.52 20.5457L186.595 20.9259C186.43 20.2922 185.872 19.5698 184.732 19.5698C183.73 19.5698 182.691 20.3302 182.691 21.8258C182.691 23.3087 183.73 24.0945 184.744 24.0945C185.961 24.0945 186.455 23.2707 186.633 22.7257L187.52 23.1059C187.229 24.0058 186.341 25.0451 184.744 25.0451ZM192.344 25.0451C190.684 25.0451 189.264 23.7904 189.264 21.8258C189.264 19.8359 190.734 18.6192 192.331 18.6192C193.979 18.6192 194.866 19.5698 195.12 20.5457L194.195 20.9259C194.03 20.2922 193.472 19.5698 192.331 19.5698C191.33 19.5698 190.291 20.3302 190.291 21.8258C190.291 23.3087 191.33 24.0945 192.344 24.0945C193.561 24.0945 194.055 23.2707 194.233 22.7257L195.12 23.1059C194.828 24.0058 193.941 25.0451 192.344 25.0451ZM199.754 25.0451C198.005 25.0451 196.712 23.7016 196.712 21.8258C196.712 19.9627 198.005 18.6192 199.754 18.6192C201.503 18.6192 202.795 19.9627 202.795 21.8258C202.795 23.7016 201.503 25.0451 199.754 25.0451ZM199.754 24.1199C200.844 24.1199 201.769 23.296 201.769 21.8258C201.769 20.3683 200.844 19.5444 199.754 19.5444C198.664 19.5444 197.738 20.3683 197.738 21.8258C197.738 23.296 198.664 24.1199 199.754 24.1199ZM208.849 24.0438C208.557 24.6649 207.81 25.0451 206.973 25.0451C205.427 25.0451 204.641 24.0058 204.641 22.6116V18.7966H205.655V22.4469C205.655 23.3214 206.073 24.1199 207.201 24.1199C208.228 24.1199 208.798 23.3721 208.798 22.4215V18.7966H209.812V23.6002C209.812 24.0692 209.863 24.6269 209.901 24.8677H208.925C208.874 24.6902 208.849 24.348 208.849 24.0438ZM212.367 18.7966H213.356V19.6838C213.736 18.9614 214.497 18.6192 215.333 18.6192C216.918 18.6192 217.678 19.6965 217.678 21.04V24.8677H216.664V21.2428C216.664 20.3683 216.271 19.5698 215.092 19.5698C214.129 19.5698 213.381 20.2922 213.381 21.4583V24.8677H212.367V18.7966ZM225.012 18.7966V19.7219H222.692V22.9538C222.692 23.6636 223.136 24.0058 223.795 24.0058C224.213 24.0058 224.758 23.9298 225.012 23.841V24.7663C224.733 24.8677 224.302 24.9691 223.681 24.9691C222.426 24.9691 221.678 24.348 221.678 23.144V19.7219H219.726V18.7966H220.728C221.463 18.7966 221.742 18.4164 221.742 17.7447V16.6547H222.692V18.7966H225.012ZM227.96 20.7865H232.345V21.6737H227.96V20.7865ZM239.489 23.8664C239.197 24.5001 238.525 25.0451 237.41 25.0451C235.686 25.0451 234.584 23.6256 234.584 21.8258C234.584 20.0641 235.75 18.6192 237.461 18.6192C238.614 18.6192 239.235 19.1642 239.463 19.7092V15.7041H240.477V23.727C240.477 24.3354 240.515 24.7409 240.54 24.8677H239.552C239.527 24.7283 239.489 24.386 239.489 23.9931V23.8664ZM237.562 24.1199C238.753 24.1199 239.489 23.1566 239.489 21.8258C239.489 20.495 238.766 19.5444 237.562 19.5444C236.396 19.5444 235.61 20.495 235.61 21.8258C235.61 23.1566 236.409 24.1199 237.562 24.1199ZM242.665 23.2327C242.665 22.168 243.463 21.6104 244.541 21.4583L246.29 21.2048C246.746 21.1414 246.835 20.9386 246.835 20.6598C246.835 20.0134 246.353 19.5317 245.377 19.5317C244.427 19.5317 243.818 20.0641 243.742 20.7612L242.779 20.5584C242.906 19.4304 243.983 18.6192 245.352 18.6192C247.101 18.6192 247.836 19.5824 247.836 20.7612V23.727C247.836 24.234 247.912 24.6776 247.963 24.8677H246.974C246.936 24.7536 246.86 24.348 246.86 23.9551C246.67 24.4494 245.948 25.0451 244.807 25.0451C243.413 25.0451 242.665 24.1452 242.665 23.2327ZM244.959 24.1199C245.948 24.1199 246.835 23.5495 246.835 22.3328V21.9019L244.743 22.206C244.135 22.2948 243.679 22.6116 243.679 23.1566C243.679 23.6763 244.059 24.1199 244.959 24.1199ZM255.41 18.7966V19.7219H253.091V22.9538C253.091 23.6636 253.535 24.0058 254.194 24.0058C254.612 24.0058 255.157 23.9298 255.41 23.841V24.7663C255.132 24.8677 254.701 24.9691 254.08 24.9691C252.825 24.9691 252.077 24.348 252.077 23.144V19.7219H250.125V18.7966H251.126C251.862 18.7966 252.14 18.4164 252.14 17.7447V16.6547H253.091V18.7966H255.41ZM257.864 23.2327C257.864 22.168 258.663 21.6104 259.74 21.4583L261.489 21.2048C261.945 21.1414 262.034 20.9386 262.034 20.6598C262.034 20.0134 261.553 19.5317 260.577 19.5317C259.626 19.5317 259.018 20.0641 258.942 20.7612L257.978 20.5584C258.105 19.4304 259.182 18.6192 260.551 18.6192C262.3 18.6192 263.035 19.5824 263.035 20.7612V23.727C263.035 24.234 263.111 24.6776 263.162 24.8677H262.174C262.136 24.7536 262.059 24.348 262.059 23.9551C261.869 24.4494 261.147 25.0451 260.006 25.0451C258.612 25.0451 257.864 24.1452 257.864 23.2327ZM260.158 24.1199C261.147 24.1199 262.034 23.5495 262.034 22.3328V21.9019L259.943 22.206C259.334 22.2948 258.878 22.6116 258.878 23.1566C258.878 23.6763 259.258 24.1199 260.158 24.1199Z" fill="#FEFEFE"/>
<rect x="0.440755" y="0.440755" width="554.118" height="429.295" stroke="white" stroke-width="0.88151"/>
<path d="M0 41.4307L555 41.4307" stroke="white" stroke-width="0.88151"/>
<path d="M0 264.894L555 264.894" stroke="white" stroke-width="0.88151"/>
<path d="M22.1367 191.637H24.5344V194.643H23.9614L23.9261 193.823C23.7146 194.317 23.3091 194.766 22.4188 194.766C21.1141 194.766 20.1974 193.753 20.1974 191.54C20.1974 189.319 21.2111 188.27 22.5245 188.27C24.1024 188.27 24.4903 189.513 24.552 190.147L23.8733 190.315C23.7498 189.627 23.4766 188.949 22.5157 188.949C21.5637 188.949 20.929 189.742 20.929 191.54C20.929 193.356 21.5461 194.105 22.4805 194.105C23.5295 194.105 23.8468 193.224 23.8468 192.316H22.1367V191.637ZM26.1441 188.393H26.8846V193.947H30.0933V194.643H26.1441V188.393ZM33.0517 194.766C31.7206 194.766 30.7686 193.691 30.7686 191.514C30.7686 189.336 31.7206 188.27 33.0517 188.27C34.3828 188.27 35.3348 189.336 35.3348 191.514C35.3348 193.691 34.3828 194.766 33.0517 194.766ZM33.0517 194.061C33.9861 194.061 34.5943 193.259 34.5943 191.514C34.5943 189.768 33.9861 188.975 33.0517 188.975C32.1173 188.975 31.5091 189.768 31.5091 191.514C31.5091 193.259 32.1173 194.061 33.0517 194.061ZM38.593 188.393C39.7125 188.393 40.3472 189.072 40.3472 190.042C40.3472 190.729 39.9505 191.285 39.3687 191.452C40.0915 191.628 40.4882 192.245 40.4882 192.951C40.4882 193.938 39.7477 194.643 38.6106 194.643H36.5126V188.393H38.593ZM38.5048 193.982C39.2805 193.982 39.7477 193.541 39.7477 192.871C39.7477 192.245 39.3246 191.813 38.5841 191.813H37.2442V193.982H38.5048ZM38.5048 191.161C39.1748 191.161 39.6067 190.72 39.6067 190.112C39.6067 189.46 39.1924 189.045 38.4078 189.045H37.2442V191.161H38.5048ZM45.3419 194.643L44.7777 192.836H42.4505L41.8952 194.643H41.1194L43.094 188.393H44.143L46.1264 194.643H45.3419ZM43.6141 189.045L42.6709 192.122H44.5573L43.6141 189.045ZM47.2866 188.393H48.027V193.947H51.2357V194.643H47.2866V188.393ZM57.8578 188.393H58.5983V193.947H61.807V194.643H57.8578V188.393ZM65.1356 194.008H66.5637V194.643H62.9671V194.008H64.404V189.028H62.9671V188.393H66.5637V189.028H65.1356V194.008ZM72.1931 188.393V194.643H71.5143V189.169L70.386 194.608H69.6896L68.5877 189.222V194.643H67.9089V188.393H69.0461L70.051 193.33L71.0824 188.393H72.1931ZM75.7069 194.008H77.1349V194.643H73.5384V194.008H74.9752V189.028H73.5384V188.393H77.1349V189.028H75.7069V194.008ZM80.9837 194.643H80.252V189.081H78.2245V188.393H83.0111V189.081H80.9837V194.643ZM85.1145 193.973C85.1145 193.559 85.4407 193.241 85.8373 193.241C86.2428 193.241 86.569 193.559 86.569 193.973C86.569 194.387 86.2428 194.696 85.8373 194.696C85.4407 194.696 85.1145 194.387 85.1145 193.973ZM85.1145 191.011C85.1145 190.597 85.4407 190.28 85.8373 190.28C86.2428 190.28 86.569 190.597 86.569 191.011C86.569 191.426 86.2428 191.734 85.8373 191.734C85.4407 191.734 85.1145 191.426 85.1145 191.011ZM95.1128 192.871C95.1656 193.603 95.721 194.123 96.4791 194.123C97.2284 194.123 97.8014 193.621 97.8014 192.871C97.8014 192.051 97.2107 191.593 96.4791 191.593C96.0472 191.593 95.6328 191.761 95.3508 192.069L94.6456 191.787L95.3243 188.931H98.4096V189.601H95.8268L95.3948 191.417C95.6857 191.099 96.1794 190.95 96.6378 190.95C97.7661 190.95 98.5418 191.699 98.5418 192.845C98.5418 193.911 97.7308 194.766 96.4791 194.766C95.3155 194.766 94.4869 193.973 94.4075 193.074L95.1128 192.871ZM103.431 189.68C103.827 190.253 103.942 191.011 103.942 191.787C103.942 192.563 103.827 193.321 103.431 193.894C103.069 194.423 102.514 194.766 101.765 194.766C101.015 194.766 100.46 194.423 100.099 193.894C99.702 193.321 99.5874 192.563 99.5874 191.787C99.5874 191.011 99.702 190.253 100.099 189.68C100.46 189.151 101.015 188.807 101.765 188.807C102.514 188.807 103.069 189.151 103.431 189.68ZM100.83 189.865C100.46 190.271 100.31 190.923 100.31 191.787C100.31 192.307 100.363 192.757 100.487 193.118L102.778 189.953L102.699 189.865C102.47 189.618 102.161 189.477 101.765 189.477C101.35 189.477 101.06 189.618 100.83 189.865ZM102.699 193.709C103.069 193.303 103.219 192.651 103.219 191.787C103.219 191.293 103.166 190.861 103.061 190.518L100.786 193.665C101.033 193.938 101.324 194.097 101.765 194.097C102.161 194.097 102.47 193.955 102.699 193.709ZM110.811 191.805H113.861V192.422H110.811V191.805ZM121.003 190.421H121.691V191.126C121.885 190.694 122.361 190.297 123.154 190.297C124.415 190.297 125.111 191.285 125.111 192.527C125.111 193.788 124.353 194.766 123.119 194.766C122.369 194.766 121.902 194.432 121.708 194.052V196.318H121.003V190.421ZM123.031 194.132C123.85 194.132 124.397 193.462 124.397 192.527C124.397 191.593 123.85 190.932 123.031 190.932C122.22 190.932 121.691 191.593 121.691 192.527C121.691 193.462 122.228 194.132 123.031 194.132ZM128.254 194.766C127.153 194.766 126.157 193.964 126.157 192.519C126.157 191.161 127.144 190.297 128.184 190.297C129.436 190.297 130.194 191.161 130.194 192.43C130.194 192.519 130.185 192.616 130.176 192.677H126.879V192.739C126.879 193.532 127.523 194.114 128.254 194.114C128.969 194.114 129.374 193.717 129.542 193.224L130.15 193.444C129.912 194.176 129.233 194.766 128.254 194.766ZM129.462 192.078C129.427 191.452 128.969 190.923 128.193 190.923C127.488 190.923 126.941 191.47 126.897 192.078H129.462ZM135.471 191.196C135.356 191.161 135.18 191.117 134.88 191.117C134.007 191.117 133.54 191.611 133.54 192.58V194.017H134.871V194.643H131.583V194.017H132.835V191.047H131.715V190.421H133.522V191.249C133.769 190.597 134.386 190.359 134.889 190.359C135.197 190.359 135.365 190.403 135.471 190.438V191.196ZM137.239 191.805H140.289V192.422H137.239V191.805ZM145.76 190.421V191.064H144.147V193.312C144.147 193.806 144.455 194.044 144.914 194.044C145.204 194.044 145.583 193.991 145.76 193.929V194.573C145.566 194.643 145.266 194.714 144.834 194.714C143.961 194.714 143.441 194.282 143.441 193.444V191.064H142.084V190.421H142.78C143.292 190.421 143.485 190.156 143.485 189.689V188.931H144.147V190.421H145.76ZM149.397 194.766C148.295 194.766 147.299 193.964 147.299 192.519C147.299 191.161 148.286 190.297 149.326 190.297C150.578 190.297 151.336 191.161 151.336 192.43C151.336 192.519 151.327 192.616 151.319 192.677H148.022V192.739C148.022 193.532 148.665 194.114 149.397 194.114C150.111 194.114 150.516 193.717 150.684 193.224L151.292 193.444C151.054 194.176 150.375 194.766 149.397 194.766ZM150.605 192.078C150.569 191.452 150.111 190.923 149.335 190.923C148.63 190.923 148.084 191.47 148.039 192.078H150.605ZM152.823 190.421H153.51V191.038C153.775 190.535 154.304 190.297 154.885 190.297C155.987 190.297 156.516 191.047 156.516 191.981V194.643H155.811V192.122C155.811 191.514 155.538 190.958 154.718 190.958C154.048 190.958 153.528 191.461 153.528 192.272V194.643H152.823V190.421ZM158.038 193.506C158.038 192.765 158.593 192.378 159.342 192.272L160.559 192.096C160.876 192.051 160.938 191.91 160.938 191.716C160.938 191.267 160.603 190.932 159.924 190.932C159.263 190.932 158.84 191.302 158.787 191.787L158.117 191.646C158.205 190.861 158.954 190.297 159.906 190.297C161.123 190.297 161.634 190.967 161.634 191.787V193.85C161.634 194.202 161.687 194.511 161.722 194.643H161.035C161.008 194.564 160.955 194.282 160.955 194.008C160.823 194.352 160.321 194.766 159.527 194.766C158.558 194.766 158.038 194.141 158.038 193.506ZM159.633 194.123C160.321 194.123 160.938 193.726 160.938 192.88V192.58L159.483 192.792C159.06 192.854 158.743 193.074 158.743 193.453C158.743 193.814 159.007 194.123 159.633 194.123ZM163.394 190.421H164.081V191.038C164.346 190.535 164.875 190.297 165.457 190.297C166.558 190.297 167.087 191.047 167.087 191.981V194.643H166.382V192.122C166.382 191.514 166.109 190.958 165.289 190.958C164.619 190.958 164.099 191.461 164.099 192.272V194.643H163.394V190.421ZM172.188 190.421V191.064H170.575V193.312C170.575 193.806 170.883 194.044 171.342 194.044C171.632 194.044 172.012 193.991 172.188 193.929V194.573C171.994 194.643 171.694 194.714 171.262 194.714C170.39 194.714 169.869 194.282 169.869 193.444V191.064H168.512V190.421H169.208C169.72 190.421 169.914 190.156 169.914 189.689V188.931H170.575V190.421H172.188ZM181.181 194.766C180.026 194.766 179.039 193.894 179.039 192.527C179.039 191.143 180.062 190.297 181.172 190.297C182.318 190.297 182.935 190.958 183.112 191.637L182.468 191.902C182.354 191.461 181.966 190.958 181.172 190.958C180.476 190.958 179.753 191.487 179.753 192.527C179.753 193.559 180.476 194.105 181.181 194.105C182.027 194.105 182.371 193.532 182.495 193.153L183.112 193.418C182.909 194.044 182.292 194.766 181.181 194.766ZM184.466 193.506C184.466 192.765 185.021 192.378 185.77 192.272L186.987 192.096C187.304 192.051 187.366 191.91 187.366 191.716C187.366 191.267 187.031 190.932 186.352 190.932C185.691 190.932 185.268 191.302 185.215 191.787L184.545 191.646C184.633 190.861 185.383 190.297 186.335 190.297C187.551 190.297 188.062 190.967 188.062 191.787V193.85C188.062 194.202 188.115 194.511 188.15 194.643H187.463C187.436 194.564 187.384 194.282 187.384 194.008C187.251 194.352 186.749 194.766 185.956 194.766C184.986 194.766 184.466 194.141 184.466 193.506ZM186.061 194.123C186.749 194.123 187.366 193.726 187.366 192.88V192.58L185.911 192.792C185.488 192.854 185.171 193.074 185.171 193.453C185.171 193.814 185.435 194.123 186.061 194.123ZM189.716 190.421H190.404V191.126C190.598 190.694 191.074 190.297 191.867 190.297C193.128 190.297 193.824 191.285 193.824 192.527C193.824 193.788 193.066 194.766 191.832 194.766C191.082 194.766 190.615 194.432 190.421 194.052V196.318H189.716V190.421ZM191.744 194.132C192.563 194.132 193.11 193.462 193.11 192.527C193.11 191.593 192.563 190.932 191.744 190.932C190.933 190.932 190.404 191.593 190.404 192.527C190.404 193.462 190.941 194.132 191.744 194.132ZM196.112 193.973C196.112 193.559 196.439 193.241 196.835 193.241C197.241 193.241 197.567 193.559 197.567 193.973C197.567 194.387 197.241 194.696 196.835 194.696C196.439 194.696 196.112 194.387 196.112 193.973ZM196.112 191.011C196.112 190.597 196.439 190.28 196.835 190.28C197.241 190.28 197.567 190.597 197.567 191.011C197.567 191.426 197.241 191.734 196.835 191.734C196.439 191.734 196.112 191.426 196.112 191.011ZM206.111 192.871C206.164 193.603 206.719 194.123 207.477 194.123C208.226 194.123 208.799 193.621 208.799 192.871C208.799 192.051 208.209 191.593 207.477 191.593C207.045 191.593 206.631 191.761 206.349 192.069L205.643 191.787L206.322 188.931H209.408V189.601H206.825L206.393 191.417C206.684 191.099 207.177 190.95 207.636 190.95C208.764 190.95 209.54 191.699 209.54 192.845C209.54 193.911 208.729 194.766 207.477 194.766C206.313 194.766 205.485 193.973 205.405 193.074L206.111 192.871Z" fill="#FEFEFE"/>
<path d="M23.8918 61.542C26.1224 61.542 26.7688 63.4051 26.8576 64.3177L25.8183 64.5078C25.6535 63.5318 25.1719 62.5432 23.8537 62.5432C22.5229 62.5432 21.5723 63.722 21.5723 66.2061C21.5723 68.6903 22.5229 69.8817 23.8284 69.8817C25.1845 69.8817 25.6408 68.7791 25.7676 67.8538L26.7815 68.0186C26.7055 68.9311 26.0337 70.883 23.8411 70.883C21.9019 70.883 20.5077 69.286 20.5077 66.2061C20.5077 63.1389 21.9526 61.542 23.8918 61.542ZM31.238 70.883C29.3241 70.883 27.9553 69.3367 27.9553 66.2061C27.9553 63.0756 29.3241 61.542 31.238 61.542C33.1518 61.542 34.5206 63.0756 34.5206 66.2061C34.5206 69.3367 33.1518 70.883 31.238 70.883ZM31.238 69.8691C32.5815 69.8691 33.456 68.7157 33.456 66.2061C33.456 63.6966 32.5815 62.5559 31.238 62.5559C29.8945 62.5559 29.0199 63.6966 29.0199 66.2061C29.0199 68.7157 29.8945 69.8691 31.238 69.8691ZM36.9238 63.3037V70.7056H35.8845V61.7194H37.2534L40.7515 68.7917V61.7194H41.7908V70.7056H40.5741L36.9238 63.3037ZM46.6909 61.542C48.9215 61.542 49.5679 63.4051 49.6567 64.3177L48.6174 64.5078C48.4526 63.5318 47.971 62.5432 46.6528 62.5432C45.322 62.5432 44.3714 63.722 44.3714 66.2061C44.3714 68.6903 45.322 69.8817 46.6275 69.8817C47.9836 69.8817 48.4399 68.7791 48.5667 67.8538L49.5806 68.0186C49.5046 68.9311 48.8328 70.883 46.6402 70.883C44.701 70.883 43.3068 69.286 43.3068 66.2061C43.3068 63.1389 44.7517 61.542 46.6909 61.542ZM54.0371 70.883C52.288 70.883 51.0712 69.9578 51.0712 68.12V61.7194H52.1232V68.0186C52.1232 69.21 52.871 69.8817 54.0371 69.8817C55.2031 69.8817 55.9509 69.21 55.9509 68.0186V61.7194H57.0029V68.12C57.0029 69.9578 55.7861 70.883 54.0371 70.883ZM60.0651 66.9413V70.7056H59.0132V61.7194H62.2832C63.9055 61.7194 64.9194 62.8854 64.9194 64.343C64.9194 65.6485 64.0703 66.6371 62.8028 66.8525L64.8814 70.7056H63.6773L61.6621 66.9413H60.0651ZM62.1184 65.978C63.1704 65.978 63.8548 65.3316 63.8548 64.343C63.8548 63.3417 63.1704 62.6827 62.1184 62.6827H60.0651V65.978H62.1184ZM67.6648 66.9413V70.7056H66.6129V61.7194H69.8829C71.5052 61.7194 72.5191 62.8854 72.5191 64.343C72.5191 65.6485 71.6699 66.6371 70.4025 66.8525L72.4811 70.7056H71.277L69.2618 66.9413H67.6648ZM69.7181 65.978C70.7701 65.978 71.4545 65.3316 71.4545 64.343C71.4545 63.3417 70.7701 62.6827 69.7181 62.6827H67.6648V65.978H69.7181ZM74.428 61.7194H79.6752V62.708H75.48V65.7245H79.3964V66.7131H75.48V69.717H79.6752V70.7056H74.428V61.7194ZM82.522 63.3037V70.7056H81.4827V61.7194H82.8516L86.3497 68.7917V61.7194H87.389V70.7056H86.1723L82.522 63.3037ZM92.2891 61.542C94.5198 61.542 95.1661 63.4051 95.2549 64.3177L94.2156 64.5078C94.0508 63.5318 93.5692 62.5432 92.251 62.5432C90.9202 62.5432 89.9696 63.722 89.9696 66.2061C89.9696 68.6903 90.9202 69.8817 92.2257 69.8817C93.5818 69.8817 94.0381 68.7791 94.1649 67.8538L95.1788 68.0186C95.1028 68.9311 94.431 70.883 92.2384 70.883C90.2992 70.883 88.905 69.286 88.905 66.2061C88.905 63.1389 90.3499 61.542 92.2891 61.542ZM97.2525 61.7194L99.6353 65.8893L102.031 61.7194H103.273L100.168 66.9032V70.7056H99.1029V66.9032L96.0104 61.7194H97.2525ZM115.202 61.7194C116.812 61.7194 117.724 62.6953 117.724 64.0895C117.724 65.0781 117.154 65.8766 116.318 66.1174C117.357 66.3709 117.927 67.2581 117.927 68.2721C117.927 69.6916 116.863 70.7056 115.228 70.7056H112.211V61.7194H115.202ZM115.075 69.755C116.191 69.755 116.863 69.1213 116.863 68.158C116.863 67.2581 116.254 66.6371 115.19 66.6371H113.263V69.755H115.075ZM115.075 65.6992C116.039 65.6992 116.66 65.0654 116.66 64.1909C116.66 63.253 116.064 62.6573 114.936 62.6573H113.263V65.6992H115.075ZM120.052 61.7194L122.434 65.8893L124.83 61.7194H126.072L122.967 66.9032V70.7056H121.902V66.9032L118.809 61.7194H120.052ZM138.153 70.7056H137.101V62.708H134.186V61.7194H141.069V62.708H138.153V70.7056ZM142.825 61.7194H148.073V62.708H143.877V65.7245H147.794V66.7131H143.877V69.717H148.073V70.7056H142.825V61.7194ZM150.919 63.3037V70.7056H149.88V61.7194H151.249L154.747 68.7917V61.7194H155.786V70.7056H154.57L150.919 63.3037ZM162.904 70.7056L162.093 68.1073H158.747L157.949 70.7056H156.833L159.672 61.7194H161.181L164.032 70.7056H162.904ZM160.42 62.6573L159.064 67.0807H161.776L160.42 62.6573ZM166.119 63.3037V70.7056H165.079V61.7194H166.448L169.946 68.7917V61.7194H170.986V70.7056H169.769L166.119 63.3037ZM176.152 70.7056H175.1V62.708H172.185V61.7194H179.067V62.708H176.152V70.7056Z" fill="#FEFEFE"/>
<path d="M20.9513 282.097H24.3227C25.983 282.097 27.0223 283.238 27.0223 284.733C27.0223 286.241 25.983 287.357 24.3227 287.357H22.0033V291.083H20.9513V282.097ZM24.1199 286.406C25.2733 286.406 25.9577 285.734 25.9577 284.746C25.9577 283.719 25.2733 283.047 24.1199 283.047H22.0033V286.406H24.1199ZM29.6663 287.319V291.083H28.6144V282.097H31.8844C33.5067 282.097 34.5206 283.263 34.5206 284.72C34.5206 286.026 33.6715 287.015 32.404 287.23L34.4826 291.083H33.2785L31.2633 287.319H29.6663ZM31.7196 286.355C32.7716 286.355 33.456 285.709 33.456 284.72C33.456 283.719 32.7716 283.06 31.7196 283.06H29.6663V286.355H31.7196ZM39.37 290.17H41.4232V291.083H36.2521V290.17H38.318V283.009H36.2521V282.097H41.4232V283.009H39.37V290.17ZM46.4374 291.26C44.5235 291.26 43.1547 289.714 43.1547 286.584C43.1547 283.453 44.5235 281.919 46.4374 281.919C48.3512 281.919 49.72 283.453 49.72 286.584C49.72 289.714 48.3512 291.26 46.4374 291.26ZM46.4374 290.246C47.7809 290.246 48.6554 289.093 48.6554 286.584C48.6554 284.074 47.7809 282.933 46.4374 282.933C45.0939 282.933 44.2193 284.074 44.2193 286.584C44.2193 289.093 45.0939 290.246 46.4374 290.246ZM52.4654 287.319V291.083H51.4135V282.097H54.6835C56.3058 282.097 57.3197 283.263 57.3197 284.72C57.3197 286.026 56.4706 287.015 55.2031 287.23L57.2817 291.083H56.0776L54.0624 287.319H52.4654ZM54.5187 286.355C55.5707 286.355 56.2551 285.709 56.2551 284.72C56.2551 283.719 55.5707 283.06 54.5187 283.06H52.4654V286.355H54.5187ZM62.1691 290.17H64.2223V291.083H59.0512V290.17H61.1171V283.009H59.0512V282.097H64.2223V283.009H62.1691V290.17ZM69.7561 291.083H68.7041V283.085H65.789V282.097H72.6712V283.085H69.7561V291.083ZM74.4534 282.097L76.8362 286.267L79.2316 282.097H80.4737L77.3685 287.281V291.083H76.3038V287.281L73.2113 282.097H74.4534ZM94.6465 292.122L93.6325 290.779C93.1636 291.096 92.6059 291.26 91.9849 291.26C90.071 291.26 88.7022 289.714 88.7022 286.584C88.7022 283.453 90.071 281.919 91.9849 281.919C93.8987 281.919 95.2675 283.453 95.2675 286.584C95.2675 288.155 94.9253 289.321 94.3423 290.094L95.4323 291.552L94.6465 292.122ZM91.9849 290.246C92.3778 290.246 92.72 290.145 93.0242 289.955L91.4525 287.864L92.2257 287.281L93.6832 289.22C94.0128 288.611 94.2029 287.75 94.2029 286.584C94.2029 284.074 93.3284 282.933 91.9849 282.933C90.6414 282.933 89.7668 284.074 89.7668 286.584C89.7668 289.093 90.6414 290.246 91.9849 290.246ZM99.6353 291.26C97.8862 291.26 96.6695 290.335 96.6695 288.497V282.097H97.7214V288.396C97.7214 289.587 98.4692 290.259 99.6353 290.259C100.801 290.259 101.549 289.587 101.549 288.396V282.097H102.601V288.497C102.601 290.335 101.384 291.26 99.6353 291.26ZM104.827 282.097H110.074V283.085H105.879V286.102H109.795V287.091H105.879V290.094H110.074V291.083H104.827V282.097ZM114.835 291.26C113.086 291.26 111.869 290.335 111.869 288.497V282.097H112.921V288.396C112.921 289.587 113.669 290.259 114.835 290.259C116.001 290.259 116.748 289.587 116.748 288.396V282.097H117.8V288.497C117.8 290.335 116.584 291.26 114.835 291.26ZM120.026 282.097H125.273V283.085H121.078V286.102H124.995V287.091H121.078V290.094H125.273V291.083H120.026V282.097Z" fill="#FEFEFE"/>
<path d="M26.1098 100.584L25.2986 97.9862H21.9526L21.1541 100.584H20.0387L22.8778 91.5983H24.3861L27.2378 100.584H26.1098ZM23.6256 92.5362L22.2694 96.9596H24.9818L23.6256 92.5362ZM31.4281 100.762C29.7677 100.762 28.3482 99.5071 28.3482 97.5426C28.3482 95.5527 29.8184 94.336 31.4154 94.336C33.0631 94.336 33.9503 95.2866 34.2038 96.2625L33.2785 96.6427C33.1138 96.009 32.5561 95.2866 31.4154 95.2866C30.4141 95.2866 29.3748 96.047 29.3748 97.5426C29.3748 99.0255 30.4141 99.8113 31.4281 99.8113C32.6448 99.8113 33.1391 98.9875 33.3166 98.4425L34.2038 98.8227C33.9123 99.7226 33.0251 100.762 31.4281 100.762ZM36.645 95.2485C36.8605 94.6655 37.3294 94.3994 37.8998 94.3994C38.4701 94.3994 38.9644 94.7035 39.0912 95.3753C39.3193 94.7669 39.8136 94.3994 40.536 94.3994C41.3092 94.3994 42.057 94.7669 42.057 96.2118V100.584H41.1064V96.3639C41.1064 95.5654 40.7895 95.3119 40.2825 95.3119C39.7756 95.3119 39.3573 95.6668 39.3573 96.5413V100.584H38.4194V96.4019C38.4194 95.6161 38.1152 95.3119 37.6082 95.3119C37.0886 95.3119 36.6703 95.6288 36.6703 96.554V100.584H35.7198V94.5134H36.645V95.2485ZM46.5261 100.762C44.9418 100.762 43.5096 99.6085 43.5096 97.5299C43.5096 95.5781 44.9291 94.336 46.4247 94.336C48.2245 94.336 49.3145 95.5781 49.3145 97.4032C49.3145 97.5299 49.3018 97.6694 49.2891 97.7581H44.5489V97.8468C44.5489 98.9875 45.4741 99.824 46.5261 99.824C47.5527 99.824 48.1357 99.2537 48.3765 98.5439L49.2511 98.8608C48.9089 99.9127 47.9329 100.762 46.5261 100.762ZM48.2625 96.8962C48.2118 95.9963 47.5527 95.2359 46.4374 95.2359C45.4234 95.2359 44.6376 96.0217 44.5742 96.8962H48.2625ZM61.8903 91.4209C64.121 91.4209 64.7673 93.284 64.8561 94.1966L63.8168 94.3867C63.652 93.4108 63.1704 92.4221 61.8522 92.4221C60.5214 92.4221 59.5708 93.6009 59.5708 96.0851C59.5708 98.5692 60.5214 99.7606 61.8269 99.7606C63.183 99.7606 63.6393 98.658 63.7661 97.7327L64.78 97.8975C64.704 98.8101 64.0322 100.762 61.8396 100.762C59.9004 100.762 58.5062 99.1649 58.5062 96.0851C58.5062 93.0178 59.9511 91.4209 61.8903 91.4209ZM69.2365 100.762C67.4874 100.762 66.1946 99.4184 66.1946 97.5426C66.1946 95.6795 67.4874 94.336 69.2365 94.336C70.9855 94.336 72.2783 95.6795 72.2783 97.5426C72.2783 99.4184 70.9855 100.762 69.2365 100.762ZM69.2365 99.8367C70.3265 99.8367 71.2517 99.0128 71.2517 97.5426C71.2517 96.0851 70.3265 95.2612 69.2365 95.2612C68.1465 95.2612 67.2212 96.0851 67.2212 97.5426C67.2212 99.0128 68.1465 99.8367 69.2365 99.8367ZM79.7006 95.6288C79.5358 95.5781 79.2823 95.5147 78.8514 95.5147C77.5966 95.5147 76.9249 96.2245 76.9249 97.6187V99.6846H78.8387V100.584H74.1112V99.6846H75.9109V95.4133H74.3013V94.5134H76.8995V95.7048C77.2544 94.7669 78.1416 94.4247 78.8641 94.4247C79.3077 94.4247 79.5485 94.4881 79.7006 94.5388V95.6288ZM81.6982 94.5134H82.6868V95.5274C82.9656 94.9063 83.65 94.336 84.7907 94.336C86.6032 94.336 87.6045 95.7555 87.6045 97.5426C87.6045 99.3551 86.5145 100.762 84.74 100.762C83.6627 100.762 82.991 100.28 82.7121 99.7353V102.993H81.6982V94.5134ZM84.6133 99.8494C85.792 99.8494 86.5778 98.8861 86.5778 97.5426C86.5778 96.1991 85.792 95.2485 84.6133 95.2485C83.4473 95.2485 82.6868 96.1991 82.6868 97.5426C82.6868 98.8861 83.4599 99.8494 84.6133 99.8494Z" fill="#FEFEFE"/>
<rect x="126.498" y="93.7529" width="350.841" height="4.66262" fill="#0BDD48"/>
<path d="M500.253 98.0369C500.329 99.0889 501.127 99.8367 502.217 99.8367C503.295 99.8367 504.119 99.1142 504.119 98.0369C504.119 96.8582 503.269 96.1991 502.217 96.1991C501.596 96.1991 501.001 96.4399 500.595 96.8835L499.581 96.478L500.557 92.3714H504.993V93.3347H501.279L500.658 95.9456C501.077 95.4894 501.786 95.2739 502.446 95.2739C504.068 95.2739 505.183 96.3512 505.183 97.9989C505.183 99.5325 504.017 100.762 502.217 100.762C500.544 100.762 499.353 99.6212 499.239 98.3284L500.253 98.0369ZM506.243 100.584L512.339 91.5983H513.404L507.308 100.584H506.243ZM515.452 98.0369C515.528 99.0889 516.327 99.8367 517.417 99.8367C518.494 99.8367 519.318 99.1142 519.318 98.0369C519.318 96.8582 518.469 96.1991 517.417 96.1991C516.796 96.1991 516.2 96.4399 515.794 96.8835L514.78 96.478L515.756 92.3714H520.192V93.3347H516.479L515.858 95.9456C516.276 95.4894 516.986 95.2739 517.645 95.2739C519.267 95.2739 520.383 96.3512 520.383 97.9989C520.383 99.5325 519.217 100.762 517.417 100.762C515.744 100.762 514.552 99.6212 514.438 98.3284L515.452 98.0369Z" fill="#0BDD48"/>
<path d="M24.1706 133.169H26.2238V134.082H21.0527V133.169H23.1186V126.008H21.0527V125.096H26.2238V126.008H24.1706V133.169ZM28.6524 128.011H29.641V128.898C30.0212 128.176 30.7817 127.834 31.6182 127.834C33.2025 127.834 33.963 128.911 33.963 130.254V134.082H32.949V130.457C32.949 129.583 32.5561 128.784 31.3774 128.784C30.4141 128.784 29.6663 129.507 29.6663 130.673V134.082H28.6524V128.011ZM36.2521 133.169H38.5842V128.924H36.5182V128.011H39.5981V133.169H41.9302V134.082H36.2521V133.169ZM38.0899 125.882C38.0899 125.349 38.5081 124.931 39.0531 124.931C39.5728 124.931 39.991 125.349 39.991 125.882C39.991 126.414 39.5728 126.845 39.0531 126.845C38.5081 126.845 38.0899 126.414 38.0899 125.882ZM48.8962 128.011V128.936H46.5768V132.168C46.5768 132.878 47.0204 133.22 47.6795 133.22C48.0977 133.22 48.6427 133.144 48.8962 133.055V133.981C48.6174 134.082 48.1864 134.183 47.5654 134.183C46.3106 134.183 45.5628 133.562 45.5628 132.358V128.936H43.611V128.011H44.6122C45.3474 128.011 45.6262 127.631 45.6262 126.959V125.869H46.5768V128.011H48.8962ZM54.1258 134.259C52.5415 134.259 51.1093 133.106 51.1093 131.027C51.1093 129.076 52.5288 127.834 54.0244 127.834C55.8242 127.834 56.9142 129.076 56.9142 130.901C56.9142 131.027 56.9015 131.167 56.8888 131.256H52.1486V131.344C52.1486 132.485 53.0738 133.322 54.1258 133.322C55.1524 133.322 55.7354 132.751 55.9762 132.041L56.8508 132.358C56.5086 133.41 55.5326 134.259 54.1258 134.259ZM55.8622 130.394C55.8115 129.494 55.1524 128.733 54.0371 128.733C53.0231 128.733 52.2373 129.519 52.1739 130.394H55.8622ZM61.8269 134.259C60.1665 134.259 58.747 133.005 58.747 131.04C58.747 129.05 60.2172 127.834 61.8142 127.834C63.4619 127.834 64.3491 128.784 64.6026 129.76L63.6773 130.14C63.5126 129.507 62.9549 128.784 61.8142 128.784C60.8129 128.784 59.7736 129.545 59.7736 131.04C59.7736 132.523 60.8129 133.309 61.8269 133.309C63.0436 133.309 63.5379 132.485 63.7154 131.94L64.6026 132.32C64.3111 133.22 63.4239 134.259 61.8269 134.259ZM66.6509 124.918H67.6648V128.86C68.0577 128.15 68.8182 127.834 69.6674 127.834C71.2137 127.834 71.9615 128.962 71.9615 130.318V134.082H70.9475V130.495C70.9475 129.595 70.5673 128.784 69.3886 128.784C68.4126 128.784 67.6648 129.507 67.6648 130.698V134.082H66.6509V124.918Z" fill="#FEFEFE"/>
<rect x="126.498" y="127.251" width="210.505" height="4.66262" fill="#0BDD48"/>
<rect x="337.097" y="127.251" width="140.236" height="4.66262" fill="#2C9B63"/>
<path d="M502.446 129.126C503.84 129.126 505.069 130.026 505.069 131.649C505.069 133.043 503.992 134.259 502.141 134.259C500.354 134.259 499.226 133.068 499.112 131.699L500.151 131.496C500.24 132.624 501.115 133.309 502.129 133.309C503.269 133.309 504.017 132.612 504.017 131.674C504.017 130.584 503.269 130.039 502.217 130.039C501.951 130.039 501.698 130.064 501.47 130.128L500.975 129.24L503.523 126.832H499.366V125.869H504.892V126.82L502.446 129.126ZM506.243 134.082L512.339 125.096H513.404L507.308 134.082H506.243ZM515.452 131.534C515.528 132.586 516.327 133.334 517.417 133.334C518.494 133.334 519.318 132.612 519.318 131.534C519.318 130.356 518.469 129.697 517.417 129.697C516.796 129.697 516.2 129.937 515.794 130.381L514.78 129.976L515.756 125.869H520.192V126.832H516.479L515.858 129.443C516.276 128.987 516.986 128.771 517.645 128.771C519.267 128.771 520.383 129.849 520.383 131.496C520.383 133.03 519.217 134.259 517.417 134.259C515.744 134.259 514.552 133.119 514.438 131.826L515.452 131.534Z" fill="#FEFEFE"/>
<path d="M23.144 163.258H26.5914V167.58H25.7676L25.7169 166.401C25.4127 167.111 24.8297 167.757 23.5495 167.757C21.6737 167.757 20.3556 166.299 20.3556 163.118C20.3556 159.924 21.8131 158.416 23.7016 158.416C25.9704 158.416 26.528 160.203 26.6168 161.116L25.6408 161.356C25.4634 160.368 25.0705 159.392 23.689 159.392C22.3201 159.392 21.4076 160.533 21.4076 163.118C21.4076 165.729 22.2948 166.806 23.6383 166.806C25.1465 166.806 25.6028 165.539 25.6028 164.234H23.144V163.258ZM28.3989 166.667H30.731V159.329H28.7284V158.416H31.7449V166.667H34.077V167.58H28.3989V166.667ZM38.8377 167.757C37.0886 167.757 35.7958 166.414 35.7958 164.538C35.7958 162.675 37.0886 161.331 38.8377 161.331C40.5867 161.331 41.8795 162.675 41.8795 164.538C41.8795 166.414 40.5867 167.757 38.8377 167.757ZM38.8377 166.832C39.9277 166.832 40.8529 166.008 40.8529 164.538C40.8529 163.08 39.9277 162.256 38.8377 162.256C37.7477 162.256 36.8224 163.08 36.8224 164.538C36.8224 166.008 37.7477 166.832 38.8377 166.832ZM46.8683 167.757C45.791 167.757 45.0939 167.237 44.7643 166.604V167.58H43.7757V158.416H44.7897V162.421C45.1065 161.876 45.7529 161.331 46.8683 161.331C48.6934 161.331 49.682 162.763 49.682 164.538C49.682 166.35 48.6554 167.757 46.8683 167.757ZM46.7162 166.832C47.9076 166.832 48.6554 165.881 48.6554 164.538C48.6554 163.194 47.9203 162.256 46.7162 162.256C45.5121 162.256 44.7643 163.194 44.7643 164.538C44.7643 165.881 45.5248 166.832 46.7162 166.832ZM54.1258 167.757C52.5415 167.757 51.1093 166.604 51.1093 164.525C51.1093 162.573 52.5288 161.331 54.0244 161.331C55.8242 161.331 56.9142 162.573 56.9142 164.398C56.9142 164.525 56.9015 164.664 56.8888 164.753H52.1486V164.842C52.1486 165.983 53.0738 166.819 54.1258 166.819C55.1524 166.819 55.7354 166.249 55.9762 165.539L56.8508 165.856C56.5086 166.908 55.5326 167.757 54.1258 167.757ZM55.8622 163.891C55.8115 162.991 55.1524 162.231 54.0371 162.231C53.0231 162.231 52.2373 163.017 52.1739 163.891H55.8622ZM59.8623 167.58H58.6203L61.0284 164.5L58.709 161.509H59.9637L61.6494 163.727L63.3478 161.509H64.5646L62.2451 164.5L64.6533 167.58H63.4112L61.6368 165.298L59.8623 167.58Z" fill="#FEFEFE"/>
<rect x="126.498" y="160.875" width="71.1819" height="4.66262" fill="#0BDD48"/>
<rect x="197.454" y="160.748" width="279.879" height="4.66262" fill="#2C9B63"/>
<path d="M501.926 166.629V161.711H499.594V161.014C501.026 161.014 501.977 160.355 502.027 159.367H502.965V166.629H505.069V167.58H499.759V166.629H501.926ZM506.243 167.58L512.339 158.593H513.404L507.308 167.58H506.243ZM515.452 165.032C515.528 166.084 516.327 166.832 517.417 166.832C518.494 166.832 519.318 166.109 519.318 165.032C519.318 163.853 518.469 163.194 517.417 163.194C516.796 163.194 516.2 163.435 515.794 163.879L514.78 163.473L515.756 159.367H520.192V160.33H516.479L515.858 162.941C516.276 162.484 516.986 162.269 517.645 162.269C519.267 162.269 520.383 163.346 520.383 164.994C520.383 166.528 519.217 167.757 517.417 167.757C515.744 167.757 514.552 166.616 514.438 165.324L515.452 165.032Z" fill="#FEFEFE"/>
<rect x="19.8359" y="223.903" width="326.599" height="4.66262" fill="#0BDD48"/>
<rect x="346.648" y="223.902" width="174.759" height="4.66262" fill="#2C9B63"/>
<path d="M24.7521 241.36C24.5291 241.214 24.1121 241.069 23.5497 241.069C22.1049 241.069 21.2904 242.203 21.2322 243.619C21.465 243.105 22.1049 242.63 22.997 242.63C24.2091 242.63 25.1206 243.435 25.1206 244.773C25.1206 246.082 24.0637 246.906 22.8516 246.906C21.5813 246.906 20.4177 245.995 20.4177 243.968C20.4177 241.622 21.8431 240.351 23.5982 240.351C24.2188 240.351 24.7036 240.497 25.0042 240.7L24.7521 241.36ZM21.3777 244.773C21.3777 245.646 22.0856 246.189 22.8419 246.189C23.637 246.189 24.3061 245.655 24.3061 244.773C24.3061 243.881 23.6273 243.328 22.8419 243.328C22.0565 243.328 21.3777 243.881 21.3777 244.773ZM28.6173 246.906C27.2016 246.906 26.3774 246.111 26.3774 245.122C26.3774 244.346 26.9107 243.774 27.6088 243.551C27.0076 243.348 26.5325 242.776 26.5325 242.068C26.5325 241.069 27.4149 240.351 28.6173 240.351C29.8197 240.351 30.702 241.069 30.702 242.068C30.702 242.766 30.2269 243.348 29.616 243.551C30.3142 243.765 30.8572 244.346 30.8572 245.122C30.8572 246.111 30.033 246.906 28.6173 246.906ZM28.6173 246.208C29.5191 246.208 30.0427 245.694 30.0427 245.054C30.0427 244.414 29.5191 243.891 28.6173 243.891C27.7058 243.891 27.1919 244.414 27.1919 245.054C27.1919 245.694 27.7058 246.208 28.6173 246.208ZM28.6173 243.212C29.3542 243.212 29.8972 242.766 29.8972 242.116C29.8972 241.496 29.393 241.03 28.6173 241.03C27.8319 241.03 27.3373 241.496 27.3373 242.116C27.3373 242.766 27.8706 243.212 28.6173 243.212ZM31.6388 246.771L36.3029 239.896H37.1174L32.4533 246.771H31.6388ZM39.9644 246.043V242.281H38.1803V241.748C39.276 241.748 40.0032 241.243 40.042 240.487H40.7596V246.043H42.3692V246.771H38.3063V246.043H39.9644ZM47.8343 241.311C48.2706 241.942 48.3967 242.776 48.3967 243.629C48.3967 244.482 48.2706 245.316 47.8343 245.946C47.4367 246.528 46.8258 246.906 46.0016 246.906C45.1774 246.906 44.5665 246.528 44.169 245.946C43.7326 245.316 43.6066 244.482 43.6066 243.629C43.6066 242.776 43.7326 241.942 44.169 241.311C44.5665 240.73 45.1774 240.351 46.0016 240.351C46.8258 240.351 47.4367 240.73 47.8343 241.311ZM44.9738 241.515C44.5665 241.961 44.4017 242.679 44.4017 243.629C44.4017 244.201 44.4599 244.695 44.5956 245.093L47.1167 241.612L47.0295 241.515C46.7774 241.243 46.438 241.088 46.0016 241.088C45.5459 241.088 45.2259 241.243 44.9738 241.515ZM47.0295 245.743C47.4367 245.297 47.6016 244.579 47.6016 243.629C47.6016 243.086 47.5434 242.611 47.427 242.232L44.9253 245.694C45.1968 245.995 45.5168 246.169 46.0016 246.169C46.438 246.169 46.7774 246.014 47.0295 245.743ZM53.6485 241.311C54.0848 241.942 54.2109 242.776 54.2109 243.629C54.2109 244.482 54.0848 245.316 53.6485 245.946C53.2509 246.528 52.64 246.906 51.8158 246.906C50.9916 246.906 50.3807 246.528 49.9832 245.946C49.5468 245.316 49.4207 244.482 49.4207 243.629C49.4207 242.776 49.5468 241.942 49.9832 241.311C50.3807 240.73 50.9916 240.351 51.8158 240.351C52.64 240.351 53.2509 240.73 53.6485 241.311ZM50.788 241.515C50.3807 241.961 50.2159 242.679 50.2159 243.629C50.2159 244.201 50.274 244.695 50.4098 245.093L52.9309 241.612L52.8437 241.515C52.5915 241.243 52.2522 241.088 51.8158 241.088C51.3601 241.088 51.0401 241.243 50.788 241.515ZM52.8437 245.743C53.2509 245.297 53.4158 244.579 53.4158 243.629C53.4158 243.086 53.3576 242.611 53.2412 242.232L50.7395 245.694C51.011 245.995 51.331 246.169 51.8158 246.169C52.2522 246.169 52.5915 246.014 52.8437 245.743Z" fill="#FEFEFE"/>
<rect x="20.2767" y="309.85" width="500.698" height="23.8008" rx="4.84831" stroke="#0BDD48" stroke-width="0.88151"/>
<path d="M40.8119 319.648H41.6991V322.182H44.1199V323.032H41.6991V325.592H40.8119V323.032H38.4164V322.182H40.8119V319.648ZM51.4915 319.179C51.1999 318.989 50.6549 318.798 49.9198 318.798C48.0313 318.798 46.9667 320.281 46.8906 322.132C47.1948 321.46 48.0313 320.839 49.1974 320.839C50.7817 320.839 51.9731 321.891 51.9731 323.64C51.9731 325.351 50.5916 326.428 49.0073 326.428C47.3469 326.428 45.826 325.237 45.826 322.588C45.826 319.521 47.6891 317.861 49.9832 317.861C50.7944 317.861 51.4281 318.051 51.821 318.317L51.4915 319.179ZM47.0808 323.64C47.0808 324.781 48.006 325.491 48.9946 325.491C50.0339 325.491 50.9084 324.793 50.9084 323.64C50.9084 322.474 50.0212 321.752 48.9946 321.752C47.968 321.752 47.0808 322.474 47.0808 323.64ZM58.863 319.115C59.4334 319.939 59.5981 321.029 59.5981 322.144C59.5981 323.26 59.4334 324.35 58.863 325.174C58.3434 325.934 57.5449 326.428 56.4675 326.428C55.3902 326.428 54.5917 325.934 54.0721 325.174C53.5017 324.35 53.337 323.26 53.337 322.144C53.337 321.029 53.5017 319.939 54.0721 319.115C54.5917 318.355 55.3902 317.861 56.4675 317.861C57.5449 317.861 58.3434 318.355 58.863 319.115ZM55.1241 319.381C54.5917 319.964 54.3763 320.902 54.3763 322.144C54.3763 322.892 54.4523 323.539 54.6298 324.058L57.9251 319.508L57.811 319.381C57.4815 319.027 57.0379 318.824 56.4675 318.824C55.8718 318.824 55.4536 319.027 55.1241 319.381ZM57.811 324.907C58.3434 324.324 58.5588 323.387 58.5588 322.144C58.5588 321.435 58.4828 320.814 58.3307 320.319L55.0607 324.844C55.4156 325.237 55.8338 325.465 56.4675 325.465C57.0379 325.465 57.4815 325.262 57.811 324.907ZM66.4627 319.115C67.0331 319.939 67.1978 321.029 67.1978 322.144C67.1978 323.26 67.0331 324.35 66.4627 325.174C65.9431 325.934 65.1446 326.428 64.0672 326.428C62.9899 326.428 62.1914 325.934 61.6718 325.174C61.1014 324.35 60.9367 323.26 60.9367 322.144C60.9367 321.029 61.1014 319.939 61.6718 319.115C62.1914 318.355 62.9899 317.861 64.0672 317.861C65.1446 317.861 65.9431 318.355 66.4627 319.115ZM62.7238 319.381C62.1914 319.964 61.976 320.902 61.976 322.144C61.976 322.892 62.052 323.539 62.2295 324.058L65.5248 319.508L65.4107 319.381C65.0812 319.027 64.6376 318.824 64.0672 318.824C63.4715 318.824 63.0533 319.027 62.7238 319.381ZM65.4107 324.907C65.9431 324.324 66.1585 323.387 66.1585 322.144C66.1585 321.435 66.0825 320.814 65.9304 320.319L62.6604 324.844C63.0153 325.237 63.4335 325.465 64.0672 325.465C64.6376 325.465 65.0812 325.262 65.4107 324.907Z" fill="#0BDD48"/>
<path d="M84.3419 325.427C84.0503 326.048 83.3026 326.428 82.466 326.428C80.9198 326.428 80.1339 325.389 80.1339 323.995V320.18H81.1479V323.83C81.1479 324.705 81.5662 325.503 82.6942 325.503C83.7208 325.503 84.2912 324.755 84.2912 323.805V320.18H85.3051V324.984C85.3051 325.452 85.3558 326.01 85.3938 326.251H84.4179C84.3672 326.074 84.3419 325.731 84.3419 325.427ZM90.6488 326.428C88.9377 326.428 88.0759 325.326 87.9111 324.641L88.8363 324.261C89.0138 324.895 89.6602 325.516 90.6741 325.516C91.4853 325.516 91.9542 325.136 91.9542 324.641C91.9542 324.198 91.6627 323.932 90.991 323.792L89.8122 323.551C88.6716 323.323 88.1646 322.664 88.1646 321.878C88.1646 320.852 89.1152 320.002 90.4586 320.002C91.8148 320.002 92.6893 320.7 92.9682 321.663L92.1063 322.005C91.9035 321.422 91.3839 320.89 90.4586 320.89C89.6855 320.89 89.1659 321.257 89.1659 321.802C89.1659 322.195 89.4067 322.499 90.015 322.613L91.1684 322.842C92.3725 323.082 92.9682 323.678 92.9682 324.591C92.9682 325.44 92.2584 326.428 90.6488 326.428ZM98.1344 326.428C96.5501 326.428 95.1179 325.275 95.1179 323.196C95.1179 321.245 96.5374 320.002 98.033 320.002C99.8328 320.002 100.923 321.245 100.923 323.07C100.923 323.196 100.91 323.336 100.897 323.425H96.1572V323.513C96.1572 324.654 97.0824 325.491 98.1344 325.491C99.161 325.491 99.744 324.92 99.9849 324.21L100.859 324.527C100.517 325.579 99.5413 326.428 98.1344 326.428ZM99.8708 322.563C99.8201 321.663 99.161 320.902 98.0457 320.902C97.0317 320.902 96.2459 321.688 96.1825 322.563H99.8708ZM108.51 321.295C108.345 321.245 108.092 321.181 107.661 321.181C106.406 321.181 105.734 321.891 105.734 323.285V325.351H107.648V326.251H102.92V325.351H104.72V321.08H103.11V320.18H105.709V321.371C106.064 320.433 106.951 320.091 107.673 320.091C108.117 320.091 108.358 320.155 108.51 320.205V321.295ZM112.104 325.288C112.104 324.692 112.573 324.236 113.144 324.236C113.727 324.236 114.196 324.692 114.196 325.288C114.196 325.883 113.727 326.327 113.144 326.327C112.573 326.327 112.104 325.883 112.104 325.288ZM112.104 321.029C112.104 320.433 112.573 319.977 113.144 319.977C113.727 319.977 114.196 320.433 114.196 321.029C114.196 321.625 113.727 322.068 113.144 322.068C112.573 322.068 112.104 321.625 112.104 321.029ZM128.647 326.428C126.936 326.428 126.074 325.326 125.91 324.641L126.835 324.261C127.012 324.895 127.659 325.516 128.673 325.516C129.484 325.516 129.953 325.136 129.953 324.641C129.953 324.198 129.661 323.932 128.989 323.792L127.811 323.551C126.67 323.323 126.163 322.664 126.163 321.878C126.163 320.852 127.114 320.002 128.457 320.002C129.813 320.002 130.688 320.7 130.967 321.663L130.105 322.005C129.902 321.422 129.382 320.89 128.457 320.89C127.684 320.89 127.164 321.257 127.164 321.802C127.164 322.195 127.405 322.499 128.014 322.613L129.167 322.842C130.371 323.082 130.967 323.678 130.967 324.591C130.967 325.44 130.257 326.428 128.647 326.428ZM133.357 324.616C133.357 323.551 134.156 322.994 135.233 322.842L136.982 322.588C137.438 322.525 137.527 322.322 137.527 322.043C137.527 321.397 137.045 320.915 136.07 320.915C135.119 320.915 134.511 321.447 134.435 322.144L133.471 321.942C133.598 320.814 134.675 320.002 136.044 320.002C137.793 320.002 138.528 320.966 138.528 322.144V325.11C138.528 325.617 138.604 326.061 138.655 326.251H137.666C137.628 326.137 137.552 325.731 137.552 325.338C137.362 325.833 136.64 326.428 135.499 326.428C134.105 326.428 133.357 325.529 133.357 324.616ZM135.651 325.503C136.64 325.503 137.527 324.933 137.527 323.716V323.285L135.436 323.589C134.827 323.678 134.371 323.995 134.371 324.54C134.371 325.06 134.751 325.503 135.651 325.503ZM146.508 321.295C146.344 321.245 146.09 321.181 145.659 321.181C144.404 321.181 143.733 321.891 143.733 323.285V325.351H145.646V326.251H140.919V325.351H142.719V321.08H141.109V320.18H143.707V321.371C144.062 320.433 144.949 320.091 145.672 320.091C146.115 320.091 146.356 320.155 146.508 320.205V321.295ZM148.557 324.616C148.557 323.551 149.355 322.994 150.432 322.842L152.181 322.588C152.638 322.525 152.726 322.322 152.726 322.043C152.726 321.397 152.245 320.915 151.269 320.915C150.318 320.915 149.71 321.447 149.634 322.144L148.671 321.942C148.797 320.814 149.875 320.002 151.244 320.002C152.993 320.002 153.728 320.966 153.728 322.144V325.11C153.728 325.617 153.804 326.061 153.855 326.251H152.866C152.828 326.137 152.752 325.731 152.752 325.338C152.562 325.833 151.839 326.428 150.699 326.428C149.304 326.428 148.557 325.529 148.557 324.616ZM150.851 325.503C151.839 325.503 152.726 324.933 152.726 323.716V323.285L150.635 323.589C150.027 323.678 149.571 323.995 149.571 324.54C149.571 325.06 149.951 325.503 150.851 325.503ZM156.258 317.087H157.272V321.029C157.665 320.319 158.425 320.002 159.274 320.002C160.82 320.002 161.568 321.131 161.568 322.487V326.251H160.554V322.664C160.554 321.764 160.174 320.953 158.995 320.953C158.019 320.953 157.272 321.676 157.272 322.867V326.251H156.258V317.087ZM171.85 322.17H176.235V323.057H171.85V322.17ZM186.656 320.18H187.645V321.067C188.025 320.345 188.786 320.002 189.622 320.002C191.207 320.002 191.967 321.08 191.967 322.423V326.251H190.953V322.626C190.953 321.752 190.56 320.953 189.381 320.953C188.418 320.953 187.67 321.676 187.67 322.842V326.251H186.656V320.18ZM196.93 326.428C195.346 326.428 193.914 325.275 193.914 323.196C193.914 321.245 195.334 320.002 196.829 320.002C198.629 320.002 199.719 321.245 199.719 323.07C199.719 323.196 199.706 323.336 199.694 323.425H194.953V323.513C194.953 324.654 195.879 325.491 196.93 325.491C197.957 325.491 198.54 324.92 198.781 324.21L199.655 324.527C199.313 325.579 198.337 326.428 196.93 326.428ZM198.667 322.563C198.616 321.663 197.957 320.902 196.842 320.902C195.828 320.902 195.042 321.688 194.979 322.563H198.667ZM203.896 320.243H205.037L206.203 325.047L207.027 320.18H207.99L206.875 326.251H205.658L204.441 321.321L203.275 326.251H202.071L200.893 320.18H201.881L202.743 325.047L203.896 320.243ZM216.954 324.616C216.954 323.551 217.752 322.994 218.83 322.842L220.579 322.588C221.035 322.525 221.124 322.322 221.124 322.043C221.124 321.397 220.642 320.915 219.666 320.915C218.716 320.915 218.107 321.447 218.031 322.144L217.068 321.942C217.195 320.814 218.272 320.002 219.641 320.002C221.39 320.002 222.125 320.966 222.125 322.144V325.11C222.125 325.617 222.201 326.061 222.252 326.251H221.263C221.225 326.137 221.149 325.731 221.149 325.338C220.959 325.833 220.237 326.428 219.096 326.428C217.702 326.428 216.954 325.529 216.954 324.616ZM219.248 325.503C220.237 325.503 221.124 324.933 221.124 323.716V323.285L219.033 323.589C218.424 323.678 217.968 323.995 217.968 324.54C217.968 325.06 218.348 325.503 219.248 325.503ZM227.431 326.428C225.77 326.428 224.351 325.174 224.351 323.209C224.351 321.219 225.821 320.002 227.418 320.002C229.066 320.002 229.953 320.953 230.206 321.929L229.281 322.309C229.116 321.676 228.559 320.953 227.418 320.953C226.417 320.953 225.377 321.714 225.377 323.209C225.377 324.692 226.417 325.478 227.431 325.478C228.647 325.478 229.142 324.654 229.319 324.109L230.206 324.489C229.915 325.389 229.028 326.428 227.431 326.428ZM235.03 326.428C233.37 326.428 231.951 325.174 231.951 323.209C231.951 321.219 233.421 320.002 235.018 320.002C236.665 320.002 237.553 320.953 237.806 321.929L236.881 322.309C236.716 321.676 236.158 320.953 235.018 320.953C234.016 320.953 232.977 321.714 232.977 323.209C232.977 324.692 234.016 325.478 235.03 325.478C236.247 325.478 236.741 324.654 236.919 324.109L237.806 324.489C237.515 325.389 236.627 326.428 235.03 326.428ZM242.44 326.428C240.691 326.428 239.398 325.085 239.398 323.209C239.398 321.346 240.691 320.002 242.44 320.002C244.189 320.002 245.482 321.346 245.482 323.209C245.482 325.085 244.189 326.428 242.44 326.428ZM242.44 325.503C243.53 325.503 244.455 324.679 244.455 323.209C244.455 321.752 243.53 320.928 242.44 320.928C241.35 320.928 240.425 321.752 240.425 323.209C240.425 324.679 241.35 325.503 242.44 325.503ZM251.535 325.427C251.244 326.048 250.496 326.428 249.659 326.428C248.113 326.428 247.327 325.389 247.327 323.995V320.18H248.341V323.83C248.341 324.705 248.76 325.503 249.888 325.503C250.914 325.503 251.485 324.755 251.485 323.805V320.18H252.499V324.984C252.499 325.452 252.549 326.01 252.587 326.251H251.611C251.561 326.074 251.535 325.731 251.535 325.427ZM255.054 320.18H256.042V321.067C256.423 320.345 257.183 320.002 258.02 320.002C259.604 320.002 260.364 321.08 260.364 322.423V326.251H259.35V322.626C259.35 321.752 258.958 320.953 257.779 320.953C256.816 320.953 256.068 321.676 256.068 322.842V326.251H255.054V320.18ZM267.698 320.18V321.105H265.378V324.337C265.378 325.047 265.822 325.389 266.481 325.389C266.899 325.389 267.444 325.313 267.698 325.224V326.15C267.419 326.251 266.988 326.352 266.367 326.352C265.112 326.352 264.365 325.731 264.365 324.527V321.105H262.413V320.18H263.414C264.149 320.18 264.428 319.8 264.428 319.128V318.038H265.378V320.18H267.698Z" fill="#FEFEFE"/>
<path d="M478.097 322.17H474.294V326.251H473.242V317.265H474.294V321.181H478.097V317.265H479.149V326.251H478.097V322.17ZM484.328 325.338H486.381V326.251H481.21V325.338H483.276V318.177H481.21V317.265H486.381V318.177H484.328V325.338ZM490.901 321.929H494.348V326.251H493.524L493.474 325.072C493.169 325.782 492.586 326.428 491.306 326.428C489.43 326.428 488.112 324.971 488.112 321.79C488.112 318.596 489.57 317.087 491.458 317.087C493.727 317.087 494.285 318.874 494.373 319.787L493.397 320.028C493.22 319.039 492.827 318.063 491.446 318.063C490.077 318.063 489.164 319.204 489.164 321.79C489.164 324.401 490.051 325.478 491.395 325.478C492.903 325.478 493.359 324.21 493.359 322.905H490.901V321.929ZM500.896 322.17H497.093V326.251H496.041V317.265H497.093V321.181H500.896V317.265H501.948V326.251H500.896V322.17Z" fill="#0BDD48"/>
<rect x="20.2767" y="345.112" width="500.698" height="23.8008" rx="4.84831" stroke="white" stroke-width="0.88151"/>
<path d="M40.8119 354.909H41.6991V357.444H44.1199V358.293H41.6991V360.853H40.8119V358.293H38.4164V357.444H40.8119V354.909ZM51.2633 354.377C51.8337 355.2 51.9984 356.29 51.9984 357.406C51.9984 358.521 51.8337 359.611 51.2633 360.435C50.7437 361.195 49.9452 361.69 48.8678 361.69C47.7905 361.69 46.992 361.195 46.4724 360.435C45.902 359.611 45.7373 358.521 45.7373 357.406C45.7373 356.29 45.902 355.2 46.4724 354.377C46.992 353.616 47.7905 353.122 48.8678 353.122C49.9452 353.122 50.7437 353.616 51.2633 354.377ZM47.5244 354.643C46.992 355.226 46.7766 356.164 46.7766 357.406C46.7766 358.153 46.8526 358.8 47.0301 359.32L50.3254 354.769L50.2113 354.643C49.8818 354.288 49.4382 354.085 48.8678 354.085C48.2721 354.085 47.8539 354.288 47.5244 354.643ZM50.2113 360.169C50.7437 359.586 50.9591 358.648 50.9591 357.406C50.9591 356.696 50.8831 356.075 50.731 355.581L47.461 360.105C47.8159 360.498 48.2341 360.726 48.8678 360.726C49.4382 360.726 49.8818 360.524 50.2113 360.169Z" fill="white"/>
<path d="M67.8463 361.69C66.0972 361.69 64.8044 360.346 64.8044 358.47C64.8044 356.607 66.0972 355.264 67.8463 355.264C69.5953 355.264 70.8881 356.607 70.8881 358.47C70.8881 360.346 69.5953 361.69 67.8463 361.69ZM67.8463 360.764C68.9363 360.764 69.8615 359.941 69.8615 358.47C69.8615 357.013 68.9363 356.189 67.8463 356.189C66.7563 356.189 65.831 357.013 65.831 358.47C65.831 359.941 66.7563 360.764 67.8463 360.764ZM78.3104 356.557C78.1456 356.506 77.8921 356.442 77.4612 356.442C76.2064 356.442 75.5347 357.152 75.5347 358.546V360.612H77.4485V361.512H72.721V360.612H74.5207V356.341H72.9111V355.441H75.5093V356.633C75.8642 355.695 76.7514 355.352 77.4739 355.352C77.9175 355.352 78.1583 355.416 78.3104 355.467V356.557ZM81.0558 361.677C81.1825 362.425 81.8543 363.135 82.8682 363.135C84.2371 363.135 84.744 362.273 84.744 361.094V360.08C84.4779 360.676 83.8188 361.17 82.8175 361.17C81.2079 361.17 80.0799 359.903 80.0799 358.23C80.0799 356.544 81.1952 355.264 82.8429 355.264C83.8568 355.264 84.5159 355.707 84.7567 356.303V355.441H85.758V361.183C85.758 362.577 85.0609 364.072 82.8556 364.072C81.4107 364.072 80.2193 363.147 80.0672 361.918L81.0558 361.677ZM84.7947 358.255C84.7947 357 84.0469 356.176 82.9443 356.176C81.8416 356.176 81.0938 356.987 81.0938 358.217C81.0938 359.446 81.8416 360.257 82.9443 360.257C84.0469 360.257 84.7947 359.446 84.7947 358.255ZM89.5047 360.549C89.5047 359.953 89.9736 359.497 90.544 359.497C91.127 359.497 91.596 359.953 91.596 360.549C91.596 361.145 91.127 361.588 90.544 361.588C89.9736 361.588 89.5047 361.145 89.5047 360.549ZM89.5047 356.29C89.5047 355.695 89.9736 355.238 90.544 355.238C91.127 355.238 91.596 355.695 91.596 356.29C91.596 356.886 91.127 357.33 90.544 357.33C89.9736 357.33 89.5047 356.886 89.5047 356.29ZM103.158 359.877C103.158 358.813 103.956 358.255 105.034 358.103L106.783 357.849C107.239 357.786 107.328 357.583 107.328 357.304C107.328 356.658 106.846 356.176 105.87 356.176C104.92 356.176 104.311 356.709 104.235 357.406L103.272 357.203C103.399 356.075 104.476 355.264 105.845 355.264C107.594 355.264 108.329 356.227 108.329 357.406V360.372C108.329 360.878 108.405 361.322 108.456 361.512H107.467C107.429 361.398 107.353 360.993 107.353 360.6C107.163 361.094 106.44 361.69 105.3 361.69C103.906 361.69 103.158 360.79 103.158 359.877ZM105.452 360.764C106.44 360.764 107.328 360.194 107.328 358.977V358.546L105.236 358.851C104.628 358.939 104.172 359.256 104.172 359.801C104.172 360.321 104.552 360.764 105.452 360.764ZM113.635 361.69C111.974 361.69 110.555 360.435 110.555 358.47C110.555 356.48 112.025 355.264 113.622 355.264C115.27 355.264 116.157 356.214 116.41 357.19L115.485 357.57C115.32 356.937 114.763 356.214 113.622 356.214C112.621 356.214 111.581 356.975 111.581 358.47C111.581 359.953 112.621 360.739 113.635 360.739C114.851 360.739 115.346 359.915 115.523 359.37L116.41 359.75C116.119 360.65 115.232 361.69 113.635 361.69ZM118.851 356.176C119.067 355.593 119.536 355.327 120.106 355.327C120.677 355.327 121.171 355.631 121.298 356.303C121.526 355.695 122.02 355.327 122.743 355.327C123.516 355.327 124.263 355.695 124.263 357.14V361.512H123.313V357.292C123.313 356.493 122.996 356.24 122.489 356.24C121.982 356.24 121.564 356.595 121.564 357.469V361.512H120.626V357.33C120.626 356.544 120.322 356.24 119.815 356.24C119.295 356.24 118.877 356.557 118.877 357.482V361.512H117.926V355.441H118.851V356.176ZM128.733 361.69C127.148 361.69 125.716 360.536 125.716 358.458C125.716 356.506 127.136 355.264 128.631 355.264C130.431 355.264 131.521 356.506 131.521 358.331C131.521 358.458 131.508 358.597 131.496 358.686H126.755V358.775C126.755 359.915 127.681 360.752 128.733 360.752C129.759 360.752 130.342 360.181 130.583 359.472L131.458 359.788C131.115 360.84 130.139 361.69 128.733 361.69ZM130.469 357.824C130.418 356.924 129.759 356.164 128.644 356.164C127.63 356.164 126.844 356.949 126.781 357.824H130.469ZM141.651 357.431H146.036V358.318H141.651V357.431ZM159.474 361.69C158.396 361.69 157.699 361.17 157.37 360.536V361.512H156.381V352.349H157.395V356.354C157.712 355.809 158.358 355.264 159.474 355.264C161.299 355.264 162.287 356.696 162.287 358.47C162.287 360.283 161.261 361.69 159.474 361.69ZM159.322 360.764C160.513 360.764 161.261 359.814 161.261 358.47C161.261 357.127 160.526 356.189 159.322 356.189C158.117 356.189 157.37 357.127 157.37 358.47C157.37 359.814 158.13 360.764 159.322 360.764ZM168.138 360.688C167.846 361.309 167.099 361.69 166.262 361.69C164.716 361.69 163.93 360.65 163.93 359.256V355.441H164.944V359.091C164.944 359.966 165.362 360.764 166.49 360.764C167.517 360.764 168.087 360.017 168.087 359.066V355.441H169.101V360.245C169.101 360.714 169.152 361.271 169.19 361.512H168.214C168.163 361.335 168.138 360.993 168.138 360.688ZM171.403 360.6H173.735V353.261H171.733V352.349H174.749V360.6H177.081V361.512H171.403V360.6ZM179.497 361.512V352.349H180.511V358.458L183.73 355.441H185.137L182.387 357.989L185.2 361.512H183.87L181.626 358.698L180.511 359.738V361.512H179.497ZM197.244 361.69C195.533 361.69 194.671 360.587 194.506 359.903L195.432 359.522C195.609 360.156 196.255 360.777 197.269 360.777C198.08 360.777 198.549 360.397 198.549 359.903C198.549 359.459 198.258 359.193 197.586 359.053L196.407 358.813C195.267 358.584 194.76 357.925 194.76 357.14C194.76 356.113 195.71 355.264 197.054 355.264C198.41 355.264 199.285 355.961 199.563 356.924L198.702 357.266C198.499 356.683 197.979 356.151 197.054 356.151C196.281 356.151 195.761 356.518 195.761 357.063C195.761 357.456 196.002 357.761 196.61 357.875L197.764 358.103C198.968 358.344 199.563 358.939 199.563 359.852C199.563 360.701 198.854 361.69 197.244 361.69ZM206.694 355.441H207.809L203.665 363.92H202.537L204.197 360.587L201.472 355.441H202.651L204.73 359.497L206.694 355.441ZM209.655 355.441H210.644V356.328C211.024 355.606 211.784 355.264 212.621 355.264C214.205 355.264 214.966 356.341 214.966 357.685V361.512H213.952V357.887C213.952 357.013 213.559 356.214 212.38 356.214C211.417 356.214 210.669 356.937 210.669 358.103V361.512H209.655V355.441ZM220.03 361.69C218.37 361.69 216.951 360.435 216.951 358.47C216.951 356.48 218.421 355.264 220.018 355.264C221.665 355.264 222.553 356.214 222.806 357.19L221.881 357.57C221.716 356.937 221.158 356.214 220.018 356.214C219.016 356.214 217.977 356.975 217.977 358.47C217.977 359.953 219.016 360.739 220.03 360.739C221.247 360.739 221.741 359.915 221.919 359.37L222.806 359.75C222.515 360.65 221.627 361.69 220.03 361.69Z" fill="#FEFEFE"/>
<path d="M460.075 354.11V361.512H459.036V352.526H460.405L463.903 359.598V352.526H464.942V361.512H463.726L460.075 354.11ZM469.589 361.69C467.675 361.69 466.306 360.143 466.306 357.013C466.306 353.882 467.675 352.349 469.589 352.349C471.503 352.349 472.872 353.882 472.872 357.013C472.872 360.143 471.503 361.69 469.589 361.69ZM469.589 360.676C470.932 360.676 471.807 359.522 471.807 357.013C471.807 354.503 470.932 353.363 469.589 353.363C468.245 353.363 467.371 354.503 467.371 357.013C467.371 359.522 468.245 360.676 469.589 360.676ZM475.617 357.748V361.512H474.565V352.526H477.835C479.457 352.526 480.471 353.692 480.471 355.15C480.471 356.455 479.622 357.444 478.355 357.659L480.433 361.512H479.229L477.214 357.748H475.617ZM477.67 356.785C478.722 356.785 479.407 356.138 479.407 355.15C479.407 354.148 478.722 353.489 477.67 353.489H475.617V356.785H477.67ZM487.868 352.526V361.512H486.892V353.641L485.27 361.462H484.269L482.684 353.717V361.512H481.708V352.526H483.343L484.788 359.624L486.271 352.526H487.868ZM494.86 361.512L494.048 358.914H490.702L489.904 361.512H488.789L491.628 352.526H493.136L495.988 361.512H494.86ZM492.375 353.464L491.019 357.887H493.732L492.375 353.464ZM497.656 352.526H498.72V360.511H503.334V361.512H497.656V352.526Z" fill="white"/>
<rect x="20.2767" y="380.371" width="500.698" height="23.8008" rx="4.84831" stroke="white" stroke-width="0.88151"/>
<path d="M40.8119 390.169H41.6991V392.703H44.1199V393.553H41.6991V396.113H40.8119V393.553H38.4164V392.703H40.8119V390.169ZM51.2633 389.636C51.8337 390.46 51.9984 391.55 51.9984 392.665C51.9984 393.781 51.8337 394.871 51.2633 395.695C50.7437 396.455 49.9452 396.949 48.8678 396.949C47.7905 396.949 46.992 396.455 46.4724 395.695C45.902 394.871 45.7373 393.781 45.7373 392.665C45.7373 391.55 45.902 390.46 46.4724 389.636C46.992 388.876 47.7905 388.382 48.8678 388.382C49.9452 388.382 50.7437 388.876 51.2633 389.636ZM47.5244 389.902C46.992 390.485 46.7766 391.423 46.7766 392.665C46.7766 393.413 46.8526 394.06 47.0301 394.579L50.3254 390.029L50.2113 389.902C49.8818 389.548 49.4382 389.345 48.8678 389.345C48.2721 389.345 47.8539 389.548 47.5244 389.902ZM50.2113 395.428C50.7437 394.845 50.9591 393.908 50.9591 392.665C50.9591 391.956 50.8831 391.335 50.731 390.84L47.461 395.365C47.8159 395.758 48.2341 395.986 48.8678 395.986C49.4382 395.986 49.8818 395.783 50.2113 395.428Z" fill="white"/>
<path d="M67.8463 396.949C66.0972 396.949 64.8044 395.606 64.8044 393.73C64.8044 391.867 66.0972 390.523 67.8463 390.523C69.5953 390.523 70.8881 391.867 70.8881 393.73C70.8881 395.606 69.5953 396.949 67.8463 396.949ZM67.8463 396.024C68.9363 396.024 69.8615 395.2 69.8615 393.73C69.8615 392.273 68.9363 391.449 67.8463 391.449C66.7563 391.449 65.831 392.273 65.831 393.73C65.831 395.2 66.7563 396.024 67.8463 396.024ZM78.3104 391.816C78.1456 391.766 77.8921 391.702 77.4612 391.702C76.2064 391.702 75.5347 392.412 75.5347 393.806V395.872H77.4485V396.772H72.721V395.872H74.5207V391.601H72.9111V390.701H75.5093V391.892C75.8642 390.954 76.7514 390.612 77.4739 390.612C77.9175 390.612 78.1583 390.676 78.3104 390.726V391.816ZM81.0558 396.937C81.1825 397.685 81.8543 398.394 82.8682 398.394C84.2371 398.394 84.744 397.532 84.744 396.354V395.34C84.4779 395.935 83.8188 396.43 82.8175 396.43C81.2079 396.43 80.0799 395.162 80.0799 393.489C80.0799 391.804 81.1952 390.523 82.8429 390.523C83.8568 390.523 84.5159 390.967 84.7567 391.563V390.701H85.758V396.442C85.758 397.837 85.0609 399.332 82.8556 399.332C81.4107 399.332 80.2193 398.407 80.0672 397.178L81.0558 396.937ZM84.7947 393.515C84.7947 392.26 84.0469 391.436 82.9443 391.436C81.8416 391.436 81.0938 392.247 81.0938 393.477C81.0938 394.706 81.8416 395.517 82.9443 395.517C84.0469 395.517 84.7947 394.706 84.7947 393.515ZM89.5047 395.809C89.5047 395.213 89.9736 394.757 90.544 394.757C91.127 394.757 91.596 395.213 91.596 395.809C91.596 396.404 91.127 396.848 90.544 396.848C89.9736 396.848 89.5047 396.404 89.5047 395.809ZM89.5047 391.55C89.5047 390.954 89.9736 390.498 90.544 390.498C91.127 390.498 91.596 390.954 91.596 391.55C91.596 392.146 91.127 392.589 90.544 392.589C89.9736 392.589 89.5047 392.146 89.5047 391.55ZM103.259 395.859H105.591V391.613H103.525V390.701H106.605V395.859H108.937V396.772H103.259V395.859ZM105.097 388.572C105.097 388.039 105.515 387.621 106.06 387.621C106.58 387.621 106.998 388.039 106.998 388.572C106.998 389.104 106.58 389.535 106.06 389.535C105.515 389.535 105.097 389.104 105.097 388.572ZM110.859 390.701H111.847V391.588C112.228 390.866 112.988 390.523 113.825 390.523C115.409 390.523 116.169 391.601 116.169 392.944V396.772H115.156V393.147C115.156 392.273 114.763 391.474 113.584 391.474C112.621 391.474 111.873 392.197 111.873 393.363V396.772H110.859V390.701ZM118.459 395.859H120.791V391.613H118.725V390.701H121.805V395.859H124.137V396.772H118.459V395.859ZM120.296 388.572C120.296 388.039 120.715 387.621 121.26 387.621C121.779 387.621 122.198 388.039 122.198 388.572C122.198 389.104 121.779 389.535 121.26 389.535C120.715 389.535 120.296 389.104 120.296 388.572ZM131.103 390.701V391.626H128.783V394.858C128.783 395.568 129.227 395.91 129.886 395.91C130.304 395.91 130.849 395.834 131.103 395.745V396.671C130.824 396.772 130.393 396.873 129.772 396.873C128.517 396.873 127.769 396.252 127.769 395.048V391.626H125.817V390.701H126.819C127.554 390.701 127.833 390.321 127.833 389.649V388.559H128.783V390.701H131.103ZM136.332 396.949C134.748 396.949 133.316 395.796 133.316 393.717C133.316 391.766 134.735 390.523 136.231 390.523C138.031 390.523 139.121 391.766 139.121 393.591C139.121 393.717 139.108 393.857 139.095 393.946H134.355V394.034C134.355 395.175 135.28 396.012 136.332 396.012C137.359 396.012 137.942 395.441 138.183 394.731L139.057 395.048C138.715 396.1 137.739 396.949 136.332 396.949ZM138.069 393.084C138.018 392.184 137.359 391.423 136.244 391.423C135.23 391.423 134.444 392.209 134.38 393.084H138.069ZM144.033 396.949C142.373 396.949 140.954 395.695 140.954 393.73C140.954 391.74 142.424 390.523 144.021 390.523C145.668 390.523 146.556 391.474 146.809 392.45L145.884 392.83C145.719 392.197 145.161 391.474 144.021 391.474C143.019 391.474 141.98 392.235 141.98 393.73C141.98 395.213 143.019 395.999 144.033 395.999C145.25 395.999 145.744 395.175 145.922 394.63L146.809 395.01C146.518 395.91 145.63 396.949 144.033 396.949ZM148.857 387.608H149.871V391.55C150.264 390.84 151.025 390.523 151.874 390.523C153.42 390.523 154.168 391.652 154.168 393.008V396.772H153.154V393.185C153.154 392.285 152.774 391.474 151.595 391.474C150.619 391.474 149.871 392.197 149.871 393.388V396.772H148.857V387.608ZM164.45 392.691H168.835V393.578H164.45V392.691ZM182.273 396.949C181.195 396.949 180.498 396.43 180.169 395.796V396.772H179.18V387.608H180.194V391.613C180.511 391.068 181.157 390.523 182.273 390.523C184.098 390.523 185.086 391.956 185.086 393.73C185.086 395.543 184.06 396.949 182.273 396.949ZM182.121 396.024C183.312 396.024 184.06 395.074 184.06 393.73C184.06 392.387 183.325 391.449 182.121 391.449C180.917 391.449 180.169 392.387 180.169 393.73C180.169 395.074 180.929 396.024 182.121 396.024ZM190.937 395.948C190.646 396.569 189.898 396.949 189.061 396.949C187.515 396.949 186.729 395.91 186.729 394.516V390.701H187.743V394.351C187.743 395.226 188.161 396.024 189.289 396.024C190.316 396.024 190.886 395.276 190.886 394.326V390.701H191.9V395.505C191.9 395.973 191.951 396.531 191.989 396.772H191.013C190.962 396.595 190.937 396.252 190.937 395.948ZM194.202 395.859H196.534V388.521H194.532V387.608H197.548V395.859H199.88V396.772H194.202V395.859ZM202.296 396.772V387.608H203.31V393.717L206.529 390.701H207.936L205.186 393.248L208 396.772H206.669L204.425 393.958L203.31 394.998V396.772H202.296ZM220.043 396.949C218.332 396.949 217.47 395.847 217.305 395.162L218.231 394.782C218.408 395.416 219.054 396.037 220.068 396.037C220.88 396.037 221.349 395.657 221.349 395.162C221.349 394.719 221.057 394.453 220.385 394.313L219.207 394.072C218.066 393.844 217.559 393.185 217.559 392.399C217.559 391.373 218.509 390.523 219.853 390.523C221.209 390.523 222.084 391.221 222.362 392.184L221.501 392.526C221.298 391.943 220.778 391.411 219.853 391.411C219.08 391.411 218.56 391.778 218.56 392.323C218.56 392.716 218.801 393.02 219.409 393.134L220.563 393.363C221.767 393.603 222.362 394.199 222.362 395.112C222.362 395.961 221.653 396.949 220.043 396.949ZM229.493 390.701H230.609L226.464 399.18H225.336L226.996 395.847L224.271 390.701H225.45L227.529 394.757L229.493 390.701ZM232.454 390.701H233.443V391.588C233.823 390.866 234.583 390.523 235.42 390.523C237.004 390.523 237.765 391.601 237.765 392.944V396.772H236.751V393.147C236.751 392.273 236.358 391.474 235.179 391.474C234.216 391.474 233.468 392.197 233.468 393.363V396.772H232.454V390.701ZM242.829 396.949C241.169 396.949 239.75 395.695 239.75 393.73C239.75 391.74 241.22 390.523 242.817 390.523C244.464 390.523 245.352 391.474 245.605 392.45L244.68 392.83C244.515 392.197 243.958 391.474 242.817 391.474C241.816 391.474 240.776 392.235 240.776 393.73C240.776 395.213 241.816 395.999 242.829 395.999C244.046 395.999 244.541 395.175 244.718 394.63L245.605 395.01C245.314 395.91 244.426 396.949 242.829 396.949Z" fill="#FEFEFE"/>
<path d="M460.075 389.37V396.772H459.036V387.786H460.405L463.903 394.858V387.786H464.942V396.772H463.726L460.075 389.37ZM469.589 396.949C467.675 396.949 466.306 395.403 466.306 392.273C466.306 389.142 467.675 387.608 469.589 387.608C471.503 387.608 472.872 389.142 472.872 392.273C472.872 395.403 471.503 396.949 469.589 396.949ZM469.589 395.935C470.932 395.935 471.807 394.782 471.807 392.273C471.807 389.763 470.932 388.622 469.589 388.622C468.245 388.622 467.371 389.763 467.371 392.273C467.371 394.782 468.245 395.935 469.589 395.935ZM475.617 393.008V396.772H474.565V387.786H477.835C479.457 387.786 480.471 388.952 480.471 390.409C480.471 391.715 479.622 392.703 478.355 392.919L480.433 396.772H479.229L477.214 393.008H475.617ZM477.67 392.044C478.722 392.044 479.407 391.398 479.407 390.409C479.407 389.408 478.722 388.749 477.67 388.749H475.617V392.044H477.67ZM487.868 387.786V396.772H486.892V388.901L485.27 396.721H484.269L482.684 388.977V396.772H481.708V387.786H483.343L484.788 394.883L486.271 387.786H487.868ZM494.86 396.772L494.048 394.174H490.702L489.904 396.772H488.789L491.628 387.786H493.136L495.988 396.772H494.86ZM492.375 388.724L491.019 393.147H493.732L492.375 388.724ZM497.656 387.786H498.72V395.771H503.334V396.772H497.656V387.786Z" fill="white"/>
</svg>
