<svg width="331" height="150" viewBox="0 0 331 150" fill="none" xmlns="http://www.w3.org/2000/svg">
<rect x="23" y="6" width="282" height="126" rx="8" fill="#373737"/>
<rect x="33" y="6" width="260" height="104" rx="7" fill="white"/>
<rect x="33" y="6" width="260" height="104" rx="7" stroke="#1C1C1C" stroke-width="2"/>
<path d="M72.232 27.152H68.83V36H67.668V27.152H64.266V26.074H72.232V27.152ZM74.8533 29.098C76.7853 29.098 78.2133 30.582 78.2133 32.64C78.2133 34.712 76.7853 36.196 74.8533 36.196C72.9213 36.196 71.4933 34.712 71.4933 32.64C71.4933 30.582 72.9213 29.098 74.8533 29.098ZM74.8533 30.106C73.6493 30.106 72.6133 31.016 72.6133 32.64C72.6133 34.278 73.6493 35.188 74.8533 35.188C76.0573 35.188 77.0933 34.278 77.0933 32.64C77.0933 31.016 76.0573 30.106 74.8533 30.106ZM81.4543 27.166V29.294H83.0363V30.302H81.4543V34.012C81.4543 34.712 81.7623 35.062 82.4763 35.062C82.6723 35.062 82.9243 35.02 83.0363 34.992V35.944C82.9103 35.986 82.5883 36.07 82.1543 36.07C81.0483 36.07 80.3343 35.384 80.3343 34.166V30.302H78.9903V29.294H79.4243C80.1103 29.294 80.4043 28.902 80.4043 28.272V27.166H81.4543ZM84.0984 34.222C84.0984 33.046 84.9244 32.388 86.1004 32.22L87.9064 31.954C88.3964 31.884 88.5084 31.674 88.5084 31.38C88.5084 30.624 88.0044 30.05 86.9544 30.05C85.9744 30.05 85.3864 30.638 85.2884 31.492L84.2244 31.24C84.3644 29.966 85.4844 29.098 86.9264 29.098C88.8304 29.098 89.6284 30.19 89.6284 31.492V34.88C89.6284 35.44 89.6704 35.79 89.7124 36H88.6204C88.5924 35.846 88.5364 35.51 88.5364 34.992C88.2424 35.538 87.5144 36.196 86.3104 36.196C84.9244 36.196 84.0984 35.244 84.0984 34.222ZM86.4504 35.244C87.6124 35.244 88.5084 34.6 88.5084 33.172V32.724L86.3244 33.046C85.6804 33.144 85.2184 33.508 85.2184 34.166C85.2184 34.712 85.6804 35.244 86.4504 35.244ZM92.8585 36H91.7385V25.878H92.8585V36ZM102.213 29.252V30.442C102.031 30.386 101.821 30.372 101.625 30.372C100.505 30.372 99.7354 31.016 99.7354 32.528V36H98.6154V29.294H99.7074V30.498C100.141 29.518 100.995 29.196 101.737 29.196C101.919 29.196 102.115 29.224 102.213 29.252ZM107.989 35.09C107.667 35.776 106.855 36.196 105.973 36.196C104.349 36.196 103.453 34.992 103.453 33.508V29.294H104.573V33.326C104.573 34.306 105.035 35.188 106.225 35.188C107.331 35.188 107.933 34.404 107.933 33.34V29.294H109.053V34.74C109.053 35.258 109.095 35.734 109.137 36H108.059C108.017 35.846 107.989 35.482 107.989 35.146V35.09ZM112.355 32.052V36H111.235V29.294H112.327V30.302C112.761 29.518 113.545 29.098 114.427 29.098C116.037 29.098 116.821 30.246 116.821 31.702V36H115.701V31.87C115.701 30.89 115.253 30.106 114.035 30.106C112.957 30.106 112.355 31.002 112.355 32.052ZM118.372 34.236L119.38 33.886C119.478 34.656 120.052 35.244 121.06 35.244C121.858 35.244 122.362 34.796 122.362 34.222C122.362 33.718 121.956 33.382 121.34 33.242L120.248 32.99C119.226 32.752 118.582 32.094 118.582 31.128C118.582 30.008 119.646 29.098 120.92 29.098C122.656 29.098 123.258 30.204 123.412 30.89L122.418 31.254C122.334 30.792 121.984 30.05 120.92 30.05C120.22 30.05 119.674 30.498 119.674 31.058C119.674 31.534 119.968 31.828 120.556 31.968L121.648 32.22C122.824 32.486 123.468 33.172 123.468 34.166C123.468 35.132 122.642 36.196 121.046 36.196C119.282 36.196 118.484 35.076 118.372 34.236ZM130.112 27.166V29.294H131.694V30.302H130.112V34.012C130.112 34.712 130.42 35.062 131.134 35.062C131.33 35.062 131.582 35.02 131.694 34.992V35.944C131.568 35.986 131.246 36.07 130.812 36.07C129.706 36.07 128.992 35.384 128.992 34.166V30.302H127.648V29.294H128.082C128.768 29.294 129.062 28.902 129.062 28.272V27.166H130.112ZM136.131 29.098C138.063 29.098 139.491 30.582 139.491 32.64C139.491 34.712 138.063 36.196 136.131 36.196C134.199 36.196 132.771 34.712 132.771 32.64C132.771 30.582 134.199 29.098 136.131 29.098ZM136.131 30.106C134.927 30.106 133.891 31.016 133.891 32.64C133.891 34.278 134.927 35.188 136.131 35.188C137.335 35.188 138.371 34.278 138.371 32.64C138.371 31.016 137.335 30.106 136.131 30.106ZM145.877 36H144.785V25.878H145.905V30.386C146.213 29.756 146.997 29.098 148.201 29.098C150.189 29.098 151.253 30.68 151.253 32.64C151.253 34.642 150.119 36.196 148.173 36.196C147.053 36.196 146.269 35.622 145.877 34.894V36ZM148.005 35.188C149.293 35.188 150.133 34.124 150.133 32.64C150.133 31.156 149.307 30.106 148.005 30.106C146.703 30.106 145.877 31.156 145.877 32.64C145.877 34.124 146.717 35.188 148.005 35.188ZM153.702 31.996H157.706C157.678 30.932 156.992 30.092 155.718 30.092C154.556 30.092 153.772 31.002 153.702 31.996ZM157.86 33.746L158.826 34.096C158.448 35.258 157.398 36.196 155.844 36.196C154.052 36.196 152.526 34.88 152.526 32.626C152.526 30.512 154.01 29.098 155.704 29.098C157.734 29.098 158.868 30.512 158.868 32.556C158.868 32.696 158.854 32.85 158.84 32.948H153.674V33.004C153.674 34.278 154.64 35.188 155.844 35.188C156.978 35.188 157.594 34.544 157.86 33.746ZM167.729 29.252V30.442C167.547 30.386 167.337 30.372 167.141 30.372C166.021 30.372 165.251 31.016 165.251 32.528V36H164.131V29.294H165.223V30.498C165.657 29.518 166.511 29.196 167.253 29.196C167.435 29.196 167.631 29.224 167.729 29.252ZM169.617 31.996H173.621C173.593 30.932 172.907 30.092 171.633 30.092C170.471 30.092 169.687 31.002 169.617 31.996ZM173.775 33.746L174.741 34.096C174.363 35.258 173.313 36.196 171.759 36.196C169.967 36.196 168.441 34.88 168.441 32.626C168.441 30.512 169.925 29.098 171.619 29.098C173.649 29.098 174.783 30.512 174.783 32.556C174.783 32.696 174.769 32.85 174.755 32.948H169.589V33.004C169.589 34.278 170.555 35.188 171.759 35.188C172.893 35.188 173.509 34.544 173.775 33.746ZM177.597 38.66H176.477V29.294H177.569V30.414C177.919 29.728 178.703 29.098 179.893 29.098C181.867 29.098 182.945 30.638 182.945 32.64C182.945 34.642 181.797 36.196 179.865 36.196C178.717 36.196 177.947 35.594 177.597 34.964V38.66ZM179.697 35.188C180.985 35.188 181.825 34.124 181.825 32.64C181.825 31.156 180.999 30.106 179.697 30.106C178.395 30.106 177.569 31.156 177.569 32.64C177.569 34.124 178.409 35.188 179.697 35.188ZM185.8 36H184.68V25.878H185.8V36ZM187.512 34.222C187.512 33.046 188.338 32.388 189.514 32.22L191.32 31.954C191.81 31.884 191.922 31.674 191.922 31.38C191.922 30.624 191.418 30.05 190.368 30.05C189.388 30.05 188.8 30.638 188.702 31.492L187.638 31.24C187.778 29.966 188.898 29.098 190.34 29.098C192.244 29.098 193.042 30.19 193.042 31.492V34.88C193.042 35.44 193.084 35.79 193.126 36H192.034C192.006 35.846 191.95 35.51 191.95 34.992C191.656 35.538 190.928 36.196 189.724 36.196C188.338 36.196 187.512 35.244 187.512 34.222ZM189.864 35.244C191.026 35.244 191.922 34.6 191.922 33.172V32.724L189.738 33.046C189.094 33.144 188.632 33.508 188.632 34.166C188.632 34.712 189.094 35.244 189.864 35.244ZM196.683 38.66H195.437L197.061 35.202L194.177 29.294H195.465L197.677 34.04L199.763 29.294H200.981L196.683 38.66ZM202.812 31.996H206.816C206.788 30.932 206.102 30.092 204.828 30.092C203.666 30.092 202.882 31.002 202.812 31.996ZM206.97 33.746L207.936 34.096C207.558 35.258 206.508 36.196 204.954 36.196C203.162 36.196 201.636 34.88 201.636 32.626C201.636 30.512 203.12 29.098 204.814 29.098C206.844 29.098 207.978 30.512 207.978 32.556C207.978 32.696 207.964 32.85 207.95 32.948H202.784V33.004C202.784 34.278 203.75 35.188 204.954 35.188C206.088 35.188 206.704 34.544 206.97 33.746ZM214.53 35.034V34.852C214.222 35.51 213.494 36.196 212.332 36.196C210.4 36.196 209.224 34.628 209.224 32.64C209.224 30.694 210.456 29.098 212.332 29.098C213.62 29.098 214.278 29.812 214.502 30.372V25.878H215.622V34.74C215.622 35.412 215.664 35.86 215.692 36H214.6C214.572 35.846 214.53 35.468 214.53 35.034ZM212.43 35.188C213.69 35.188 214.53 34.124 214.53 32.64C214.53 31.156 213.704 30.106 212.43 30.106C211.156 30.106 210.344 31.156 210.344 32.64C210.344 34.124 211.17 35.188 212.43 35.188ZM217.681 35.202C217.681 34.712 218.073 34.334 218.549 34.334C219.025 34.334 219.417 34.712 219.417 35.202C219.417 35.692 219.025 36.07 218.549 36.07C218.073 36.07 217.681 35.692 217.681 35.202ZM217.681 30.092C217.681 29.602 218.073 29.224 218.549 29.224C219.025 29.224 219.417 29.602 219.417 30.092C219.417 30.582 219.025 30.96 218.549 30.96C218.073 30.96 217.681 30.582 217.681 30.092ZM226.249 30.428L224.415 30.372C224.387 30.246 224.345 29.966 224.345 29.742C224.345 28.146 225.549 26.704 227.663 26.704C229.693 26.704 230.939 28.048 230.939 29.63C230.939 30.806 230.295 31.758 229.175 32.444L227.425 33.508C227.075 33.732 226.781 33.984 226.641 34.334H230.995V36H224.275C224.289 34.404 224.793 33.102 226.417 32.122L227.915 31.226C228.685 30.764 228.993 30.288 228.993 29.658C228.993 29 228.531 28.412 227.621 28.412C226.655 28.412 226.179 29.07 226.179 29.924C226.179 30.092 226.207 30.274 226.249 30.428ZM232.289 34.88C232.289 34.208 232.835 33.704 233.563 33.704C234.431 33.704 234.949 34.404 234.949 35.314C234.949 37.372 233.521 38.24 232.485 38.366V37.47C233.115 37.33 233.787 36.728 233.815 35.958C233.759 36 233.605 36.042 233.451 36.042C232.765 36.042 232.289 35.552 232.289 34.88ZM238.843 31.968L237.989 30.624L240.369 28.58H236.393V26.914H242.819V28.468L240.467 30.428C241.839 30.484 243.099 31.534 243.099 33.2C243.099 34.768 241.811 36.21 239.613 36.21C237.499 36.21 236.211 34.838 236.099 33.312L237.961 32.948C238.003 33.872 238.661 34.544 239.613 34.544C240.579 34.544 241.153 33.928 241.153 33.172C241.153 32.318 240.537 31.828 239.669 31.828C239.277 31.828 239.039 31.898 238.843 31.968ZM244.123 34.054V32.038L247.945 26.914H250.325V32.402H251.823V34.054H250.325V36H248.421V34.054H244.123ZM248.421 32.402V28.93L245.831 32.402H248.421ZM254.783 31.464C254.783 32.416 254.923 33.228 255.273 33.774C255.553 34.222 255.987 34.516 256.645 34.516C257.317 34.516 257.723 34.222 258.003 33.774C258.367 33.228 258.507 32.416 258.507 31.464C258.507 30.512 258.367 29.7 258.003 29.154C257.723 28.706 257.317 28.412 256.645 28.412C255.987 28.412 255.553 28.706 255.273 29.154C254.923 29.7 254.783 30.512 254.783 31.464ZM252.851 31.464C252.851 30.302 253.033 29.168 253.649 28.23C254.251 27.334 255.231 26.704 256.645 26.704C258.059 26.704 259.039 27.334 259.627 28.23C260.243 29.168 260.439 30.302 260.439 31.464C260.439 32.626 260.243 33.76 259.627 34.698C259.039 35.594 258.059 36.224 256.645 36.224C255.231 36.224 254.251 35.594 253.649 34.698C253.033 33.76 252.851 32.626 252.851 31.464Z" fill="#373737"/>
<g filter="url(#filter0_dd_3475_979)">
<rect x="85.5" y="57" width="155" height="38" rx="6" fill="#027A48"/>
<path d="M109.5 68C106.751 68 104.325 69.3863 102.884 71.5H105.5V73.5H99.5V67.5H101.5V69.9994C103.324 67.5717 106.228 66 109.5 66C115.023 66 119.5 70.4771 119.5 76H117.5C117.5 71.5817 113.918 68 109.5 68ZM101.5 76C101.5 80.4183 105.082 84 109.5 84C112.249 84 114.675 82.6137 116.116 80.5H113.5V78.5H119.5V84.5H117.5V82.0006C115.676 84.4283 112.772 86 109.5 86C103.977 86 99.5 81.5228 99.5 76H101.5Z" fill="white"/>
<path d="M133.758 81L131.672 77.08H130.44V81H128.746V71.074H132.554C134.472 71.074 135.662 72.404 135.662 74.084C135.662 75.498 134.808 76.576 133.422 76.912L135.662 81H133.758ZM130.44 75.596H132.246C133.282 75.596 133.954 74.994 133.954 74.084C133.954 73.16 133.282 72.558 132.246 72.558H130.44V75.596ZM138.217 76.842H141.563C141.535 76.044 141.003 75.33 139.883 75.33C138.861 75.33 138.273 76.114 138.217 76.842ZM141.745 78.62L143.117 79.054C142.753 80.244 141.675 81.21 140.037 81.21C138.189 81.21 136.551 79.866 136.551 77.556C136.551 75.4 138.147 73.972 139.869 73.972C141.969 73.972 143.201 75.358 143.201 77.514C143.201 77.78 143.173 78.004 143.159 78.032H138.175C138.217 79.068 139.029 79.81 140.037 79.81C141.017 79.81 141.521 79.292 141.745 78.62ZM146.388 83.66H144.778V74.182H146.346V75.106C146.682 74.518 147.466 74.028 148.516 74.028C150.532 74.028 151.666 75.568 151.666 77.584C151.666 79.628 150.42 81.168 148.46 81.168C147.48 81.168 146.738 80.748 146.388 80.23V83.66ZM150.042 77.584C150.042 76.31 149.3 75.47 148.208 75.47C147.144 75.47 146.374 76.31 146.374 77.584C146.374 78.886 147.144 79.726 148.208 79.726C149.286 79.726 150.042 78.886 150.042 77.584ZM154.892 81H153.268V70.864H154.892V81ZM156.484 79.152C156.484 77.934 157.38 77.262 158.542 77.094L160.292 76.828C160.684 76.772 160.796 76.576 160.796 76.338C160.796 75.764 160.404 75.302 159.508 75.302C158.654 75.302 158.178 75.848 158.108 76.534L156.624 76.198C156.75 75.022 157.814 73.972 159.494 73.972C161.594 73.972 162.392 75.162 162.392 76.52V79.908C162.392 80.524 162.462 80.93 162.476 81H160.964C160.95 80.958 160.894 80.678 160.894 80.132C160.572 80.65 159.9 81.21 158.794 81.21C157.366 81.21 156.484 80.23 156.484 79.152ZM159.102 79.936C160.012 79.936 160.796 79.502 160.796 78.172V77.864L159.018 78.13C158.514 78.214 158.108 78.494 158.108 79.054C158.108 79.516 158.458 79.936 159.102 79.936ZM166.363 83.758H164.627L166.265 80.188L163.353 74.182H165.187L167.147 78.494L168.981 74.182H170.703L166.363 83.758ZM178.117 72.25C177.683 72.25 177.109 72.446 177.109 73.286V74.182H178.691V75.596H177.109V81H175.471V75.596H174.281V74.182H175.471V73.244C175.471 71.718 176.451 70.794 177.851 70.794C178.257 70.794 178.593 70.878 178.705 70.934V72.32C178.607 72.292 178.425 72.25 178.117 72.25ZM184.421 80.244C184.085 80.86 183.287 81.196 182.489 81.196C180.865 81.196 179.913 79.992 179.913 78.48V74.182H181.537V78.186C181.537 79.026 181.929 79.74 182.909 79.74C183.847 79.74 184.337 79.11 184.337 78.214V74.182H185.961V79.754C185.961 80.314 186.003 80.748 186.031 81H184.477C184.449 80.846 184.421 80.524 184.421 80.244ZM189.605 77.066V81H187.981V74.182H189.563V75.092C190.011 74.308 190.823 73.986 191.579 73.986C193.245 73.986 194.043 75.19 194.043 76.688V81H192.419V76.968C192.419 76.128 192.041 75.456 191.019 75.456C190.095 75.456 189.605 76.17 189.605 77.066ZM199.058 75.47C198.064 75.47 197.182 76.212 197.182 77.584C197.182 78.956 198.064 79.726 199.086 79.726C200.15 79.726 200.64 78.984 200.794 78.466L202.222 78.984C201.9 80.048 200.878 81.21 199.086 81.21C197.084 81.21 195.558 79.656 195.558 77.584C195.558 75.484 197.084 73.972 199.044 73.972C200.878 73.972 201.886 75.12 202.166 76.212L200.71 76.744C200.556 76.142 200.094 75.47 199.058 75.47ZM205.818 72.096V74.182H207.232V75.624H205.818V78.788C205.818 79.39 206.084 79.642 206.686 79.642C206.91 79.642 207.176 79.6 207.246 79.586V80.93C207.148 80.972 206.84 81.084 206.252 81.084C204.992 81.084 204.208 80.328 204.208 79.054V75.624H202.948V74.182H203.298C204.026 74.182 204.348 73.72 204.348 73.118V72.096H205.818ZM210.399 81H208.789V74.182H210.399V81ZM208.537 71.788C208.537 71.2 209.013 70.724 209.587 70.724C210.175 70.724 210.651 71.2 210.651 71.788C210.651 72.376 210.175 72.838 209.587 72.838C209.013 72.838 208.537 72.376 208.537 71.788ZM215.506 79.754C216.514 79.754 217.41 79.012 217.41 77.584C217.41 76.17 216.514 75.442 215.506 75.442C214.512 75.442 213.602 76.17 213.602 77.584C213.602 78.998 214.512 79.754 215.506 79.754ZM215.506 73.972C217.55 73.972 219.048 75.498 219.048 77.584C219.048 79.684 217.55 81.21 215.506 81.21C213.476 81.21 211.978 79.684 211.978 77.584C211.978 75.498 213.476 73.972 215.506 73.972ZM222.253 77.066V81H220.629V74.182H222.211V75.092C222.659 74.308 223.471 73.986 224.227 73.986C225.893 73.986 226.691 75.19 226.691 76.688V81H225.067V76.968C225.067 76.128 224.689 75.456 223.667 75.456C222.743 75.456 222.253 76.17 222.253 77.066Z" fill="white"/>
</g>
<defs>
<filter id="filter0_dd_3475_979" x="83.5" y="56" width="159" height="42" filterUnits="userSpaceOnUse" color-interpolation-filters="sRGB">
<feFlood flood-opacity="0" result="BackgroundImageFix"/>
<feColorMatrix in="SourceAlpha" type="matrix" values="0 0 0 0 0 0 0 0 0 0 0 0 0 0 0 0 0 0 127 0" result="hardAlpha"/>
<feOffset dy="1"/>
<feGaussianBlur stdDeviation="1"/>
<feComposite in2="hardAlpha" operator="out"/>
<feColorMatrix type="matrix" values="0 0 0 0 0 0 0 0 0 0 0 0 0 0 0 0 0 0 0.15 0"/>
<feBlend mode="normal" in2="BackgroundImageFix" result="effect1_dropShadow_3475_979"/>
<feColorMatrix in="SourceAlpha" type="matrix" values="0 0 0 0 0 0 0 0 0 0 0 0 0 0 0 0 0 0 127 0" result="hardAlpha"/>
<feMorphology radius="0.5" operator="dilate" in="SourceAlpha" result="effect2_dropShadow_3475_979"/>
<feOffset/>
<feComposite in2="hardAlpha" operator="out"/>
<feColorMatrix type="matrix" values="0 0 0 0 0 0 0 0 0 0 0 0 0 0 0 0 0 0 0.1 0"/>
<feBlend mode="normal" in2="effect1_dropShadow_3475_979" result="effect2_dropShadow_3475_979"/>
<feBlend mode="normal" in="SourceGraphic" in2="effect2_dropShadow_3475_979" result="shape"/>
</filter>
</defs>
</svg>
