<svg xmlns="http://www.w3.org/2000/svg" viewBox="0 0 406.653 405" fill="#fff" aria-hidden="true"><circle cx="19.516" cy="1.344" r="1.41"/><circle cx="19.516" cy="24.371" r="1.41"/><circle cx="42.406" cy="1.351" r="1.406"/><circle cx="42.406" cy="24.371" r="1.41"/><circle cx="65.439" cy="1.385" r="1.379"/><circle cx="65.432" cy="24.412" r="1.382"/><circle cx="88.466" cy="1.379" r="1.389"/><circle cx="88.466" cy="24.372" r="1.407"/><circle cx="111.356" cy="1.385" r="1.386"/><circle cx="111.356" cy="24.371" r="1.407"/><circle cx="134.374" cy="1.385" r="1.382"/><circle cx="134.374" cy="24.412" r="1.382"/><circle cx="157.401" cy="1.351" r="1.406"/><circle cx="157.401" cy="24.378" r="1.406"/><circle cx="180.29" cy="1.351" r="1.4"/><circle cx="180.297" cy="24.233" r="1.407"/><circle cx="203.309" cy="1.343" r="1.406"/><circle cx="203.309" cy="24.233" r="1.406"/><circle cx="226.346" cy="1.334" r="1.407"/><circle cx="226.346" cy="24.259" r="1.389"/><circle cx="249.237" cy="1.334" r="1.407"/><circle cx="249.237" cy="24.396" r="1.389"/><circle cx="272.263" cy="1.368" r="1.382"/><circle cx="272.263" cy="24.39" r="1.386"/><circle cx="295.29" cy="1.327" r="1.41"/><circle cx="295.29" cy="24.362" r="1.407"/><circle cx="318.181" cy="1.362" r="1.393"/><circle cx="318.181" cy="24.396" r="1.389"/><circle cx="341.207" cy="1.335" r="1.4"/><circle cx="341.207" cy="24.355" r="1.403"/><circle cx="364.243" cy="1.369" r="1.386"/><circle cx="364.243" cy="24.396" r="1.386"/><circle cx="387.125" cy="1.334" r="1.407"/><circle cx="387.125" cy="24.355" r="1.41"/><circle cx="19.516" cy="47.26" r="1.41"/><circle cx="42.406" cy="47.26" r="1.41"/><circle cx="65.432" cy="47.302" r="1.382"/><circle cx="88.466" cy="47.295" r="1.389"/><circle cx="111.356" cy="47.26" r="1.407"/><circle cx="134.374" cy="47.164" r="1.382"/><circle cx="157.262" cy="46.984" r="1.41"/><circle cx="180.297" cy="46.991" r="1.403"/><circle cx="203.309" cy="46.888" r="1.386"/><circle cx="226.342" cy="47.026" r="1.389"/><circle cx="249.364" cy="47.026" r="1.379"/><circle cx="272.259" cy="47.164" r="1.382"/><circle cx="295.29" cy="47.279" r="1.393"/><circle cx="318.181" cy="47.286" r="1.389"/><circle cx="341.207" cy="47.252" r="1.4"/><circle cx="364.243" cy="47.286" r="1.386"/><circle cx="387.125" cy="47.286" r="1.389"/><circle cx="19.516" cy="70.288" r="1.41"/><circle cx="42.406" cy="70.288" r="1.41"/><circle cx="65.294" cy="70.149" r="1.403"/><circle cx="88.327" cy="69.873" r="1.407"/><circle cx="111.209" cy="69.632" r="1.393"/><circle cx="134.099" cy="69.219" r="1.393"/><circle cx="157.125" cy="68.77" r="1.403"/><circle cx="180.15" cy="68.536" r="1.389"/><circle cx="203.309" cy="68.398" r="1.386"/><circle cx="226.483" cy="68.496" r="1.41"/><circle cx="249.507" cy="68.771" r="1.403"/><circle cx="272.539" cy="69.219" r="1.389"/><circle cx="295.43" cy="69.59" r="1.406"/><circle cx="318.318" cy="69.858" r="1.403"/><circle cx="341.352" cy="70.176" r="1.386"/><circle cx="364.243" cy="70.314" r="1.386"/><circle cx="387.125" cy="70.307" r="1.393"/><circle cx="19.379" cy="93.176" r="1.41"/><circle cx="42.267" cy="92.942" r="1.389"/><circle cx="65.019" cy="92.528" r="1.389"/><circle cx="87.768" cy="91.66" r="1.41"/><circle cx="110.519" cy="90.833" r="1.41"/><circle cx="133.409" cy="89.77" r="1.389"/><circle cx="156.579" cy="88.806" r="1.386"/><circle cx="179.876" cy="88.074" r="1.403"/><circle cx="203.309" cy="87.971" r="1.389"/><circle cx="226.756" cy="88.074" r="1.403"/><circle cx="250.053" cy="88.764" r="1.4"/><circle cx="273.224" cy="89.77" r="1.389"/><circle cx="296.119" cy="90.819" r="1.41"/><circle cx="318.871" cy="91.687" r="1.389"/><circle cx="341.629" cy="92.474" r="1.406"/><circle cx="364.374" cy="92.928" r="1.389"/><circle cx="387.262" cy="93.203" r="1.382"/><circle cx="19.097" cy="115.789" r="1.407"/><circle cx="41.577" cy="115.108" r="1.406"/><circle cx="64.053" cy="113.902" r="1.382"/><circle cx="86.389" cy="112.204" r="1.41"/><circle cx="109.004" cy="110.136" r="1.41"/><circle cx="131.893" cy="108.108" r="1.389"/><circle cx="155.341" cy="106.179" r="1.386"/><circle cx="179.18" cy="104.897" r="1.407"/><circle cx="203.309" cy="104.345" r="1.406"/><circle cx="227.445" cy="104.904" r="1.4"/><circle cx="251.299" cy="106.137" r="1.41"/><circle cx="274.748" cy="108.104" r="1.389"/><circle cx="297.629" cy="110.122" r="1.406"/><circle cx="320.249" cy="112.191" r="1.41"/><circle cx="342.579" cy="113.846" r="1.4"/><circle cx="365.063" cy="115.122" r="1.393"/><circle cx="387.537" cy="115.812" r="1.392"/><circle cx="18.278" cy="137.852" r="1.41"/><circle cx="40.198" cy="136.336" r="1.41"/><circle cx="61.985" cy="134.033" r="1.389"/><circle cx="83.772" cy="130.998" r="1.389"/><circle cx="106.107" cy="127.234" r="1.403"/><circle cx="129.136" cy="123.511" r="1.41"/><circle cx="153.132" cy="120.34" r="1.407"/><circle cx="177.952" cy="118.03" r="1.389"/><circle cx="203.309" cy="117.349" r="1.386"/><circle cx="228.688" cy="118.037" r="1.383"/><circle cx="253.507" cy="120.348" r="1.4"/><circle cx="277.497" cy="123.553" r="1.389"/><circle cx="300.531" cy="127.222" r="1.403"/><circle cx="322.868" cy="130.952" r="1.407"/><circle cx="344.655" cy="133.978" r="1.403"/><circle cx="366.442" cy="136.323" r="1.403"/><circle cx="388.364" cy="137.839" r="1.41"/><circle cx="16.621" cy="159.362" r="1.41"/><circle cx="37.579" cy="156.742" r="1.41"/><circle cx="58.399" cy="152.786" r="1.382"/><circle cx="79.36" cy="147.822" r="1.389"/><circle cx="101.274" cy="141.988" r="1.406"/><circle cx="124.576" cy="136.197" r="1.406"/><circle cx="149.535" cy="130.957" r="1.406"/><circle cx="176.016" cy="127.511" r="1.41"/><circle cx="203.309" cy="126.132" r="1.406"/><circle cx="230.618" cy="127.517" r="1.406"/><circle cx="257.084" cy="130.957" r="1.407"/><circle cx="282.054" cy="136.192" r="1.407"/><circle cx="305.35" cy="141.976" r="1.406"/><circle cx="327.282" cy="147.775" r="1.4"/><circle cx="348.24" cy="152.766" r="1.393"/><circle cx="369.061" cy="156.765" r="1.393"/><circle cx="390.014" cy="159.35" r="1.406"/><circle cx="14.002" cy="180.458" r="1.41"/><circle cx="33.573" cy="176.323" r="1.407"/><circle cx="52.877" cy="170.572" r="1.379"/><circle cx="72.602" cy="163.229" r="1.407"/><circle cx="93.974" cy="154.949" r="1.41"/><circle cx="117.552" cy="146.401" r="1.41"/><circle cx="144.026" cy="138.825" r="1.4"/><circle cx="172.843" cy="133.625" r="1.379"/><circle cx="203.309" cy="131.688" r="1.386"/><circle cx="233.796" cy="133.578" r="1.407"/><circle cx="262.607" cy="138.858" r="1.382"/><circle cx="289.087" cy="146.388" r="1.41"/><circle cx="312.665" cy="154.949" r="1.407"/><circle cx="334.037" cy="163.211" r="1.41"/><circle cx="353.756" cy="170.526" r="1.407"/><circle cx="373.06" cy="176.338" r="1.396"/><circle cx="392.639" cy="180.448" r="1.41"/><circle cx="10.141" cy="201.142" r="1.403"/><circle cx="27.789" cy="195.765" r="1.41"/><circle cx="45.161" cy="188.05" r="1.406"/><circle cx="63.364" cy="178.432" r="1.383"/><circle cx="75.083" cy="162.362" r="1.517"/><circle cx="83.772" cy="167.125" r="1.389"/><circle cx="98.248" cy="153.261" r="1.517"/><circle cx="107.763" cy="155.501" r="1.41"/><circle cx="124.31" cy="144.167" r="1.5"/><circle cx="136.169" cy="145.063" r="1.389"/><circle cx="153.402" cy="136.742" r="1.475"/><circle cx="168.431" cy="137.611" r="1.392"/><circle cx="203.309" cy="134.998" r="1.386"/><circle cx="238.201" cy="137.618" r="1.389"/><circle cx="270.475" cy="145.057" r="1.389"/><circle cx="298.892" cy="155.537" r="1.389"/><circle cx="322.868" cy="167.072" r="1.41"/><circle cx="343.276" cy="178.379" r="1.403"/><circle cx="361.478" cy="188.031" r="1.41"/><circle cx="378.851" cy="195.76" r="1.407"/><circle cx="396.508" cy="201.131" r="1.406"/><circle cx="5.176" cy="222.238" r="1.41"/><circle cx="20.476" cy="215.62" r="1.406"/><circle cx="35.518" cy="206.416" r="1.389"/><circle cx="51.507" cy="194.531" r="1.399"/><circle cx="64.742" cy="177.522" r="1.527"/><circle cx="70.534" cy="180.603" r="1.407"/><circle cx="87.218" cy="165.25" r="1.527"/><circle cx="94.801" cy="165.712" r="1.407"/><circle cx="114.105" cy="152.703" r="1.52"/><circle cx="125.404" cy="151.916" r="1.407"/><circle cx="145.958" cy="142.244" r="1.489"/><circle cx="162.364" cy="142.126" r="1.41"/><circle cx="203.309" cy="138.445" r="1.386"/><circle cx="220.826" cy="135.666" r="1.427"/><circle cx="244.27" cy="142.169" r="1.389"/><circle cx="281.22" cy="152.084" r="1.386"/><circle cx="311.832" cy="165.705" r="1.41"/><circle cx="336.106" cy="180.592" r="1.407"/><circle cx="355.142" cy="194.691" r="1.386"/><circle cx="371.129" cy="206.413" r="1.389"/><circle cx="386.158" cy="215.609" r="1.41"/><circle cx="401.465" cy="222.27" r="1.389"/><circle cx="-0.615" cy="244.342" r="1.389"/><circle cx="12.209" cy="237.137" r="1.399"/><circle cx="19.518" cy="218.213" r="1.507"/><circle cx="24.342" cy="227.106" r="1.389"/><circle cx="34.684" cy="207.995" r="1.527"/><circle cx="37.579" cy="213.964" r="1.41"/><circle cx="54.677" cy="197.971" r="1.41"/><circle cx="72.601" cy="179.176" r="1.52"/><circle cx="78.393" cy="180.466" r="1.4"/><circle cx="99.904" cy="162.907" r="1.527"/><circle cx="111.479" cy="163.539" r="1.386"/><circle cx="134.925" cy="148.718" r="1.499"/><circle cx="154.229" cy="150.813" r="1.403"/><circle cx="176.836" cy="139.934" r="1.441"/><circle cx="203.309" cy="145.988" r="1.406"/><circle cx="223.859" cy="139.397" r="1.424"/><circle cx="252.404" cy="150.82" r="1.407"/><circle cx="263.018" cy="146.242" r="1.489"/><circle cx="295.147" cy="163.499" r="1.41"/><circle cx="328.253" cy="180.448" r="1.406"/><circle cx="351.963" cy="198.001" r="1.389"/><circle cx="369.061" cy="213.996" r="1.389"/><circle cx="382.298" cy="227.096" r="1.389"/><circle cx="394.432" cy="237.128" r="1.407"/><circle cx="407.249" cy="244.332" r="1.386"/><circle cx="3.795" cy="260.844" r="1.407"/><circle cx="10.554" cy="241.508" r="1.51"/><circle cx="12.76" cy="251.202" r="1.407"/><circle cx="22.413" cy="230.608" r="1.52"/><circle cx="22.833" cy="238.372" r="1.407"/><circle cx="36.063" cy="216" r="1.51"/><circle cx="37.165" cy="222.281" r="1.382"/><circle cx="59.642" cy="203.632" r="1.406"/><circle cx="81.563" cy="178.488" r="1.527"/><circle cx="94.526" cy="184.464" r="1.406"/><circle cx="119.759" cy="160.294" r="1.51"/><circle cx="143.751" cy="169.014" r="1.41"/><circle cx="168.154" cy="148.469" r="1.444"/><circle cx="203.313" cy="162.798" r="1.406"/><circle cx="228.003" cy="147.249" r="1.431"/><circle cx="262.888" cy="169.002" r="1.41"/><circle cx="274.056" cy="156.151" r="1.5"/><circle cx="312.1" cy="184.465" r="1.403"/><circle cx="311.967" cy="171.18" r="1.527"/><circle cx="346.999" cy="203.654" r="1.389"/><circle cx="369.475" cy="222.235" r="1.4"/><circle cx="383.815" cy="238.362" r="1.403"/><circle cx="393.881" cy="251.186" r="1.41"/><circle cx="402.844" cy="260.837" r="1.41"/><circle cx="1.726" cy="267.574" r="1.496"/><circle cx="2.555" cy="279.626" r="1.385"/><circle cx="10.142" cy="257.642" r="1.517"/><circle cx="9.318" cy="269.256" r="1.403"/><circle cx="20.067" cy="243.707" r="1.527"/><circle cx="20.476" cy="255.607" r="1.406"/><circle cx="34.967" cy="225.644" r="1.523"/><circle cx="40.613" cy="239.068" r="1.4"/><circle cx="59.498" cy="203.816" r="1.379"/><circle cx="75.919" cy="220.481" r="1.39"/><circle cx="130.94" cy="203.651" r="1.389"/><circle cx="136.719" cy="186.078" r="1.51"/><circle cx="173.395" cy="164.34" r="1.431"/><circle cx="203.313" cy="196.07" r="1.385"/><circle cx="233.24" cy="164.335" r="1.434"/><circle cx="275.711" cy="203.647" r="1.386"/><circle cx="269.921" cy="186.066" r="1.51"/><circle cx="287.839" cy="175.467" r="1.5"/><circle cx="330.727" cy="220.436" r="1.403"/><circle cx="322.318" cy="201.916" r="1.527"/><circle cx="330.039" cy="193.092" r="1.527"/><circle cx="366.021" cy="239.058" r="1.403"/><circle cx="357.339" cy="220.808" r="1.527"/><circle cx="386.158" cy="255.633" r="1.393"/><circle cx="378.575" cy="238.596" r="1.527"/><circle cx="397.328" cy="269.276" r="1.396"/><circle cx="404.083" cy="279.626" r="1.393"/><circle cx="-0.065" cy="289.643" r="1.486"/><circle cx="-0.203" cy="306.245" r="1.382"/><circle cx="6.138" cy="279.018" r="1.496"/><circle cx="8.063" cy="298.524" r="1.386"/><circle cx="17.17" cy="264.257" r="1.506"/><circle cx="25.589" cy="288.457" r="1.386"/><circle cx="59.219" cy="276.281" r="1.406"/><circle cx="117.14" cy="262.768" r="1.403"/><circle cx="123.205" cy="232.979" r="1.486"/><circle cx="203.313" cy="254.812" r="1.385"/><circle cx="203.32" cy="225.455" r="1.382"/><circle cx="239.723" cy="197.973" r="1.438"/><circle cx="289.499" cy="262.809" r="1.382"/><circle cx="283.426" cy="232.979" r="1.486"/><circle cx="303.696" cy="210.766" r="1.499"/><circle cx="347.413" cy="276.281" r="1.403"/><circle cx="340.379" cy="247.993" r="1.496"/><circle cx="348.791" cy="228.805" r="1.527"/><circle cx="381.057" cy="288.457" r="1.382"/><circle cx="374.714" cy="263.292" r="1.5"/><circle cx="398.57" cy="298.524" r="1.389"/><circle cx="393.329" cy="276.668" r="1.5"/><circle cx="406.841" cy="306.245" r="1.389"/><circle cx="402.843" cy="287.43" r="1.489"/><circle cx="3.795" cy="347.302" r="1.407"/><circle cx="5.865" cy="312.698" r="1.437"/><circle cx="20.066" cy="347.847" r="1.41"/><circle cx="21.308" cy="317.952" r="1.423"/><circle cx="42.267" cy="281.763" r="1.51"/><circle cx="52.477" cy="348.44" r="1.386"/><circle cx="53.986" cy="312.154" r="1.427"/><circle cx="88.044" cy="268.683" r="1.479"/><circle cx="109.831" cy="349.232" r="1.406"/><circle cx="203.313" cy="350.19" r="1.406"/><circle cx="296.809" cy="349.225" r="1.41"/><circle cx="318.594" cy="268.683" r="1.486"/><circle cx="354.155" cy="348.405" r="1.399"/><circle cx="364.372" cy="281.763" r="1.517"/><circle cx="386.573" cy="347.881" r="1.393"/><circle cx="402.844" cy="347.295" r="1.41"/><circle cx="0.487" cy="387.462" r="1.383"/><circle cx="8.89" cy="395.84" r="1.403"/><circle cx="21.859" cy="377.377" r="1.434"/><circle cx="54.676" cy="384.264" r="1.438"/><circle cx="81.144" cy="349.004" r="1.379"/><circle cx="325.489" cy="349.004" r="1.382"/><circle cx="351.964" cy="384.264" r="1.438"/><circle cx="384.78" cy="377.377" r="1.434"/><circle cx="397.742" cy="395.832" r="1.403"/><circle cx="401.464" cy="371.723" r="1.434"/><circle cx="406.152" cy="387.462" r="1.389"/><circle cx="4.753" cy="405.877" r="1.493"/><circle cx="402.975" cy="402.155" r="1.493"/></svg>
