<svg width="57" height="34" viewBox="0 0 57 34" fill="none" xmlns="http://www.w3.org/2000/svg">
<mask id="path-1-inside-1_3332_437" fill="white">
<path d="M16.2469 12.7031C16.2469 13.3913 16.3215 13.9494 16.4519 14.3586C16.6011 14.7678 16.7875 15.2142 17.0484 15.6978C17.1416 15.8466 17.1789 15.9954 17.1789 16.1256C17.1789 16.3116 17.0671 16.4976 16.8248 16.6836L15.6504 17.4649C15.4826 17.5765 15.3149 17.6323 15.1657 17.6323C14.9793 17.6323 14.7929 17.5393 14.6065 17.3719C14.3456 17.0929 14.1219 16.7953 13.9355 16.4976C13.7491 16.1814 13.5627 15.828 13.3576 15.4002C11.9036 17.1115 10.0769 17.9671 7.87729 17.9671C6.31148 17.9671 5.06256 17.5207 4.14918 16.6278C3.23579 15.735 2.76978 14.5446 2.76978 13.0565C2.76978 11.4755 3.32899 10.192 4.46607 9.22479C5.60314 8.25755 7.11302 7.77394 9.033 7.77394C9.66678 7.77394 10.3192 7.82974 11.0089 7.92274C11.6986 8.01575 12.4069 8.16455 13.1526 8.33196V6.97411C13.1526 5.56046 12.8543 4.57463 12.2765 3.998C11.68 3.42138 10.6734 3.14237 9.23805 3.14237C8.58563 3.14237 7.91457 3.21678 7.22487 3.38418C6.53517 3.55159 5.86411 3.7562 5.21169 4.01661C4.91344 4.14681 4.68975 4.22121 4.55927 4.25841C4.42878 4.29561 4.33558 4.31422 4.26102 4.31422C4.00005 4.31422 3.86957 4.12821 3.86957 3.7376V2.82616C3.86957 2.52855 3.90685 2.30535 4.00005 2.17514C4.09325 2.04494 4.26102 1.91473 4.52199 1.78453C5.17441 1.44972 5.95731 1.17071 6.8707 0.947498C7.78408 0.70569 8.75339 0.594086 9.77862 0.594086C11.9968 0.594086 13.6186 1.0963 14.6624 2.10074C15.6877 3.10517 16.2096 4.63043 16.2096 6.6765V12.7031H16.2469ZM8.67883 15.5304C9.29397 15.5304 9.92775 15.4188 10.5988 15.1956C11.2699 14.9724 11.8664 14.5632 12.3697 14.0052C12.6679 13.6517 12.8916 13.2611 13.0034 12.8147C13.1153 12.3683 13.1898 11.8289 13.1898 11.1965V10.4152C12.6493 10.285 12.0714 10.1734 11.4749 10.099C10.8784 10.0246 10.3006 9.98741 9.7227 9.98741C8.47378 9.98741 7.5604 10.2292 6.94526 10.7314C6.33012 11.2337 6.03187 11.9405 6.03187 12.8705C6.03187 13.7447 6.25556 14.3958 6.72157 14.8422C7.16895 15.3072 7.82136 15.5304 8.67883 15.5304ZM23.6472 17.5393C23.3117 17.5393 23.088 17.4835 22.9389 17.3533C22.7897 17.2417 22.6592 16.9813 22.5474 16.6278L18.1669 2.24954C18.055 1.87753 17.9991 1.63572 17.9991 1.50552C17.9991 1.20791 18.1482 1.0405 18.4465 1.0405H20.2733C20.6274 1.0405 20.8698 1.0963 21.0002 1.22651C21.1494 1.33811 21.2612 1.59852 21.373 1.95193L24.5047 14.2656L27.4126 1.95193C27.5058 1.57992 27.6176 1.33811 27.7668 1.22651C27.9159 1.1149 28.1768 1.0405 28.5124 1.0405H30.0036C30.3578 1.0405 30.6001 1.0963 30.7492 1.22651C30.8984 1.33811 31.0289 1.59852 31.1034 1.95193L34.0486 14.4144L37.2734 1.95193C37.3853 1.57992 37.5158 1.33811 37.6462 1.22651C37.7954 1.1149 38.0377 1.0405 38.3732 1.0405H40.1068C40.405 1.0405 40.5728 1.18931 40.5728 1.50552C40.5728 1.59852 40.5542 1.69152 40.5355 1.80313C40.5169 1.91473 40.4796 2.06354 40.405 2.26814L35.9127 16.6464C35.8008 17.0185 35.6703 17.2603 35.5212 17.3719C35.3721 17.4835 35.1298 17.5579 34.8129 17.5579H33.2098C32.8556 17.5579 32.6133 17.5021 32.4642 17.3719C32.315 17.2417 32.1846 16.9999 32.11 16.6278L29.2207 4.63043L26.3501 16.6092C26.2569 16.9813 26.145 17.2231 25.9959 17.3533C25.8468 17.4835 25.5858 17.5393 25.2503 17.5393H23.6472ZM47.6003 18.0415C46.631 18.0415 45.6617 17.9299 44.7297 17.7067C43.7976 17.4835 43.0706 17.2417 42.586 16.9627C42.2877 16.7953 42.0827 16.6092 42.0081 16.4418C41.9336 16.2744 41.8963 16.0884 41.8963 15.921V14.9724C41.8963 14.5818 42.0454 14.3958 42.325 14.3958C42.4369 14.3958 42.5487 14.4144 42.6606 14.4516C42.7724 14.4888 42.9402 14.5632 43.1266 14.6376C43.7603 14.9166 44.45 15.1398 45.177 15.2886C45.9226 15.4374 46.6496 15.5118 47.3953 15.5118C48.5696 15.5118 49.483 15.3072 50.1168 14.898C50.7506 14.4888 51.0861 13.8935 51.0861 13.1309C51.0861 12.6101 50.9183 12.1823 50.5828 11.8289C50.2473 11.4755 49.6135 11.1593 48.7001 10.8616L45.9972 10.0246C44.6365 9.5968 43.6299 8.96438 43.0147 8.12735C42.3996 7.30892 42.0827 6.39749 42.0827 5.43025C42.0827 4.64903 42.2505 3.9608 42.586 3.36558C42.9215 2.77036 43.3689 2.24954 43.9281 1.84033C44.4873 1.41251 45.1211 1.0963 45.8667 0.873096C46.6124 0.649888 47.3953 0.556885 48.2154 0.556885C48.6255 0.556885 49.0543 0.575485 49.4644 0.631287C49.8931 0.687089 50.2845 0.761492 50.676 0.835894C51.0488 0.928898 51.403 1.0219 51.7385 1.1335C52.074 1.24511 52.335 1.35671 52.5214 1.46832C52.7824 1.61712 52.9688 1.76593 53.0806 1.93333C53.1925 2.08214 53.2484 2.28675 53.2484 2.54715V3.42138C53.2484 3.812 53.0993 4.01661 52.8197 4.01661C52.6705 4.01661 52.4282 3.9422 52.1113 3.7934C51.0488 3.30978 49.8558 3.06797 48.5323 3.06797C47.4698 3.06797 46.631 3.23538 46.0531 3.58879C45.4753 3.9422 45.177 4.48162 45.177 5.24425C45.177 5.76507 45.3634 6.21148 45.7362 6.56489C46.1091 6.91831 46.7988 7.27172 47.7867 7.58793L50.4337 8.42496C51.7758 8.85277 52.7451 9.448 53.3229 10.2106C53.9008 10.9732 54.1804 11.8475 54.1804 12.8147C54.1804 13.6145 54.0126 14.34 53.6958 14.9724C53.3602 15.6048 52.9129 16.1628 52.335 16.6092C51.7571 17.0743 51.0674 17.4091 50.2659 17.6509C49.4271 17.9113 48.551 18.0415 47.6003 18.0415Z"/>
</mask>
<path d="M16.2469 12.7031C16.2469 13.3913 16.3215 13.9494 16.4519 14.3586C16.6011 14.7678 16.7875 15.2142 17.0484 15.6978C17.1416 15.8466 17.1789 15.9954 17.1789 16.1256C17.1789 16.3116 17.0671 16.4976 16.8248 16.6836L15.6504 17.4649C15.4826 17.5765 15.3149 17.6323 15.1657 17.6323C14.9793 17.6323 14.7929 17.5393 14.6065 17.3719C14.3456 17.0929 14.1219 16.7953 13.9355 16.4976C13.7491 16.1814 13.5627 15.828 13.3576 15.4002C11.9036 17.1115 10.0769 17.9671 7.87729 17.9671C6.31148 17.9671 5.06256 17.5207 4.14918 16.6278C3.23579 15.735 2.76978 14.5446 2.76978 13.0565C2.76978 11.4755 3.32899 10.192 4.46607 9.22479C5.60314 8.25755 7.11302 7.77394 9.033 7.77394C9.66678 7.77394 10.3192 7.82974 11.0089 7.92274C11.6986 8.01575 12.4069 8.16455 13.1526 8.33196V6.97411C13.1526 5.56046 12.8543 4.57463 12.2765 3.998C11.68 3.42138 10.6734 3.14237 9.23805 3.14237C8.58563 3.14237 7.91457 3.21678 7.22487 3.38418C6.53517 3.55159 5.86411 3.7562 5.21169 4.01661C4.91344 4.14681 4.68975 4.22121 4.55927 4.25841C4.42878 4.29561 4.33558 4.31422 4.26102 4.31422C4.00005 4.31422 3.86957 4.12821 3.86957 3.7376V2.82616C3.86957 2.52855 3.90685 2.30535 4.00005 2.17514C4.09325 2.04494 4.26102 1.91473 4.52199 1.78453C5.17441 1.44972 5.95731 1.17071 6.8707 0.947498C7.78408 0.70569 8.75339 0.594086 9.77862 0.594086C11.9968 0.594086 13.6186 1.0963 14.6624 2.10074C15.6877 3.10517 16.2096 4.63043 16.2096 6.6765V12.7031H16.2469ZM8.67883 15.5304C9.29397 15.5304 9.92775 15.4188 10.5988 15.1956C11.2699 14.9724 11.8664 14.5632 12.3697 14.0052C12.6679 13.6517 12.8916 13.2611 13.0034 12.8147C13.1153 12.3683 13.1898 11.8289 13.1898 11.1965V10.4152C12.6493 10.285 12.0714 10.1734 11.4749 10.099C10.8784 10.0246 10.3006 9.98741 9.7227 9.98741C8.47378 9.98741 7.5604 10.2292 6.94526 10.7314C6.33012 11.2337 6.03187 11.9405 6.03187 12.8705C6.03187 13.7447 6.25556 14.3958 6.72157 14.8422C7.16895 15.3072 7.82136 15.5304 8.67883 15.5304ZM23.6472 17.5393C23.3117 17.5393 23.088 17.4835 22.9389 17.3533C22.7897 17.2417 22.6592 16.9813 22.5474 16.6278L18.1669 2.24954C18.055 1.87753 17.9991 1.63572 17.9991 1.50552C17.9991 1.20791 18.1482 1.0405 18.4465 1.0405H20.2733C20.6274 1.0405 20.8698 1.0963 21.0002 1.22651C21.1494 1.33811 21.2612 1.59852 21.373 1.95193L24.5047 14.2656L27.4126 1.95193C27.5058 1.57992 27.6176 1.33811 27.7668 1.22651C27.9159 1.1149 28.1768 1.0405 28.5124 1.0405H30.0036C30.3578 1.0405 30.6001 1.0963 30.7492 1.22651C30.8984 1.33811 31.0289 1.59852 31.1034 1.95193L34.0486 14.4144L37.2734 1.95193C37.3853 1.57992 37.5158 1.33811 37.6462 1.22651C37.7954 1.1149 38.0377 1.0405 38.3732 1.0405H40.1068C40.405 1.0405 40.5728 1.18931 40.5728 1.50552C40.5728 1.59852 40.5542 1.69152 40.5355 1.80313C40.5169 1.91473 40.4796 2.06354 40.405 2.26814L35.9127 16.6464C35.8008 17.0185 35.6703 17.2603 35.5212 17.3719C35.3721 17.4835 35.1298 17.5579 34.8129 17.5579H33.2098C32.8556 17.5579 32.6133 17.5021 32.4642 17.3719C32.315 17.2417 32.1846 16.9999 32.11 16.6278L29.2207 4.63043L26.3501 16.6092C26.2569 16.9813 26.145 17.2231 25.9959 17.3533C25.8468 17.4835 25.5858 17.5393 25.2503 17.5393H23.6472ZM47.6003 18.0415C46.631 18.0415 45.6617 17.9299 44.7297 17.7067C43.7976 17.4835 43.0706 17.2417 42.586 16.9627C42.2877 16.7953 42.0827 16.6092 42.0081 16.4418C41.9336 16.2744 41.8963 16.0884 41.8963 15.921V14.9724C41.8963 14.5818 42.0454 14.3958 42.325 14.3958C42.4369 14.3958 42.5487 14.4144 42.6606 14.4516C42.7724 14.4888 42.9402 14.5632 43.1266 14.6376C43.7603 14.9166 44.45 15.1398 45.177 15.2886C45.9226 15.4374 46.6496 15.5118 47.3953 15.5118C48.5696 15.5118 49.483 15.3072 50.1168 14.898C50.7506 14.4888 51.0861 13.8935 51.0861 13.1309C51.0861 12.6101 50.9183 12.1823 50.5828 11.8289C50.2473 11.4755 49.6135 11.1593 48.7001 10.8616L45.9972 10.0246C44.6365 9.5968 43.6299 8.96438 43.0147 8.12735C42.3996 7.30892 42.0827 6.39749 42.0827 5.43025C42.0827 4.64903 42.2505 3.9608 42.586 3.36558C42.9215 2.77036 43.3689 2.24954 43.9281 1.84033C44.4873 1.41251 45.1211 1.0963 45.8667 0.873096C46.6124 0.649888 47.3953 0.556885 48.2154 0.556885C48.6255 0.556885 49.0543 0.575485 49.4644 0.631287C49.8931 0.687089 50.2845 0.761492 50.676 0.835894C51.0488 0.928898 51.403 1.0219 51.7385 1.1335C52.074 1.24511 52.335 1.35671 52.5214 1.46832C52.7824 1.61712 52.9688 1.76593 53.0806 1.93333C53.1925 2.08214 53.2484 2.28675 53.2484 2.54715V3.42138C53.2484 3.812 53.0993 4.01661 52.8197 4.01661C52.6705 4.01661 52.4282 3.9422 52.1113 3.7934C51.0488 3.30978 49.8558 3.06797 48.5323 3.06797C47.4698 3.06797 46.631 3.23538 46.0531 3.58879C45.4753 3.9422 45.177 4.48162 45.177 5.24425C45.177 5.76507 45.3634 6.21148 45.7362 6.56489C46.1091 6.91831 46.7988 7.27172 47.7867 7.58793L50.4337 8.42496C51.7758 8.85277 52.7451 9.448 53.3229 10.2106C53.9008 10.9732 54.1804 11.8475 54.1804 12.8147C54.1804 13.6145 54.0126 14.34 53.6958 14.9724C53.3602 15.6048 52.9129 16.1628 52.335 16.6092C51.7571 17.0743 51.0674 17.4091 50.2659 17.6509C49.4271 17.9113 48.551 18.0415 47.6003 18.0415Z" stroke="#52B2FD" stroke-width="2" mask="url(#path-1-inside-1_3332_437)"/>
<path d="M1.03544 23.0828C1.00893 23.059 0.990812 23.0379 0.978549 23.0208C1.00367 23.0277 1.03728 23.0409 1.07933 23.0658L1.07932 23.0659L1.08395 23.0685C9.06293 27.6879 18.8982 30.4831 29.0716 30.4831C35.9407 30.4831 43.4818 29.0566 50.423 26.1284L50.423 26.1286L50.4352 26.1231C50.7473 25.9815 50.9554 26.103 51.0273 26.2065C51.0641 26.2594 51.0763 26.3166 51.0634 26.3771C51.0504 26.4381 51.0006 26.5503 50.8262 26.6793C44.796 31.1234 35.9962 33.5008 28.4192 33.5008C17.8083 33.5008 8.2525 29.5863 1.03544 23.0828ZM1.03544 23.0828L0.700688 23.4543L1.03544 23.0828Z" stroke="#52B2FD"/>
<path d="M46.4912 23.6673C46.4911 23.6673 46.4913 23.6668 46.4917 23.6658L46.4912 23.6673ZM46.8044 23.3977C48.4231 22.3347 50.5426 21.9344 52.3887 21.9082C53.338 21.8947 54.1936 21.9805 54.8425 22.1152C55.1678 22.1827 55.4305 22.2603 55.6228 22.3384C55.7187 22.3774 55.79 22.4136 55.8397 22.4444C55.8739 22.4656 55.8912 22.4801 55.8979 22.4861C55.9052 22.5006 55.9429 22.5781 55.97 22.7696C55.9985 22.9705 56.0078 23.2401 55.9903 23.5692C55.9553 24.2258 55.816 25.0712 55.5545 25.9834C55.0478 27.751 54.1053 29.6898 52.6649 30.9809C53.037 30.0547 53.5521 28.7322 53.9191 27.4879C54.1275 26.7812 54.2946 26.0787 54.3563 25.4776C54.3871 25.177 54.3935 24.8847 54.3585 24.6211C54.3241 24.3625 54.2446 24.0912 54.0701 23.8706C53.8985 23.6513 53.6571 23.5072 53.415 23.4082C53.1683 23.3074 52.884 23.2384 52.585 23.1905C51.9874 23.0948 51.2668 23.0739 50.5312 23.0916C49.2249 23.1231 47.8034 23.2788 46.8044 23.3977ZM52.3124 31.2323C52.3124 31.2323 52.3129 31.2322 52.3138 31.2322L52.3124 31.2323Z" stroke="#52B2FD"/>
</svg>
