<svg width="37" height="35" viewBox="0 0 37 35" fill="none" xmlns="http://www.w3.org/2000/svg">
<mask id="path-1-inside-1_3332_456" fill="white">
<path fill-rule="evenodd" clip-rule="evenodd" d="M25.3508 0.912444C25.6433 1.12241 25.8625 1.41885 25.9776 1.75999L36.4298 32.7298C36.5171 32.9886 36.5416 33.2645 36.5012 33.5347C36.4608 33.8048 36.3567 34.0615 36.1974 34.2834C36.0381 34.5053 35.8283 34.6861 35.5853 34.8109C35.3423 34.9357 35.0731 35.0008 34.7999 35.0009H22.7557C22.7661 35.0009 22.7765 35.0008 22.787 35.0006H22.3885L22.3808 35.0005C21.9467 34.9975 21.5293 34.8316 21.2117 34.5353L15.4928 29.1975L13.8487 27.664L12.8838 30.5078L11.7631 33.8284C11.6478 34.17 11.4283 34.4668 11.1354 34.677C10.9937 34.7788 10.8382 34.8578 10.6746 34.9123C10.5705 34.9512 10.4628 34.9809 10.3525 35.0006H1.7252C1.6118 35.0009 1.49905 34.99 1.38856 34.9682C1.23135 34.9373 1.07868 34.8845 0.935147 34.8109C0.692124 34.6862 0.482275 34.5055 0.322962 34.2836C0.163648 34.0617 0.0594488 33.8052 0.0189843 33.535C-0.0214803 33.2649 0.00295304 32.9891 0.0902625 32.7303L10.542 1.7617C10.6228 1.52237 10.7547 1.30499 10.9271 1.12396C10.9981 1.04891 11.0762 0.980075 11.1605 0.918507C11.4487 0.708046 11.7955 0.593214 12.152 0.5898L12.1748 0.589648H12.3163C12.312 0.589616 12.3078 0.5896 12.3035 0.5896H24.3473C24.7074 0.589558 25.0583 0.702475 25.3508 0.912444ZM21.063 22.884L18.2672 14.6002L15.4846 22.802L15.4569 22.884H21.063Z"/>
</mask>
<path d="M25.9776 1.75999L25.03 2.07965L25.0301 2.07977L25.9776 1.75999ZM25.3508 0.912444L25.934 0.100111L25.934 0.100109L25.3508 0.912444ZM36.4298 32.7298L35.4823 33.0496L35.4823 33.0496L36.4298 32.7298ZM36.1974 34.2834L37.0098 34.8664L37.0098 34.8664L36.1974 34.2834ZM34.7999 35.0009V36.0009H34.8002L34.7999 35.0009ZM22.787 35.0006L22.8053 36.0004L22.787 34.0006V35.0006ZM22.3885 35.0006L22.3775 36.0006H22.3885V35.0006ZM22.3808 35.0005L22.3917 34.0005L22.3876 34.0005L22.3808 35.0005ZM21.2117 34.5353L20.5294 35.2663L20.5296 35.2665L21.2117 34.5353ZM15.4928 29.1975L16.1752 28.4665L16.1749 28.4662L15.4928 29.1975ZM13.8487 27.664L14.5308 26.9327L13.3991 25.8771L12.9018 27.3427L13.8487 27.664ZM12.8838 30.5078L11.9368 30.1865L11.9363 30.188L12.8838 30.5078ZM11.7631 33.8284L12.7105 34.1483L12.7106 34.1482L11.7631 33.8284ZM11.1354 34.677L10.5522 33.8647L10.5522 33.8647L11.1354 34.677ZM10.6746 34.9123L10.3588 33.9635L10.3413 33.9693L10.324 33.9757L10.6746 34.9123ZM10.3525 35.0006V36.0006H10.4411L10.5284 35.985L10.3525 35.0006ZM1.7252 35.0006V34.0006L1.72248 34.0006L1.7252 35.0006ZM1.38856 34.9682L1.58177 33.987L1.58141 33.987L1.38856 34.9682ZM0.935147 34.8109L0.478734 35.7006L0.478744 35.7006L0.935147 34.8109ZM0.0189843 33.535L-0.969981 33.6832H-0.96998L0.0189843 33.535ZM0.0902625 32.7303L-0.857231 32.4105L-0.857269 32.4106L0.0902625 32.7303ZM10.542 1.7617L11.4895 2.08148L11.4896 2.08131L10.542 1.7617ZM10.9271 1.12396L11.6512 1.81365L11.6534 1.81137L10.9271 1.12396ZM11.1605 0.918507L11.7502 1.72614L11.7502 1.72613L11.1605 0.918507ZM12.152 0.5898L12.1453 -0.410182L12.1424 -0.410154L12.152 0.5898ZM12.1748 0.589648V-0.410374L12.1681 -0.410329L12.1748 0.589648ZM12.3163 0.589648V1.58965L12.3239 -0.410323L12.3163 0.589648ZM12.3035 0.5896V-0.4104L12.3034 1.5896L12.3035 0.5896ZM24.3473 0.5896V1.5896H24.3474L24.3473 0.5896ZM18.2672 14.6002L19.2147 14.2804L18.2697 11.4803L17.3202 14.2789L18.2672 14.6002ZM21.063 22.884V23.884H22.4559L22.0105 22.5643L21.063 22.884ZM15.4846 22.802L14.5376 22.4807L14.5371 22.4822L15.4846 22.802ZM15.4569 22.884L14.5094 22.5642L14.064 23.884H15.4569V22.884ZM26.9251 1.44034C26.7431 0.900885 26.3965 0.432132 25.934 0.100111L24.7676 1.72478C24.8901 1.81269 24.9819 1.93682 25.03 2.07965L26.9251 1.44034ZM37.3773 32.41L26.9251 1.44022L25.0301 2.07977L35.4823 33.0496L37.3773 32.41ZM37.4902 33.6826C37.5541 33.2554 37.5154 32.8192 37.3773 32.41L35.4823 33.0496C35.5189 33.158 35.5291 33.2736 35.5122 33.3867L37.4902 33.6826ZM37.0098 34.8664C37.2617 34.5155 37.4263 34.1097 37.4902 33.6826L35.5122 33.3867C35.4953 33.4999 35.4517 33.6074 35.385 33.7003L37.0098 34.8664ZM36.042 35.7005C36.4263 35.5032 36.758 35.2173 37.0098 34.8664L35.385 33.7003C35.3183 33.7933 35.2304 33.869 35.1286 33.9213L36.042 35.7005ZM34.8002 36.0009C35.2321 36.0007 35.6578 35.8978 36.042 35.7005L35.1286 33.9213C35.0268 33.9735 34.914 34.0008 34.7996 34.0009L34.8002 36.0009ZM22.7557 36.0009H34.7999V34.0009H22.7557V36.0009ZM22.7687 34.0007C22.7643 34.0008 22.76 34.0009 22.7557 34.0009V36.0009C22.7722 36.0009 22.7887 36.0007 22.8053 36.0004L22.7687 34.0007ZM22.787 34.0006H22.3885V36.0006H22.787V34.0006ZM22.3994 34.0006L22.3917 34.0005L22.3699 36.0004L22.3775 36.0005L22.3994 34.0006ZM22.3876 34.0005C22.2042 33.9993 22.028 33.9292 21.8938 33.804L20.5296 35.2665C21.0307 35.734 21.6891 35.9958 22.374 36.0005L22.3876 34.0005ZM21.894 33.8042L16.1752 28.4665L14.8105 29.9285L20.5294 35.2663L21.894 33.8042ZM16.1749 28.4662L14.5308 26.9327L13.1667 28.3953L14.8108 29.9288L16.1749 28.4662ZM12.9018 27.3427L11.9368 30.1865L13.8308 30.8291L14.7957 27.9853L12.9018 27.3427ZM11.9363 30.188L10.8156 33.5086L12.7106 34.1482L13.8313 30.8276L11.9363 30.188ZM10.8156 33.5086C10.7672 33.6519 10.6751 33.7765 10.5522 33.8647L11.7187 35.4893C12.1814 35.1571 12.5283 34.688 12.7105 34.1483L10.8156 33.5086ZM10.5522 33.8647C10.4927 33.9074 10.4275 33.9406 10.3588 33.9635L10.9905 35.8611C11.249 35.775 11.4947 35.6502 11.7187 35.4893L10.5522 33.8647ZM10.324 33.9757C10.2764 33.9936 10.2271 34.0071 10.1766 34.0162L10.5284 35.985C10.6984 35.9546 10.8647 35.9089 11.0252 35.8488L10.324 33.9757ZM10.3525 34.0006H1.7252V36.0006H10.3525V34.0006ZM1.72248 34.0006C1.6751 34.0007 1.62798 33.9961 1.58177 33.987L1.19534 35.9493C1.37013 35.9838 1.5485 36.001 1.72793 36.0006L1.72248 34.0006ZM1.58141 33.987C1.51557 33.974 1.45165 33.9519 1.39155 33.9211L0.478744 35.7006C0.70571 35.8171 0.947121 35.9006 1.19571 35.9494L1.58141 33.987ZM1.39156 33.9211C1.28981 33.8689 1.20194 33.7932 1.13523 33.7003L-0.489305 34.8669C-0.237388 35.2177 0.0944406 35.5035 0.478734 35.7006L1.39156 33.9211ZM1.13523 33.7003C1.06852 33.6074 1.02489 33.5 1.00795 33.3869L-0.96998 33.6832C-0.905993 34.1103 -0.741223 34.5161 -0.489305 34.8669L1.13523 33.7003ZM1.00795 33.3869C0.991006 33.2738 1.00124 33.1583 1.03779 33.0499L-0.857269 32.4106C-0.99533 32.8198 -1.03397 33.2561 -0.969981 33.6832L1.00795 33.3869ZM1.03776 33.05L11.4895 2.08148L9.59455 1.44193L-0.857231 32.4105L1.03776 33.05ZM11.4896 2.08131C11.5235 1.98087 11.5788 1.88964 11.6512 1.81364L10.203 0.434267C9.93051 0.720346 9.72208 1.06386 9.5945 1.4421L11.4896 2.08131ZM11.6534 1.81137C11.6829 1.78021 11.7152 1.75167 11.7502 1.72614L10.5708 0.110878C10.4371 0.208486 10.3134 0.317604 10.2008 0.436542L11.6534 1.81137ZM11.7502 1.72613C11.8698 1.63882 12.0136 1.59117 12.1616 1.58975L12.1424 -0.410154C11.5773 -0.404743 11.0277 -0.222723 10.5708 0.110879L11.7502 1.72613ZM12.1586 1.58978L12.1814 1.58963L12.1681 -0.410329L12.1453 -0.410178L12.1586 1.58978ZM12.1748 1.58965H12.3163V-0.410352H12.1748V1.58965ZM12.3034 1.5896C12.3052 1.5896 12.307 1.58961 12.3088 1.58962L12.3239 -0.410323C12.3171 -0.410374 12.3103 -0.4104 12.3035 -0.4104L12.3034 1.5896ZM24.3473 -0.4104H12.3035V1.5896H24.3473V-0.4104ZM25.934 0.100109C25.4715 -0.231911 24.9165 -0.410466 24.3472 -0.4104L24.3474 1.5896C24.4982 1.58958 24.6451 1.63686 24.7676 1.72478L25.934 0.100109ZM17.3197 14.9199L20.1155 23.2038L22.0105 22.5643L19.2147 14.2804L17.3197 14.9199ZM17.3202 14.2789L14.5376 22.4807L16.4316 23.1233L19.2142 14.9214L17.3202 14.2789ZM14.5371 22.4822L14.5094 22.5642L16.4044 23.2038L16.4321 23.1218L14.5371 22.4822ZM15.4569 23.884H21.063V21.884H15.4569V23.884Z" fill="#52B2FD" mask="url(#path-1-inside-1_3332_456)"/>
</svg>
