<svg width="47" height="37" viewBox="0 0 47 37" fill="none" xmlns="http://www.w3.org/2000/svg">
<path d="M6.60247 12.307C7.35551 10.1603 8.52481 8.11941 10.0141 6.43223L10.0142 6.4322C16.2925 -0.681027 27.2734 -1.50921 34.3738 4.55506L29.4437 9.48533C25.207 6.3507 19.2414 6.94024 15.5898 10.7501C15.5286 10.7407 15.4579 10.7303 15.3788 10.7194C15.0775 10.6777 14.6516 10.6279 14.1496 10.5945C13.1518 10.5281 11.8271 10.5248 10.5769 10.7946C9.13416 11.1059 7.85488 11.658 6.94034 12.1284C6.82164 12.1894 6.70888 12.2492 6.60247 12.307Z" stroke="#52B2FD"/>
<path d="M40.072 13.4099L40.1207 13.589L40.2744 13.693C43.7419 16.0384 45.8059 19.9629 45.7734 24.149C45.7196 31.0525 40.0801 36.5543 33.1709 36.5005L33.1709 36.5005H33.167H23.6531V29.495H33.167C36.197 29.495 38.667 27.0961 38.667 24.0511C38.667 21.1822 36.4701 18.8263 33.667 18.5737V18.0587C33.7229 15.0287 32.4653 12.1321 30.2355 10.1057L35.1352 5.20596C37.5079 7.42744 39.2186 10.2672 40.072 13.4099Z" stroke="#52B2FD"/>
<path d="M13.1531 36.5005L13.1509 36.5005C10.6246 36.5114 8.15507 35.7163 6.07106 34.2841L11.219 29.1364C11.8359 29.3727 12.4855 29.4948 13.153 29.4949H13.1531H22.653V36.5005L13.1531 36.5005Z" stroke="#52B2FD"/>
<path d="M0.725569 24.1115C0.684405 17.2054 6.2493 11.5732 13.1555 11.5317C16.9152 11.5184 20.4724 13.1986 22.8498 16.0914L17.8412 21.0999C17.2683 20.1719 16.4292 19.4302 15.4256 18.9768C12.6577 17.7263 9.39963 18.9564 8.14912 21.7246C6.99696 24.2746 7.95014 27.2403 10.2717 28.6695L5.26437 33.6767C2.41568 31.3229 0.7477 27.8219 0.725569 24.1115Z" stroke="#52B2FD"/>
</svg>
