<svg width="60" height="30" viewBox="0 0 60 30" fill="none" xmlns="http://www.w3.org/2000/svg">
<path d="M5.39601 10.0679H14.9778L14.931 10.1382L5.29367 10.2141L5.39601 10.0679ZM0.92729 12.8539L1.03387 12.7016H13.7805L13.7349 12.8539H0.92729ZM12.544 15.5L7.84132 15.5611L7.87525 15.5H12.544ZM33.9716 5.95771C35.3845 6.85006 36.3755 8.10451 37.0802 9.67987L32.3168 10.8909C32.2751 10.8994 32.2362 10.9079 32.2037 10.9149C32.1961 10.9166 32.1888 10.9182 32.1819 10.9197C32.1635 10.9237 32.1481 10.927 32.1347 10.9297C32.1082 10.8975 32.0714 10.8479 32.0208 10.772L32.006 10.7498L31.9889 10.7293C31.5577 10.2118 31.1652 9.81072 30.406 9.52063C28.4216 8.53834 26.4322 8.82488 24.6694 9.9693C22.5401 11.3017 21.4752 13.3601 21.4752 15.9053C21.4752 18.4609 23.3065 20.563 25.8551 20.9271L25.8551 20.9271L25.8638 20.9282C28.0097 21.1965 29.8165 20.4702 31.2378 18.8713L31.2516 18.8557L31.2641 18.8391C31.5109 18.51 31.7537 18.1863 32.0776 17.7815L32.7274 16.9691H31.6871H26.0904C26.0114 16.9691 25.9721 16.9561 25.9584 16.9501C25.9565 16.9427 25.9541 16.9291 25.9538 16.9076C25.9534 16.8698 25.96 16.8149 25.9815 16.7441C26.0347 16.6271 26.0914 16.5019 26.1506 16.3709C26.5582 15.4703 27.088 14.2997 27.4328 13.679L27.4381 13.6695L27.443 13.6598C27.4593 13.6272 27.5017 13.5626 27.5628 13.5117C27.6185 13.4653 27.6736 13.4424 27.7365 13.4424H37.7285C37.7131 13.6681 37.7015 13.8883 37.6901 14.1044L37.6899 14.1095C37.6695 14.4971 37.6497 14.8721 37.6108 15.2647C37.2908 17.2523 36.5777 19.1358 35.3296 20.6959L35.3295 20.6958L35.3215 20.7063C33.3369 23.326 30.7348 24.9778 27.4189 25.4515C24.6568 25.8461 22.1604 25.2948 19.9732 23.6554C17.9385 22.0894 16.7753 20.0695 16.4631 17.5717L16.4627 17.5685C16.0715 14.5955 17.0051 11.8447 18.8329 9.46058L18.8346 9.45829C20.82 6.83769 23.4262 5.1822 26.6684 4.62865L26.6684 4.62868L26.6737 4.62772C29.2919 4.15168 31.7853 4.47447 33.9578 5.9487L33.9646 5.95332L33.9716 5.95771Z" stroke="#52B2FD"/>
<path d="M37.1201 17.9719L37.12 17.971C36.6486 14.8288 37.5062 12.0832 39.4077 9.62703L39.4077 9.62703L39.4095 9.62467C41.4635 6.93873 43.8979 5.59639 47.2484 4.95722C50.1317 4.47758 52.7803 4.72934 55.1042 6.35607L55.1042 6.35611L55.1102 6.36019C57.302 7.84747 58.6194 9.86428 59.0107 12.5159C59.4832 16.3074 58.3864 19.2842 55.855 21.8947L55.853 21.8968C54.0444 23.784 51.7568 24.8959 49.2023 25.4561C48.7783 25.5327 48.3692 25.572 47.9667 25.6022C47.8557 25.6105 47.7434 25.6182 47.6309 25.626C47.3544 25.645 47.0764 25.6641 46.8121 25.6925C44.2832 25.6076 42.0232 24.8951 40.0765 23.2606C38.4374 21.8549 37.4309 20.0698 37.1201 17.9719ZM54.2437 14.5394L54.2448 14.5228V14.5061V14.4822C54.2449 14.094 54.2449 13.7961 54.1522 13.4158C53.5999 10.2522 50.6865 8.44534 47.6275 9.16218C46.1912 9.46775 44.9919 10.0838 44.0622 11.0023C43.1319 11.9213 42.4952 13.1198 42.1478 14.5529L42.1477 14.5529L42.1456 14.5623C41.6032 17.0031 42.7764 19.544 45.0511 20.6359L45.0622 20.6412L45.0735 20.646C46.775 21.3624 48.5723 21.2718 50.1794 20.4693C52.7249 19.2392 54.0671 17.1884 54.2437 14.5394Z" stroke="#52B2FD"/>
</svg>
