<svg width="40" height="35" viewBox="0 0 40 35" fill="none" xmlns="http://www.w3.org/2000/svg">
<path d="M13.0753 26.3217L10.5813 28.8157L9.08222 27.3166L11.5762 24.8226H13.0753V26.3217Z" stroke="#52B2FD"/>
<path d="M11.5762 10.8599L9.0822 8.36589L10.5813 6.86675L13.0753 9.36071V10.8599H11.5762Z" stroke="#52B2FD"/>
<path d="M17.7146 14.4578L17.5156 14.4656L17.3765 14.608L17.2497 14.7378L17.1074 14.8835V15.0872V22.9111H14.9867V12.7713H20.7282C22.791 12.7713 24.4626 14.4428 24.4626 16.5057V22.9141H22.3418V16.9313C22.3418 16.3216 22.2241 15.6988 21.8508 15.2157C21.4608 14.7111 20.8581 14.4422 20.0734 14.4244C19.3659 14.4058 18.5625 14.4245 17.7146 14.4578Z" stroke="#52B2FD"/>
<path d="M10.8691 16.7794V18.9061H0.726196V16.7794H10.8691Z" stroke="#52B2FD"/>
<path d="M38.7261 16.7794V18.9061H28.5833V16.7794H38.7261Z" stroke="#52B2FD"/>
<path d="M20.8107 8.65361H18.684V1.18481H20.8107V8.65361Z" stroke="#52B2FD"/>
<path d="M20.8107 34.5009H18.684V27.0319H20.8107V34.5009Z" stroke="#52B2FD"/>
</svg>
