<svg width="37" height="36" viewBox="0 0 37 36" fill="none" xmlns="http://www.w3.org/2000/svg">
<g clip-path="url(#clip0_3829_469)">
<path d="M14.5735 0.844344L14.5736 0.844321C15.7907 0.63056 17.18 0.507017 18.6388 0.50029C20.0974 0.493563 21.6169 0.603655 23.0787 0.845154C25.2748 1.20843 27.002 2.81468 27.002 4.83177V13.0382C27.002 15.1748 25.2923 16.9177 23.1603 16.9177H14.4871C11.2687 16.9177 8.56255 19.6483 8.56255 22.7715V26.209H6.07703C4.94885 26.209 4.07794 25.808 3.41106 25.1304C2.7331 24.4415 2.24315 23.4417 1.9481 22.222L1.94799 22.2216C1.53752 20.5318 1.34665 19.205 1.3509 17.9074C1.35515 16.6096 1.5546 15.3184 1.94799 13.6987L1.94816 13.698C2.58296 11.0676 4.58452 9.71123 6.88666 9.71123H10.1454H18.8288H19.3288V9.21123V8.11637V7.61637H18.8288H10.6454V4.83177C10.6454 3.61536 10.8137 2.813 11.3175 2.22668C11.8282 1.63246 12.7697 1.16063 14.5735 0.844344ZM16.07 4.28936C16.07 3.10959 15.1185 2.14204 13.9406 2.14204C12.7589 2.14204 11.8112 3.11023 11.8112 4.28936C11.8112 5.46862 12.7622 6.42663 13.9406 6.42663C15.1152 6.42663 16.07 5.46926 16.07 4.28936Z" stroke="#52B2FD"/>
<path d="M27.002 28.3039V31.0885C27.002 32.1651 26.5437 32.9718 25.8231 33.5978C25.088 34.2363 24.0803 34.6833 23.0223 34.9874L23.022 34.9875C19.8315 35.9063 17.2925 35.7658 14.6272 34.988C12.3707 34.3292 10.6455 33.062 10.6455 31.0885V22.882C10.6455 20.7901 12.3942 19.0025 14.4872 19.0025H23.1604C26.3268 19.0025 29.0849 16.2813 29.0849 13.0383V9.71124H31.8437C32.9637 9.71124 33.757 10.1187 34.354 10.7925C34.9686 11.4863 35.3969 12.4891 35.7003 13.702L35.7004 13.7022C36.5528 17.1034 36.5788 19.5974 35.7114 22.1804L35.7112 22.1809C35.2732 23.4897 34.8435 24.4975 34.2533 25.1809C33.6918 25.8312 32.966 26.209 31.8437 26.209H27.502H18.8288H18.3288V26.709V27.8039V28.3039H18.8288H27.002ZM25.8363 31.6309C25.8363 30.4516 24.8853 29.4936 23.7069 29.4936C22.5323 29.4936 21.5775 30.451 21.5775 31.6309C21.5775 32.8107 22.529 33.7782 23.7069 33.7782C24.8886 33.7782 25.8363 32.81 25.8363 31.6309Z" stroke="#52B2FD"/>
</g>
<defs>
<clipPath id="clip0_3829_469">
<rect width="36" height="36" fill="white" transform="translate(0.85083)"/>
</clipPath>
</defs>
</svg>
