<svg width="37" height="36" viewBox="0 0 37 36" fill="none" xmlns="http://www.w3.org/2000/svg">
<g clip-path="url(#clip0_3829_459)">
<path d="M3.51416 0.5H33.8892C35.1663 0.5 36.2017 1.53534 36.2017 2.8125V33.1875C36.2017 34.4647 35.1663 35.5 33.8892 35.5H3.51416C2.237 35.5 1.20166 34.4647 1.20166 33.1875V2.8125C1.20166 1.53534 2.237 0.5 3.51416 0.5Z" stroke="#52B2FD"/>
<path fill-rule="evenodd" clip-rule="evenodd" d="M21.8683 28.1918V32.0759C22.4999 32.3996 23.2471 32.6423 24.1095 32.8042C24.972 32.966 25.881 33.0469 26.8367 33.0469C27.7679 33.0469 28.6527 32.9579 29.4908 32.7798C30.329 32.6018 31.064 32.3085 31.6956 31.8999C32.3272 31.4913 32.8273 30.9572 33.1959 30.2977C33.5643 29.6383 33.7485 28.8231 33.7485 27.852C33.7485 27.1481 33.6432 26.531 33.4327 26.001C33.2222 25.471 32.9184 24.9996 32.5216 24.587C32.1249 24.1743 31.649 23.8042 31.0944 23.4764C30.5396 23.1487 29.914 22.8392 29.2175 22.548C28.7073 22.3374 28.2498 22.1332 27.8448 21.935C27.44 21.7367 27.0957 21.5345 26.8123 21.328C26.5288 21.1217 26.3102 20.9032 26.1563 20.6726C26.0025 20.442 25.9256 20.1811 25.9256 19.8897C25.9256 19.6227 25.9943 19.3821 26.132 19.1676C26.2697 18.9532 26.4642 18.7691 26.7152 18.6154C26.9662 18.4615 27.2739 18.3423 27.6384 18.2572C28.0027 18.1723 28.4077 18.1298 28.8531 18.1298C29.1771 18.1298 29.5192 18.1541 29.8795 18.2026C30.2399 18.2512 30.6023 18.326 30.9668 18.4272C31.3312 18.5283 31.6854 18.6557 32.0297 18.8096C32.3738 18.9633 32.6917 19.1413 32.9833 19.3435V15.7144C32.3921 15.4879 31.7462 15.32 31.0457 15.2107C30.3453 15.1014 29.5415 15.0469 28.6344 15.0469C27.7112 15.0469 26.8367 15.146 26.0106 15.3443C25.1846 15.5424 24.4577 15.852 23.8301 16.2727C23.2025 16.6936 22.7065 17.2297 22.342 17.881C21.9777 18.5324 21.7954 19.3112 21.7954 20.2175C21.7954 21.3746 22.1294 22.3618 22.7976 23.1791C23.4658 23.9962 24.4799 24.6881 25.8405 25.2546C26.375 25.4731 26.8731 25.6874 27.3346 25.8979C27.7963 26.1083 28.1951 26.3267 28.5312 26.5532C28.8673 26.7798 29.1325 27.0266 29.3269 27.2936C29.5212 27.5607 29.6184 27.8641 29.6184 28.204C29.6184 28.4548 29.5576 28.6875 29.4361 28.902C29.3148 29.1163 29.1304 29.3025 28.8835 29.4602C28.6365 29.618 28.3287 29.7413 27.9603 29.8304C27.5918 29.9194 27.1605 29.964 26.6665 29.964C25.8243 29.964 24.9903 29.8163 24.1642 29.5208C23.3381 29.2255 22.5728 28.7826 21.8683 28.1918ZM15.3944 18.5262H20.3892V15.3281H6.46729V18.5262H11.4376V32.7656H15.3944V18.5262Z" fill="#52B2FD"/>
</g>
<defs>
<clipPath id="clip0_3829_459">
<rect width="36" height="36" fill="white" transform="translate(0.70166)"/>
</clipPath>
</defs>
</svg>
