<svg width="136" height="24" viewBox="0 0 136 24" fill="none" xmlns="http://www.w3.org/2000/svg">
<g clip-path="url(#clip0_201_2)">
<path fill-rule="evenodd" clip-rule="evenodd" d="M127.28 6.05811C122.417 6.05811 118.56 9.96221 118.56 14.977C118.56 19.9917 122.417 23.8958 127.28 23.8958C130.667 23.8958 132.713 22.4822 134.055 21.136C134.826 20.3283 135.396 19.3859 135.832 18.3426H132.143C131.841 18.7801 131.472 19.184 131.036 19.5205C130.265 20.16 129.024 20.6985 127.28 20.6985C124.765 20.6985 122.618 19.0157 122.082 16.1549H136V14.977C136 9.96221 132.143 6.05811 127.28 6.05811ZM132.311 13.2942H122.249C122.786 10.7363 124.932 9.25543 127.28 9.25543C130.332 9.25543 131.942 11.2748 132.311 13.2942Z" fill="white"/>
<path d="M103.3 23.5592V0H106.821V13.1258H109.337L114.535 6.39464H118.56L112.355 14.3038L119.063 23.5592H114.703L109.504 16.3232H106.821V23.5592H103.3Z" fill="white"/>
<path fill-rule="evenodd" clip-rule="evenodd" d="M90.736 6.05811C86.2083 6.05811 82.6868 9.59199 82.6868 14.977C82.6868 20.3619 86.2083 23.8958 90.736 23.8958C92.48 23.8958 93.8215 23.2227 94.7271 22.5496C95.2637 22.1457 95.7332 21.7082 96.1022 21.2033H96.2698V23.5592H99.7914V6.39467H96.2698V8.58231H96.1022C95.7332 8.14478 95.2637 7.70726 94.7271 7.33704C93.8215 6.69757 92.48 6.05811 90.736 6.05811ZM91.4068 20.6985C88.3548 20.6985 86.376 18.7128 86.376 14.977C86.376 11.2411 88.3548 9.25543 91.4068 9.25543C94.2575 9.25543 96.2698 11.2411 96.2698 14.977C96.2698 18.7128 94.2575 20.6985 91.4068 20.6985Z" fill="white"/>
<path d="M70.2776 9.59201V6.39468H72.2899V2.69252H75.8114V6.39468H81.0099V9.59201H75.8114V20.3619H81.1776V23.5593H72.2899V9.59201H70.2776Z" fill="white"/>
<path d="M58.2036 6.39468V9.59201H60.2159V23.5593H69.1036V20.3619H63.7374V9.59201H68.9359V6.39468H63.7374V2.69252H60.2159V6.39468H58.2036Z" fill="white"/>
<path d="M40.2659 16.6597V6.39464H43.7874V16.3232C43.7874 19.3859 45.1289 20.6985 47.812 20.6985C50.4951 20.6985 52.5074 18.6791 52.5074 15.65V6.39464H56.0289V23.5592H52.5074V21.2033H52.3397C52.0379 21.7081 51.6019 22.1457 51.0988 22.5495C50.1932 23.2227 48.8852 23.8958 46.9736 23.8958C42.7812 23.8958 40.2659 21.4052 40.2659 16.6597Z" fill="white"/>
<path fill-rule="evenodd" clip-rule="evenodd" d="M38.7481 14.8168C38.7481 19.8885 34.651 24 29.5969 24C24.5429 24 20.4458 19.8885 20.4458 14.8168C20.4458 9.74502 24.5429 5.63355 29.5969 5.63355C34.651 5.63355 38.7481 9.74502 38.7481 14.8168ZM34.5266 14.8168C34.5266 17.5489 32.3195 19.7637 29.5969 19.7637C26.8744 19.7637 24.6673 17.5489 24.6673 14.8168C24.6673 12.0847 26.8744 9.86984 29.5969 9.86984C32.3195 9.86984 34.5266 12.0847 34.5266 14.8168Z" fill="white"/>
<path d="M14.4277 7.08941C11.8983 8.72333 10.2231 11.5737 10.2231 14.8168C10.2231 18.0598 11.8983 20.9102 14.4277 22.5441C15.854 23.4655 17.5519 24 19.3742 24V5.63352C17.5519 5.63352 15.854 6.16806 14.4277 7.08941Z" fill="white"/>
<path d="M0 14.8168C0 11.5737 1.67519 8.72333 4.20458 7.08941C5.63089 6.16806 7.32882 5.63352 9.15115 5.63352V24C7.32882 24 5.63089 23.4655 4.20458 22.5441C1.67519 20.9102 0 18.0598 0 14.8168Z" fill="white"/>
</g>
<defs>
<clipPath id="clip0_201_2">
<rect width="136" height="24" fill="white"/>
</clipPath>
</defs>
</svg>
