<svg width="500" height="500" viewBox="0 0 500 500" fill="none" xmlns="http://www.w3.org/2000/svg">
<mask id="mask0_3612_902" style="mask-type:alpha" maskUnits="userSpaceOnUse" x="154" y="54" width="189" height="354">
<path d="M216.25 93V88.125C216.25 71.9707 229.346 58.875 245.5 58.875C261.654 58.875 274.75 71.9707 274.75 88.125V93H284.5C287.192 93 289.375 95.1826 289.375 97.875V156.375C289.375 159.067 287.192 161.25 284.5 161.25H206.5C203.808 161.25 201.625 159.067 201.625 156.375V97.875C201.625 95.1826 203.808 93 206.5 93H216.25ZM279.625 102.75H211.375V151.5H279.625V102.75ZM240.625 130.695C237.711 129.01 235.75 125.859 235.75 122.25C235.75 116.865 240.115 112.5 245.5 112.5C250.885 112.5 255.25 116.865 255.25 122.25C255.25 125.859 253.289 129.01 250.375 130.695V141.75H240.625V130.695ZM226 93H265V88.125C265 77.3554 256.269 68.625 245.5 68.625C234.73 68.625 226 77.3554 226 88.125V93Z" fill="black"/>
<path d="M246.707 392.833C254.643 392.833 260.689 395.934 264.464 401.024L262.561 403.561C259.49 399.92 252.877 397.167 246.707 397.167C240.538 397.167 233.926 399.92 230.854 403.561L228.317 401.024C232.092 395.935 238.773 392.833 246.707 392.833ZM246.707 360.333C252.691 360.333 257.541 365.184 257.541 371.167V377.667C257.541 383.492 252.942 388.244 247.177 388.49L246.707 388.5C240.724 388.5 235.874 383.65 235.874 377.667V371.167C235.874 365.341 240.472 360.589 246.238 360.343L246.707 360.333ZM246.707 364.667C243.246 364.667 240.416 367.373 240.219 370.785L240.207 371.167V377.667C240.207 381.257 243.118 384.167 246.707 384.167C250.169 384.167 252.999 381.461 253.196 378.049L253.207 377.667V371.167C253.207 367.577 250.297 364.667 246.707 364.667Z" fill="black"/>
<path d="M215 392.833C222.935 392.833 229.615 395.934 233.39 401.024L230.853 403.561C227.782 399.92 221.169 397.167 215 397.167C208.83 397.167 203.414 399.584 200.342 403.225L196.353 401.335C200.127 396.245 207.065 392.833 215 392.833ZM215 360.333C220.983 360.333 225.833 365.184 225.833 371.167V377.667C225.833 383.492 221.235 388.244 215.47 388.49L215 388.5C209.017 388.5 204.166 383.65 204.166 377.667V371.167C204.166 365.341 208.765 360.589 214.53 360.343L215 360.333ZM215 364.667C211.538 364.667 208.708 367.373 208.511 370.785L208.5 371.167V377.667C208.5 381.257 211.41 384.167 215 384.167C218.461 384.167 221.291 381.461 221.489 378.049L221.5 377.667V371.167C221.5 367.577 218.589 364.667 215 364.667Z" fill="black"/>
<path d="M278.415 392.833C286.35 392.833 293.289 396.246 297.063 401.337L293.072 403.225C290.001 399.584 284.584 397.167 278.415 397.167C272.245 397.167 265.633 399.92 262.561 403.561L260.659 401.024C264.433 395.935 270.48 392.833 278.415 392.833ZM278.415 360.333C284.398 360.333 289.248 365.184 289.248 371.167V377.667C289.248 383.492 284.65 388.244 278.885 388.49L278.415 388.5C272.432 388.5 267.581 383.65 267.581 377.667V371.167C267.581 365.341 272.18 360.589 277.945 360.343L278.415 360.333ZM278.415 364.667C274.953 364.667 272.123 367.373 271.926 370.785L271.915 371.167V377.667C271.915 381.257 274.825 384.167 278.415 384.167C281.876 384.167 284.706 381.461 284.904 378.049L284.915 377.667V371.167C284.915 367.577 282.004 364.667 278.415 364.667Z" fill="black"/>
<line x1="158" y1="294.5" x2="343" y2="294.5" stroke="white" stroke-width="4"/>
<line x1="156" y1="296.5" x2="156" y2="215.5" stroke="white" stroke-width="4"/>
<line x1="341" y1="280" x2="158" y2="280" stroke="white" stroke-opacity="0.2" stroke-dasharray="2 2"/>
<line x1="340" y1="264" x2="157" y2="264" stroke="white" stroke-opacity="0.2" stroke-dasharray="2 2"/>
<line x1="340" y1="248" x2="157" y2="248" stroke="white" stroke-opacity="0.2" stroke-dasharray="2 2"/>
<line x1="340" y1="232" x2="157" y2="232" stroke="white" stroke-opacity="0.2" stroke-dasharray="2 2"/>
<line x1="340" y1="216" x2="157" y2="216" stroke="white" stroke-opacity="0.2" stroke-dasharray="2 2"/>
<path d="M337.836 192.792C338.274 191.778 337.807 190.601 336.792 190.164C335.778 189.726 334.601 190.193 334.164 191.208L337.836 192.792ZM157 294.5C157.059 296.499 157.06 296.499 157.062 296.499C157.063 296.499 157.065 296.499 157.068 296.499C157.073 296.499 157.08 296.498 157.089 296.498C157.107 296.498 157.134 296.497 157.169 296.496C157.239 296.493 157.341 296.489 157.474 296.484C157.742 296.473 158.136 296.455 158.649 296.428C159.675 296.374 161.18 296.282 163.106 296.13C166.958 295.825 172.497 295.28 179.274 294.316C192.822 292.39 211.338 288.788 231.202 282.082C270.883 268.688 316.263 242.792 337.836 192.792L334.164 191.208C313.237 239.708 269.117 265.062 229.923 278.293C210.35 284.9 192.085 288.454 178.711 290.356C172.026 291.306 166.57 291.843 162.791 292.142C160.901 292.291 159.432 292.381 158.438 292.434C157.941 292.46 157.563 292.477 157.311 292.487C157.186 292.492 157.091 292.496 157.029 292.498C156.998 292.499 156.975 292.5 156.961 292.5C156.953 292.5 156.948 292.501 156.945 292.501C156.943 292.501 156.942 292.501 156.942 292.501C156.941 292.501 156.941 292.501 157 294.5Z" fill="white"/>
</mask>
<g mask="url(#mask0_3612_902)">
<g opacity="0.8">
<mask id="mask1_3612_902" style="mask-type:alpha" maskUnits="userSpaceOnUse" x="0" y="0" width="500" height="500">
<rect width="500" height="500" fill="url(#paint0_radial_3612_902)"/>
</mask>
<g mask="url(#mask1_3612_902)">
<rect opacity="0.9" width="500" height="500" fill="#D9D9D9"/>
</g>
</g>
</g>
<defs>
<radialGradient id="paint0_radial_3612_902" cx="0" cy="0" r="1" gradientUnits="userSpaceOnUse" gradientTransform="translate(250 250) rotate(90) scale(250)">
<stop stop-color="white"/>
<stop offset="0.56" stop-color="white" stop-opacity="0.3"/>
<stop offset="1" stop-color="white" stop-opacity="0"/>
</radialGradient>
</defs>
</svg>
