<svg width="57" height="35" viewBox="0 0 57 35" fill="none" xmlns="http://www.w3.org/2000/svg">
<mask id="mask0_3612_795" style="mask-type:alpha" maskUnits="userSpaceOnUse" x="0" y="0" width="57" height="35">
<mask id="path-1-inside-1_3612_795" fill="white">
<path d="M16.0207 13.0184C16.0207 13.7066 16.0953 14.2646 16.2258 14.6738C16.3749 15.083 16.5613 15.5294 16.8223 16.0131C16.9155 16.1619 16.9528 16.3107 16.9528 16.4409C16.9528 16.6269 16.8409 16.8129 16.5986 16.9989L15.4242 17.7801C15.2565 17.8917 15.0887 17.9475 14.9396 17.9475C14.7532 17.9475 14.5668 17.8545 14.3804 17.6871C14.1194 17.4081 13.8957 17.1105 13.7093 16.8129C13.5229 16.4967 13.3365 16.1433 13.1314 15.7154C11.6775 17.4267 9.85071 18.2823 7.65112 18.2823C6.08531 18.2823 4.8364 17.8359 3.92301 16.9431C3.00962 16.0503 2.54361 14.8598 2.54361 13.3718C2.54361 11.7907 3.10283 10.5073 4.2399 9.54003C5.37697 8.5728 6.88686 8.08918 8.80683 8.08918C9.44061 8.08918 10.093 8.14499 10.7827 8.23799C11.4724 8.33099 12.1808 8.4798 12.9264 8.6472V7.28936C12.9264 5.87571 12.6281 4.88987 12.0503 4.31325C11.4538 3.73663 10.4472 3.45762 9.01188 3.45762C8.35946 3.45762 7.6884 3.53202 6.9987 3.69943C6.309 3.86684 5.63794 4.07144 4.98552 4.33185C4.68727 4.46206 4.46359 4.53646 4.3331 4.57366C4.20262 4.61086 4.10942 4.62946 4.03485 4.62946C3.77389 4.62946 3.6434 4.44346 3.6434 4.05284V3.14141C3.6434 2.8438 3.68068 2.62059 3.77389 2.49039C3.86709 2.36018 4.03485 2.22998 4.29582 2.09977C4.94824 1.76496 5.73114 1.48595 6.64453 1.26274C7.55792 1.02094 8.52723 0.909333 9.55246 0.909333C11.7707 0.909333 13.3924 1.41155 14.4363 2.41599C15.4615 3.42042 15.9834 4.94567 15.9834 6.99175V13.0184H16.0207ZM8.45266 15.8457C9.0678 15.8457 9.70158 15.7341 10.3726 15.5108C11.0437 15.2876 11.6402 14.8784 12.1435 14.3204C12.4417 13.967 12.6654 13.5764 12.7773 13.13C12.8891 12.6835 12.9637 12.1441 12.9637 11.5117V10.7305C12.4231 10.6003 11.8452 10.4887 11.2487 10.4143C10.6522 10.3399 10.0744 10.3027 9.49654 10.3027C8.24762 10.3027 7.33423 10.5445 6.71909 11.0467C6.10395 11.5489 5.80571 12.2557 5.80571 13.1858C5.80571 14.06 6.02939 14.711 6.49541 15.1574C6.94278 15.6224 7.5952 15.8457 8.45266 15.8457ZM23.421 17.8545C23.0855 17.8545 22.8618 17.7987 22.7127 17.6685C22.5636 17.5569 22.4331 17.2965 22.3212 16.9431L17.9407 2.56479C17.8289 2.19278 17.7729 1.95097 17.7729 1.82076C17.7729 1.52315 17.9221 1.35575 18.2203 1.35575H20.0471C20.4013 1.35575 20.6436 1.41155 20.7741 1.54175C20.9232 1.65336 21.035 1.91377 21.1469 2.26718L24.2785 14.5808L27.1864 2.26718C27.2796 1.89517 27.3915 1.65336 27.5406 1.54175C27.6897 1.43015 27.9507 1.35575 28.2862 1.35575H29.7775C30.1316 1.35575 30.374 1.41155 30.5231 1.54175C30.6722 1.65336 30.8027 1.91377 30.8772 2.26718L33.8225 14.7296L37.0473 2.26718C37.1591 1.89517 37.2896 1.65336 37.4201 1.54175C37.5692 1.43015 37.8115 1.35575 38.1471 1.35575H39.8806C40.1789 1.35575 40.3466 1.50455 40.3466 1.82076C40.3466 1.91377 40.328 2.00677 40.3094 2.11837C40.2907 2.22998 40.2534 2.37878 40.1789 2.58339L35.6865 16.9617C35.5747 17.3337 35.4442 17.5755 35.2951 17.6871C35.1459 17.7987 34.9036 17.8731 34.5867 17.8731H32.9836C32.6295 17.8731 32.3871 17.8173 32.238 17.6871C32.0889 17.5569 31.9584 17.3151 31.8838 16.9431L28.9946 4.94567L26.1239 16.9245C26.0307 17.2965 25.9189 17.5383 25.7697 17.6685C25.6206 17.7987 25.3596 17.8545 25.0241 17.8545H23.421ZM47.3741 18.3567C46.4048 18.3567 45.4355 18.2451 44.5035 18.0219C43.5715 17.7987 42.8445 17.5569 42.3598 17.2779C42.0616 17.1105 41.8565 16.9245 41.782 16.7571C41.7074 16.5897 41.6701 16.4037 41.6701 16.2363V15.2876C41.6701 14.897 41.8192 14.711 42.0989 14.711C42.2107 14.711 42.3225 14.7296 42.4344 14.7668C42.5462 14.804 42.714 14.8784 42.9004 14.9528C43.5342 15.2318 44.2239 15.455 44.9509 15.6038C45.6965 15.7527 46.4235 15.8271 47.1691 15.8271C48.3434 15.8271 49.2568 15.6224 49.8906 15.2132C50.5244 14.804 50.8599 14.2088 50.8599 13.4462C50.8599 12.9254 50.6922 12.4975 50.3566 12.1441C50.0211 11.7907 49.3873 11.4745 48.4739 11.1769L45.771 10.3399C44.4103 9.91205 43.4037 9.27962 42.7886 8.4426C42.1734 7.62417 41.8565 6.71273 41.8565 5.7455C41.8565 4.96427 42.0243 4.27605 42.3598 3.68083C42.6954 3.08561 43.1427 2.56479 43.7019 2.15558C44.2612 1.72776 44.8949 1.41155 45.6406 1.18834C46.3862 0.965135 47.1691 0.872131 47.9893 0.872131C48.3994 0.872131 48.8281 0.890732 49.2382 0.946534C49.6669 1.00234 50.0584 1.07674 50.4498 1.15114C50.8226 1.24414 51.1768 1.33715 51.5123 1.44875C51.8479 1.56036 52.1088 1.67196 52.2952 1.78356C52.5562 1.93237 52.7426 2.08117 52.8545 2.24858C52.9663 2.39738 53.0222 2.60199 53.0222 2.8624V3.73663C53.0222 4.12724 52.8731 4.33185 52.5935 4.33185C52.4444 4.33185 52.202 4.25745 51.8851 4.10864C50.8226 3.62503 49.6296 3.38322 48.3062 3.38322C47.2437 3.38322 46.4048 3.55062 45.827 3.90404C45.2491 4.25745 44.9509 4.79687 44.9509 5.55949C44.9509 6.08031 45.1373 6.52673 45.5101 6.88014C45.8829 7.23355 46.5726 7.58697 47.5605 7.90318L50.2075 8.74021C51.5496 9.16802 52.5189 9.76324 53.0968 10.5259C53.6746 11.2885 53.9542 12.1627 53.9542 13.13C53.9542 13.9298 53.7865 14.6552 53.4696 15.2876C53.1341 15.9201 52.6867 16.4781 52.1088 16.9245C51.531 17.3895 50.8413 17.7243 50.0397 17.9661C49.2009 18.2265 48.3248 18.3567 47.3741 18.3567Z"/>
</mask>
<path d="M16.0207 13.0184C16.0207 13.7066 16.0953 14.2646 16.2258 14.6738C16.3749 15.083 16.5613 15.5294 16.8223 16.0131C16.9155 16.1619 16.9528 16.3107 16.9528 16.4409C16.9528 16.6269 16.8409 16.8129 16.5986 16.9989L15.4242 17.7801C15.2565 17.8917 15.0887 17.9475 14.9396 17.9475C14.7532 17.9475 14.5668 17.8545 14.3804 17.6871C14.1194 17.4081 13.8957 17.1105 13.7093 16.8129C13.5229 16.4967 13.3365 16.1433 13.1314 15.7154C11.6775 17.4267 9.85071 18.2823 7.65112 18.2823C6.08531 18.2823 4.8364 17.8359 3.92301 16.9431C3.00962 16.0503 2.54361 14.8598 2.54361 13.3718C2.54361 11.7907 3.10283 10.5073 4.2399 9.54003C5.37697 8.5728 6.88686 8.08918 8.80683 8.08918C9.44061 8.08918 10.093 8.14499 10.7827 8.23799C11.4724 8.33099 12.1808 8.4798 12.9264 8.6472V7.28936C12.9264 5.87571 12.6281 4.88987 12.0503 4.31325C11.4538 3.73663 10.4472 3.45762 9.01188 3.45762C8.35946 3.45762 7.6884 3.53202 6.9987 3.69943C6.309 3.86684 5.63794 4.07144 4.98552 4.33185C4.68727 4.46206 4.46359 4.53646 4.3331 4.57366C4.20262 4.61086 4.10942 4.62946 4.03485 4.62946C3.77389 4.62946 3.6434 4.44346 3.6434 4.05284V3.14141C3.6434 2.8438 3.68068 2.62059 3.77389 2.49039C3.86709 2.36018 4.03485 2.22998 4.29582 2.09977C4.94824 1.76496 5.73114 1.48595 6.64453 1.26274C7.55792 1.02094 8.52723 0.909333 9.55246 0.909333C11.7707 0.909333 13.3924 1.41155 14.4363 2.41599C15.4615 3.42042 15.9834 4.94567 15.9834 6.99175V13.0184H16.0207ZM8.45266 15.8457C9.0678 15.8457 9.70158 15.7341 10.3726 15.5108C11.0437 15.2876 11.6402 14.8784 12.1435 14.3204C12.4417 13.967 12.6654 13.5764 12.7773 13.13C12.8891 12.6835 12.9637 12.1441 12.9637 11.5117V10.7305C12.4231 10.6003 11.8452 10.4887 11.2487 10.4143C10.6522 10.3399 10.0744 10.3027 9.49654 10.3027C8.24762 10.3027 7.33423 10.5445 6.71909 11.0467C6.10395 11.5489 5.80571 12.2557 5.80571 13.1858C5.80571 14.06 6.02939 14.711 6.49541 15.1574C6.94278 15.6224 7.5952 15.8457 8.45266 15.8457ZM23.421 17.8545C23.0855 17.8545 22.8618 17.7987 22.7127 17.6685C22.5636 17.5569 22.4331 17.2965 22.3212 16.9431L17.9407 2.56479C17.8289 2.19278 17.7729 1.95097 17.7729 1.82076C17.7729 1.52315 17.9221 1.35575 18.2203 1.35575H20.0471C20.4013 1.35575 20.6436 1.41155 20.7741 1.54175C20.9232 1.65336 21.035 1.91377 21.1469 2.26718L24.2785 14.5808L27.1864 2.26718C27.2796 1.89517 27.3915 1.65336 27.5406 1.54175C27.6897 1.43015 27.9507 1.35575 28.2862 1.35575H29.7775C30.1316 1.35575 30.374 1.41155 30.5231 1.54175C30.6722 1.65336 30.8027 1.91377 30.8772 2.26718L33.8225 14.7296L37.0473 2.26718C37.1591 1.89517 37.2896 1.65336 37.4201 1.54175C37.5692 1.43015 37.8115 1.35575 38.1471 1.35575H39.8806C40.1789 1.35575 40.3466 1.50455 40.3466 1.82076C40.3466 1.91377 40.328 2.00677 40.3094 2.11837C40.2907 2.22998 40.2534 2.37878 40.1789 2.58339L35.6865 16.9617C35.5747 17.3337 35.4442 17.5755 35.2951 17.6871C35.1459 17.7987 34.9036 17.8731 34.5867 17.8731H32.9836C32.6295 17.8731 32.3871 17.8173 32.238 17.6871C32.0889 17.5569 31.9584 17.3151 31.8838 16.9431L28.9946 4.94567L26.1239 16.9245C26.0307 17.2965 25.9189 17.5383 25.7697 17.6685C25.6206 17.7987 25.3596 17.8545 25.0241 17.8545H23.421ZM47.3741 18.3567C46.4048 18.3567 45.4355 18.2451 44.5035 18.0219C43.5715 17.7987 42.8445 17.5569 42.3598 17.2779C42.0616 17.1105 41.8565 16.9245 41.782 16.7571C41.7074 16.5897 41.6701 16.4037 41.6701 16.2363V15.2876C41.6701 14.897 41.8192 14.711 42.0989 14.711C42.2107 14.711 42.3225 14.7296 42.4344 14.7668C42.5462 14.804 42.714 14.8784 42.9004 14.9528C43.5342 15.2318 44.2239 15.455 44.9509 15.6038C45.6965 15.7527 46.4235 15.8271 47.1691 15.8271C48.3434 15.8271 49.2568 15.6224 49.8906 15.2132C50.5244 14.804 50.8599 14.2088 50.8599 13.4462C50.8599 12.9254 50.6922 12.4975 50.3566 12.1441C50.0211 11.7907 49.3873 11.4745 48.4739 11.1769L45.771 10.3399C44.4103 9.91205 43.4037 9.27962 42.7886 8.4426C42.1734 7.62417 41.8565 6.71273 41.8565 5.7455C41.8565 4.96427 42.0243 4.27605 42.3598 3.68083C42.6954 3.08561 43.1427 2.56479 43.7019 2.15558C44.2612 1.72776 44.8949 1.41155 45.6406 1.18834C46.3862 0.965135 47.1691 0.872131 47.9893 0.872131C48.3994 0.872131 48.8281 0.890732 49.2382 0.946534C49.6669 1.00234 50.0584 1.07674 50.4498 1.15114C50.8226 1.24414 51.1768 1.33715 51.5123 1.44875C51.8479 1.56036 52.1088 1.67196 52.2952 1.78356C52.5562 1.93237 52.7426 2.08117 52.8545 2.24858C52.9663 2.39738 53.0222 2.60199 53.0222 2.8624V3.73663C53.0222 4.12724 52.8731 4.33185 52.5935 4.33185C52.4444 4.33185 52.202 4.25745 51.8851 4.10864C50.8226 3.62503 49.6296 3.38322 48.3062 3.38322C47.2437 3.38322 46.4048 3.55062 45.827 3.90404C45.2491 4.25745 44.9509 4.79687 44.9509 5.55949C44.9509 6.08031 45.1373 6.52673 45.5101 6.88014C45.8829 7.23355 46.5726 7.58697 47.5605 7.90318L50.2075 8.74021C51.5496 9.16802 52.5189 9.76324 53.0968 10.5259C53.6746 11.2885 53.9542 12.1627 53.9542 13.13C53.9542 13.9298 53.7865 14.6552 53.4696 15.2876C53.1341 15.9201 52.6867 16.4781 52.1088 16.9245C51.531 17.3895 50.8413 17.7243 50.0397 17.9661C49.2009 18.2265 48.3248 18.3567 47.3741 18.3567Z" stroke="white" stroke-width="2" mask="url(#path-1-inside-1_3612_795)"/>
<path d="M0.809239 23.3981C0.782737 23.3742 0.764615 23.3531 0.752352 23.336C0.777476 23.3429 0.811086 23.3561 0.853137 23.3811L0.853123 23.3811L0.857752 23.3838C8.83673 28.0032 18.672 30.7983 28.8454 30.7983C35.7145 30.7983 43.2556 29.3719 50.1968 26.4437L50.1969 26.4438L50.209 26.4383C50.5211 26.2968 50.7292 26.4183 50.8012 26.5217C50.8379 26.5746 50.8501 26.6318 50.8372 26.6923C50.8242 26.7534 50.7745 26.8656 50.6 26.9945C44.5698 31.4386 35.77 33.8161 28.193 33.8161C17.5821 33.8161 8.02631 29.9016 0.809239 23.3981ZM0.809239 23.3981L0.474492 23.7695L0.809239 23.3981Z" stroke="white"/>
<path d="M46.265 23.9825C46.2649 23.9825 46.2651 23.982 46.2655 23.981L46.265 23.9825ZM46.5782 23.713C48.1969 22.65 50.3164 22.2497 52.1625 22.2234C53.1118 22.2099 53.9674 22.2958 54.6163 22.4305C54.9416 22.4979 55.2043 22.5755 55.3966 22.6536C55.4925 22.6926 55.5638 22.7288 55.6135 22.7597C55.6477 22.7808 55.665 22.7954 55.6717 22.8013C55.679 22.8158 55.7167 22.8933 55.7438 23.0849C55.7723 23.2857 55.7816 23.5554 55.7641 23.8845C55.7291 24.541 55.5899 25.3865 55.3283 26.2986C54.8216 28.0662 53.8791 30.0051 52.4387 31.2961C52.8108 30.3699 53.3259 29.0474 53.6929 27.8032C53.9013 27.0964 54.0684 26.394 54.1301 25.7929C54.1609 25.4922 54.1673 25.2 54.1323 24.9363C54.0979 24.6777 54.0184 24.4064 53.8439 24.1858C53.6723 23.9665 53.4309 23.8225 53.1889 23.7235C52.9421 23.6226 52.6578 23.5536 52.3588 23.5057C51.7612 23.41 51.0406 23.3892 50.305 23.4069C48.9987 23.4384 47.5772 23.594 46.5782 23.713ZM52.0862 31.5475C52.0862 31.5475 52.0867 31.5474 52.0876 31.5474L52.0862 31.5475Z" stroke="white"/>
</mask>
<g mask="url(#mask0_3612_795)">
<rect x="-4.27045" y="-10.0942" width="65.0388" height="46.3445" fill="url(#paint0_linear_3612_795)"/>
</g>
<defs>
<linearGradient id="paint0_linear_3612_795" x1="-4.27045" y1="13.078" x2="60.7684" y2="13.078" gradientUnits="userSpaceOnUse">
<stop stop-color="#14B8A6"/>
<stop offset="1" stop-color="#21AFFF"/>
</linearGradient>
</defs>
</svg>
