<svg width="36" height="36" viewBox="0 0 36 36" fill="none" xmlns="http://www.w3.org/2000/svg">
<mask id="mask0_3612_899" style="mask-type:alpha" maskUnits="userSpaceOnUse" x="0" y="0" width="36" height="36">
<g clip-path="url(#clip0_3612_899)">
<path d="M3.51562 0.25H32.4844C34.2879 0.25 35.75 1.71207 35.75 3.51562V32.4844C35.75 34.2879 34.2879 35.75 32.4844 35.75H3.51562C1.71207 35.75 0.25 34.2879 0.25 32.4844V3.51562C0.25 1.71207 1.71207 0.25 3.51562 0.25Z" stroke="white" stroke-width="0.5"/>
<path d="M22.5348 29.1598V32.0117C23.0526 32.2589 23.6604 32.4496 24.3612 32.5812C25.126 32.7247 25.9339 32.7969 26.7855 32.7969C27.6132 32.7969 28.3971 32.7178 29.1379 32.5603L29.1379 32.5603C29.8715 32.4045 30.5081 32.1491 31.0513 31.7975L31.0514 31.7975C31.5892 31.4495 32.0139 30.9957 32.3279 30.4335C32.6358 29.8823 32.7969 29.1882 32.7969 28.339C32.7969 27.7254 32.7051 27.1988 32.5284 26.7539C32.3497 26.3038 32.0923 25.9041 31.7552 25.5534L31.7552 25.5534C31.4133 25.1976 31.0007 24.8757 30.5153 24.5888C30.0243 24.2987 29.4682 24.0232 28.8464 23.7631C28.8462 23.763 28.846 23.7629 28.8458 23.7628L28.9423 23.5322L22.5348 29.1598ZM22.5348 29.1598C23.0793 29.5561 23.6613 29.8654 24.2803 30.0868C25.0546 30.3638 25.8386 30.5029 26.6314 30.5029C27.0931 30.5029 27.5043 30.4615 27.8621 30.3749M22.5348 29.1598L28.3205 27.1621L28.4603 26.9548C28.7836 27.1728 29.0469 27.4158 29.2435 27.686L29.0476 27.8286L29.2435 27.686C29.4517 27.972 29.5555 28.2988 29.5555 28.658C29.5555 28.9278 29.4896 29.1811 29.3579 29.4137C29.2243 29.6497 29.0259 29.8463 28.7743 30.0071C28.5215 30.1687 28.2153 30.2896 27.8621 30.3749M27.8621 30.3749C27.8621 30.3749 27.8621 30.3749 27.8621 30.3749L27.8034 30.1319L27.8621 30.3749ZM25.9786 25.754C24.7702 25.2506 23.891 24.6445 23.3202 23.946C22.755 23.2544 22.4688 22.4171 22.4688 21.4202C22.4688 20.6325 22.6269 19.9706 22.9322 19.4248L22.9322 19.4248C23.2428 18.8693 23.6649 18.4127 24.2012 18.0529C24.7423 17.6901 25.3726 17.4205 26.0956 17.247C26.8232 17.0723 27.5957 16.9844 28.4141 16.9844C29.2262 16.9844 29.941 17.0333 30.5599 17.1299C31.1157 17.2166 31.63 17.3447 32.1036 17.5134V20.1753C31.9401 20.0818 31.7694 19.9954 31.5918 19.916L31.5918 19.916C31.2686 19.7716 30.9359 19.6519 30.5938 19.5569L30.5938 19.5569C30.2531 19.4623 29.9136 19.3921 29.5754 19.3465L29.5754 19.3465C29.2392 19.3012 28.918 19.2783 28.6122 19.2783C28.1931 19.2783 27.8069 19.3182 27.455 19.4003L27.5117 19.6438L25.9786 25.754ZM16.3673 19.7245H16.1173V19.9745V32.5859H13.0403V19.9745V19.7245H12.7903H8.54688V17.3359H20.6328V19.7245H16.3673Z" fill="white" stroke="white" stroke-width="0.5"/>
</g>
</mask>
<g mask="url(#mask0_3612_899)">
<rect x="-14.395" y="-9.23859" width="65.0388" height="46.3445" fill="url(#paint0_linear_3612_899)"/>
</g>
<defs>
<linearGradient id="paint0_linear_3612_899" x1="-14.395" y1="13.9337" x2="50.6438" y2="13.9337" gradientUnits="userSpaceOnUse">
<stop stop-color="#14B8A6"/>
<stop offset="1" stop-color="#21AFFF"/>
</linearGradient>
<clipPath id="clip0_3612_899">
<rect width="36" height="36" fill="white"/>
</clipPath>
</defs>
</svg>
