<svg width="38" height="36" viewBox="0 0 38 36" fill="none" xmlns="http://www.w3.org/2000/svg">
<mask id="mask0_3612_797" style="mask-type:alpha" maskUnits="userSpaceOnUse" x="0" y="0" width="38" height="36">
<mask id="path-1-inside-1_3612_797" fill="white">
<path fill-rule="evenodd" clip-rule="evenodd" d="M26.1246 1.22769C26.4171 1.43766 26.6363 1.7341 26.7514 2.07524L37.2036 33.045C37.2909 33.3038 37.3154 33.5797 37.275 33.8499C37.2346 34.1201 37.1305 34.3767 36.9712 34.5986C36.8119 34.8206 36.6021 35.0014 36.3591 35.1261C36.1161 35.2509 35.8469 35.316 35.5737 35.3161H23.5295C23.5399 35.3161 23.5503 35.316 23.5608 35.3158H23.1623L23.1546 35.3157C22.7205 35.3128 22.3031 35.1468 21.9855 34.8505L16.2666 29.5128L14.6225 27.9793L13.6576 30.823L12.5369 34.1437C12.4216 34.4852 12.2021 34.782 11.9092 34.9923C11.7675 35.0941 11.612 35.1731 11.4484 35.2275C11.3444 35.2665 11.2366 35.2961 11.1263 35.3158H2.499C2.3856 35.3161 2.27286 35.3052 2.16236 35.2834C2.00515 35.2525 1.85248 35.1997 1.70895 35.1261C1.46593 35.0014 1.25608 34.8207 1.09677 34.5989C0.937452 34.377 0.833253 34.1204 0.792788 33.8503C0.752323 33.5802 0.776757 33.3043 0.864066 33.0455L11.3159 2.07695C11.3966 1.83761 11.5285 1.62024 11.7009 1.4392C11.7719 1.36416 11.85 1.29532 11.9343 1.23375C12.2225 1.02329 12.5693 0.90846 12.9258 0.905047L12.9486 0.904895H13.0901C13.0859 0.904863 13.0816 0.904846 13.0773 0.904846H25.1211C25.4812 0.904804 25.8321 1.01772 26.1246 1.22769ZM21.8368 23.1993L19.041 14.9154L16.2584 23.1173L16.2307 23.1993H21.8368Z"/>
</mask>
<path d="M26.7514 2.07524L25.8038 2.3949L25.8039 2.39502L26.7514 2.07524ZM26.1246 1.22769L26.7078 0.415357L26.7078 0.415356L26.1246 1.22769ZM37.2036 33.045L36.2561 33.3648L36.2561 33.3649L37.2036 33.045ZM36.9712 34.5986L37.7836 35.1817L37.7837 35.1817L36.9712 34.5986ZM35.5737 35.3161L35.5737 36.3161L35.574 36.3161L35.5737 35.3161ZM23.5608 35.3158L23.5791 36.3156L23.5608 34.3158V35.3158ZM23.1623 35.3158L23.1513 36.3158H23.1623V35.3158ZM23.1546 35.3157L23.1655 34.3158L23.1614 34.3158L23.1546 35.3157ZM21.9855 34.8505L21.3032 35.5816L21.3034 35.5818L21.9855 34.8505ZM16.2666 29.5128L16.949 28.7817L16.9487 28.7815L16.2666 29.5128ZM14.6225 27.9793L15.3046 27.248L14.1729 26.1924L13.6756 27.6579L14.6225 27.9793ZM13.6576 30.823L12.7106 30.5017L12.7101 30.5033L13.6576 30.823ZM12.5369 34.1437L13.4844 34.4635L13.4844 34.4635L12.5369 34.1437ZM11.9092 34.9923L11.326 34.18L11.326 34.18L11.9092 34.9923ZM11.4484 35.2275L11.1326 34.2787L11.1151 34.2845L11.0978 34.291L11.4484 35.2275ZM11.1263 35.3158V36.3158H11.2149L11.3022 36.3002L11.1263 35.3158ZM2.499 35.3158L2.499 34.3158L2.49628 34.3158L2.499 35.3158ZM2.16236 35.2834L2.35558 34.3023L2.35522 34.3022L2.16236 35.2834ZM1.70895 35.1261L1.25254 36.0159L1.25255 36.0159L1.70895 35.1261ZM0.792788 33.8503L-0.196177 33.9984L-0.196177 33.9984L0.792788 33.8503ZM0.864066 33.0455L-0.083427 32.7257L-0.0834656 32.7258L0.864066 33.0455ZM11.3159 2.07695L12.2633 2.39673L12.2634 2.39656L11.3159 2.07695ZM11.7009 1.4392L12.425 2.12889L12.4272 2.12662L11.7009 1.4392ZM11.9343 1.23375L12.524 2.04138L12.524 2.04138L11.9343 1.23375ZM12.9258 0.905047L12.9191 -0.0949355L12.9162 -0.0949075L12.9258 0.905047ZM12.9486 0.904895L12.9486 -0.0951271L12.9419 -0.0950829L12.9486 0.904895ZM13.0901 0.904895V1.9049L13.0977 -0.0950766L13.0901 0.904895ZM13.0773 0.904846V-0.0951538L13.0772 1.90485L13.0773 0.904846ZM25.1211 0.904846L25.1211 1.90485L25.1212 1.90485L25.1211 0.904846ZM19.041 14.9154L19.9885 14.5956L19.0435 11.7956L18.0941 14.5941L19.041 14.9154ZM21.8368 23.1993V24.1993H23.2297L22.7843 22.8795L21.8368 23.1993ZM16.2584 23.1173L15.3114 22.796L15.3109 22.7975L16.2584 23.1173ZM16.2307 23.1993L15.2832 22.8795L14.8378 24.1993H16.2307V23.1993ZM27.6989 1.75558C27.5169 1.21613 27.1703 0.747378 26.7078 0.415357L25.5414 2.04002C25.6639 2.12794 25.7557 2.25206 25.8038 2.3949L27.6989 1.75558ZM38.1511 32.7253L27.6989 1.75546L25.8039 2.39502L36.2561 33.3648L38.1511 32.7253ZM38.264 33.9978C38.3279 33.5707 38.2892 33.1344 38.1511 32.7252L36.2561 33.3649C36.2927 33.4733 36.303 33.5888 36.286 33.702L38.264 33.9978ZM37.7837 35.1817C38.0355 34.8308 38.2001 34.425 38.264 33.9978L36.286 33.702C36.2691 33.8151 36.2255 33.9226 36.1588 34.0156L37.7837 35.1817ZM36.8158 36.0157C37.2001 35.8185 37.5318 35.5326 37.7836 35.1817L36.1588 34.0156C36.0921 34.1085 36.0042 34.1843 35.9024 34.2365L36.8158 36.0157ZM35.574 36.3161C36.0059 36.316 36.4316 36.213 36.8158 36.0157L35.9024 34.2365C35.8006 34.2888 35.6879 34.3161 35.5734 34.3161L35.574 36.3161ZM23.5295 36.3161H35.5737V34.3161H23.5295V36.3161ZM23.5425 34.316C23.5381 34.3161 23.5338 34.3161 23.5295 34.3161V36.3161C23.546 36.3161 23.5625 36.3159 23.5791 36.3156L23.5425 34.316ZM23.5608 34.3158H23.1623V36.3158H23.5608V34.3158ZM23.1732 34.3159L23.1655 34.3158L23.1437 36.3157L23.1513 36.3158L23.1732 34.3159ZM23.1614 34.3158C22.978 34.3145 22.8018 34.2444 22.6676 34.1193L21.3034 35.5818C21.8045 36.0493 22.463 36.3111 23.1478 36.3157L23.1614 34.3158ZM22.6678 34.1195L16.949 28.7817L15.5843 30.2438L21.3032 35.5816L22.6678 34.1195ZM16.9487 28.7815L15.3046 27.248L13.9405 28.7105L15.5846 30.244L16.9487 28.7815ZM13.6756 27.6579L12.7106 30.5017L14.6046 31.1444L15.5695 28.3006L13.6756 27.6579ZM12.7101 30.5033L11.5894 33.8239L13.4844 34.4635L14.6051 31.1428L12.7101 30.5033ZM11.5894 33.8238C11.541 33.9672 11.4489 34.0917 11.326 34.18L12.4925 35.8046C12.9552 35.4723 13.3021 35.0033 13.4844 34.4635L11.5894 33.8238ZM11.326 34.18C11.2665 34.2227 11.2013 34.2558 11.1326 34.2787L11.7643 36.1763C12.0228 36.0903 12.2685 35.9654 12.4925 35.8046L11.326 34.18ZM11.0978 34.291C11.0502 34.3088 11.0009 34.3224 10.9504 34.3314L11.3022 36.3002C11.4722 36.2698 11.6385 36.2241 11.799 36.1641L11.0978 34.291ZM11.1263 34.3158H2.499V36.3158H11.1263V34.3158ZM2.49628 34.3158C2.4489 34.3159 2.40178 34.3114 2.35558 34.3023L1.96915 36.2646C2.14393 36.299 2.32231 36.3163 2.50173 36.3158L2.49628 34.3158ZM2.35522 34.3022C2.28937 34.2893 2.22545 34.2672 2.16535 34.2363L1.25255 36.0159C1.47951 36.1323 1.72092 36.2158 1.96951 36.2647L2.35522 34.3022ZM2.16536 34.2363C2.06361 34.1841 1.97574 34.1085 1.90903 34.0156L0.284499 35.1821C0.536416 35.5329 0.868244 35.8187 1.25254 36.0159L2.16536 34.2363ZM1.90903 34.0156C1.84232 33.9227 1.79869 33.8152 1.78175 33.7021L-0.196177 33.9984C-0.13219 34.4256 0.0325812 34.8313 0.284499 35.1821L1.90903 34.0156ZM1.78175 33.7021C1.76481 33.589 1.77504 33.4735 1.8116 33.3652L-0.0834656 32.7258C-0.221527 33.1351 -0.260163 33.5713 -0.196177 33.9984L1.78175 33.7021ZM1.81156 33.3653L12.2633 2.39673L10.3684 1.75717L-0.083427 32.7257L1.81156 33.3653ZM12.2634 2.39656C12.2973 2.29612 12.3526 2.20489 12.425 2.12889L10.9768 0.749514C10.7043 1.03559 10.4959 1.37911 10.3683 1.75734L12.2634 2.39656ZM12.4272 2.12662C12.4567 2.09546 12.489 2.06691 12.524 2.04138L11.3446 0.426125C11.2109 0.523732 11.0872 0.632851 10.9746 0.751788L12.4272 2.12662ZM12.524 2.04138C12.6436 1.95406 12.7875 1.90642 12.9354 1.905L12.9162 -0.0949075C12.3511 -0.0894964 11.8015 0.0925233 11.3446 0.426126L12.524 2.04138ZM12.9324 1.90502L12.9552 1.90487L12.9419 -0.0950829L12.9191 -0.0949312L12.9324 1.90502ZM12.9486 1.9049H13.0901V-0.095105H12.9486V1.9049ZM13.0772 1.90485C13.079 1.90485 13.0808 1.90485 13.0826 1.90487L13.0977 -0.0950766C13.0909 -0.0951277 13.0841 -0.0951534 13.0773 -0.0951538L13.0772 1.90485ZM25.1211 -0.0951538H13.0773V1.90485H25.1211V-0.0951538ZM26.7078 0.415356C26.2453 0.0833358 25.6903 -0.0952199 25.121 -0.0951538L25.1212 1.90485C25.272 1.90483 25.4189 1.95211 25.5414 2.04003L26.7078 0.415356ZM18.0935 15.2352L20.8893 23.5191L22.7843 22.8795L19.9885 14.5956L18.0935 15.2352ZM18.0941 14.5941L15.3114 22.796L17.2054 23.4386L19.988 15.2367L18.0941 14.5941ZM15.3109 22.7975L15.2832 22.8795L17.1782 23.5191L17.2059 23.4371L15.3109 22.7975ZM16.2307 24.1993H21.8368V22.1993H16.2307V24.1993Z" fill="black" mask="url(#path-1-inside-1_3612_797)"/>
</mask>
<g mask="url(#mask0_3612_797)">
<rect x="0.773804" y="0.541321" width="36.52" height="34.41" fill="url(#paint0_linear_3612_797)"/>
</g>
<defs>
<linearGradient id="paint0_linear_3612_797" x1="0.773804" y1="17.7463" x2="37.2938" y2="17.7463" gradientUnits="userSpaceOnUse">
<stop stop-color="#14B8A6"/>
<stop offset="1" stop-color="#21AFFF"/>
</linearGradient>
</defs>
</svg>
