<svg width="81" height="30" viewBox="0 0 81 30" fill="none" xmlns="http://www.w3.org/2000/svg">
<mask id="mask0_3612_901" style="mask-type:alpha" maskUnits="userSpaceOnUse" x="0" y="0" width="81" height="30">
<path d="M20.2087 8.87278L6.30102 8.83436L6.96077 7.98611L6.96638 7.9789L6.97144 7.9713C6.97144 7.9713 6.97153 7.97117 6.97171 7.97092L6.97258 7.96983L6.97624 7.96579C6.97966 7.96232 6.98467 7.95781 6.99162 7.9526C7.0058 7.94197 7.02525 7.93048 7.04934 7.91994C7.09943 7.89803 7.1534 7.88715 7.19348 7.88715H20.9592L20.3954 8.74954C20.3953 8.74973 20.3951 8.74991 20.395 8.75011C20.3828 8.76809 20.3472 8.80314 20.2939 8.83511C20.2692 8.84993 20.2463 8.86064 20.2282 8.8671C20.217 8.87108 20.2106 8.8724 20.2087 8.87278Z" stroke="white" stroke-width="0.5"/>
<path d="M1.05745 11.5829L1.06306 11.5757L1.06812 11.5681C1.06812 11.5681 1.06821 11.568 1.06839 11.5677L1.06926 11.5666L1.07292 11.5626C1.07634 11.5591 1.08135 11.5546 1.0883 11.5494C1.10248 11.5388 1.12193 11.5273 1.14602 11.5167C1.19611 11.4948 1.25008 11.4839 1.29017 11.4839H19.0447L18.7635 12.3278L18.7604 12.3369L18.7581 12.3462C18.7565 12.3527 18.7533 12.3602 18.7376 12.3698C18.719 12.3813 18.6876 12.3914 18.6488 12.3914L18.6482 12.3914L0.398614 12.43L1.05745 11.5829ZM19.0762 11.3895L19.0762 11.3896L19.0762 11.3895Z" stroke="white" stroke-width="0.5"/>
<path d="M18.1328 16.0664L9.79475 16.0282L10.2599 15.1976C10.2798 15.1698 10.3114 15.1384 10.3487 15.1144C10.3896 15.0881 10.4213 15.0808 10.4383 15.0808H18.2406C18.2412 15.0852 18.2417 15.0902 18.2419 15.0961L18.1648 16.022L18.1639 16.0324V16.04C18.1626 16.0424 18.1593 16.0474 18.1529 16.0533C18.1462 16.0594 18.1389 16.0638 18.1335 16.0661C18.1332 16.0662 18.133 16.0663 18.1328 16.0664Z" stroke="white" stroke-width="0.5"/>
<path d="M50.1384 8.13741L50.1375 8.13764C48.7681 8.48542 47.6359 8.78605 46.4846 9.09177C45.5678 9.3352 44.6389 9.58185 43.5685 9.85809L43.5665 9.85861C43.5429 9.86492 43.5205 9.87091 43.4994 9.87657C43.3826 9.9079 43.3026 9.92938 43.2347 9.94128C43.1605 9.95428 43.1281 9.95025 43.1065 9.94379C43.0831 9.93677 43.0445 9.91822 42.9741 9.85441C42.9023 9.78936 42.8134 9.69242 42.6861 9.54547L42.6846 9.54381C42.0903 8.87029 41.6338 8.41082 40.7686 7.99854C38.214 6.74213 35.7361 7.11462 33.4475 8.60011C30.7171 10.3668 29.3053 12.9883 29.3455 16.2413V16.2414C29.3861 19.4851 31.6208 22.1758 34.839 22.6239L34.8406 22.6241C37.5888 22.9879 39.8977 22.0121 41.7072 19.9614L41.7073 19.9615L41.7132 19.9543C41.9805 19.6277 42.2274 19.2766 42.4949 18.8962C42.5866 18.7659 42.6806 18.6321 42.7788 18.4947L43.0611 18.0994H42.5753H42.5671H42.5588H42.5506H42.5423H42.534H42.5257H42.5174H42.5091H42.5008H42.4925H42.4841H42.4758H42.4674H42.459H42.4507H42.4423H42.4339H42.4255H42.4171H42.4087H42.4002H42.3918H42.3833H42.3749H42.3664H42.3579H42.3494H42.3409H42.3324H42.3239H42.3153H42.3068H42.2982H42.2896H42.281H42.2724H42.2638H42.2552H42.2466H42.2379H42.2293H42.2206H42.2119H42.2032H42.1945H42.1858H42.1771H42.1683H42.1596H42.1508H42.142H42.1332H42.1244H42.1156H42.1068H42.0979H42.0891H42.0802H42.0713H42.0624H42.0535H42.0445H42.0356H42.0266H42.0176H42.0087H41.9996H41.9906H41.9816H41.9725H41.9635H41.9544H41.9453H41.9362H41.9271H41.9179H41.9087H41.8996H41.8904H41.8812H41.872H41.8627H41.8535H41.8442H41.8349H41.8256H41.8163H41.8069H41.7976H41.7882H41.7788H41.7694H41.76H41.7505H41.7411H41.7316H41.7221H41.7126H41.703H41.6935H41.6839H41.6743H41.6647H41.6551H41.6455H41.6358H41.6261H41.6164H41.6067H41.597H41.5872H41.5774H41.5677H41.5578H41.548H41.5382H41.5283H41.5184H41.5085H41.4985H41.4886H41.4786H41.4686H41.4586H41.4486H41.4385H41.4284H41.4183H41.4082H41.3981H41.3879H41.3777H41.3675H41.3573H41.3471H41.3368H41.3265H41.3162H41.3059H41.2955H41.2851H41.2747H41.2643H41.2539H41.2434H41.2329H41.2224H41.2118H41.2013H41.1907H41.1801H41.1695H41.1588H41.1481H41.1374H41.1267H41.116H41.1052H41.0944H41.0836H41.0727H41.0619H41.051H41.04H41.0291H41.0181H41.0071H40.9961H40.9851H40.974H40.9629H40.9518H40.9406H40.9295H40.9183H40.9071H40.8958H40.8845H40.8732H40.8619H40.8506H40.8392H40.8278H40.8164H40.8049H40.7934H40.7819H40.7704H40.7588H40.7472H40.7356H40.7239H40.7123H40.7006H40.6888H40.6771H40.6653H40.6535H40.6416H40.6298H40.6179H40.6059H40.594H40.582H40.57H40.5579H40.5459H40.5338H40.5216H40.5095H40.4973H40.4851H40.4728H40.4605H40.4482H40.4359H40.4235H40.4111H40.3987H40.3863H40.3738H40.3612H40.3487H40.3361H40.3235H40.3109H40.2982H40.2855H40.2728H40.26H40.2472H40.2344H40.2215H40.2086H40.1957H40.1828H40.1698H40.1567H40.1437H40.1306H40.1175H40.1044H40.0912H40.078H40.0647H40.0514H40.0381H40.0248H40.0114H39.998H39.9845H39.9711H39.9576H39.944H39.9304H39.9168H39.9032H39.8895H39.8758H39.862H39.8482H39.8344H39.8206H39.8067H39.7928H39.7788H39.7648H39.7508H39.7367H39.7226H39.7085H39.6943H39.6801H39.6659H39.6516H39.6373H39.6229H39.6085H39.5941H39.5797H39.5652H39.5506H39.5361H39.5215H39.5068H39.4922H39.4774H39.4627H39.4479H39.4331H39.4182H39.4033H39.3884H39.3734H39.3584H39.3433H39.3282H39.3131H39.2979H39.2827H39.2675H39.2522H39.2369H39.2215H39.2061H39.1907H39.1752H39.1597H39.1441H39.1285H39.1129H39.0972H39.0815H39.0658H39.05H39.0342H39.0183H39.0024H38.9864H38.9704H38.9544H38.9383H38.9222H38.906H38.8898H38.8736H38.8573H38.841H38.8246H38.8082H38.7918H38.7753H38.7588H38.7422H38.7256H38.7089H38.6922H38.6755H38.6587H38.6419H38.625H38.6081H38.5912H38.5742H38.5572H38.5401H38.5229H38.5058H38.4886H38.4713H38.454H38.4367H38.4193H38.4019H38.3844H38.3669H38.3493H38.3317H38.3141H38.2964H38.2786H38.2609H38.243H38.2252H38.2073H38.1893H38.1713H38.1532H38.1351H38.117H38.0988H38.0806H38.0623H38.044H38.0256H38.0072H37.9887H37.9702H37.9516H37.933H37.9144H37.8957H37.877H37.8582H37.8393H37.8204H37.8015H37.7825H37.7635H37.7444H37.7253H37.7062H37.6869H37.6677H37.6484H37.629H37.6096H37.5901H37.5706H37.5511H37.5315H37.5118H37.4921H37.4724H37.4526H37.4327H37.4128H37.3929H37.3729H37.3529H37.3328H37.3126H37.2924H37.2722H37.2519H37.2315H37.2112H37.1907H37.1702H37.1497H37.1291H37.1084H37.0877H37.067H37.0462H37.0253H37.0044H36.9835H36.9625H36.9414H36.9203H36.8992H36.8779H36.8567H36.8354H36.814H36.7926H36.7711H36.7496H36.728H36.7064H36.6847H36.663H36.6412H36.6193H36.5974H36.5755H36.5535H36.5314H36.5093H36.4872H36.465H36.4427H36.4204H36.398H36.3756H36.3531H36.3305H36.3079H36.2853H36.2626H36.2398H36.217H36.1941H36.1712H36.1482H36.1252H36.1021H36.079H36.0558H36.0325H36.0092H35.9858H35.9624H35.9389H35.9154H35.8918H35.8682H35.8445H35.8207H35.7969H35.773H35.7491H35.7251H35.701H35.6769H35.6528H35.6286H35.6043H35.5799H35.5556H35.5311H35.5066H35.482H35.4574H35.4327H35.408H35.3832H35.3583H35.3334H35.3084H35.2834H35.2583H35.2332H35.208H35.1827H35.1574H35.132H35.1065H35.081H35.0555H35.0298C34.6637 18.0994 34.5207 17.9879 34.4662 17.8904C34.4038 17.7786 34.393 17.5762 34.5178 17.2725C35.0244 16.0647 35.959 14.0403 36.501 13.0336L36.5011 13.0337L36.5045 13.0269C36.6043 12.8273 36.8116 12.5395 37.2583 12.5395H37.27H37.2819H37.2939H37.306H37.3182H37.3306H37.3431H37.3556H37.3684H37.3812H37.3941H37.4072H37.4204H37.4337H37.4471H37.4607H37.4743H37.4881H37.502H37.516H37.5301H37.5444H37.5587H37.5732H37.5878H37.6025H37.6173H37.6322H37.6472H37.6624H37.6776H37.693H37.7085H37.7241H37.7398H37.7556H37.7715H37.7876H37.8037H37.82H37.8363H37.8528H37.8694H37.886H37.9028H37.9197H37.9367H37.9539H37.9711H37.9884H38.0058H38.0234H38.041H38.0587H38.0766H38.0945H38.1126H38.1307H38.149H38.1674H38.1858H38.2044H38.223H38.2418H38.2607H38.2796H38.2987H38.3178H38.3371H38.3565H38.3759H38.3955H38.4151H38.4349H38.4547H38.4747H38.4947H38.5148H38.5351H38.5554H38.5758H38.5963H38.6169H38.6376H38.6584H38.6793H38.7003H38.7214H38.7425H38.7638H38.7851H38.8066H38.8281H38.8497H38.8714H38.8932H38.9151H38.9371H38.9591H38.9813H39.0035H39.0259H39.0483H39.0708H39.0934H39.116H39.1388H39.1616H39.1845H39.2076H39.2307H39.2538H39.2771H39.3004H39.3239H39.3474H39.371H39.3946H39.4184H39.4422H39.4662H39.4902H39.5142H39.5384H39.5626H39.5869H39.6113H39.6358H39.6604H39.685H39.7097H39.7345H39.7593H39.7843H39.8093H39.8344H39.8595H39.8848H39.9101H39.9355H39.9609H39.9864H40.012H40.0377H40.0635H40.0893H40.1152H40.1411H40.1672H40.1933H40.2195H40.2457H40.272H40.2984H40.3248H40.3514H40.378H40.4046H40.4313H40.4581H40.485H40.5119H40.5389H40.5659H40.5931H40.6203H40.6475H40.6748H40.7022H40.7296H40.7571H40.7847H40.8123H40.84H40.8678H40.8956H40.9235H40.9514H40.9794H41.0075H41.0356H41.0638H41.092H41.1203H41.1486H41.177H41.2055H41.234H41.2626H41.2913H41.32H41.3487H41.3775H41.4064H41.4353H41.4643H41.4933H41.5224H41.5515H41.5807H41.6099H41.6392H41.6685H41.6979H41.7274H41.7569H41.7864H41.816H41.8457H41.8754H41.9051H41.9349H41.9647H41.9946H42.0246H42.0545H42.0846H42.1147H42.1448H42.1749H42.2052H42.2354H42.2657H42.2961H42.3265H42.3569H42.3874H42.4179H42.4485H42.4791H42.5098H42.5405H42.5712H42.602H42.6328H42.6637H42.6946H42.7255H42.7565H42.7875H42.8186H42.8497H42.8808H42.912H42.9432H42.9744H43.0057H43.037H43.0684H43.0998H43.1312H43.1627H43.1941H43.2257H43.2572H43.2888H43.3205H43.3521H43.3838H43.4155H43.4473H43.4791H43.5109H43.5428H43.5746H43.6066H43.6385H43.6705H43.7025H43.7345H43.7666H43.7986H43.8307H43.8629H43.8951H43.9272H43.9595H43.9917H44.024H44.0563H44.0886H44.1209H44.1533H44.1857H44.2181H44.2505H44.283H44.3155H44.348H44.3805H44.4131H44.4456H44.4782H44.5108H44.5435H44.5761H44.6088H44.6415H44.6742H44.7069H44.7396H44.7724H44.8052H44.8379H44.8708H44.9036H44.9364H44.9693H45.0021H45.035H45.0679H45.1008H45.1338H45.1667H45.1996H45.2326H45.2656H45.2986H45.3316H45.3646H45.3976H45.4306H45.4637H45.4967H45.5298H45.5629H45.5959H45.629H45.6621H45.6952H45.7283H45.7614H45.7946H45.8277H45.8608H45.894H45.9271H45.9603H45.9934H46.0266H46.0597H46.0929H46.1261H46.1593H46.1924H46.2256H46.2588H46.292H46.3251H46.3583H46.3915H46.4247H46.4579H46.491H46.5242H46.5574H46.5906H46.6237H46.6569H46.6901H46.7232H46.7564H46.7896H46.8227H46.8559H46.889H46.9221H46.9553H46.9884H47.0215H47.0546H47.0877H47.1208H47.1539H47.187H47.2201H47.2531H47.2862H47.3192H47.3523H47.3853H47.4183H47.4513H47.4843H47.5173H47.5503H47.5832H47.6162H47.6491H47.682H47.7149H47.7478H47.7807H47.8135H47.8464H47.8792H47.912H47.9448H47.9776H48.0104H48.0431H48.0759H48.1086H48.1413H48.1739H48.2066H48.2392H48.2719H48.3045H48.337H48.3696H48.4021H48.4346H48.4671H48.4996H48.532H48.5645H48.5969H48.6292H48.6616H48.6939H48.7262H48.7585H48.7908H48.823H48.8552H48.8874H48.9195H48.9517H48.9837H49.0158H49.0479H49.0799H49.1119H49.1438H49.1757H49.2076H49.2395H49.2713H49.3031H49.3349H49.3666H49.3983H49.43H49.4617H49.4933H49.5249H49.5564H49.5879H49.6194H49.6508H49.6822H49.7136H49.7449H49.7762H49.8075H49.8387H49.8699H49.9011H49.9322H49.9632H49.9943H50.0253H50.0562H50.0872H50.118H50.1489H50.1797H50.2104H50.2411H50.2718H50.3024H50.333H50.3636H50.3941H50.4245H50.455H50.4853H50.5157H50.5459H50.5762H50.6064H50.6365H50.6666H50.6967H50.7267H50.7566H50.7865H50.8164H50.8462H50.876H50.9057H50.9354H50.965H50.9946H51.0241H51.0535H51.083H51.1123H51.1416H51.1709H51.2001H51.2215C51.2042 12.8125 51.1909 13.082 51.1777 13.3495C51.1435 14.0452 51.1099 14.7271 51.0074 15.419C50.5833 18.1946 49.5433 20.7354 47.8496 22.968L47.8495 22.9681C45.0715 26.6336 41.4543 28.9016 36.8736 29.5176C33.0984 30.0184 29.6086 29.2866 26.54 26.9854C23.702 24.8376 22.0948 22.0062 21.6727 18.4762C21.1731 14.2875 22.4002 10.5201 24.9459 7.20289L24.9463 7.20239C27.6855 3.61439 31.3064 1.34258 35.7392 0.53306C39.3651 -0.12265 42.8136 0.304087 45.9144 2.40962L45.9144 2.40964L45.9171 2.41141C47.9448 3.75043 49.4004 5.58706 50.3604 7.81428L50.3694 7.83511L50.382 7.85399C50.4293 7.92498 50.4436 7.9689 50.4469 7.99011C50.4479 7.99613 50.4478 7.99959 50.4477 8.00103C50.4477 8.00113 50.4476 8.00125 50.4475 8.00138C50.4447 8.00581 50.4289 8.02644 50.375 8.05465C50.3219 8.08249 50.2448 8.11082 50.1384 8.13741Z" stroke="white" stroke-width="0.5"/>
<path d="M49.6251 18.9755L49.6249 18.9747C48.9333 14.633 50.121 10.7912 52.7435 7.35883L52.7438 7.35837C55.5566 3.65939 58.9393 1.73525 63.5351 0.924225C67.4782 0.228383 71.1603 0.618424 74.4932 2.8785C77.5284 4.95327 79.4006 7.74663 79.8987 11.4228C80.5532 16.6229 79.0552 20.847 75.4728 24.468L75.4724 24.4684C72.9299 27.0494 69.8096 28.6689 66.2197 29.4027C65.5376 29.5289 64.8669 29.5877 64.1933 29.6467C63.8398 29.6777 63.4855 29.7087 63.1283 29.7497C59.6242 29.6696 56.4442 28.6676 53.7634 26.37C51.5003 24.4136 50.0848 21.9252 49.6251 18.9755ZM72.6942 14.2197L72.6952 14.2029L72.6939 14.186C72.6834 14.0499 72.6757 13.9184 72.6683 13.7904C72.6492 13.4647 72.6316 13.1624 72.5729 12.8682C71.8418 8.85319 68.1427 6.58115 64.2961 7.47159C62.4397 7.89088 60.9003 8.69259 59.7139 9.86886C58.5274 11.0453 57.7057 12.5848 57.2666 14.461L57.2664 14.4618C56.5369 17.6232 58.0766 20.8339 61.0053 22.1356L61.0068 22.1362C63.2295 23.1061 65.458 22.9829 67.5929 21.8953L67.5946 21.8944C70.757 20.2532 72.4933 17.6749 72.6942 14.2197Z" stroke="white" stroke-width="0.5"/>
</mask>
<g mask="url(#mask0_3612_901)">
<rect x="-5.50049" y="-8.48645" width="91.7241" height="46.1492" fill="url(#paint0_linear_3612_901)"/>
</g>
<defs>
<linearGradient id="paint0_linear_3612_901" x1="-5.50049" y1="14.5882" x2="86.2236" y2="14.5882" gradientUnits="userSpaceOnUse">
<stop stop-color="#14B8A6"/>
<stop offset="1" stop-color="#21AFFF"/>
</linearGradient>
</defs>
</svg>
