<svg width="36" height="36" viewBox="0 0 36 36" fill="none" xmlns="http://www.w3.org/2000/svg">
<mask id="mask0_3612_900" style="mask-type:alpha" maskUnits="userSpaceOnUse" x="0" y="0" width="36" height="36">
<path d="M13.4207 0.596766L13.4207 0.596754C14.629 0.381181 16.0053 0.257053 17.4484 0.250292C18.8915 0.243531 20.3955 0.354133 21.8436 0.597183C24.0721 0.971678 25.8941 2.64392 25.8941 4.81504V12.9931C25.8941 15.2601 24.1086 17.1074 21.885 17.1074H13.3768C10.3476 17.1074 7.80549 19.7223 7.80549 22.6927V26.3665H5.12677C3.95708 26.3665 3.04134 25.9414 2.34149 25.2189C1.63594 24.4906 1.13906 23.4481 0.842854 22.2043L0.8428 22.2041C0.0354045 18.8276 0.069579 16.826 0.842803 13.5918L0.842885 13.5914C1.49363 10.8522 3.55896 9.42935 5.921 9.42935H9.11777H17.6359H17.8859V9.17935V8.08827V7.83827H17.6359H9.36777V4.81504C9.36778 3.58883 9.53227 2.71077 10.0864 2.05568C10.6432 1.39752 11.6358 0.914698 13.4207 0.596766ZM14.6891 4.27451C14.6891 3.23728 13.8647 2.38289 12.8407 2.38289C11.8132 2.38289 10.9923 3.2376 10.9923 4.27451C10.9923 5.3099 11.8149 6.15612 12.8407 6.15612C13.8631 6.15612 14.6891 5.31023 14.6891 4.27451Z" stroke="white" stroke-width="0.5"/>
<path d="M21.8149 35.1052L21.8147 35.1053C18.6384 36.0345 16.1019 35.8924 13.4478 35.1055C11.218 34.4443 9.36768 33.1296 9.36768 30.9809V22.8028C9.36768 20.5806 11.1913 18.6885 13.3767 18.6885H21.8849C24.8619 18.6885 27.4563 16.0842 27.4563 12.9931V9.42938H30.403C31.5693 9.42938 32.4127 9.86482 33.0443 10.589C33.6848 11.3235 34.1175 12.3676 34.4194 13.5934L34.4194 13.5936C35.2633 17.0142 35.295 19.551 34.4247 22.1838L34.4247 22.1841C33.9945 23.4897 33.5608 24.5361 32.9476 25.2575C32.3488 25.9619 31.5696 26.3666 30.403 26.3666H26.144H17.6358H17.3858V26.6166V27.7077V27.9577H17.6358H25.894V30.9809C25.894 32.1382 25.4043 33.0075 24.6532 33.6702C23.895 34.3393 22.8693 34.7974 21.8149 35.1052ZM24.2694 31.5214C24.2694 30.486 23.4469 29.6398 22.421 29.6398C21.3987 29.6398 20.5726 30.4857 20.5726 31.5214C20.5726 32.5587 21.397 33.413 22.421 33.413C23.4485 33.413 24.2694 32.5583 24.2694 31.5214Z" stroke="white" stroke-width="0.5"/>
</mask>
<g mask="url(#mask0_3612_900)">
<rect x="-14.4902" y="-1.72388" width="65.0388" height="46.3445" fill="url(#paint0_linear_3612_900)"/>
</g>
<defs>
<linearGradient id="paint0_linear_3612_900" x1="-14.4902" y1="21.4484" x2="50.5486" y2="21.4484" gradientUnits="userSpaceOnUse">
<stop stop-color="#14B8A6"/>
<stop offset="1" stop-color="#21AFFF"/>
</linearGradient>
</defs>
</svg>
