<svg width="47" height="38" viewBox="0 0 47 38" fill="none" xmlns="http://www.w3.org/2000/svg">
<mask id="mask0_3612_796" style="mask-type:alpha" maskUnits="userSpaceOnUse" x="-1" y="0" width="48" height="38">
<path d="M6.37628 12.6223C7.12932 10.4755 8.29862 8.43465 9.78794 6.74747L9.78796 6.74745C16.0663 -0.36578 27.0472 -1.19397 34.1476 4.8703L29.2175 9.80057C24.9808 6.66594 19.0152 7.25549 15.3636 11.0653C15.3024 11.0559 15.2317 11.0456 15.1526 11.0346C14.8513 10.993 14.4254 10.9431 13.9235 10.9097C12.9256 10.8433 11.6009 10.84 10.3507 11.1098C8.90796 11.4212 7.62868 11.9732 6.71415 12.4436C6.59545 12.5047 6.48268 12.5644 6.37628 12.6223Z" stroke="white"/>
<path d="M39.8458 13.7251L39.8945 13.9043L40.0482 14.0083C43.5158 16.3536 45.5797 20.2781 45.5472 24.4643C45.4934 31.3678 39.8539 36.8695 32.9447 36.8157V36.8157H32.9408H23.4269V29.8103H32.9408C35.9709 29.8103 38.4409 27.4113 38.4409 24.3664C38.4409 21.4975 36.244 19.1416 33.4408 18.8889V18.3739C33.4967 15.3439 32.2392 12.4473 30.0093 10.421L34.9091 5.52121C37.2818 7.74269 38.9924 10.5824 39.8458 13.7251Z" stroke="white"/>
<path d="M12.9269 36.8158L12.9248 36.8158C10.3984 36.8267 7.92891 36.0316 5.8449 34.5994L10.9928 29.4516C11.6098 29.6879 12.2593 29.81 12.9268 29.8102H12.9269H22.4268V36.8158L12.9269 36.8158Z" stroke="white"/>
<path d="M0.499373 24.4268C0.458209 17.5206 6.0231 11.8884 12.9293 11.8469C16.689 11.8336 20.2462 13.5139 22.6236 16.4067L17.615 21.4151C17.0421 20.4872 16.203 19.7455 15.1994 19.2921C12.4315 18.0416 9.17344 19.2717 7.92292 22.0398C6.77076 24.5899 7.72395 27.5555 10.0455 28.9847L5.03817 33.9919C2.18949 31.6381 0.521504 28.1371 0.499373 24.4268Z" stroke="white"/>
</mask>
<g mask="url(#mask0_3612_796)">
<rect x="-9.59265" y="-0.579529" width="65.0388" height="46.3445" fill="url(#paint0_linear_3612_796)"/>
</g>
<defs>
<linearGradient id="paint0_linear_3612_796" x1="-9.59265" y1="22.5927" x2="55.4462" y2="22.5927" gradientUnits="userSpaceOnUse">
<stop stop-color="#14B8A6"/>
<stop offset="1" stop-color="#21AFFF"/>
</linearGradient>
</defs>
</svg>
