<svg preserveAspectRatio="none" width="100%" height="100%" overflow="visible" style="display: block;" viewBox="0 0 24 24" fill="none" xmlns="http://www.w3.org/2000/svg">
<g id="Group 1321321278">
<circle id="Ellipse 42" cx="12" cy="12" r="12" fill="var(--fill-0, black)"/>
<g id="Group">
<g id="Vector">
<path d="M4.39434 10.8911C4.37144 10.8911 4.34854 10.8682 4.37144 10.8453L4.53175 10.6163C4.55465 10.5934 4.57755 10.5705 4.62335 10.5705H7.5089C7.5318 10.5705 7.5547 10.5934 7.5318 10.6163L7.3944 10.8224C7.37149 10.8453 7.34859 10.8682 7.30279 10.8682L4.39434 10.8911ZM3.18057 11.6239C3.15767 11.6239 3.13477 11.601 3.15767 11.5781L3.31798 11.3491C3.34088 11.3262 3.36378 11.3033 3.40959 11.3033H7.09668C7.11958 11.3033 7.14248 11.3262 7.14248 11.3491L7.07378 11.5781C7.07378 11.601 7.02798 11.6239 7.00508 11.6239H3.18057ZM5.12718 12.3797C5.10428 12.3797 5.08137 12.3568 5.10428 12.3338L5.21878 12.1277C5.24168 12.1048 5.26458 12.0819 5.31039 12.0819H6.91347C6.93637 12.0819 6.95927 12.1048 6.95927 12.1277L6.93637 12.3109C6.93637 12.3338 6.91347 12.3568 6.89057 12.3568L5.12718 12.3797ZM13.509 10.7308L12.1578 11.0743C12.0433 11.0972 12.0204 11.1201 11.9288 10.9827C11.8143 10.8453 11.7227 10.7537 11.5395 10.685C11.0357 10.433 10.5319 10.5018 10.0738 10.7995C9.52421 11.143 9.24939 11.6697 9.24939 12.3338C9.24939 12.9751 9.70742 13.5018 10.3486 13.5934C10.8983 13.6621 11.3563 13.4789 11.7227 13.0667C11.7914 12.9751 11.8601 12.8835 11.9517 12.769H10.3945C10.2341 12.769 10.1883 12.6545 10.2341 12.5171C10.3486 12.2651 10.5319 11.8529 10.6464 11.6468C10.6693 11.601 10.738 11.5094 10.8525 11.5094H13.7838C13.7609 11.7384 13.7609 11.9445 13.738 12.1735C13.6464 12.7461 13.4403 13.2957 13.0739 13.7537C12.5014 14.5095 11.7456 14.9904 10.7838 15.1278C9.98223 15.2423 9.24939 15.082 8.60816 14.6011C8.01273 14.143 7.66921 13.5476 7.57761 12.8148C7.4631 11.9445 7.73791 11.143 8.26464 10.456C8.83717 9.70021 9.59291 9.21929 10.5319 9.05898C11.2876 8.92157 12.0204 9.01318 12.6617 9.4483C13.0968 9.72311 13.3945 10.1124 13.6006 10.5934C13.6235 10.685 13.6006 10.7079 13.509 10.7308Z" fill="var(--fill-0, white)"/>
<path d="M4.39434 10.8911C4.37144 10.8911 4.34854 10.8682 4.37144 10.8453L4.53175 10.6163C4.55465 10.5934 4.57755 10.5705 4.62335 10.5705H7.5089C7.5318 10.5705 7.5547 10.5934 7.5318 10.6163L7.3944 10.8224C7.37149 10.8453 7.34859 10.8682 7.30279 10.8682L4.39434 10.8911ZM3.18057 11.6239C3.15767 11.6239 3.13477 11.601 3.15767 11.5781L3.31798 11.3491C3.34088 11.3262 3.36378 11.3033 3.40959 11.3033H7.09668C7.11958 11.3033 7.14248 11.3262 7.14248 11.3491L7.07378 11.5781C7.07378 11.601 7.02798 11.6239 7.00508 11.6239H3.18057ZM5.12718 12.3797C5.10428 12.3797 5.08137 12.3568 5.10428 12.3338L5.21878 12.1277C5.24168 12.1048 5.26458 12.0819 5.31039 12.0819H6.91347C6.93637 12.0819 6.95927 12.1048 6.95927 12.1277L6.93637 12.3109C6.93637 12.3338 6.91347 12.3568 6.89057 12.3568L5.12718 12.3797ZM13.509 10.7308L12.1578 11.0743C12.0433 11.0972 12.0204 11.1201 11.9288 10.9827C11.8143 10.8453 11.7227 10.7537 11.5395 10.685C11.0357 10.433 10.5319 10.5018 10.0738 10.7995C9.52421 11.143 9.24939 11.6697 9.24939 12.3338C9.24939 12.9751 9.70742 13.5018 10.3486 13.5934C10.8983 13.6621 11.3563 13.4789 11.7227 13.0667C11.7914 12.9751 11.8601 12.8835 11.9517 12.769H10.3945C10.2341 12.769 10.1883 12.6545 10.2341 12.5171C10.3486 12.2651 10.5319 11.8529 10.6464 11.6468C10.6693 11.601 10.738 11.5094 10.8525 11.5094H13.7838C13.7609 11.7384 13.7609 11.9445 13.738 12.1735C13.6464 12.7461 13.4403 13.2957 13.0739 13.7537C12.5014 14.5095 11.7456 14.9904 10.7838 15.1278C9.98223 15.2423 9.24939 15.082 8.60816 14.6011C8.01273 14.143 7.66921 13.5476 7.57761 12.8148C7.4631 11.9445 7.73791 11.143 8.26464 10.456C8.83717 9.70021 9.59291 9.21929 10.5319 9.05898C11.2876 8.92157 12.0204 9.01318 12.6617 9.4483C13.0968 9.72311 13.3945 10.1124 13.6006 10.5934C13.6235 10.685 13.6006 10.7079 13.509 10.7308Z" fill="var(--fill-1, #D9D9D9)"/>
</g>
<g id="Vector_2">
<path d="M16.1649 15.1968C15.4321 15.1739 14.7679 14.9678 14.1954 14.4868C13.7145 14.0746 13.4168 13.5479 13.3252 12.9296C13.1878 12.0135 13.4397 11.212 13.9893 10.502C14.5847 9.72339 15.2947 9.33407 16.2565 9.15086C17.081 9.01345 17.8596 9.08216 18.5466 9.56308C19.1879 9.9982 19.5772 10.5936 19.6917 11.3723C19.8291 12.4715 19.5085 13.3418 18.7757 14.0975C18.2489 14.6471 17.5848 14.9678 16.852 15.1281C16.6 15.1739 16.371 15.1739 16.1649 15.1968ZM18.0886 11.9448C18.0886 11.8303 18.0886 11.7616 18.0657 11.67C17.9283 10.8685 17.1955 10.4104 16.4168 10.5936C15.6611 10.7539 15.1802 11.2349 14.997 11.9906C14.8596 12.6089 15.1573 13.2502 15.7298 13.525C16.1649 13.7082 16.6229 13.6853 17.0352 13.4792C17.6993 13.1586 18.0428 12.6318 18.0886 11.9448Z" fill="var(--fill-0, white)"/>
<path d="M16.1649 15.1968C15.4321 15.1739 14.7679 14.9678 14.1954 14.4868C13.7145 14.0746 13.4168 13.5479 13.3252 12.9296C13.1878 12.0135 13.4397 11.212 13.9893 10.502C14.5847 9.72339 15.2947 9.33407 16.2565 9.15086C17.081 9.01345 17.8596 9.08216 18.5466 9.56308C19.1879 9.9982 19.5772 10.5936 19.6917 11.3723C19.8291 12.4715 19.5085 13.3418 18.7757 14.0975C18.2489 14.6471 17.5848 14.9678 16.852 15.1281C16.6 15.1739 16.371 15.1739 16.1649 15.1968ZM18.0886 11.9448C18.0886 11.8303 18.0886 11.7616 18.0657 11.67C17.9283 10.8685 17.1955 10.4104 16.4168 10.5936C15.6611 10.7539 15.1802 11.2349 14.997 11.9906C14.8596 12.6089 15.1573 13.2502 15.7298 13.525C16.1649 13.7082 16.6229 13.6853 17.0352 13.4792C17.6993 13.1586 18.0428 12.6318 18.0886 11.9448Z" fill="var(--fill-1, #D9D9D9)"/>
</g>
</g>
</g>
</svg>
