<svg preserveAspectRatio="none" width="100%" height="100%" overflow="visible" style="display: block;" viewBox="0 0 25.8462 24" fill="none" xmlns="http://www.w3.org/2000/svg">
<g id="Layer_1" clip-path="url(#clip0_215_10156)">
<path id="Vector" d="M10.5696 24.0002C10.2485 24.0002 9.93389 23.9161 9.65135 23.7544L6.73604 22.0143C6.29938 21.7684 6.51129 21.6843 6.65898 21.6326C7.2369 21.4256 7.35891 21.3803 7.97537 21.0245C8.03958 20.9857 8.12306 20.9986 8.19369 21.0374L10.4348 22.3765C10.5182 22.4218 10.6274 22.4218 10.7045 22.3765L19.4376 17.2983C19.5211 17.2531 19.5724 17.156 19.5724 17.059V6.90913C19.5724 6.80562 19.5211 6.71506 19.4376 6.66978L10.7109 1.59808C10.6274 1.55279 10.5247 1.55279 10.4412 1.59808L1.7145 6.67624C1.63102 6.72153 1.57323 6.81856 1.57323 6.9156V17.0655C1.57323 17.1625 1.6246 17.2531 1.70808 17.2983L4.09684 18.6892C5.39396 19.3426 6.19022 18.5727 6.19022 17.7965V7.77598C6.19022 7.63366 6.29938 7.52368 6.44065 7.52368H7.54513C7.67998 7.52368 7.79557 7.63366 7.79557 7.77598V17.7965C7.79557 19.5431 6.85162 20.5393 5.20774 20.5393C4.70045 20.5393 4.30232 20.5393 3.19784 19.9895L0.9054 18.6568C0.340316 18.3269 -0.0128611 17.7124 -0.0128611 17.0525V6.90266C-0.0128611 6.24282 0.333895 5.62827 0.9054 5.29835L9.65777 0.239586C10.21 -0.077395 10.9421 -0.077395 11.4943 0.239586L20.221 5.31775C20.7861 5.64767 21.1392 6.26223 21.1392 6.92207V17.0719C21.1392 17.7318 20.7861 18.3463 20.221 18.6762L11.4943 23.7544C11.2118 23.9161 10.8971 24.0002 10.576 24.0002" fill="var(--fill-0, white)"/>
<path id="Vector_2" d="M13.2667 17.0063C9.44596 17.0063 8.64329 15.2403 8.64329 13.7589C8.64329 13.6166 8.75887 13.5066 8.89372 13.5066H10.0239C10.1459 13.5066 10.2551 13.5972 10.2743 13.7201C10.4477 14.878 10.955 15.4602 13.2603 15.4602C15.1032 15.4602 15.8802 15.0397 15.8802 14.0565C15.8802 13.4936 15.6555 13.0732 12.7979 12.7885C10.4092 12.5492 8.93225 12.0187 8.93225 10.091C8.93225 8.31845 10.4156 7.25753 12.9071 7.25753C15.7004 7.25753 17.0874 8.23435 17.2608 10.3368C17.2672 10.4079 17.2415 10.4791 17.1902 10.5308C17.1452 10.5826 17.0746 10.6149 17.004 10.6149H15.8674C15.7518 10.6149 15.649 10.5308 15.6234 10.4144C15.3472 9.19823 14.6922 8.81009 12.8943 8.81009C10.8844 8.81009 10.6532 9.51521 10.6532 10.0457C10.6532 10.6861 10.9293 10.8737 13.6391 11.236C16.3233 11.5918 17.5947 12.1028 17.5947 13.9982C17.5947 15.8936 16.0086 17.0128 13.241 17.0128M23.8877 6.25483H24.1831C24.4207 6.25483 24.472 6.08664 24.472 5.98314C24.472 5.72438 24.2922 5.72438 24.1959 5.72438H23.8941V6.25483H23.8877ZM23.5345 5.42033H24.1831C24.4078 5.42033 24.8445 5.42033 24.8445 5.92492C24.8445 6.27424 24.6197 6.3454 24.4913 6.39068C24.7546 6.41009 24.7674 6.57828 24.806 6.82411C24.8252 6.97289 24.8509 7.23812 24.9023 7.32869H24.5042C24.4913 7.23812 24.4335 6.75942 24.4335 6.72707C24.4078 6.6171 24.3693 6.56535 24.2345 6.56535H23.907V7.32869H23.5409V5.4268L23.5345 5.42033ZM22.7511 6.37128C22.7511 7.1605 23.3804 7.80093 24.1574 7.80093C24.9344 7.80093 25.5701 7.14756 25.5701 6.37128C25.5701 5.595 24.928 4.95456 24.151 4.95456C23.374 4.95456 22.7447 5.57559 22.7447 6.37128M25.8462 6.37128C25.8462 7.30281 25.0885 8.06616 24.1638 8.06616C23.2391 8.06616 22.4814 7.31575 22.4814 6.37128C22.4814 5.4268 23.2648 4.6764 24.1638 4.6764C25.0628 4.6764 25.8462 5.41386 25.8462 6.37128Z" fill="var(--fill-0, white)"/>
</g>
<defs>
<clipPath id="clip0_215_10156">
<rect width="25.8462" height="24" fill="white"/>
</clipPath>
</defs>
</svg>
