<svg viewBox="0 0 24 24" fill="none" xmlns="http://www.w3.org/2000/svg">
  <circle cx="12" cy="12" r="12" fill="black"/>
  <g transform="translate(4.04 4.012)">
    <path d="M7.86543 0.000130672C7.20896 0.00315811 6.58205 0.0587261 6.03043 0.155604C4.40543 0.440538 4.1104 1.03693 4.1104 2.13677V3.58934H7.95046V4.07353H4.1104H2.66925C1.55322 4.07353 0.575996 4.7393 0.270331 6.00583C-0.0822486 7.45757 -0.0978875 8.36348 0.270331 9.87933C0.543297 11.0077 1.19518 11.8116 2.31121 11.8116H3.63151V10.0703C3.63151 8.81236 4.72816 7.70271 6.03043 7.70271H9.86602C10.9337 7.70271 11.7861 6.83019 11.7861 5.76596V2.13677C11.7861 1.10389 10.9081 0.327988 9.86602 0.155604C9.20636 0.0466162 8.52189 -0.00289681 7.86543 0.000130672ZM5.78875 1.1684C6.1854 1.1684 6.50932 1.49515 6.50932 1.8969C6.50932 2.29724 6.1854 2.62096 5.78875 2.62096C5.39067 2.62096 5.06818 2.29724 5.06818 1.8969C5.06818 1.49515 5.39067 1.1684 5.78875 1.1684Z" fill="#D9D9D9"/>
    <path d="M12.2645 4.07382V5.76625C12.2645 7.07837 11.1437 8.18275 9.8656 8.18275H6.03001C4.97938 8.18275 4.10998 9.07521 4.10998 10.1195V13.7487C4.10998 14.7816 5.01492 15.3891 6.03001 15.6854C7.24556 16.0402 8.41121 16.1043 9.8656 15.6854C10.8324 15.4076 11.7856 14.8485 11.7856 13.7487V12.2961H7.95005V11.8119H11.7856H13.7057C14.8217 11.8119 15.2376 11.0393 15.6257 9.87962C16.0266 8.68575 16.0096 7.53765 15.6257 6.00612C15.3499 4.90343 14.8231 4.07382 13.7057 4.07382H12.2645ZM10.1073 13.2645C10.5054 13.2645 10.8279 13.5882 10.8279 13.9886C10.8279 14.3903 10.5054 14.7171 10.1073 14.7171C9.71063 14.7171 9.38671 14.3903 9.38671 13.9886C9.38671 13.5882 9.71063 13.2645 10.1073 13.2645Z" fill="#D9D9D9"/>
  </g>
</svg>
