<svg style="display: block;" viewBox="0 0 243.071 77.1279" fill="none" xmlns="http://www.w3.org/2000/svg">
<path id="Vector" d="M54.9078 1.99094V31.8531C54.9078 32.1742 54.9078 32.4953 54.9078 32.8164V33.1375L54.5867 33.7797H63.2563C72.5682 33.7797 79.9534 26.3944 79.9534 17.0826C79.9534 7.77071 72.5682 0.385449 63.2563 0.385449H59.0821H54.5867L54.9078 1.34874C54.9078 1.34874 54.9078 1.66984 54.9078 1.99094ZM63.2563 3.91753C70.6416 3.91753 76.4214 9.6973 76.4214 17.0826C76.4214 24.4678 70.6416 30.2476 63.2563 30.2476H58.4399V3.91753H63.2563ZM196.833 2.31204V31.8531C196.833 32.4953 196.512 33.1375 196.191 33.7797H215.457V29.6054C215.136 29.9265 214.172 30.2476 213.53 30.2476H200.365V18.688H211.604C212.246 18.688 212.888 19.0091 213.53 19.3302V14.5138C213.209 14.8349 212.246 15.156 211.604 15.156H200.365V3.91753H213.53C214.172 3.91753 214.815 4.23863 215.457 4.55972V0.385449H196.191C196.512 1.02765 196.833 1.66984 196.833 2.31204ZM148.347 25.7522C148.99 26.0733 148.99 26.3944 149.311 27.0366C153.485 37.3117 167.934 36.6695 169.861 25.4311C170.503 20.6146 167.292 15.7982 162.797 14.8349C160.228 14.1927 157.659 13.8716 156.054 12.2661C153.164 9.69729 153.806 4.88082 157.659 3.91753C160.87 2.95423 163.76 4.23863 165.044 6.48631C165.366 7.12851 165.366 7.77071 165.366 8.0918C166.008 7.77071 168.898 6.48631 169.54 6.16522C168.577 5.52302 168.255 4.88082 167.934 4.23863C164.402 -0.898943 157.017 -1.54114 152.522 3.27533C148.347 8.4129 151.558 14.8349 157.017 16.4404C159.265 17.0826 162.476 17.7247 164.402 19.3302C167.292 21.5779 167.292 26.7155 164.081 28.9632C160.549 32.1742 154.127 30.8898 152.843 25.4311C152.843 24.7889 152.843 24.4678 152.843 23.8256C151.879 24.4678 149.632 25.11 148.347 25.7522ZM128.439 2.31204V31.8531C128.439 32.4953 128.118 33.1375 127.797 33.7797H147.063V29.6054C146.742 29.9265 145.779 30.2476 145.136 30.2476H131.971V18.688H143.21C143.852 18.688 144.494 19.0091 145.136 19.3302V14.5138C144.815 14.8349 143.852 15.156 143.21 15.156H131.971V3.91753H145.136C145.779 3.91753 146.421 4.23863 147.063 4.55972V0.385449H127.797C128.118 1.02765 128.439 1.66984 128.439 2.31204ZM83.1644 32.1742C83.1644 32.4953 83.1644 32.4953 83.1644 32.8164V33.1375C83.1644 33.4586 82.8433 33.7797 82.5222 34.1008H87.3387C87.0176 33.7797 86.6965 33.1375 86.6965 32.4953C86.6965 32.4953 86.6965 32.4953 86.6965 32.1742V3.91753H90.2286C94.4029 3.91753 97.6138 7.12851 97.9349 11.3028C97.9349 15.4771 94.4029 19.0091 90.2286 19.0091H86.6965L89.5864 22.5412L96.3295 31.532L96.6506 31.8531C96.9717 32.4953 96.9717 33.1375 96.9717 33.4586H102.43L93.7607 21.899C98.5771 20.2935 102.109 15.7982 101.788 10.3395C101.467 4.55973 96.3295 0.064351 90.5497 0.064351H87.3387H83.4855L83.8066 1.02765C83.8066 1.34874 83.8066 1.34874 83.8066 1.66984C83.8066 1.66984 83.8066 1.66984 83.8066 1.99094L83.1644 32.1742C83.4855 31.8531 83.4855 31.8531 83.1644 32.1742ZM4.81647 31.532L7.70636 22.5412H17.6604L20.5503 31.532C20.8714 32.4953 20.5503 33.1375 20.2292 33.7797H25.6879C25.3668 33.4586 24.7246 32.8164 24.4035 32.1742V31.8531V31.532L15.0916 2.31204L14.4494 0.385449H9.95404C10.2751 1.02765 10.5962 1.34874 10.2751 2.31204C10.2751 2.95423 1.28439 31.532 1.28439 31.532V31.8531V32.1742C0.963295 32.8164 0.642196 33.4586 0 33.7797H5.45867C5.13757 33.1375 4.49537 32.4953 4.81647 31.532ZM8.66965 18.688L9.63295 15.156L12.5228 5.84412L16.376 18.688H8.66965ZM172.109 25.7522C172.751 26.0733 172.751 26.3944 173.072 27.0366C177.246 37.3117 191.696 36.6695 193.622 25.4311C194.264 20.6146 191.053 15.7982 186.558 14.8349C183.989 14.1927 181.42 13.8716 179.815 12.2661C176.925 9.69729 177.567 4.88082 181.42 3.91753C184.631 2.95423 187.521 4.23863 188.806 6.48631C189.127 7.12851 189.127 7.77071 189.127 8.0918C189.769 7.77071 192.659 6.48631 193.301 6.16522C192.338 5.52302 192.017 4.88082 191.696 4.23863C188.164 -0.898943 180.778 -1.54114 176.283 3.27533C172.109 8.4129 175.32 14.8349 180.778 16.4404C183.026 17.4036 186.237 18.0458 188.164 19.3302C191.053 21.5779 191.053 26.7155 187.842 28.9632C184.31 32.1742 177.888 30.8898 176.604 25.4311C176.604 24.7889 176.604 24.4678 176.604 23.8256C175.641 24.4678 173.072 25.11 172.109 25.7522ZM105.641 2.31204V31.8531C105.641 32.4953 105.32 33.1375 104.999 33.7797H124.265V29.6054C123.944 29.9265 122.981 30.2476 122.338 30.2476H109.173V18.688H120.412C121.054 18.688 121.696 19.0091 122.338 19.3302V14.5138C122.017 14.8349 121.054 15.156 120.412 15.156H109.173V3.91753H122.338C122.981 3.91753 123.623 4.23863 124.265 4.55972V0.385449H104.999C105.32 1.02765 105.641 1.66984 105.641 2.31204ZM184.631 43.4126H179.815C180.136 43.7337 180.457 44.697 180.457 45.0181V74.8802C180.457 75.5224 180.136 76.1646 179.815 76.4857H184.631C184.31 76.1646 183.989 75.2013 183.989 74.8802V45.0181C183.989 44.3759 184.31 43.7337 184.631 43.4126ZM187.842 47.5869C188.164 47.2658 188.806 46.9447 189.448 46.9447C189.448 46.9447 189.448 46.9447 189.769 46.9447C189.769 46.9447 189.769 46.9447 190.09 46.9447H195.87V74.8802C195.87 75.5224 195.549 76.1646 195.228 76.4857H200.044C199.723 76.1646 199.402 75.2013 199.402 74.8802V74.5591V46.6236H205.182C205.182 46.6236 205.182 46.6236 205.503 46.6236C205.503 46.6236 205.503 46.6236 205.824 46.6236C206.466 46.6236 207.108 46.9447 207.429 47.2658V43.0915H188.164L187.842 47.5869ZM172.43 45.3392C172.43 45.3392 172.43 45.6603 172.109 46.3025L168.898 56.8987L168.255 58.5042L167.292 62.0363L164.402 71.3481L161.512 62.0363L160.549 58.5042L159.907 56.8987L158.944 53.3666L156.054 43.4126H152.201C152.522 44.0548 152.843 44.3759 152.522 45.3392C152.522 45.3392 152.522 45.6603 152.201 46.3025L148.99 56.8987L148.347 58.5042L147.705 61.7152L144.815 71.027L141.925 61.7152L140.962 58.1831L140.32 56.5776L139.357 53.0455L137.43 46.9447L136.788 45.3392C136.467 44.3759 136.788 43.7337 137.109 43.0915H131.65C131.971 43.4126 132.614 44.0548 132.935 44.697C132.935 45.0181 132.935 45.0181 133.256 45.3392L141.925 73.9169C141.925 73.9169 141.925 73.9169 141.925 74.238C142.246 75.2013 141.925 76.1646 141.604 76.4857H147.705C147.384 76.1646 147.063 75.2013 147.384 73.9169L154.769 50.1557L162.155 73.9169C162.155 73.9169 162.155 73.9169 162.155 74.238C162.476 75.2013 162.155 76.1646 161.833 76.4857H167.613C167.292 76.1646 166.971 75.2013 167.292 74.238C167.292 74.238 167.292 74.238 167.292 73.9169L175.641 46.6236C175.641 46.3025 175.962 45.9814 175.962 45.9814C175.962 45.6603 175.962 45.6603 175.962 45.6603V45.3392V45.0181C176.283 44.3759 176.604 43.7337 177.246 43.4126H172.109C172.43 44.0548 172.751 44.3759 172.43 45.3392ZM242.429 31.8531V2.31204C242.429 2.31204 242.429 2.31204 242.429 1.99094C242.429 1.34874 242.75 1.02765 243.071 0.385449H238.255C238.576 0.706547 238.897 1.34874 238.897 1.99094V12.9083C235.365 7.77071 230.227 3.27533 223.163 0.385449H218.989C219.31 0.706547 219.631 1.66984 219.631 2.31204V31.8531C219.631 32.4953 219.31 33.1375 218.989 33.7797H223.805C223.484 33.4586 223.163 32.4953 223.163 31.8531V4.55972C231.191 8.4129 236.649 14.8349 238.576 20.9357V31.8531C238.576 32.4953 238.255 33.1375 237.934 33.7797H242.75C242.75 33.1375 242.429 32.4953 242.429 31.8531ZM39.174 75.5224C39.174 75.2013 39.174 74.8802 39.174 74.5591V45.0181C39.174 45.0181 39.174 45.0181 39.174 44.697C39.174 44.0548 39.4951 43.4126 39.8162 43.0915H34.9997C35.3208 43.4126 35.6419 44.0548 35.6419 44.697C35.6419 44.697 35.6419 44.697 35.6419 45.0181V61.7152H19.9081V57.862V45.0181C19.9081 45.0181 19.9081 45.0181 19.9081 44.697C19.9081 44.0548 20.2292 43.4126 20.5503 43.0915H15.7338C16.0549 43.7337 16.376 44.3759 16.376 45.0181C16.376 45.0181 16.376 45.0181 16.376 45.3392V74.8802C16.376 75.2013 16.376 75.5224 16.376 75.8435C16.376 76.1646 16.0549 76.4857 15.7338 76.8068H20.5503C20.2292 76.4857 19.9081 75.8435 19.9081 75.2013V74.8802V65.5684H35.3208V74.8802V75.2013C35.3208 75.8435 34.9997 76.4857 34.6786 76.8068H39.4951C39.4951 76.4857 39.4951 76.1646 39.174 75.5224ZM209.677 43.4126L210.961 47.5869V47.908C211.283 47.5869 211.925 47.2658 212.567 46.9447C212.567 46.9447 212.567 46.9447 212.888 46.9447H213.209C213.53 46.9447 214.172 46.9447 215.136 46.9447H221.879L209.035 76.8068H227.338L226.053 72.6325V72.3114C225.732 72.6325 225.09 72.9536 224.448 73.2747H224.127C223.805 73.2747 222.842 73.2747 221.879 73.2747H214.494L227.338 43.4126H209.677ZM116.559 43.0915C107.247 43.0915 99.5404 50.7979 99.5404 60.1097C99.5404 69.4215 107.247 77.1279 116.559 77.1279C125.87 77.1279 133.577 69.4215 133.577 60.1097C133.577 50.7979 125.87 43.0915 116.559 43.0915ZM116.559 73.5958C109.173 73.5958 103.073 67.495 103.073 60.1097C103.073 52.7244 109.173 46.6236 116.559 46.6236C123.944 46.6236 130.045 52.7244 130.045 60.1097C130.045 67.495 123.944 73.5958 116.559 73.5958ZM46.8803 31.8531C46.8803 32.4953 46.5592 33.1375 46.2381 33.7797H49.7702H51.3757C51.0546 33.4586 50.7335 32.4953 50.7335 31.8531V2.31204C50.7335 2.31204 50.7335 2.31204 50.7335 1.99094C50.7335 1.34874 51.0546 1.02765 51.3757 0.385449H46.5592C46.8803 0.706547 47.2014 1.34874 47.2014 1.99094V12.9083C43.6694 7.77071 38.5318 3.27533 31.4676 0.385449H27.2933C27.6144 0.706547 27.9355 1.66984 27.9355 2.31204V31.8531C27.9355 32.4953 27.6144 33.1375 27.2933 33.7797H32.1098C31.7887 33.4586 31.4676 32.4953 31.4676 31.8531V4.55972C39.4951 8.4129 44.9537 14.8349 46.8803 20.9357V31.8531ZM59.0821 43.0915C49.7702 43.0915 42.385 50.4768 42.385 59.7886C42.385 69.1004 49.7702 76.4857 59.0821 76.4857C68.3939 76.4857 75.7792 69.1004 75.7792 59.7886C75.7792 50.4768 68.0728 43.0915 59.0821 43.0915ZM59.0821 72.9536C51.6968 72.9536 45.917 67.1739 45.917 59.7886C45.917 52.4033 51.6968 46.6236 59.0821 46.6236C66.4673 46.6236 72.2471 52.4033 72.2471 59.7886C72.2471 67.1739 66.1462 72.9536 59.0821 72.9536ZM96.9717 53.6877C96.6506 47.908 91.513 43.4126 85.7332 43.4126H82.5222H78.6691L78.9902 44.3759C78.9902 44.697 78.9902 44.697 78.9902 45.0181C78.9902 45.0181 78.9902 45.0181 78.9902 45.3392V74.8802V75.2013C78.9902 75.5224 78.9902 75.5224 78.9902 75.8435V76.1646C78.9902 76.4857 78.6691 76.8068 78.348 77.1279H83.1644C82.8433 76.8068 82.5222 76.1646 82.5222 75.5224C82.5222 75.5224 82.5222 75.5224 82.5222 75.2013V47.2658H86.0543C90.2286 47.2658 93.4396 50.4768 93.7607 54.651C93.7607 58.8253 90.2286 62.3574 86.0543 62.3574H82.5222L85.091 65.8895L91.8341 74.8802L92.1552 75.2013C92.4763 75.8435 92.4763 76.4857 92.4763 76.8068H97.9349L89.2653 65.2473C94.0818 63.6418 97.6139 58.8253 96.9717 53.6877Z" fill="var(--fill-0, white)"/>
</svg>
