<svg style="display: block;" viewBox="0 0 253 70.64" fill="none" xmlns="http://www.w3.org/2000/svg">
<g id="Altimeter_Capital-OH127rYKP_brandlogos.net 1" clip-path="url(#clip0_1441_319741)">
<path id="Vector" d="M76.66 47.27H69.1V24.92C69.1763 24.4925 69.3864 24.1004 69.7 23.8H65.5C65.8136 24.1004 66.0237 24.4925 66.1 24.92V47.26C66.0047 47.6806 65.7974 48.0676 65.5 48.38H77.7L78.3 46.38C77.8474 46.813 77.2829 47.1108 76.67 47.24L76.66 47.27ZM81.5 25.78C81.5 25.78 81.67 24.83 82.5 24.83H91.27V47.26C91.27 47.69 90.67 48.38 90.67 48.38H94.88C94.5686 48.078 94.3589 47.6866 94.28 47.26V24.84H103.13C103.99 24.84 104.13 25.79 104.13 25.79V23.79H81.5V25.78ZM116.22 23.78H112.01C112.321 24.082 112.531 24.4734 112.61 24.9V47.24C112.531 47.6665 112.321 48.058 112.01 48.36H116.22C115.909 48.058 115.699 47.6665 115.62 47.24V24.92C115.729 24.5106 115.923 24.1289 116.19 23.8L116.22 23.78ZM152.5 24.92C152.546 24.5162 152.694 24.1307 152.93 23.8H148.5C148.5 23.8 149.19 24.4 149.19 24.8L140.77 43.8L132.26 24.89C132.113 24.5311 132.113 24.1289 132.26 23.77H128.26C128.86 24.11 129.64 24.97 129.55 25.57L127.32 47.14C127.287 47.3955 127.191 47.6388 127.041 47.8482C126.891 48.0576 126.691 48.2266 126.46 48.34H129.3C129.3 48.34 128.44 48 128.53 47.22L130.5 28.02L139.78 48.82L149.58 26.99L151.58 47.27C151.518 47.6504 151.336 48.0009 151.06 48.27H155.44C155.122 47.9585 154.885 47.574 154.75 47.15L152.5 24.92ZM174.24 47.26H167.45V37.04H174.07C174.308 37.0527 174.536 37.144 174.717 37.2996C174.897 37.4552 175.022 37.6663 175.07 37.9V34.98C175.07 34.98 174.81 35.84 174.07 35.84H167.45V24.92H174.07C174.308 24.9327 174.536 25.024 174.717 25.1796C174.897 25.3352 175.022 25.5463 175.07 25.78V23.78H163.71C164.021 24.082 164.231 24.4734 164.31 24.9V47.24C164.231 47.6665 164.021 48.058 163.71 48.36H175.23L175.83 46.36C175.74 46.32 175.05 47.27 174.2 47.27L174.24 47.26ZM181.97 25.78C181.97 25.78 182.14 24.83 182.97 24.83H191.74V47.26C191.74 47.69 191.14 48.38 191.14 48.38H195.35C195.039 48.078 194.829 47.6866 194.75 47.26V24.84H203.5C204.36 24.84 204.5 25.79 204.5 25.79V23.79H181.84V25.79L181.97 25.78ZM221.97 47.26H215.18V37.04H221.8C222.038 37.0527 222.266 37.144 222.447 37.2996C222.627 37.4552 222.752 37.6663 222.8 37.9V34.98C222.8 34.98 222.54 35.84 221.8 35.84H215.18V24.92H221.8C222.038 24.9327 222.266 25.024 222.447 25.1796C222.627 25.3352 222.752 25.5463 222.8 25.78V23.78H211.5C211.777 24.0957 211.958 24.4845 212.02 24.9V47.24C211.958 47.6555 211.777 48.0443 211.5 48.36H223.02L223.62 46.36C223.53 46.27 222.85 47.22 221.99 47.22L221.97 47.26ZM247.5 44.77C247.5 44.77 242.6 40.13 240.62 36.52C241.923 36.0688 243.061 35.2383 243.887 34.1352C244.714 33.0321 245.192 31.7069 245.26 30.33C245.26 26.33 241.14 23.8 236.84 23.8H231.43C231.741 24.102 231.951 24.4935 232.03 24.92V47.26C231.951 47.6866 231.741 48.078 231.43 48.38H235.64C235.363 48.0643 235.182 47.6755 235.12 47.26V37.32H237.12C241.93 43.94 245.03 46.26 245.03 46.26C249.24 49.96 253.03 48.32 253.03 48.32C251.28 48.21 248.7 45.98 247.5 44.77ZM236.76 36.09H235.13V24.92H236.68C238.114 24.9776 239.476 25.561 240.507 26.5588C241.538 27.5566 242.166 28.899 242.27 30.33C242.274 31.816 241.702 33.2459 240.675 34.3197C239.648 35.3935 238.245 36.028 236.76 36.09ZM58.87 48.32L57.75 47.32L43.83 16.32L41.94 19.41L42.37 20.18L30.77 46.65C30.3446 47.3932 29.6776 47.9684 28.88 48.28H32.66C32.5164 48.2212 32.3872 48.1322 32.2811 48.019C32.175 47.9058 32.0946 47.7711 32.0453 47.624C31.9959 47.4769 31.9788 47.321 31.9952 47.1667C32.0115 47.0124 32.0609 46.8634 32.14 46.73L36.95 35.9H49.24L54.05 46.81C54.1804 47.2934 54.1488 47.8063 53.96 48.27L58.87 48.32ZM37.56 34.48L43.06 21.93L48.65 34.48H37.56Z" fill="var(--fill-0, white)"/>
<path id="Vector_2" d="M35.32 68.92C29.4633 68.9295 23.7062 67.4043 18.6224 64.4963C13.5386 61.5884 9.30542 57.3991 6.34457 52.3459C3.38371 47.2927 1.79855 41.5519 1.74694 35.6954C1.69533 29.8389 3.17907 24.0711 6.05041 18.9665C8.92174 13.8619 13.0804 9.59869 18.1122 6.60157C23.144 3.60446 28.8732 1.97804 34.7292 1.88432C40.5852 1.7906 46.3636 3.23287 51.4887 6.06743C56.6138 8.90198 60.9068 13.0299 63.94 18.04H66.09C62.2728 11.2483 56.3159 5.91016 49.1479 2.85768C41.9798 -0.194806 34.0032 -0.790172 26.4614 1.16438C18.9197 3.11893 12.2364 7.51357 7.45318 13.6634C2.67001 19.8132 0.0557139 27.3726 0.0177533 35.1635C-0.0202073 42.9543 2.52029 50.5388 7.24331 56.735C11.9663 62.9311 18.6065 67.3907 26.1289 69.4186C33.6513 71.4466 41.6332 70.929 48.8307 67.9465C56.0282 64.964 62.0368 59.6842 65.92 52.93H63.77C60.8135 57.8262 56.6387 61.8727 51.6527 64.675C46.6666 67.4774 41.0395 68.9399 35.32 68.92Z" fill="var(--fill-0, white)"/>
</g>
<defs>
<clipPath id="clip0_1441_319741">
<rect width="253" height="70.64" fill="white"/>
</clipPath>
</defs>
</svg>
