<svg style="display: block;" viewBox="0 0 189.272 64.4" fill="none" xmlns="http://www.w3.org/2000/svg">
<g id="image 5 [Vectorized]">
<path id="Vector" d="M43.459 14.9147C44.7828 14.9247 46.1065 14.9206 47.4302 14.9025C47.4255 16.0136 47.386 17.3808 47.4716 18.4681C48.105 19.402 48.7951 20.3935 49.3748 21.3541C51.8748 25.4972 53.2046 31.5274 52.0374 36.2779C51.0266 40.4404 48.3759 44.0179 44.6875 46.1974C41.037 48.4017 35.6434 48.8742 31.5615 47.8696C27.0972 47.0781 23.6741 44.9533 22.0469 40.5668C23.936 40.5416 25.8253 40.533 27.7146 40.541C29.6573 40.5386 31.5211 40.6057 33.4176 40.1754C38.3425 39.0579 42.1314 35.1446 43.0691 30.1816C43.4447 28.1938 43.3475 26.0656 43.3438 24.0162L43.342 17.3903C43.3396 16.9458 43.2418 15.2079 43.459 14.9147Z" fill="var(--fill-0, white)"/>
<path id="Vector_2" d="M27.3159 14.9156C28.3273 14.8333 30.3693 14.8921 31.4246 14.8923L39.639 14.8796L39.6496 22.7281C39.6515 24.6923 39.7891 27.4011 39.3496 29.26C38.6028 32.4189 35.9604 35.151 32.8722 36.1065C30.971 36.6947 29.0533 36.5921 27.0711 36.5853C25.2966 36.5717 23.522 36.5698 21.7475 36.5795C22.4679 35.4655 23.746 33.924 24.5619 32.8554C25.6447 31.4373 26.7584 29.9738 27.8741 28.5858C28.1371 28.2705 28.4462 27.8407 28.6848 27.5041C30.181 25.3937 32.1602 23.2938 33.5318 21.1211C32.4001 22.0482 31.2576 22.9143 30.073 23.7712C26.0286 26.6966 22.0741 29.8273 17.9781 32.6744C18.0531 30.6781 17.9498 28.5082 17.9938 26.4954C18.028 25.0344 17.8845 23.5233 18.2687 22.0946C19.4043 17.8716 23.007 15.169 27.3159 14.9156Z" fill="var(--fill-0, white)"/>
<path id="Vector_3" d="M62.8447 14.9338C64.9908 14.8826 67.2028 14.8877 69.3456 14.9777C72.7685 15.1213 74.5782 19.3377 71.7484 21.5356C71.8025 21.561 71.8559 21.5876 71.9087 21.6155C73.9321 22.6853 74.386 24.829 73.3399 26.7864C72.0726 28.5487 70.6106 28.7307 68.5328 28.7303C66.6361 28.7299 64.7329 28.7169 62.8356 28.706L62.8447 14.9338ZM64.9644 26.757C66.5365 26.7439 69.8581 27.0208 71.0255 26.2369C71.2415 25.9952 71.4359 25.793 71.6058 25.5141C71.624 25.0474 71.6598 24.5001 71.6164 24.0426C70.4065 22.121 68.833 22.7196 66.8688 22.6375C66.2425 22.6112 65.5727 22.6488 64.9418 22.6548C64.9636 24.022 64.9712 25.3896 64.9644 26.757ZM64.9636 20.8748C66.7357 20.8943 68.9172 21.1894 70.3297 20.2961C70.782 19.7297 70.9989 19.4019 70.9071 18.6305C70.6475 16.4521 67.8692 16.8433 66.3085 16.814C65.862 16.8056 65.3923 16.8225 64.9443 16.8274C64.9578 18.1765 64.9642 19.5256 64.9636 20.8748Z" fill="var(--fill-0, #FAFAFB)"/>
<path id="Vector_4" d="M97.2834 34.2032C99.6299 34.3369 104.999 33.6534 106.743 35.1238C109.926 37.8077 109.026 43.2507 104.344 43.9766C103.31 44.1367 100.665 44.0699 99.5264 44.068L99.531 48.3176L97.2742 48.3193C97.1735 43.8549 97.2178 38.6835 97.2834 34.2032ZM99.5116 41.9969C101.325 41.9999 104.155 42.3319 105.438 41.2398C106.53 39.9079 106.682 38.1435 105.36 36.961C104.223 35.9441 100.985 36.2484 99.5255 36.2609C99.5052 38.1426 99.568 40.1432 99.5116 41.9969Z" fill="var(--fill-0, #FAFAFB)"/>
<path id="Vector_5" d="M139.758 34.2263C140.315 34.2139 140.999 34.248 141.565 34.2604C142.223 35.5247 142.992 37.647 143.544 38.9846L147.416 48.3214L145.09 48.3303C144.697 47.3484 144.297 46.3687 143.894 45.3914C143.019 45.4265 142.029 45.4075 141.145 45.4099C139.718 45.4202 138.292 45.4108 136.865 45.3815C136.476 46.4004 136.122 47.3356 135.659 48.3274L133.355 48.3292C135.329 43.7184 137.145 39.0015 139.134 34.3952C139.197 34.2485 139.604 34.244 139.758 34.2263ZM137.538 43.5641C138.543 43.5643 139.546 43.5703 140.551 43.5823L143.278 43.5788C142.985 42.8503 140.609 37.0377 140.349 36.8327C139.431 39.0482 138.356 41.3429 137.538 43.5641Z" fill="var(--fill-0, #FAFAFB)"/>
<path id="Vector_6" d="M84.8681 34.233C85.5681 34.1872 86.2688 34.2447 86.9692 34.2863C87.5801 35.412 88.4774 37.8484 88.9925 39.1038L92.803 48.3163L90.5386 48.3324C90.0714 47.4097 89.677 46.3546 89.2927 45.3866C88.5318 45.4374 87.4927 45.4137 86.7108 45.4169C85.2213 45.4292 83.7316 45.421 82.2422 45.3924C81.97 46.263 81.4426 47.5179 81.0367 48.3301L78.725 48.3302C80.7986 43.9818 82.3895 39.1067 84.3908 34.6955C84.5412 34.3639 84.5524 34.3446 84.8681 34.233ZM82.9554 43.5514L85.974 43.5829L88.661 43.549C88.4611 43.0049 85.8801 36.8281 85.7978 36.7482C84.8783 38.8904 83.7312 41.3835 82.9554 43.5514Z" fill="var(--fill-0, #FAFAFB)"/>
<path id="Vector_7" d="M106.355 14.9368L108.502 14.9409L108.511 28.7179L106.404 28.7215C106.086 28.3872 105.795 27.9963 105.487 27.6492C102.805 24.6224 100.308 21.3624 97.6259 18.3442L97.6111 28.7222L95.443 28.7091C95.5077 24.156 95.4596 19.4984 95.4615 14.9375C96.1361 14.9242 96.8912 14.9462 97.5723 14.9524C98.9327 16.2963 100.084 17.9564 101.359 19.3852C103.053 21.2847 104.627 23.4876 106.389 25.3108C106.278 22.0114 106.369 18.2827 106.355 14.9368Z" fill="var(--fill-0, #FAFAFB)"/>
<path id="Vector_8" d="M130.982 14.93C131.693 14.9342 132.404 14.944 133.116 14.9591C134.021 15.8611 134.826 16.9871 135.656 17.952C137.754 20.3923 139.769 22.9487 141.901 25.3529C141.738 22.406 141.869 17.993 141.869 14.9265L144.046 14.9558L144.048 28.7166L141.905 28.717C139.502 26.0093 137.244 23.1382 134.873 20.3991C134.277 19.7101 133.751 18.9914 133.083 18.3664C133.18 21.784 133.052 25.2729 133.137 28.7086L130.989 28.6981L130.982 14.93Z" fill="var(--fill-0, #FAFAFB)"/>
<path id="Vector_9" d="M118.644 14.9404C119.404 14.933 120.165 14.9368 120.925 14.9517C121.212 15.4838 122.361 18.3378 122.65 19.0719C123.892 22.222 125.468 25.6005 126.631 28.7215L124.354 28.7258C123.994 27.7543 123.614 26.7902 123.215 25.8339L120.924 25.8414C119.371 25.8414 117.818 25.8286 116.265 25.8035C115.994 26.7536 115.561 27.817 115.185 28.7267L112.907 28.7119C114.582 24.4211 116.739 19.0862 118.644 14.9404ZM116.944 24.0188L119.783 24.0111L122.571 24.013C122.156 23.1149 120.084 17.7854 119.73 17.4462C118.813 19.4195 117.81 21.9658 116.944 24.0188Z" fill="var(--fill-0, #FAFAFB)"/>
<path id="Vector_10" d="M83.1151 14.9529C83.6545 14.9035 84.8016 14.938 85.387 14.9407C85.8795 15.8543 86.6958 18.0095 87.1468 19.0795L91.1345 28.7266C90.3909 28.7165 89.6183 28.7304 88.8721 28.7344C88.4875 27.7456 88.1155 26.7491 87.6522 25.7946C87.0673 25.8569 86.2102 25.8356 85.6034 25.8382C84.0143 25.8531 82.4252 25.8351 80.8369 25.7841C80.5893 26.5915 80.0257 27.8998 79.6963 28.719L77.4371 28.7266C78.0207 26.8988 79.0249 24.8226 79.7435 23.015C80.8223 20.3017 81.9537 17.6325 83.1151 14.9529ZM81.443 24.0159L84.3326 24.0125L87.0402 24.0148C86.6473 23.0665 84.6369 17.8716 84.2024 17.4227C83.3216 19.6366 82.4016 21.8346 81.443 24.0159Z" fill="var(--fill-0, #FAFAFB)"/>
<path id="Vector_11" d="M154.175 14.9066C154.845 14.9449 155.734 14.9286 156.418 14.9352C156.846 15.7839 157.823 18.2312 158.225 19.2381C159.474 22.3611 160.934 25.6042 162.128 28.7199L159.846 28.7232C159.471 27.6814 159.121 26.8105 158.682 25.7932C157.997 25.8402 157.051 25.8228 156.347 25.8276C154.837 25.8337 153.327 25.8208 151.817 25.7889L150.732 28.732L148.424 28.7199C149.022 26.9095 150.08 24.6572 150.823 22.8465C151.858 20.3265 152.969 17.3355 154.175 14.9066ZM152.47 24.018L155.283 24.0116L158.042 24.0174C157.205 22.0037 156.029 19.3551 155.282 17.3439C154.295 19.4996 153.377 21.8131 152.47 24.018Z" fill="var(--fill-0, #FAFAFB)"/>
<path id="Vector_12" d="M69.4589 34.1244C71.1631 33.87 73.7083 34.1923 75.2528 34.9259C75.1845 35.6152 75.1443 36.3069 75.1323 36.9994C72.0204 35.9268 67.7399 35.374 65.8133 38.7969C64.4602 41.2009 65.3635 44.3988 67.8345 45.6767C69.5729 46.5757 71.6153 46.6948 73.4946 46.137C74.0905 45.967 74.5435 45.7715 75.11 45.5341C75.2305 46.1987 75.3548 46.8625 75.4827 47.5258C72.7671 48.9891 67.7481 48.882 65.4697 46.8544C60.4699 42.4052 62.842 34.9835 69.4589 34.1244Z" fill="var(--fill-0, #FAFAFB)"/>
<path id="Vector_13" d="M120.473 34.2023C121.017 34.2203 121.572 34.2296 122.115 34.2212C125.381 34.1703 128.704 34.3118 131.965 34.197L131.959 36.323L127.273 36.3337L127.276 43.4958L127.274 48.3182L125.069 48.3227C124.974 44.4576 125.064 40.2117 125.068 36.324C123.553 36.3544 121.96 36.3311 120.44 36.3313C120.428 35.6214 120.439 34.9115 120.473 34.2023Z" fill="var(--fill-0, #FAFAFB)"/>
<path id="Vector_14" d="M152.866 34.2373L154.077 34.1895C154.148 38.2299 154.01 42.3378 154.112 46.3831C156.666 46.3132 159.542 46.3653 162.118 46.3616L162.128 48.3078L161.12 48.3119L151.843 48.3164L151.839 34.2757L152.866 34.2373Z" fill="var(--fill-0, #FAFAFB)"/>
<path id="Vector_15" d="M113.627 34.2225C114.36 34.2305 115.092 34.219 115.824 34.1881L115.826 43.9013C115.826 44.7923 115.891 47.6188 115.782 48.3146L113.559 48.3193L113.565 38.4036C113.565 37.7534 113.52 34.6729 113.627 34.2225Z" fill="var(--fill-0, #FAFAFB)"/>
</g>
</svg>
