<svg style="display: block;" viewBox="0 0 233.077 21.4431" fill="none" xmlns="http://www.w3.org/2000/svg">
<g id="Frame" clip-path="url(#clip0_1441_319745)">
<path id="Vector" d="M43.4165 5.37259H40.8519L35.111 10.1444V5.37259H33.0475V15.7997H35.111V12.4224L37.2662 10.7325L41.7436 15.7997H44.4214L38.7533 9.37259L43.4165 5.37259Z" fill="var(--fill-0, white)"/>
<path id="Vector_2" d="M50.6505 5.37259H48.5869V15.7997H57.5255V13.982H50.6505V5.37259Z" fill="var(--fill-0, white)"/>
<path id="Vector_3" d="M63.5103 11.2648H67.8207V9.46573H63.5103V7.19029H70.6278V5.37259H61.4467V15.7997H71.0561V13.982H63.5103V11.2648Z" fill="var(--fill-0, white)"/>
<path id="Vector_4" d="M78.2896 5.37259H76.226V15.7997H78.2896V5.37259Z" fill="var(--fill-0, white)"/>
<path id="Vector_5" d="M92.6876 12.4757H92.6687L86.3487 5.37259H84.5276V15.7997H86.5912V8.69394H86.61L92.9273 15.7997H94.7484V5.37259H92.6876V12.4757Z" fill="var(--fill-0, white)"/>
<path id="Vector_6" d="M103.06 11.2648H107.371V9.46573H103.06V7.19029H110.175V5.37259H100.997V15.7997H110.603V13.982H103.06V11.2648Z" fill="var(--fill-0, white)"/>
<path id="Vector_7" d="M126.228 8.63935C126.228 7.83296 125.894 7.09843 125.336 6.5289C124.649 5.83163 123.626 5.37122 121.972 5.37122H115.765V15.7984H117.828V11.9261H121.656L124.035 15.7984H126.414L123.776 11.6307C125.188 11.1729 126.231 10.0711 126.231 8.63935H126.228ZM122.271 10.127H117.828V7.18891H121.972C122.678 7.18891 123.311 7.24481 123.793 7.77707C124.016 8.01659 124.165 8.32797 124.165 8.65797C124.165 9.44839 123.311 10.127 122.268 10.127H122.271Z" fill="var(--fill-0, white)"/>
<path id="Vector_8" d="M143.237 5.37259H136.973V15.7997H139.037V11.9275H143.18C144.668 11.9275 145.708 11.6161 146.526 10.807C147.084 10.2562 147.437 9.55888 147.437 8.65935C147.437 7.8157 147.122 7.06255 146.545 6.49302C145.691 5.63074 144.519 5.37259 143.237 5.37259ZM144.964 9.59347C144.555 9.97937 144.035 10.1257 143.18 10.1257H139.037V7.18762H143.237C143.757 7.18762 144.5 7.20626 145.02 7.75715C145.244 7.99667 145.373 8.30805 145.373 8.65668C145.373 9.00532 145.225 9.33533 144.964 9.59347Z" fill="var(--fill-0, white)"/>
<path id="Vector_9" d="M153.903 11.2757H158.216V9.47667H153.903V7.20122H161.021V5.38353H151.842V15.8107H161.449V13.993H153.903V11.2757Z" fill="var(--fill-0, white)"/>
<path id="Vector_10" d="M177.076 8.65165C177.076 7.84526 176.742 7.11073 176.184 6.5412C175.497 5.84393 174.474 5.38353 172.82 5.38353H166.613V15.8107H168.676V11.9385H172.504L174.883 15.8107H177.262L174.624 11.643C176.036 11.1852 177.076 10.0835 177.076 8.65165ZM173.118 10.1393H168.676V7.20122H172.82C173.525 7.20122 174.158 7.25711 174.641 7.78938C174.864 8.0289 175.013 8.34027 175.013 8.67028C175.013 9.4607 174.158 10.1393 173.116 10.1393H173.118Z" fill="var(--fill-0, white)"/>
<path id="Vector_11" d="M192.792 5.38353H190.228L184.487 10.1553V5.38353H182.424V15.8107H184.487V12.4334L186.643 10.7435L191.119 15.8107H193.795L188.13 9.38618L192.792 5.38353Z" fill="var(--fill-0, white)"/>
<path id="Vector_12" d="M200.019 5.38353H197.955V15.8107H200.019V5.38353Z" fill="var(--fill-0, white)"/>
<path id="Vector_13" d="M214.42 12.4866H214.401L208.083 5.38353H206.262V15.8107H208.323V8.70488H208.342L214.659 15.8107H216.48V5.38353H214.42V12.4866Z" fill="var(--fill-0, white)"/>
<path id="Vector_14" d="M227.791 9.29253C226.118 9.18341 224.502 9.14615 224.502 8.13484C224.502 7.12353 225.598 6.7962 226.918 6.7962C229 6.7962 230.465 7.45621 231.08 7.96984L232.344 6.55668C231.432 5.89666 229.389 5.01575 226.991 5.01575C224.911 5.01575 222.419 5.76891 222.419 8.31847C222.419 10.868 225.279 11.0916 227.788 11.2752C229.776 11.4215 230.929 11.717 230.929 12.8906C230.929 13.9365 229.684 14.397 228.086 14.397C225.56 14.397 223.963 13.2579 223.052 12.5234L221.807 13.9365C223.09 15.0011 225.04 16.1774 228.052 16.1774C230.746 16.1774 233.015 15.1874 233.015 12.6165C233.015 9.62519 229.819 9.42293 227.793 9.29253H227.791Z" fill="var(--fill-0, white)"/>
<path id="Vector_15" d="M1.79671 0.0767887C0.80263 0.0767887 -0.00017395 0.869868 -0.00017395 1.85191V10.7221L10.7757 0.0767887H1.79671Z" fill="var(--fill-0, white)"/>
<path id="Vector_16" d="M-0.00017395 19.592C-0.00017395 20.5714 0.80263 21.3671 1.79671 21.3671H10.7757L-0.00017395 10.7217V19.592Z" fill="var(--fill-0, white)"/>
<path id="Vector_17" d="M10.7768 12.4968L10.776 21.3671L21.5527 10.7217H12.5736C11.5823 10.7217 10.7768 11.5147 10.7768 12.4968Z" fill="var(--fill-0, white)"/>
<path id="Vector_18" d="M19.7558 0.0767887H10.776L21.5527 10.7221V1.85191C21.5527 0.872529 20.7498 0.0767887 19.7558 0.0767887Z" fill="var(--fill-0, white)"/>
</g>
<defs>
<clipPath id="clip0_1441_319745">
<rect width="233.077" height="21.4431" fill="white"/>
</clipPath>
</defs>
</svg>
