<svg style="display: block;" viewBox="0 0 188.118 91.7832" fill="none" xmlns="http://www.w3.org/2000/svg">
<path id="Union" d="M90.9023 57.9346C93.0819 57.9346 100.391 58.5755 100.391 70.0293C100.391 80.201 94.9637 83.1073 89.6211 83.1074C85.7075 83.1074 83.9531 81.372 83.9365 81.3555C83.9365 89.1336 84.1925 89.6038 85.0049 91.0566L85.3896 91.7832C85.3896 91.7832 84.3207 91.6982 81.5859 91.6982C78.8511 91.6982 77.7393 91.7832 77.7393 91.7832L78.124 91.0566C78.9365 89.5177 79.1934 89.2188 79.1934 77.252L79.1758 67.1865C79.0922 61.9937 78.7219 60.9419 78.124 59.8574L77.7393 59.1309L83.7656 58.0615L83.5938 62.9775C84.7052 59.6866 86.9276 57.9347 90.9023 57.9346ZM126.186 78.9629C126.185 79.6914 125.671 83.1084 120.288 83.1084C117.553 83.1084 116.1 82.1252 115.288 80.8428C114.562 79.7313 114.305 78.235 114.305 75.1152C114.305 69.1372 114.349 63.6489 114.385 61.3965H111.655C111.741 61.3537 113.194 60.1143 114.732 57.6777C116.357 55.2419 117.212 53.2324 117.212 53.2324H119.135V58.5752H121.87C125.375 58.5752 126.06 58.1055 126.06 58.1055C126.059 58.1134 126.017 58.7131 126.017 59.9863C126.017 61.2679 126.06 61.8242 126.06 61.8242C126.06 61.8242 125.417 61.3965 121.87 61.3965H119.135V75.2871C119.135 77.2098 119.263 77.9363 119.647 78.7061C120.118 79.6463 121.015 80.2441 122.64 80.2441C124.998 80.2441 126.153 78.9988 126.186 78.9629ZM75.1045 58.3428C75.1045 58.3428 74.9814 62.8399 74.9814 67.0098L74.9902 73.5459L74.9912 73.5469C75.0485 79.1075 75.4078 80.1594 76.0049 81.2422L76.3721 81.9365L70.6484 82.959L70.8125 78.2168C69.7494 81.365 67.5831 83.0409 63.8223 83.041C61.7369 83.041 54.7461 82.4282 54.7461 71.4717C54.7461 61.7422 59.9378 58.962 65.0479 58.9619C67.0963 58.9619 68.5157 59.4604 69.3896 59.9199L69.0947 59.3652L75.1045 58.3428ZM146.546 58.3428C146.546 58.3428 146.423 62.8399 146.423 67.0098L146.431 73.5459L146.433 73.5469C146.49 79.1072 146.848 80.1595 147.445 81.2422L147.813 81.9365L142.09 82.959L142.254 78.2168C141.191 81.3652 139.024 83.041 135.263 83.041C133.177 83.041 126.187 82.4277 126.187 71.4717C126.187 61.7421 131.379 58.9619 136.489 58.9619C138.537 58.9619 139.957 59.4605 140.83 59.9199L140.536 59.3652L146.546 58.3428ZM45.2803 51.9492C50.7081 51.9492 52.8877 53.1885 52.8877 53.1885V53.1904C52.8862 53.208 52.8027 54.1909 52.8027 56.0967C52.8027 58.0196 52.8877 59.2588 52.8877 59.2588C51.0497 56.6091 49.5113 55.0703 45.4512 55.0703C40.835 55.0704 35.1084 57.4633 35.1084 67.6777C35.1084 74.5161 37.3731 79.8584 45.2803 79.8584C49.4688 79.8584 51.0506 78.2336 52.8877 75.584C52.8877 75.584 52.8027 76.9944 52.8027 78.96C52.8027 80.7377 52.8861 81.72 52.8877 81.7383C52.8877 81.7383 49.9816 82.9775 44.9814 82.9775C31.6897 82.9775 29.8516 73.6171 29.8516 67.8477C29.8517 57.5908 35.536 51.9492 45.2803 51.9492ZM109.211 58.1045C109.211 58.1045 108.826 60.4978 108.826 69.6865V71.0977C108.826 79.0037 108.998 80.2867 109.896 81.9961L110.279 82.7227C110.279 82.7227 109.211 82.6377 106.518 82.6377C103.844 82.6377 102.688 82.7215 102.672 82.7227L103.057 81.9961C103.868 80.5007 104.125 79.6447 104.125 71.0977V69.7305C104.125 62.3375 103.74 61.1403 103.057 59.9004L102.672 59.1738L109.211 58.1045ZM156.94 49.0449C156.94 49.0521 156.812 53.6636 156.812 57.8916V71.0977C156.812 79.346 157.026 80.4146 157.881 81.9961L158.266 82.7227C158.266 82.7227 157.196 82.6377 154.461 82.6377C151.729 82.6377 150.659 82.7225 150.657 82.7227L151.042 81.9961C151.854 80.5007 152.11 79.6449 152.11 71.0977V61.5254C152.11 53.7468 151.854 52.4644 151.042 50.8828L150.657 50.1562L156.94 49.0449ZM89.0215 61.2676C87.0983 61.2676 85.8685 61.6428 84.7832 62.5781C84.422 62.7788 84.0256 63.0184 83.6006 63.3018L83.9355 78.877C83.9406 78.8815 85.3087 80.1149 88.3369 80.1152C93.338 80.1152 95.3466 76.5688 95.3467 70.3721C95.3467 65.7133 93.8079 61.2677 89.0215 61.2676ZM66.2744 61.8232C61.4503 61.8232 59.5694 65.2163 59.5693 71.1436C59.5693 75.5992 61.0415 79.8516 65.5791 79.8516C67.9502 79.8515 69.2183 79.2794 70.4854 77.7666V62.9678C70.4792 62.9624 69.1703 61.8233 66.2744 61.8232ZM137.715 61.8232C132.891 61.8234 131.011 65.2165 131.011 71.1436C131.011 75.5991 132.482 79.8513 137.02 79.8516C139.391 79.8516 140.659 79.2794 141.926 77.7666V62.9678C141.902 62.9471 140.591 61.8232 137.715 61.8232ZM106.476 49.5146C108.227 49.5147 109.553 50.3259 109.553 52.1211C109.553 54.0868 108.313 54.8994 106.433 54.8994C104.552 54.8993 103.314 54.0878 103.313 52.25C103.313 50.3268 104.595 49.5146 106.476 49.5146ZM124.294 0C124.294 0 124.127 6.03085 124.127 11.5586V13.0107C124.127 16.305 123.848 18.0371 123.848 18.0371C125.356 13.7379 128.426 11.6709 133.284 11.6709C136.076 11.6709 145.68 12.5091 145.681 27.4736L145.679 27.4727C145.679 40.8183 138.587 44.6152 131.552 44.6152C125.632 44.6152 123.231 41.4883 123.231 41.4883L117.48 44.6709C117.485 44.6381 117.983 41.2068 117.983 29.2598V15.1885C117.983 5.52932 117.481 3.96484 116.588 2.3457L116.086 1.39648L124.294 0ZM51.0557 11.6143C60.7714 11.6143 65.6309 18.3146 65.6309 27.6953C65.6308 34.3961 62.7266 44.6699 50.4424 44.6699C40.7269 44.6698 35.8682 37.9138 35.8682 28.5332C35.8682 21.8325 38.7718 11.6145 51.0557 11.6143ZM175.107 11.6133C187.056 11.6135 188.117 21.5523 188.117 27.8623L188.118 27.8633V28.3652H167.569C167.569 34.2281 169.636 40.2588 177.174 40.2588C184.699 40.2587 186.883 36.4185 186.89 36.4062C186.89 40.4826 183.706 44.5575 175.442 44.5576C167.178 44.5576 161.035 39.3094 161.035 28.3086C161.035 16.6379 167.402 11.6133 175.107 11.6133ZM112.947 12.2705C112.947 12.2705 112.786 18.1462 112.786 23.5938L112.797 32.1338C112.872 39.3991 113.341 40.7731 114.121 42.1875L114.122 42.1885L114.603 43.0957L107.125 44.4307L107.339 38.2354C105.951 42.3479 103.119 44.5381 98.2051 44.5381C95.4805 44.538 86.3477 43.7369 86.3477 29.4229C86.3477 16.711 93.1314 13.0791 99.8076 13.0791C102.484 13.0791 104.338 13.7299 105.479 14.3311L105.096 13.6055L112.947 12.2705ZM75.7383 5.47168V12.4521H79.3125C83.846 12.4521 84.7666 11.8496 84.7842 11.8379C84.7827 11.8597 84.7285 12.6436 84.7285 14.2949C84.7285 15.9697 84.7842 16.6953 84.7842 16.6953C84.7788 16.6918 83.9324 16.1368 79.3125 16.1367H75.7383V34.2842C75.7383 36.7971 75.9053 37.747 76.4082 38.752C77.0225 39.9797 78.196 40.7617 80.3174 40.7617V40.7607C83.4444 40.7606 84.9521 39.0859 84.9521 39.0859C84.9521 40.0352 84.2818 44.502 77.2461 44.502C73.6719 44.5019 71.7744 43.2179 70.7129 41.543C69.7636 40.0916 69.4287 38.137 69.4287 34.0605C69.4287 26.2502 69.4857 19.0796 69.5332 16.1367H65.9668C66.0827 16.0778 67.9795 14.4586 69.9873 11.2793C72.1048 8.10224 73.2215 5.48124 73.2256 5.47168H75.7383ZM24.9502 33.1973L30.4971 43.8975C30.2325 43.8925 29.9544 43.8887 29.6562 43.8887C26.9812 43.8887 24.0215 44.0551 24.0107 44.0557L8.20898 13.624C7.37108 12.0047 6.75687 9.93757 6.70117 9.54688V24.3447C6.70117 40.5937 6.86815 40.8173 8.04102 43.0508L8.54297 44C8.54297 44 7.14677 43.8887 4.1875 43.8887C1.24189 43.8887 0.0111111 43.999 0 44L0.50293 43.0508C1.50783 41.041 1.89843 40.0355 1.89844 23.7871C1.89844 7.53776 1.67583 7.31366 0.50293 5.08008L0 4.13086C0.00929162 4.1316 1.4082 4.24218 5.19238 4.24219C8.37525 4.24219 9.88379 4.13086 9.88379 4.13086L24.9502 33.1973ZM156.534 0C156.532 0.0606551 156.366 6.05877 156.366 11.5586V28.8125H156.367C156.367 39.5896 156.646 40.9853 157.763 43.0518L158.266 44.001C158.266 44.001 156.87 43.8897 153.296 43.8896C149.722 43.8896 148.325 44.001 148.325 44.001L148.828 43.0518C149.889 41.0967 150.224 39.9804 150.224 28.8125V16.3047C150.224 6.14192 149.889 4.46684 148.828 2.40039L148.325 1.45117L156.534 0ZM33.3906 5.08105C32.33 7.09099 32.0508 7.5944 32.0508 24.3457L32 42.1416L27.1924 32.8672V23.7871C27.1924 7.53776 26.9698 7.31366 25.7969 5.08008L25.2939 4.13184C25.2939 4.13184 26.5798 4.24316 29.5947 4.24316C32.6094 4.24315 33.8936 4.13184 33.8936 4.13184L33.3906 5.08105ZM50.665 15.5781C44.9696 15.5783 42.625 19.9332 42.625 28.1973C42.625 35.9028 44.6911 40.7049 50.833 40.7051C56.5288 40.7051 58.874 36.3503 58.874 28.0303C58.874 20.3245 56.7515 15.5781 50.665 15.5781ZM130.315 16.0889C130.269 16.0905 130.222 16.0921 130.176 16.0938C130.037 16.0987 129.902 16.1061 129.77 16.1143C129.739 16.1159 129.708 16.1177 129.679 16.1201C129.526 16.1316 129.376 16.1456 129.229 16.1611C129.184 16.166 129.14 16.172 129.095 16.1777C128.987 16.1908 128.881 16.2053 128.776 16.2217C128.731 16.2282 128.686 16.2348 128.642 16.2422C128.51 16.2643 128.38 16.2894 128.254 16.3164C128.208 16.3262 128.165 16.337 128.12 16.3477C128.032 16.3681 127.946 16.3892 127.86 16.4121C127.81 16.426 127.758 16.4394 127.708 16.4541C127.603 16.4844 127.5 16.5164 127.398 16.5508C127.345 16.5688 127.292 16.5876 127.239 16.6064C127.165 16.6335 127.091 16.6621 127.019 16.6924C126.965 16.7137 126.913 16.7359 126.86 16.7588C126.793 16.7882 126.725 16.8195 126.659 16.8506C126.586 16.885 126.514 16.9213 126.443 16.959C126.375 16.995 126.307 17.0307 126.241 17.0684C126.188 17.0986 126.136 17.1302 126.084 17.1621C126.029 17.1957 125.976 17.2303 125.922 17.2646C125.872 17.2974 125.822 17.3289 125.772 17.3633C125.121 17.6221 124.481 17.9227 123.855 18.2568L124.132 39.0859C124.132 39.0859 125.919 40.7051 129.884 40.7051C136.473 40.7049 139.041 36.015 139.041 27.9736L139.034 27.9746C139.034 27.7904 139.032 27.6061 139.028 27.4219C139.027 27.3614 139.024 27.3007 139.023 27.2402C139.02 27.1174 139.017 26.9931 139.012 26.8711C139.008 26.7983 139.004 26.7263 139.001 26.6543C138.995 26.5446 138.991 26.4349 138.984 26.3252C138.979 26.2466 138.973 26.1686 138.968 26.0908C138.96 25.9884 138.953 25.8848 138.944 25.7832C138.937 25.7022 138.929 25.622 138.921 25.541C138.911 25.4428 138.902 25.3435 138.892 25.2461C138.883 25.1642 138.872 25.082 138.862 25.001C138.851 24.9063 138.839 24.8107 138.827 24.7168C138.816 24.6341 138.804 24.5516 138.792 24.4697C138.778 24.3772 138.764 24.2851 138.749 24.1934C138.735 24.1108 138.721 24.0281 138.706 23.9463C138.691 23.8572 138.674 23.768 138.657 23.6797C138.642 23.597 138.626 23.5145 138.608 23.4326C138.59 23.3459 138.571 23.2588 138.552 23.1729C138.534 23.0912 138.515 23.0096 138.495 22.9287C138.475 22.8443 138.453 22.7605 138.432 22.6777C138.41 22.5968 138.39 22.5157 138.368 22.4355C138.345 22.3536 138.322 22.2727 138.298 22.1924C138.274 22.1124 138.25 22.0325 138.226 21.9541C138.201 21.8755 138.175 21.7975 138.148 21.7197C138.122 21.6404 138.096 21.5619 138.068 21.4834C138.041 21.4081 138.012 21.3344 137.984 21.2607C137.955 21.183 137.927 21.1043 137.896 21.0273C137.867 20.9569 137.837 20.887 137.807 20.8174C137.773 20.7396 137.74 20.6611 137.706 20.585C137.677 20.5203 137.646 20.4576 137.615 20.3945C137.472 20.0949 137.315 19.8071 137.146 19.5312C137.114 19.478 137.082 19.4224 137.049 19.3691C137.002 19.2963 136.953 19.2265 136.904 19.1553C136.868 19.1013 136.831 19.0455 136.793 18.9932C136.744 18.9253 136.692 18.8592 136.641 18.793C136.601 18.7406 136.56 18.6873 136.519 18.6357C136.466 18.5711 136.412 18.5095 136.357 18.4473C136.314 18.3973 136.271 18.347 136.227 18.2979C136.171 18.2372 136.113 18.1791 136.056 18.1201C136.009 18.0736 135.963 18.0262 135.916 17.9805C135.857 17.924 135.796 17.8685 135.734 17.8145C135.685 17.7704 135.636 17.727 135.585 17.6846C135.523 17.6322 135.459 17.5802 135.395 17.5303C135.342 17.4894 135.289 17.4504 135.236 17.4111C135.17 17.3628 135.102 17.3152 135.033 17.2686C134.978 17.2318 134.923 17.1961 134.867 17.1602C134.797 17.1159 134.725 17.072 134.653 17.0303C134.596 16.9968 134.537 16.9647 134.479 16.9336C134.404 16.8935 134.329 16.8541 134.252 16.8164C134.192 16.787 134.131 16.7602 134.069 16.7324C133.991 16.6964 133.911 16.6607 133.83 16.6279C133.768 16.6026 133.704 16.5794 133.641 16.5557C133.557 16.5246 133.474 16.4936 133.388 16.4658C133.324 16.4445 133.257 16.4269 133.191 16.4072C133.102 16.381 133.014 16.354 132.923 16.3311C132.858 16.3147 132.791 16.3017 132.725 16.2861C132.629 16.2648 132.535 16.2416 132.437 16.2236C132.376 16.2122 132.311 16.2051 132.25 16.1953C132.143 16.1781 132.037 16.1594 131.928 16.1455C131.911 16.1431 131.893 16.143 131.875 16.1406C131.709 16.1218 131.539 16.1073 131.365 16.0967C131.19 16.0869 131.013 16.0811 130.83 16.0811C130.648 16.0811 130.483 16.084 130.315 16.0889ZM99.6934 40.3369C99.9539 40.3608 100.223 40.3721 100.501 40.3721C100.131 40.372 99.7761 40.3507 99.4365 40.3086L99.6934 40.3369ZM101.538 16.8213C95.3417 16.888 92.9199 21.3112 92.9199 28.9961C92.92 34.7867 94.8243 40.3099 100.678 40.3691V40.3701L101.221 40.3564C103.864 40.2429 105.389 39.4662 106.911 37.6494V18.3135C106.892 18.2971 105.217 16.8555 101.538 16.8213ZM98.9375 40.2305H98.9385H98.9375ZM97.5752 39.8213H97.5762H97.5752ZM96.9658 39.5254H96.9668H96.9658ZM100.83 16.8311C99.5983 16.8871 98.5234 17.1245 97.5938 17.5342C97.5223 17.5657 97.4516 17.5983 97.3818 17.6318C94.0318 19.2418 92.6494 23.1879 92.6494 28.9961C92.6494 30.6336 92.8017 32.25 93.1523 33.7275C93.1912 33.8914 93.2325 34.0536 93.2764 34.2139C93.5838 35.3381 94.0142 36.3707 94.5898 37.2559C94.7542 37.5086 94.9307 37.7491 95.1191 37.9766C95.3078 38.2042 95.5088 38.4185 95.7227 38.6182C95.883 38.7679 96.0506 38.9092 96.2256 39.042H96.2266C93.6012 37.0507 92.6504 33.0896 92.6504 28.9961C92.6504 21.2524 95.1074 16.8189 101.409 16.8184L100.83 16.8311ZM174.938 15.1885C174.468 15.1885 173.986 15.216 173.507 15.2881C173.347 15.3118 173.187 15.3416 173.028 15.376C170.273 15.9739 167.703 18.2396 167.567 25.4072L181.583 24.3457H181.584C181.584 21.5782 181.289 17.2623 177.854 15.7412C177.755 15.697 177.654 15.6555 177.549 15.6162C177.34 15.5376 177.12 15.4702 176.89 15.4121C176.313 15.2671 175.665 15.1885 174.938 15.1885ZM106.167 17.7051C106.843 18.0224 107.17 18.3051 107.18 18.3135H107.181C107.173 18.307 106.845 18.0236 106.167 17.7051ZM101.678 16.8184C103.1 16.8184 104.23 17.0281 105.086 17.291L104.636 17.165C103.846 16.9642 102.864 16.8184 101.679 16.8184H101.678ZM101.538 16.8213L101.537 16.8203V16.8213H101.539L101.538 16.8203V16.8213Z" fill="var(--fill-0, white)"/>
</svg>
