<svg viewBox="0 0 913.73 133.925" fill="white" xmlns="http://www.w3.org/2000/svg">
  <g transform="translate(0 0)">
    <path d="M2.36588 107.569C-3.14953 90.2914 0.919477 75.8433 15.1928 62.1105C15.2087 62.0946 71.5628 8.78437 71.5628 8.78437C80.4796 0.201326 93.5608 -2.07954 104.886 2.96697C122.545 10.9142 123.188 28.2631 122.894 33.9136C122.847 34.907 122.854 42.9417 115.042 44.0781C109.622 44.8649 104.433 41.4317 104.488 34.4302C104.568 23.3199 101.174 21.6828 97.4391 19.5211C95.7066 18.7502 89.3011 16.8032 84.2228 21.8338C84.1989 21.8576 27.8369 75.1678 27.8369 75.1678C18.6578 84.0131 16.3928 91.5551 19.7466 102.053C21.2724 106.83 18.6181 111.932 13.8179 113.45C8.07997 115.254 3.59771 111.423 2.36588 107.561V107.569Z"/>
    <path d="M122.415 131.222C101.386 121.844 104.565 99.1388 104.565 99.1388C105.113 94.0684 108.65 90.063 113.681 90.063C118.711 90.063 122.454 93.3929 122.804 99.1388C122.804 99.1388 122.351 111.576 129.861 114.66C131.594 115.431 137.681 117.545 143.078 112.347L198.899 59.021C208.102 50.1677 210.47 42.4112 207.045 32.2705C205.44 27.518 208.015 22.3762 212.783 20.7788C217.559 19.1814 222.709 22.2093 224.338 26.4849C230.052 43.3967 225.872 58.3137 211.559 72.0863L155.738 125.404C149.984 130.952 137.093 137.826 122.415 131.214V131.222Z"/>
    <path d="M26.7393 131.197C22.0583 129.345 19.7695 124.076 21.6292 119.411C23.4888 114.754 28.7897 112.481 33.4706 114.325C40.8377 117.233 49.4049 115.509 55.3018 109.922L158.894 11.7494C166.683 4.37436 182.275 -4.30405 200.014 2.41138C204.377 4.2313 206.864 9.64339 204.933 14.2766C203.002 18.9019 197.685 20.3483 193.012 19.1722C183.722 17.0184 175.854 20.7378 171.475 24.8942L67.8823 123.067C60.4436 130.124 45.0259 138.278 26.7313 131.197H26.7393Z"/>
  </g>
  <g transform="translate(276.13 14.48)">
    <path d="M18.3835 0.130578H0V105.367H18.3835V0.130578Z"/>
    <path d="M393.355 85.8606C389.809 85.8606 380.037 83.961 382.401 70.3686C383.309 65.7463 388.543 53.188 382.253 34.9521C380.692 30.4987 380.227 19.4178 393.144 19.4178H442.638V2.85212e-06H364.841L364.989 105.257H444.306V85.8606H393.398H393.376H393.355Z"/>
    <path d="M418.286 43.2322H407.163C401.865 43.2322 397.559 47.5801 397.559 52.92C397.559 58.26 401.844 62.6079 407.163 62.6079H418.286C423.583 62.6079 427.889 58.26 427.889 52.92C427.889 47.5801 423.604 43.2322 418.286 43.2322Z"/>
    <path d="M207.58 0.127275L208.128 36.8312C208.128 44.0496 208.614 51.3102 212.497 57.1566C220.813 69.736 210.26 78.0519 202.894 69.736L150.297 0.106164H126.447L126.49 73.0919C126.49 76.0679 124.062 80.1203 118.87 79.7826C111.694 79.3394 113.003 64.9026 101.774 51.6268C101.521 51.3313 62.8125 0.127275 62.8125 0.127275H39.7856V105.364H59.8576V73.4085C59.8576 65.1981 60.0053 54.3917 55.9318 48.6297C49.1568 39.0474 54.18 31.9134 60.1531 32.6733C62.918 33.222 65.2396 36.3669 65.2396 36.3669L117.14 105.342H146.372V69.546C146.92 54.6872 141.876 45.6959 141.475 44.535C139.829 39.6172 141.243 36.1347 143.839 34.6573C146.287 33.2642 149.622 33.2853 152.134 36.1347C153.843 38.0976 203.4 105.321 203.4 105.321H227.651V0.148378H207.558L207.58 0.127275Z"/>
  </g>
  <g transform="translate(731.9 12.76)">
    <path d="M57.3665 46.0372C50.9925 44.5598 42.2967 42.8713 33.8331 40.8028C20.4518 37.5525 19.0378 19.401 44.5762 19.4221C65.218 19.4221 75.0957 35.3996 75.0957 35.3996L86.3875 19.401C86.3875 19.401 71.6764 -0.333416 44.9138 0.00428522C8.80123 0.489731 4.24235 21.4483 4.01019 29.3421C3.98908 30.1863 2.87046 47.5991 20.3041 56.6326C27.438 60.3473 42.0434 62.6268 49.4939 64.0831C55.2137 65.2229 59.2872 66.7636 61.25 68.5155C69.8191 76.1137 65.7668 91.9646 43.8375 90.2761C21.9715 88.5876 11.6506 71.7869 11.6506 71.7869L0 88.1866C0 88.1866 12.2205 107.858 43.1199 109.356C88.0549 111.53 98.0169 69.6763 76.151 53.5722C73.8715 51.9048 68.2362 48.5489 57.3665 46.0161V46.0372Z"/>
  </g>
  <g transform="translate(517.91 12.68)">
    <path d="M51.4146 48.6712V65.1553H80.9632C77.9872 86.0294 59.0128 89.4909 53.6096 89.4909C37.2734 89.4909 20.874 79.4443 20.874 54.6443C20.874 44.1122 27.8179 19.8822 53.694 19.8822C60.5958 19.8822 71.9931 20.6842 85.6698 33.6646L98.819 18.4258C93.4791 12.9382 78.9581 0 53.694 0C23.85 0 0 21.4863 0 54.5177C0 87.5491 21.8871 109.373 53.5885 109.373C75.8555 109.373 89.4479 93.3111 89.4479 85.9661V106.988H105.911V48.9667L51.3935 48.6501L51.4146 48.6712Z"/>
  </g>
  <g transform="translate(829.65 14.61)">
    <path d="M84.0025 18.514V0.00371118H62.9807C55.087 0.0670302 51.71 1.81886 49.7683 2.68422C46.0114 4.47826 42.2334 6.6311 34.6352 2.85306C32.8201 2.07213 28.3666 -0.101821 20.8739 0.00371118H0V18.5351H25.4751C29.0843 18.5351 31.9969 21.4478 32.018 25.0569L32.1236 105.24H51.7523L51.6468 25.078C51.6468 21.4689 54.5594 18.5351 58.1897 18.5351H84.0025V18.514Z"/>
  </g>
</svg>
