<svg xmlns="http://www.w3.org/2000/svg" viewBox="0 0 104.184 37" fill="none">
  <g transform="translate(0.1979 2.7269) scale(0.999976 1.000019)"><path id="Vector" d="M25.3395 10.193C28.3851 7.13147 31.4036 4.10233 34.4131 1.06428C34.6877 0.787193 34.8694 0.649455 35.2283 0.992465C37.0726 2.75505 38.4162 4.8103 38.8715 7.35726C39.4926 10.832 38.7047 13.9541 36.3997 16.6521C34.9367 18.3647 33.1087 19.4963 30.9455 20.0875C30.8718 20.1077 30.8059 20.1568 30.7314 20.1951C30.7766 20.456 31.0013 20.4829 31.169 20.5534C33.8718 21.6913 36.5763 22.8252 39.2839 23.9512C39.6447 24.1012 39.8394 24.2524 39.6565 24.7028C38.8824 26.6085 37.8765 28.3476 36.2866 29.6925C34.5404 31.1695 32.5449 32.0547 30.2653 32.2712C27.0497 32.5768 24.239 31.6079 21.8499 29.4605C19.9208 27.7264 18.7844 25.5303 18.3991 22.9488C18.1819 21.4932 18.2312 20.0529 18.613 18.6272C18.6521 18.4809 18.6968 18.3122 18.4394 18.0971C13.9485 22.6129 9.44961 27.1366 4.95791 31.653C1.66626 29.0276 -0.0237039 24.8656 0.894898 20.6468C1.85259 16.2486 4.65996 13.5528 8.85196 12.197C8.78449 11.8159 8.48664 11.769 8.24516 11.6668C5.61845 10.5538 2.9924 9.439 0.359762 8.3403C0.0432564 8.20826 -0.0826215 8.08743 0.0557293 7.726C1.09226 5.01789 2.69507 2.78192 5.29169 1.39043C8.37719 -0.263033 11.558 -0.465199 14.7907 0.909614C18.2733 2.39069 20.3751 5.06239 21.2306 8.73288C21.6014 10.3242 21.5476 11.9344 21.1785 13.5286C21.1253 13.7586 21.0241 13.9805 21.1745 14.369C22.5846 12.9552 23.9472 11.5891 25.3395 10.193Z" fill="var(--fill-0, white)"/></g>
  <g transform="translate(82.3887 11.2443) scale(0.999987 0.999885)"><path id="Vector" d="M0 19.9157L7.72911 10.0192L0 0H5.92974L10.7959 6.37958L15.417 0H21.3059L13.6177 10.0192L21.3059 19.9157H15.417L10.4688 13.5362L5.92974 19.9157H0Z" fill="var(--fill-0, white)"/></g>
  <g transform="translate(68.8760 4.4548) scale(0.999448 0.999948)"><path id="Vector" d="M5.39811 0H9.03774V26.7043H4.21216V5.76616C3.48969 6.09332 2.78085 6.3455 2.08564 6.52271C1.39043 6.69992 0.69521 6.78853 0 6.78853V2.16742C0.926947 2.072 1.82663 1.86071 2.69906 1.53355C3.57148 1.19276 4.47116 0.681579 5.39811 0Z" fill="var(--fill-0, white)"/></g>
  <g transform="translate(54.3007 4.4548) scale(0.999449 0.999948)"><path id="Vector" d="M5.3981 0H9.03773V26.7043H4.21216V5.76616C3.48968 6.09332 2.78084 6.3455 2.08563 6.52271C1.39042 6.69992 0.69521 6.78853 0 6.78853V2.16742C0.926947 2.072 1.82663 1.86071 2.69905 1.53355C3.57147 1.19276 4.47116 0.681579 5.3981 0Z" fill="var(--fill-0, white)"/></g>
</svg>
