<svg xmlns="http://www.w3.org/2000/svg" viewBox="0 0 146 46" fill="none">
  <g transform="translate(17.7390 9.6600) scale(0.997138 0.999996)"><path id="Vector" d="M0.000122773 1.75268V11.2171C0.000959137 11.6441 0.127947 12.0612 0.365335 12.4159L10.5543 25.5655C10.7841 25.9108 11.0959 26.1933 11.4621 26.3879C11.8281 26.5825 12.237 26.6829 12.6515 26.6801H21.4297C21.6573 26.6804 21.8827 26.6358 22.0931 26.5488C22.3034 26.4618 22.4945 26.3343 22.6555 26.1734C22.8165 26.0127 22.9444 25.8216 23.0315 25.6114C23.1186 25.4012 23.1635 25.1757 23.1635 24.9481V15.6607C23.1645 15.1129 23.0021 14.5772 22.6971 14.1221L12.4915 0.940776C12.2998 0.651115 12.0393 0.413547 11.7333 0.249368C11.4272 0.0851763 11.0853 -0.0004815 10.7379 7.60753e-05H1.74952C1.51896 -0.00208453 1.29035 0.0417972 1.07694 0.129169C0.863668 0.216541 0.669911 0.345634 0.507098 0.508864C0.344286 0.672109 0.215625 0.8662 0.128922 1.07979C0.0420798 1.29337 -0.00266511 1.52213 0.000122773 1.75268Z" fill="var(--fill-0, white)"/></g>
  <g transform="translate(5.0516 23.7912) scale(0.997115 0.999936)"><path id="Vector" d="M11.2428 1.71394e-06H1.30686C1.13528 -0.000277074 0.965333 0.0334577 0.806758 0.0989729C0.64817 0.164488 0.504078 0.260669 0.382694 0.381941C0.261324 0.503214 0.165044 0.647347 0.0993759 0.805838C0.0337213 0.964329 -5.38562e-05 1.13425 1.90137e-06 1.30584V11.2418C-0.000290826 11.4134 0.0332195 11.5834 0.0986371 11.742C0.164041 11.9006 0.260083 12.0448 0.38123 12.1662C0.502392 12.2876 0.646302 12.384 0.804737 12.4498C0.963158 12.5156 1.13301 12.5495 1.30456 12.5496H11.2428C11.5891 12.5496 11.9211 12.4121 12.1659 12.1673C12.4108 11.9225 12.5484 11.5905 12.5484 11.2442V1.30822C12.5487 1.13648 12.5151 0.96656 12.4496 0.80779C12.3842 0.64916 12.288 0.504888 12.1669 0.383475C12.0456 0.261924 11.9016 0.165463 11.743 0.0996695C11.5845 0.0338755 11.4146 1.71394e-06 11.2428 1.71394e-06Z" fill="var(--fill-0, white)"/></g>
  <g transform="translate(68.9412 14.1450) scale(0.997496 1.000137)"><path id="Vector" d="M0.401452 8.93236C0.451634 8.096 0.660726 7.40182 1.02873 6.84982C1.39673 6.29782 1.86509 5.85455 2.43382 5.52C3.00254 5.18545 3.63818 4.95127 4.34073 4.81746C5.06 4.66691 5.77927 4.59164 6.49854 4.59164C7.15091 4.59164 7.81164 4.64182 8.48073 4.74218C9.14982 4.82582 9.76036 5.00146 10.3124 5.26909C10.8644 5.53673 11.316 5.91309 11.6673 6.39818C12.0185 6.86655 12.1942 7.49382 12.1942 8.28V15.0295C12.1942 15.6149 12.2276 16.1753 12.2945 16.7105C12.3615 17.2458 12.4785 17.6473 12.6458 17.9149H9.03273C8.96582 17.7142 8.90727 17.5135 8.85709 17.3127C8.82364 17.0953 8.79855 16.8778 8.78182 16.6604C8.21309 17.2458 7.544 17.6556 6.77455 17.8898C6.00509 18.124 5.21891 18.2411 4.416 18.2411C3.79709 18.2411 3.22 18.1658 2.68473 18.0153C2.14945 17.8647 1.68109 17.6305 1.27964 17.3127C0.878181 16.9949 0.560365 16.5935 0.326183 16.1084C0.108729 15.6233 0 15.0462 0 14.3771C0 13.6411 0.125455 13.0389 0.376364 12.5705C0.644001 12.0855 0.978548 11.7007 1.38 11.4164C1.79818 11.132 2.26655 10.9229 2.78509 10.7891C3.32037 10.6385 3.85564 10.5215 4.39091 10.4378C4.92618 10.3542 5.45309 10.2873 5.97164 10.2371C6.49018 10.1869 6.95018 10.1116 7.35163 10.0113C7.75309 9.91091 8.07091 9.76873 8.30509 9.58473C8.53927 9.384 8.648 9.09964 8.63128 8.73164C8.63128 8.34691 8.56436 8.04582 8.43055 7.82836C8.31346 7.59418 8.14618 7.41855 7.92873 7.30145C7.728 7.16764 7.48546 7.084 7.20109 7.05055C6.93346 7.00036 6.64073 6.97527 6.32291 6.97527C5.62036 6.97527 5.06836 7.12582 4.66691 7.42691C4.26545 7.728 4.03127 8.22982 3.96436 8.93236H0.401452ZM8.63128 11.5669C8.48073 11.7007 8.28836 11.8095 8.05418 11.8931C7.83673 11.96 7.59418 12.0185 7.32655 12.0687C7.07564 12.1189 6.808 12.1607 6.52364 12.1942C6.23927 12.2276 5.95491 12.2695 5.67055 12.3196C5.40291 12.3698 5.13527 12.4367 4.86764 12.5204C4.61673 12.604 4.39091 12.7211 4.19018 12.8716C4.00618 13.0055 3.85564 13.1811 3.73854 13.3985C3.62145 13.616 3.56291 13.892 3.56291 14.2265C3.56291 14.5444 3.62145 14.812 3.73854 15.0295C3.85564 15.2469 4.01454 15.4225 4.21527 15.5564C4.416 15.6735 4.65018 15.7571 4.91782 15.8073C5.18545 15.8575 5.46146 15.8825 5.74582 15.8825C6.44837 15.8825 6.992 15.7655 7.37673 15.5313C7.76145 15.2971 8.04582 15.0211 8.22982 14.7033C8.41382 14.3687 8.52255 14.0342 8.556 13.6996C8.60618 13.3651 8.63128 13.0975 8.63128 12.8967V11.5669ZM18.1211 11.4415C18.1211 11.96 18.1713 12.4702 18.2716 12.972C18.372 13.4571 18.5393 13.9004 18.7734 14.3018C19.0243 14.6865 19.3505 14.996 19.752 15.2302C20.1534 15.4644 20.6553 15.5815 21.2574 15.5815C21.8596 15.5815 22.3614 15.4644 22.7629 15.2302C23.1811 14.996 23.5073 14.6865 23.7414 14.3018C23.9924 13.9004 24.168 13.4571 24.2683 12.972C24.3687 12.4702 24.4189 11.96 24.4189 11.4415C24.4189 10.9229 24.3687 10.4127 24.2683 9.91091C24.168 9.40909 23.9924 8.96582 23.7414 8.58109C23.5073 8.19637 23.1811 7.88691 22.7629 7.65273C22.3614 7.40182 21.8596 7.27636 21.2574 7.27636C20.6553 7.27636 20.1534 7.40182 19.752 7.65273C19.3505 7.88691 19.0243 8.19637 18.7734 8.58109C18.5393 8.96582 18.372 9.40909 18.2716 9.91091C18.1713 10.4127 18.1211 10.9229 18.1211 11.4415ZM14.5582 11.4415C14.5582 10.4044 14.7171 9.46764 15.0349 8.63127C15.3527 7.77818 15.8043 7.05891 16.3898 6.47346C16.9753 5.87127 17.6778 5.41127 18.4974 5.09346C19.3171 4.75891 20.2371 4.59164 21.2574 4.59164C22.2778 4.59164 23.1978 4.75891 24.0174 5.09346C24.8538 5.41127 25.5647 5.87127 26.1502 6.47346C26.7356 7.05891 27.1873 7.77818 27.5051 8.63127C27.8229 9.46764 27.9818 10.4044 27.9818 11.4415C27.9818 12.4785 27.8229 13.4153 27.5051 14.2516C27.1873 15.088 26.7356 15.8073 26.1502 16.4095C25.5647 16.9949 24.8538 17.4465 24.0174 17.7644C23.1978 18.0822 22.2778 18.2411 21.2574 18.2411C20.2371 18.2411 19.3171 18.0822 18.4974 17.7644C17.6778 17.4465 16.9753 16.9949 16.3898 16.4095C15.8043 15.8073 15.3527 15.088 15.0349 14.2516C14.7171 13.4153 14.5582 12.4785 14.5582 11.4415ZM30.3987 4.94291H33.7609V6.69927H33.8111C34.2795 6.03018 34.8398 5.51164 35.4922 5.14364C36.1613 4.77564 36.9224 4.59164 37.7755 4.59164C38.5951 4.59164 39.3395 4.75055 40.0086 5.06836C40.6944 5.38618 41.2129 5.94655 41.5642 6.74946C41.9489 6.18073 42.4675 5.67891 43.1199 5.244C43.7889 4.80909 44.5751 4.59164 45.4784 4.59164C46.1642 4.59164 46.7998 4.67527 47.3853 4.84255C47.9708 5.00982 48.4726 5.27746 48.8908 5.64546C49.3089 6.01346 49.6351 6.49855 49.8693 7.10073C50.1035 7.68618 50.2206 8.39709 50.2206 9.23345V17.9149H46.6577V10.5633C46.6577 10.1284 46.6409 9.71855 46.6075 9.33382C46.574 8.94909 46.482 8.61455 46.3315 8.33018C46.1809 8.04582 45.9551 7.82 45.654 7.65273C45.3697 7.48545 44.9766 7.40182 44.4747 7.40182C43.9729 7.40182 43.5631 7.50218 43.2453 7.70291C42.9442 7.88691 42.7017 8.13782 42.5177 8.45564C42.3504 8.75673 42.2333 9.108 42.1664 9.50945C42.1162 9.89418 42.0911 10.2873 42.0911 10.6887V17.9149H38.5282V10.6385C38.5282 10.2538 38.5198 9.87745 38.5031 9.50945C38.4864 9.12473 38.4111 8.77346 38.2773 8.45564C38.1602 8.13782 37.9511 7.88691 37.65 7.70291C37.3657 7.50218 36.9391 7.40182 36.3704 7.40182C36.2031 7.40182 35.9773 7.44364 35.6929 7.52727C35.4253 7.59418 35.1577 7.73636 34.89 7.95382C34.6391 8.15455 34.4217 8.45564 34.2377 8.85709C34.0537 9.24182 33.9617 9.752 33.9617 10.3876V17.9149H30.3987V4.94291ZM53.037 4.94291H56.4243V6.74946H56.4996C56.9512 5.99673 57.5367 5.45309 58.2559 5.11855C58.9752 4.76727 59.7112 4.59164 60.4639 4.59164C61.4174 4.59164 62.1952 4.72545 62.7974 4.99309C63.4163 5.244 63.9014 5.60364 64.2527 6.072C64.6039 6.52364 64.8465 7.084 64.9803 7.75309C65.1308 8.40546 65.2061 9.13309 65.2061 9.936V17.9149H61.6432V10.5884C61.6432 9.51782 61.4759 8.72327 61.1414 8.20473C60.8068 7.66946 60.213 7.40182 59.3599 7.40182C58.3898 7.40182 57.6872 7.69455 57.2523 8.28C56.8174 8.84873 56.5999 9.79382 56.5999 11.1153V17.9149H53.037V4.94291ZM71.5732 2.93564H68.0107V0H71.5732V2.93564ZM68.0107 4.94291H71.5732V17.9149H68.0107V4.94291Z" fill="var(--fill-0, white)"/></g>
</svg>
