<svg xmlns="http://www.w3.org/2000/svg" viewBox="0 0 162.353 40" fill="none">
  <g transform="translate(51.7419 12.4440) scale(0.999678 0.999981)"><path id="Vector" d="M4.49445 21.2124C5.35407 18.9421 7.55679 17.3156 10.1415 17.3156C12.7261 17.3156 14.9293 18.9421 15.7885 21.2124H20.3169L12.9717 0.894622C12.774 0.3592 12.2623 0 11.6894 0H8.62751C8.05458 0 7.53621 0.3592 7.34524 0.894622L0 21.2124H4.49445ZM7.059 13.7712L10.1415 4.90667L12.7534 12.409L13.5786 14.7945C12.515 14.3675 11.3553 14.1303 10.1415 14.1303C8.92762 14.1303 7.77505 14.3675 6.71103 14.7945L7.0657 13.7779L7.059 13.7712Z" fill="var(--fill-0, white)"/></g>
  <g transform="translate(94.1810 12.1640) scale(0.999949 1.000166)"><path id="Vector" d="M5.43591 20.3043C3.76497 19.3759 2.44155 18.0814 1.46654 16.4345C0.49108 14.7877 0 12.9172 0 10.8366C0 8.75605 0.49108 6.91947 1.46654 5.26587C2.44155 3.61902 3.76497 2.32458 5.43591 1.39609C7.1064 0.467645 8.94104 0 10.9327 0C12.9238 0 14.7857 0.467645 16.4433 1.39609C18.1003 2.32458 19.4166 3.61902 20.3849 5.26587C21.3537 6.91271 21.8376 8.7696 21.8376 10.8366C21.8376 12.9036 21.3537 14.7877 20.3849 16.4345C19.4166 18.0814 18.1003 19.3759 16.4294 20.3043C14.7585 21.2328 12.9238 21.7004 10.9327 21.7004C8.94104 21.7004 7.1064 21.2328 5.43591 20.3043ZM14.3291 17.0377C15.3041 16.4617 16.068 15.6348 16.6204 14.564C17.1727 13.4933 17.4456 12.2463 17.4456 10.8299C17.4456 9.41347 17.1727 8.1732 16.6204 7.1092C16.068 6.0452 15.3041 5.23196 14.3291 4.66267C13.3536 4.09338 12.2216 3.81551 10.9394 3.81551C9.65709 3.81551 8.51838 4.10018 7.53621 4.66267C6.55404 5.22516 5.77672 6.0452 5.23107 7.1092C4.67872 8.1732 4.40589 9.41347 4.40589 10.8299C4.40589 12.2463 4.67872 13.4933 5.23107 14.564C5.78343 15.6348 6.54734 16.4617 7.53621 17.0377C8.52509 17.6138 9.65709 17.9052 10.9394 17.9052C12.2216 17.9052 13.3536 17.6138 14.3291 17.0377Z" fill="var(--fill-0, white)"/></g>
  <g transform="translate(118.4690 12.1840) scale(0.999760 1.000014)"><path id="Vector" d="M1.41824 5.23871C2.36641 3.59187 3.6554 2.30422 5.29905 1.38253C6.93555 0.460845 8.77735 0 10.8097 0C13.1895 0 15.2764 0.609956 17.0703 1.82307C18.8638 3.03618 20.1121 4.71689 20.8281 6.86524H17.4111C16.5859 6.86524 15.7947 6.5128 15.297 5.86222C14.8949 5.3336 14.4105 4.91342 13.8514 4.58809C12.9645 4.07982 11.9417 3.82907 10.7824 3.82907C9.54081 3.82907 8.43609 4.11373 7.46778 4.69658C6.49948 5.27262 5.74899 6.08587 5.2105 7.14311C4.67156 8.20031 4.39873 9.42702 4.39873 10.8434C4.39873 12.2599 4.67156 13.473 5.2105 14.5302C5.74899 15.5874 6.50619 16.4142 7.46778 16.9903C8.42938 17.5664 9.54081 17.8577 10.7824 17.8577C11.9417 17.8577 12.9645 17.6002 13.8514 17.0852C14.4105 16.7598 14.8949 16.3329 15.297 15.8043C15.7947 15.1537 16.5927 14.7945 17.4183 14.7945H20.8349C20.1188 16.9632 18.8777 18.6439 17.0909 19.8502C15.3108 21.0566 13.2168 21.6597 10.8097 21.6597C8.77019 21.6597 6.93555 21.1989 5.29905 20.2772C3.66211 19.3555 2.36641 18.0746 1.41824 16.4346C0.470506 14.7945 0 12.9308 0 10.8502C0 8.76964 0.470506 6.89915 1.41824 5.25231V5.23871Z" fill="var(--fill-0, white)"/></g>
  <g transform="translate(142.0102 12.4440) scale(0.999678 0.999981)"><path id="Vector" d="M4.49445 21.2124C5.35407 18.9421 7.5568 17.3156 10.1415 17.3156C12.7262 17.3156 14.9293 18.9421 15.7885 21.2124H20.3169L12.9717 0.894622C12.774 0.3592 12.2623 0 11.6894 0H8.62752C8.05459 0 7.53622 0.3592 7.34524 0.894622L0 21.2124H4.49445ZM7.05184 13.7712L10.1348 4.90667L12.7467 12.409L13.5719 14.7945C12.5079 14.3675 11.3486 14.1303 10.1348 14.1303C8.92091 14.1303 7.76835 14.3675 6.70434 14.7945L7.05901 13.7779L7.05184 13.7712Z" fill="var(--fill-0, white)"/></g>
  <g transform="translate(71.5814 12.4640) scale(1.000086 0.999939)"><path id="Vector" d="M20.8281 0L13.3398 20.2975C13.1421 20.8329 12.6304 21.1853 12.0575 21.1853H8.77064C8.19771 21.1853 7.68605 20.8329 7.48836 20.2975L0 0H3.60754C4.18763 0 4.706 0.365955 4.89653 0.914933L10.4416 16.8479L15.9589 0.914933C16.1499 0.365955 16.6678 0 17.2479 0H20.8281Z" fill="var(--fill-0, white)"/></g>
  <g transform="translate(4.4322 6.5600) scale(0.999796 0.999990)"><path id="Vector" d="M16.8863 2.79889L16.6202 2.77858C11.0006 2.52782 5.40822 1.59262 0 0C1.99143 2.2432 7.652 8.89156 10.8028 15.4721L10.8779 15.628C13.2716 20.3043 15.1335 25.2448 16.3747 30.3683C17.5819 26.9052 20.3235 19.735 24.0472 14.3268L24.1972 14.1032C27.1366 9.50831 30.6216 5.25898 34.6045 1.48413C30.9422 2.16187 23.3993 3.32076 16.8931 2.79889H16.8863Z" fill="var(--fill-0, white)"/></g>
  <g transform="translate(21.9988 22.1840) scale(1.000412 0.999915)"><path id="Vector" d="M6.58129 1.67391C3.67598 6.49924 1.5072 12.1378 0.409191 15.3027L0 16.4752C0.559246 17.6748 2.14829 18.0746 3.19858 17.1597C5.34007 15.3096 7.47468 13.4594 9.61617 11.6024C10.2095 11.0874 10.455 10.2877 10.2504 9.53542C9.39111 6.35693 8.53181 3.17844 7.6725 0L6.58809 1.69427L6.57449 1.67391H6.58129Z" fill="var(--fill-0, white)"/></g>
  <g transform="translate(0.0000 6.1760) scale(0.999525 0.999933)"><path id="Vector" d="M1.81252 0.00675541C0.680411 0.142311 -0.199369 1.21307 0.0393298 2.42618C0.584927 5.19125 1.13051 7.96311 1.66929 10.7282C1.81933 11.494 2.39904 12.1107 3.15606 12.3072C6.36826 13.1612 9.58727 14.0151 12.7995 14.869C9.59407 8.96618 4.67688 3.23267 3.14241 1.49773L1.81252 0V0.00675541Z" fill="var(--fill-0, white)"/></g>
  <g transform="translate(22.1125 0.0000) scale(0.999930 1.000200)"><path id="Vector" d="M1.84823 7.78751C7.42011 7.8824 13.3262 6.98102 16.593 6.37787L18.1888 6.08644C19.1027 5.00889 18.673 3.32136 17.2954 2.85374C14.6152 1.93883 11.9281 1.02392 9.24786 0.10901C8.50448 -0.141744 7.67929 0.0479956 7.12685 0.596942C4.7535 2.96216 2.37335 5.32062 0 7.68582L1.86867 7.76716L1.85503 7.79427L1.84823 7.78751Z" fill="var(--fill-0, white)"/></g>
</svg>
