<svg width="212" height="30" viewBox="0 0 212 30" fill="none" xmlns="http://www.w3.org/2000/svg">
<g clip-path="url(#clip0_2_76)">
<mask id="mask0_2_76" style="mask-type:luminance" maskUnits="userSpaceOnUse" x="0" y="0" width="212" height="30">
<path d="M211.368 0H0V29.7923H211.368V0Z" fill="white"/>
</mask>
<g mask="url(#mask0_2_76)">
<path d="M61.0378 15.663C63.5741 16.1436 64.6625 17.696 64.6625 20.7547V22.2795C64.6625 25.8741 63.0255 27.5005 59.3378 27.5005H41.9966C41.5019 27.5005 41.2861 27.2418 41.2861 26.7982V4.74966C41.2861 4.30611 41.5019 4.04736 41.9966 4.04736H58.969C62.6567 4.04736 64.3297 5.70146 64.3297 9.26841V10.6083C64.3297 13.5376 63.3043 15.0901 61.0468 15.6353V15.663H61.0378ZM46.5838 13.5654H56.6755C58.5373 13.5654 59.059 13.0572 59.059 11.4308V10.636C59.059 8.95426 58.5283 8.50141 56.6755 8.50141H46.5838V13.5931V13.5654ZM46.5838 17.8531V23.1296H56.9902C58.8791 23.1296 59.3738 22.6491 59.3738 20.995V19.9785C59.3738 18.2966 58.8791 17.8439 56.9902 17.8439H46.5838V17.8531Z" fill="white"/>
<path d="M102.409 4.04736C102.904 4.04736 103.12 4.30611 103.12 4.74966V7.74372C103.12 8.18726 102.904 8.44595 102.409 8.44595H88.3869V13.5376H99.8731C100.341 13.5376 100.584 13.7594 100.584 14.2399V17.1323C100.584 17.5759 100.332 17.8346 99.8731 17.8346H88.3869V23.1111H102.409C102.904 23.1111 103.12 23.3699 103.12 23.8134V26.8075C103.12 27.251 102.904 27.5097 102.409 27.5097H83.8631C83.3685 27.5097 83.1162 27.251 83.1162 26.8075V23.0187H74.7517L72.5211 26.9276C72.2692 27.4081 71.9365 27.5005 71.4058 27.5005H67.1335C66.7287 27.5005 66.6388 27.1216 66.8276 26.7982L79.6808 4.62953C79.9323 4.18598 80.2654 4.0566 80.7962 4.0566H102.409V4.04736ZM83.1162 18.7125V8.21495L77.1439 18.7125H83.1162Z" fill="white"/>
<path d="M130.923 9.29625V13.9074C130.923 17.5298 129.286 19.3779 125.562 19.3779H124.698L131.633 26.826C131.939 27.0848 131.759 27.5283 131.418 27.5283H126.498C125.877 27.5283 125.634 27.3989 125.292 26.9832L118.852 19.5997H113.033V26.8168C113.033 27.2603 112.727 27.5191 112.286 27.5191H108.482C107.987 27.5191 107.772 27.2603 107.772 26.8168V4.7775C107.772 4.33393 107.987 4.0752 108.482 4.0752H125.634C129.348 4.0752 130.995 5.7293 130.995 9.29625H130.932H130.923ZM112.997 15.2196H122.963C125.256 15.2196 125.625 14.8038 125.625 12.8632V10.7932C125.625 8.85271 125.22 8.43686 122.963 8.43686H112.997V15.2103V15.2196Z" fill="white"/>
<path d="M138.973 20.5607C139.441 20.5607 139.72 20.7826 139.72 21.263V21.6142C139.72 22.6676 140.152 23.1389 141.267 23.1389H150.684C152.42 23.1389 152.852 22.6954 152.852 21.2908V19.6644C152.852 18.269 152.42 17.8162 150.684 17.8162H140.215C136.527 17.8162 134.89 16.1621 134.89 12.5952V9.28694C134.89 5.6923 136.527 4.06592 140.215 4.06592H152.357C156.288 4.06592 157.682 5.43356 157.682 9.28694V10.3404C157.682 10.8209 157.43 11.0427 156.971 11.0427H153.283C152.788 11.0427 152.572 10.8209 152.572 10.3404V9.98925C152.572 8.93579 152.105 8.46456 150.962 8.46456H142.355C140.619 8.46456 140.188 8.9081 140.188 10.3127V11.6803C140.188 13.1126 140.619 13.5562 142.355 13.5562H152.788C156.503 13.5562 158.149 15.1826 158.149 18.7772V22.3072C158.149 25.9019 156.512 27.5283 152.788 27.5283H139.935C136.005 27.5283 134.611 26.1606 134.611 22.3072V21.2538C134.611 20.7732 134.863 20.5515 135.322 20.5515H139.009H138.982L138.973 20.5607Z" fill="white"/>
<path d="M169.571 20.5608H167.152V26.8908C167.152 27.3066 166.962 27.5284 166.504 27.5284H163.032C162.564 27.5284 162.348 27.3066 162.348 26.8908V3.35441C162.348 2.93857 162.564 2.7168 163.032 2.7168H166.504C166.972 2.7168 167.152 2.93857 167.152 3.35441V16.7813H169.724L175.202 10.3589C175.507 10.0078 175.732 9.87844 176.191 9.87844H180.31C180.652 9.87844 180.805 10.2573 180.526 10.5161L173.528 18.5925L180.678 26.863C180.931 27.1218 180.805 27.5006 180.463 27.5006H176.101C175.633 27.5006 175.39 27.4082 175.075 27.0201L169.562 20.5331V20.5608H169.571Z" fill="white"/>
<path d="M184.025 3.79777C184.025 3.35421 184.242 3.16016 184.709 3.16016H188.181C188.648 3.16016 188.828 3.35421 188.828 3.79777V6.53305C188.828 6.97661 188.64 7.17066 188.181 7.17066H184.709C184.242 7.17066 184.025 6.97661 184.025 6.53305V3.79777ZM184.025 10.5435C184.025 10.1278 184.242 9.90591 184.709 9.90591H188.181C188.648 9.90591 188.828 10.1278 188.828 10.5435V26.8998C188.828 27.3156 188.64 27.5374 188.181 27.5374H184.709C184.242 27.5374 184.025 27.3156 184.025 26.8998V10.5435Z" fill="white"/>
<path d="M206.566 15.9495C206.566 14.2031 206.224 13.8796 204.182 13.8796H201.736C199.568 13.8796 198.732 14.7668 198.732 16.6149V26.8629C198.732 27.2788 198.543 27.5005 198.084 27.5005H194.612C194.145 27.5005 193.928 27.2788 193.928 26.8629V10.5068C193.928 10.0909 194.145 9.86914 194.612 9.86914H197.527C197.995 9.86914 198.21 10.0909 198.21 10.5068V12.9278C198.768 10.9225 200.351 9.87837 202.95 9.87837H206.512C209.921 9.87837 211.378 11.3384 211.378 14.6835V26.8721C211.378 27.288 211.162 27.5098 210.73 27.5098H207.258C206.827 27.5098 206.575 27.288 206.575 26.8721V15.9588L206.566 15.9495Z" fill="white"/>
<path fill-rule="evenodd" clip-rule="evenodd" d="M33.2887 3.03098C32.6681 1.92208 31.9305 0.914839 31.0851 0C29.1782 0.656097 27.1815 1.08118 25.1578 1.26599C25.7334 1.59866 26.7228 2.25475 27.5233 2.79072C28.2338 3.262 29.1063 2.95705 29.9788 2.67059C30.3475 2.55046 30.7343 2.41185 31.0851 2.33792C31.0851 2.33792 31.0581 2.59666 31.0131 2.85541C30.9682 3.16035 30.9232 3.49302 30.9412 3.49302C30.9412 3.49302 33.4416 5.94183 33.5855 12.05C34.3231 9.85992 34.6378 7.57745 34.5479 5.27649C34.386 4.99003 33.9093 4.05671 33.2617 3.02174H33.2887V3.03098ZM1.30463 3.03098C0.845913 3.78873 0.432172 4.53723 0.01843 5.29498C-0.0715139 7.59594 0.252285 9.87838 0.980828 12.0685C1.11574 5.9788 3.62518 3.5115 3.62518 3.5115C3.62518 3.5115 3.5982 3.28048 3.55323 3.02174C3.50825 2.71679 3.46328 2.36565 3.48127 2.36565C3.85004 2.43957 4.21881 2.55046 4.60557 2.69832C5.47803 3.00326 6.37747 3.28972 7.06104 2.81845C7.86154 2.27324 8.87792 1.64486 9.42654 1.29372C7.40282 1.10889 5.43305 0.683819 3.49926 0.0277224C2.65379 0.942562 1.88927 1.97753 1.29564 3.05871L1.30463 3.03098ZM12.1608 27.399L17.2337 28.9792L22.3335 27.399L17.2607 25.9205L12.1608 27.399ZM15.129 18.3892L17.1977 20.1265L19.2665 18.3892L17.1977 18.6017L15.129 18.3892ZM26.8397 17.3819C28.3778 20.8657 28.0809 25.6802 25.5535 29.8015C37.1293 24.6267 32.9738 14.0183 32.9738 14.0183C30.2216 11.4124 27.964 8.30746 26.363 4.84218C23.6557 2.95705 20.0669 2.86465 17.2697 4.62964C15.4348 3.45606 13.2312 3.10491 11.1175 3.59467C10.0832 3.82569 9.07577 4.25077 8.17631 4.81445C6.56634 8.27054 4.31775 11.3755 1.56547 13.9905C1.06178 15.4229 0.827928 16.9292 0.854905 18.4632C0.854905 21.9931 2.27602 26.8075 8.98584 29.8015V29.7554L8.689 29.2841C6.53037 25.6894 6.1616 21.2631 7.68165 17.3635C6.4854 19.1747 5.8468 21.3185 5.8468 23.4994C5.8468 23.8782 5.8468 24.2478 5.77484 24.6267C3.64317 21.0505 2.32999 18.1397 3.40931 15.5985L5.18121 12.4012C7.68165 7.15238 10.5059 8.56623 13.591 10.1002C14.0767 10.3312 14.5534 10.5715 15.0391 10.784C14.3285 11.6065 13.7079 12.5028 13.1772 13.4454C12.3048 15.4414 11.8461 17.6315 11.8191 19.8215V19.8677L10.1641 22.8063C10.4159 23.9152 10.8297 24.9686 11.3784 25.9574C11.7921 26.5673 16.8199 25.0425 16.8199 25.0425C16.8199 24.4788 16.4062 24.0076 15.8575 23.9152L14.4994 23.7026L14.4275 23.6287C13.6 22.8802 12.9344 21.9838 12.4487 20.9674L12.4037 20.8288L12.4487 20.6902C12.9973 19.304 13.8248 18.0288 14.8862 16.9754L15.0481 16.8368L16.0375 17.1232C16.8379 17.3542 17.6924 17.3542 18.4929 17.1232L19.4823 16.8368L19.6442 16.9754C20.6965 18.0381 21.524 19.304 22.0817 20.6902L22.1266 20.8288L22.0817 20.9674C21.596 21.9746 20.9304 22.871 20.1029 23.6287L20.0309 23.7026L18.6728 23.9152C18.1242 24.0076 17.7104 24.4788 17.7104 25.0425C17.7104 25.0425 22.7652 26.5673 23.152 25.9574C23.7007 24.9686 24.1144 23.9152 24.3662 22.8063L22.7382 19.8677V19.8215C22.7113 17.6315 22.2525 15.4691 21.3622 13.4454C20.8135 12.4843 20.1658 11.588 19.4553 10.7378C20.2108 9.74908 20.5616 8.50154 20.4177 7.25403C19.6622 6.33918 18.7628 5.53524 17.7554 4.90686C17.6655 4.83294 17.5755 4.78673 17.4585 4.72205C20.2108 3.50226 23.4038 3.7148 25.9762 5.26725C27.7032 10.3035 32.1284 14.6282 32.1284 14.6282C32.8659 17.9641 32.6771 20.5978 31.8945 22.4089C31.2559 23.9152 28.6835 27.6762 28.7465 23.5178C28.7465 21.3278 28.1259 19.1932 26.9117 17.3819L26.8397 17.4097V17.3819ZM22.1087 12.7708C22.1087 12.7708 21.9917 13.547 22.9542 13.547C23.9165 13.547 23.9615 12.281 23.7097 12.087L22.0997 12.7708H22.1087ZM10.6948 12.087C10.4429 12.2718 10.5149 13.547 11.4503 13.547C12.3857 13.547 12.2958 12.7708 12.2958 12.7708L10.6858 12.087H10.6948Z" fill="white"/>
</g>
</g>
<defs>
<clipPath id="clip0_2_76">
<rect width="211.538" height="30" fill="white"/>
</clipPath>
</defs>
</svg>
