<svg width="60.1484" height="32.2134" viewBox="0 0 60.1484 32.2134" fill="none" xmlns="http://www.w3.org/2000/svg">
<g clip-path="url(#clip0_clay)">
<path d="M32.3774 8.06505C34.2445 7.96152 35.9055 8.24238 37.5108 9.24285C38.3051 9.73794 38.6603 10.0432 39.2316 10.803C39.7157 11.4469 40.0731 12.0108 40.3021 12.8085C40.8073 14.569 40.7598 16.3685 40.7727 18.1829C40.7803 19.2391 40.6441 20.6414 41.3739 21.504C41.8873 22.1109 42.6096 21.2889 42.8798 21.2976C42.9478 21.3652 43.0009 21.5936 43.0406 21.6968C43.3791 22.5792 43.6729 23.4797 44.0019 24.3661C44.0951 24.6174 43.839 24.7732 43.6679 24.904C41.887 26.2634 38.5848 26.3701 37.324 24.2572C37.273 24.176 37.0323 23.8324 36.9474 23.8145C36.5992 23.8106 36.1084 24.5157 35.8583 24.6998C35.0825 25.2708 33.9114 25.9283 32.9538 26.1065C31.9528 26.2929 30.4303 26.2393 29.4207 26.059C29.1427 26.0094 28.4048 25.6435 28.1127 25.5186C27.7367 25.3453 27.3964 25.1034 27.1092 24.8051C26.1294 23.7937 25.8466 22.417 25.8424 21.0653C25.839 19.9473 26.2538 18.5996 27.1143 17.8723C27.3814 17.6465 27.8249 17.1828 28.1223 17.0132C29.0494 16.4841 30.0382 16.1492 31.0714 15.8979C31.4325 15.8101 31.8637 15.6549 32.2227 15.6057C33.5096 15.4292 34.874 15.3117 36.171 15.3407C36.0971 14.2059 35.8954 13.0374 34.7639 12.5011C33.9585 12.1036 32.7015 12.1263 31.8804 12.403C30.9308 12.7232 30.2078 13.694 29.8913 14.6049C29.8689 14.6382 29.8259 14.74 29.7793 14.7378C29.2859 14.7135 28.8418 14.3863 28.3972 14.2061C28.0231 14.0544 27.6619 13.9169 27.2978 13.7616C26.8652 13.5771 26.3758 13.4288 25.9868 13.1699C26.0933 12.2856 26.5675 11.3771 27.1522 10.7166C27.4507 10.3814 27.7263 9.99622 28.0855 9.72269C29.4446 8.68805 30.6899 8.22212 32.3774 8.06505ZM31.7392 22.456C32.8147 22.5502 33.9107 22.3116 34.751 21.6024C35.7979 20.7187 36.1625 20.2178 36.3447 18.8676C35.8951 18.871 35.4453 18.8787 34.9957 18.8907C33.8679 18.9233 31.6328 19.0364 30.7481 19.8561C30.009 20.5408 30.3839 22.2697 31.4878 22.4067C31.5756 22.4232 31.6542 22.4414 31.7392 22.456Z" fill="var(--fill-0, white)"/>
<path d="M40.8058 6.96026C41.4558 6.98728 42.3155 7.07795 42.9708 7.13385C43.6516 7.19195 45.0323 7.30111 45.6712 7.47734C46.0065 8.34918 46.3063 9.52997 46.6017 10.4575L48.5185 16.408C48.6484 16.8164 48.7522 17.2262 48.8865 17.6356C49.1068 18.3057 49.2024 18.8585 49.5377 19.489C49.6425 19.2194 49.8023 18.9845 49.913 18.723C50.4132 17.5449 51.104 16.4624 51.67 15.3267L54.2062 10.3559C54.4037 9.95664 54.5966 9.55498 54.7844 9.15105C54.9178 8.85921 55.0445 8.53922 55.2144 8.26959C55.9342 8.32867 59.6988 8.47287 60.087 8.63847L60.0964 8.68789C59.959 8.75446 59.7897 9.15065 59.7098 9.29995L59.0413 10.5738L57.1576 14.2802C56.943 14.6977 56.7118 15.091 56.491 15.5033C56.1626 16.1162 55.865 16.8747 55.5466 17.475C55.2635 18.0093 55.009 18.414 54.7299 18.9885C54.6862 19.1735 53.8334 20.7007 53.7135 20.9402C53.505 21.3564 53.2797 21.8494 53.0762 22.2726C52.7761 22.8968 52.4017 23.4962 52.0928 24.1L49.3742 29.4267C48.9457 30.2766 48.5326 31.304 48.023 32.1139C47.4951 32.128 46.916 32.0277 46.3966 31.9971C45.4139 31.9393 44.4673 31.831 43.4924 31.6948C43.7428 31.0405 44.119 30.5761 44.3782 29.9965C45.1436 28.2853 46.1453 26.6594 46.9006 24.9538C46.8122 24.5625 46.5165 23.8106 46.3806 23.4024L45.0282 19.4748C44.7708 18.7375 44.5566 17.8948 44.2694 17.178C43.6585 15.6539 43.2335 14.0964 42.6905 12.5536L41.244 8.32971C41.1566 8.06936 40.7328 7.13976 40.8058 6.96026Z" fill="var(--fill-0, white)"/>
<path d="M10.3166 7.12364C12.8046 7.03543 15.3768 8.19181 17.0696 9.99151C17.3863 10.3283 17.5875 10.7119 17.8788 11.0598C17.1684 11.5539 16.4357 12.0152 15.6831 12.4423C15.455 12.5739 15.2235 12.6865 14.9979 12.8142C14.7698 12.9433 14.5246 13.2076 14.2781 13.3168C14.1344 13.3062 13.9581 13.0263 13.8661 12.9077C12.624 11.3066 10.684 11.0353 8.79842 11.3633C7.89698 11.5201 6.70467 12.2683 6.19734 13.0438C5.31953 14.3746 5.01294 16.0021 5.34636 17.5611C5.56579 18.6097 6.32746 19.9845 7.26083 20.5244C9.83293 22.0121 12.9754 21.2163 14.5513 18.7527C15.0783 18.9945 16.0939 19.3385 16.6652 19.5522C16.9287 19.6417 18.3206 20.1614 18.4391 20.3509C18.349 20.7395 17.5369 21.9607 17.2492 22.2714C16.5097 23.1459 15.7624 23.6335 14.795 24.1863C13.3333 25.0215 11.9747 25.2823 10.2968 25.3675C8.97012 25.4349 7.33315 25.2279 6.09598 24.7041C5.37902 24.4006 4.57953 23.8531 3.95266 23.3911C3.67816 23.1884 3.39704 22.8448 3.16907 22.5862C1.75155 20.9909 0.917935 18.9615 0.804795 16.8304C0.715613 15.1737 0.845949 14.1517 1.47867 12.6274C3.03021 8.88952 6.51212 7.31931 10.3166 7.12364Z" fill="var(--fill-0, white)"/>
<path d="M19.5816 0.0670514C20.0248 0.0344426 20.5112 0.0685611 20.9573 0.0732452L23.9979 0.11441C24.0097 0.494804 23.9856 0.919279 23.9857 1.30768C23.9889 2.60075 23.9766 3.89382 23.9486 5.1866L23.82 15.1563L23.7486 22.8284L23.7272 25.1067C23.7264 25.3119 23.7657 26.3691 23.6583 26.464C23.0402 26.5067 22.4641 26.4235 21.865 26.4364C21.0367 26.4541 20.0534 26.3559 19.2437 26.4194C19.1697 25.2859 19.2344 23.8247 19.2459 22.6543L19.3052 16.2639L19.4157 8.21972C19.438 5.57351 19.4489 2.91482 19.5184 0.268212C19.5206 0.181356 19.5242 0.137531 19.5816 0.0670514Z" fill="var(--fill-0, white)"/>
</g>
<defs>
<clipPath id="clip0_clay">
<rect width="60.1484" height="32.2134" fill="white"/>
</clipPath>
</defs>
</svg>
