<svg xmlns="http://www.w3.org/2000/svg" viewBox="0 0 208 32" fill="none">
  <g transform="translate(19.5104 2.0160) scale(0.998958 1.008205)"><g id="Group">
<path id="Vector" fill-rule="evenodd" clip-rule="evenodd" d="M9.14581 16.7987C9.90992 16.7987 11.4146 16.7516 13.5071 15.8935C15.9405 14.8943 20.7838 13.0722 24.2752 11.203C26.7203 9.89816 27.7901 8.1701 27.7901 5.8425C27.7901 2.60973 25.1686 0 21.9476 0H8.41697C3.77353 0 0.0235085 3.76177 0.0235085 8.39346C0.0235085 13.0251 3.55017 16.7869 9.16932 16.7869L9.14581 16.7987Z" fill="var(--fill-0, #F6F6FA)"/>
<path id="Vector_2" fill-rule="evenodd" clip-rule="evenodd" d="M11.4381 22.5824C11.4381 20.3136 12.8018 18.2564 14.906 17.3865L19.1615 15.6231C23.4758 13.8363 28.2133 16.9985 28.2133 21.6655C28.2133 25.2862 25.2862 28.2133 21.6655 28.2133H17.0573C13.9538 28.2133 11.4381 25.6976 11.4381 22.5824Z" fill="var(--fill-0, #F6F6FA)"/>
<path id="Vector_3" d="M4.84328 17.9037C2.17478 17.9037 3.56257e-06 20.0667 3.56257e-06 22.747V23.37C3.56257e-06 26.0385 2.16302 28.2133 4.84328 28.2133C7.51179 28.2133 9.68657 26.0503 9.68657 23.37V22.747C9.68657 20.0785 7.52355 17.9037 4.84328 17.9037Z" fill="var(--fill-0, #F6F6FA)"/>
</g></g>
  <g transform="translate(56.9088 2.0160) scale(0.998684 1.008128)"><path id="Vector" d="M10.1921 28.2133C14.3888 28.2133 18.0565 26.1208 19.5024 21.8888C19.7846 21.0424 19.3849 20.4781 18.5738 20.4781H16.9985C16.2697 20.4781 15.7877 20.7955 15.4703 21.4891C14.2242 23.946 12.4844 24.8277 10.3096 24.8277C6.44204 24.8277 4.06742 22.1239 4.06742 17.6098C4.06742 13.0957 6.52433 10.3919 10.2273 10.3919C12.4844 10.3919 14.3418 11.3559 15.5056 13.6599C15.87 14.3418 16.3049 14.6709 17.0338 14.6709H18.609C19.4084 14.6709 19.8198 14.1419 19.5377 13.3778C17.8449 8.78139 14.0596 7.0063 10.1921 7.0063C4.34955 7.0063 0 11.3206 0 17.6098C0 23.899 4.14971 28.2133 10.1921 28.2133ZM115.651 15.7642C116.168 12.3433 118.508 10.2038 121.693 10.2038C124.879 10.2038 127.254 12.3786 127.536 15.7642H115.651ZM121.858 28.2133C125.561 28.2133 129.276 26.4852 131.086 22.5706C131.533 21.642 131.121 20.9954 130.322 20.9954H128.829C128.1 20.9954 127.665 21.3128 127.301 21.9593C126.09 24.0989 123.997 24.9805 121.858 24.9805C118.19 24.9805 115.816 22.4766 115.533 18.4092H130.322C131.121 18.4092 131.65 17.9625 131.65 17.1161C131.486 10.7916 127.383 7.0063 121.693 7.0063C116.004 7.0063 111.501 11.1207 111.501 17.6098C111.501 24.0989 115.898 28.2133 121.858 28.2133ZM98.4056 18.1388H99.734C100.533 18.1388 100.98 17.6921 101.109 16.8457C101.874 11.4029 105.059 10.674 108.457 10.8386C109.185 10.8739 109.773 10.3096 109.773 9.59252V8.34643C109.773 7.54706 109.374 7.05332 108.562 7.01806C105.565 6.9005 102.885 7.93499 101.345 10.8504C101.262 11.0149 101.015 10.9679 101.004 10.7916L100.757 8.5933C100.674 7.79392 100.24 7.38248 99.4284 7.38248H93.3508C92.6337 7.38248 92.0576 7.9585 92.0576 8.67559V9.35741C92.0576 10.0627 92.6337 10.6505 93.3508 10.6505H95.8547C96.56 10.6505 97.1478 11.2265 97.1478 11.9436V16.8574C97.1478 17.5628 97.7238 18.1506 98.4409 18.1506L98.4056 18.1388ZM92.9628 27.8136H105.577C106.376 27.8136 106.87 27.3316 106.87 26.5205V25.8387C106.87 25.0393 106.388 24.5456 105.577 24.5456H102.356C101.556 24.5456 101.062 24.0636 101.062 23.2525V21.0307C101.062 20.2313 100.58 19.7376 99.7693 19.7376H98.3939C97.5945 19.7376 97.1008 20.2195 97.1008 21.0307V23.2525C97.1008 24.0518 96.6188 24.5456 95.8077 24.5456H92.9511C92.1517 24.5456 91.658 25.0275 91.658 25.8387V26.5205C91.658 27.3199 92.1399 27.8136 92.9511 27.8136H92.9628ZM73.4956 15.7642C74.0129 12.3433 76.3522 10.2038 79.538 10.2038C82.7238 10.2038 85.0984 12.3786 85.3805 15.7642H73.4956ZM79.7026 28.2133C83.4056 28.2133 87.1203 26.4852 88.9307 22.5706C89.3774 21.642 88.9659 20.9954 88.1666 20.9954H86.6736C85.9448 20.9954 85.5098 21.3128 85.1454 21.9593C83.9346 24.0989 81.8421 24.9805 79.7026 24.9805C76.0348 24.9805 73.6602 22.4766 73.3781 18.4092H88.1666C88.9659 18.4092 89.4949 17.9625 89.4949 17.1161C89.3304 10.7916 85.2277 7.0063 79.538 7.0063C73.8483 7.0063 69.3459 11.1207 69.3459 17.6098C69.3459 24.0989 73.7425 28.2133 79.7026 28.2133ZM33.0801 28.2133C39.1224 28.2133 43.4367 23.7462 43.4367 17.6098C43.4367 11.4734 39.1224 7.0063 33.0801 7.0063C27.0377 7.0063 22.7235 11.5557 22.7235 17.6098C22.7235 19.0205 22.9703 20.5957 23.6874 22.3238C24.0518 23.1702 24.7337 23.2877 25.4625 22.7705L26.6263 21.9241C27.2376 21.4774 27.3904 20.9601 27.1906 20.196C26.8732 19.185 26.7909 18.3034 26.7909 17.5393C26.7909 13.3073 29.3301 10.4037 33.0801 10.4037C36.8301 10.4037 39.3693 13.2602 39.3693 17.6216C39.3693 21.9829 36.8654 24.8395 33.1624 24.8395C31.8693 24.8395 30.6585 24.5926 29.2125 23.5111C28.6012 23.0291 28.0487 22.9468 27.4022 23.4288L26.5205 24.0753C25.7917 24.5926 25.7211 25.3214 26.4029 25.8857C28.4954 27.5785 30.9171 28.2251 33.0918 28.2251L33.0801 28.2133ZM48.5504 27.8136H49.8788C50.5841 27.8136 51.1719 27.2376 51.1719 26.5205V16.8927C51.1719 12.8253 53.3466 10.4037 56.7322 10.4037C59.7887 10.4037 61.5638 12.4138 61.5638 16.1286V26.5205C61.5638 27.2258 62.1398 27.8136 62.8569 27.8136H64.2323C64.9376 27.8136 65.5254 27.2376 65.5254 26.5205V15.482C65.5254 10.0392 62.7393 7.01806 58.0253 7.01806C54.8161 7.01806 52.9234 8.33468 51.501 10.1568C51.3952 10.2979 51.1719 10.2156 51.1719 10.051V1.29311C51.1719 0.57602 50.5841 0 49.8788 0H48.5504C47.8451 0 47.2573 0.57602 47.2573 1.29311V26.5205C47.2573 27.2258 47.8333 27.8136 48.5504 27.8136Z" fill="var(--fill-0, #F6F6FA)"/></g>
</svg>
