<svg width="159" height="50" viewBox="0 0 159.091 50" fill="none" xmlns="http://www.w3.org/2000/svg">
  <svg x="0" y="1.2451" width="55.0672" height="47.5103" viewBox="0 0 55.0672 47.5103" fill="none" overflow="visible">
    <path d="M1.67911 34.7516C1.67911 35.8201 2.58155 36.6878 3.69304 36.6878H14.5632C20.4623 36.6878 25.3366 40.9863 25.9739 46.5006C26.0401 47.074 26.5399 47.5103 27.1415 47.5103H36.5381C37.1857 47.5103 37.7108 47.0054 37.7108 46.3829C37.7108 38.8934 31.3937 32.8204 23.6031 32.8204H3.69304C2.58155 32.8204 1.67911 33.6881 1.67911 34.7566V34.7516Z" fill="white"/>
    <path d="M5.31783 41.1089C9.53438 41.1089 13.134 43.6823 14.5106 47.2751C14.5616 47.4123 14.6992 47.5054 14.8522 47.5054H23.5198C23.7289 47.5054 23.8921 47.3339 23.8818 47.1329C23.5656 42.4568 19.5073 38.7416 14.5616 38.7416H1.22876C0.550649 38.7416 0 39.2708 0 39.9227C0 40.5746 0.550649 41.104 1.22876 41.104H5.31783V41.1089Z" fill="white"/>
    <path d="M5.6305 47.5053C6.98774 47.5053 8.08801 46.4476 8.08801 45.1428C8.08801 43.8381 6.98774 42.7803 5.6305 42.7803C4.27324 42.7803 3.17297 43.8381 3.17297 45.1428C3.17297 46.4476 4.27324 47.5053 5.6305 47.5053Z" fill="white"/>
    <path d="M33.8446 4.26913C32.8809 3.73487 31.647 4.05347 31.0913 4.97986L25.6562 14.0281C22.7041 18.9394 16.3972 20.846 11.1099 18.6207C10.5593 18.3904 9.91684 18.5864 9.61602 19.0864L4.91511 26.9092C4.58881 27.4484 4.78255 28.1395 5.3434 28.4532C12.0939 32.1979 20.7208 29.9775 24.6161 23.4879L34.5686 6.91105C35.1244 5.98466 34.7929 4.7985 33.8293 4.26424L33.8446 4.26913Z" fill="white"/>
    <path d="M26.2994 4.11723C24.1936 7.62671 20.0739 9.33734 16.148 8.69034C15.9951 8.66582 15.8473 8.72954 15.7708 8.85699L11.437 16.072C11.335 16.2435 11.4013 16.4691 11.5899 16.5573C15.9594 18.6356 21.3384 17.1111 23.8061 12.9939L30.47 1.89194C30.8116 1.32828 30.6077 0.602852 30.0214 0.279352C29.435 -0.0490497 28.6804 0.147011 28.3439 0.71069L26.2994 4.11232V4.11723Z" fill="white"/>
    <path d="M22.5112 4.72507C23.8685 4.72507 24.9687 3.66734 24.9687 2.36254C24.9687 1.05776 23.8685 2.26629e-05 22.5112 2.26629e-05C21.1538 2.26629e-05 20.0537 1.05776 20.0537 2.36254C20.0537 3.66734 21.1538 4.72507 22.5112 4.72507Z" fill="white"/>
    <path d="M45.2226 46.2948C46.1862 45.7606 46.5176 44.5744 45.9618 43.6479L40.5267 34.5998C37.5747 29.6885 39.0124 23.4782 43.6623 20.1942C44.1468 19.8511 44.2895 19.2188 43.9888 18.7189L39.2878 10.8961C38.9615 10.3569 38.2425 10.1706 37.6817 10.4844C30.9312 14.2291 28.6215 22.5273 32.5169 29.012L42.4693 45.5889C43.0251 46.5153 44.2589 46.8339 45.2226 46.2997V46.2948Z" fill="white"/>
    <path d="M49.1345 40.0847C47.0288 36.5752 47.5437 32.2913 50.093 29.3455C50.1899 29.2327 50.2052 29.0758 50.1287 28.9485L45.795 21.7335C45.6929 21.5619 45.4534 21.508 45.2799 21.6158C41.2214 24.2185 39.906 29.4533 42.3788 33.5705L49.0427 44.6724C49.3843 45.2361 50.1339 45.4322 50.7202 45.1038C51.3066 44.7754 51.5105 44.0549 51.1689 43.4913L49.1243 40.0897L49.1345 40.0847Z" fill="white"/>
    <path d="M52.6096 40.1678C53.9668 40.1678 55.0671 39.1101 55.0671 37.8053C55.0671 36.5006 53.9668 35.4428 52.6096 35.4428C51.2523 35.4428 50.1521 36.5006 50.1521 37.8053C50.1521 39.1101 51.2523 40.1678 52.6096 40.1678Z" fill="white"/>
  </svg>
  <svg x="72.068" y="12.62" width="84.9469" height="28.2177" viewBox="0 0 84.9469 28.2177" fill="none" overflow="visible">
    <path d="M7.24169 2.62059C9.27928 2.62059 11.0599 3.00882 12.5835 3.7853C14.1071 4.56177 15.2819 5.65588 16.108 7.06765C16.9524 8.46177 17.3746 10.0765 17.3746 11.9118C17.3746 13.7294 16.9524 15.3441 16.108 16.7559C15.2819 18.1676 14.0979 19.2618 12.5559 20.0382C11.0323 20.8147 9.26092 21.2029 7.24169 21.2029H0V2.62059H7.24169ZM6.93881 17.2853C8.7194 17.2853 10.1053 16.8176 11.0966 15.8824C12.0878 14.9471 12.5835 13.6235 12.5835 11.9118C12.5835 10.2 12.0878 8.86765 11.0966 7.91471C10.1053 6.96177 8.7194 6.48529 6.93881 6.48529H4.70848V17.2853H6.93881ZM18.5189 13.7912C18.5189 12.2735 18.8126 10.9412 19.4001 9.79412C20.0058 8.64706 20.8227 7.76471 21.8507 7.14706C22.8786 6.52941 24.0259 6.22059 25.2925 6.22059C26.3756 6.22059 27.3209 6.43235 28.1286 6.85588C28.9547 7.27941 29.588 7.8353 30.0286 8.52353V6.43235H34.737V21.2029H30.0286V19.1118C29.5696 19.8 28.9272 20.3559 28.1011 20.7794C27.2934 21.2029 26.3481 21.4147 25.265 21.4147C24.0168 21.4147 22.8786 21.1059 21.8507 20.4882C20.8227 19.8529 20.0058 18.9618 19.4001 17.8147C18.8126 16.65 18.5189 15.3088 18.5189 13.7912ZM30.0286 13.8177C30.0286 12.6882 29.6981 11.7971 29.0373 11.1441C28.3948 10.4912 27.6055 10.1647 26.6693 10.1647C25.7331 10.1647 24.9346 10.4912 24.2738 11.1441C23.6313 11.7794 23.31 12.6618 23.31 13.7912C23.31 14.9206 23.6313 15.8206 24.2738 16.4912C24.9346 17.1441 25.7331 17.4706 26.6693 17.4706C27.6055 17.4706 28.3948 17.1441 29.0373 16.4912C29.6981 15.8382 30.0286 14.9471 30.0286 13.8177ZM53.2876 6.43235L43.6504 28.2177H38.584L42.1085 20.7L35.858 6.43235H41.1172L44.6692 15.6706L48.1937 6.43235H53.2876ZM56.6425 21.4147C55.8164 21.4147 55.1372 21.1853 54.6049 20.7265C54.0909 20.25 53.8339 19.6677 53.8339 18.9794C53.8339 18.2735 54.0909 17.6824 54.6049 17.2059C55.1372 16.7294 55.8164 16.4912 56.6425 16.4912C57.4502 16.4912 58.111 16.7294 58.625 17.2059C59.1573 17.6824 59.4235 18.2735 59.4235 18.9794C59.4235 19.6677 59.1573 20.25 58.625 20.7265C58.111 21.1853 57.4502 21.4147 56.6425 21.4147ZM60.7238 13.7912C60.7238 12.2735 61.0175 10.9412 61.6049 9.79412C62.2107 8.64706 63.0275 7.76471 64.0555 7.14706C65.0835 6.52941 66.2308 6.22059 67.4974 6.22059C68.5804 6.22059 69.5258 6.43235 70.3335 6.85588C71.1595 7.27941 71.7928 7.8353 72.2334 8.52353V6.43235H76.9419V21.2029H72.2334V19.1118C71.7745 19.8 71.132 20.3559 70.3059 20.7794C69.4982 21.2029 68.5529 21.4147 67.4698 21.4147C66.2216 21.4147 65.0835 21.1059 64.0555 20.4882C63.0275 19.8529 62.2107 18.9618 61.6049 17.8147C61.0175 16.65 60.7238 15.3088 60.7238 13.7912ZM72.2334 13.8177C72.2334 12.6882 71.903 11.7971 71.2421 11.1441C70.5996 10.4912 69.8103 10.1647 68.8741 10.1647C67.9379 10.1647 67.1394 10.4912 66.4786 11.1441C65.8361 11.7794 65.5149 12.6618 65.5149 13.7912C65.5149 14.9206 65.8361 15.8206 66.4786 16.4912C67.1394 17.1441 67.9379 17.4706 68.8741 17.4706C69.8103 17.4706 70.5996 17.1441 71.2421 16.4912C71.903 15.8382 72.2334 14.9471 72.2334 13.8177ZM82.1659 4.89706C81.3398 4.89706 80.6603 4.66765 80.128 4.20882C79.614 3.73235 79.357 3.15 79.357 2.46176C79.357 1.75588 79.614 1.17353 80.128 0.714706C80.6603 0.238235 81.3398 0 82.1659 0C82.9736 0 83.6344 0.238235 84.1484 0.714706C84.6807 1.17353 84.9469 1.75588 84.9469 2.46176C84.9469 3.15 84.6807 3.73235 84.1484 4.20882C83.6344 4.66765 82.9736 4.89706 82.1659 4.89706ZM84.5063 6.43235V21.2029H79.7975V6.43235H84.5063Z" fill="white"/>
  </svg>
</svg>
