<svg xmlns="http://www.w3.org/2000/svg" viewBox="0 0 185.067 24" fill="none">
  <g transform="translate(61.4608 5.9184) scale(1.000380 0.999983)"><path id="Vector" d="M4.74533 0H0L5.73387 17.6859H10.8419L16.5757 0H11.8304L8.23973 13.3223L4.74533 0Z" fill="var(--fill-0, white)"/></g>
  <g transform="translate(0.0000 0.0000) scale(0.998808 1.000030)"><path id="Vector" d="M0 0H4.91013V23.6033H0V0Z" fill="var(--fill-0, white)"/></g>
  <g transform="translate(9.7530 0.0000) scale(0.998812 1.000030)"><path id="Vector" d="M0 0H4.91011V23.6033H0V0Z" fill="var(--fill-0, white)"/></g>
  <g transform="translate(19.5061 0.0000) scale(0.999674 1.000030)"><path id="Vector" d="M0 0H14.5325V3.93389H4.91011V9.55371H13.8736V13.4876H4.91011V19.6694H14.5325V23.6033H0V0Z" fill="var(--fill-0, white)"/></g>
  <g transform="translate(37.0319 0.0000) scale(0.999738 1.000030)"><path id="Vector" d="M0 0H4.6464V23.6033H0V0Z" fill="var(--fill-0, white)"/></g>
  <g transform="translate(44.4901 5.5200) scale(0.999286 1.000038)"><path id="Vector" d="M0 9.22315C0 2.77685 3.19653 0 8.17253 0C13.1485 0 15.9827 2.74379 15.9827 9.28925V10.3471H4.58053C4.74533 14.1818 5.89867 15.4711 8.10667 15.4711C9.85307 15.4711 10.9405 14.4463 11.1384 12.6611H15.7848C15.4883 16.562 12.2589 18.4793 8.10667 18.4793C2.83413 18.4793 0 15.6694 0 9.22315ZM11.4021 7.27272C11.1715 4.03304 10.0509 2.9752 8.10667 2.9752C6.1624 2.9752 4.94293 4.06611 4.6136 7.27272H11.4021Z" fill="var(--fill-0, white)"/></g>
  <g transform="translate(78.9311 5.5200) scale(0.999286 1.000038)"><path id="Vector" d="M0 9.22315C0 2.77685 3.19653 0 8.17253 0C13.1485 0 15.9827 2.74379 15.9827 9.28925V10.3471H4.58053C4.74533 14.1818 5.89867 15.4711 8.10667 15.4711C9.85307 15.4711 10.9405 14.4463 11.1384 12.6611H15.7848C15.4883 16.562 12.2587 18.4793 8.10667 18.4793C2.83386 18.4793 0 15.6694 0 9.22315ZM11.4019 7.27272C11.1712 4.03304 10.0509 2.9752 8.10667 2.9752C6.1624 2.9752 4.94293 4.06611 4.6136 7.27272H11.4019Z" fill="var(--fill-0, white)"/></g>
  <g transform="translate(116.9253 0.0000) scale(1.000143 1.000030)"><path id="Vector" d="M0 0H4.91013V19.6694H14.1371V23.6033H0V0Z" fill="var(--fill-0, white)"/></g>
  <g transform="translate(132.2119 5.5200) scale(0.999775 1.000038)"><path id="Vector" fill-rule="evenodd" clip-rule="evenodd" d="M0 9.22315C0 2.47933 3.0976 0 7.08507 0C9.06213 0 10.8747 1.12397 11.5997 2.31405V0.396693H16.3451V18.0826H11.7315V16C11.0395 17.3884 9.0952 18.4793 6.95307 18.4793C2.7352 18.4793 0 15.7686 0 9.22315ZM8.30427 3.47107C10.6109 3.47107 11.8632 5.22315 11.8632 9.22315C11.8632 13.2231 10.6109 15.0083 8.30427 15.0083C5.99761 15.0083 4.67947 13.2231 4.67947 9.22315C4.67947 5.22315 5.99761 3.47107 8.30427 3.47107Z" fill="var(--fill-0, white)"/></g>
  <g transform="translate(152.1436 0.0000) scale(1.000171 1.000000)"><path id="Vector" fill-rule="evenodd" clip-rule="evenodd" d="M4.61333 21.5207V23.6033H0V0H4.6464V7.83472C5.43734 6.61157 7.28266 5.52067 9.25999 5.52067C13.1485 5.52067 16.2461 8 16.2461 14.7438C16.2461 21.4876 13.2144 24 9.16107 24C7.0192 24 5.27253 22.9091 4.61333 21.5207ZM7.94186 9.0248C10.2485 9.0248 11.5667 10.7438 11.5667 14.7438C11.5667 18.7438 10.2485 20.5289 7.94186 20.5289C5.63493 20.5289 4.38267 18.7438 4.38267 14.7438C4.38267 10.7438 5.63493 9.0248 7.94186 9.0248Z" fill="var(--fill-0, white)"/></g>
  <g transform="translate(170.2987 5.5200) scale(1.000349 1.000038)"><path id="Vector" d="M0 12.8265H4.6464C4.71227 14.6777 5.70079 15.5702 7.44746 15.5702C9.19386 15.5702 10.1827 14.7769 10.1827 13.3884C10.1827 12.1322 9.4248 11.6694 7.77707 11.2727L6.35999 10.9091C2.33973 9.88429 0.329329 8.79339 0.329329 5.45453C0.329329 2.11571 3.42719 0 7.38159 0C11.336 0 14.3349 1.55371 14.4667 5.22315H9.82C9.72134 3.60331 8.73254 2.90909 7.31574 2.90909C5.89867 2.90909 4.90986 3.60331 4.90986 4.92563C4.90986 6.14875 5.70079 6.61157 7.08506 6.94213L8.53493 7.30579C12.3576 8.26445 14.7632 9.22315 14.7632 12.7934C14.7632 16.3636 11.5997 18.4793 7.31574 18.4793C2.66907 18.4793 0.0986667 16.7273 0 12.8265Z" fill="var(--fill-0, white)"/></g>
  <g transform="translate(97.7154 5.5200) scale(0.999072 1.000077)"><path id="Vector" d="M4.71226 7.66941C4.71226 4.89256 6.0304 3.37189 8.0736 3.37189C9.75413 3.37189 10.7099 4.42973 10.7099 6.71075V18.0826H15.3563V5.98347C15.3563 1.88429 13.0496 0 9.68826 0C7.4144 0 5.53626 1.15701 4.71226 2.67768V0.396693H0V18.0826H4.71226V7.66941Z" fill="var(--fill-0, white)"/></g>
</svg>
