<svg width="150" height="33" viewBox="0 0 150 33" fill="none" xmlns="http://www.w3.org/2000/svg">
<g clip-path="url(#clip0_2_72)">
<path d="M14.0981 17.2797C15.6581 18.1817 16.4381 18.6327 17.2951 18.6337C18.1521 18.6337 18.9331 18.1847 20.4951 17.2857L30.4301 11.5677C30.6509 11.4407 30.8343 11.2577 30.9619 11.0372C31.0894 10.8167 31.1566 10.5665 31.1566 10.3117C31.1566 10.057 31.0894 9.80678 30.9619 9.58627C30.8343 9.36576 30.6509 9.18277 30.4301 9.05575L20.4911 3.33575C18.9311 2.43775 18.1511 1.98875 17.2951 1.98975C16.4391 1.98975 15.6591 2.43975 14.1001 3.33875L5.56013 8.26175C4.09057 9.09236 2.8659 10.2956 2.00952 11.7503C1.15313 13.205 0.695292 14.8597 0.682129 16.5477V16.8627C0.695161 18.5489 1.15191 20.2019 2.00644 21.6556C2.86097 23.1092 4.08316 24.3123 5.55013 25.1437L10.8911 28.2307C14.0161 30.0377 15.5791 30.9407 17.2951 30.9407C19.0111 30.9427 20.5751 30.0407 23.7011 28.2357L29.3451 24.9777C30.9081 24.0757 31.6891 23.6247 32.1181 22.8817C32.5471 22.1387 32.5471 21.2367 32.5471 19.4317V15.9367C32.5471 15.6947 32.4834 15.457 32.3624 15.2473C32.2415 15.0377 32.0675 14.8636 31.858 14.7424C31.6485 14.6212 31.4108 14.5573 31.1688 14.557C30.9268 14.5567 30.6889 14.6201 30.4791 14.7407L18.8911 21.4107C18.1111 21.8587 17.7221 22.0837 17.2951 22.0837C16.8671 22.0837 16.4781 21.8597 15.6981 21.4117L7.85813 16.9057C7.46413 16.6787 7.26713 16.5657 7.10813 16.5457C6.93325 16.5231 6.7558 16.5589 6.60335 16.6475C6.4509 16.7361 6.332 16.8726 6.26513 17.0357C6.20513 17.1837 6.20613 17.4107 6.20913 17.8657C6.21113 18.1997 6.21113 18.3667 6.24313 18.5207C6.31313 18.8637 6.49313 19.1747 6.75613 19.4057C6.87413 19.5087 7.01913 19.5927 7.30913 19.7597L15.6941 24.6057C16.4751 25.0567 16.8661 25.2827 17.2941 25.2827C17.7241 25.2827 18.1141 25.0577 18.8961 24.6067L29.1741 18.6737C29.4411 18.5197 29.5741 18.4437 29.6741 18.5007C29.7741 18.5587 29.7741 18.7127 29.7741 19.0207V20.6047C29.7741 21.0557 29.7741 21.2817 29.6671 21.4667C29.5601 21.6527 29.3651 21.7657 28.9741 21.9907L20.5001 26.8827C18.9361 27.7847 18.1541 28.2367 17.2961 28.2357C16.4381 28.2357 15.6561 27.7837 14.0941 26.8797L6.16713 22.2957L6.11113 22.2627C5.29499 21.7846 4.61729 21.1024 4.14461 20.2831C3.67193 19.4638 3.42054 18.5356 3.41513 17.5897V16.0687C3.41513 15.0057 3.98113 14.0227 4.90113 13.4887C5.30102 13.2568 5.75505 13.1344 6.21736 13.1341C6.67967 13.1337 7.13388 13.2554 7.53413 13.4867L14.0991 17.2807L14.0981 17.2797ZM53.8871 24.2097C52.1821 24.2097 50.7141 23.8977 49.4801 23.2747C48.2471 22.6367 47.2981 21.7567 46.6321 20.6347C45.9811 19.4977 45.6551 18.1947 45.6551 16.7267C45.6551 15.2707 45.9881 13.9827 46.6531 12.8597C47.3181 11.7237 48.2681 10.8367 49.5011 10.1997C50.7341 9.56175 52.2031 9.24275 53.9081 9.24275C55.4601 9.24275 56.7701 9.47175 57.8371 9.92875C58.9171 10.3857 59.7421 11.0097 60.3101 11.7997C60.888 12.5647 61.2278 13.4829 61.2871 14.4397H58.2731C58.2236 14.1254 58.1179 13.8226 57.9611 13.5457C57.8091 13.2267 57.5661 12.9357 57.2341 12.6727C56.9151 12.4097 56.4921 12.1947 55.9661 12.0287C55.4531 11.8617 54.8221 11.7787 54.0741 11.7787H53.7421C52.7021 11.7787 51.7881 11.9727 50.9981 12.3607C50.2415 12.7304 49.6119 13.3165 49.1891 14.0447C48.7591 14.7797 48.5451 15.6727 48.5451 16.7267C48.5451 17.7657 48.7601 18.6597 49.1891 19.4077C49.6236 20.1341 50.2593 20.719 51.0191 21.0917C51.8091 21.4797 52.7161 21.6737 53.7421 21.6737H54.0741C55.0861 21.6737 55.9381 21.5417 56.6311 21.2787C57.3241 21.0017 57.8511 20.6617 58.2111 20.2607C58.5711 19.8587 58.7511 19.4637 58.7511 19.0757V18.9087H53.9711V16.3727H59.5211C60.1581 16.3727 60.6431 16.5467 60.9761 16.8927C61.3221 17.2387 61.4961 17.7307 61.4961 18.3687V24.0017H58.7501V22.3807C58.5701 22.6157 58.2721 22.8797 57.8571 23.1707C57.4551 23.4477 56.9281 23.6907 56.2771 23.8977C55.6251 24.1057 54.8291 24.2097 53.8871 24.2097ZM63.7241 24.0017V9.45075H66.5931V24.0017H63.7241ZM73.8971 24.0017V11.9867H68.0351V9.45075H82.6281V11.9867H76.7661V24.0017H73.8971ZM84.0671 24.0017V9.45075H92.3401C93.2131 9.45075 93.9961 9.61075 94.6891 9.92875C95.3821 10.2337 95.9291 10.6707 96.3311 11.2387C96.7331 11.8067 96.9341 12.4927 96.9341 13.2967C96.9341 14.1277 96.7051 14.8277 96.2481 15.3967C95.7901 15.9637 95.2501 16.3667 94.6261 16.6017C95.1261 16.7117 95.5761 16.9207 95.9781 17.2247C96.3791 17.5297 96.6981 17.9177 96.9341 18.3897C97.1691 18.8597 97.2871 19.4147 97.2871 20.0527C97.2871 20.8557 97.0721 21.5557 96.6431 22.1527C96.2271 22.7337 95.6661 23.1917 94.9591 23.5237C94.2521 23.8427 93.4621 24.0017 92.5891 24.0017H84.0671ZM86.9351 21.4657H92.1731C92.8661 21.4657 93.4071 21.3057 93.7951 20.9877C94.1971 20.6547 94.3981 20.2117 94.3981 19.6577C94.3981 19.0617 94.1971 18.6177 93.7951 18.3277C93.4071 18.0357 92.8661 17.8907 92.1731 17.8907H86.9351V21.4657ZM86.9351 15.3547H92.0281C92.6651 15.3547 93.1581 15.2087 93.5041 14.9177C93.8641 14.6277 94.0441 14.1907 94.0441 13.6077C94.0441 13.1227 93.8641 12.7347 93.5041 12.4437C93.1571 12.1387 92.6651 11.9867 92.0281 11.9867H86.9351V15.3547ZM106.773 24.2097C105.207 24.2097 103.8 23.9117 102.553 23.3157C101.306 22.7057 100.322 21.8467 99.6011 20.7387C98.8811 19.6157 98.5211 18.2787 98.5211 16.7267C98.5211 15.1737 98.8811 13.8437 99.6011 12.7347C100.322 11.6127 101.306 10.7537 102.553 10.1577C103.8 9.54775 105.207 9.24275 106.773 9.24275C108.353 9.24275 109.759 9.54775 110.993 10.1577C112.24 10.7537 113.217 11.6127 113.924 12.7347C114.644 13.8447 115.005 15.1747 115.005 16.7267C115.005 18.2787 114.644 19.6167 113.924 20.7387C113.217 21.8467 112.24 22.7057 110.993 23.3157C109.759 23.9117 108.353 24.2097 106.773 24.2097ZM106.606 21.6737H106.939C107.881 21.6737 108.741 21.4797 109.517 21.0917C110.292 20.717 110.946 20.1339 111.408 19.4077C111.88 18.6597 112.115 17.7657 112.115 16.7267C112.115 15.6727 111.88 14.7797 111.408 14.0447C110.947 13.3185 110.292 12.7353 109.517 12.3607C108.741 11.9727 107.881 11.7787 106.939 11.7787H106.606C105.678 11.7787 104.819 11.9727 104.029 12.3607C103.251 12.7386 102.59 13.3206 102.116 14.0447C101.645 14.7797 101.41 15.6727 101.41 16.7267C101.41 17.7657 101.645 18.6597 102.116 19.4077C102.59 20.132 103.251 20.714 104.029 21.0917C104.819 21.4797 105.678 21.6737 106.606 21.6737ZM124.333 24.2097C122.767 24.2097 121.361 23.9117 120.113 23.3157C118.866 22.7057 117.882 21.8467 117.162 20.7387C116.441 19.6157 116.081 18.2787 116.081 16.7267C116.081 15.1737 116.441 13.8437 117.162 12.7347C117.882 11.6127 118.866 10.7537 120.113 10.1577C121.361 9.54775 122.767 9.24275 124.333 9.24275C125.913 9.24275 127.32 9.54775 128.553 10.1577C129.8 10.7537 130.777 11.6127 131.484 12.7347C132.205 13.8447 132.565 15.1747 132.565 16.7267C132.565 18.2787 132.205 19.6167 131.484 20.7387C130.777 21.8467 129.8 22.7057 128.553 23.3157C127.32 23.9117 125.913 24.2097 124.333 24.2097ZM124.167 21.6737H124.499C125.442 21.6737 126.301 21.4797 127.077 21.0917C127.852 20.7174 128.507 20.1343 128.969 19.4077C129.44 18.6597 129.676 17.7657 129.676 16.7267C129.676 15.6727 129.44 14.7797 128.969 14.0447C128.507 13.3184 127.852 12.7353 127.077 12.3607C126.301 11.9727 125.442 11.7787 124.499 11.7787H124.167C123.238 11.7787 122.379 11.9727 121.589 12.3607C120.799 12.7487 120.162 13.3107 119.677 14.0447C119.206 14.7797 118.97 15.6727 118.97 16.7267C118.97 17.7657 119.206 18.6597 119.677 19.4077C120.15 20.1319 120.811 20.714 121.589 21.0917C122.379 21.4797 123.238 21.6737 124.167 21.6737ZM136.842 19.6777L136.011 17.0587L144.908 9.45075H148.878L136.842 19.6777ZM134.535 24.0017V9.45075H137.404V24.0017H134.535ZM145.427 24.0017L138.859 16.7677L141.353 15.3747L149.211 24.0017H145.427Z" fill="white"/>
</g>
<defs>
<clipPath id="clip0_2_72">
<rect width="150" height="33" fill="white"/>
</clipPath>
</defs>
</svg>
