<svg width="91" height="30" viewBox="0 0 91 30" fill="none" xmlns="http://www.w3.org/2000/svg">
<g clip-path="url(#clip0_2_73)">
<path fill-rule="evenodd" clip-rule="evenodd" d="M46.6071 29.8661H36.2946C32.9662 29.8661 30.2679 27.1677 30.2679 23.8393V12.4554C30.2679 12.1595 30.0281 11.9196 29.7321 11.9196H24.9107C24.6148 11.9196 24.375 11.6798 24.375 11.3839V6.5625C24.375 6.26662 24.6148 6.02679 24.9107 6.02679H29.7321C30.0281 6.02679 30.2679 5.78695 30.2679 5.49107V0.535714C30.2679 0.239848 30.5076 0 30.8036 0H35.7589C36.0549 0 36.2946 0.239847 36.2946 0.535714V5.49107C36.2946 5.78695 36.5344 6.02679 36.8304 6.02679H42.8571H47.6786C47.9746 6.02679 48.2143 5.78695 48.2143 5.49107V0.535714C48.2143 0.239848 48.454 0 48.75 0H53.7054C54.0013 0 54.2411 0.239847 54.2411 0.535714V5.49107C54.2411 5.78695 54.4808 6.02679 54.7768 6.02679H64.5536C64.8496 6.02679 65.0893 6.26662 65.0893 6.5625V11.6518C65.0893 11.9477 64.8496 12.1875 64.5536 12.1875H54.7768C54.4808 12.1875 54.2411 12.4273 54.2411 12.7232V21.6964C54.2411 22.8799 55.2005 23.8393 56.3839 23.8393H64.5536C64.8496 23.8393 65.0893 24.0791 65.0893 24.375V29.3304C65.0893 29.6263 64.8496 29.8661 64.5536 29.8661H54.2411C50.9127 29.8661 48.2143 27.1677 48.2143 23.8393V12.7232C48.2143 12.4273 47.9746 12.1875 47.6786 12.1875H42.8571H36.8304C36.5344 12.1875 36.2946 12.4273 36.2946 12.7232V21.6964C36.2946 22.8799 37.2541 23.8393 38.4375 23.8393H46.6071C46.9031 23.8393 47.1429 24.0791 47.1429 24.375V29.3304C47.1429 29.6263 46.9031 29.8661 46.6071 29.8661ZM0 22.5V13.6607C0 9.51857 3.35786 6.16071 7.5 6.16071H16.3393C20.4814 6.16071 23.8393 9.51857 23.8393 13.6607V22.5C23.8393 26.6421 20.4814 30 16.3393 30H7.5C3.35786 30 0 26.6421 0 22.5ZM15.5357 12.0536C16.7192 12.0536 17.6786 13.013 17.6786 14.1964V21.6964C17.6786 22.8799 16.7192 23.8393 15.5357 23.8393H8.03571C6.85224 23.8393 5.89286 22.8799 5.89286 21.6964V14.1964C5.89286 13.013 6.85224 12.0536 8.03571 12.0536H15.5357ZM66.4286 22.5V13.6607C66.4286 9.51857 69.7864 6.16071 73.9286 6.16071H82.7679C86.91 6.16071 90.2679 9.51857 90.2679 13.6607V22.5C90.2679 26.6421 86.91 30 82.7679 30H73.9286C69.7864 30 66.4286 26.6421 66.4286 22.5ZM81.9643 12.0536C83.1477 12.0536 84.1071 13.013 84.1071 14.1964V21.6964C84.1071 22.8799 83.1477 23.8393 81.9643 23.8393H74.4643C73.2809 23.8393 72.3214 22.8799 72.3214 21.6964V14.1964C72.3214 13.013 73.2809 12.0536 74.4643 12.0536H81.9643Z" fill="white"/>
</g>
<defs>
<clipPath id="clip0_2_73">
<rect width="90.2679" height="30" fill="white"/>
</clipPath>
</defs>
</svg>
