<svg width="170" height="30" viewBox="0 0 170 30" fill="none" xmlns="http://www.w3.org/2000/svg">
<mask id="mask0_2_74" style="mask-type:luminance" maskUnits="userSpaceOnUse" x="0" y="0" width="170" height="30">
<path d="M170 0H0V30H170V0Z" fill="white"/>
</mask>
<g mask="url(#mask0_2_74)">
<path fill-rule="evenodd" clip-rule="evenodd" d="M159.1 7.57275C153.021 7.57275 148.2 12.4529 148.2 18.7214C148.2 24.9897 153.021 29.8699 159.1 29.8699C163.334 29.8699 165.891 28.1029 167.569 26.4201C168.533 25.4105 169.245 24.2325 169.79 22.9284H165.179C164.801 23.4752 164.34 23.9801 163.795 24.4007C162.831 25.2001 161.28 25.8732 159.1 25.8732C155.956 25.8732 153.273 23.7697 152.603 20.1937H170V18.7214C170 12.4529 165.179 7.57275 159.1 7.57275ZM165.389 16.6179H152.811C153.483 13.4205 156.165 11.5694 159.1 11.5694C162.915 11.5694 164.928 14.0936 165.389 16.6179Z" fill="white"/>
<path d="M129.125 29.449V0H133.526V16.4073H136.671L143.169 7.9933H148.2L140.444 17.8797L148.829 29.449H143.379L136.88 20.404H133.526V29.449H129.125Z" fill="white"/>
<path fill-rule="evenodd" clip-rule="evenodd" d="M113.42 7.57275C107.76 7.57275 103.358 11.9901 103.358 18.7214C103.358 25.4525 107.76 29.8699 113.42 29.8699C115.6 29.8699 117.277 29.0285 118.409 28.1871C119.08 27.6822 119.666 27.1354 120.128 26.5042H120.337V29.4491H124.739V7.99345H120.337V10.728H120.128C119.666 10.1811 119.08 9.63419 118.409 9.17142C117.277 8.37208 115.6 7.57275 113.42 7.57275ZM114.258 25.8732C110.443 25.8732 107.97 23.3911 107.97 18.7214C107.97 14.0515 110.443 11.5694 114.258 11.5694C117.822 11.5694 120.337 14.0515 120.337 18.7214C120.337 23.3911 117.822 25.8732 114.258 25.8732Z" fill="white"/>
<path d="M87.847 11.9901V7.99342H90.3624V3.36572H94.7642V7.99342H101.262V11.9901H94.7642V25.4524H101.472V29.4492H90.3624V11.9901H87.847Z" fill="white"/>
<path d="M72.7545 7.99342V11.9901H75.2699V29.4492H86.3795V25.4524H79.6718V11.9901H86.1699V7.99342H79.6718V3.36572H75.2699V7.99342H72.7545Z" fill="white"/>
<path d="M50.3324 20.8245V7.99316H54.7342V20.4039C54.7342 24.2322 56.4111 25.873 59.765 25.873C63.1189 25.873 65.6342 23.3487 65.6342 19.5624V7.99316H70.0361V29.4489H65.6342V26.504H65.4246C65.0474 27.135 64.5024 27.682 63.8735 28.1867C62.7415 29.0282 61.1065 29.8696 58.717 29.8696C53.4765 29.8696 50.3324 26.7564 50.3324 20.8245Z" fill="white"/>
<path fill-rule="evenodd" clip-rule="evenodd" d="M48.4351 18.5211C48.4351 24.8607 43.3138 30.0001 36.9961 30.0001C30.6786 30.0001 25.5573 24.8607 25.5573 18.5211C25.5573 12.1813 30.6786 7.04199 36.9961 7.04199C43.3138 7.04199 48.4351 12.1813 48.4351 18.5211ZM43.1583 18.5211C43.1583 21.9362 40.3994 24.7047 36.9961 24.7047C33.593 24.7047 30.8341 21.9362 30.8341 18.5211C30.8341 15.1059 33.593 12.3374 36.9961 12.3374C40.3994 12.3374 43.1583 15.1059 43.1583 18.5211Z" fill="white"/>
<path d="M18.0347 8.86185C14.873 10.9043 12.779 14.4672 12.779 18.5211C12.779 22.5748 14.873 26.1378 18.0347 28.1802C19.8176 29.332 21.94 30.0001 24.2178 30.0001V7.04199C21.94 7.04199 19.8176 7.71017 18.0347 8.86185Z" fill="white"/>
<path d="M3.05176e-05 18.5211C3.05176e-05 14.4672 2.09402 10.9043 5.25576 8.86185C7.03864 7.71017 9.16106 7.04199 11.439 7.04199V30.0001C9.16106 30.0001 7.03864 29.332 5.25576 28.1802C2.09402 26.1378 3.05176e-05 22.5748 3.05176e-05 18.5211Z" fill="white"/>
</g>
</svg>
