<svg width="253" height="30" viewBox="0 0 253 30" fill="none" xmlns="http://www.w3.org/2000/svg">
<g clip-path="url(#clip0_2_71)">
<mask id="mask0_2_71" style="mask-type:alpha" maskUnits="userSpaceOnUse" x="3" y="0" width="250" height="30">
<path d="M88.6861 13.5752C85.8806 12.8933 85.1223 12.5902 85.1223 11.4536C85.1223 10.6959 85.729 9.86243 87.6245 9.86243C89.2168 9.86243 90.5058 10.5444 91.6432 11.6809L94.2211 9.18049C92.553 7.43775 90.5058 6.37695 87.7762 6.37695C84.2882 6.37695 81.4829 8.34701 81.4829 11.5294C81.4829 15.0149 83.7575 16.0756 87.0179 16.7577C90.3542 17.5154 90.9607 18.0458 90.9607 19.1823C90.9607 20.5462 89.975 21.0765 87.852 21.0765C86.1839 21.0765 84.5916 20.4704 83.3026 19.0307L80.7246 21.3039C82.0894 23.2739 84.6674 24.4862 87.5487 24.4862C92.4014 24.4862 94.4485 22.2132 94.4485 18.8793C94.6003 15.1664 91.4914 14.1814 88.6861 13.5752ZM104.988 6.45272C100.135 6.45272 97.3298 10.1655 97.3298 15.5452C97.3298 20.9251 100.211 24.6378 104.988 24.6378C109.765 24.6378 112.646 20.9251 112.646 15.5452C112.646 10.1655 109.765 6.45272 104.988 6.45272ZM104.988 21.0765C102.107 21.0765 100.969 18.6519 100.969 15.4696C100.969 12.2871 102.183 9.86243 104.988 9.86243C107.869 9.86243 109.007 12.2871 109.007 15.4696C109.007 18.6519 107.793 21.0765 104.988 21.0765ZM126.901 16.6061C126.901 19.4096 125.536 21.1523 123.261 21.1523C120.987 21.1523 119.622 19.3338 119.622 16.5303V6.68004H116.058V16.6061C116.058 21.7585 118.939 24.6378 123.185 24.6378C127.659 24.6378 130.313 21.6827 130.313 16.6061V6.75581H126.749V16.6061H126.901ZM145.629 14.1814C145.629 15.1664 145.704 17.3638 145.704 18.0456C145.477 17.5912 144.871 16.6819 144.492 16.0756L138.199 6.75581H134.786V24.4106H138.274V16.6061C138.274 15.621 138.199 13.4237 138.199 12.7417C138.426 13.1964 139.033 14.1056 139.412 14.7117L145.856 24.3348H149.041V6.68004H145.554V14.1814H145.629ZM159.201 6.68004H153.667V24.3348H158.899C163.448 24.3348 167.922 21.6827 167.922 15.5452C167.922 9.02895 164.206 6.68004 159.201 6.68004ZM158.899 20.9251H157.154V10.1655H159.049C162.765 10.1655 164.358 11.984 164.358 15.5452C164.358 18.7277 162.613 20.9251 158.899 20.9251ZM178.839 9.9382C180.432 9.9382 181.417 10.6201 182.1 11.8325L185.361 10.3171C184.223 8.04392 182.252 6.37695 178.916 6.37695C174.29 6.37695 171.106 10.0897 171.106 15.4696C171.106 21.0009 174.214 24.562 178.839 24.562C182.025 24.562 184.148 23.0467 185.361 20.5462L182.403 18.8035C181.493 20.3946 180.507 21.0765 178.916 21.0765C176.262 21.0765 174.745 18.6519 174.745 15.4696C174.745 12.2113 176.262 9.9382 178.839 9.9382ZM191.957 6.68004H188.393V24.3348H199.009V20.8493H191.957V6.68004ZM208.335 6.45272C203.483 6.45272 200.677 10.1655 200.677 15.5452C200.677 20.9251 203.558 24.6378 208.335 24.6378C213.187 24.6378 215.993 20.9251 215.993 15.5452C215.993 10.1655 213.187 6.45272 208.335 6.45272ZM208.335 21.0765C205.454 21.0765 204.316 18.6519 204.316 15.4696C204.316 12.2871 205.529 9.86243 208.335 9.86243C211.216 9.86243 212.354 12.2871 212.354 15.4696C212.354 18.6519 211.216 21.0765 208.335 21.0765ZM230.248 16.6061C230.248 19.4096 228.883 21.1523 226.609 21.1523C224.333 21.1523 222.968 19.3338 222.968 16.5303V6.68004H219.404V16.6061C219.404 21.7585 222.285 24.6378 226.532 24.6378C231.006 24.6378 233.659 21.6827 233.659 16.6061V6.75581H230.096V16.6061H230.248ZM243.743 6.68004H238.209V24.3348H243.441C247.99 24.3348 252.464 21.6827 252.464 15.5452C252.464 9.02895 248.748 6.68004 243.743 6.68004ZM243.441 20.9251H241.772V10.1655H243.668C247.384 10.1655 248.9 11.984 248.9 15.5452C248.9 18.7277 247.157 20.9251 243.441 20.9251Z" fill="white"/>
<path d="M32.5509 4.79053C32.1412 4.79053 31.7725 5.06393 31.7725 5.43989C31.7725 5.43989 30.9532 17.267 30.9532 19.8967C30.9532 22.9744 31.7725 29.227 31.7725 29.227C31.8135 29.603 32.1412 29.8763 32.5509 29.8763C32.9606 29.8763 33.3293 29.603 33.3293 29.227C33.3293 29.227 34.2714 22.4599 34.2714 19.8967C34.2714 17.3334 33.3293 5.43989 33.3293 5.43989C33.3293 5.09812 32.9606 4.79053 32.5509 4.79053Z" fill="white"/>
<path d="M27.9004 7.84326C27.492 7.84326 27.1245 8.08341 27.1245 8.41361C27.1245 8.41361 26.3077 17.8111 26.3077 20.1208C26.3077 22.824 27.1245 29.306 27.1245 29.306C27.1654 29.6361 27.492 29.8763 27.9004 29.8763C28.3088 29.8763 28.6764 29.6361 28.6764 29.306C28.6764 29.306 29.4932 22.3721 29.4932 20.1208C29.4932 17.8693 28.6764 8.41361 28.6764 8.41361C28.6764 8.11342 28.3088 7.84326 27.9004 7.84326Z" fill="white"/>
<path d="M23.061 6.64893C22.6526 6.64893 22.3258 6.9021 22.3258 7.25019C22.3258 7.25019 21.5294 17.5533 21.5294 19.9882C21.5294 22.838 22.2849 29.2753 22.2849 29.2753C22.3258 29.6233 22.6526 29.8765 23.061 29.8765C23.4693 29.8765 23.837 29.6233 23.837 29.2753C23.837 29.2753 24.7149 22.3616 24.7149 19.9882C24.7149 17.6148 23.7961 7.25019 23.7961 7.25019C23.7961 6.93374 23.4693 6.64893 23.061 6.64893Z" fill="white"/>
<path d="M18.5481 8.37402C18.1397 8.37402 17.813 8.60692 17.813 8.92718C17.813 8.92718 17.0167 17.6151 17.0167 19.8551C17.0167 22.4768 17.7722 29.1903 17.7722 29.1903C17.813 29.5105 18.1397 29.7434 18.5481 29.7434C18.9565 29.7434 19.3241 29.5105 19.3241 29.1903C19.3241 29.1903 20.2022 22.0386 20.2022 19.8551C20.2022 17.6716 19.2833 8.92718 19.2833 8.92718C19.2833 8.63604 18.9565 8.37402 18.5481 8.37402Z" fill="white"/>
<path d="M13.8821 29.8099C14.2735 29.8099 14.5611 29.5277 14.5611 29.279C14.5611 29.279 15.4071 21.6471 15.4239 19.988C15.4407 18.3288 14.5611 13.7497 14.5611 13.7497C14.522 13.501 14.2735 13.2188 13.8821 13.2188C13.4907 13.2188 13.1675 13.501 13.1675 13.7497C13.1675 13.7497 12.3711 18.3391 12.3711 19.988C12.3711 21.6368 13.1675 29.279 13.1675 29.279C13.1675 29.5051 13.4907 29.8099 13.8821 29.8099Z" fill="white"/>
<path d="M9.17024 28.8808C9.5616 28.8808 9.91563 28.5984 9.91563 28.3498C9.91563 28.3498 10.7616 20.7179 10.7784 19.0587C10.7951 17.3996 9.91563 12.719 9.91563 12.719C9.8765 12.4704 9.5616 12.2896 9.17024 12.2896C8.77888 12.2896 8.52198 12.4704 8.52198 12.719C8.52198 12.719 7.72559 17.4099 7.72559 19.0587C7.72559 20.7076 8.52198 28.3498 8.52198 28.3498C8.52198 28.5758 8.77888 28.8808 9.17024 28.8808Z" fill="white"/>
<path d="M4.82643 26.6242C5.19166 26.6242 5.4028 26.3387 5.4028 26.1597C5.4028 26.1597 6.24963 20.747 6.26528 19.5525C6.28093 18.3578 5.33644 15.0105 5.33644 15.0105C5.29991 14.8315 5.19167 14.6787 4.82643 14.6787C4.46118 14.6787 4.27459 14.8315 4.27459 15.0105C4.27459 15.0105 3.47821 18.3654 3.47821 19.5525C3.47821 20.7396 4.20824 26.1597 4.20824 26.1597C4.20824 26.3225 4.46118 26.6242 4.82643 26.6242Z" fill="white"/>
<path d="M60.8172 11.6261C59.6376 11.6261 59.4236 11.6261 58.2955 11.8916C56.9681 5.65328 51.3853 0.14502 43.4297 0.14502C41.482 0.14502 39.5949 0.548459 37.9214 1.20685C36.926 1.59851 35.9305 2.40141 35.9305 3.33053V27.9518C35.9305 28.473 36.6605 29.6002 37.2947 29.6002H61.2437C66.0172 29.6002 69.7101 25.3586 69.7101 20.5853C69.7101 15.5415 65.5907 11.6261 60.8172 11.6261Z" fill="white"/>
</mask>
<g mask="url(#mask0_2_71)">
<path d="M279.275 -9.27539H-12.029V45.6521H279.275V-9.27539Z" fill="white"/>
</g>
</g>
<defs>
<clipPath id="clip0_2_71">
<rect width="252.464" height="30" fill="white"/>
</clipPath>
</defs>
</svg>
