<svg width="178" height="40" viewBox="0 0 178 40" fill="none" xmlns="http://www.w3.org/2000/svg">
<g clip-path="url(#clip0_2_77)">
<mask id="mask0_2_77" style="mask-type:luminance" maskUnits="userSpaceOnUse" x="0" y="0" width="178" height="40">
<path d="M177.544 39.3853H3.05176e-05V0.000133514H177.544V39.3853Z" fill="white"/>
</mask>
<g mask="url(#mask0_2_77)">
<path opacity="0.399994" fill-rule="evenodd" clip-rule="evenodd" d="M9.28312 13.564C10.0304 12.3047 10.9984 11.1905 12.1416 10.2774C12.5013 10.58 12.8547 10.8962 13.2019 11.2195C12.1883 11.9937 11.3197 12.9421 10.6367 14.0221C10.19 13.8562 9.73919 13.7039 9.28312 13.564ZM22.3994 7.96607C23.8172 8.29877 25.1626 8.88852 26.37 9.70523C26.1928 10.1426 26.0011 10.5769 25.799 11.0081C24.7646 10.2712 23.6068 9.72705 22.3807 9.40052C22.4005 8.91344 22.4066 8.43561 22.3994 7.96607ZM28.7849 11.8611C29.7292 12.9628 30.4682 14.2252 30.9646 15.5902C30.5645 15.839 30.1551 16.0753 29.7385 16.3033C29.3332 15.1062 28.7197 13.991 27.9257 13.0085C28.2284 12.627 28.5155 12.2435 28.7849 11.8611ZM31.6528 18.7462C31.771 20.1869 31.6321 21.6369 31.2403 23.0278C30.7708 22.9925 30.3013 22.9428 29.8317 22.8806C30.1987 21.6783 30.3521 20.4211 30.2837 19.166C30.7542 19.0354 31.2092 18.8955 31.6528 18.7462ZM29.9603 25.9827C29.2161 27.2151 28.2595 28.3054 27.1349 29.2019C26.7763 28.8951 26.4249 28.579 26.0829 28.2536C27.079 27.4949 27.934 26.5673 28.6098 25.5122C29.0637 25.6852 29.5146 25.8407 29.9603 25.9807V25.9827ZM24.3852 30.8509C23.0627 31.4189 21.6501 31.7423 20.2146 31.8086C20.1037 31.3505 20.0052 30.8882 19.9181 30.4208C21.1681 30.3907 22.4035 30.1388 23.5664 29.6776C23.8328 30.0829 24.1064 30.4757 24.3852 30.8509ZM17.0181 31.5329C15.6096 31.2188 14.2695 30.6529 13.062 29.86C13.2403 29.4247 13.432 28.9915 13.6341 28.5624C14.6571 29.2652 15.8055 29.7927 17.043 30.1036C17.0202 30.5887 17.0129 31.0654 17.0171 31.535L17.0181 31.5329ZM10.6253 27.7509C9.66347 26.6626 8.90586 25.4085 8.38866 24.0508C8.78564 23.802 9.194 23.5636 9.60957 23.3346C10.0387 24.5389 10.6782 25.6448 11.4814 26.6056C11.1809 26.9849 10.8938 27.3674 10.6263 27.7499L10.6253 27.7509ZM7.6507 20.8927C7.51491 19.4375 7.63828 17.971 8.01659 16.5603C8.48607 16.5914 8.95561 16.6381 9.42508 16.6972C9.06543 17.9191 8.92656 19.196 9.0147 20.4667C8.54824 20.5973 8.09329 20.7414 7.6507 20.8927ZM15.7568 9.77884C16.9414 9.31245 18.2007 9.06474 19.4746 9.04607C19.3864 8.58074 19.2849 8.11744 19.1719 7.65723C17.6711 7.71421 16.2408 8.05007 14.9297 8.60866C15.2106 8.98389 15.4873 9.37463 15.7568 9.77884Z" fill="white"/>
<path fill-rule="evenodd" clip-rule="evenodd" d="M1.35585 12.7145C1.85126 12.6533 2.3695 12.615 2.90326 12.6046C3.76559 10.5711 4.98757 8.71271 6.51114 7.11763C5.92555 6.97667 5.31923 6.9435 4.72119 7.02226C3.28675 8.71482 2.14873 10.6395 1.35585 12.7145ZM20.7675 0.129883C23.0466 0.259439 25.2221 0.779739 27.2257 1.62652C27.4381 2.08877 27.5998 2.64535 27.6568 3.35946C25.6803 2.38313 23.5421 1.77784 21.3479 1.57366C21.179 1.08238 20.9852 0.600431 20.7675 0.129883ZM32.0772 4.57314C33.7988 5.99723 35.2664 7.70429 36.4179 9.6217C36.2852 10.199 36.0541 10.7504 35.7339 11.2489C34.7088 9.29622 33.3396 7.5457 31.6938 6.08222C31.8513 5.56917 31.9809 5.06546 32.0772 4.57314ZM38.5892 14.8174C39.1469 16.9877 39.3304 19.2369 39.1324 21.4693C38.7551 21.7938 38.2763 22.0974 37.6285 22.3545C37.9405 20.1748 37.8617 17.9568 37.3932 15.8062C37.8212 15.487 38.2203 15.1564 38.5892 14.8174ZM37.8575 26.9086C37.0408 28.9919 35.8748 30.9197 34.4092 32.6081C33.8289 32.6444 33.2464 32.5832 32.6846 32.4267C34.2103 30.8513 35.4384 29.0116 36.3132 26.9978C36.847 26.9936 37.3621 26.9636 37.8575 26.9086ZM30.2179 36.2491C28.3492 37.4576 26.2866 38.3355 24.1214 38.8454C23.6271 38.5355 23.1887 38.1427 22.8238 37.6856C24.9765 37.3042 27.0421 36.5341 28.9203 35.4127C29.3524 35.7216 29.7867 36.0004 30.2179 36.2491ZM18.5868 39.3357C16.373 39.2185 14.1954 38.7242 12.1473 37.8722C11.9193 37.3301 11.7857 36.7529 11.7535 36.1651C13.7217 37.1177 15.8464 37.7032 18.024 37.894C18.194 38.3997 18.3816 38.8806 18.5868 39.3357ZM7.34341 35.0044C5.62394 33.6082 4.15011 31.9312 2.98618 30.0439C3.08568 29.5516 3.28157 29.0126 3.64951 28.4073C4.69321 30.3383 6.0748 32.0639 7.72692 33.5046C7.57043 34.0145 7.44187 34.5152 7.34341 35.0044ZM0.744337 24.8575C0.168073 22.7152 -0.042327 20.4889 0.123505 18.276C0.560887 17.8677 1.06771 17.5423 1.62117 17.3152C1.33304 19.498 1.43876 21.716 1.93211 23.8615C1.50613 24.1838 1.10917 24.5165 0.744337 24.8575ZM10.3263 4.06632C12.2179 2.93141 14.3011 2.15303 16.4714 1.76955C16.0817 1.30833 15.6122 0.922771 15.0836 0.631526C12.8925 1.15493 10.8456 2.04939 9.01001 3.24338C9.44636 3.48591 9.8879 3.76057 10.3273 4.06632H10.3263Z" fill="white"/>
<path opacity="0.800003" fill-rule="evenodd" clip-rule="evenodd" d="M4.26317 12.6313C4.74304 12.6572 5.2364 12.7059 5.73907 12.7754C6.59726 11.0538 7.76431 9.50745 9.18319 8.21082C8.70024 7.94135 8.25554 7.72682 7.84516 7.5558C6.35058 9.01201 5.13586 10.7325 4.26317 12.6313ZM21.7429 2.88037C23.8562 3.14363 25.8482 3.79659 27.6445 4.76774C27.6061 5.21238 27.5367 5.70366 27.4299 6.24676C25.7736 5.28079 23.9526 4.633 22.06 4.33554C21.9699 3.83494 21.8642 3.34884 21.7419 2.8814L21.7429 2.88037ZM31.243 7.36921C32.7541 8.79749 33.9917 10.4921 34.8934 12.368C34.6 12.7028 34.2539 13.0562 33.8496 13.4293C33.0765 11.6798 31.9892 10.0879 30.6419 8.73215C30.8637 8.27405 31.0647 7.82008 31.2419 7.37131L31.243 7.36921ZM36.2708 16.576C36.6533 18.6168 36.6616 20.7093 36.2957 22.7533C35.8614 22.8486 35.3743 22.9284 34.8291 22.9896C35.225 21.125 35.2779 19.2044 34.9856 17.3212C35.4344 17.0828 35.8624 16.8341 36.2708 16.576ZM34.9566 26.955C34.0777 28.8279 32.864 30.5246 31.3777 31.9611C30.9248 31.759 30.4833 31.534 30.0542 31.2863C31.4596 30.0115 32.6215 28.49 33.4828 26.7975C33.9854 26.87 34.4767 26.9229 34.9566 26.955ZM27.8496 34.5781C26.0483 35.5845 24.078 36.2489 22.0362 36.5391C21.7875 36.11 21.5615 35.6684 21.3583 35.2155C23.2406 35.0082 25.0699 34.4548 26.7531 33.5831C27.1148 33.9366 27.4817 34.2693 27.8496 34.5781ZM17.6458 36.5898C15.5957 36.3494 13.6068 35.7317 11.7805 34.7678C11.8209 34.3252 11.8925 33.8371 12.0023 33.2981C13.6524 34.2361 15.4609 34.86 17.338 35.1399C17.4219 35.627 17.5245 36.111 17.6458 36.5898ZM8.17989 32.2212C6.65737 30.8148 5.40327 29.1409 4.48083 27.2825C4.77207 26.9478 5.1141 26.5933 5.51728 26.2171C6.3112 27.9531 7.41709 29.5275 8.77793 30.8635C8.55617 31.3206 8.35716 31.7735 8.17989 32.2212ZM3.04845 23.0849C2.64009 21.0421 2.60796 18.9402 2.95517 16.8849C3.3853 16.7823 3.87036 16.6952 4.41864 16.6289C4.0393 18.509 4.00924 20.443 4.32743 22.3356C3.88072 22.575 3.45267 22.8248 3.04845 23.0849ZM12.5237 5.87778C14.2296 4.99369 16.0849 4.43608 17.9941 4.23501C17.7857 3.78208 17.5525 3.34055 17.2955 2.91353C15.1863 3.20581 13.1995 3.88987 11.4126 4.88901C11.7868 5.1958 12.1568 5.52539 12.5237 5.87778Z" fill="white"/>
<path opacity="0.600006" fill-rule="evenodd" clip-rule="evenodd" d="M6.89689 12.9639C7.72914 11.3896 8.84332 9.98204 10.1845 8.81194C10.5825 9.07103 10.9733 9.34983 11.3588 9.64625C10.1296 10.663 9.09728 11.8954 8.30956 13.2842C7.84212 13.163 7.3716 13.0562 6.89689 12.9639ZM22.2343 5.49943C23.9797 5.81762 25.6504 6.45815 27.1616 7.38787C27.0372 7.84597 26.8921 8.30717 26.7294 8.76632C25.3975 7.89776 23.9175 7.28106 22.3638 6.94943C22.3369 6.4654 22.2934 5.98138 22.2343 5.49943ZM30.0988 9.7758C31.3146 11.06 32.2847 12.5566 32.9625 14.1921C32.5915 14.4875 32.2028 14.7726 31.8007 15.0462C31.2338 13.5672 30.4036 12.2042 29.3495 11.0227C29.619 10.607 29.8677 10.1904 30.0988 9.7758ZM33.9337 17.8394C34.1618 19.5879 34.0716 21.3633 33.6684 23.0787C33.1948 23.0983 32.7159 23.0983 32.2298 23.0828C32.633 21.5582 32.7563 19.9735 32.5967 18.4053C33.059 18.227 33.5036 18.0373 33.9337 17.8394ZM32.3324 26.5953C31.4981 28.1417 30.3911 29.5233 29.0655 30.6727C28.6675 30.4063 28.2799 30.1244 27.9026 29.8291C29.1132 28.831 30.1362 27.6225 30.9208 26.2616C31.3965 26.3901 31.8681 26.501 32.3303 26.5953H32.3324ZM25.9396 32.7425C24.4004 33.4929 22.7049 33.979 20.9169 34.1355C20.7511 33.6909 20.6039 33.2338 20.4682 32.7684C22.0332 32.671 23.5672 32.2896 24.9964 31.6428C25.3053 32.0263 25.6214 32.3922 25.9396 32.7425ZM17.1733 33.98C15.4414 33.6805 13.7799 33.0638 12.2719 32.1611C12.3974 31.706 12.5445 31.2479 12.7072 30.7909C14.0381 31.6325 15.5098 32.2243 17.052 32.5363C17.0779 33.0286 17.1183 33.5105 17.1733 33.98ZM9.31911 29.826C8.09813 28.5698 7.10212 27.0907 6.3994 25.4542C6.76734 25.1578 7.15391 24.8717 7.55195 24.5971C8.14163 26.0678 8.99258 27.4193 10.0643 28.5843C9.79791 28.9989 9.55019 29.4134 9.32114 29.827L9.31911 29.826ZM5.37331 21.8111C5.12042 20.0512 5.1909 18.2602 5.5806 16.5272C6.05322 16.5034 6.5331 16.4983 7.01608 16.5096C6.62638 18.054 6.52066 19.6573 6.70515 21.24C6.246 21.4193 5.80137 21.61 5.37435 21.8111H5.37331ZM14.3044 7.80864C15.7575 7.15257 17.3184 6.77115 18.9094 6.68409C18.7736 6.22183 18.6202 5.7658 18.4502 5.31494C16.6778 5.459 14.948 5.9337 13.3488 6.71311C13.6711 7.05931 13.9914 7.42513 14.3044 7.80864Z" fill="white"/>
<path d="M168.41 8.89893H171.91V26.5517C171.91 27.6193 172.337 28.1085 173.462 28.1085H175.563V30.8872H172.641C169.931 30.8872 168.41 29.9409 168.41 26.9476V8.89893ZM159.293 8.89893H162.792V26.5517C162.792 27.6193 163.22 28.1085 164.345 28.1085H166.445V30.8872H163.523C160.815 30.8872 159.293 29.9409 159.293 26.9476V8.89893ZM152.998 8.89893H156.498V12.3503H152.998V8.89893ZM152.998 15.0077H156.498V30.8882H152.998V15.0077ZM146.665 21.1756C146.665 19.1909 145.721 17.7243 143.803 17.7243C142.493 17.7243 140.272 18.5192 140.272 22.1219V30.8872H136.74V21.1756C136.74 19.1909 135.827 17.7243 133.909 17.7243C132.601 17.7243 130.347 18.5192 130.347 22.1219V30.8872H126.847V15.0077H130.227V17.2662C131.169 15.7706 132.663 14.6408 134.945 14.6408C137.229 14.6408 138.84 15.8006 139.662 17.633C140.698 15.954 142.402 14.6408 144.838 14.6408C148.247 14.6408 150.164 17.2662 150.164 20.7797V30.8872H146.665V21.1756ZM111.943 22.9469C111.943 26.0936 113.314 28.2608 116.265 28.2608C119.187 28.2608 120.557 26.0936 120.557 22.9469C120.557 19.8013 119.187 17.633 116.265 17.633C113.312 17.633 111.943 19.8013 111.943 22.9469ZM123.997 30.8872H120.62V28.6588C119.523 30.2767 117.848 31.2541 115.535 31.2541C110.876 31.2541 108.35 27.6815 108.35 22.9469C108.35 18.2135 110.876 14.6408 115.535 14.6408C117.756 14.6408 119.401 15.557 120.496 17.0527V8.89893H123.996L123.997 30.8872ZM102.707 21.1756C102.707 19.1909 101.763 17.7243 99.5109 17.7243C98.2021 17.7243 95.6449 18.5192 95.6449 22.1219V30.8872H92.1453V15.0077H95.5235V17.2361C96.6196 15.7405 98.2631 14.6408 100.547 14.6408C104.29 14.6408 106.178 17.2662 106.178 20.7797V30.8872H102.707V21.1756ZM85.8505 8.89893H89.3509V12.3503H85.8505V8.89893ZM85.8505 15.0077H89.3509V30.8882H85.8505V15.0077ZM73.8793 30.8872L69.5565 13.6935L65.2346 30.8872H61.0639L54.7944 8.89893H58.7205L63.2871 26.1236L67.609 8.89893H71.5354L75.8568 26.1537L80.3937 8.89893H84.3495L78.08 30.8872H73.8793Z" fill="white"/>
</g>
</g>
<defs>
<clipPath id="clip0_2_77">
<rect width="177.544" height="40" fill="white"/>
</clipPath>
</defs>
</svg>
