<svg width="36" height="36" viewBox="0 0 36 36" fill="none" xmlns="http://www.w3.org/2000/svg">
<path fill-rule="evenodd" clip-rule="evenodd" d="M32.5 9C32.5 9.41422 32.1642 9.75 31.75 9.75L3.75 9.75C3.33579 9.75 3 9.41421 3 9C3 8.58579 3.33579 8.25 3.75 8.25L31.75 8.25C32.1642 8.25 32.5 8.58579 32.5 9Z" fill="white"/>
<rect x="5" y="7" width="3" height="4" rx="0.5" fill="white" stroke="white"/>
<path fill-rule="evenodd" clip-rule="evenodd" d="M32.5 18C32.5 18.4142 32.1642 18.75 31.75 18.75L3.75 18.75C3.33579 18.75 3 18.4142 3 18C3 17.5858 3.33579 17.25 3.75 17.25L31.75 17.25C32.1642 17.25 32.5 17.5858 32.5 18Z" fill="white"/>
<rect x="9" y="16" width="15" height="4" rx="0.5" fill="white" stroke="white"/>
<path fill-rule="evenodd" clip-rule="evenodd" d="M32.5 27C32.5 27.4142 32.1642 27.75 31.75 27.75L3.75 27.75C3.33579 27.75 3 27.4142 3 27C3 26.5858 3.33579 26.25 3.75 26.25L31.75 26.25C32.1642 26.25 32.5 26.5858 32.5 27Z" fill="white"/>
<rect x="24" y="25" width="7" height="4" rx="0.5" fill="white" stroke="white"/>
</svg>
