<svg width="36" height="36" viewBox="0 0 36 36" fill="none" xmlns="http://www.w3.org/2000/svg">
<path fill-rule="evenodd" clip-rule="evenodd" d="M26.625 23.9536C26.8707 23.9842 27.121 24 27.375 24C27.629 24 27.8793 23.9842 28.125 23.9536L28.125 32C28.125 32.4142 27.7892 32.75 27.375 32.75C26.9608 32.75 26.625 32.4142 26.625 32L26.625 23.9536ZM26.625 12.0464L26.625 4C26.625 3.58579 26.9608 3.25 27.375 3.25C27.7892 3.25 28.125 3.58579 28.125 4L28.125 12.0464C27.8793 12.0158 27.629 12 27.375 12C27.121 12 26.8707 12.0158 26.625 12.0464Z" fill="white"/>
<path d="M27.375 24C24.0613 24 21.375 21.3137 21.375 18C21.375 14.6863 24.0613 12 27.375 12C30.6887 12 33.375 14.6863 33.375 18C33.375 21.3137 30.6887 24 27.375 24ZM27.375 22.8C30.026 22.8 32.175 20.651 32.175 18C32.175 15.349 30.026 13.2 27.375 13.2C24.724 13.2 22.575 15.349 22.575 18C22.575 20.651 24.724 22.8 27.375 22.8ZM25.575 16.2H26.775V19.8H25.575V16.2ZM27.975 16.2H29.175V19.8H27.975V16.2Z" fill="white"/>
<path fill-rule="evenodd" clip-rule="evenodd" d="M10.5548 18.7501C10.6009 18.5071 10.625 18.2564 10.625 18.0001C10.625 17.7437 10.6009 17.493 10.5548 17.2501L17.1696 17.2501L15.8458 15.4433C15.601 15.1092 15.6734 14.6399 16.0075 14.3951C16.3417 14.1502 16.811 14.2227 17.0558 14.5568L19.2538 17.5568L19.5786 18.0001L19.2538 18.4433L17.0558 21.4433C16.811 21.7774 16.3417 21.8499 16.0075 21.605C15.6734 21.3602 15.601 20.8909 15.8458 20.5568L17.1696 18.7501L10.5548 18.7501Z" fill="white"/>
<circle cx="6.625" cy="18" r="3.25" transform="rotate(90 6.625 18)" stroke="white" stroke-width="1.5"/>
</svg>
