<svg width="36" height="36" viewBox="0 0 36 36" fill="none" xmlns="http://www.w3.org/2000/svg">
<path fill-rule="evenodd" clip-rule="evenodd" d="M17.25 4.6952C17.4929 4.64911 17.7437 4.625 18 4.625C18.2563 4.625 18.5071 4.64911 18.75 4.6952L18.75 3.875C18.75 3.46079 18.4142 3.125 18 3.125C17.5858 3.125 17.25 3.46079 17.25 3.875L17.25 4.6952ZM17.25 12.5548L17.25 14.8552C17.25 15.2694 17.5858 15.6052 18 15.6052C18.4142 15.6052 18.75 15.2694 18.75 14.8552L18.75 12.5548C18.5071 12.6009 18.2563 12.625 18 12.625C17.7437 12.625 17.4929 12.6009 17.25 12.5548Z" fill="white"/>
<circle cx="4" cy="4" r="3.25" transform="matrix(-1.19249e-08 -1 -1 1.19249e-08 22 12.625)" stroke="white" stroke-width="1.5"/>
<circle cx="4" cy="4" r="3.25" transform="matrix(-1.19249e-08 -1 -1 1.19249e-08 30 30.625)" stroke="white" stroke-width="1.5"/>
<path fill-rule="evenodd" clip-rule="evenodd" d="M25.25 22.6952C25.4929 22.6491 25.7437 22.625 26 22.625C26.2563 22.625 26.5071 22.6491 26.75 22.6952L26.75 22.6811L26.75 22.6472L26.75 22.6132L26.75 22.5792L26.75 22.5451L26.75 22.511L26.75 22.4769L26.75 22.4428L26.75 22.4086L26.75 22.3744L26.75 22.3402L26.75 22.3059L26.75 22.2716L26.75 22.2373L26.75 22.203L26.75 22.1686L26.75 22.1342L26.75 22.0997L26.75 22.0653L26.75 22.0308L26.75 21.9963L26.75 21.9617L26.75 21.9272L26.75 21.8926L26.75 21.858L26.75 21.8233L26.75 21.7886L26.75 21.7539L26.75 21.7192L26.75 21.6844L26.75 21.6497L26.75 21.6149L26.75 21.58L26.75 21.5452L26.75 21.5103L26.75 21.4754L26.75 21.4405L26.75 21.4055L26.75 21.3705L26.75 21.3355L26.75 21.3005L26.75 21.2654L26.75 21.2304L26.75 21.1953L26.75 21.1601L26.75 21.125C26.75 19.4295 26.17 18.2926 25.2155 17.537C24.3211 16.8289 23.1653 16.5182 22.1819 16.2724L21.9338 16.2106C20.9905 15.9764 20.2219 15.7855 19.6475 15.4265C19.3578 15.2454 19.145 15.0352 18.9997 14.773C18.8538 14.5099 18.75 14.148 18.75 13.625L17.25 13.625C17.25 14.352 17.3962 14.9745 17.6878 15.5004C17.98 16.0273 18.3922 16.4108 18.8525 16.6985C19.6428 17.1924 20.6534 17.4409 21.5358 17.6578C21.6315 17.6814 21.7258 17.7045 21.8181 17.7276C22.8347 17.9818 23.6789 18.2336 24.2845 18.713C24.83 19.1449 25.25 19.8205 25.25 21.125L25.25 21.1601L25.25 21.1953L25.25 21.2304L25.25 21.2654L25.25 21.3005L25.25 21.3355L25.25 21.3705L25.25 21.4055L25.25 21.4405L25.25 21.4754L25.25 21.5103L25.25 21.5452L25.25 21.58L25.25 21.6149L25.25 21.6497L25.25 21.6844L25.25 21.7192L25.25 21.7539L25.25 21.7886L25.25 21.8233L25.25 21.858L25.25 21.8926L25.25 21.9272L25.25 21.9617L25.25 21.9963L25.25 22.0308L25.25 22.0653L25.25 22.0997L25.25 22.1342L25.25 22.1686L25.25 22.203L25.25 22.2373L25.25 22.2716L25.25 22.3059L25.25 22.3402L25.25 22.3744L25.25 22.4086L25.25 22.4428L25.25 22.4769L25.25 22.511L25.25 22.5451L25.25 22.5792L25.25 22.6132L25.25 22.6472L25.25 22.6811L25.25 22.6952ZM25.25 30.5548L25.25 30.5668L25.25 30.5838L25.25 30.6008L25.25 30.6177L25.25 30.6346L25.25 30.6513L25.25 30.668L25.25 30.6846L25.25 30.701L25.25 30.7175L25.25 30.7338L25.25 30.75L25.25 30.7662L25.25 30.7822L25.25 30.7982L25.25 30.8141L25.25 30.8299L25.25 30.8456L25.25 30.8613L25.25 30.8768L25.25 30.8923L25.25 30.9076L25.25 30.9229L25.25 30.9381L25.25 30.9532L25.25 30.9683L25.25 30.9832L25.25 30.998L25.25 31.0128L25.25 31.0275L25.25 31.042L25.25 31.0565L25.25 31.0709L25.25 31.0853L25.25 31.0995L25.25 31.1136L25.25 31.1277L25.25 31.1416L25.25 31.1555L25.25 31.1693L25.25 31.1829L25.25 31.1965L25.25 31.21L25.25 31.2234L25.25 31.2368L25.25 31.25L25.25 31.2631L25.25 31.2762L25.25 31.2891L25.25 31.302L25.25 31.3148L25.25 31.3274L25.25 31.34L25.25 31.3525L25.25 31.3649L25.25 31.3772L25.25 31.3894L25.25 31.4016L25.25 31.4136L25.25 31.4255L25.25 31.4374L25.25 31.4491L25.25 31.4607L25.25 31.4723L25.25 31.4838L25.25 31.4951L25.25 31.5064L25.25 31.5176L25.25 31.5286L25.25 31.5396L25.25 31.5505L25.25 31.5613L25.25 31.572L25.25 31.5826L25.25 31.5931L25.25 31.6035L25.25 31.6138L25.25 31.624L25.25 31.6341L25.25 31.6442L25.25 31.6541L25.25 31.6639L25.25 31.6736L25.25 31.6832L25.25 31.6928L25.25 31.7022L25.25 31.7115L25.25 31.7208L25.25 31.7299L25.25 31.7389L25.25 31.7478L25.25 31.7567L25.25 31.7654L25.25 31.774L25.25 31.7826L25.25 31.791L25.25 31.7993L25.25 31.8076L25.25 31.8157L25.25 31.8237L25.25 31.8317L25.25 31.8395L25.25 31.8472L25.25 31.8548L25.25 31.8624L25.25 31.8698L25.25 31.8771L25.25 31.8843L25.25 31.8914L25.25 31.8984L25.25 31.9053L25.25 31.9121L25.25 31.9188L25.25 31.9254L25.25 31.9319L25.25 31.9383L25.25 31.9446L25.25 31.9508L25.25 31.9569L25.25 31.9628L25.25 31.9687L25.25 31.9745L25.25 31.9801L25.25 31.9857L25.25 31.9911L25.25 31.9965L25.25 32.0017L25.25 32.0068L25.25 32.0118L25.25 32.0168L25.25 32.0216L25.25 32.0263L25.25 32.0309L25.25 32.0354L25.25 32.0397L25.25 32.044L25.25 32.0482L25.25 32.0522L25.25 32.0562L25.25 32.06L25.25 32.0638L25.25 32.0674L25.25 32.0709L25.25 32.0743L25.25 32.0776L25.25 32.0808L25.25 32.0839L25.25 32.0868L25.25 32.0897L25.25 32.0925L25.25 32.0951L25.25 32.0976L25.25 32.1L25.25 32.1024L25.25 32.1045L25.25 32.1066L25.25 32.1086L25.25 32.1105L25.25 32.1122L25.25 32.1139L25.25 32.1154L25.25 32.1168L25.25 32.1181L25.25 32.1193L25.25 32.1204L25.25 32.1214L25.25 32.1222L25.25 32.1229L25.25 32.1236L25.25 32.1241L25.25 32.1245L25.25 32.1248L25.25 32.1249L26 32.125L26.75 32.1249L26.75 32.1248L26.75 32.1245L26.75 32.1241L26.75 32.1236L26.75 32.1229L26.75 32.1222L26.75 32.1214L26.75 32.1204L26.75 32.1193L26.75 32.1181L26.75 32.1168L26.75 32.1154L26.75 32.1139L26.75 32.1122L26.75 32.1105L26.75 32.1086L26.75 32.1066L26.75 32.1045L26.75 32.1024L26.75 32.1L26.75 32.0976L26.75 32.0951L26.75 32.0925L26.75 32.0897L26.75 32.0868L26.75 32.0839L26.75 32.0808L26.75 32.0776L26.75 32.0743L26.75 32.0709L26.75 32.0674L26.75 32.0638L26.75 32.06L26.75 32.0562L26.75 32.0522L26.75 32.0482L26.75 32.044L26.75 32.0397L26.75 32.0354L26.75 32.0309L26.75 32.0263L26.75 32.0216L26.75 32.0168L26.75 32.0118L26.75 32.0068L26.75 32.0017L26.75 31.9965L26.75 31.9911L26.75 31.9857L26.75 31.9801L26.75 31.9745L26.75 31.9687L26.75 31.9628L26.75 31.9569L26.75 31.9508L26.75 31.9446L26.75 31.9383L26.75 31.9319L26.75 31.9254L26.75 31.9188L26.75 31.9121L26.75 31.9053L26.75 31.8984L26.75 31.8914L26.75 31.8843L26.75 31.8771L26.75 31.8698L26.75 31.8624L26.75 31.8548L26.75 31.8472L26.75 31.8395L26.75 31.8317L26.75 31.8237L26.75 31.8157L26.75 31.8076L26.75 31.7993L26.75 31.791L26.75 31.7826L26.75 31.774L26.75 31.7654L26.75 31.7567L26.75 31.7478L26.75 31.7389L26.75 31.7299L26.75 31.7208L26.75 31.7115L26.75 31.7022L26.75 31.6928L26.75 31.6832L26.75 31.6736L26.75 31.6639L26.75 31.6541L26.75 31.6442L26.75 31.6341L26.75 31.624L26.75 31.6138L26.75 31.6035L26.75 31.5931L26.75 31.5826L26.75 31.572L26.75 31.5613L26.75 31.5505L26.75 31.5396L26.75 31.5286L26.75 31.5176L26.75 31.5064L26.75 31.4951L26.75 31.4838L26.75 31.4723L26.75 31.4607L26.75 31.4491L26.75 31.4374L26.75 31.4255L26.75 31.4136L26.75 31.4016L26.75 31.3894L26.75 31.3772L26.75 31.3649L26.75 31.3525L26.75 31.34L26.75 31.3274L26.75 31.3148L26.75 31.302L26.75 31.2891L26.75 31.2762L26.75 31.2631L26.75 31.25L26.75 31.2368L26.75 31.2234L26.75 31.21L26.75 31.1965L26.75 31.1829L26.75 31.1693L26.75 31.1555L26.75 31.1416L26.75 31.1277L26.75 31.1136L26.75 31.0995L26.75 31.0853L26.75 31.0709L26.75 31.0565L26.75 31.042L26.75 31.0275L26.75 31.0128L26.75 30.998L26.75 30.9832L26.75 30.9683L26.75 30.9532L26.75 30.9381L26.75 30.9229L26.75 30.9076L26.75 30.8923L26.75 30.8768L26.75 30.8613L26.75 30.8456L26.75 30.8299L26.75 30.8141L26.75 30.7982L26.75 30.7822L26.75 30.7662L26.75 30.75L26.75 30.7338L26.75 30.7175L26.75 30.701L26.75 30.6846L26.75 30.668L26.75 30.6513L26.75 30.6346L26.75 30.6177L26.75 30.6008L26.75 30.5838L26.75 30.5668L26.75 30.5548C26.5071 30.6009 26.2563 30.625 26 30.625C25.7437 30.625 25.4929 30.6009 25.25 30.5548ZM26.75 32.125C26.75 32.5392 26.4142 32.875 26 32.875C25.5858 32.875 25.25 32.5392 25.25 32.125L26 32.125L26.75 32.125Z" fill="white"/>
<circle cx="10" cy="26.625" r="3.25" transform="rotate(-90 10 26.625)" stroke="white" stroke-width="1.5"/>
<path fill-rule="evenodd" clip-rule="evenodd" d="M10.75 22.6952C10.5071 22.6491 10.2563 22.625 10 22.625C9.74365 22.625 9.49294 22.6491 9.25 22.6952L9.25 22.6811L9.25 22.6472L9.25 22.6132L9.25 22.5792L9.25 22.5451L9.25 22.511L9.25 22.4769L9.25 22.4428L9.25 22.4086L9.25 22.3744L9.25 22.3402L9.25 22.3059L9.25 22.2716L9.25 22.2373L9.25 22.203L9.25 22.1686L9.25 22.1342L9.25 22.0997L9.25 22.0653L9.25 22.0308L9.25 21.9963L9.25 21.9617L9.25 21.9272L9.25 21.8926L9.25 21.858L9.25 21.8233L9.25 21.7886L9.25 21.7539L9.25 21.7192L9.25 21.6844L9.25 21.6497L9.25 21.6149L9.25 21.58L9.25 21.5452L9.25 21.5103L9.25 21.4754L9.25 21.4405L9.25 21.4055L9.25 21.3705L9.25 21.3355L9.25 21.3005L9.25 21.2654L9.25 21.2304L9.25 21.1953L9.25 21.1601L9.25 21.125C9.25 19.4295 9.82997 18.2926 10.7845 17.537C11.6789 16.8289 12.8347 16.5182 13.8181 16.2724L14.0662 16.2106C15.0095 15.9764 15.7781 15.7855 16.3525 15.4265C16.6422 15.2454 16.855 15.0352 17.0003 14.773C17.1462 14.5099 17.25 14.148 17.25 13.625L18.75 13.625C18.75 14.352 18.6038 14.9745 18.3122 15.5004C18.02 16.0273 17.6078 16.4108 17.1475 16.6985C16.3572 17.1924 15.3466 17.4409 14.4642 17.6578C14.3685 17.6814 14.2742 17.7045 14.1819 17.7276C13.1653 17.9818 12.3211 18.2336 11.7155 18.713C11.17 19.1449 10.75 19.8205 10.75 21.125L10.75 21.1601L10.75 21.1953L10.75 21.2304L10.75 21.2654L10.75 21.3005L10.75 21.3355L10.75 21.3705L10.75 21.4055L10.75 21.4405L10.75 21.4754L10.75 21.5103L10.75 21.5452L10.75 21.58L10.75 21.6149L10.75 21.6497L10.75 21.6844L10.75 21.7192L10.75 21.7539L10.75 21.7886L10.75 21.8233L10.75 21.858L10.75 21.8926L10.75 21.9272L10.75 21.9617L10.75 21.9963L10.75 22.0308L10.75 22.0653L10.75 22.0997L10.75 22.1342L10.75 22.1686L10.75 22.203L10.75 22.2373L10.75 22.2716L10.75 22.3059L10.75 22.3402L10.75 22.3744L10.75 22.4086L10.75 22.4428L10.75 22.4769L10.75 22.511L10.75 22.5451L10.75 22.5792L10.75 22.6132L10.75 22.6472L10.75 22.6811L10.75 22.6952ZM10.75 30.5548L10.75 30.5668L10.75 30.5838L10.75 30.6008L10.75 30.6177L10.75 30.6346L10.75 30.6513L10.75 30.668L10.75 30.6846L10.75 30.701L10.75 30.7175L10.75 30.7338L10.75 30.75L10.75 30.7662L10.75 30.7822L10.75 30.7982L10.75 30.8141L10.75 30.8299L10.75 30.8456L10.75 30.8613L10.75 30.8768L10.75 30.8923L10.75 30.9076L10.75 30.9229L10.75 30.9381L10.75 30.9532L10.75 30.9683L10.75 30.9832L10.75 30.998L10.75 31.0128L10.75 31.0275L10.75 31.042L10.75 31.0565L10.75 31.0709L10.75 31.0853L10.75 31.0995L10.75 31.1136L10.75 31.1277L10.75 31.1416L10.75 31.1555L10.75 31.1693L10.75 31.1829L10.75 31.1965L10.75 31.21L10.75 31.2234L10.75 31.2368L10.75 31.25L10.75 31.2631L10.75 31.2762L10.75 31.2891L10.75 31.302L10.75 31.3148L10.75 31.3274L10.75 31.34L10.75 31.3525L10.75 31.3649L10.75 31.3772L10.75 31.3894L10.75 31.4016L10.75 31.4136L10.75 31.4255L10.75 31.4374L10.75 31.4491L10.75 31.4607L10.75 31.4723L10.75 31.4838L10.75 31.4951L10.75 31.5064L10.75 31.5176L10.75 31.5286L10.75 31.5396L10.75 31.5505L10.75 31.5613L10.75 31.572L10.75 31.5826L10.75 31.5931L10.75 31.6035L10.75 31.6138L10.75 31.624L10.75 31.6341L10.75 31.6442L10.75 31.6541L10.75 31.6639L10.75 31.6736L10.75 31.6832L10.75 31.6928L10.75 31.7022L10.75 31.7115L10.75 31.7208L10.75 31.7299L10.75 31.7389L10.75 31.7478L10.75 31.7567L10.75 31.7654L10.75 31.774L10.75 31.7826L10.75 31.791L10.75 31.7993L10.75 31.8076L10.75 31.8157L10.75 31.8237L10.75 31.8317L10.75 31.8395L10.75 31.8472L10.75 31.8548L10.75 31.8624L10.75 31.8698L10.75 31.8771L10.75 31.8843L10.75 31.8914L10.75 31.8984L10.75 31.9053L10.75 31.9121L10.75 31.9188L10.75 31.9254L10.75 31.9319L10.75 31.9383L10.75 31.9446L10.75 31.9508L10.75 31.9569L10.75 31.9628L10.75 31.9687L10.75 31.9745L10.75 31.9801L10.75 31.9857L10.75 31.9911L10.75 31.9965L10.75 32.0017L10.75 32.0068L10.75 32.0118L10.75 32.0168L10.75 32.0216L10.75 32.0263L10.75 32.0309L10.75 32.0354L10.75 32.0397L10.75 32.044L10.75 32.0482L10.75 32.0522L10.75 32.0562L10.75 32.06L10.75 32.0638L10.75 32.0674L10.75 32.0709L10.75 32.0743L10.75 32.0776L10.75 32.0808L10.75 32.0839L10.75 32.0868L10.75 32.0897L10.75 32.0925L10.75 32.0951L10.75 32.0976L10.75 32.1L10.75 32.1024L10.75 32.1045L10.75 32.1066L10.75 32.1086L10.75 32.1105L10.75 32.1122L10.75 32.1139L10.75 32.1154L10.75 32.1168L10.75 32.1181L10.75 32.1193L10.75 32.1204L10.75 32.1214L10.75 32.1222L10.75 32.1229L10.75 32.1236L10.75 32.1241L10.75 32.1245L10.75 32.1248L10.75 32.1249L10 32.125L9.25 32.1249L9.25 32.1248L9.25 32.1245L9.25 32.1241L9.25 32.1236L9.25 32.1229L9.25 32.1222L9.25 32.1214L9.25 32.1204L9.25 32.1193L9.25 32.1181L9.25 32.1168L9.25 32.1154L9.25 32.1139L9.25 32.1122L9.25 32.1105L9.25 32.1086L9.25 32.1066L9.25 32.1045L9.25 32.1024L9.25 32.1L9.25 32.0976L9.25 32.0951L9.25 32.0925L9.25 32.0897L9.25 32.0868L9.25 32.0839L9.25 32.0808L9.25 32.0776L9.25 32.0743L9.25 32.0709L9.25 32.0674L9.25 32.0638L9.25 32.06L9.25 32.0562L9.25 32.0522L9.25 32.0482L9.25 32.044L9.25 32.0397L9.25 32.0354L9.25 32.0309L9.25 32.0263L9.25 32.0216L9.25 32.0168L9.25 32.0118L9.25 32.0068L9.25 32.0017L9.25 31.9965L9.25 31.9911L9.25 31.9857L9.25 31.9801L9.25 31.9745L9.25 31.9687L9.25 31.9628L9.25 31.9569L9.25 31.9508L9.25 31.9446L9.25 31.9383L9.25 31.9319L9.25 31.9254L9.25 31.9188L9.25 31.9121L9.25 31.9053L9.25 31.8984L9.25 31.8914L9.25 31.8843L9.25 31.8771L9.25 31.8698L9.25 31.8624L9.25 31.8548L9.25 31.8472L9.25 31.8395L9.25 31.8317L9.25 31.8237L9.25 31.8157L9.25 31.8076L9.25 31.7993L9.25 31.791L9.25 31.7826L9.25 31.774L9.25 31.7654L9.25 31.7567L9.25 31.7478L9.25 31.7389L9.25 31.7299L9.25 31.7208L9.25 31.7115L9.25 31.7022L9.25 31.6928L9.25 31.6832L9.25 31.6736L9.25 31.6639L9.25 31.6541L9.25 31.6442L9.25 31.6341L9.25 31.624L9.25 31.6138L9.25 31.6035L9.25 31.5931L9.25 31.5826L9.25 31.572L9.25 31.5613L9.25 31.5505L9.25 31.5396L9.25 31.5286L9.25 31.5176L9.25 31.5064L9.25 31.4951L9.25 31.4838L9.25 31.4723L9.25 31.4607L9.25 31.4491L9.25 31.4374L9.25 31.4255L9.25 31.4136L9.25 31.4016L9.25 31.3894L9.25 31.3772L9.25 31.3649L9.25 31.3525L9.25 31.34L9.25 31.3274L9.25 31.3148L9.25 31.302L9.25 31.2891L9.25 31.2762L9.25 31.2631L9.25 31.25L9.25 31.2368L9.25 31.2234L9.25 31.21L9.25 31.1965L9.25 31.1829L9.25 31.1693L9.25 31.1555L9.25 31.1416L9.25 31.1277L9.25 31.1136L9.25 31.0995L9.25 31.0853L9.25 31.0709L9.25 31.0565L9.25 31.042L9.25 31.0275L9.25 31.0128L9.25 30.998L9.25 30.9832L9.25 30.9683L9.25 30.9532L9.25 30.9381L9.25 30.9229L9.25 30.9076L9.25 30.8923L9.25 30.8768L9.25 30.8613L9.25 30.8456L9.25 30.8299L9.25 30.8141L9.25 30.7982L9.25 30.7822L9.25 30.7662L9.25 30.75L9.25 30.7338L9.25 30.7175L9.25 30.701L9.25 30.6846L9.25 30.668L9.25 30.6513L9.25 30.6346L9.25 30.6177L9.25 30.6008L9.25 30.5838L9.25 30.5668L9.25 30.5548C9.49294 30.6009 9.74365 30.625 10 30.625C10.2563 30.625 10.5071 30.6009 10.75 30.5548ZM9.25 32.125C9.25 32.5392 9.58579 32.875 10 32.875C10.4142 32.875 10.75 32.5392 10.75 32.125L10 32.125L9.25 32.125Z" fill="white"/>
</svg>
