<svg width="36" height="36" viewBox="0 0 36 36" fill="none" xmlns="http://www.w3.org/2000/svg">
<path fill-rule="evenodd" clip-rule="evenodd" d="M12.25 31.1798C12.4929 31.2259 12.7437 31.25 13 31.25C13.2563 31.25 13.5071 31.2259 13.75 31.1798L13.75 32C13.75 32.4142 13.4142 32.75 13 32.75C12.5858 32.75 12.25 32.4142 12.25 32L12.25 31.1798ZM12.25 23.3202L12.25 4C12.25 3.58579 12.5858 3.25 13 3.25C13.4142 3.25 13.75 3.58579 13.75 4L13.75 23.3202C13.5071 23.2741 13.2563 23.25 13 23.25C12.7437 23.25 12.4929 23.2741 12.25 23.3202Z" fill="white"/>
<circle cx="13" cy="27.25" r="3.25" transform="rotate(90 13 27.25)" stroke="white" stroke-width="1.5"/>
<circle cx="23" cy="9.25" r="3.25" transform="rotate(90 23 9.25)" stroke="white" stroke-width="1.5"/>
<path fill-rule="evenodd" clip-rule="evenodd" d="M22.25 13.1798C22.4929 13.2259 22.7437 13.25 23 13.25C23.2563 13.25 23.5071 13.2259 23.75 13.1798L23.75 13.1939L23.75 13.2278L23.75 13.2618L23.75 13.2958L23.75 13.3299L23.75 13.364L23.75 13.3981L23.75 13.4322L23.75 13.4664L23.75 13.5006L23.75 13.5348L23.75 13.5691L23.75 13.6034L23.75 13.6377L23.75 13.672L23.75 13.7064L23.75 13.7408L23.75 13.7753L23.75 13.8097L23.75 13.8442L23.75 13.8787L23.75 13.9133L23.75 13.9478L23.75 13.9824L23.75 14.017L23.75 14.0517L23.75 14.0864L23.75 14.1211L23.75 14.1558L23.75 14.1906L23.75 14.2253L23.75 14.2601L23.75 14.295L23.75 14.3298L23.75 14.3647L23.75 14.3996L23.75 14.4345L23.75 14.4695L23.75 14.5045L23.75 14.5395L23.75 14.5745L23.75 14.6096L23.75 14.6446L23.75 14.6797L23.75 14.7149L23.75 14.75C23.75 15.6072 23.5704 16.339 23.2247 16.9563C22.8792 17.5732 22.3916 18.0335 21.8388 18.3836C20.7652 19.0635 19.3767 19.3645 18.1471 19.6104C18.039 19.6321 17.9322 19.6533 17.8266 19.6742L17.8266 19.6742C16.6612 19.9054 15.6539 20.1053 14.8979 20.4833C14.5042 20.6802 14.2272 20.9042 14.0461 21.1655C13.8704 21.419 13.75 21.7577 13.75 22.25L12.25 22.25C12.25 21.4923 12.4421 20.8466 12.8133 20.3111C13.1791 19.7833 13.6833 19.4136 14.2271 19.1417C15.1762 18.6671 16.3913 18.4278 17.501 18.2092L17.501 18.2092L17.5011 18.2092C17.6197 18.1858 17.7371 18.1627 17.8529 18.1396C19.1233 17.8855 20.2348 17.624 21.0362 17.1164C21.4209 16.8728 21.7145 16.5831 21.9159 16.2234C22.1171 15.8642 22.25 15.3928 22.25 14.75L22.25 14.7149L22.25 14.6797L22.25 14.6446L22.25 14.6096L22.25 14.5745L22.25 14.5395L22.25 14.5045L22.25 14.4695L22.25 14.4345L22.25 14.3996L22.25 14.3647L22.25 14.3298L22.25 14.295L22.25 14.2601L22.25 14.2253L22.25 14.1906L22.25 14.1558L22.25 14.1211L22.25 14.0864L22.25 14.0517L22.25 14.017L22.25 13.9824L22.25 13.9478L22.25 13.9133L22.25 13.8787L22.25 13.8442L22.25 13.8097L22.25 13.7753L22.25 13.7408L22.25 13.7064L22.25 13.672L22.25 13.6377L22.25 13.6034L22.25 13.5691L22.25 13.5348L22.25 13.5006L22.25 13.4664L22.25 13.4322L22.25 13.3981L22.25 13.364L22.25 13.3299L22.25 13.2958L22.25 13.2618L22.25 13.2278L22.25 13.1939L22.25 13.1798ZM22.25 5.3202L22.25 5.30824L22.25 5.29116L22.25 5.27417L22.25 5.25725L22.25 5.24042L22.25 5.22368L22.25 5.20702L22.25 5.19044L22.25 5.17395L22.25 5.15755L22.25 5.14122L22.25 5.12499L22.25 5.10884L22.25 5.09277L22.25 5.07679L22.25 5.0609L22.25 5.0451L22.25 5.02938L22.25 5.01374L22.25 4.99819L22.25 4.98273L22.25 4.96736L22.25 4.95208L22.25 4.93688L22.25 4.92177L22.25 4.90674L22.25 4.89181L22.25 4.87696L22.25 4.8622L22.25 4.84753L22.25 4.83295L22.25 4.81846L22.25 4.80406L22.25 4.78974L22.25 4.77552L22.25 4.76138L22.25 4.74734L22.25 4.73338L22.25 4.71952L22.25 4.70574L22.25 4.69206L22.25 4.67846L22.25 4.66496L22.25 4.65155L22.25 4.63823L22.25 4.625L22.25 4.61186L22.25 4.59882L22.25 4.58586L22.25 4.573L22.25 4.56023L22.25 4.54755L22.25 4.53497L22.25 4.52248L22.25 4.51008L22.25 4.49777L22.25 4.48556L22.25 4.47344L22.25 4.46141L22.25 4.44948L22.25 4.43765L22.25 4.4259L22.25 4.41425L22.25 4.4027L22.25 4.39124L22.25 4.37988L22.25 4.36861L22.25 4.35743L22.25 4.34636L22.25 4.33537L22.25 4.32449L22.25 4.3137L22.25 4.303L22.25 4.2924L22.25 4.2819L22.25 4.2715L22.25 4.26119L22.25 4.25098L22.25 4.24086L22.25 4.23085L22.25 4.22093L22.25 4.21111L22.25 4.20138L22.25 4.19176L22.25 4.18223L22.25 4.17281L22.25 4.16348L22.25 4.15425L22.25 4.14512L22.25 4.13608L22.25 4.12715L22.25 4.11832L22.25 4.10959L22.25 4.10095L22.25 4.09242L22.25 4.08399L22.25 4.07565L22.25 4.06742L22.25 4.05929L22.25 4.05126L22.25 4.04333L22.25 4.03551L22.25 4.02778L22.25 4.02016L22.25 4.01264L22.25 4.00522L22.25 3.9979L22.25 3.99068L22.25 3.98357L22.25 3.97656L22.25 3.96966L22.25 3.96285L22.25 3.95615L22.25 3.94956L22.25 3.94306L22.25 3.93667L22.25 3.93039L22.25 3.92421L22.25 3.91813L22.25 3.91216L22.25 3.9063L22.25 3.90053L22.25 3.89488L22.25 3.88933L22.25 3.88388L22.25 3.87854L22.25 3.87331L22.25 3.86818L22.25 3.86316L22.25 3.85824L22.25 3.85343L22.25 3.84873L22.25 3.84413L22.25 3.83965L22.25 3.83526L22.25 3.83099L22.25 3.82683L22.25 3.82277L22.25 3.81882L22.25 3.81498L22.25 3.81124L22.25 3.80762L22.25 3.8041L22.25 3.80069L22.25 3.7974L22.25 3.79421L22.25 3.79113L22.25 3.78816L22.25 3.7853L22.25 3.78255L22.25 3.77991L22.25 3.77738L22.25 3.77496L22.25 3.77265L22.25 3.77045L22.25 3.76837L22.25 3.76639L22.25 3.76453L22.25 3.76277L22.25 3.76113L22.25 3.7596L22.25 3.75819L22.25 3.75688L22.25 3.75569L22.25 3.75461L22.25 3.75365L22.25 3.75279L22.25 3.75205L22.25 3.75143L22.25 3.75091L22.25 3.75051L22.25 3.75023L22.25 3.75006L23 3.75L23.75 3.75006L23.75 3.75023L23.75 3.75051L23.75 3.75091L23.75 3.75143L23.75 3.75205L23.75 3.75279L23.75 3.75365L23.75 3.75461L23.75 3.75569L23.75 3.75688L23.75 3.75819L23.75 3.7596L23.75 3.76113L23.75 3.76277L23.75 3.76453L23.75 3.76639L23.75 3.76837L23.75 3.77045L23.75 3.77265L23.75 3.77496L23.75 3.77738L23.75 3.77991L23.75 3.78255L23.75 3.7853L23.75 3.78816L23.75 3.79113L23.75 3.79421L23.75 3.7974L23.75 3.80069L23.75 3.8041L23.75 3.80762L23.75 3.81124L23.75 3.81498L23.75 3.81882L23.75 3.82277L23.75 3.82683L23.75 3.83099L23.75 3.83526L23.75 3.83965L23.75 3.84413L23.75 3.84873L23.75 3.85343L23.75 3.85824L23.75 3.86316L23.75 3.86818L23.75 3.87331L23.75 3.87854L23.75 3.88388L23.75 3.88933L23.75 3.89488L23.75 3.90053L23.75 3.9063L23.75 3.91216L23.75 3.91813L23.75 3.92421L23.75 3.93039L23.75 3.93667L23.75 3.94306L23.75 3.94956L23.75 3.95615L23.75 3.96285L23.75 3.96966L23.75 3.97656L23.75 3.98357L23.75 3.99068L23.75 3.9979L23.75 4.00522L23.75 4.01264L23.75 4.02016L23.75 4.02778L23.75 4.03551L23.75 4.04333L23.75 4.05126L23.75 4.05929L23.75 4.06742L23.75 4.07565L23.75 4.08399L23.75 4.09242L23.75 4.10095L23.75 4.10959L23.75 4.11832L23.75 4.12715L23.75 4.13608L23.75 4.14512L23.75 4.15425L23.75 4.16348L23.75 4.17281L23.75 4.18223L23.75 4.19176L23.75 4.20138L23.75 4.21111L23.75 4.22093L23.75 4.23085L23.75 4.24086L23.75 4.25098L23.75 4.26119L23.75 4.2715L23.75 4.2819L23.75 4.2924L23.75 4.303L23.75 4.3137L23.75 4.32449L23.75 4.33537L23.75 4.34636L23.75 4.35743L23.75 4.36861L23.75 4.37988L23.75 4.39124L23.75 4.4027L23.75 4.41425L23.75 4.4259L23.75 4.43765L23.75 4.44948L23.75 4.46141L23.75 4.47344L23.75 4.48556L23.75 4.49777L23.75 4.51008L23.75 4.52248L23.75 4.53497L23.75 4.54755L23.75 4.56023L23.75 4.573L23.75 4.58586L23.75 4.59882L23.75 4.61186L23.75 4.625L23.75 4.63823L23.75 4.65155L23.75 4.66496L23.75 4.67846L23.75 4.69206L23.75 4.70574L23.75 4.71952L23.75 4.73338L23.75 4.74734L23.75 4.76138L23.75 4.77552L23.75 4.78974L23.75 4.80406L23.75 4.81846L23.75 4.83295L23.75 4.84753L23.75 4.8622L23.75 4.87696L23.75 4.89181L23.75 4.90674L23.75 4.92177L23.75 4.93688L23.75 4.95208L23.75 4.96736L23.75 4.98273L23.75 4.99819L23.75 5.01374L23.75 5.02938L23.75 5.0451L23.75 5.0609L23.75 5.07679L23.75 5.09277L23.75 5.10884L23.75 5.12499L23.75 5.14122L23.75 5.15755L23.75 5.17395L23.75 5.19044L23.75 5.20702L23.75 5.22368L23.75 5.24042L23.75 5.25725L23.75 5.27417L23.75 5.29116L23.75 5.30824L23.75 5.3202C23.5071 5.27411 23.2563 5.25 23 5.25C22.7437 5.25 22.4929 5.27411 22.25 5.3202ZM23.75 3.75C23.75 3.33579 23.4142 3 23 3C22.5858 3 22.25 3.33579 22.25 3.75L23 3.75L23.75 3.75Z" fill="white"/>
</svg>
