<svg preserveAspectRatio="none" width="100%" height="100%" overflow="visible" style="display: block;" viewBox="0 0 205.865 143.85" fill="none" xmlns="http://www.w3.org/2000/svg">
<path id="Vector" d="M108.353 80.4216C108.642 83.5605 109.904 86.4929 113.046 88.3514C117.823 91.1393 127.54 88.2895 137.072 80.7933C148.216 71.9961 158.306 59.0688 163.392 45.522C165.584 39.6572 166.556 34.1022 165.605 29.7656C164.798 26.1311 162.028 23.4052 158.761 22.8476C151.876 21.7118 143.874 26.2963 136.803 32.1198M108.353 80.4216C103.825 81.5987 99.5036 81.2889 96.3609 79.4923C96.1128 79.3478 95.906 79.1826 95.6786 79.038M108.353 80.4216C112.778 79.2445 117.409 76.6425 121.358 72.4711C130.559 62.7653 136.617 47.3599 136.803 32.0991C136.803 31.872 136.844 31.6448 136.844 31.4176C136.844 17.5404 130.249 5.12938 121.358 2.98171C114.018 1.22641 106.099 5.66629 100.145 11.8615M95.6786 79.038C94.252 79.5543 92.784 79.9053 91.316 80.1325M95.6786 79.038C99.4416 77.6751 102.998 75.3415 105.665 71.769C113.108 61.836 114.928 45.3155 110.296 30.2612C108.126 23.2193 104.507 16.8589 100.145 11.8408C95.4098 6.40971 89.7653 2.5687 83.976 1.37096C73.9068 -0.714755 64.1271 6.34776 59.9506 14.7319C59.1649 16.322 58.5239 17.8708 57.9657 19.4196M91.316 80.1325C89.6826 82.1769 87.615 83.767 85.2579 84.9234M91.316 80.1325C91.6675 79.6988 92.0603 79.3271 92.3498 78.8522C98.077 69.9311 96.0094 54.7116 87.7804 42.2386C80.3577 31.0253 69.0893 22.5792 57.945 19.4196C56.0428 18.8827 54.1406 18.449 52.2591 18.2219C41.1561 16.9622 31.7279 23.4878 29.0814 31.1492C26.4762 38.6867 27.2826 45.6253 29.0814 51.1183M74.4651 99.1311C78.2694 97.7681 81.4949 95.6824 83.4798 92.6261C84.8651 90.4785 85.4026 87.7732 85.2579 84.9441C85.1752 83.2714 84.9064 81.5574 84.2655 79.8847C82.3219 74.784 78.1661 69.8278 72.7696 65.5325C60.881 56.1158 44.9812 50.8499 31.1076 51.0357C30.4253 51.0357 29.7844 51.1183 29.102 51.1596C23.7056 51.4694 18.9088 52.6465 15.3319 54.7116C11.7136 56.8179 9.31517 59.9362 8.46745 63.0751C6.73068 69.642 10.6591 76.2089 14.0293 80.2564C17.751 84.6963 20.7283 86.6994 20.7283 86.6994C20.7283 86.6994 24.4706 90.21 31.5211 93.7826M135.211 105.884C131.82 107.35 129.484 108.506 128.347 109.539C125.824 111.873 140.607 108.981 140.607 108.981C140.607 108.981 143.564 108.362 149.188 106.916C155.37 105.326 164.736 102.704 175.984 99.0072C181.401 97.2312 186.901 95.3107 192.132 93.2869C196.681 91.5316 200.588 89.9209 203.359 88.2895C205.054 87.2983 205.323 86.1212 204.145 86.0386C201.622 85.8734 197.714 86.6581 192.649 87.7732C179.623 90.6437 164.695 95.1249 150.987 99.8539C144.743 102.002 139.429 104.025 135.211 105.843V105.884ZM133.846 91.5523C133.846 91.5523 122.04 102.518 127.168 103.963C128.843 104.438 131.613 103.839 135.128 102.621C139.47 101.093 144.598 98.6768 150.366 95.4966C163.041 88.496 176.025 79.6369 185.888 70.3854C189.795 66.7096 192.731 63.5087 193.662 60.7622C194.241 59.0688 192.649 57.6646 190.457 57.8711C187.17 58.1602 183.138 59.709 178.713 61.7328C173.627 64.0456 168.52 66.8335 163.64 69.7452C143.523 81.7845 133.846 91.5729 133.846 91.5729V91.5523ZM52.776 120.401C63.6516 119.307 75.1474 117.097 80.337 110.964C82.1772 108.775 82.2392 105.491 80.275 103.22C78.9104 101.65 76.8842 100.308 74.4651 99.1517C72.3975 98.1605 70.0611 97.2932 67.4766 96.5497C56.3736 93.3695 43.5752 92.6881 31.5005 93.8239C28.8539 94.0717 26.1867 94.2988 23.6436 94.7325C17.2341 95.8063 11.7756 97.4171 7.68177 99.5234C4.24956 101.299 1.8925 103.488 1.2102 105.657C-0.030358 109.539 4.51835 113.215 8.09529 115.011C12.3752 117.138 15.4352 117.758 15.4352 117.758C15.4352 117.758 29.3915 122.755 52.776 120.443V120.401ZM54.0372 131.449C59.4543 129.673 64.9541 127.753 70.1852 125.729C74.7339 123.974 78.6416 122.363 81.4122 120.732C83.1076 119.74 83.3764 118.563 82.1979 118.481C79.6754 118.336 75.7677 119.1 70.7021 120.215C57.6762 123.086 42.7482 127.567 29.04 132.296C22.7959 134.464 17.4822 136.467 13.285 138.285C9.8941 139.751 7.55771 140.887 6.42054 141.94C3.89807 144.273 18.6814 141.382 18.6814 141.382C18.6814 141.382 21.638 140.763 27.2619 139.317C33.444 137.727 42.8102 135.104 54.0579 131.408L54.0372 131.449Z" stroke="var(--stroke-0, white)" stroke-width="2" stroke-linecap="round" stroke-linejoin="round"/>
</svg>
