<svg preserveAspectRatio="none" width="100%" height="100%" overflow="visible" style="display: block;" viewBox="0 0 208.397 172.823" fill="none" xmlns="http://www.w3.org/2000/svg">
<path id="Vector" d="M104.184 86.7133V106.204M104.184 86.7133V1.01588V106.204M104.184 86.7133C104.184 69.2244 104.184 50.3694 104.184 32.4515C104.184 21.9518 104.184 11.4203 104.184 1C104.184 2.71554 104.184 4.44696 104.184 6.22604C104.184 31.9432 104.184 58.0257 104.184 83.727V106.204M75.9256 90.6845C93.9546 120.706 106.583 107.014 103.469 77.675C101.182 55.8972 92.1914 25.7165 76.2274 10.1654C69.2064 3.71627 62.4236 5.14588 59.8186 14.5813C57.6424 22.3807 58.0713 30.7995 58.9608 38.8213C61.2164 56.7709 67.0937 75.3717 75.9414 90.6845M53.2582 101.82C87.3307 126.33 114.843 104.186 99.1647 65.1738C90.8888 45.4769 74.623 27.4161 53.7983 21.1893C25.6667 13.8348 16.1359 38.5989 24.0623 61.7904C28.8753 77.4526 40.9794 93.1307 53.2741 101.835M40.6935 117.895C57.5312 123.724 81.7552 122.501 94.9553 108.062C107.536 94.9892 105.153 74.6093 94.1611 61.155C75.592 37.4075 35.2292 27.432 11.2275 48.4791C-2.60795 61.0279 -1.43249 81.5191 9.16254 95.577C16.5965 106.251 29.7967 114.527 40.7094 117.911M53.2582 151.824C68.6822 147.472 80.9133 136.94 90.6824 123.248C96.2896 115.163 100.817 105.664 102.707 95.8788C105.614 83.0122 102.262 65.9045 87.9502 61.838C73.527 57.8987 58.802 65.9839 48.0481 75.1811C34.1967 87.4917 23.9193 103.948 21.632 122.263C19.1063 143.135 32.37 157.416 53.2423 151.824M75.9256 162.944C90.6982 149.029 99.2124 122.374 102.58 102.328C103.946 93.1784 106.726 68.2554 95.1936 65.3803C88.2679 64.9673 83.4231 71.5594 79.5314 76.5948C70.3342 89.8744 64.6951 105.695 61.1211 121.358C58.8178 132.223 57.2611 143.564 58.9608 154.493C60.5175 165.009 66.8713 170.949 75.9414 162.944M132.459 162.944C117.686 149.029 109.172 122.374 105.805 102.328C104.438 93.1784 101.659 68.2554 113.191 65.3803C120.117 64.9673 124.961 71.5594 128.853 76.5948C138.05 89.8744 143.689 105.695 147.263 121.358C149.567 132.223 151.123 143.564 149.424 154.493C147.867 165.009 141.513 170.949 132.443 162.944M155.11 151.824C139.686 147.472 127.455 136.94 117.686 123.248C112.079 115.163 107.552 105.664 105.662 95.8788C102.755 83.0122 106.106 65.9045 120.418 61.838C134.842 57.8987 149.567 65.9839 160.32 75.1811C174.172 87.4917 184.449 103.948 186.737 122.263C189.262 143.135 175.999 157.416 155.126 151.824M167.691 135.749C152.108 136.559 133.825 130.65 121.022 118.991C109.998 109.238 102.056 93.782 105.805 78.8187C109.823 61.711 127.964 52.1643 144.627 51.7196C159.59 51.0206 175.125 56.0243 187.054 64.9832C221.619 91.0975 210.135 133.557 167.707 135.749M167.691 117.895C150.853 123.724 126.629 122.501 113.429 108.062C100.849 94.9892 103.231 74.6093 114.223 61.155C132.792 37.4075 173.155 27.432 197.157 48.4791C210.992 61.0279 209.817 81.5191 199.222 95.577C191.788 106.251 178.588 114.527 167.675 117.911M155.11 101.82C121.038 126.33 93.5257 104.186 109.204 65.1738C117.48 45.4769 133.746 27.4161 154.57 21.1893C182.702 13.8348 192.233 38.5989 184.306 61.7904C179.493 77.4526 167.389 93.1307 155.094 101.835M132.459 90.6845C114.43 120.706 101.802 107.014 104.915 77.675C107.202 55.8972 116.193 25.7165 132.157 10.1654C139.178 3.71627 145.961 5.14588 148.566 14.5813C150.742 22.3807 150.313 30.7995 149.424 38.8213C147.168 56.7709 141.291 75.3717 132.443 90.6845M40.6935 135.749C56.2763 136.559 74.5595 130.65 87.3625 118.991C98.3864 109.238 106.329 93.782 102.58 78.8187C98.5611 61.711 80.4209 52.1643 63.7579 51.7196C48.7946 51.0206 33.2595 56.0243 21.3302 64.9832C-13.2189 91.0975 -1.7343 133.557 40.6935 135.749ZM104.184 166.915C104.184 134.526 104.184 101.422 104.184 68.8908C104.184 68.0966 104.184 67.3659 104.184 66.6352C104.184 66.5875 104.184 66.8576 104.184 67.1594C104.184 67.35 104.184 67.5883 104.184 67.8424C104.184 102.376 104.184 137.353 104.184 171.823C104.184 170.663 104.184 167.82 104.184 166.915Z" stroke="var(--stroke-0, #FEFEFE)" stroke-width="2" stroke-linecap="round" stroke-linejoin="round"/>
</svg>
