<svg preserveAspectRatio="none" width="100%" height="100%" overflow="visible" style="display: block;" viewBox="0 0 80.7539 90.75" fill="none" xmlns="http://www.w3.org/2000/svg">
<g id="Layer_1">
<path id="Vector" d="M80.375 70.3748H60.375V90.3748H80.375V70.3748Z" stroke="var(--stroke-0, white)" stroke-width="0.75" stroke-linecap="round" stroke-linejoin="round"/>
<path id="Vector_2" d="M50.377 60.375L40.377 70.375L60.377 90.375V70.375L50.377 60.375Z" stroke="var(--stroke-0, white)" stroke-width="0.75" stroke-linecap="round" stroke-linejoin="round"/>
<path id="Vector_3" d="M60.3789 70.3748H80.3789L50.3789 40.3748V60.3748L60.3789 70.3748Z" stroke="var(--stroke-0, white)" stroke-width="0.75" stroke-linecap="round" stroke-linejoin="round"/>
<path id="Vector_4" d="M30.377 60.375H10.377V80.375H30.377V60.375Z" stroke="var(--stroke-0, white)" stroke-width="0.75" stroke-linecap="round" stroke-linejoin="round"/>
<path id="Vector_5" d="M20.377 50.3753L10.377 60.3753H30.377L20.377 50.3753Z" stroke="var(--stroke-0, white)" stroke-width="0.75" stroke-linecap="round" stroke-linejoin="round"/>
<path id="Vector_6" d="M30.375 60.375V80.375L40.375 70.375L50.375 60.375H30.375Z" stroke="var(--stroke-0, white)" stroke-width="0.75" stroke-linecap="round" stroke-linejoin="round"/>
<path id="Vector_7" d="M20.375 10.3748H0.375011V30.3748H20.375V10.3748Z" stroke="var(--stroke-0, white)" stroke-width="0.75" stroke-linecap="round" stroke-linejoin="round"/>
<path id="Vector_8" d="M30.3789 40.3748V20.3748L20.3789 10.3748V30.3748L30.3789 40.3748Z" stroke="var(--stroke-0, white)" stroke-width="0.75" stroke-linecap="round" stroke-linejoin="round"/>
<path id="Vector_9" d="M50.375 60.3748V40.3748H30.375L50.375 60.3748Z" stroke="var(--stroke-0, white)" stroke-width="0.75" stroke-linecap="round" stroke-linejoin="round"/>
<path id="Vector_10" d="M50.375 60.375L30.375 40.375L20.375 30.375H0.375011L20.375 50.375L30.375 60.375H50.375Z" stroke="var(--stroke-0, white)" stroke-width="0.75" stroke-linecap="round" stroke-linejoin="round"/>
<path id="Vector_11" d="M70.3789 0.375011H50.3789V20.375H70.3789V0.375011Z" stroke="var(--stroke-0, white)" stroke-width="0.75" stroke-linecap="round" stroke-linejoin="round"/>
<path id="Vector_12" d="M30.375 40.3753H50.375L70.375 20.3753H50.375L30.375 40.3753Z" stroke="var(--stroke-0, white)" stroke-width="0.75" stroke-linecap="round" stroke-linejoin="round"/>
<path id="Vector_13" d="M50.375 20.375V0.375011L30.375 20.375V40.375L50.375 20.375Z" stroke="var(--stroke-0, white)" stroke-width="0.75" stroke-linecap="round" stroke-linejoin="round"/>
</g>
</svg>
