<svg preserveAspectRatio="none" width="100%" height="100%" overflow="visible" style="display: block;" viewBox="0 0 85.9826 60.7501" fill="none" xmlns="http://www.w3.org/2000/svg">
<g id="Layer_1">
<path id="Vector" d="M66.3355 57.712C66.3355 57.712 68.0853 57.3045 70.9217 56.2818C72.2854 55.7918 73.8727 55.1579 75.5533 54.3216C77.1593 53.5226 78.8292 52.5505 80.3846 51.3413C81.8388 50.212 83.1785 48.8804 84.1479 47.3356C85.0508 45.8948 85.6181 44.2168 85.6074 42.515C85.5968 40.8051 84.9842 38.9807 83.8683 37.3214C82.6511 35.5157 80.84 33.8351 78.6455 32.349C76.2591 30.7323 73.4466 29.3501 70.3838 28.1915C67.1425 26.9637 63.6775 26.0022 60.1485 25.2751C52.779 23.757 45.4815 23.3149 39.2146 23.4587C33.0197 23.6026 28.0179 24.3137 24.6621 24.9529C21.4155 25.5734 19.6523 26.0954 19.6523 26.0954" stroke="var(--stroke-0, white)" stroke-width="0.75" stroke-miterlimit="10" stroke-linecap="round"/>
<path id="Vector_2" d="M66.3355 57.7124C66.3355 57.7124 67.9148 56.418 70.3278 53.8718C72.6902 51.3789 75.7957 47.7009 78.3072 42.8935C79.5057 40.5977 80.5444 38.0729 81.2129 35.4015C81.8548 32.8367 82.1478 30.1388 81.9134 27.4914C81.4606 22.4603 78.6721 17.4293 74.2403 14.425C71.9045 12.843 69.1267 11.7111 66.1677 11.0319C63.0649 10.3208 59.7597 10.0944 56.4571 10.2515C53.0267 10.414 49.623 10.984 46.3843 11.8149C43.0711 12.6645 39.963 13.7831 37.1372 15.0109C31.419 17.5012 27.0085 20.3803 24.0708 22.5429C21.1545 24.6895 19.6523 26.0958 19.6523 26.0958" stroke="var(--stroke-0, white)" stroke-width="0.75" stroke-miterlimit="10" stroke-linecap="round"/>
<path id="Vector_3" d="M66.3323 57.7128C66.3323 57.7128 67.3044 55.8644 68.6041 52.45C69.9065 49.0303 71.4912 44.0205 72.2795 37.9135C72.6657 34.9172 72.8495 31.6919 72.7003 28.3681C72.5538 25.1321 72.0878 21.8242 71.1982 18.6388C70.3406 15.5707 69.0888 12.6277 67.4109 10.0522C65.7996 7.58064 63.7728 5.43665 61.4557 3.86527C56.9466 0.815741 50.9967 0.0726651 45.7393 1.39901C42.9588 2.10213 40.2981 3.3033 37.8691 4.78146C35.3522 6.31555 33.0911 8.13728 31.1069 10.0309C26.992 13.9673 24.1715 18.0902 22.3445 21.1211C20.4908 24.1973 19.6465 26.0962 19.6465 26.0962" stroke="var(--stroke-0, white)" stroke-width="0.75" stroke-miterlimit="10" stroke-linecap="round"/>
<path id="Vector_4" d="M66.3333 57.7126C66.3333 57.7126 66.4239 55.8057 66.2214 52.3992C66.011 48.9076 65.4437 43.7966 63.9256 37.7402C62.4022 31.6624 59.9679 24.8043 56.3404 18.3297C54.6066 15.2376 52.6384 12.3026 50.4411 9.6978C48.3637 7.23687 46.1052 5.10353 43.7321 3.49487C41.5242 2.00073 39.2045 0.970014 36.9593 0.565186C34.8366 0.184327 32.7139 0.384076 30.8842 1.0872C29.0278 1.80364 27.3899 3.04742 26.0715 4.53357C24.6732 6.11027 23.5919 7.9613 22.7583 9.85493C21.8767 11.8524 21.2722 13.8793 20.838 15.7729C20.3879 17.7411 20.1296 19.5415 19.9644 21.0676C19.6262 24.2184 19.6528 26.0934 19.6528 26.0934" stroke="var(--stroke-0, white)" stroke-width="0.75" stroke-miterlimit="10" stroke-linecap="round"/>
<path id="Vector_5" d="M66.3341 57.713C66.3341 57.713 65.4952 56.2748 63.8093 53.7366C62.0355 51.0653 59.2603 47.1289 55.4757 42.4201C51.5819 37.5701 46.7559 32.0623 41.3147 26.6504C38.6913 24.0403 35.9933 21.5235 33.2794 19.201C30.7225 17.0144 28.2137 15.0542 25.806 13.4216C23.638 11.9541 21.6219 10.7955 19.7975 10.0711C18.2607 9.46117 16.8865 9.18152 15.8584 9.41057C14.9875 9.60499 14.3456 10.3134 14.1352 11.1471C13.8849 12.1378 14.0207 13.3257 14.3057 14.5402C14.6333 15.9278 15.15 17.3101 15.7119 18.6178C16.3218 20.032 16.9664 21.3157 17.5496 22.413C18.7934 24.7488 19.651 26.1044 19.651 26.1044" stroke="var(--stroke-0, white)" stroke-width="0.75" stroke-miterlimit="10" stroke-linecap="round"/>
<path id="Vector_6" d="M66.3296 57.7129C66.3296 57.7129 64.7955 57.1802 62.0123 56.0989C59.0693 54.9563 54.6641 53.1612 49.1936 50.6949C43.5393 48.1461 36.9476 44.9714 30.1454 41.3652C26.8615 39.6234 23.6202 37.8257 20.5227 36.0066C17.6063 34.2941 14.8951 32.6082 12.4821 30.9755C11.3688 30.2218 10.3354 29.4894 9.38992 28.7783C8.51368 28.1178 7.72533 27.4839 7.04085 26.8766C6.42029 26.3253 5.89029 25.8086 5.47481 25.3186C5.10993 24.8898 4.83826 24.4929 4.68912 24.1254C4.4654 23.5634 4.74505 23.0068 5.26174 22.8363C5.97818 22.602 6.95296 22.6686 8.02363 22.815C9.29404 22.9908 10.6124 23.2971 11.9015 23.6353C13.3104 24.0082 14.6207 24.4077 15.7553 24.7726C18.1896 25.5556 19.6491 26.0989 19.6491 26.0989" stroke="var(--stroke-0, white)" stroke-width="0.75" stroke-miterlimit="10" stroke-linecap="round"/>
<path id="Vector_7" d="M66.3302 57.7128C66.3302 57.7128 64.5671 58.2348 61.3205 58.8553C57.9647 59.4945 52.9629 60.2083 46.768 60.3495C40.5011 60.4933 33.2035 60.0512 25.8341 58.5331C22.3025 57.806 18.8401 56.8445 15.5988 55.6167C12.5386 54.4555 9.72615 53.0732 7.33713 51.4592C5.14254 49.9731 3.33146 48.2925 2.11431 46.4868C0.99837 44.8275 0.388464 43.0031 0.375148 41.2932C0.364494 39.5914 0.931788 37.9135 1.83466 36.4726C2.80146 34.9278 4.14378 33.5962 5.59797 32.4669C7.15336 31.2578 8.82328 30.2856 10.4293 29.4866C12.1125 28.6503 13.6972 28.0165 15.0608 27.5264C17.8973 26.5037 19.6471 26.0962 19.6471 26.0962" stroke="var(--stroke-0, white)" stroke-width="0.75" stroke-miterlimit="10" stroke-linecap="round"/>
</g>
</svg>
