<svg preserveAspectRatio="none" width="100%" height="100%" overflow="visible" style="display: block;" viewBox="0 0 80.9756 90.75" fill="none" xmlns="http://www.w3.org/2000/svg">
<g id="Layer_1">
<path id="Vector" d="M63.3557 26.7785L63.278 53.7009L17.6485 27.2974L17.7287 0.375001L63.3582 26.7785H63.3557Z" stroke="var(--stroke-0, white)" stroke-width="0.750002" stroke-linecap="round" stroke-linejoin="round"/>
<path id="Vector_2" d="M63.2726 53.7009L45.9995 63.7564L0.375012 37.3579L17.6431 27.2974L63.2726 53.7009Z" stroke="var(--stroke-0, white)" stroke-width="0.750002" stroke-linecap="round" stroke-linejoin="round"/>
<path id="Vector_3" d="M17.6431 27.2975L0.375001 37.358L0.447704 10.4305L17.7208 0.375016L17.6431 27.2975Z" stroke="var(--stroke-0, white)" stroke-width="0.750002" stroke-linecap="round" stroke-linejoin="round"/>
<path id="Vector_4" d="M63.1302 26.5504L63.2104 53.6608L17.26 80.2498L17.1797 53.1344L63.1302 26.5504Z" stroke="var(--stroke-0, white)" stroke-width="0.750002" stroke-linecap="round" stroke-linejoin="round"/>
<path id="Vector_5" d="M63.1316 26.5504L80.525 36.676L80.5977 63.7915L63.2093 53.6608L63.1291 26.5504H63.1316Z" stroke="var(--stroke-0, white)" stroke-width="0.750002" stroke-linecap="round" stroke-linejoin="round"/>
<path id="Vector_6" d="M63.2122 53.6603L80.6006 63.791L34.6502 90.375L17.2618 80.2493L63.2122 53.6603Z" stroke="var(--stroke-0, white)" stroke-width="0.750002" stroke-linecap="round" stroke-linejoin="round"/>
</g>
</svg>
