<?xml version="1.0" encoding="UTF-8"?>
<svg xmlns="http://www.w3.org/2000/svg" version="1.1" viewBox="0 0 1000 1000">
  <defs>
    <style>
      .st0 {
        stroke-dasharray: 0 10.0203609;
        stroke-width: 2.3192992px;
      }
      .st0, .st1, .st2, .st3, .st4, .st5, .st6, .st7, .st8, .st9, .st10, .st11, .st12, .st13, .st14, .st15, .st16, .st17, .st18, .st19, .st20, .st21, .st22, .st23, .st24, .st25, .st26, .st27, .st28, .st29, .st30, .st31, .st32, .st33, .st34, .st35, .st36, .st37, .st38, .st39, .st40, .st41, .st42, .st43, .st44, .st45, .st46, .st47, .st48, .st49, .st50, .st51, .st52, .st53, .st54, .st55, .st56, .st57, .st58, .st59, .st60, .st61, .st62, .st63, .st64, .st65, .st66, .st67, .st68, .st69, .st70, .st71, .st72, .st73, .st74, .st75, .st76, .st77, .st78, .st79, .st80, .st81, .st82, .st83, .st84, .st85, .st86, .st87, .st88, .st89, .st90, .st91, .st92, .st93, .st94, .st95, .st96, .st97, .st98, .st99, .st100, .st101, .st102, .st103 {
        fill: none;
        stroke: #fff;
        stroke-linecap: round;
        stroke-linejoin: round;
      }
      .st1 {
        stroke-dasharray: 0 10.0119944;
        stroke-width: 2.0391805px;
      }
      .st2 {
        stroke-dasharray: 0 10.0089846;
        stroke-width: 1.6078799px;
      }
      .st3 {
        stroke-dasharray: 0 10.005867;
        stroke-width: 1.3060259px;
      }
      .st4 {
        stroke-dasharray: 0 10.0103617;
        stroke-width: 1.218572px;
      }
      .st5 {
        stroke-dasharray: 0 10.020236;
        stroke-width: 2.25142px;
      }
      .st6 {
        stroke-dasharray: 0 10.0199537;
        stroke-width: 2.0594713px;
      }
      .st7 {
        stroke-dasharray: 0 10.0046015;
        stroke-width: 1.5920383px;
      }
      .st8 {
        stroke-dasharray: 0 10.0088902;
        stroke-width: 1.1369742px;
      }
      .st9 {
        stroke-dasharray: 0 10.0076361;
        stroke-width: 1.4277513px;
      }
      .st10 {
        stroke-dasharray: 0 9.9876127;
        stroke-width: 1.2804176px;
      }
      .st11 {
        stroke-dasharray: 0 9.9780369;
        stroke-width: 1.2678023px;
      }
      .st12 {
        stroke-dasharray: 0 9.9778233;
        stroke-width: 1.1829079px;
      }
      .st13 {
        stroke-dasharray: 0 9.9798613;
        stroke-width: 1.5151411px;
      }
      .st14 {
        stroke-dasharray: 0 10.0121775;
        stroke-width: 1.8653266px;
      }
      .st15 {
        stroke-dasharray: 0 9.9828053;
        stroke-width: 1.7404209px;
      }
      .st16 {
        stroke-dasharray: 0 10.0173616;
        stroke-width: 1.6400375px;
      }
      .st17 {
        stroke-dasharray: 0 9.9889441;
        stroke-width: 1.1946784px;
      }
      .st18 {
        stroke-dasharray: 0 9.9908342;
        stroke-width: 1.7752293px;
      }
      .st19 {
        stroke-dasharray: 0 9.9903784;
        stroke-width: 1.5454439px;
      }
      .st20 {
        stroke-dasharray: 0 9.9789152;
        stroke-width: 1.37231px;
      }
      .st21 {
        stroke-dasharray: 0 9.9788208;
        stroke-width: 1.7232735px;
      }
      .st22 {
        stroke-dasharray: 0 9.9867458;
        stroke-width: 2.2738227px;
      }
      .st23 {
        stroke-dasharray: 0 10.0176249;
        stroke-width: 2.1639946px;
      }
      .st24 {
        stroke-dasharray: 0 10.026845;
        stroke-width: 1.9215653px;
      }
      .st25 {
        stroke-dasharray: 0 9.9852047;
        stroke-width: 1.5302175px;
      }
      .st26 {
        stroke-dasharray: 0 10.0217266;
        stroke-width: 1.9026332px;
      }
      .st27 {
        stroke-dasharray: 0 10.0102968;
        stroke-width: 2.3656852px;
      }
      .st28 {
        stroke-dasharray: 0 10.0058641;
        stroke-width: 2.229238px;
      }
      .st29 {
        stroke-dasharray: 0 10.0130415;
        stroke-width: 2.510484px;
      }
      .st30 {
        stroke-dasharray: 0 10.031086;
        stroke-width: 1.345402px;
      }
      .st31 {
        stroke-dasharray: 0 10.0290232;
        stroke-width: 1.6894838px;
      }
      .st32 {
        stroke-dasharray: 0 10.0319242;
        stroke-width: 1.1597136px;
      }
      .st33 {
        stroke-dasharray: 0 10.015523;
        stroke-width: 2.7717772px;
      }
      .st34 {
        stroke-dasharray: 0 10.0153284;
        stroke-width: 2.7444684px;
      }
      .st35 {
        stroke-dasharray: 0 10.0306816;
        stroke-width: 1.2429434px;
      }
      .st36 {
        stroke-dasharray: 0 10.0168476;
        stroke-width: 1.8838875px;
      }
      .st37 {
        stroke-dasharray: 0 10.0065107;
        stroke-width: 2.142674px;
      }
      .st38 {
        stroke-dasharray: 0 9.9748125;
        stroke-width: 1.706295px;
      }
      .st39 {
        stroke-dasharray: 0 9.9923229;
        stroke-width: 2.2072745px;
      }
      .st40 {
        stroke-dasharray: 0 9.9908361;
        stroke-width: 2.3423774px;
      }
      .st41 {
        stroke-dasharray: 0 10.0136814;
        stroke-width: 3.0002608px;
      }
      .st42 {
        stroke-dasharray: 0 9.9743128;
        stroke-width: 1.5002133px;
      }
      .st43 {
        stroke-dasharray: 0 10.0210991;
        stroke-width: 2.6906553px;
      }
      .st44 {
        stroke-dasharray: 0 9.9865446;
        stroke-width: 1.3859652px;
      }
      .st45 {
        stroke-dasharray: 0 10.0076656;
        stroke-width: 1.8469486px;
      }
      .st46 {
        stroke-dasharray: 0 9.9868097;
        stroke-width: 1.7577389px;
      }
      .st47 {
        stroke-dasharray: 0 9.9848843;
        stroke-width: 1.1146806px;
      }
      .st48 {
        stroke-dasharray: 0 9.9795675;
        stroke-width: 2.1855274px;
      }
      .st49 {
        stroke-dasharray: 0 9.9770174;
        stroke-width: 2.0799641px;
      }
      .st50 {
        stroke-dasharray: 0 9.9600363;
        stroke-width: 1.0928241px;
      }
      .st51 {
        stroke-dasharray: 0 9.9785862;
        stroke-width: 1.9406858px;
      }
      .st52 {
        stroke-dasharray: 0 9.9908333;
        stroke-width: 1.9794995px;
      }
      .st53 {
        stroke-dasharray: 0 10.0055332;
        stroke-width: 2.4129989px;
      }
      .st54 {
        stroke-dasharray: 0 10.007391;
        stroke-width: 2.9124519px;
      }
      .st55 {
        stroke-dasharray: 0 10.0123272;
        stroke-width: 2.5861739px;
      }
      .st56 {
        stroke-dasharray: 0 9.9862566;
        stroke-width: 2.1006607px;
      }
      .st57 {
        stroke-dasharray: 0 9.9845533;
        stroke-width: 1.9599966px;
      }
      .st58 {
        stroke-dasharray: 0 9.9811049;
        stroke-width: 2.5606937px;
      }
      .st59 {
        stroke-dasharray: 0 10.0008879;
        stroke-width: 1.4136845px;
      }
      .st60 {
        stroke-dasharray: 0 10.0171804;
        stroke-width: 2.7174287px;
      }
      .st61 {
        stroke-dasharray: 0 9.9997921;
        stroke-width: 1.2065661px;
      }
      .st62 {
        stroke-dasharray: 0 10.0177755;
        stroke-width: 2.7993578px;
      }
      .st63 {
        stroke-dasharray: 0 10.0000525;
        stroke-width: 1.5763528px;
      }
      .st64 {
        stroke-dasharray: 0 10.0063705;
        stroke-width: 2.4612589px;
      }
      .st65 {
        stroke-dasharray: 0 9.9949265;
        stroke-width: 1.7928937px;
      }
      .st66 {
        stroke-dasharray: 0 9.9953003;
        stroke-width: 1.5608219px;
      }
      .st67 {
        stroke-dasharray: 0 9.9912252;
        stroke-width: 2.6378974px;
      }
      .st68 {
        stroke-dasharray: 0 9.9938593;
        stroke-width: 1.3997562px;
      }
      .st69 {
        stroke-dasharray: 0 9.9806976;
        stroke-width: 2.9414322px;
      }
      .st70 {
        stroke-dasharray: 0 10.004508;
        stroke-width: 2.0190895px;
      }
      .st71 {
        stroke-dasharray: 0 9.9820766;
        stroke-width: 2.4370094px;
      }
      .st72 {
        stroke-dasharray: 0 9.9837513;
        stroke-width: 2.3892249px;
      }
      .st73 {
        stroke-dasharray: 0 9.9836349;
        stroke-width: 2.6641458px;
      }
      .st74 {
        stroke-dasharray: 0 9.9809008;
        stroke-width: 2.8272128px;
      }
      .st75 {
        stroke-dasharray: 0 9.9960804;
        stroke-width: 2.1215634px;
      }
      .st76 {
        stroke-dasharray: 0 9.9876423;
        stroke-width: 2.855345px;
      }
      .st77 {
        stroke-dasharray: 0 10.0033045;
        stroke-width: 1.8287516px;
      }
      .st78 {
        stroke-dasharray: 0 9.9861145;
        stroke-width: 2.4857496px;
      }
      .st79 {
        stroke-dasharray: 0 9.9710426;
        stroke-width: 1.3587894px;
      }
      .st80 {
        stroke-dasharray: 0 9.997016;
        stroke-width: 1.1257722px;
      }
      .st81 {
        stroke-dasharray: 0 9.9968901;
        stroke-width: 1.2931584px;
      }
      .st82 {
        stroke-dasharray: 0 9.9725647;
        stroke-width: 1.1036982px;
      }
      .st83 {
        stroke-dasharray: 0 9.968502;
        stroke-width: 1.4854325px;
      }
      .st84 {
        stroke-dasharray: 0 9.9681644;
        stroke-width: 1.2553113px;
      }
      .st85 {
        stroke-dasharray: 0 9.9990463;
        stroke-width: 1.8107339px;
      }
      .st86 {
        stroke-dasharray: 0 9.9974604;
        stroke-width: 1.9991965px;
      }
      .st87 {
        stroke-dasharray: 0 9.9664345;
        stroke-width: 1.1712534px;
      }
      .st88 {
        stroke-dasharray: 0 10.0030661;
        stroke-width: 2.2964484px;
      }
      .st89 {
        stroke-dasharray: 0 9.9961147;
        stroke-width: 2.5354646px;
      }
      .st90 {
        stroke-dasharray: 0 10.0132627;
        stroke-width: 1.6238791px;
      }
      .st91 {
        stroke-dasharray: 0 10.0203381;
        stroke-width: 1.4563063px;
      }
      .st92 {
        stroke-dasharray: 0 10.0205288;
        stroke-width: 1.1482876px;
      }
      .st93 {
        stroke-dasharray: 0 10.000782;
        stroke-width: 2.6119076px;
      }
      .st94 {
        stroke-dasharray: 0 9.9946051;
        stroke-width: 3.0301149px;
      }
      .st95 {
        stroke-dasharray: 0 9.9961348;
        stroke-width: 2.9707009px;
      }
      .st96 {
        stroke-dasharray: 0 10.0206223;
        stroke-width: 1.2306974px;
      }
      .st97 {
        stroke-dasharray: 0 10.0263052;
        stroke-width: 1.4707973px;
      }
      .st98 {
        stroke-dasharray: 0 9.9964743;
        stroke-width: 2.883757px;
      }
      .st99 {
        stroke-dasharray: 0 10.0229521;
        stroke-width: 1.3321464px;
      }
      .st100 {
        stroke-dasharray: 0 10.0141335;
        stroke-width: 1.4419582px;
      }
      .st101 {
        stroke-dasharray: 0 10.0145721;
        stroke-width: 1.3190215px;
      }
      .st102 {
        stroke-dasharray: 0 10.0252018;
        stroke-width: 1.6728382px;
      }
      .st103 {
        stroke-dasharray: 0 10.0213432;
        stroke-width: 1.6563567px;
      }
    </style>
  </defs>
  <g id="Layer_1">
    <rect x="0" width="1000" height="1000.0000001"/>
  </g>
  <g id="Layer_2">
    <path class="st50" d="M679.5716561,382.6647831c-23.9370117,49.5869141-65.7099609,107.6166992-113.8901367,161.3432617s-102.7788086,103.1628418-152.3657227,135.5637207c-49.5869141,32.401123-84.7792969,41.6352539-101.5874023,30.373291-16.8085938-11.2619629-15.2373047-43.0229492,8.699707-92.6098633s65.7104492-107.6166992,113.890625-161.3432617c48.1801758-53.7263184,102.7788086-103.1628418,152.3657227-135.5637207s84.7788086-41.6352539,101.5874023-30.373291c16.8081055,11.2619629,15.2368164,43.0229492-8.7001953,92.6098633Z"/>
    <path class="st82" d="M681.0877694,379.4860722c-23.546875,50.0053711-65.1362305,108.7700195-113.3349609,163.3459473s-103.0180664,104.9768066-153.0234375,138.2556152c-50.0053711,33.2785645-85.7348633,43.1379395-103.0732422,32.177002-17.3383789-10.9611816-16.2905273-42.7451172,7.2563477-92.7507324,23.5463867-50.0053711,65.1362305-108.7700195,113.3344727-163.3459473,48.1987305-54.5759277,103.0180664-104.9768066,153.0239258-138.2556152,50.0053711-33.2785645,85.734375-43.1379395,103.0727539-32.1767578,17.3383789,10.9609375,16.2905273,42.744873-7.2558594,92.7504883Z"/>
    <path class="st47" d="M682.5780037,376.2807499c-23.1411133,50.4169922-64.5307617,109.9128418-112.7329102,165.338623-48.2026367,55.4257812-103.2304688,106.7949219-153.6474609,140.9584961-50.4169922,34.1638184-86.6831055,44.6577148-104.5571289,34.0070801-17.8735352-10.6508789-17.3598633-42.4487305,5.7817383-92.8657227,23.1411133-50.4169922,64.5302734-109.9128418,112.7329102-165.338623s103.2304688-106.7946777,153.6474609-140.9584961,86.6831055-44.6577148,104.5566406-34.0068359c17.8740234,10.6506348,17.3598633,42.4484863-5.78125,92.8654785Z"/>
    <path class="st80" d="M684.0418709,373.0495487c-22.7202148,50.8212891-63.8925781,111.0449219-112.0844727,167.3200684-48.1918945,56.2753906-103.4150391,108.6162109-154.2363281,143.6723633s-87.6240234,46.1938477-106.0385742,35.8630371c-18.4140625-10.3310547-18.4448242-42.1330566,4.2753906-92.9545898,22.7207031-50.8212891,63.8930664-111.0449219,112.0849609-167.3200684,48.1918945-56.2753906,103.4150391-108.6162109,154.2363281-143.6723633s87.6240234-46.1938477,106.0380859-35.8630371c18.4145508,10.3310547,18.4453125,42.1333008-4.2753906,92.9545898Z"/>
    <path class="st8" d="M685.4783944,369.7924687c-22.2841797,51.2180176-63.2226562,112.1655273-111.3886719,169.2902832-48.1660156,57.1245117-103.5717773,110.4404297-154.7895508,146.3959961-51.2182617,35.9553223-88.5566406,47.746582-107.5166016,37.7451172-18.9604492-10.001709-19.546875-41.7983398,2.737793-93.0163574s63.2226562-112.1655273,111.3886719-169.2900391c48.1660156-57.1247559,103.5717773-110.4406738,154.7900391-146.3959961,51.2177734-35.9555664,88.5561523-47.7468262,107.5166016-37.7451172,18.9599609,10.0014648,19.5463867,41.7980957-2.7382812,93.0161133Z"/>
    <path class="st92" d="M686.8870858,366.5107304c-21.8330078,51.6066895-62.5200195,113.2736816-110.6450195,171.2470703s-103.6992188,112.267334-155.3061523,149.1291504-89.480957,49.315918-108.9916992,39.6533203c-19.5112305-9.6625977-20.6640625-41.4440918,1.1689453-93.0507812,21.8325195-51.6069336,62.5195312-113.2739258,110.6445312-171.2473145s103.699707-112.267334,155.3066406-149.1291504,89.4804688-49.315918,108.9916992-39.6533203c19.5107422,9.6625977,20.6635742,41.4440918-1.1689453,93.0510254Z"/>
    <path class="st32" d="M688.265992,363.2040898c-21.3652344,51.987793-61.7836914,114.3693848-109.8520508,173.1906738-48.0678711,58.8212891-103.7978516,114.0964355-155.7856445,151.8710938-51.987793,37.7749023-90.3955078,50.9013672-110.4624023,41.5876465s-21.7973633-41.0698242-.4316406-93.0576172c21.3652344-51.987793,61.7832031-114.3693848,109.8515625-173.1906738s103.7983398-114.0964355,155.7856445-151.8710938c51.987793-37.7749023,90.3959961-50.9013672,110.4628906-41.5876465,20.0664062,9.3137207,21.796875,41.0698242.4316406,93.0576172Z"/>
    <path class="st87" d="M689.6146248,359.8735233c-20.8823242,52.3601074-61.0136719,115.4519043-109.0092773,175.119873s-103.8666992,115.9267578-156.2265625,154.6210938c-52.3603516,38.6945801-91.3012695,52.5026855-111.9287109,43.5476074-20.6279297-8.9550781-22.9467773-40.6755371-2.0644531-93.0356445,20.8818359-52.3601074,61.0136719-115.4519043,109.0087891-175.119873,47.9956055-59.6679688,103.8666992-115.9267578,156.2270508-154.6210938,52.3598633-38.6945801,91.3012695-52.5026855,111.9287109-43.5476074s22.9462891,40.6755371,2.0644531,93.0356445Z"/>
    <path class="st12" d="M690.9320077,356.5195194c-20.3828125,52.723877-60.2094727,116.5202637-108.1162109,177.0336914-47.9067383,60.5131836-103.9047852,117.7580566-156.628418,157.3786621-52.7241211,39.6206055-92.1967773,54.119873-113.3901367,45.5334473s-24.1118164-40.2609863-3.7290039-92.9848633c20.3823242-52.723877,60.2094727-116.5202637,108.1162109-177.0336914,47.90625-60.5131836,103.9042969-117.7580566,156.628418-157.3786621,52.7236328-39.6206055,92.1967773-54.119873,113.3901367-45.5334473,21.1928711,8.5864258,24.1113281,40.2609863,3.7290039,92.9848633Z"/>
    <path class="st17" d="M692.2166756,353.1423222c-19.8666992,53.0788574-59.3706055,117.574707-107.171875,178.9313965-47.8012695,61.3569336-103.9116211,119.5898438-156.9902344,160.1430664s-93.0820312,55.7529297-114.8452148,47.5449219c-21.7636719-8.2077637-25.2929688-39.8254395-5.4262695-92.9040527,19.8671875-53.0788574,59.3710938-117.574707,107.1723633-178.9313965,47.8012695-61.3569336,103.9111328-119.5898438,156.9897461-160.1430664,53.0791016-40.5532227,93.0820312-55.7529297,114.8457031-47.5449219,21.7636719,8.2077637,25.2929688,39.8254395,5.4257812,92.9040527Z"/>
    <path class="st61" d="M693.4681405,349.7431523c-19.3349609,53.4240723-58.4970703,118.6132812-106.1757812,180.8117676-47.6791992,62.1984863-103.8867188,121.4213867-157.3110352,162.9133301-53.4238281,41.4919434-93.9560547,57.4013672-116.2944336,49.5822754-22.3388672-7.8193359-26.4902344-39.3693848-7.1552734-92.7937012,19.3349609-53.4240723,58.4970703-118.6132812,106.1762695-180.8117676,47.6787109-62.1984863,103.8862305-121.4213867,157.3105469-162.9133301s93.9560547-57.4013672,116.2949219-49.5820312c22.3383789,7.8190918,26.4897461,39.3691406,7.1547852,92.793457Z"/>
    <path class="st4" d="M694.6854256,346.3220097c-18.7866211,53.7602539-57.5878906,119.6367188-105.1279297,182.6743164-47.5395508,63.0378418-103.8286133,123.2521973-157.5888672,165.6889648-53.7602539,42.4365234-94.8188477,59.0651855-117.7373047,51.6447754s-27.7026367-38.8916016-8.9165039-92.6520996c18.7861328-53.7602539,57.5878906-119.6367188,105.1274414-182.6743164,47.5395508-63.0378418,103.8291016-123.2521973,157.5893555-165.6889648,53.7602539-42.4365234,94.8188477-59.0651855,117.7373047-51.6447754s27.7026367,38.8916016,8.9165039,92.6520996Z"/>
    <path class="st96" d="M695.866578,342.8796269c-18.2207031,54.0866699-56.6425781,120.6437988-104.0253906,184.5180664-47.3828125,63.8745117-103.7382812,125.0817871-157.8251953,168.4689941-54.0864258,43.387207-95.6694336,60.7441406-119.1723633,53.7329102-23.5024414-7.0114746-28.9311523-38.3925781-10.7104492-92.479248,18.2211914-54.0866699,56.6430664-120.6437988,104.0258789-184.5180664,47.3828125-63.8745117,103.7382812-125.0817871,157.824707-168.4689941,54.0864258-43.3869629,95.6694336-60.7441406,119.1723633-53.732666,23.5029297,7.0112305,28.9311523,38.3925781,10.7104492,92.4790039Z"/>
    <path class="st35" d="M697.0115975,339.4169804c-17.6386719,54.4025879-55.6616211,121.6335449-102.8696289,186.3417969-47.2084961,64.7080078-103.6142578,126.9091797-158.0170898,171.2526855-54.4023438,44.3432617-96.5078125,62.4379883-120.5991211,55.8459473-24.0917969-6.5917969-30.1757812-37.871582-12.5371094-92.2741699,17.6381836-54.402832,55.6611328-121.6337891,102.8696289-186.3417969,47.2084961-64.708252,103.6137695-126.9094238,158.0166016-171.2529297,54.402832-44.3432617,96.5078125-62.4379883,120.5996094-55.8459473,24.0917969,6.5917969,30.175293,37.871582,12.5371094,92.2744141Z"/>
    <path class="st84" d="M698.1185311,335.9343144c-17.0390625,54.708252-54.6430664,122.605957-101.6591797,188.1445312-47.015625,65.5388184-103.4550781,128.7346191-158.1635742,174.0395508-54.7084961,45.3051758-97.3334961,64.1464844-122.0180664,57.9846191-24.6845703-6.1621094-31.4350586-37.3288574-14.3959961-92.0373535,17.0385742-54.708252,54.6430664-122.605957,101.6586914-188.1445312,47.0161133-65.5388184,103.4555664-128.7346191,158.1635742-174.0395508,54.7084961-45.3051758,97.3334961-64.1464844,122.0185547-57.984375,24.6845703,6.1618652,31.4350586,37.3286133,14.3959961,92.0371094Z"/>
    <path class="st11" d="M699.1868905,332.4323612c-16.4223633,55.003418-53.5878906,123.5600586-100.3930664,189.9257812s-103.2612305,130.5563965-158.2646484,176.8286133c-55.003418,46.2719727-98.1455078,65.8693848-123.4277344,60.1477051s-32.7104492-36.7634277-16.2880859-91.7668457,53.5874023-123.5600586,100.3925781-189.9257812,103.2617188-130.5563965,158.2651367-176.8286133c55.003418-46.2719727,98.1455078-65.8693848,123.4277344-60.1477051,25.2817383,5.7216797,32.7104492,36.7634277,16.2880859,91.7668457Z"/>
    <path class="st10" d="M700.2152108,328.9120976c-15.7885742,55.2873535-52.4946289,124.4951172-99.0703125,191.6838379-46.5761719,67.1887207-103.0322266,132.375-158.3198242,179.6191406-55.2871094,47.2441406-98.9433594,67.6064453-124.8271484,62.3356934s-34.0014648-36.1755371-18.2128906-91.4628906c15.7880859-55.2873535,52.4946289-124.4951172,99.0703125-191.6838379s103.0322266-132.375,158.3193359-179.6191406c55.2875977-47.2441406,98.9438477-67.6064453,124.8276367-62.3356934,25.8833008,5.270752,34.0009766,36.1755371,18.2128906,91.4628906Z"/>
    <path class="st81" d="M701.2025155,325.3740116c-15.1367188,55.5600586-51.3637695,125.4106445-97.6914062,193.418457-46.3271484,68.0075684-102.7666016,134.1887207-158.3261719,182.4099121-55.5600586,48.2211914-99.7275391,69.3574219-126.2167969,64.5483398s-35.3071289-35.5649414-20.1704102-91.1247559c15.1367188-55.5600586,51.3637695-125.4106445,97.690918-193.4182129,46.3276367-68.0078125,102.7666016-134.1889648,158.3266602-182.4101562s99.7270508-69.3574219,126.2163086-64.5483398,35.3076172,35.5649414,20.1708984,91.1247559Z"/>
    <path class="st3" d="M702.1473397,321.81908c-14.4672852,55.8208008-50.1938477,126.3059082-96.2539062,195.1276855-46.0600586,68.8220215-102.4638672,135.9978027-158.2851562,185.2006836-55.8208008,49.2028809-100.4956055,71.1223145-127.5947266,66.7854004-27.0986328-4.3369141-36.628418-34.9309082-22.1611328-90.751709,14.4672852-55.8210449,50.1943359-126.3059082,96.2543945-195.1279297,46.0595703-68.8220215,102.4638672-135.9978027,158.284668-185.2006836,55.8212891-49.2028809,100.4960938-71.1223145,127.5947266-66.7854004,27.0991211,4.3369141,36.6289062,34.9309082,22.1611328,90.7519531Z"/>
    <path class="st101" d="M703.0491952,318.2475468c-13.7802734,56.0700684-48.9858398,127.1801758-94.7587891,196.8117676-45.7724609,69.6313477-102.1235352,137.8010254-158.1938477,187.9899902-56.0698242,50.189209-101.2485352,72.9003906-128.9609375,69.0466309s-37.965332-34.2734375-24.1850586-90.3435059,48.9858398-127.1801758,94.7587891-196.8115234c45.7729492-69.6315918,102.1240234-137.8012695,158.1938477-187.9902344,56.0703125-50.1889648,101.2490234-72.9003906,128.9614258-69.0466309s37.9648438,34.2736816,24.1845703,90.3435059Z"/>
    <path class="st99" d="M703.906617,314.6606327c-13.0751953,56.3068848-47.7382812,128.032959-93.2041016,198.4685059-45.4658203,70.435791-101.7456055,139.5981445-158.0522461,190.7775879-56.3071289,51.1796875-101.9858398,74.6916504-130.3154297,71.3317871s-39.3168945-33.5925293-26.2416992-89.8991699c13.0751953-56.3068848,47.7387695-128.032959,93.2045898-198.4685059,45.4658203-70.435791,101.7456055-139.5981445,158.0522461-190.7775879,56.3066406-51.1796875,101.9858398-74.6916504,130.3154297-71.3317871s39.3164062,33.5925293,26.2412109,89.8991699Z"/>
    <path class="st30" d="M704.7186287,311.0590702c-12.3520508,56.5310059-46.4511719,128.8632812-91.590332,200.0974121-45.1386719,71.234375-101.328125,141.3879395-157.859375,193.5620117-56.5307617,52.1743164-102.7060547,76.4958496-131.65625,73.6408691-28.9506836-2.8549805-40.6831055-32.8874512-28.3310547-89.418457,12.3515625-56.5310059,46.4511719-128.8632812,91.5898438-200.0974121,45.1391602-71.234375,101.3286133-141.3879395,157.859375-193.5620117,56.53125-52.1740723,102.7060547-76.4958496,131.6567383-73.6408691,28.9501953,2.8552246,40.6831055,32.8874512,28.3310547,89.418457Z"/>
    <path class="st79" d="M705.4837655,307.4435917c-11.6103516,56.7421875-45.1240234,129.6704102-89.9155273,201.6972656-44.7915039,72.0270996-100.871582,143.1704102-157.6137695,196.3427734-56.7426758,53.1726074-103.409668,78.3125-132.984375,75.9731445-29.574707-2.3391113-42.0644531-32.1582031-30.4536133-88.9003906,11.6103516-56.7421875,45.1240234-129.6704102,89.9155273-201.6972656,44.7915039-72.0270996,100.871582-143.1704102,157.6137695-196.3427734,56.7421875-53.1726074,103.4091797-78.3125,132.9838867-75.9731445,29.574707,2.3391113,42.0644531,32.1582031,30.4541016,88.9003906Z"/>
    <path class="st20" d="M706.2010506,303.8149296c-10.8505859,56.9404297-43.7568359,130.4541016-88.1801758,203.267334-44.4233398,72.8134766-100.3745117,144.9440918-157.3149414,199.1186523-56.9399414,54.1745605-104.0947266,80.1413574-134.296875,78.3288574-30.2026367-1.8125-43.4604492-31.404541-32.6098633-88.3447266,10.8505859-56.9404297,43.7563477-130.4541016,88.1796875-203.267334,44.4233398-72.8134766,100.375-144.9440918,157.3149414-199.1186523,56.9404297-54.1743164,104.0947266-80.1413574,134.2973633-78.3288574,30.2021484,1.8125,43.4604492,31.404541,32.6098633,88.3447266Z"/>
    <path class="st44" d="M706.8690194,300.1743046c-10.0722656,57.1247559-42.3481445,131.2128906-86.3823242,204.8059082s-99.8369141,146.7089844-156.9619141,201.8886719c-57.1245117,55.1799316-104.7617188,81.9821777-135.5947266,80.7077637-30.8334961-1.2744141-44.8710938-30.6262207-34.7988281-87.7509766,10.0717773-57.1245117,42.3481445-131.2128906,86.3818359-204.8059082,44.0341797-73.5930176,99.8374023-146.7089844,156.9619141-201.8886719,57.125-55.1799316,104.7617188-81.9821777,135.5952148-80.7077637,30.8334961,1.2746582,44.8710938,30.6262207,34.7988281,87.7509766Z"/>
    <path class="st68" d="M707.4866952,296.5219608c-9.2749023,57.2954102-40.8984375,131.9470215-84.5219727,206.3127441s-99.2578125,148.463623-156.5532227,204.6520996c-57.2954102,56.1882324-105.409668,83.8344727-136.8774414,83.1091309s-46.2958984-29.8227539-37.0209961-87.1179199c9.2753906-57.2954102,40.8989258-131.9470215,84.5224609-206.3127441s99.2578125-148.463623,156.5527344-204.6520996c57.2954102-56.1882324,105.4101562-83.8344727,136.8779297-83.1091309,31.4672852.7253418,46.2958984,29.8227539,37.0205078,87.1179199Z"/>
    <path class="st59" d="M708.0531014,292.8596073c-8.4594727,57.4516602-39.4072266,132.6547852-82.5986328,207.7856445-43.1914062,75.1311035-98.6367188,150.2080078-156.0883789,207.407959-57.4516602,57.199707-106.0385742,85.6982422-138.1430664,85.532959-32.1049805-.1650391-47.7353516-28.9938965-39.2758789-86.4455566,8.4589844-57.4519043,39.4072266-132.6550293,82.5986328-207.7858887s98.6362305-150.2080078,156.0878906-207.4077148c57.4521484-57.1999512,106.0385742-85.6982422,138.1435547-85.5332031,32.1044922.1650391,47.7353516,28.9938965,39.2758789,86.4458008Z"/>
    <path class="st9" d="M708.5667733,289.1874882c-7.6245117,57.5935059-37.8745117,133.3361816-80.6118164,209.2243652-42.7368164,75.8884277-97.972168,151.9411621-155.565918,210.1547852-57.5932617,58.2138672-106.6469727,87.572998-139.3916016,87.979248-32.7451172.4064941-49.1884766-28.1396484-41.5639648-85.7333984,7.6240234-57.5935059,37.8740234-133.3359375,80.6113281-209.2243652s97.9726562-151.9411621,155.565918-210.1547852c57.59375-58.2138672,106.6474609-87.572998,139.3920898-87.979248,32.7446289-.4064941,49.1884766,28.1396484,41.5639648,85.7333984Z"/>
    <path class="st100" d="M709.0262459,285.5068241c-6.7705078,57.720459-36.2988281,133.9899902-78.5595703,210.6276855-42.2607422,76.6374512-97.2646484,153.6618652-154.9853516,212.8920898-57.7207031,59.2299805-107.2353516,89.4577637-140.6225586,90.4470215-33.3876953.9892578-50.6557617-27.2597656-43.8852539-84.9802246,6.7705078-57.7207031,36.2988281-133.9902344,78.5595703-210.6276855,42.2612305-76.6376953,97.2651367-153.6621094,154.9858398-212.8920898,57.7202148-59.2302246,107.2348633-89.4580078,140.6225586-90.4472656,33.387207-.9892578,50.6557617,27.2597656,43.8847656,84.9804688Z"/>
    <path class="st91" d="M709.4310311,281.8183476c-5.8974609,57.8322754-34.6806641,134.6159668-76.4428711,211.9941406-41.7617188,77.3781738-96.5131836,155.3701172-154.3452148,215.6186523-57.8325195,60.2485352-107.8022461,91.3532715-141.8349609,92.9367676-34.0327148,1.583252-52.1367188-26.3540039-46.2392578-84.1862793,5.8979492-57.8322754,34.6806641-134.6159668,76.4428711-211.9941406s96.5131836-155.3701172,154.3457031-215.6186523c57.8320312-60.2485352,107.8022461-91.3532715,141.8349609-92.9367676,34.0327148-1.583252,52.1362305,26.3540039,46.2387695,84.1862793Z"/>
    <path class="st97" d="M709.7791756,278.1235233c-5.0048828,57.9284668-33.0195312,135.2126465-74.2597656,213.3225098s-95.7167969,157.0644531-153.6455078,218.3334961c-57.9282227,61.2687988-108.347168,93.2583008-143.0273438,95.4472656-34.6806641,2.1889648-53.6313477-25.421875-48.6259766-83.3503418s33.0195312-135.2126465,74.2602539-213.3225098c41.2402344-78.1098633,95.7167969-157.0644531,153.6450195-218.333252,57.9287109-61.269043,108.347168-93.2585449,143.027832-95.4475098,34.6801758-2.1889648,53.6308594,25.421875,48.6254883,83.3503418Z"/>
    <path class="st83" d="M710.0701912,274.4228398c-4.09375,58.0087891-31.3149414,135.7800293-72.0107422,214.6120605s-94.8754883,158.7443848-152.8837891,221.0351562c-58.0087891,62.2907715-108.8696289,95.1730957-144.2001953,97.9790039-35.3305664,2.8061523-55.1391602-24.4631348-51.0454102-82.4719238,4.0932617-58.0087891,31.3149414-135.7800293,72.0102539-214.6120605,40.6958008-78.8320312,94.8754883-158.7443848,152.8842773-221.0351562s108.8696289-95.1730957,144.2001953-97.9790039c35.3300781-2.8061523,55.1391602,24.4631348,51.0454102,82.4719238Z"/>
    <path class="st42" d="M710.3021248,270.7177616c-3.1625977,58.0727539-29.5668945,136.3166504-69.6943359,215.861084-40.1274414,79.5446777-93.987793,160.4091797-152.0605469,223.7231445s-109.3686523,97.0964355-145.3515625,100.5310059c-35.9824219,3.4345703-56.6601562-23.4780273-53.4975586-81.5507812,3.1621094-58.0727539,29.5668945-136.3166504,69.6938477-215.861084,40.1274414-79.5446777,93.987793-160.4091797,152.0605469-223.7231445s109.3691406-97.0964355,145.3515625-100.5310059c35.9829102-3.4345703,56.6606445,23.4780273,53.4980469,81.5507812Z"/>
    <path class="st13" d="M710.4739998,267.0090214c-2.2119141,58.1201172-27.7744141,136.8220215-67.3100586,217.0688477s-93.0532227,162.0578613-151.1733398,226.3959961-109.8447266,99.0285645-146.4819336,103.1032715c-36.6367188,4.0744629-58.1943359-22.4658203-55.9824219-80.5859375,2.2114258-58.1203613,27.7744141-136.8222656,67.3100586-217.0690918,39.5351562-80.2468262,93.0532227-162.0578613,151.1733398-226.3959961s109.8447266-99.0285645,146.4814453-103.1032715c36.6367188-4.0744629,58.1943359,22.4658203,55.9829102,80.5861816Z"/>
    <path class="st25" d="M710.5843514,263.2975956c-1.2412109,58.1508789-25.9379883,137.2958984-64.8574219,218.2341309-38.9194336,80.9384766-92.0712891,163.6896973-150.222168,229.0527344-58.1508789,65.362793-110.2963867,100.9689941-147.5888672,105.6950684-37.2929688,4.7260742-59.7416992-21.4265137-58.5004883-79.5771484,1.2416992-58.1508789,25.9379883-137.2958984,64.8574219-218.2341309,38.9194336-80.9384766,92.0717773-163.6896973,150.222168-229.0527344,58.1508789-65.362793,110.2963867-100.96875,147.5893555-105.6950684,37.2924805-4.7260742,59.7412109,21.4265137,58.5,79.5771484Z"/>
    <path class="st19" d="M710.632203,259.5849491c-.2509766,58.1640625-24.0561523,137.7368164-62.3354492,219.3554688-38.2792969,81.6188965-91.0419922,165.3037109-149.2060547,231.6918945s-110.7231445,102.9169922-148.6733398,108.3063965c-37.9501953,5.3891602-61.3007812-20.3598633-61.0498047-78.5236816.2509766-58.1640625,24.0566406-137.7365723,62.3359375-219.3554688s91.0415039-165.3037109,149.2055664-231.6918945,110.7231445-102.9169922,148.6733398-108.3063965c37.9501953-5.3891602,61.3007812,20.3598633,61.0498047,78.5236816Z"/>
    <path class="st66" d="M710.616578,255.8720585c.7587891,58.159668-22.1298828,138.1437988-59.7446289,220.4316406-37.6142578,82.2878418-89.9633789,166.8994141-148.1230469,234.3127441s-111.1240234,104.8723145-149.7333984,110.9365234c-38.609375,6.0639648-62.8730469-19.2653809-63.6318359-77.4250488-.7592773-58.159668,22.1298828-138.1437988,59.7441406-220.4316406,37.6147461-82.2878418,89.9638672-166.8994141,148.1235352-234.3127441s111.1240234-104.8723145,149.7333984-110.9362793c38.609375-6.064209,62.8725586,19.2651367,63.6318359,77.4248047Z"/>
    <path class="st63" d="M710.5355233,252.1599003c1.7890625,58.137207-20.1582031,138.5168457-57.0830078,221.4616699-36.9248047,82.9450684-88.8364258,168.4753418-146.9736328,236.9138184s-111.4990234,106.8347168-150.7685547,113.5849609c-39.2695312,6.7504883-64.456543-18.1430664-66.2456055-76.2802734s20.1582031-138.5168457,57.0830078-221.4616699c36.9248047-82.9450684,88.8359375-168.4753418,146.9731445-236.9138184s111.4990234-106.8344727,150.7685547-113.5849609c39.2700195-6.7504883,64.4570312,18.1430664,66.2460938,76.2802734Z"/>
    <path class="st7" d="M710.3880623,248.4499394c2.8393555,58.0964355-18.140625,138.8544922-54.3505859,222.4440918s-87.6591797,170.0310059-145.7553711,239.4938965c-58.0966797,69.4631348-111.847168,108.8032227-151.7783203,116.251709s-66.0527344-16.9929199-68.8916016-75.0895996c-2.8393555-58.0964355,18.140625-138.8544922,54.3505859-222.4440918s87.6586914-170.0310059,145.7553711-239.4938965c58.0961914-69.4631348,111.847168-108.8032227,151.7783203-116.251709s66.0522461,16.9929199,68.8916016,75.0895996Z"/>
    <path class="st2" d="M710.1727303,244.7429081c3.909668,58.0371094-16.0771484,139.1564941-51.546875,223.3779297s-86.4306641,171.5654297-144.4677734,242.0522461c-58.0371094,70.4865723-112.1679688,110.7775879-152.7617188,118.9355469-40.59375,8.1582031-67.659668-15.8144531-71.5693359-73.8515625s16.0776367-139.1564941,51.5473633-223.3779297,86.4306641-171.5654297,144.4677734-242.052002c58.0371094-70.4868164,112.1679688-110.7775879,152.7612305-118.935791,40.59375-8.1582031,67.6601562,15.8144531,71.5693359,73.8515625Z"/>
    <path class="st90" d="M709.8890389,241.0405155c5,57.9587402-13.9677734,139.4213867-48.671875,224.2612305-34.7036133,84.8400879-85.1518555,173.078125-143.1103516,244.5871582s-112.4604492,112.7575684-153.7172852,121.6369629c-41.2568359,8.8796387-69.2783203-14.607666-74.2783203-72.5664062-5-57.9584961,13.9677734-139.4213867,48.6713867-224.2612305,34.7036133-84.8400879,85.1518555-173.078125,143.1103516-244.5871582,57.9589844-71.5090332,112.4609375-112.7575684,153.7172852-121.6369629,41.2568359-8.8796387,69.2788086,14.607666,74.2788086,72.5664062Z"/>
    <path class="st16" d="M709.5345467,237.3434941c6.1108398,57.8608398-11.8115234,139.6489258-45.7236328,225.09375-33.9116211,85.4448242-83.8208008,174.5673828-141.6816406,247.0974121-57.8608398,72.5297852-112.7246094,114.7421875-154.6450195,124.3547363-41.9204102,9.612793-70.9082031-13.3720703-77.019043-71.2329102s11.8120117-139.6489258,45.7236328-225.09375,83.8212891-174.5673828,141.6821289-247.0974121c57.8608398-72.5297852,112.7241211-114.7421875,154.6445312-124.3547363,41.9204102-9.612793,70.9082031,13.3720703,77.019043,71.2329102Z"/>
    <path class="st103" d="M709.1087655,233.6535526c7.2416992,57.7431641-9.6088867,139.8378906-42.7026367,225.873291-33.0932617,86.0356445-82.4375,176.0332031-140.1806641,249.5820312-57.7436523,73.5488281-112.9589844,116.7314453-155.543457,127.088623-42.5849609,10.3574219-72.5488281-12.1079102-79.7910156-69.8510742-7.2416992-57.7431641,9.609375-139.8376465,42.7026367-225.873291,33.09375-86.0356445,82.4379883-176.032959,140.1811523-249.5820312,57.7431641-73.5488281,112.9589844-116.7314453,155.543457-127.088623,42.5844727-10.3574219,72.5488281,12.1079102,79.7905273,69.8510742Z"/>
    <path class="st102" d="M708.6102303,229.9716679c8.3930664,57.6054688-7.359375,139.9875488-39.6079102,226.5991211-32.2490234,86.6115723-81.0014648,177.4736328-138.6074219,252.0393066-57.6054688,74.5654297-113.1630859,118.7246094-156.4121094,129.8383789-43.2485352,11.1137695-74.199707-10.8146973-82.5927734-68.420166-8.3935547-57.6054688,7.3588867-139.9875488,39.6079102-226.5991211,32.2485352-86.6115723,81.0014648-177.4736328,138.6069336-252.0393066,57.6054688-74.5654297,113.1630859-118.7243652,156.4121094-129.8383789,43.2490234-11.1137695,74.199707,10.8146973,82.5932617,68.420166Z"/>
    <path class="st31" d="M708.0374764,226.2993046c9.5649414,57.4472656-5.0625,140.097168-36.4394531,227.2695312s-79.5117188,178.8886719-136.9589844,254.4685059c-57.4472656,75.5795898-113.3369141,120.7207031-157.25,132.6027832s-75.8608398-9.4919434-85.4262695-66.9394531c-9.5654297-57.4472656,5.0620117-140.097168,36.4389648-227.2695312,31.3774414-87.1723633,79.5117188-178.8886719,136.9589844-254.4682617,57.4477539-75.579834,113.3369141-120.7209473,157.2504883-132.6030273,43.9130859-11.8820801,75.8608398,9.4919434,85.4262695,66.9394531Z"/>
    <path class="st38" d="M707.3890389,222.6376835c10.7573242,57.2683105-2.7177734,140.1657715-33.1958008,227.8835449-30.4785156,87.7177734-77.9677734,180.2768555-135.2358398,256.8676758-57.2685547,76.5908203-113.4794922,122.7199707-158.0566406,135.3820801-44.5771484,12.6618652-77.5322266-8.1401367-88.2895508-65.4084473-10.7578125-57.2683105,2.7172852-140.1660156,33.1958008-227.8837891s77.9672852-180.2768555,135.2358398-256.8676758c57.2680664-76.5908203,113.4790039-122.7199707,158.0561523-135.3820801,44.5776367-12.6618652,77.5322266,8.1401367,88.2900391,65.4086914Z"/>
    <path class="st21" d="M706.6639412,218.9880253c11.9707031,57.0681152-.3251953,140.1928711-29.8774414,228.4399414-29.5527344,88.2468262-76.3686523,181.637207-133.4365234,259.2358398-57.0683594,77.5986328-113.5893555,124.7214355-158.8305664,138.1750488-45.2407227,13.4536133-79.2128906-6.7587891-91.1831055-63.8269043-11.9707031-57.0681152.3251953-140.1928711,29.8774414-228.4399414,29.5522461-88.2468262,76.3681641-181.637207,133.4365234-259.2358398,57.0678711-77.5986328,113.5893555-124.7214355,158.8300781-138.1750488,45.2412109-13.4536133,79.2128906,6.7587891,91.1835938,63.8269043Z"/>
    <path class="st15" d="M705.8607186,215.3517948c13.2041016,56.8464355,2.1152344,140.1774902-26.4838867,228.9370117-28.5986328,88.7595215-74.7138672,182.9692383-131.5600586,261.5717773-56.8461914,78.6027832-113.6665039,126.7246094-159.5708008,140.9814453-45.9038086,14.2570801-80.9023438-5.3476562-94.1064453-62.1938477-13.2041016-56.8464355-2.1152344-140.1774902,26.4833984-228.9370117s74.7138672-182.9692383,131.5600586-261.5717773c56.8466797-78.6027832,113.6669922-126.7246094,159.5708008-140.9814453,45.9042969-14.2570801,80.902832,5.3476562,94.1069336,62.1938477Z"/>
    <path class="st46" d="M704.9779061,211.7307011c14.4584961,56.6025391,4.6035156,140.1184082-23.0136719,229.3735352-27.6166992,89.255127-73.0029297,184.2712402-129.605957,263.8737793-56.6025391,79.6027832-113.7104492,128.7287598-160.2768555,143.8005371-46.565918,15.0720215-82.6010742-3.9064941-97.0595703-60.5090332-14.4580078-56.6027832-4.6035156-140.1186523,23.0136719-229.3737793s73.003418-184.2712402,129.605957-263.8737793c56.6025391-79.6027832,113.7109375-128.7287598,160.2768555-143.8005371,46.565918-15.0720215,82.6015625,3.9064941,97.0595703,60.5092773Z"/>
    <path class="st18" d="M704.0150155,208.1254765c15.7329102,56.3366699,7.1401367,140.0153809-19.4672852,229.7485352s-71.2363281,185.5427246-127.5727539,266.1408691c-56.3369141,80.5981445-113.7207031,130.7331543-160.9477539,146.6318359-47.2275391,15.8984375-84.309082-2.435791-100.0419922-58.7722168-15.7329102-56.3366699-7.1401367-140.0151367,19.4672852-229.748291s71.2358398-185.5429688,127.5727539-266.1411133c56.3364258-80.5981445,113.7207031-130.7331543,160.9477539-146.6318359,47.2270508-15.8984375,84.3085938,2.435791,100.0419922,58.7722168Z"/>
    <path class="st65" d="M702.9696053,204.5383183c17.0283203,56.0478516,9.7255859,139.8666992-15.84375,230.0598145-25.5698242,90.1931152-69.4116211,186.7827148-125.4599609,268.3713379-56.0478516,81.5888672-113.6958008,132.737793-161.5825195,149.4746094s-86.0244141-.9343262-103.0527344-56.9824219c-17.0288086-56.0478516-9.7255859-139.8666992,15.84375-230.0598145s69.4116211-186.7827148,125.4594727-268.3713379c56.0478516-81.5888672,113.6958008-132.737793,161.5830078-149.4746094,47.8867188-16.7368164,86.0244141.9343262,103.0527344,56.9824219Z"/>
    <path class="st85" d="M701.8406991,200.970203c18.3447266,55.7363281,12.3598633,139.6721191-12.1430664,230.3068848-24.5029297,90.6345215-67.5292969,187.9897461-123.265625,270.5637207-55.7363281,82.5742188-113.6352539,134.7414551-162.1806641,152.3283691-48.5449219,17.5866699-87.7475586.5969238-106.0922852-55.1394043-18.3442383-55.736084-12.359375-139.6721191,12.1430664-230.3068848,24.5029297-90.6345215,67.5292969-187.9897461,123.265625-270.5637207s113.6357422-134.7414551,162.1806641-152.3283691c48.5449219-17.5866699,87.7480469-.5969238,106.0922852,55.1394043Z"/>
    <path class="st77" d="M700.6273202,197.4225956c19.6816406,55.4013672,15.0424805,139.4309082-8.3647461,230.4880371-23.4072266,91.0568848-65.5883789,189.1633301-120.9897461,272.7167969-55.4008789,83.5537109-113.5385742,136.7438965-162.7402344,155.1921387s-89.4790039,2.1589355-109.1601562-53.2421875-15.0424805-139.4309082,8.3647461-230.4880371c23.4072266-91.0568848,65.5883789-189.1633301,120.9897461-272.7167969,55.4013672-83.5537109,113.5390625-136.7438965,162.7407227-155.1921387,49.2011719-18.4482422,89.4785156-2.1589355,109.159668,53.2421875Z"/>
    <path class="st45" d="M699.3280037,193.897205c21.0390625,55.0424805,17.7744141,139.1420898-4.5078125,230.6018066-22.2827148,91.4597168-63.5888672,190.302002-118.6313477,274.8291016-55.0424805,84.5273438-113.4057617,138.7443848-163.2617188,158.0656738s-91.2167969,3.7514648-112.2553711-51.2910156-17.7744141-139.1420898,4.5083008-230.6018066,63.5888672-190.302002,118.6308594-274.8291016c55.0424805-84.5273438,113.4057617-138.7441406,163.2617188-158.0654297s91.2167969-3.751709,112.2553711,51.2907715Z"/>
    <path class="st14" d="M697.9417733,190.395496c22.4165039,54.659668,20.5551758,138.8044434-.5732422,230.6469727s-61.5292969,191.4050293-116.1889648,276.8991699-113.2348633,140.7416992-163.7426758,160.9475098c-50.5083008,20.2060547-92.9614258,5.3747559-115.378418-49.284668-22.4169922-54.659668-20.5556641-138.8044434.5732422-230.6469727,21.128418-91.8425293,61.5292969-191.4050293,116.1889648-276.8991699,54.6591797-85.4941406,113.234375-140.7416992,163.7426758-160.9475098,50.5078125-20.2060547,92.9614258-5.3747559,115.378418,49.284668Z"/>
    <path class="st36" d="M696.4661873,186.9189335c23.815918,54.2521973,23.3857422,138.4174805,3.440918,230.6220703s-59.409668,192.4711914-113.6621094,278.925293c-54.2519531,86.4541016-113.0253906,142.736084-164.1831055,163.8381348-51.1577148,21.1018066-94.7124023,7.0288086-118.5283203-47.2233887-23.8154297-54.2521973-23.3857422-138.4174805-3.440918-230.6220703,19.9453125-92.2045898,59.4101562-192.4711914,113.6621094-278.925293,54.2524414-86.4541016,113.0258789-142.736084,164.1835938-163.8381348,51.1577148-21.1018066,94.7124023-7.0285645,118.527832,47.2233887Z"/>
    <path class="st26" d="M694.9012459,183.4692265c25.2348633,53.8200684,26.265625,137.9799805,7.5336914,230.5256348-18.7314453,92.5456543-57.2294922,193.4995117-111.0493164,280.90625-53.8203125,87.4067383-112.777832,144.7263184-164.5825195,166.7358398-51.8046875,22.0092773-96.4692383,8.713623-121.7041016-45.1062012-25.2353516-53.8200684-26.265625-137.9799805-7.5341797-230.5256348s57.2299805-193.4995117,111.0498047-280.90625,112.7773438-144.7263184,164.5820312-166.7358398c51.8046875-22.0092773,96.4692383-8.713623,121.7045898,45.1062012Z"/>
    <path class="st24" d="M693.2445077,180.0480839c26.675293,53.3625488,29.1948242,137.4912109,11.7070312,230.3562012-17.4882812,92.8649902-54.9887695,194.4890137-108.3510742,282.840332-53.362793,88.3515625-112.4897461,146.7119141-164.9384766,169.6401367-52.4482422,22.9282227-98.2314453,10.4296875-124.9067383-42.9328613s-29.1948242-137.4912109-11.706543-230.3562012,54.9882812-194.4887695,108.3510742-282.840332c53.3623047-88.3515625,112.4892578-146.7119141,164.9379883-169.6401367s98.2314453-10.4296875,124.9067383,42.9328613Z"/>
    <path class="st51" d="M691.4954842,176.6567265c28.1357422,52.8796387,32.1738281,136.9506836,15.9594727,230.112793-16.2143555,93.1623535-52.6855469,195.4382324-105.5649414,284.7260742s-112.1616211,148.6921387-165.2509766,172.5505371c-53.0888672,23.8583984-99.9985352,12.1767578-128.1347656-40.7028809-28.1357422-52.8793945-32.1738281-136.9506836-15.9589844-230.112793,16.2143555-93.1621094,52.6850586-195.4379883,105.5649414-284.7260742,52.8793945-89.2878418,112.1611328-148.6921387,165.2504883-172.5505371,53.0893555-23.8581543,99.9990234-12.1767578,128.1347656,40.7028809Z"/>
    <path class="st57" d="M689.6527108,173.2971073c29.6171875,52.3706055,35.2021484,136.3571777,20.2919922,229.7937012s-50.3198242,196.3461914-102.690918,286.5617676c-52.3706055,90.2158203-111.7919922,150.6662598-165.5185547,175.4660645-53.7260742,24.7998047-101.7709961,13.954834-131.3876953-38.4157715-29.6171875-52.3706055-35.2026367-136.3569336-20.2924805-229.7937012,14.9106445-93.4365234,50.3203125-196.3461914,102.690918-286.5617676s111.7919922-150.6660156,165.5185547-175.4658203,101.7709961-13.9550781,131.3881836,38.4155273Z"/>
    <path class="st52" d="M687.7142342,169.9706913c31.1191406,51.8354492,38.28125,135.7097168,24.7055664,229.3974609-13.5756836,93.6879883-47.8920898,197.2121582-99.7275391,288.3461914-51.8354492,91.1342773-111.3808594,152.6333008-165.7407227,178.3857422s-103.5473633,15.7646484-134.6660156-36.0708008-38.2807617-135.7097168-24.7050781-229.3974609c13.5751953-93.6879883,47.8916016-197.2121582,99.7270508-288.3461914,51.8354492-91.1342773,111.3813477-152.6333008,165.7412109-178.3857422s103.546875-15.7646484,134.6655273,36.0708008Z"/>
    <path class="st86" d="M685.6795662,166.6794316c32.6411133,51.2734375,41.4091797,135.0075684,29.1992188,228.9228516-12.2099609,93.9150391-45.4003906,198.0344238-96.6738281,290.0773926-51.2739258,92.0432129-110.9277344,154.5927734-165.9169922,181.309082-54.9892578,26.7160645-105.3266602,17.6054688-137.9677734-33.6682129-32.6411133-51.2734375-41.4086914-135.0075684-29.1992188-228.9226074,12.2099609-93.9152832,45.4008789-198.034668,96.6743164-290.0776367,51.2734375-92.0432129,110.9277344-154.5927734,165.9169922-181.309082,54.9887695-26.7160645,105.3266602-17.6054688,137.9672852,33.6682129Z"/>
    <path class="st70" d="M683.547242,163.4247929c34.1835938,50.6848145,44.5869141,134.2497559,33.7739258,228.3681641-10.8134766,94.1181641-42.8452148,198.8125-93.5302734,291.7543945-50.6845703,92.9416504-110.4306641,156.5437012-166.0449219,184.2348633-55.6142578,27.690918-107.1098633,19.4777832-141.293457-31.2070312-34.1835938-50.6845703-44.5864258-134.2497559-33.7734375-228.3681641,10.8129883-94.1181641,42.8452148-198.8125,93.5297852-291.7543945,50.6845703-92.9416504,110.4311523-156.5437012,166.0454102-184.2348633,55.6137695-27.690918,107.109375-19.4777832,141.2929688,31.2070312Z"/>
    <path class="st1" d="M681.3157967,160.2087284c35.746582,50.0683594,47.8144531,133.4355469,38.4291992,227.7319336-9.3847656,94.2966309-40.2255859,199.545166-90.2939453,293.375s-109.890625,158.4858398-166.125,187.1625977-108.8950195,21.3815918-144.6416016-28.6870117c-35.746582-50.0683594-47.8149414-133.4355469-38.4296875-227.7319336s40.2255859-199.545166,90.2944336-293.375c50.0683594-93.829834,109.8901367-158.4858398,166.1245117-187.1625977,56.2348633-28.6767578,108.8955078-21.3815918,144.6420898,28.6870117Z"/>
    <path class="st6" d="M678.9837655,157.032703c37.3295898,49.4245605,51.0922852,132.564209,43.1665039,227.0134277-7.9257812,94.4489746-37.5415039,200.2307129-86.9658203,294.9375-49.4248047,94.7070312-109.3051758,160.4179688-166.1552734,190.0913086-56.8500977,29.673584-110.6831055,23.3168945-148.0126953-26.107666-37.3300781-49.4245605-51.0922852-132.564209-43.1665039-227.0134277,7.925293-94.4489746,37.5410156-200.2304688,86.9658203-294.9375,49.4243164-94.7067871,109.3051758-160.4179688,166.1552734-190.0913086,56.8496094-29.673584,110.6826172-23.3168945,148.0126953,26.107666Z"/>
    <path class="st49" d="M676.5496834,153.8986698c38.9331055,48.7524414,54.4199219,131.6345215,47.9853516,226.2104492s-34.7919922,200.8684082-83.5444336,296.4406738c-48.7524414,95.5725098-108.6743164,162.3393555-166.1347656,193.0202637-57.4604492,30.6811523-112.4726562,25.2836914-151.4057617-23.46875s-54.4199219-131.6345215-47.9853516-226.2104492c6.4345703-94.5756836,34.7919922-200.8684082,83.5444336-296.4406738,48.7524414-95.5725098,108.6748047-162.3393555,166.1352539-193.0202637,57.4599609-30.6811523,112.472168-25.2836914,151.4052734,23.46875Z"/>
    <path class="st56" d="M674.0130623,150.8085819c40.5566406,48.052002,57.7973633,130.645752,52.8852539,225.3217773-4.9116211,94.6760254-31.9765625,201.4572754-80.0283203,297.8828125-48.0522461,96.4255371-107.9980469,164.2490234-166.0634766,195.9482422-58.0649414,31.6992188-114.2631836,27.2819824-154.8198242-20.7700195s-57.796875-130.645752-52.8852539-225.3217773,31.9770508-201.4572754,80.0288086-297.8828125,107.9980469-164.2490234,166.0629883-195.9482422,114.2631836-27.2819824,154.8198242,20.7700195Z"/>
    <path class="st75" d="M671.3719491,147.7641483c42.2001953,47.3227539,61.2241211,129.5969238,57.8676758,224.3459473-3.3569336,94.7490234-29.0957031,201.9958496-76.418457,299.262207-47.3227539,97.2661133-107.2744141,166.1464844-165.9384766,198.8745117s-116.0546875,29.3117676-158.2548828-18.0109863-61.2241211-129.5969238-57.8671875-224.3459473,29.0952148-201.9958496,76.4179688-299.2619629c47.3227539-97.2663574,107.2749023-166.1467285,165.9389648-198.8747559s116.0546875-29.3117676,158.2543945,18.0109863Z"/>
    <path class="st37" d="M668.6258553,144.767078c43.8632812,46.564209,64.7006836,128.4873047,62.9306641,223.2817383-1.7700195,94.7941895-26.1474609,202.4829102-72.7114258,300.5769043-46.5644531,98.09375-106.5039062,168.0307617-165.7612305,201.7980957-59.2568359,33.767334-117.8461914,31.373291-161.7094727-15.190918s-64.7006836-128.4873047-62.9311523-223.2817383c1.7700195-94.7941895,26.1474609-202.4829102,72.7119141-300.5769043,46.5644531-98.09375,106.5039062-168.0307617,165.7607422-201.7980957,59.2573242-33.767334,117.8461914-31.373291,161.7099609,15.190918Z"/>
    <path class="st23" d="M665.7723397,141.8193241c45.5463867,45.7763672,68.2270508,127.3161621,68.0766602,222.1274414-.1508789,94.8115234-23.1328125,202.9177246-68.9091797,301.8254395-45.7763672,98.907959-105.6845703,169.9013672-165.5283203,204.7185059-59.84375,34.8168945-119.637207,33.4660645-165.1835938-12.3100586-45.546875-45.7763672-68.2275391-127.3161621-68.0766602-222.1274414.1503906-94.8112793,23.1323242-202.9177246,68.9086914-301.8254395,45.7763672-98.907959,105.6850586-169.9013672,165.5288086-204.7182617,59.8432617-34.8171387,119.637207-33.4663086,165.1835938,12.3098145Z"/>
    <path class="st48" d="M662.8109139,138.9230839c47.2490234,44.9584961,71.8032227,126.0820312,73.3041992,220.8815918s-20.050293,203.298584-65.0087891,303.0061035c-44.9584961,99.7077637-104.8168945,171.7568359-165.2407227,207.6337891-60.4233398,35.8771973-121.4272461,35.5910645-168.6762695-9.3676758-47.2495117-44.9584961-71.8032227-126.0820312-73.3041992-220.8815918-1.5014648-94.7995605,20.0498047-203.2983398,65.0087891-303.0061035,44.9584961-99.7077637,104.8168945-171.7568359,165.2402344-207.6337891,60.4238281-35.8771973,121.4272461-35.5910645,168.6767578,9.3676758Z"/>
    <path class="st39" d="M659.7401131,136.0798222c48.9716797,44.1105957,75.4287109,124.784668,78.6137695,219.5429688,3.1855469,94.7585449-16.8999023,203.6245117-61.0107422,304.1174316-44.1103516,100.4926758-103.8994141,173.5964355-164.8959961,210.5437012-60.996582,36.9470215-123.2158203,37.7468262-172.1875-6.3637695-48.9711914-44.1105957-75.4282227-124.7844238-78.6137695-219.5429688-3.1850586-94.7585449,16.9003906-203.6245117,61.0107422-304.1174316,44.1108398-100.4926758,103.8994141-173.5964355,164.8959961-210.543457,60.996582-36.9472656,123.2158203-37.7470703,172.1875,6.3635254Z"/>
    <path class="st28" d="M656.5589608,133.2914921c50.7128906,43.2321777,79.1030273,123.4228516,84.0053711,218.1103516,4.9023438,94.6872559-13.6816406,203.8942871-56.9140625,305.1569824-43.2319336,101.2626953-102.9311523,175.4196777-164.4936523,213.4470215-61.5620117,38.0273438-125.0024414,39.9348145-175.715332-3.2973633-50.7133789-43.2321777-79.1030273-123.4228516-84.0053711-218.1103516-4.9023438-94.6872559,13.6816406-203.8942871,56.9135742-305.1569824,43.2324219-101.2626953,102.9316406-175.4196777,164.4936523-213.4470215,61.5625-38.0273438,125.0024414-39.9348145,175.7158203,3.2973633Z"/>
    <path class="st5" d="M653.2655037,130.5605351c52.4741211,42.3227539,82.8271484,121.9958496,89.4794922,216.581543,6.6518555,94.5854492-10.3950195,204.1066895-52.7177734,306.1237793-42.3227539,102.0168457-101.9125977,177.2250977-164.0327148,216.3425293-62.1206055,39.1176758-126.7861328,42.1540527-179.2602539-.1687012-52.4741211-42.322998-82.8271484-121.9960938-89.4790039-216.5817871-6.6523438-94.5854492,10.3945312-204.1066895,52.7172852-306.1235352,42.3227539-102.0170898,101.9130859-177.2253418,164.0332031-216.3427734,62.1201172-39.1176758,126.7861328-42.1538086,179.2597656.1689453Z"/>
    <path class="st22" d="M649.859742,127.8884159c54.2539062,41.3820801,86.5996094,120.5029297,95.034668,214.9555664,8.4345703,94.4528809-7.0390625,204.2607422-48.4213867,307.015625s-100.8417969,179.0124512-163.512207,219.2297363c-62.6704102,40.2175293-128.5664062,44.404541-182.8203125,3.0222168-54.2543945-41.3820801-86.6000977-120.5029297-95.034668-214.9555664-8.4350586-94.4528809,7.0390625-204.2607422,48.4208984-307.015625,41.3823242-102.7548828,100.8422852-179.0124512,163.5126953-219.2297363,62.6699219-40.2175293,128.5664062-44.404541,182.8203125-3.0222168Z"/>
    <path class="st88" d="M646.3392342,125.2773319c56.0532227,40.4101562,90.4213867,118.9428711,100.671875,213.2312012,10.2509766,94.2883301-3.6132812,204.3549805-44.0234375,307.8308105s-99.7192383,180.7802734-162.9311523,222.1071777c-63.2124023,41.3269043-130.3427734,46.6862793-186.3959961,6.276123-56.0527344-40.4101562-90.4213867-118.9428711-100.671875-213.2312012s3.6137695-204.3549805,44.0239258-307.8308105,99.7192383-180.7802734,162.9311523-222.1071777,130.3427734-46.6862793,186.3955078-6.276123Z"/>
    <path class="st0" d="M642.703492,122.7292362c57.8706055,39.40625,94.2915039,117.3154297,106.3911133,211.4067383,12.1000977,94.0915527-.1186523,204.3881836-39.5249023,308.567627s-98.5429688,182.527832-162.2880859,224.9736328c-63.7456055,42.4460449-132.1147461,48.9995117-189.9853516,9.5935059-57.8701172-39.40625-94.2915039-117.3151855-106.3911133-211.4067383-12.0996094-94.0913086.1191406-204.3881836,39.5253906-308.567627,39.4057617-104.1794434,98.5424805-182.527832,162.2880859-224.9736328,63.7451172-42.4458008,132.1142578-48.9995117,189.9848633-9.5935059Z"/>
    <path class="st40" d="M638.9510506,120.2463261c59.706543,38.3701172,98.2104492,115.6188965,112.1923828,209.4807129,13.9819336,93.8615723,3.4453125,204.3591309-34.9243164,309.2241211-38.3701172,104.8649902-97.3129883,184.2543945-161.5825195,227.8283691-64.2695312,43.5742188-133.8808594,51.3439941-193.5878906,12.9741211-59.706543-38.3701172-98.2099609-115.6188965-112.1918945-209.4807129-13.9819336-93.8615723-3.4458008-204.3591309,34.9243164-309.2241211,38.3696289-104.8649902,97.3129883-184.2543945,161.5820312-227.8283691,64.2695312-43.5742188,133.8813477-51.3439941,193.5878906-12.9741211Z"/>
    <path class="st27" d="M635.0809334,117.8307987c61.5610352,37.3012695,102.1767578,113.8530273,118.074707,207.451416,15.8974609,93.5986328,7.0805664,204.2666016-30.2207031,309.7988281-37.3012695,105.5319824-96.0283203,185.9584961-160.8129883,230.670166-64.7841797,44.7116699-135.6416016,53.7192383-197.203125,16.4179688-61.5610352-37.3012695-102.1767578-113.8527832-118.0742188-207.451416-15.8974609-93.5983887-7.0805664-204.2666016,30.2207031-309.7988281,37.3012695-105.5319824,96.0283203-185.9584961,160.8125-230.670166,64.784668-44.7114258,135.6420898-53.7192383,197.203125-16.4179688Z"/>
    <path class="st72" d="M631.0916756,115.4843632c63.434082,36.199707,106.1918945,112.0166016,124.0380859,205.3178711,17.8466797,93.3012695,10.7861328,204.1096191-25.4135742,310.2895508-36.1992188,106.1801758-94.6884766,187.6396484-159.9780273,233.4978027s-137.3959961,56.1257324-200.8300781,19.9260254c-63.4335938-36.199707-106.1914062-112.0166016-124.0380859-205.3178711s-10.7861328-204.1096191,25.4135742-310.2895508c36.199707-106.1801758,94.6884766-187.6396484,159.9785156-233.4978027,65.2895508-45.8579102,137.3959961-56.1257324,200.8295898-19.9260254Z"/>
    <path class="st53" d="M626.9827889,113.2092167c65.3242188,35.0649414,110.2539062,110.109375,130.0825195,203.0786133,19.8291016,92.9694824,14.5625,203.8864746-20.5024414,310.6948242s-93.2929688,189.2966309-159.0776367,236.3100586c-65.7851562,47.0131836-139.1435547,58.5629883-204.4677734,23.4980469-65.324707-35.0649414-110.2539062-110.109375-130.0830078-203.0786133-19.8291016-92.9694824-14.5625-203.8864746,20.5024414-310.6948242,35.0649414-106.8081055,93.2929688-189.2966309,159.078125-236.3098145,65.7851562-47.0134277,139.1430664-58.5632324,204.4677734-23.498291Z"/>
    <path class="st71" d="M622.7523202,111.0078007c67.2324219,33.8967285,114.3632812,108.1296387,136.2084961,200.7319336,21.8447266,92.6022949,18.409668,203.5961914-15.4873047,311.0124512-33.8964844,107.4162598-91.840332,190.9284668-158.1103516,239.1057129s-140.8823242,61.03125-208.1152344,27.1345215-114.3637695-108.1298828-136.2084961-200.7321777c-21.8452148-92.6022949-18.409668-203.5961914,15.4868164-311.0124512,33.8969727-107.4160156,91.8408203-190.9284668,158.1108398-239.1057129s140.8823242-61.0310059,208.1152344-27.1342773Z"/>
    <path class="st64" d="M618.3992928,108.8818241c69.1582031,32.6945801,118.5200195,106.0773926,142.4145508,198.2766113,23.8950195,92.1992188,22.3286133,203.2375488-10.3662109,311.2407227-32.6948242,108.003418-90.3310547,192.5344238-157.0751953,241.8840332-66.7446289,49.3496094-142.6132812,63.5297852-211.7714844,30.8349609-69.1586914-32.6945801-118.5205078-106.0773926-142.4150391-198.2766113s-22.328125-203.2375488,10.3666992-311.2407227c32.6943359-108.003418,90.3310547-192.5344238,157.0751953-241.8840332s142.612793-63.5297852,211.7714844-30.8349609Z"/>
    <path class="st78" d="M613.9227303,106.8337284c71.1015625,31.4584961,122.7236328,103.951416,148.7016602,195.7114258,25.9780273,91.7597656,26.3183594,202.8088379-5.140625,311.3776855-31.4584961,108.5688477-88.7631836,194.1130371-155.9707031,244.6433105s-144.3344727,66.0588379-215.4360352,34.6000977c-71.1015625-31.4584961-122.7231445-103.951416-148.7011719-195.7111816-25.9780273-91.7600098-26.3183594-202.809082,5.1401367-311.3779297s88.7636719-194.1130371,155.9711914-244.6433105,144.3339844-66.0588379,215.4355469-34.6000977Z"/>
    <path class="st29" d="M609.3221444,104.8654667c73.0615234,30.1882324,126.9726562,101.7512207,155.0678711,193.034668,28.0947266,91.2832031,30.3798828,202.3095703.1918945,311.421875s-87.137207,195.6635742-154.7963867,247.3825684c-67.659668,51.71875-146.0458984,68.6179199-219.1074219,38.4299316-73.0615234-30.1882324-126.9731445-101.7512207-155.0678711-193.0344238-28.0952148-91.2834473-30.3803711-202.3095703-.1918945-311.4221191,30.1879883-109.1123047,87.1367188-195.6635742,154.7963867-247.3825684,67.6591797-51.71875,146.0454102-68.6179199,219.1074219-38.4299316Z"/>
    <path class="st89" d="M604.5950936,102.9797245c75.0385742,28.8828125,131.269043,99.4750977,161.5141602,190.2446289,30.2456055,90.7692871,34.5141602,201.737793,5.6308594,311.3708496-28.8828125,109.6333008-85.4511719,197.1850586-153.5507812,250.1005859s-147.746582,71.2075195-222.784668,42.3244629c-75.0380859-28.8828125-131.2685547-99.4750977-161.5141602-190.2446289-30.2456055-90.7692871-34.5136719-201.737793-5.6308594-311.3708496,28.8828125-109.6333008,85.4516602-197.1850586,153.5507812-250.1005859,68.0996094-52.9155273,147.746582-71.2075195,222.784668-42.3244629Z"/>
    <path class="st58" d="M599.7420662,101.1782108c77.03125,27.5427246,135.609375,97.123291,168.0395508,187.340332,32.4296875,90.2172852,38.7192383,201.0930176,11.1767578,311.2233887-27.5429688,110.1306152-83.7060547,198.6762695-152.2333984,252.7958984s-149.4355469,73.8266602-226.4667969,46.2839355c-77.0317383-27.5427246-135.6098633-97.123291-168.0395508-187.340332-32.4301758-90.2172852-38.7197266-201.0927734-11.1767578-311.2233887,27.5424805-110.1306152,83.7055664-198.6762695,152.2329102-252.7958984s149.4355469-73.8266602,226.4672852-46.2839355Z"/>
    <path class="st55" d="M594.7611092,99.4633671c79.0405273,26.1672363,139.9956055,94.6945801,174.6435547,184.3205566,34.6479492,89.6262207,42.9975586,200.3730469,16.8300781,310.9770508-26.1669922,110.6040039-81.8994141,200.1359863-150.8422852,255.4672852s-151.112793,76.4755859-230.1533203,50.3083496c-79.0410156-26.1672363-139.9960938-94.6943359-174.644043-184.3205566-34.6479492-89.6259766-42.9970703-200.3728027-16.8300781-310.9770508,26.1674805-110.6040039,81.8999023-200.1359863,150.8422852-255.4672852,68.9428711-55.3312988,151.112793-76.4755859,230.1538086-50.3083496Z"/>
    <path class="st93" d="M589.6512459,97.8373905c81.065918,24.7563477,144.4267578,92.1879883,181.3261719,181.1835938,36.8999023,88.9958496,47.3476562,199.5771484,22.5913086,310.630127-24.7558594,111.0529785-80.0317383,201.5634766-149.3769531,258.1137695-69.3452148,56.5500488-152.7768555,79.1538086-233.8427734,54.3977051-81.0664062-24.7563477-144.4267578-92.1879883-181.3266602-181.1835938-36.8994141-88.9956055-47.3476562-199.5771484-22.5913086-310.630127s80.0322266-201.5634766,149.3774414-258.1135254c69.3452148-56.550293,152.7763672-79.1540527,233.8427734-54.3979492Z"/>
    <path class="st67" d="M584.4114998,96.3027226c83.1069336,23.3095703,148.9018555,89.6030273,188.0869141,177.9282227s51.7705078,198.7036133,28.4609375,310.1806641c-23.3095703,111.4768066-78.1025391,202.9572754-147.8369141,260.7333984s-154.4272461,81.8615723-237.5341797,58.5522461c-83.1064453-23.3093262-148.9013672-89.6030273-188.0864258-177.9282227-39.1855469-88.3251953-51.7705078-198.7036133-28.4614258-310.1806641,23.3095703-111.4768066,78.1025391-202.9572754,147.8369141-260.7333984,69.7348633-57.7758789,154.4272461-81.8615723,237.5341797-58.5522461Z"/>
    <path class="st73" d="M579.0413827,94.8615605c85.1625977,21.826416,153.4199219,86.9387207,194.9243164,174.5529785s56.265625,197.751709,34.4394531,309.626709c-21.8266602,111.8747559-76.1103516,204.3166504-146.2202148,263.3254395-70.1103516,59.0085449-156.0629883,84.5981445-241.2260742,62.7717285s-153.4204102-86.9387207-194.9248047-174.5529785c-41.5039062-87.6140137-56.265625-197.751709-34.4389648-309.626709,21.8261719-111.8747559,76.1103516-204.3166504,146.2202148-263.3254395,70.1098633-59.0085449,156.0629883-84.5981445,241.2260742-62.7717285Z"/>
    <path class="st43" d="M573.5389412,93.5163456c87.2338867,20.3071289,157.9824219,84.1940918,201.8393555,171.0561523s60.8334961,196.7202148,40.5263672,308.9665527-74.0551758,205.640625-144.5263672,265.8881836c-70.4711914,60.2478027-157.6835938,87.3635254-244.9174805,67.0563965-87.2338867-20.3068848-157.9819336-84.1940918-201.8388672-171.0561523-43.8574219-86.8620605-60.8334961-196.7202148-40.5263672-308.9665527,20.3066406-112.2463379,74.0546875-205.640625,144.5258789-265.8881836,70.4716797-60.2478027,157.6835938-87.3635254,244.9174805-67.0563965Z"/>
    <path class="st60" d="M567.9041756,92.2690312c89.3193359,18.7512207,162.5869141,81.3691406,208.8300781,167.4372559s65.4741211,195.6071777,46.7226562,308.197998c-18.7509766,112.5908203-71.9355469,206.9274902-142.7539062,268.4206543-70.8183594,61.4929199-159.2880859,90.1569824-248.6074219,71.4060059-89.3193359-18.7512207-162.5864258-81.3691406-208.8300781-167.4372559-46.2431641-86.0681152-65.4736328-195.6071777-46.7226562-308.197998,18.7509766-112.5905762,71.9355469-206.9274902,142.7539062-268.4206543,70.8183594-61.4929199,159.2880859-90.1569824,248.6074219-71.4060059Z"/>
    <path class="st34" d="M562.1361092,91.1223026c91.4189453,17.1582031,167.2329102,78.4626465,215.8959961,163.6943359s70.1870117,194.4118652,53.0288086,307.3193359c-17.1582031,112.9072266-69.7514648,208.1765137-140.9023438,270.9208984-71.1503906,62.7443848-160.8754883,92.9790039-252.2944336,75.8208008-91.4194336-17.1582031-167.2333984-78.4624023-215.8964844-163.6943359-48.6630859-85.2316895-70.1870117-194.4118652-53.0288086-307.3193359,17.1582031-112.9072266,69.7519531-208.1765137,140.9023438-270.9208984,71.1503906-62.7441406,160.8754883-92.9790039,252.2949219-75.8208008Z"/>
    <path class="st33" d="M556.2332772,90.0786015c93.5327148,15.5280762,171.9208984,75.4733887,223.0375977,159.8259277,51.1162109,84.3525391,74.9726562,193.1330566,59.4443359,306.3286133s-67.5024414,209.3864746-138.9702148,273.3879395c-71.4672852,64.0012207-162.4453125,95.8286133-255.9780273,80.300293-93.5327148-15.5280762-171.9213867-75.4733887-223.0375977-159.8259277s-74.9726562-193.1330566-59.4448242-306.3286133c15.5283203-113.1955566,67.5029297-209.3864746,138.9702148-273.3879395,71.4677734-64.0012207,162.4458008-95.8286133,255.9785156-80.300293Z"/>
    <path class="st62" d="M550.194703,89.1398808c95.6601562,13.8608398,176.6503906,72.4016113,230.253418,155.8312988,53.6025391,83.4299316,79.8310547,191.769043,65.9702148,305.2236328-13.8608398,113.454834-65.1879883,210.5563965-136.956543,275.8203125-71.769043,65.2636719-163.9970703,98.7058105-259.6567383,84.8449707s-176.6503906-72.4016113-230.2529297-155.8312988c-53.6030273-83.4296875-79.8310547-191.769043-65.9707031-305.2236328,13.8608398-113.454834,65.1879883-210.5563965,136.9570312-275.8203125,71.7685547-65.2636719,163.996582-98.7058105,259.65625-84.8449707Z"/>
    <path class="st74" d="M544.0203866,88.3090702c97.800293,12.1557617,181.4194336,69.2458496,237.5419922,151.7087402,56.1225586,82.4626465,84.762207,190.3183594,72.6064453,304.0026855s-62.8066406,211.6848145-134.8608398,278.2163086c-72.0537109,66.53125-165.5283203,101.6101074-263.3286133,89.4541016-97.7998047-12.1557617-181.4194336-69.2458496-237.5419922-151.7087402-56.1225586-82.4626465-84.762207-190.3183594-72.6064453-304.0026855s62.8071289-211.6848145,134.8608398-278.2160645c72.0541992-66.5314941,165.5288086-101.6101074,263.3286133-89.4543457Z"/>
    <path class="st76" d="M537.7088631,87.588123c99.953125,10.4128418,186.2285156,66.0058594,244.9038086,147.4570312s89.765625,188.7805176,79.3530273,302.6640625c-10.4130859,113.8833008-60.3588867,212.7705078-132.6816406,280.5744629s-167.0400391,104.5412598-266.9931641,94.1281738c-99.953125-10.4128418-186.2280273-66.0058594-244.9033203-147.4570312-58.6757812-81.4511719-89.7661133-188.7805176-79.3530273-302.6638184,10.4130859-113.8835449,60.3588867-212.770752,132.6816406-280.574707s167.0400391-104.5412598,266.9926758-94.1281738Z"/>
    <path class="st98" d="M531.2596444,86.9797245c102.1186523,8.6320801,191.0756836,62.6804199,252.3374023,143.074707,61.2612305,80.3942871,94.8417969,187.1540527,86.2094727,301.2053223-8.6318359,114.0515137-57.8432617,213.8127441-130.4174805,282.8937988-72.574707,69.0810547-168.5307617,107.4990234-270.6489258,98.8669434s-191.0756836-62.6806641-252.3369141-143.0749512c-61.2617188-80.3942871-94.8417969-187.1540527-86.2099609-301.2053223,8.6323242-114.0515137,57.8432617-213.8127441,130.4179688-282.8937988s168.5302734-107.4987793,270.6484375-98.8666992Z"/>
    <path class="st54" d="M524.6717537,86.4860722c104.2958984,6.8129883,195.9614258,59.2695312,259.8417969,138.5610352s99.9902344,185.4372559,93.1772461,299.625c-6.8125,114.1875-55.2592773,214.8095703-128.0688477,285.1721191-72.809082,70.3625488-169.9985352,110.482666-274.2939453,103.6696777s-195.9614258-59.2695312-259.8417969-138.5610352c-63.8798828-79.2915039-99.9902344-185.4372559-93.1772461-299.6247559,6.8129883-114.1877441,55.2597656-214.8098145,128.0688477-285.1723633s169.9985352-110.482666,274.2939453-103.6696777Z"/>
    <path class="st69" d="M517.944703,86.1098515c106.484375,4.9553223,200.8847656,55.7722168,267.4165039,133.9145508,66.5317383,78.1420898,105.2109375,183.6289062,100.2553711,297.9204102-4.9550781,114.2915039-52.6074219,215.7607422-125.6333008,287.4086914-73.0258789,71.6477051-171.4438477,113.4919434-277.9282227,108.5366211-106.4838867-4.9553223-200.8842773-55.7722168-267.4160156-133.9145508-66.5317383-78.1420898-105.2109375-183.6289062-100.2558594-297.9204102,4.9555664-114.2915039,52.6074219-215.7607422,125.6333008-287.4086914,73.0263672-71.6477051,171.4443359-113.4919434,277.9282227-108.5366211Z"/>
    <path class="st95" d="M511.0775155,85.8535038c108.6835938,3.0588379,205.8442383,52.1877441,275.0600586,129.1335449,69.2158203,76.9460449,110.5039062,181.7280273,107.4448242,296.0905762-3.059082,114.3623047-49.8857422,216.6643066-123.1108398,289.6013184-73.2246094,72.9367676-172.8652344,116.5266113-281.5488281,113.4675293-108.684082-3.0588379-205.8447266-52.1875-275.0605469-129.1335449s-110.503418-181.7280273-107.4443359-296.090332c3.0585938-114.3625488,49.8857422-216.6645508,123.1103516-289.6013184,73.2250977-72.9370117,172.8657227-116.5268555,281.5493164-113.4677734Z"/>
    <path class="st41" d="M504.069703,85.7192265c110.8935547,1.1237793,210.8398438,48.5153809,282.7719727,124.2175293,71.9326172,75.7021484,115.8681641,179.7333984,114.7446289,294.1328125-1.1240234,114.3991699-47.0947266,217.5192871-120.4995117,291.7487793-73.4052734,74.229248-174.262207,119.5861816-285.15625,118.4624023s-210.840332-48.5153809-282.7724609-124.2175293-115.8681641-179.7333984-114.7441406-294.1328125c1.1235352-114.3991699,47.0942383-217.5192871,120.4995117-291.7485352,73.4047852-74.2294922,174.262207-119.5864258,285.15625-118.4626465Z"/>
    <path class="st94" d="M496.9202889,85.7099491c113.1137695-.8505859,215.8706055,44.7548828,290.5517578,119.1647949,74.6806641,74.4101562,121.3041992,177.6433105,122.1542969,292.0454102.8505859,114.4018555-44.2324219,218.3244629-117.7988281,293.8493652-73.5664062,75.5246582-175.6333008,122.6699219-288.7475586,123.5205078s-215.8710938-44.7546387-290.5517578-119.1647949c-74.6811523-74.4101562-121.3041992-177.6433105-122.1547852-292.045166-.8505859-114.4020996,44.2329102-218.324707,117.7988281-293.8496094,73.5664062-75.5246582,175.6337891-122.6699219,288.7480469-123.5205078Z"/>
  </g>
</svg>