<svg xmlns="http://www.w3.org/2000/svg" width="46" height="19" viewBox="0 0 46 19" fill="none">
  <path d="M38.9596 10.7978L35.0761 4.36035H38.0917L40.2289 8.73593L42.3441 4.36035H45.3816L41.4621 10.7978V14.371C41.4615 14.5837 41.3769 14.7884 41.2261 14.9392C41.0753 15.09 40.8712 15.1746 40.6579 15.1752H38.9596V10.7978Z" fill="white"/>
  <path d="M27.408 4.36037H33.8914V5.73022C33.8914 5.94352 33.8068 6.14823 33.656 6.29901C33.5053 6.44978 33.3005 6.53436 33.0873 6.53436H28.9918V8.74575H33.2423V9.99364C33.2417 10.2069 33.1565 10.411 33.0057 10.5618C32.855 10.7126 32.6509 10.7972 32.4376 10.7978H28.9918V12.9963H34.0679V14.3711C34.0679 14.4765 34.0477 14.5813 34.0072 14.6794C33.9668 14.7768 33.9079 14.8657 33.8332 14.9405C33.7584 15.0152 33.6695 15.0741 33.5715 15.1145C33.474 15.155 33.3692 15.1758 33.2632 15.1752H26.599V5.16451C26.599 5.05847 26.6198 4.95366 26.6609 4.8556C26.7013 4.75753 26.7614 4.66866 26.8362 4.59388C26.9116 4.51911 27.0004 4.46027 27.0985 4.41982C27.1972 4.37998 27.302 4.35975 27.408 4.36037Z" fill="white"/>
  <path d="M19.108 15.1752H17.5242V5.16449C17.5242 4.9512 17.6088 4.74649 17.7596 4.59571C17.9109 4.44493 18.115 4.36035 18.3283 4.36035H24.9165V5.73021C24.9159 5.9435 24.8307 6.1476 24.6806 6.29838C24.5298 6.44916 24.3251 6.53374 24.1124 6.53435H19.9054V8.97497H24.0701V10.2229C24.0701 10.4361 23.9855 10.6409 23.8347 10.7916C23.684 10.9424 23.4793 11.0276 23.266 11.0276H19.9054V14.3735C19.9054 14.5849 19.8214 14.7884 19.6718 14.9386C19.5229 15.0894 19.32 15.174 19.108 15.1752Z" fill="white"/>
  <path d="M9.31544 15.1372C9.46683 15.2855 9.58696 15.4621 9.66848 15.657C9.75061 15.8519 9.7929 16.0609 9.7929 16.2723C9.7929 16.4838 9.75061 16.6934 9.66848 16.8883C9.58696 17.0832 9.46683 17.2597 9.31544 17.408L8.2214 18.5003L7.10896 17.3854C6.49789 16.7731 6.13627 15.9561 6.09459 15.0925C6.0523 14.2289 6.33301 13.3806 6.88157 12.7119L9.31544 15.1372Z" fill="white"/>
  <path d="M9.34548 7.04389C9.63662 7.33563 9.80027 7.73096 9.80027 8.14284C9.80027 8.55533 9.63662 8.95066 9.34548 9.24179L6.62048 11.9668C6.23128 12.3535 5.92298 12.8132 5.71337 13.3201C5.50375 13.827 5.39711 14.37 5.39894 14.9186C5.39956 15.2048 5.42898 15.4904 5.4872 15.7705L4.41338 14.6667C3.76002 14.0121 3.39288 13.1252 3.39288 12.2009C3.39288 11.276 3.76002 10.3892 4.41338 9.73457L8.23244 5.91797L9.34548 7.04389Z" fill="white"/>
  <path d="M9.34059 1.61979C9.63295 1.91215 9.79721 2.3087 9.79721 2.72181C9.79721 3.13552 9.63295 3.53208 9.34059 3.82443L3.92061 9.25116C3.42966 9.74149 3.06927 10.3458 2.87069 11.0102C2.67272 11.6746 2.6433 12.3782 2.78549 13.0573L1.68838 11.9578C1.36476 11.6348 1.10734 11.2505 0.932047 10.8282C0.756755 10.4053 0.666656 9.95233 0.666656 9.49448C0.666656 9.03664 0.756755 8.5837 0.932047 8.16079C1.10734 7.73788 1.36476 7.3542 1.68838 7.03058L8.21896 0.5L9.34059 1.61979Z" fill="white"/>
</svg>