<svg width="360" height="360" viewBox="0 0 360 360" fill="none" xmlns="http://www.w3.org/2000/svg">
<path fill-rule="evenodd" clip-rule="evenodd" d="M238.851 66.6892C238.851 59.709 236.068 53.0141 231.115 48.0755L212.096 29.1741L101.37 139.438C95.8777 144.897 91.5205 151.382 88.5476 158.519C85.5747 165.657 84.0444 173.309 84.0444 181.037C84.0444 188.764 85.5747 196.416 88.5476 203.554C91.5205 210.692 95.8777 217.176 101.37 222.635L119.965 241.191C117.558 229.731 118.057 217.854 121.418 206.635C124.779 195.415 130.896 185.207 139.215 176.934L231.115 85.3031C236.068 80.3644 238.851 73.6695 238.851 66.6892ZM231.087 139.269C236.058 144.25 238.85 151 238.85 158.039C238.85 165.077 236.058 171.828 231.087 176.808L184.572 223.345C177.931 229.947 172.667 237.803 169.087 246.458C165.507 255.113 163.682 264.393 163.717 273.759C163.729 278.645 164.235 283.518 165.229 288.302L146.894 269.454C135.741 258.279 129.476 243.132 129.476 227.339C129.476 211.546 135.741 196.399 146.894 185.224L212.093 120.034L231.087 139.269ZM230.613 277.03C233.221 279.525 235.294 282.504 236.708 285.791C238.123 289.078 238.852 292.608 238.852 296.174C238.852 299.739 238.123 303.269 236.708 306.556C235.294 309.843 233.221 312.822 230.613 315.317L211.711 333.734L192.495 314.935C181.948 304.615 175.706 290.836 174.981 276.274C174.256 261.713 179.101 247.408 188.573 236.139L230.613 277.03Z" fill="white"/>
</svg>
